<?xml version="1.0" encoding="utf-8"?>
<!-- Generator: Adobe Illustrator 23.0.1, SVG Export Plug-In . SVG Version: 6.00 Build 0)  -->
<svg version="1.1" id="レイヤー_1" xmlns="http://www.w3.org/2000/svg" xmlns:xlink="http://www.w3.org/1999/xlink" x="0px"
	 y="0px" width="127.1px" height="73.4px" viewBox="0 0 127.1 73.4" style="enable-background:new 0 0 127.1 73.4;"
	 xml:space="preserve">
<style type="text/css">
	.st0{fill:#F7F7F7;}
</style>
<g>
	<path class="st0" d="M3.1,17.6C4.2,14.1,5.8,11,8,8.4c2.2-2.6,5-4.7,8.3-6.2C19.6,0.7,23.4,0,27.8,0c3.3,0,6.4,0.5,9.4,1.5
		S42.8,4,45,6c2.3,1.9,4.1,4.3,5.4,7.1c1.3,2.8,2,6,2,9.5c0,3.6-0.6,6.8-1.7,9.4c-1.2,2.6-2.7,4.9-4.6,6.9c-1.9,2-4.1,3.9-6.5,5.5
		c-2.4,1.6-4.9,3.3-7.4,4.9c-2.5,1.6-4.9,3.3-7.2,5.2c-2.3,1.9-4.4,4-6.2,6.5h34v12.5H0c0-4.2,0.6-7.8,1.8-10.9
		c1.2-3.1,2.8-5.8,4.9-8.3c2.1-2.4,4.5-4.7,7.2-6.7c2.8-2.1,5.7-4.1,8.8-6.3c1.6-1.1,3.3-2.2,5-3.3c1.8-1.1,3.4-2.4,4.9-3.8
		c1.5-1.4,2.7-2.9,3.7-4.6c1-1.7,1.5-3.7,1.5-5.9c0-3.5-1-6.2-3-8.2c-2-2-4.6-2.9-7.8-2.9c-2.1,0-3.9,0.5-5.4,1.5
		c-1.5,1-2.7,2.3-3.5,3.9c-0.9,1.6-1.5,3.4-1.9,5.3s-0.6,3.9-0.6,5.8h-14C1.5,25,2,21.2,3.1,17.6z"/>
	<path class="st0" d="M93.8,0c4.7,0,9.1,0.8,13.2,2.3c4.1,1.5,7.6,3.8,10.6,6.8s5.3,6.8,7,11.3c1.7,4.5,2.5,9.8,2.5,15.9
		c0,5.3-0.7,10.3-2.1,14.8c-1.4,4.5-3.4,8.4-6.2,11.7s-6.2,5.9-10.4,7.8c-4.1,1.9-9,2.8-14.7,2.8H62.1V0H93.8z M92.7,59.8
		c2.3,0,4.6-0.4,6.8-1.1c2.2-0.8,4.1-2,5.9-3.8c1.7-1.7,3.1-4,4.1-6.8c1-2.8,1.5-6.2,1.5-10.3c0-3.7-0.4-7-1.1-10s-1.9-5.5-3.5-7.7
		c-1.6-2.1-3.8-3.8-6.5-4.9c-2.7-1.1-6.1-1.7-10-1.7H78.3v46.3H92.7z"/>
</g>
</svg>
