<?xml version="1.0" encoding="utf-8"?>
<!-- Generator: Adobe Illustrator 23.0.1, SVG Export Plug-In . SVG Version: 6.00 Build 0)  -->
<svg version="1.1" id="レイヤー_1" xmlns="http://www.w3.org/2000/svg" xmlns:xlink="http://www.w3.org/1999/xlink" x="0px"
	 y="0px" width="315.3px" height="74.3px" viewBox="0 0 315.3 74.3" style="enable-background:new 0 0 315.3 74.3;"
	 xml:space="preserve">
<style type="text/css">
	.st0{fill:#F7F7F7;}
</style>
<g>
	<path class="st0" d="M0,56.4V43.1L31.1,1.4h13v43h9.5v12H44V73H30.2V56.4H0z M29.9,19.6L11.4,44.5h18.8V19.6H29.9z"/>
	<path class="st0" d="M93.7,0c4.7,0,9.1,0.8,13.1,2.2c4.1,1.5,7.6,3.7,10.5,6.7c3,3,5.3,6.7,6.9,11.2c1.7,4.5,2.5,9.8,2.5,15.8
		c0,5.3-0.7,10.2-2,14.7c-1.4,4.5-3.4,8.4-6.2,11.7c-2.8,3.3-6.2,5.8-10.3,7.7c-4.1,1.9-9,2.8-14.6,2.8H62.2V0H93.7z M92.6,59.5
		c2.3,0,4.6-0.4,6.7-1.1c2.2-0.7,4.1-2,5.8-3.7c1.7-1.7,3.1-4,4.1-6.8c1-2.8,1.5-6.2,1.5-10.2c0-3.7-0.4-7-1.1-10
		c-0.7-3-1.9-5.5-3.5-7.6c-1.6-2.1-3.8-3.7-6.5-4.9c-2.7-1.1-6-1.7-10-1.7H78.3v46H92.6z"/>
	<path class="st0" d="M124.2,0h18.6l14.3,23.3L171.9,0h17.6l-23.4,34.8L191.5,73h-19.1l-15.9-25.2L140.2,73h-18l25.4-38.2L124.2,0z"
		/>
	<path class="st0" d="M217.2,30.4c1.8-0.1,3.4-0.5,5-1.2c1.5-0.6,2.8-1.6,3.8-2.8c1-1.2,1.5-2.9,1.5-4.9c0-3.1-1-5.4-3.1-7.1
		c-2-1.6-4.4-2.5-7.1-2.5c-3.7,0-6.5,1.2-8.3,3.6c-1.9,2.4-2.8,5.5-2.7,9.1h-13.8c0.1-3.7,0.8-7,2-10.1c1.2-3,2.9-5.6,5-7.8
		c2.1-2.2,4.7-3.9,7.7-5.1c3-1.2,6.3-1.8,10-1.8c2.9,0,5.7,0.4,8.6,1.3c2.9,0.9,5.4,2.1,7.7,3.8c2.3,1.7,4.1,3.8,5.6,6.2
		c1.4,2.5,2.1,5.3,2.1,8.5c0,3.5-0.8,6.5-2.5,9.2c-1.7,2.7-4.2,4.5-7.5,5.4v0.2c4,0.9,7.1,2.8,9.3,5.7c2.2,2.9,3.4,6.4,3.4,10.5
		c0,3.7-0.7,7.1-2.2,10c-1.5,2.9-3.4,5.4-5.9,7.4c-2.5,2-5.3,3.5-8.5,4.5c-3.2,1-6.5,1.5-10,1.5c-4,0-7.7-0.6-11-1.7
		c-3.3-1.2-6.1-2.8-8.4-5.1c-2.3-2.2-4.1-4.9-5.4-8.1c-1.3-3.2-1.9-6.9-1.8-11h13.8c0.1,1.9,0.4,3.7,0.9,5.5
		c0.5,1.7,1.3,3.2,2.4,4.5c1,1.3,2.3,2.3,3.8,3c1.5,0.8,3.4,1.1,5.5,1.1c3.3,0,6-1,8.3-3c2.2-2,3.4-4.8,3.4-8.2
		c0-2.7-0.5-4.8-1.6-6.2c-1.1-1.4-2.4-2.5-4-3.1c-1.6-0.6-3.4-1-5.4-1.1c-1.9-0.1-3.8-0.2-5.6-0.2V30.4
		C213.7,30.5,215.4,30.5,217.2,30.4z"/>
	<path class="st0" d="M282.1,0c4.7,0,9.1,0.8,13.1,2.2c4.1,1.5,7.6,3.7,10.5,6.7c3,3,5.3,6.7,6.9,11.2c1.7,4.5,2.5,9.8,2.5,15.8
		c0,5.3-0.7,10.2-2,14.7c-1.4,4.5-3.4,8.4-6.2,11.7c-2.8,3.3-6.2,5.8-10.3,7.7c-4.1,1.9-9,2.8-14.6,2.8h-31.5V0H282.1z M281,59.5
		c2.3,0,4.6-0.4,6.7-1.1c2.2-0.7,4.1-2,5.8-3.7c1.7-1.7,3.1-4,4.1-6.8c1-2.8,1.5-6.2,1.5-10.2c0-3.7-0.4-7-1.1-10
		c-0.7-3-1.9-5.5-3.5-7.6c-1.6-2.1-3.8-3.7-6.5-4.9c-2.7-1.1-6-1.7-10-1.7h-11.4v46H281z"/>
</g>
</svg>
