<?xml version="1.0" encoding="utf-8"?>
<!-- Generator: Adobe Illustrator 22.1.0, SVG Export Plug-In . SVG Version: 6.00 Build 0)  -->
<!DOCTYPE svg PUBLIC "-//W3C//DTD SVG 1.1//EN" "http://www.w3.org/Graphics/SVG/1.1/DTD/svg11.dtd" [
	<!ENTITY st0 "fill:#F7F7F7;">
]>
<svg version="1.1" id="レイヤー_1" xmlns="http://www.w3.org/2000/svg" xmlns:xlink="http://www.w3.org/1999/xlink" x="0px"
	 y="0px" viewBox="0 0 316.3 130.2" style="enable-background:new 0 0 316.3 130.2;" xml:space="preserve">
<g>
	<g>
		<g>
			<g>
				<g>
					<path style="&st0;" d="M67.4,77V30.1H40.3L0,77h10.3l-4.8,5.6v16.9H57v15h19.5V77.1L67.4,77L67.4,77z M57,82.7H26.5l5-5.7h-9
						L48,47.7V77h9V82.7z"/>
					<path style="&st0;" d="M165.6,64.2H155c-0.3-18.9-16.2-34.1-35.8-34.1H86.8v34.1h10.5v35.2h32.5c19.8,0,35.8-15.5,35.8-34.7
						C165.7,64.6,165.6,64.4,165.6,64.2z M131.4,82.7h-13.8V64.2H107V46.8h13.8c7.7,0,13.9,7.8,14.1,17.5h10.6c0,0.2,0,0.3,0,0.5
						C145.5,74.6,139.2,82.7,131.4,82.7z"/>
					<g>
						<polygon style="&st0;" points="178.8,79.7 174.3,84.4 254.6,84.4 250.1,79.7 						"/>
					</g>
					<g>
						<polygon style="&st0;" points="200.6,64.2 188.4,77 256.9,77 244.7,64.2 						"/>
					</g>
					<g>
						<polygon style="&st0;" points="198.6,53.2 206.5,61.4 256.5,61.4 264.4,53.2 						"/>
					</g>
					<g>
						<polygon style="&st0;" points="177.3,50.4 212.7,50.4 193.3,30.2 157.9,30.2 						"/>
						<polygon style="&st0;" points="213.6,50.4 245.9,50.4 265.3,30.2 233,30.2 						"/>
					</g>
					<g>
						<polygon style="&st0;" points="171.2,27.4 206.6,27.4 193.4,13.8 158,13.8 						"/>
						<polygon style="&st0;" points="270.1,0 243.8,27.4 279.2,27.4 305.4,0 						"/>
					</g>
					<g>
						<polygon style="&st0;" points="268.2,87.2 232.8,87.2 244.5,99.5 279.9,99.5 						"/>
						<polygon style="&st0;" points="142.5,130.2 179.5,130.2 206.8,101.7 169.7,101.7 						"/>
						<polygon style="&st0;" points="229.7,87.2 192.3,87.2 180.5,99.5 217.8,99.5 						"/>
						<polygon style="&st0;" points="249.2,114.5 284.6,114.5 272.4,101.7 237.1,101.7 						"/>
					</g>
				</g>
			</g>
		</g>
	</g>
	<g>
		<path style="&st0;" d="M307.5,2.7c0.2-0.5,0.6-1,1-1.4s0.9-0.7,1.4-1c0.5-0.2,1.1-0.3,1.8-0.3c0.6,0,1.2,0.1,1.8,0.3
			c0.5,0.2,1,0.5,1.4,1c0.4,0.4,0.7,0.9,1,1.4c0.2,0.5,0.4,1.1,0.4,1.8s-0.1,1.3-0.4,1.8c-0.2,0.5-0.6,1-1,1.4s-0.9,0.7-1.4,0.9
			s-1.1,0.3-1.8,0.3c-0.6,0-1.2-0.1-1.8-0.3c-0.6-0.2-1-0.5-1.4-0.9s-0.7-0.9-1-1.4c-0.2-0.6-0.4-1.2-0.4-1.8
			C307.2,3.8,307.3,3.2,307.5,2.7z M308.3,6c0.2,0.5,0.4,0.9,0.8,1.2c0.3,0.3,0.7,0.6,1.2,0.8c0.5,0.2,0.9,0.3,1.5,0.3
			c0.5,0,1-0.1,1.5-0.3s0.8-0.5,1.2-0.8c0.3-0.3,0.6-0.8,0.8-1.2c0.2-0.5,0.3-1,0.3-1.5s-0.1-1-0.3-1.5c-0.2-0.5-0.5-0.9-0.8-1.2
			s-0.7-0.6-1.2-0.8s-0.9-0.3-1.5-0.3c-0.5,0-1,0.1-1.5,0.3s-0.8,0.5-1.2,0.8c-0.3,0.3-0.6,0.7-0.8,1.2c-0.2,0.5-0.3,1-0.3,1.5
			S308.1,5.5,308.3,6z M312,1.9c0.6,0,1.1,0.1,1.4,0.4c0.3,0.2,0.5,0.6,0.5,1.1s-0.1,0.8-0.4,1s-0.6,0.4-1,0.4l1.5,2.3h-0.9
			l-1.4-2.3h-0.9v2.3H310V1.8L312,1.9L312,1.9z M311.7,4.2c0.2,0,0.4,0,0.5,0c0.2,0,0.3,0,0.4-0.1s0.2-0.1,0.3-0.3
			c0.1-0.1,0.1-0.3,0.1-0.5s0-0.3-0.1-0.4c-0.1-0.1-0.2-0.2-0.3-0.2c-0.1-0.1-0.2-0.1-0.4-0.1c-0.1,0-0.3,0-0.4,0h-1.1v1.7h1V4.2z"
			/>
	</g>
</g>
</svg>
