<?xml version="1.0" encoding="utf-8"?>
<!-- Generator: Adobe Illustrator 24.0.1, SVG Export Plug-In . SVG Version: 6.00 Build 0)  -->
<svg version="1.1" id="レイヤー_1" xmlns="http://www.w3.org/2000/svg" xmlns:xlink="http://www.w3.org/1999/xlink" x="0px"
	 y="0px" width="316.3px" height="130.2px" viewBox="0 0 316.3 130.2" style="enable-background:new 0 0 316.3 130.2;"
	 xml:space="preserve">
<style type="text/css">
	.st0{fill:#2D2A26;}
</style>
<g>
	<path class="st0" d="M315.6,127.4l-61.9-52.9c-0.4-0.3-0.9-0.5-1.4-0.5h-24.5l68.8-70.7c0.3-0.3,0.1-0.9-0.4-0.9H260
		c-0.6,0-1.1,0.2-1.5,0.6l-41.4,39.1l-25.5-22.7c-0.4-0.4-0.9-0.5-1.5-0.5h-35.6c-0.5,0-0.7,0.6-0.4,1l29.6,28.6
		c0.4,0.4,0.9,0.6,1.5,0.6h23l-62.6,58.8c-0.4,0.3-0.1,0.9,0.4,0.9h47.6c0.6,0,1.1-0.2,1.6-0.7l22.7-23.4l42.5,43.1
		c0.4,0.4,1,0.6,1.5,0.6h53.3C315.8,128.4,316,127.8,315.6,127.4"/>
	<path class="st0" d="M55.3,106.3L55.2,91H1.3c-0.5,0-0.9-0.4-0.9-0.9V74.9c0-1.4,0.7-2.7,1.8-3.4L64,26.4c3.1-2.3,7.5-0.1,7.5,3.8
		v76.1C71.5,106.3,55.3,106.3,55.3,106.3z M54.2,51.5c-0.3,0-0.5,0.1-0.7,0.2l-31,22.4C22,74.4,21.8,75,22,75.6s0.7,0.9,1.3,0.9
		h32.4V52.8C55.5,52.1,54.9,51.5,54.2,51.5"/>
	<path class="st0" d="M149,39.4c-6.2-7.3-14.7-11.9-27.6-11.9H89.5c-2.6,0-4.7,2.1-4.7,4.7v56c0,2.6,2.1,4.7,4.7,4.7h31.8
		c9.8,0,18.7-2.6,26.1-10.3c3.8-3.8,8.9-11.7,8.9-22.3C156.4,49.6,151.6,42.5,149,39.4 M136.9,72c-1.9,2.3-6.6,6.5-14.6,6.5h-19.6
		c-0.9,0-1.6-0.7-1.6-1.6v-33c0-0.9,0.7-1.6,1.6-1.6h19.6c8.2,0,12.9,4.1,14.8,6.5c2.7,3.3,4.2,7.2,4.2,11.5
		C141.3,64.6,139.5,68.8,136.9,72"/>
</g>
</svg>
