<?xml version="1.0" encoding="utf-8"?>
<!-- Generator: Adobe Illustrator 24.0.1, SVG Export Plug-In . SVG Version: 6.00 Build 0)  -->
<svg version="1.1" id="レイヤー_1" xmlns="http://www.w3.org/2000/svg" xmlns:xlink="http://www.w3.org/1999/xlink" x="0px"
	 y="0px" width="316.3px" height="130.2px" viewBox="0 0 316.3 130.2" style="enable-background:new 0 0 316.3 130.2;"
	 xml:space="preserve">
<style type="text/css">
	.st0{fill:#F7F7F7;}
</style>
<g>
	<path class="st0" d="M316,127.3l-62-53c-0.4-0.3-0.9-0.5-1.4-0.5H228L296.9,3c0.3-0.3,0.1-0.9-0.4-0.9h-36.3
		c-0.6,0-1.1,0.2-1.5,0.6l-41.5,39.2L191.8,19c-0.4-0.4-0.9-0.5-1.5-0.5h-35.7c-0.5,0-0.7,0.6-0.4,1l29.6,28.7
		c0.4,0.4,0.9,0.6,1.5,0.6h23.1l-62.7,58.9c-0.4,0.3-0.1,0.9,0.4,0.9h47.6c0.6,0,1.1-0.2,1.6-0.7l22.7-23.5l42.6,43.2
		c0.4,0.4,1,0.6,1.5,0.6h53.4C316.1,128.2,316.4,127.6,316,127.3"/>
	<path class="st0" d="M55.2,106.1l-0.1-15.3H1.2c-0.5,0-0.9-0.4-0.9-0.9V74.7c0-1.4,0.7-2.7,1.8-3.4l61.8-45.2
		c3.1-2.3,7.5-0.1,7.5,3.8v76.2H55.2z M54.1,51.3c-0.3,0-0.5,0.1-0.7,0.2L22.3,73.9c-0.5,0.3-0.7,0.9-0.5,1.5
		c0.2,0.6,0.7,0.9,1.3,0.9h32.4V52.6C55.5,51.9,54.9,51.3,54.1,51.3"/>
	<path class="st0" d="M149.1,39.1c-6.2-7.3-14.8-11.9-27.6-11.9H89.6c-2.6,0-4.7,2.1-4.7,4.7v56c0,2.6,2.1,4.7,4.7,4.7h31.9
		c9.9,0,18.7-2.6,26.2-10.3c3.8-3.8,8.9-11.7,8.9-22.4C156.5,49.4,151.8,42.3,149.1,39.1 M137,71.8c-2,2.3-6.7,6.5-14.6,6.5h-19.7
		c-0.9,0-1.6-0.7-1.6-1.6v-33c0-0.9,0.7-1.6,1.6-1.6h19.7c8.2,0,12.9,4.1,14.8,6.5c2.7,3.3,4.2,7.2,4.2,11.5
		C141.4,64.4,139.6,68.6,137,71.8"/>
</g>
</svg>
