<?xml version="1.0" encoding="utf-8"?>
<!-- Generator: Adobe Illustrator 24.0.1, SVG Export Plug-In . SVG Version: 6.00 Build 0)  -->
<svg version="1.1" id="レイヤー_1" xmlns="http://www.w3.org/2000/svg" xmlns:xlink="http://www.w3.org/1999/xlink" x="0px"
	 y="0px" width="176.1px" height="32.1px" viewBox="0 0 176.1 32.1" style="enable-background:new 0 0 176.1 32.1;"
	 xml:space="preserve">
<style type="text/css">
	.st0{fill:#F7F7F7;}
</style>
<g>
	<path class="st0" d="M37.8,9.7c-1.7-2.1-4.1-3.1-7.1-3.1h-8.1c-0.7,0-1.3,0.6-1.3,1.3v14.2c0,0.7,0.6,1.3,1.3,1.3h8.1
		c2.8,0,4.9-0.8,6.7-2.6c0.5-0.5,2.3-2.5,2.3-5.7C39.7,12.4,38.5,10.6,37.8,9.7 M34.6,18c-0.5,0.6-1.6,1.6-3.6,1.6h-5
		c-0.2,0-0.3-0.1-0.3-0.3v-8.3c0-0.2,0.1-0.3,0.3-0.3h5c1.8,0,2.9,0.8,3.6,1.5c0.7,0.8,1.1,1.9,1.1,2.9C35.7,16.1,35.3,17.2,34.6,18
		"/>
	<path class="st0" d="M16.9,6.2c-0.3,0-0.5,0.1-0.8,0.3L0.5,17.8c-0.3,0.2-0.5,0.6-0.5,1v3.8C0,22.8,0.2,23,0.3,23h13.5l0,3.9h4.3
		l0-19.4C18.2,6.7,17.6,6.2,16.9,6.2 M13.9,19.1H5.9c-0.1,0-0.2-0.1-0.2-0.2c0-0.1,0-0.2,0.1-0.3l7.9-5.7c0,0,0.1,0,0.1,0
		c0.1,0,0.2,0.1,0.2,0.2V19.1z"/>
	<path class="st0" d="M66.1,18.3c-0.1-0.1-0.3-0.2-0.4-0.2h-5.9L77,0.4c0.1-0.1,0.1-0.2,0.1-0.3C77,0.1,76.9,0,76.8,0h-9.2
		c-0.2,0-0.3,0.1-0.5,0.2L56.8,10l-6.4-5.7c-0.1-0.1-0.3-0.2-0.4-0.2h-9c-0.1,0-0.2,0.1-0.2,0.2c0,0.1,0,0.2,0.1,0.3l7.5,7.3
		c0.1,0.1,0.3,0.2,0.5,0.2h5.6L38.6,26.7c-0.1,0.1-0.1,0.2-0.1,0.3c0,0.1,0.1,0.2,0.2,0.2h12c0.2,0,0.4-0.1,0.5-0.2l5.7-5.9
		l10.7,10.8c0.1,0.1,0.3,0.2,0.5,0.2h13.5c0.1,0,0.2-0.1,0.2-0.2c0-0.1,0-0.2-0.1-0.3L66.1,18.3z"/>
	<path class="st0" d="M172.7,7.9v10.6c0,0.2-0.1,0.4-0.4,0.4c-0.2,0-0.3-0.1-0.5-0.4l-6.1-9.2c-0.4-0.6-1.2-1.7-3.5-1.7
		c-2,0-3.1,1.1-3.1,3.1v11.5h3.4V11.5c0-0.2,0.1-0.4,0.3-0.4c0.2,0,0.3,0.1,0.5,0.4l6.2,9.3c0.7,1.1,1.9,1.6,3.4,1.6
		c1.4,0,3.1-0.5,3.1-3.1V7.9H172.7z"/>
	<path class="st0" d="M95.8,10.5c-0.5,0.6-1.6,2.1-1.6,4.5c0,2.6,1.4,4.3,1.9,4.9c1.5,1.5,3.3,2.2,5.7,2.2h6.7v-3.2h-6.7
		c-1.9,0-2.8-1-3.2-1.4c-0.1-0.1-0.9-1.1-0.9-2.5c0-1.3,0.7-2.2,0.9-2.5c0.8-0.9,1.8-1.4,3.2-1.4h6.7V7.9h-6.7
		C98.5,7.9,96.8,9.4,95.8,10.5"/>
	<path class="st0" d="M88.5,13.5h-5.9c-0.5,0-0.9-0.1-1.1-0.4c-0.2-0.3-0.3-0.5-0.3-0.8c0-0.3,0.1-0.6,0.3-0.9
		c0.3-0.3,0.7-0.4,1.1-0.4h9.9V7.9h-10c-1.8,0-2.9,0.4-3.7,1.4c-0.6,0.7-1,1.8-1,2.9c0,1.2,0.4,2.3,1.1,3c0.6,0.6,1.5,1.3,3.7,1.3
		h5.7c0.7,0,1,0.1,1.2,0.4c0.2,0.3,0.4,0.5,0.4,0.9c0,0.3-0.1,0.6-0.3,0.8c-0.2,0.2-0.5,0.4-1.2,0.4h-10v3.2h10.2
		c2.2,0,3.3-0.9,3.8-1.6c0.4-0.5,1-1.4,1-2.7c0-1-0.3-2-1-2.7C91.4,14,90.1,13.5,88.5,13.5"/>
	<path class="st0" d="M127.2,9.9V20c0,1.4,0.7,2.1,2.1,2.1h12.2v-3.2h-10.6c-0.2,0-0.3-0.1-0.3-0.3v-2.1h10.8v-2.9h-10.8v-2.1
		c0-0.2,0.1-0.3,0.3-0.3h10.6V7.9h-12.2C127.9,7.9,127.2,8.5,127.2,9.9"/>
	<path class="st0" d="M143.2,9.9V20c0,1.4,0.7,2.1,2.1,2.1h12.2v-3.2h-10.6c-0.2,0-0.3-0.1-0.3-0.3v-2.1h10.8v-2.9h-10.8v-2.1
		c0-0.2,0.1-0.3,0.3-0.3h10.6V7.9h-12.2C143.9,7.9,143.2,8.5,143.2,9.9"/>
	<path class="st0" d="M125.5,17.9c0-0.8-0.1-1.5-0.4-2c-0.3-0.4-0.5-0.7-0.9-1c0.5-0.4,0.8-0.8,1.1-1.3c0.2-0.5,0.4-1.1,0.4-1.8
		c0-0.9-0.4-1.9-1-2.6c-0.8-0.9-2-1.4-3.5-1.4h-8.7c-1.4,0-2.1,0.7-2.1,2v12.2h3.3v-5.3h6.9c0.6,0,1.1,0.1,1.3,0.4
		c0.2,0.2,0.4,0.6,0.4,1.1V21c0,0.5,0.1,1.1,0.1,1.1h3.4c0,0-0.1-0.3-0.1-1.4V17.9z M121.3,13.7c-0.2,0.1-0.6,0.2-1,0.2h-6.6v-2.6
		c0-0.1,0.1-0.2,0.2-0.2h6.3c0.4,0,0.7,0,0.9,0.1c0.6,0.2,0.9,0.7,0.9,1.3C122.1,12.9,121.9,13.4,121.3,13.7"/>
</g>
</svg>
