<?xml version="1.0" encoding="utf-8"?>
<!-- Generator: Adobe Illustrator 23.0.4, SVG Export Plug-In . SVG Version: 6.00 Build 0)  -->
<svg version="1.1" id="レイヤー_1" xmlns="http://www.w3.org/2000/svg" xmlns:xlink="http://www.w3.org/1999/xlink" x="0px"
	 y="0px" width="120px" height="103.7px" viewBox="0 0 120 103.7" style="enable-background:new 0 0 120 103.7;"
	 xml:space="preserve">
<style type="text/css">
	.st0{fill:#FF4D00;}
	.st1{fill:#53575A;}
</style>
<path class="st0" d="M109.8,68.2l-0.2,0.1L85,76.2v19.6l24.9,7.9l10.2-6.5V75.1L109.8,68.2z M109.4,76.7L93,79.4l-6.6-2.8l23-7.4
	V76.7z M110.1,69.4l8.5,5.8l-8.5,1.4V69.4z M93.4,80.1l16-2.7v17.4l-16-2.9V80.1z M92.7,80v11.9l-6.9,3V77.1L92.7,80z M93,92.6
	l16.3,3v7.2l-23.1-7.3L93,92.6z M110.1,95.7l8.4,1.5l-8.4,5.3V95.7z M110.1,95V77.3l9.1-1.5v20.9L110.1,95z"/>
<path class="st1" d="M14.6,81.7v-2.3H4.2c-1.2,0-2.1,0.9-2.1,2.1v3.9c0,1.2,0.9,2.1,2.1,2.1H11l0,3.4H2.1v2.3h10.5
	c1.1,0,2-0.9,2-2.1v-3.9c0-1.1-1-2.1-2.1-2.1H5.8v-3.4H14.6z"/>
<path class="st1" d="M27.6,81.7v-2.3h-9.5c-1.1,0-2.1,0.9-2.1,2.1V91c0,1.1,1,2.1,2.1,2.1h9.5v-2.3h-8v-9.1H27.6z"/>
<path class="st1" d="M38.3,88.4h0.8c1,0,2.2-1.1,2.2-2.2v-4.6c0-1.2-1.2-2.2-2.2-2.2H29v13.8h3.6V81.7h5.1v4.4h-4.3v0.5l4.4,6.5h3.6
	L38.3,88.4z"/>
<path class="st1" d="M54.4,81.7v-2.3h-9.6c-1.1,0-2.1,0.9-2.1,2.1V91c0,1.1,0.9,2.1,2.1,2.1h9.6v-2.3h-8.1v-3.4h6.1v-2.3h-6.1v-3.4
	H54.4z"/>
<path class="st1" d="M67.4,81.7v-2.3h-9.6c-1.1,0-2.1,0.9-2.1,2.1V91c0,1.1,0.9,2.1,2.1,2.1h9.6v-2.3h-8.1v-3.4h6.1v-2.3h-6.1v-3.4
	H67.4z"/>
<path class="st1" d="M82.1,79.4h-3.6v10.5l-4.9-9.3c-0.3-0.6-1.1-1.1-1.8-1.1h-3v13.8h3.6V82.7l4.9,9.2c0.4,0.7,1.1,1.2,1.9,1.2h2.9
	V79.4z"/>
<polygon class="st1" points="108.5,71.2 100.5,73.6 95.1,82.2 91,76.4 87.3,77.5 92.7,86.1 87.3,94.8 91,95.8 95.1,90 100.5,98.6 
	108.5,101 97.9,86.1 "/>
<path class="st1" d="M26.5,30.3V11.9H15.8L0,30.3h4.1l-1.9,2.2v6.6h20.2V45H30V30.3H26.5z M22.4,32.5h-12l2-2.2H8.8l10-11.5v11.5
	h3.5V32.5z"/>
<path class="st1" d="M65.1,25.3h-4.1c-0.1-7.4-6.4-13.4-14.1-13.4H34.1v13.4h4.2v13.8H51c7.8,0,14.1-6.1,14.1-13.6
	C65.1,25.4,65.1,25.3,65.1,25.3 M51.6,32.5h-5.4v-7.3H42v-6.9h5.4c3,0,5.5,3.1,5.5,6.9h4.2c0,0.1,0,0.1,0,0.2
	C57.2,29.3,54.7,32.5,51.6,32.5"/>
<polygon class="st1" points="70.3,31.3 68.5,33.2 100,33.2 98.3,31.3 "/>
<polygon class="st1" points="78.8,25.3 74,30.3 101,30.3 96.2,25.3 "/>
<polygon class="st1" points="78,20.9 81.1,24.1 100.8,24.1 103.9,20.9 "/>
<polygon class="st1" points="69.7,19.8 83.6,19.8 75.9,11.9 62,11.9 "/>
<polygon class="st1" points="83.9,19.8 96.6,19.8 104.2,11.9 91.5,11.9 "/>
<polygon class="st1" points="67.3,10.8 81.2,10.8 76,5.4 62.1,5.4 "/>
<polygon class="st1" points="106.1,0 95.8,10.8 109.7,10.8 120,0 "/>
<polygon class="st1" points="105.4,34.3 91.5,34.3 96.1,39.1 110,39.1 "/>
<polygon class="st1" points="56,51.2 70.5,51.2 81.3,40 66.7,40 "/>
<polygon class="st1" points="90.2,34.3 75.6,34.3 70.9,39.1 85.6,39.1 "/>
<polygon class="st1" points="97.9,45 111.8,45 107,40 93.1,40 "/>
<polygon class="st1" points="56.9,64 56,64 55.3,61.1 55.3,61.1 54.6,64 53.6,64 52.5,59.7 53.4,59.7 54.1,62.6 54.1,62.6 
	54.9,59.7 55.7,59.7 56.5,62.6 56.5,62.6 57.2,59.7 58.1,59.7 "/>
<rect x="58.5" y="59.7" class="st1" width="0.9" height="4.3"/>
<polygon class="st1" points="61.2,60.5 59.9,60.5 59.9,59.7 63.4,59.7 63.4,60.5 62.1,60.5 62.1,64 61.2,64 "/>
<polygon class="st1" points="63.9,59.7 64.8,59.7 64.8,61.3 66.6,61.3 66.6,59.7 67.5,59.7 67.5,64 66.6,64 66.6,62.1 64.8,62.1 
	64.8,64 63.9,64 "/>
<rect y="61.5" class="st1" width="46.9" height="0.6"/>
<rect x="73.1" y="61.5" class="st1" width="46.9" height="0.6"/>
</svg>
