<?xml version="1.0" encoding="utf-8"?>
<!-- Generator: Adobe Illustrator 23.0.4, SVG Export Plug-In . SVG Version: 6.00 Build 0)  -->
<svg version="1.1" id="レイヤー_1" xmlns="http://www.w3.org/2000/svg" xmlns:xlink="http://www.w3.org/1999/xlink" x="0px"
	 y="0px" width="120.3px" height="104px" viewBox="0 0 120.3 104" style="enable-background:new 0 0 120.3 104;"
	 xml:space="preserve">
<style type="text/css">
	.st0{fill:#F7F7F7;}
</style>
<g>
	<path class="st0" d="M110.1,68.4l-0.2,0.1l-24.8,8v19.6l24.9,7.9l10.2-6.5V75.4L110.1,68.4z M109.7,76.9l-16.4,2.7l-6.7-2.8l23-7.4
		V76.9z M110.5,69.6l8.5,5.8l-8.5,1.4V69.6z M93.7,80.3l16-2.7v17.4l-16-3V80.3z M92.9,80.3v11.9l-7,3V77.3L92.9,80.3z M93.3,92.9
		l16.4,3v7.2l-23.1-7.4L93.3,92.9z M110.5,96l8.4,1.5l-8.4,5.3V96z M110.5,95.2V77.5l9.1-1.5v20.9L110.5,95.2z"/>
	<path class="st0" d="M14.7,81.9v-2.3H4.2c-1.2,0-2.1,0.9-2.1,2.1v3.9c0,1.2,0.9,2.1,2.1,2.1h6.8l0,3.4H2.2v2.3h10.6
		c1.1,0,2-0.9,2-2.1v-3.9c0-1.1-1-2.1-2.1-2.1H5.8v-3.4H14.7z"/>
	<path class="st0" d="M27.7,81.9v-2.3h-9.5c-1.1,0-2.1,0.9-2.1,2.1v9.6c0,1.1,1,2.1,2.1,2.1h9.5v-2.3h-8v-9.1H27.7z"/>
	<path class="st0" d="M38.4,88.7h0.8c1,0,2.2-1.1,2.2-2.2v-4.7c0-1.2-1.2-2.2-2.2-2.2H29.1v13.8h3.6V81.9h5.2v4.4h-4.3v0.5l4.4,6.5
		h3.6L38.4,88.7z"/>
	<path class="st0" d="M54.6,81.9v-2.3H45c-1.1,0-2.1,0.9-2.1,2.1v9.6c0,1.1,0.9,2.1,2.1,2.1h9.6v-2.3h-8.1v-3.4h6.1v-2.3h-6.1v-3.4
		H54.6z"/>
	<path class="st0" d="M67.6,81.9v-2.3H58c-1.1,0-2.1,0.9-2.1,2.1v9.6c0,1.1,0.9,2.1,2.1,2.1h9.6v-2.3h-8.1v-3.4h6.1v-2.3h-6.1v-3.4
		H67.6z"/>
	<path class="st0" d="M82.3,79.6h-3.6v10.5l-4.9-9.3c-0.3-0.6-1.1-1.1-1.8-1.1h-3v13.8h3.6V82.9l4.9,9.3c0.4,0.7,1.1,1.2,1.9,1.2
		h2.9V79.6z"/>
	<polygon class="st0" points="108.8,71.4 100.8,73.8 95.4,82.4 91.3,76.6 87.5,77.7 93,86.4 87.6,95 91.3,96.1 95.4,90.3 
		100.8,98.9 108.8,101.2 98.2,86.4 	"/>
	<path class="st0" d="M26.5,30.4V11.9H15.9L0,30.4h4.1l-1.9,2.2v6.7h20.3v5.9h7.7V30.4H26.5z M22.4,32.6h-12l2-2.2H8.8l10.1-11.5
		v11.5h3.6V32.6z"/>
	<path class="st0" d="M65.3,25.3h-4.2C61,17.9,54.7,11.9,47,11.9H34.2v13.4h4.2v13.9h12.8c7.8,0,14.1-6.1,14.1-13.7
		C65.3,25.5,65.3,25.4,65.3,25.3 M51.8,32.6h-5.4v-7.3h-4.2v-6.9h5.4c3,0,5.5,3.1,5.6,6.9h4.2c0,0.1,0,0.1,0,0.2
		C57.3,29.4,54.8,32.6,51.8,32.6"/>
	<polygon class="st0" points="70.5,31.4 68.7,33.3 100.3,33.3 98.5,31.4 	"/>
	<polygon class="st0" points="79,25.3 74.2,30.3 101.2,30.3 96.4,25.3 	"/>
	<polygon class="st0" points="78.2,21 81.3,24.2 101.1,24.2 104.2,21 	"/>
	<polygon class="st0" points="69.9,19.9 83.8,19.9 76.1,11.9 62.2,11.9 	"/>
	<polygon class="st0" points="84.2,19.9 96.9,19.9 104.5,11.9 91.8,11.9 	"/>
	<polygon class="st0" points="67.5,10.8 81.4,10.8 76.2,5.4 62.2,5.4 	"/>
	<polygon class="st0" points="106.4,0 96.1,10.8 110,10.8 120.3,0 	"/>
	<polygon class="st0" points="105.7,34.4 91.7,34.4 96.4,39.2 110.3,39.2 	"/>
	<polygon class="st0" points="56.1,51.3 70.7,51.3 81.5,40.1 66.9,40.1 	"/>
	<polygon class="st0" points="90.5,34.4 75.8,34.4 71.1,39.2 85.8,39.2 	"/>
	<polygon class="st0" points="98.2,45.1 112.1,45.1 107.3,40.1 93.4,40.1 	"/>
	<polygon class="st0" points="57.1,64.1 56.2,64.1 55.4,61.2 55.4,61.2 54.7,64.1 53.8,64.1 52.6,59.9 53.6,59.9 54.3,62.8 
		54.3,62.8 55,59.9 55.9,59.9 56.6,62.8 56.6,62.8 57.3,59.9 58.2,59.9 	"/>
	<rect x="58.7" y="59.9" class="st0" width="0.9" height="4.3"/>
	<polygon class="st0" points="61.4,60.7 60.1,60.7 60.1,59.9 63.6,59.9 63.6,60.7 62.3,60.7 62.3,64.1 61.4,64.1 	"/>
	<polygon class="st0" points="64.1,59.9 65,59.9 65,61.5 66.8,61.5 66.8,59.9 67.7,59.9 67.7,64.1 66.8,64.1 66.8,62.3 65,62.3 
		65,64.1 64.1,64.1 	"/>
	<rect y="61.7" class="st0" width="47" height="0.6"/>
	<rect x="73.3" y="61.7" class="st0" width="47" height="0.6"/>
</g>
</svg>
