<?xml version="1.0" encoding="utf-8"?>
<!-- Generator: Adobe Illustrator 22.1.0, SVG Export Plug-In . SVG Version: 6.00 Build 0)  -->
<!DOCTYPE svg PUBLIC "-//W3C//DTD SVG 1.1//EN" "http://www.w3.org/Graphics/SVG/1.1/DTD/svg11.dtd" [
	<!ENTITY st0 "fill:#0090D5;">
]>
<svg version="1.1" id="レイヤー_1" xmlns="http://www.w3.org/2000/svg" xmlns:xlink="http://www.w3.org/1999/xlink" x="0px"
	 y="0px" viewBox="0 0 316 59.4" style="enable-background:new 0 0 316 59.4;" xml:space="preserve">
<g>
	<path style="&st0;" d="M97.4,0.6c0,0-15.3,30.3-17.8,35.2C77,30.8,61.7,0.6,61.7,0.6H31.8v58.8h16.7V16.8h3.4
		c0.9,1.8,20.8,42.6,20.8,42.6h13.8c0,0,19.9-40.8,20.8-42.6h3.4v42.6h16.6V0.6H97.4z"/>
	<rect y="0.6" style="&st0;" width="18.7" height="58.8"/>
	<path style="&st0;" d="M130.6,59.4h19.8c0,0,4.3-8.5,5.1-10h37.4c0.8,1.5,5.1,10,5.1,10h19.8L187.9,0.6h-1h-26.3L130.6,59.4z
		 M175.1,13.9c0.8,1.5,9.4,18.5,11.3,22.3h-24.5c1.9-3.8,10.5-20.8,11.3-22.3H175.1z"/>
	<path style="&st0;" d="M296.9,0.5h-19.1c0,0-13.9,16.5-16.1,19.2C259.6,17,246,0.5,246,0.5h-22.9c0,0,21.6,25.6,23.3,27.6
		c-1.8,2-27.7,31.3-27.7,31.3h24.4c0,0,16.6-18.9,18.8-21.4c2.2,2.5,18.6,21.4,18.6,21.4h24.4c0,0-25.9-29.3-27.7-31.3
		c1.7-2,23.3-27.6,23.3-27.6H296.9z"/>
	<path style="&st0;" d="M302.7,6.7c0-3.7,3-6.7,6.7-6.7c3.7,0,6.7,3,6.7,6.7c0,3.7-3,6.7-6.7,6.7v-0.5v-0.5c3.1,0,5.6-2.5,5.6-5.6
		c0-3.1-2.5-5.6-5.6-5.6c-3.1,0-5.6,2.5-5.6,5.6c0,3.1,2.5,5.6,5.6,5.6v0.5v0.5C305.7,13.3,302.7,10.4,302.7,6.7"/>
	<path style="&st0;" d="M307.9,7.8v2.4h-1.4V3h3.7c1.6,0,2.2,0.5,2.2,2.2c0,1.1-0.1,1.9-1.3,2v0c1,0.1,1.2,0.6,1.2,1.6v1.4H311V8.9
		c0-0.6-0.3-1-0.9-1H307.9z M309.8,6.6c1,0,1.3-0.2,1.3-1.3c0-1-0.2-1.2-1.2-1.2h-1.9v2.5H309.8z"/>
</g>
</svg>
