<?xml version="1.0" encoding="utf-8"?>
<!-- Generator: Adobe Illustrator 23.0.1, SVG Export Plug-In . SVG Version: 6.00 Build 0)  -->
<svg version="1.1" id="レイヤー_1" xmlns="http://www.w3.org/2000/svg" xmlns:xlink="http://www.w3.org/1999/xlink" x="0px"
	 y="0px" width="478.6px" height="59.7px" viewBox="0 0 478.6 59.7" style="enable-background:new 0 0 478.6 59.7;"
	 xml:space="preserve">
<style type="text/css">
	.st0{fill:#F7F7F7;}
</style>
<g>
	<path class="st0" d="M303.6,0.6c-2.4,0-4.4,2-4.4,4.4c0,2.4,2,4.4,4.4,4.4c2.4,0,4.4-2,4.4-4.4C308,2.6,306.1,0.6,303.6,0.6z
		 M303.6,8.7c-2,0-3.7-1.6-3.7-3.7c0-2,1.7-3.7,3.7-3.7c2,0,3.7,1.7,3.7,3.7C307.3,7.1,305.7,8.7,303.6,8.7z"/>
	<path class="st0" d="M305.7,4c0-1.1-0.4-1.4-1.5-1.4h-2.4v4.8h0.9V5.8h1.4c0.4,0,0.6,0.3,0.6,0.7v0.9h0.9V6.5c0-0.7-0.2-1-0.8-1.1
		v0C305.6,5.3,305.7,4.7,305.7,4z M303.9,5h-1.2V3.4h1.3c0.7,0,0.8,0.1,0.8,0.8C304.8,4.9,304.6,5,303.9,5z"/>
	<path class="st0" d="M78.6,35.6C76.1,30.7,60.9,0.8,60.9,0.8H31.4V59h16.5c0,0,0-39.1,0-42.1c1.3,0,2.4,0,3.4,0
		C52.1,18.6,71.8,59,71.8,59h13.6c0,0,19.7-40.3,20.6-42.1c0.9,0,2,0,3.4,0c0,3,0,42.1,0,42.1h16.5V0.8H96.3
		C96.3,0.8,81.1,30.7,78.6,35.6z"/>
	<rect y="0.8" class="st0" width="18.5" height="58.2"/>
	<path class="st0" d="M184.7,0.8h-26L129.1,59h19.6c0,0,4.3-8.4,5-9.9c1.9,0,35.1,0,36.9,0c0.8,1.5,5,9.9,5,9.9h19.5L185.7,0.8
		L184.7,0.8z M160,36c1.9-3.8,10.4-20.6,11.2-22.1c0.7,0,1.2,0,1.9,0c0.8,1.5,9.3,18.3,11.2,22.1C180.3,36,164,36,160,36z"/>
	<path class="st0" d="M297,0.7h-3.5h-18.9c0,0-13.7,16.4-15.9,18.9c-2.1-2.6-15.6-18.9-15.6-18.9h-22.6c0,0,21.3,25.3,23,27.3
		c-1.7,2-27.4,30.9-27.4,30.9h24.1c0,0,16.4-18.7,18.6-21.2C261,40.3,277.2,59,277.2,59h24.2c0,0-25.6-28.9-27.4-30.9
		C275.7,26,297,0.7,297,0.7z"/>
	<path class="st0" d="M382.4,29.9v-0.2c8-2.4,9.7-3.6,9.7-13.5c0-12.9-4.9-16.1-25.7-16.1h-12c-21.9,0-29.6,1.7-29.6,17.4v3.2h16.9
		v-2.5c0-4.4,1.8-5.6,7.6-5.6H367c5.3,0,8.1,1.1,8.1,5.6c0,4.2-1,5.6-6.9,5.6h-16.7V36H370c5.5,0,6.4,1.8,6.4,5.6
		c0,4-0.6,5.5-6.2,5.5h-21.4c-6.2,0-7.7-1.3-7.7-6.2v-2.6h-16.9v6.2c0,12.2,8.8,15.2,19.2,15.2h29.8c16.2,0,20.2-4.4,20.2-16
		C393.4,34.5,391.8,31.5,382.4,29.9z"/>
	<path class="st0" d="M454.4,0.6h-54.1v58.4h54.1c17.9,0,24.2-5.9,24.2-20.3V21C478.6,6.5,472.3,0.6,454.4,0.6z M460.7,33.6
		c0,8.3-3,10.5-10.6,10.5h-31.8V15.2H450c7.7,0,10.6,2.2,10.6,10.5V33.6z"/>
</g>
</svg>
