<?xml version="1.0" encoding="utf-8"?>
<!-- Generator: Adobe Illustrator 24.0.1, SVG Export Plug-In . SVG Version: 6.00 Build 0)  -->
<svg version="1.1" id="レイヤー_1" xmlns="http://www.w3.org/2000/svg" xmlns:xlink="http://www.w3.org/1999/xlink" x="0px"
	 y="0px" width="365.4px" height="71.9px" viewBox="0 0 365.4 71.9" style="enable-background:new 0 0 365.4 71.9;"
	 xml:space="preserve">
<style type="text/css">
	.st0{fill:#2D2A26;}
</style>
<g>
	<path class="st0" d="M365.3,71.3L330,41.2c-0.2-0.2-0.5-0.3-0.8-0.3h-14l39.2-40.3c0.2-0.2,0.1-0.5-0.2-0.5h-20.7
		c-0.3,0-0.6,0.1-0.8,0.3l-23.6,22.3l-14.5-13c-0.2-0.2-0.5-0.3-0.8-0.3h-20.3c-0.3,0-0.4,0.3-0.2,0.5l16.9,16.3
		c0.2,0.2,0.5,0.4,0.9,0.4h13.2l-35.7,33.5c-0.2,0.2-0.1,0.5,0.2,0.5h27.1c0.3,0,0.7-0.1,0.9-0.4l12.9-13.4l24.3,24.6
		c0.2,0.2,0.5,0.4,0.9,0.4h30.4C365.4,71.9,365.5,71.5,365.3,71.3"/>
	<path class="st0" d="M252.8,14.3L252.8,14.3v27.9c0,0.7-0.4,1.3-1.2,1.3c-0.7,0-1.1-0.5-1.6-1.1l-16.3-24.4c-1.1-1.6-3.1-4.5-9-4.5
		c-4.8,0-8,2.3-8,7.9v0v30.3h8.5V23.7c0-0.8,0.5-1.3,1.2-1.3c0.7,0,1.1,0.5,1.6,1.1l16.4,24.8c1.1,1.6,3.4,4.1,8.9,4.1
		c1.5,0,2.9-0.2,4-0.7c2.1-0.8,4-2.7,4-7V14.3L252.8,14.3z"/>
	<path class="st0" d="M43.7,33c0-5.5,2.4-9.7,4.3-11.9c2.3-2.7,6.6-6.8,15.7-6.8h17.7v8.1H63.9c-5.6,0-8.1,3-8.7,3.8
		c-0.7,0.9-2.5,3.4-2.5,6.8c0,3.4,1.7,6,2.6,6.9c1.3,1.4,3.7,3.8,8.6,3.8h17.4v7.9H63.7c-6.1,0-10.9-1.8-14.9-5.9
		C46.7,43.7,43.7,39.3,43.7,33"/>
	<path class="st0" d="M38.6,22.4H12.6c-1.2,0-2.2,0.2-3,1c-0.7,0.7-1,1.6-1,2.5c0,0.9,0.2,1.6,0.9,2.3c0.7,0.8,1.8,1,3.1,1h15.6
		c4.8,0,7.8,1.8,9.7,4c1.7,2,2.6,4.5,2.6,7.1c0,2.9-1.1,5.3-2.5,7c-1.6,2-4.3,4.2-9.9,4.2H1v-7.9h26.5c1.9,0,2.8-0.4,3.5-1.1
		c0.6-0.7,0.9-1.5,0.9-2.4c0-1-0.4-1.8-1-2.5c-0.6-0.7-1.5-1-3.4-1H12.3c-5.6,0-8.1-1.7-9.6-3.3C1,31.6,0,28.6,0,25.5
		c0-2.9,1-5.7,2.6-7.6c2.5-2.9,5.7-3.6,9.7-3.6h26.3V22.4z"/>
	<path class="st0" d="M169,14.3v8.1h-27.9c-0.7,0-1.1,0.4-1.1,1.1v5.9h28.8v7.2h-28.8v6c0,0.8,0.4,1.2,1.1,1.2H169v7.9h-32.3
		c-3.5,0-5.2-1.7-5.2-5.2V19.3c0-3.3,1.8-5,5.3-5H169z"/>
	<path class="st0" d="M211.5,14.3v8.1h-27.9c-0.7,0-1.1,0.4-1.1,1.1v5.9h28.8v7.2h-28.8v6c0,0.8,0.4,1.2,1.1,1.2h27.9v7.9h-32.3
		c-3.5,0-5.2-1.7-5.2-5.2V19.3c0-3.3,1.8-5,5.3-5H211.5z"/>
	<path class="st0" d="M126.5,48.1v-7.3c0-2.2-0.3-3.9-1-5.1c-0.7-1.2-1.4-2.1-2.8-2.7c1.5-1,2.5-2.1,3.1-3.6c0.6-1.4,0.9-3,0.9-4.6
		c0-4-2.7-10.5-11.6-10.5H91.9c-3.5,0-5.3,1.7-5.3,5v32.3h8.2v-14h18.6c1.8,0,3,0.4,3.7,1.1c0.7,0.7,1,1.8,1,3.2v7.1
		c0,0.8,0.1,1.7,0.2,2.7h8.3c-0.1-0.5-0.1-1-0.1-1.5C126.5,49.6,126.5,48.9,126.5,48.1 M115.7,29.8c-0.7,0.3-1.6,0.4-2.8,0.4H95.1
		v-7.1c0-0.5,0.4-0.9,0.9-0.9h16.8c1.1,0,1.9,0.1,2.5,0.3c1.8,0.6,2.6,2.2,2.6,3.7C118,27.6,117.3,29.1,115.7,29.8"/>
</g>
</svg>
