<?xml version="1.0" encoding="utf-8"?>
<!-- Generator: Adobe Illustrator 22.1.0, SVG Export Plug-In . SVG Version: 6.00 Build 0)  -->
<svg version="1.1" id="レイヤー_1" xmlns="http://www.w3.org/2000/svg" xmlns:xlink="http://www.w3.org/1999/xlink" x="0px"
	 y="0px" width="366.1px" height="110.4px" viewBox="0 0 366.1 110.4" style="enable-background:new 0 0 366.1 110.4;"
	 xml:space="preserve">
<style type="text/css">
	.st0{fill:#FFFFFF;}
</style>
<g>
	<path class="st0" d="M334.5,0L334,0.2l-76.7,24.7v60.9l77.2,24.6l31.6-20.1V21.5L334.5,0z M333.1,26.2l-50.8,8.5l-20.6-8.8l71.4-23
		V26.2z M335.5,3.5l26.3,17.9l-26.3,4.4V3.5z M283.5,36.9l49.7-8.3v54l-49.7-9.2V36.9z M281.2,36.7v36.9l-21.6,9.2V27.5L281.2,36.7z
		 M282.4,75.7l50.8,9.4v22.3l-71.6-22.8L282.4,75.7z M335.5,85.5l26,4.8l-26,16.6V85.5z M335.5,83.1V28.2l28.2-4.7v64.8L335.5,83.1z
		"/>
	<g>
		<path class="st0" d="M38.8,41.9v-7.2H6.5c-3.6,0-6.5,2.9-6.5,6.5v12.1c0,3.6,2.9,6.5,6.5,6.5h21.1v10.5H0v7.2h32.7
			c3.5,0,6.1-2.9,6.1-6.5V59c0-3.4-3-6.5-6.5-6.5H11.2V41.9H38.8z"/>
		<path class="st0" d="M79.2,41.9v-7.2H49.6l0,0c-3.5,0-6.6,2.9-6.6,6.5V71c0,3.5,3.1,6.5,6.6,6.5l0,0h29.6v-7.2H54.3V41.9H79.2z"/>
		<path class="st0" d="M112.3,62.8h2.5c3.2,0,7-3.3,7-6.8V41.6c0-3.6-3.6-6.9-7-6.9H83.4v42.7h11.2V41.9h16v13.8H97.3v1.5L111,77.4
			h11.2L112.3,62.8z"/>
		<path class="st0" d="M162.4,41.9v-7.2h-29.8c-3.6,0-6.5,2.9-6.5,6.5V71c0,3.6,2.9,6.5,6.5,6.5h29.8v-7.2h-25.1V59.6h18.9v-7.3
			h-18.9V41.9H162.4z"/>
		<path class="st0" d="M202.7,41.9v-7.2h-29.8c-3.6,0-6.5,2.9-6.5,6.5V71c0,3.6,2.9,6.5,6.5,6.5h29.8v-7.2h-25.1V59.6h18.9v-7.3
			h-18.9V41.9H202.7z"/>
		<path class="st0" d="M248.3,34.6h-11.2v32.5l-15.3-28.9c-1-2-3.3-3.5-5.5-3.5H207v42.7h11.2V44.9l15.2,28.7c1.3,2.3,3.5,3.8,6,3.8
			h8.9L248.3,34.6L248.3,34.6z"/>
		<polygon class="st0" points="330.3,9.3 305.5,16.7 288.8,43.4 276,25.3 264.4,28.8 281.2,55.6 264.5,82.4 276.1,85.8 288.9,67.7 
			305.6,94.4 330.4,101.7 297.5,55.5 		"/>
	</g>
</g>
</svg>
