<?xml version="1.0" encoding="utf-8"?>
<!-- Generator: Adobe Illustrator 22.1.0, SVG Export Plug-In . SVG Version: 6.00 Build 0)  -->
<!DOCTYPE svg PUBLIC "-//W3C//DTD SVG 1.1//EN" "http://www.w3.org/Graphics/SVG/1.1/DTD/svg11.dtd" [
	<!ENTITY st0 "fill:#00B900;">
	<!ENTITY st1 "fill:#FFFFFF;">
]>
<svg version="1.1" id="レイヤー_1" xmlns="http://www.w3.org/2000/svg" xmlns:xlink="http://www.w3.org/1999/xlink" x="0px"
	 y="0px" viewBox="0 0 50 50" style="enable-background:new 0 0 50 50;" xml:space="preserve">
<g id="FULL_COLOR_ICON_2_">
	<path style="&st0;" d="M39.2,50H10.8C4.8,50,0,45.1,0,39.2V10.8C0,4.8,4.8,0,10.8,0h28.3C45.1,0,50,4.8,50,10.8v28.3
		C50,45.1,45.1,50,39.2,50z"/>
	<g id="TYPE_A_1_">
		<g>
			<path style="&st1;" d="M43.1,22.8C43.1,14.7,34.9,8,24.9,8c-10,0-18.2,6.6-18.2,14.8c0,7.3,6.5,13.4,15.2,14.6
				c0.6,0.1,1.4,0.4,1.6,0.9c0.2,0.5,0.1,1.2,0.1,1.6c0,0-0.2,1.3-0.3,1.6c-0.1,0.5-0.4,1.8,1.6,1c1.9-0.8,10.5-6.2,14.3-10.6h0
				C41.8,29,43.1,26.1,43.1,22.8"/>
			<g>
				<path style="&st0;" d="M21.2,18.9h-1.3c-0.2,0-0.4,0.2-0.4,0.4v7.9c0,0.2,0.2,0.4,0.4,0.4h1.3c0.2,0,0.4-0.2,0.4-0.4v-7.9
					C21.6,19,21.4,18.9,21.2,18.9"/>
				<path style="&st0;" d="M30,18.9h-1.3c-0.2,0-0.4,0.2-0.4,0.4v4.7L24.7,19c0,0,0,0,0,0c0,0,0,0,0,0c0,0,0,0,0,0c0,0,0,0,0,0
					c0,0,0,0,0,0c0,0,0,0,0,0c0,0,0,0,0,0c0,0,0,0,0,0c0,0,0,0,0,0c0,0,0,0,0,0c0,0,0,0,0,0c0,0,0,0,0,0c0,0,0,0,0,0c0,0,0,0,0,0
					c0,0,0,0,0,0c0,0,0,0,0,0c0,0,0,0,0,0c0,0,0,0,0,0c0,0,0,0,0,0h-1.3c-0.2,0-0.4,0.2-0.4,0.4v7.9c0,0.2,0.2,0.4,0.4,0.4h1.3
					c0.2,0,0.4-0.2,0.4-0.4v-4.7l3.6,4.9c0,0,0.1,0.1,0.1,0.1c0,0,0,0,0,0c0,0,0,0,0,0c0,0,0,0,0,0c0,0,0,0,0,0c0,0,0,0,0,0
					c0,0,0,0,0,0c0,0,0,0,0,0c0,0,0,0,0,0c0,0,0.1,0,0.1,0H30c0.2,0,0.4-0.2,0.4-0.4v-7.9C30.3,19,30.2,18.9,30,18.9"/>
				<path style="&st0;" d="M18.1,25.5h-3.5v-6.3c0-0.2-0.2-0.4-0.4-0.4H13c-0.2,0-0.4,0.2-0.4,0.4v7.9v0c0,0.1,0,0.2,0.1,0.2
					c0,0,0,0,0,0c0,0,0,0,0,0c0.1,0.1,0.1,0.1,0.2,0.1h0h5.1c0.2,0,0.4-0.2,0.4-0.4v-1.3C18.5,25.7,18.3,25.5,18.1,25.5"/>
				<path style="&st0;" d="M37,20.9c0.2,0,0.4-0.2,0.4-0.4v-1.3c0-0.2-0.2-0.4-0.4-0.4h-5.1h0c-0.1,0-0.2,0-0.2,0.1c0,0,0,0,0,0
					c0,0,0,0,0,0c-0.1,0.1-0.1,0.1-0.1,0.2v0v7.9v0c0,0.1,0,0.2,0.1,0.2c0,0,0,0,0,0c0,0,0,0,0,0c0.1,0.1,0.1,0.1,0.2,0.1h0H37
					c0.2,0,0.4-0.2,0.4-0.4v-1.3c0-0.2-0.2-0.4-0.4-0.4h-3.5v-1.3H37c0.2,0,0.4-0.2,0.4-0.4v-1.3c0-0.2-0.2-0.4-0.4-0.4h-3.5v-1.3
					H37z"/>
			</g>
		</g>
	</g>
</g>
</svg>
