<?xml version="1.0" encoding="utf-8"?>
<!-- Generator: Adobe Illustrator 22.1.0, SVG Export Plug-In . SVG Version: 6.00 Build 0)  -->
<!DOCTYPE svg PUBLIC "-//W3C//DTD SVG 1.1//EN" "http://www.w3.org/Graphics/SVG/1.1/DTD/svg11.dtd" [
	<!ENTITY st0 "fill:#4267B2;">
	<!ENTITY st1 "fill:#FFFFFF;">
]>
<svg version="1.1" id="レイヤー_1" xmlns="http://www.w3.org/2000/svg" xmlns:xlink="http://www.w3.org/1999/xlink" x="0px"
	 y="0px" width="50px" height="50px" viewBox="0 0 50 50" style="enable-background:new 0 0 50 50;" xml:space="preserve">
<g>
	<g>
		<path style="&st0;" d="M47.2,0H2.8C1.2,0,0,1.3,0,2.8v44.5C0,48.8,1.2,50,2.8,50h0h24V30.7h-6.5v-7.6h6.5v-5.6
			c0-6.5,3.9-10,9.7-10c1.9,0,3.9,0.1,5.8,0.3v6.7h-4c-3.1,0-3.7,1.5-3.7,3.7v4.8H42l-1,7.6h-6.6V50h12.8c1.5,0,2.8-1.2,2.8-2.8l0,0
			V2.8C50,1.3,48.7,0,47.2,0L47.2,0z"/>
	</g>
	<g>
		<path style="&st1;" d="M41,30.7l1-7.6h-7.5v-4.8c0-2.2,0.6-3.7,3.7-3.7h4V7.9c-1.9-0.2-3.9-0.3-5.8-0.3c-5.8,0-9.7,3.5-9.7,10v5.6
			h-6.5v7.6h6.5V50h7.8V30.7H41z"/>
	</g>
</g>
</svg>
