<?xml version="1.0" encoding="utf-8"?>
<!-- Generator: Adobe Illustrator 22.1.0, SVG Export Plug-In . SVG Version: 6.00 Build 0)  -->
<svg version="1.1" id="レイヤー_1" xmlns="http://www.w3.org/2000/svg" xmlns:xlink="http://www.w3.org/1999/xlink" x="0px"
	 y="0px" width="50px" height="50px" viewBox="0 0 50 50" style="enable-background:new 0 0 50 50;" xml:space="preserve">
<style type="text/css">
	.st0{fill:#787878;}
</style>
<g>
	<path class="st0" d="M0,38L0,9.2l1.2,0.2c0.1,0,9,1.7,21.5,1.7c12.5,0,22-1.7,22.1-1.7l1.2-0.2v11.1h-2v-8.7
		c-3,0.5-11.1,1.6-21.2,1.6c-10,0-17.8-1.1-20.7-1.6v23.9C4.6,35,11.3,34,22.7,34v2C8.3,36,1.3,37.7,1.3,37.7L0,38z"/>
	<g>
		
			<rect x="40.7" y="18.5" transform="matrix(5.335345e-03 -1 1 5.335345e-03 15.6799 68.2999)" class="st0" width="3" height="15.6"/>
		<rect x="28.4" y="24.7" class="st0" width="4" height="3"/>
	</g>
	<g>
		<rect x="40.7" y="24.7" transform="matrix(5.335345e-03 -1 1 5.335345e-03 9.513 74.434)" class="st0" width="3" height="15.6"/>
		<rect x="28.4" y="30.8" class="st0" width="4" height="3"/>
	</g>
	<g>
		<rect x="40.7" y="30.8" transform="matrix(5.335345e-03 -1 1 5.335345e-03 3.347 80.5671)" class="st0" width="3" height="15.6"/>
		<rect x="28.4" y="37" class="st0" width="4" height="3"/>
	</g>
</g>
</svg>
