<?xml version="1.0" encoding="utf-8"?>
<!-- Generator: Adobe Illustrator 22.1.0, SVG Export Plug-In . SVG Version: 6.00 Build 0)  -->
<svg version="1.1" id="レイヤー_1" xmlns="http://www.w3.org/2000/svg" xmlns:xlink="http://www.w3.org/1999/xlink" x="0px"
	 y="0px" width="50px" height="50px" viewBox="0 0 50 50" style="enable-background:new 0 0 50 50;" xml:space="preserve">
<style type="text/css">
	.st0{fill:#DB0606;}
</style>
<g>
	<path class="st0" d="M41.3,42.5H6.7v-2c3.7,0,6.6-3,6.6-6.6V8H50v25.9C50,38.6,46.1,42.5,41.3,42.5z M12.3,40.5h29
		c3.7,0,6.6-3,6.6-6.6V10H15.4v23.8C15.4,36.5,14.2,38.9,12.3,40.5z"/>
	<rect x="21.5" y="15.4" class="st0" width="21.2" height="2"/>
	<rect x="21.5" y="22.5" class="st0" width="21.2" height="2"/>
	<rect x="21.5" y="30.7" class="st0" width="7.8" height="2"/>
	<path class="st0" d="M7.3,42.5c-0.5,0-3-0.1-4.9-2C0.8,39,0,36.7,0,33.8V12.7h14.5v2H2v19c0,2.4,0.6,4.2,1.8,5.3
		c1.5,1.4,3.5,1.4,3.5,1.4V42.5C7.4,42.5,7.4,42.5,7.3,42.5z"/>
</g>
</svg>
