<?xml version="1.0" encoding="utf-8"?>
<!-- Generator: Adobe Illustrator 22.1.0, SVG Export Plug-In . SVG Version: 6.00 Build 0)  -->
<!DOCTYPE svg PUBLIC "-//W3C//DTD SVG 1.1//EN" "http://www.w3.org/Graphics/SVG/1.1/DTD/svg11.dtd" [
	<!ENTITY st0 "fill:#0071D0;">
]>
<svg version="1.1" id="レイヤー_1" xmlns="http://www.w3.org/2000/svg" xmlns:xlink="http://www.w3.org/1999/xlink" x="0px"
	 y="0px" viewBox="0 0 50 50" style="enable-background:new 0 0 50 50;" xml:space="preserve">
<g>
	<path style="&st0;" d="M0,35.9L0,8.6l1.1,0.2c0.1,0,8.5,1.6,20.3,1.6c11.8,0,20.8-1.6,20.9-1.6l1.1-0.2v10.5h-1.9v-8.2
		c-2.8,0.4-10.5,1.5-20.1,1.5c-9.5,0-16.8-1-19.5-1.5v22.6c2.5-0.5,8.8-1.4,19.5-1.4c2.1,0,4.2,0,6.3,0.1l-0.1,1.9
		c-2-0.1-4.1-0.1-6.2-0.1C7.8,34,1.2,35.6,1.2,35.6L0,35.9z"/>
	<path style="&st0;" d="M40,23.1c4.5,0,8.1,3.6,8.1,8.1s-3.6,8.1-8.1,8.1s-8.1-3.6-8.1-8.1S35.5,23.1,40,23.1 M40,21.2
		c-5.5,0-10,4.5-10,10c0,5.5,4.5,10,10,10c5.5,0,10-4.5,10-10C50,25.6,45.5,21.2,40,21.2L40,21.2z"/>
	<polygon style="&st0;" points="39.3,34.7 39.3,25.4 41.2,25.4 41.2,30.6 43.1,29 44.3,30.4 	"/>
</g>
</svg>
