<?xml version="1.0" encoding="utf-8"?>
<!-- Generator: Adobe Illustrator 23.0.4, SVG Export Plug-In . SVG Version: 6.00 Build 0)  -->
<svg version="1.1" id="レイヤー_1" xmlns="http://www.w3.org/2000/svg" xmlns:xlink="http://www.w3.org/1999/xlink" x="0px"
	 y="0px" width="50px" height="50px" viewBox="0 0 50 50" style="enable-background:new 0 0 50 50;" xml:space="preserve">
<style type="text/css">
	.st0{fill:#FEC80C;}
</style>
<g>
	<path class="st0" d="M42.3,35.8h-34v-27h34V35.8z M10.5,33.7h29.7V11H10.5V33.7z"/>
	<polygon class="st0" points="5.9,35.8 1.3,35.8 1.3,33.7 3.8,33.7 3.8,11 1.3,11 1.3,8.8 5.9,8.8 	"/>
	<polygon class="st0" points="49,35.8 45.1,35.8 45.1,8.8 49,8.8 49,11 47.2,11 47.2,33.7 49,33.7 	"/>
</g>
<g>
	<rect x="9.9" y="41.3" class="st0" width="5.4" height="2.1"/>
	<rect x="18.2" y="41.3" class="st0" width="5.4" height="2.1"/>
	<rect x="26.6" y="41.3" class="st0" width="5.4" height="2.1"/>
	<rect x="34.9" y="41.3" class="st0" width="5.4" height="2.1"/>
</g>
</svg>
