<?xml version="1.0" encoding="utf-8"?>
<!-- Generator: Adobe Illustrator 22.1.0, SVG Export Plug-In . SVG Version: 6.00 Build 0)  -->
<svg version="1.1" id="レイヤー_1" xmlns="http://www.w3.org/2000/svg" xmlns:xlink="http://www.w3.org/1999/xlink" x="0px"
	 y="0px" width="50px" height="50px" viewBox="0 0 50 50" style="enable-background:new 0 0 50 50;" xml:space="preserve">
<style type="text/css">
	.st0{fill:#0071D0;}
</style>
<g>
	<path class="st0" d="M14,43H0V9h14V43z M2,41h10V11H2V41z"/>
	<rect x="4" y="14.9" class="st0" width="6" height="2"/>
	<rect x="4" y="21.3" class="st0" width="6" height="2"/>
</g>
<g>
	<path class="st0" d="M29.4,43h-14V9h14V43z M17.4,41h10V11h-10V41z"/>
	<rect x="19.4" y="14.9" class="st0" width="6" height="2"/>
	<rect x="19.4" y="21.3" class="st0" width="6" height="2"/>
</g>
<g>
	<path class="st0" d="M36.1,43L29.5,9.7l13.8-2.8l6.6,33.3L36.1,43z M31.9,11.2l5.8,29.5l9.8-2L41.7,9.2L31.9,11.2z"/>
	<rect x="34.7" y="14.1" transform="matrix(0.9807 -0.1954 0.1954 0.9807 -2.2217 7.6614)" class="st0" width="6" height="2"/>
	<rect x="35.9" y="20.3" transform="matrix(0.9807 -0.1954 0.1954 0.9807 -3.4148 8.0213)" class="st0" width="6" height="2"/>
</g>
</svg>
