<?xml version="1.0" encoding="utf-8"?>
<!-- Generator: Adobe Illustrator 22.1.0, SVG Export Plug-In . SVG Version: 6.00 Build 0)  -->
<svg version="1.1" id="レイヤー_1" xmlns="http://www.w3.org/2000/svg" xmlns:xlink="http://www.w3.org/1999/xlink" x="0px"
	 y="0px" width="50px" height="50px" viewBox="0 0 50 50" style="enable-background:new 0 0 50 50;" xml:space="preserve">
<style type="text/css">
	.st0{fill:none;stroke:#DB0606;stroke-width:2;stroke-miterlimit:10;}
	.st1{fill:none;stroke:#787878;stroke-width:1.7875;stroke-miterlimit:10;}
	.st2{fill:none;stroke:#787878;stroke-width:2;stroke-miterlimit:10;}
	.st3{fill:#787878;}
	.st4{fill:#0071D0;}
</style>
<g>
	<path class="st0" d="M-32.9-61.5"/>
	<path class="st1" d="M-23.7-60.4h-37.5c-2,0-3.6-1.6-3.6-3.6v-27c0-2,1.6-3.6,3.6-3.6h37.5c2,0,3.6,1.6,3.6,3.6v27
		C-20-62-21.7-60.4-23.7-60.4z"/>
	<line class="st2" x1="-64.2" y1="-85.5" x2="-19.9" y2="-85.5"/>
	<circle class="st3" cx="-25.5" cy="-90.1" r="2"/>
	<circle class="st3" cx="-31.2" cy="-90.1" r="2"/>
	<circle class="st3" cx="-37.1" cy="-90.1" r="2"/>
</g>
<g>
	<path class="st4" d="M42.3,35.8h-34v-27h34V35.8z M10.5,33.7h29.7V11H10.5V33.7z"/>
	<polygon class="st4" points="5.9,35.8 1.3,35.8 1.3,33.7 3.8,33.7 3.8,11 1.3,11 1.3,8.8 5.9,8.8 	"/>
	<polygon class="st4" points="49,35.8 45.1,35.8 45.1,8.8 49,8.8 49,11 47.2,11 47.2,33.7 49,33.7 	"/>
</g>
<g>
	<rect x="9.9" y="41.3" class="st4" width="5.4" height="2.1"/>
	<rect x="18.2" y="41.3" class="st4" width="5.4" height="2.1"/>
	<rect x="26.6" y="41.3" class="st4" width="5.4" height="2.1"/>
	<rect x="34.9" y="41.3" class="st4" width="5.4" height="2.1"/>
</g>
</svg>
