<?xml version="1.0" encoding="utf-8"?>
<!-- Generator: Adobe Illustrator 22.1.0, SVG Export Plug-In . SVG Version: 6.00 Build 0)  -->
<svg version="1.1" id="レイヤー_1" xmlns="http://www.w3.org/2000/svg" xmlns:xlink="http://www.w3.org/1999/xlink" x="0px"
	 y="0px" width="50px" height="50px" viewBox="0 0 50 50" style="enable-background:new 0 0 50 50;" xml:space="preserve">
<style type="text/css">
	.st0{fill:none;stroke:#DB0606;stroke-width:2;stroke-miterlimit:10;}
	.st1{fill:#DB0606;}
</style>
<path class="st0" d="M34.9,37.3"/>
<polygon class="st1" points="35.4,38.2 1,38.2 1,9 43.2,9 43.2,21.7 41.2,21.7 41.2,11 3,11 3,36.2 35.4,36.2 "/>
<path class="st1" d="M18.9,38.1H9.4V23.3h9.5V38.1z M11.4,36.1h5.5V25.3h-5.5V36.1z"/>
<g>
	<path class="st1" d="M42.2,43l-0.8-0.9c-0.7-0.8-6.4-7.9-6.4-11.5c0-4,3.2-7.2,7.2-7.2c4,0,7.2,3.2,7.2,7.2
		c0,3.7-5.7,10.7-6.4,11.5L42.2,43z M42.2,25.4c-2.8,0-5.2,2.3-5.2,5.2c0,2,2.9,6.4,5.2,9.3c2.3-2.9,5.2-7.3,5.2-9.3
		C47.4,27.7,45.1,25.4,42.2,25.4z"/>
	<circle class="st1" cx="42.2" cy="30.8" r="1.6"/>
</g>
<rect x="1.7" y="16.5" class="st1" width="40.3" height="2"/>
</svg>
