<?xml version="1.0" encoding="utf-8"?>
<!-- Generator: Adobe Illustrator 22.1.0, SVG Export Plug-In . SVG Version: 6.00 Build 0)  -->
<!DOCTYPE svg PUBLIC "-//W3C//DTD SVG 1.1//EN" "http://www.w3.org/Graphics/SVG/1.1/DTD/svg11.dtd" [
	<!ENTITY st0 "fill:#0071D0;">
]>
<svg version="1.1" id="レイヤー_1" xmlns="http://www.w3.org/2000/svg" xmlns:xlink="http://www.w3.org/1999/xlink" x="0px"
	 y="0px" viewBox="0 0 50 50" style="enable-background:new 0 0 50 50;" xml:space="preserve">
<g>
	<rect y="17.5" style="&st0;" width="25.9" height="2"/>
	<polygon style="&st0;" points="21.3,44.9 4.6,44.9 2.1,24.7 0,24.7 0,22.7 3.9,22.7 6.4,42.9 19.5,42.9 22,22.7 25.9,22.7 
		25.9,24.7 23.8,24.7 	"/>
	<polygon style="&st0;" points="47.8,43.3 26.3,43.3 26.3,41.3 46,41.3 47.7,25.2 28.5,25.2 28.5,23.2 50,23.2 	"/>
	<polygon style="&st0;" points="12.2,18.3 11.7,9.9 7.1,9.9 7.1,7.9 13.6,7.9 14.2,18.2 	"/>
	<path style="&st0;" d="M49.2,21.4l-2-0.5c0-0.1,0.6-2.4-1.3-3.3l-0.7-0.3l0.1-0.8c0,0,0.2-1.5-0.6-2.5c-0.5-0.6-1.4-0.9-2.6-0.9h-1
		l-0.1-1c0-0.1-0.2-2.5-2.9-3.1c-2.7-0.6-3.9,1.3-4,1.4L34,10.9l-0.5,0c-0.1,0-3.5,0.2-4.3,2.9L29,14.2l-0.3,0.2
		c-0.6,0.4-1.7,1.2-2,1.6L25,14.9c0.5-0.7,1.7-1.6,2.3-2c1.1-3,4.3-3.8,5.6-4c0.9-1.1,2.9-2.5,5.8-1.8c2.7,0.6,3.9,2.6,4.3,4.1
		c1.4,0.1,2.6,0.7,3.4,1.6c1,1.1,1.1,2.6,1.1,3.4C49.5,17.6,49.5,20.2,49.2,21.4z"/>
</g>
</svg>
