<?xml version="1.0" encoding="utf-8"?>
<!-- Generator: Adobe Illustrator 22.1.0, SVG Export Plug-In . SVG Version: 6.00 Build 0)  -->
<!DOCTYPE svg PUBLIC "-//W3C//DTD SVG 1.1//EN" "http://www.w3.org/Graphics/SVG/1.1/DTD/svg11.dtd" [
	<!ENTITY st0 "fill:#0071D0;">
]>
<svg version="1.1" id="レイヤー_1" xmlns="http://www.w3.org/2000/svg" xmlns:xlink="http://www.w3.org/1999/xlink" x="0px"
	 y="0px" viewBox="0 0 50 50" style="enable-background:new 0 0 50 50;" xml:space="preserve">
<g>
	<path style="&st0;" d="M25.3,2c9.3,0,16.9,7.6,16.9,16.9c0,3.7-1.2,7.2-3.4,10.2L25.3,46.7L11.9,29.1c-2.3-3-3.4-6.5-3.4-10.2
		C8.4,9.6,16,2,25.3,2 M25.3,0C14.9,0,6.4,8.5,6.4,18.9c0,4.3,1.4,8.2,3.8,11.4l15.1,19.6l15.1-19.6c2.4-3.2,3.8-7.1,3.8-11.4
		C44.3,8.5,35.8,0,25.3,0L25.3,0z"/>
	<circle style="&st0;" cx="25.3" cy="17.8" r="5.4"/>
</g>
</svg>
