<?xml version="1.0" encoding="utf-8"?>
<!-- Generator: Adobe Illustrator 23.0.4, SVG Export Plug-In . SVG Version: 6.00 Build 0)  -->
<svg version="1.1" id="レイヤー_1" xmlns="http://www.w3.org/2000/svg" xmlns:xlink="http://www.w3.org/1999/xlink" x="0px"
	 y="0px" width="254.4px" height="70.8px" viewBox="0 0 254.4 70.8" style="enable-background:new 0 0 254.4 70.8;"
	 xml:space="preserve">
<style type="text/css">
	.st0{fill:#231815;}
</style>
<g>
	<g>
		<path class="st0" d="M19.2,43.4c0,7.3-6.8,11.9-12,9c0-0.2,0-0.3,0-0.5c0,0,6.8,1.2,8.6-5.9c0.2-0.7,0.3-1.9,0.3-3
			c-0.1-4.5-2-7.5-5.5-7.5c-1.6,0-3.2,0-4.8,0c0,10.2,0,20.4,0,30.6c0,1.8,1.2,3.1,2.6,2.8C8.6,69,8.8,69,9,69c0,0.2,0,0.3,0,0.5
			c-3,0.4-6,0.9-9,1.4c0-0.2,0-0.4,0-0.5c0.2,0,0.3-0.1,0.5-0.1C2,70,3.1,68.4,3.2,66.6c0,0,0,0,0,0c0-9.7,0-19.4,0-29
			c-0.1-1.7-1.3-3-2.6-3c-0.2,0-0.3,0-0.5,0c0-0.2,0-0.4,0-0.5c1.1,0,2.2,0,3.3,0c0,0,0,0,0,0c2.5,0,5,0,7.5,0
			C16,34.1,19.2,37.6,19.2,43.4z"/>
		<path class="st0" d="M49.7,63.9c0,0.1,0,0.3,0,0.4c-3.1,0.3-6.2,0.6-9.3,0.9c0-0.1,0-0.3,0-0.4c0.1,0,0.2,0,0.4,0
			c1.1-0.1,2.2-1.2,1.6-2.9c-0.9-2.4-1.7-4.8-2.6-7.3c-3.7,0.3-7.4,0.5-11.1,0.8c-0.9,2.7-1.9,5.4-2.8,8.2c-0.6,1.9,0.5,2.8,1.6,2.7
			c0.1,0,0.2,0,0.4,0c0,0.2,0,0.3,0,0.5c-2.8,0.3-5.5,0.7-8.3,1c0-0.2,0-0.3,0-0.5c0.1,0,0.2,0,0.4,0c1.2-0.2,2.8-1.2,3.6-3.4
			c3.1-8.8,6.3-17.2,9.4-25.4c0,0,1.5-3.7,1.5-4.7c0.1,0,0.2,0,0.4,0c3.6,9.6,7.3,18.9,10.9,27.8c0.8,1.9,2.3,2.5,3.6,2.4
			C49.5,63.9,49.6,63.9,49.7,63.9z M39.3,53.2c-1.6-4.6-3.3-9.3-4.9-14.1c-1.7,4.9-3.5,9.8-5.2,14.8C32.6,53.7,36,53.5,39.3,53.2z"
			/>
		<path class="st0" d="M84.3,34.6c0,0-0.8,0-0.8,0c-1.4,0-2.5,1.1-2.6,2.4c0,6.8-0.1,13.6-0.1,20.5c0,2.6,0.4,5,0.4,5
			c-0.1,0-0.3,0-0.4,0c-7.5-7.3-15-14.7-22.4-22.7c0,6.9-0.1,13.9-0.1,20.8c0,1.4,1.2,2.4,2.5,2.3c0,0,0.8-0.1,0.8-0.1
			c0,0.1,0,0.3,0,0.4c-2.8,0.2-5.7,0.5-8.5,0.7c0-0.1,0-0.3,0-0.4c0,0,0.8-0.1,0.8-0.1c1.4-0.1,2.5-1.4,2.6-2.8
			c0-7.3,0.1-14.6,0.1-21.8c0-2.9-0.4-5.3-0.4-5.3c0.1,0,0.3,0,0.4,0c0,0,0,0,0,0c7.4,8.1,14.9,15.7,22.3,23.1
			c0-6.6,0.1-13.1,0.1-19.7c0,0,0,0,0,0c0-1.3-1.1-2.4-2.5-2.4c-0.3,0-0.5,0-0.8,0c0-0.1,0-0.3,0-0.4c2.8,0,5.7,0,8.5,0
			C84.3,34.4,84.3,34.5,84.3,34.6z"/>
		<path class="st0" d="M118.7,47.5c0,8.3-6.1,13.8-14.9,14.1C95,61.8,89,56.5,89,47.9c0-8.6,6.1-14.2,14.9-14.2
			C112.6,33.7,118.7,39.2,118.7,47.5z M115.5,47.5c0-7.6-4.6-12.7-11.6-12.7c-7,0-11.7,5.2-11.7,13c0,7.8,4.6,12.8,11.6,12.6
			C110.8,60.2,115.5,55.1,115.5,47.5z"/>
		<path class="st0" d="M145.6,57.6c1.7,1.7,3.2,2.9,5.6,3c0,0.1,0,0.3,0,0.4c-0.8,0-1.5,0-2.3-0.1c-3.8-0.1-5.9-2-7.2-3.5
			c-0.5-0.5-5.1-6.8-5.5-7.2c-1.1-1.3-2.3-2.6-3.8-2.6c0-0.1,0-0.2,0-0.4c0,0,0.9,0,2.2,0c2.1,0,5.3-0.5,6.4-3.9
			c0.2-0.5,0.3-1.4,0.3-2.3c-0.1-3.4-2.1-5.6-5.1-5.8c-2.1-0.1-4.6,0-5.1,0c0,7.5,0,15,0,22.5c0,0,0,0,0,0c0,1.3,1.2,2.4,2.6,2.4
			c0.2,0,0.3,0,0.5,0c0,0.1,0,0.3,0,0.4c-3,0-6,0-9,0c0-0.1,0-0.3,0-0.4c0.2,0,0.3,0,0.5,0c1.4,0,2.6-1.1,2.6-2.4c0-7,0-14,0-21
			c0,0,0,0,0,0c0-1.3-1.2-2.4-2.6-2.4c-0.2,0-0.3,0-0.5,0c0-0.1,0-0.3,0-0.4c1.1,0,2.2,0,3.3,0c0,0,0,0,0,0c2.6,0,5.2,0,7.8,0
			c5,0,8.1,2.7,8.1,7.2c0,3.7-3,7.2-7,7.2c0.9,0.4,2.2,1.6,3,2.7C140.4,51.2,144,56,145.6,57.6C145.6,57.6,145.6,57.6,145.6,57.6z"
			/>
		<path class="st0" d="M182.7,62.1c0,0.1,0,0.3,0,0.4c-3.1-0.2-6.2-0.4-9.3-0.6c0-0.1,0-0.3,0-0.4c0.1,0,0.2,0,0.4,0
			c1.1,0.1,2.2-0.8,1.6-2.4c-0.9-2.3-1.8-4.6-2.7-6.9c-3.7-0.1-7.4-0.3-11.1-0.4c-0.9,2.2-1.8,4.4-2.7,6.5c-0.6,1.5,0.5,2.4,1.6,2.5
			c0.1,0,0.2,0,0.4,0c0,0.1,0,0.3,0,0.4c-2.8-0.1-5.5-0.2-8.3-0.3c0-0.1,0-0.3,0-0.4c0.1,0,0.2,0,0.4,0c1.3,0,2.8-0.6,3.6-2.3
			c3.1-6.8,6.2-13.7,9.3-20.7c0,0,1.5-3.2,1.5-4c0.1,0,0.2,0,0.4,0c3.7,8.4,7.4,16.9,11.1,25.7c0.8,1.8,2.4,2.7,3.6,2.8
			C182.5,62.1,182.6,62.1,182.7,62.1z M172.2,51.1c-1.7-4.3-3.4-8.5-5-12.7c-1.7,4.2-3.4,8.3-5.1,12.4
			C165.4,50.9,168.8,51,172.2,51.1z"/>
		<path class="st0" d="M222.1,65.7c0,0.2,0,0.3,0,0.5c-3-0.3-6-0.7-8.9-1c0-0.1,0-0.3,0-0.4c0.2,0,0.4,0,0.6,0.1
			c0.9,0.1,1.6-0.8,1.6-1.7c0-0.1,0-0.1,0-0.2c-0.7-7.4-1.3-14.8-2-22.2c-2.9,6.8-5.7,13.4-8.6,19.9c0,0-1.1,2.5-1.4,4.2
			c-0.1,0-0.3,0-0.4,0c-3.6-8.2-7.1-16.2-10.7-23.9c-0.6,6.7-1.1,13.3-1.7,19.9c0,0,0,0,0,0c0,0,0,0,0,0.1c0,0,0,0.1,0,0.1
			c0,0.9,0.7,1.8,1.6,1.9c0.2,0,0.4,0,0.6,0.1c0,0.1,0,0.3,0,0.4c-2.7-0.2-5.3-0.4-8-0.6c0-0.1,0-0.3,0-0.4c0.2,0,0.4,0,0.7,0
			c1.5,0.1,2.8-0.7,3-2.4c1-8.7,2-17.5,3-26.3c0.1,0,0.3,0,0.4,0c3.9,8.3,7.8,16.9,11.6,25.8c3.7-8.3,7.4-16.9,11.1-25.8
			c0.1,0,0.3,0,0.4,0c1.1,9.5,2.2,19.1,3.3,28.8c0.2,1.8,1.5,3,3,3.1C221.7,65.6,221.9,65.6,222.1,65.7z"/>
		<path class="st0" d="M254.4,70c0,0.2,0,0.3,0,0.5c-3.1-0.5-6.2-0.9-9.2-1.4c0-0.2,0-0.3,0-0.5c0.1,0,0.2,0,0.4,0.1
			c1.1,0.2,2.2-0.8,1.6-2.9c-0.9-3-1.8-5.9-2.6-8.8c-3.7-0.3-7.4-0.7-11.1-1c-0.9,2.6-1.8,5.2-2.7,7.8c-0.6,1.8,0.5,3,1.6,3.1
			c0.1,0,0.2,0,0.4,0c0,0.2,0,0.3,0,0.5c-2.8-0.4-5.5-0.7-8.3-1c0-0.2,0-0.3,0-0.5c0.1,0,0.2,0,0.4,0c1.3,0.1,2.8-0.5,3.6-2.5
			c3.1-8,6.2-16.3,9.3-24.8c0,0,1.5-3.9,1.5-5c0.1,0,0.2,0,0.4,0c3.7,10.4,7.4,21.2,11,32.5c0.8,2.4,2.3,3.5,3.6,3.7
			C254.2,69.9,254.3,70,254.4,70z M244,55.5c-1.7-5.4-3.3-10.7-5-16c-1.7,5.1-3.4,10.2-5.1,15.1C237.3,54.9,240.6,55.2,244,55.5z"/>
	</g>
	<g>
		<path class="st0" d="M98.9,14.9c4.3,1.2,7,3.9,7,7.2c0,3.7-3.3,6.1-9.4,6.2c-3.3,0-6.6,0-9.9,0c0-0.1,0-0.3,0-0.4
			c0.1,0,0.4,0,0.5,0c1.4,0,2.5-1.1,2.6-2.4c0-7.2,0-14.4-0.1-21.6c0-1.3-1.2-2.8-2.5-3.3c-0.1,0-0.4-0.1-0.5-0.2c0-0.1,0-0.3,0-0.4
			c2.6,1,5.2,1.8,7.8,2.6c5.6,1.7,8.8,4.4,8.8,7.8C103.3,13.2,101.1,14.7,98.9,14.9C98.9,14.9,98.9,14.9,98.9,14.9z M102.8,21.7
			c-0.1-5-5.3-6.5-9.1-7.1c0-0.1,0-0.2,0-0.4c2.4,0.4,6.6,0.3,6.6-4.1c0-3.1-2.1-5.3-5.9-6.4c-0.7-0.2-1.4-0.4-2.1-0.6
			c0,7.9,0.1,15.9,0.1,23.8c1.3,0,2.6,0,4,0.1C100.5,27,102.8,25.1,102.8,21.7z"/>
		<path class="st0" d="M138.8,28c0,0.1,0,0.2,0,0.3c-3,0-6.1,0-9.1,0c0-0.1,0-0.2,0-0.3c0.1,0,0.2,0,0.4,0c1,0,2.1-0.7,1.5-1.9
			c-0.9-1.7-1.7-3.4-2.6-5.1c-3.7,0-7.3,0-11-0.1c-0.9,1.7-1.8,3.5-2.7,5.2c-0.6,1.2,0.5,1.9,1.6,1.9c0.1,0,0.2,0,0.4,0
			c0,0.1,0,0.2,0,0.3c-2.7,0-5.4,0-8.1,0c0-0.1,0-0.2,0-0.3c0.1,0,0.2,0,0.4,0c1.2,0,2.7-0.6,3.5-2c3-5.6,6-10.9,9.1-16.2
			c0,0,1.5-2.4,1.5-3.1c0.1,0,0.2,0,0.4,0c3.7,6.5,7.3,12.8,10.9,19.3c0.8,1.3,2.3,1.9,3.5,1.9C138.5,28,138.7,28,138.8,28z
			 M128.5,20.1c-1.6-3.2-3.3-6.4-4.9-9.7c-1.7,3.2-3.4,6.4-5.1,9.6C121.8,20.1,125.2,20.1,128.5,20.1z"/>
		<path class="st0" d="M167.8,27.9c0,0.1,0,0.3,0,0.4c-0.7,0-1.5,0-2.2,0c-3.8,0-5.8-1.9-7-3.2c-0.5-0.6-5-6-5.3-6.3
			c-1-1-2.2-2.1-3.7-1.9c0-0.1,0-0.2,0-0.3c0,0,0.9-0.1,2.1-0.2c2.1-0.3,5.2-1.1,6.3-4.5c0.2-0.5,0.3-1.4,0.3-2.2
			c-0.1-3.3-1.9-4.8-4.9-4.3c-2.1,0.4-4.5,0.9-5,1c-0.1,6.5-0.1,13-0.2,19.6c0,0,0,0,0,0c0,1.1,1.2,2.1,2.6,2.1c0.2,0,0.3,0,0.5,0
			c0,0.1,0,0.2,0,0.3c-2.9,0-5.9,0-8.8,0c0-0.1,0-0.2,0-0.3c0.2,0,0.3,0,0.5,0c1.4,0,2.6-0.9,2.6-2c0.1-6,0.1-11.9,0.2-17.9
			c0,0,0,0,0,0c0-1.1-1.2-1.8-2.6-1.6c-0.2,0-0.3,0-0.5,0.1c0-0.1,0-0.2,0-0.3c1.1-0.1,2.2-0.3,3.3-0.5c0,0,0,0,0,0
			c2.6-0.4,5.1-0.9,7.7-1.5c4.9-1.2,7.8,0.5,7.8,4.9c0,3.7-3,7.6-6.9,8c0.9,0.2,2.1,1.3,2.9,2.2c0,0,3.4,4.1,5,5.7
			C163.9,26.7,165.4,27.9,167.8,27.9z"/>
	</g>
</g>
</svg>
