<?xml version="1.0" encoding="utf-8"?>
<!-- Generator: Adobe Illustrator 24.0.1, SVG Export Plug-In . SVG Version: 6.00 Build 0)  -->
<svg version="1.1" id="レイヤー_1" xmlns="http://www.w3.org/2000/svg" xmlns:xlink="http://www.w3.org/1999/xlink" x="0px"
	 y="0px" width="378.3px" height="69px" viewBox="0 0 378.3 69" style="enable-background:new 0 0 378.3 69;" xml:space="preserve">
<style type="text/css">
	.st0{fill:#2D2A26;}
</style>
<g>
	<path class="st0" d="M81.2,20.9c-3.7-4.4-8.7-6.6-15.2-6.6H48.7c-1.5,0-2.8,1.3-2.8,2.8v30.4c0,1.5,1.3,2.8,2.8,2.8H66
		c6,0,10.6-1.8,14.4-5.6c1.1-1.1,4.9-5.4,4.9-12.3C85.3,26.6,82.7,22.7,81.2,20.9 M74.3,38.6c-1.1,1.3-3.5,3.4-7.8,3.4H55.8
		c-0.4,0-0.6-0.3-0.6-0.6V23.5c0-0.4,0.3-0.6,0.6-0.6h10.7c3.8-0.1,6.3,1.6,7.8,3.3c1.5,1.8,2.3,4,2.3,6.2
		C76.6,34.6,75.7,36.8,74.3,38.6"/>
	<path class="st0" d="M36.3,13.2c-0.6,0-1.2,0.2-1.6,0.5L1.1,38.3C0.4,38.8,0,39.5,0,40.4v8.2c0,0.4,0.3,0.7,0.7,0.7h29.1l0,8.3h9.3
		l0-41.6C39.1,14.5,37.8,13.2,36.3,13.2 M29.9,41H12.6c-0.2,0-0.4-0.1-0.5-0.3c-0.1-0.2,0-0.4,0.2-0.5l16.9-12.2
		c0.1-0.1,0.2-0.1,0.3-0.1c0.3,0,0.5,0.2,0.5,0.5V41z"/>
	<path class="st0" d="M142,39.3c-0.3-0.2-0.6-0.3-0.9-0.3h-12.7l37-38.1c0.1-0.2,0.2-0.4,0.1-0.6C165.4,0.1,165.2,0,165,0h-19.7
		c-0.4,0-0.7,0.1-1,0.4L122,21.5L108.3,9.3c-0.3-0.2-0.6-0.4-0.9-0.4H88c-0.2,0-0.4,0.1-0.5,0.3c-0.1,0.2,0,0.4,0.1,0.6l16.1,15.6
		c0.3,0.3,0.6,0.4,1,0.4h11.9L83,57.4c-0.2,0.2-0.2,0.4-0.1,0.6c0.1,0.2,0.3,0.3,0.5,0.3h25.9c0.4,0,0.8-0.2,1-0.4l12.2-12.6
		l23,23.3c0.3,0.3,0.6,0.4,1,0.4h29c0.2,0,0.4-0.1,0.5-0.3c0.1-0.2,0-0.4-0.2-0.6L142,39.3z"/>
	<path class="st0" d="M371,16.9v22.7c0,0.5-0.3,0.8-0.8,0.8c-0.4,0-0.7-0.3-1.1-0.8L356,19.9c-0.8-1.2-2.5-3.7-7.5-3.7
		c-4.3,0-6.7,2.3-6.7,6.6v24.7h7.4V24.7c0-0.5,0.3-0.8,0.7-0.8c0.4,0,0.7,0.3,1.1,0.8l13.2,20c1.6,2.3,4,3.4,7.4,3.4
		c3.1,0,6.7-1.1,6.7-6.6V16.9H371z"/>
	<path class="st0" d="M205.9,22.5c-1,1.2-3.5,4.6-3.5,9.7c0,5.7,2.9,9.2,4.2,10.5c3.2,3.3,7.1,4.8,12.2,4.8h14.5v-6.8h-14.3
		c-4,0-5.9-2.1-6.8-3c-0.2-0.2-2-2.3-2-5.4c0-2.8,1.5-4.8,2-5.3c1.7-2,4-3,6.8-3h14.3v-7h-14.5C211.5,16.9,207.9,20.1,205.9,22.5"/>
	<path class="st0" d="M190.1,29h-12.6c-1.1,0-1.9-0.2-2.3-0.8c-0.5-0.5-0.7-1-0.7-1.7c0-0.7,0.2-1.3,0.7-1.8
		c0.6-0.7,1.5-0.8,2.3-0.8h21.3v-7h-21.5c-3.8,0-6.2,0.9-8,3c-1.4,1.6-2.2,3.9-2.2,6.3c0,2.5,0.9,5,2.3,6.5c1.2,1.3,3.2,2.7,7.9,2.7
		h12.2c1.5,0,2.1,0.3,2.5,0.8c0.5,0.5,0.8,1.1,0.8,1.8c0,0.7-0.2,1.3-0.7,1.8c-0.5,0.5-1.1,0.8-2.6,0.8H168v6.8h22
		c4.8,0,7-2,8.2-3.5c0.9-1.2,2.1-3.1,2.1-5.8c0-2.2-0.7-4.2-2.1-5.9C196.2,30.1,193.5,29,190.1,29"/>
	<path class="st0" d="M273.2,21.2v21.9c0,2.9,1.5,4.4,4.5,4.4H304v-6.8h-22.7c-0.5,0-0.7-0.2-0.7-0.7v-4.6h23.2v-6.3h-23.2v-4.5
		c0-0.5,0.2-0.7,0.7-0.7H304v-7h-26.2C274.7,16.9,273.2,18.4,273.2,21.2"/>
	<path class="st0" d="M307.5,21.2v21.9c0,2.9,1.5,4.4,4.5,4.4h26.3v-6.8h-22.7c-0.5,0-0.7-0.2-0.7-0.7v-4.6h23.2v-6.3h-23.2v-4.5
		c0-0.5,0.2-0.7,0.7-0.7h22.7v-7H312C309,16.9,307.5,18.4,307.5,21.2"/>
	<path class="st0" d="M269.6,38.5c0-1.8-0.3-3.2-0.9-4.2c-0.5-0.9-1.1-1.6-2-2.1c1-0.8,1.8-1.7,2.3-2.7c0.5-1.2,0.8-2.4,0.8-3.8
		c0-2-0.8-4.1-2-5.6c-1.7-2-4.3-3.1-7.6-3.1h-18.6c-3,0-4.5,1.4-4.5,4.3v26.3h7.1V36.2h14.8c1.3,0,2.3,0.3,2.8,0.8
		c0.5,0.5,0.8,1.3,0.8,2.4v5.7c0,1.2,0.2,2.4,0.2,2.4h7.2c0,0-0.2-0.6-0.2-3.1V38.5z M260.6,29.4c-0.5,0.2-1.2,0.3-2.1,0.3h-14.1
		v-5.5c0-0.3,0.2-0.5,0.5-0.5h13.6c0.8,0,1.5,0.1,1.9,0.2c1.2,0.4,2,1.5,2,2.8C262.3,27.7,261.9,28.8,260.6,29.4"/>
</g>
</svg>
