<?xml version="1.0" encoding="utf-8"?>
<!-- Generator: Adobe Illustrator 23.0.2, SVG Export Plug-In . SVG Version: 6.00 Build 0)  -->
<svg version="1.1" id="レイヤー_1" xmlns="http://www.w3.org/2000/svg" xmlns:xlink="http://www.w3.org/1999/xlink" x="0px"
	 y="0px" width="265.8px" height="51.1px" viewBox="0 0 265.8 51.1" style="enable-background:new 0 0 265.8 51.1;"
	 xml:space="preserve">
<style type="text/css">
	.st0{fill:url(#SVGID_1_);}
	.st1{fill:url(#SVGID_2_);}
	.st2{fill:url(#SVGID_3_);}
	.st3{fill:url(#SVGID_4_);}
	.st4{fill:url(#SVGID_5_);}
	.st5{fill:url(#SVGID_6_);}
	.st6{fill:url(#SVGID_7_);}
	.st7{fill:#E50020;}
	.st8{fill:#00A63C;}
	.st9{fill:#004DA0;}
	.st10{fill:#009FE8;}
</style>
<g>
	<g>
		<g>
			<g>
				<g>
					<g>
						
							<linearGradient id="SVGID_1_" gradientUnits="userSpaceOnUse" x1="50.8283" y1="33.7139" x2="50.8283" y2="4.255" gradientTransform="matrix(1 0 0.1823 1 10.1673 0)">
							<stop  offset="0" style="stop-color:#009FE8"/>
							<stop  offset="0.2599" style="stop-color:#009CE5"/>
							<stop  offset="0.4687" style="stop-color:#0092DC"/>
							<stop  offset="0.6597" style="stop-color:#0081CE"/>
							<stop  offset="0.839" style="stop-color:#0069B9"/>
							<stop  offset="1" style="stop-color:#004DA0"/>
						</linearGradient>
						<path class="st0" d="M53,0.6h14.2c1.7,0,3.2,0.3,4.5,0.8c1.2,0.5,2.3,1.2,3.1,2.2c0.6,0.7,1,1.4,1.3,2.3
							c0.3,0.9,0.5,1.9,0.5,3l0,0.1c0,1.9-0.4,3.5-1.2,4.6c-0.8,1.2-1.8,2.1-3.1,2.7c1.7,0.7,3,1.6,4,2.9c1,1.2,1.5,3,1.5,5.2l0,0.1
							c0,2.9-0.9,5.1-2.8,6.7c-1.8,1.6-4.4,2.4-7.7,2.4H53L53,0.6z M66.4,26.2c1.2,0,2.1-0.3,2.7-0.8c0.6-0.5,1-1.3,1-2.2v-0.1
							c0-0.9-0.3-1.6-0.9-2.2c-0.6-0.5-1.6-0.8-2.8-0.8h-5.9l0,6.1H66.4z M65.3,13.7c1.2,0,2.1-0.2,2.7-0.7c0.6-0.5,0.9-1.2,0.9-2.2
							l0-0.1c0-0.9-0.3-1.6-0.9-2.1c-0.6-0.5-1.5-0.7-2.6-0.7h-5l0,5.8H65.3z"/>
						
							<linearGradient id="SVGID_2_" gradientUnits="userSpaceOnUse" x1="91.9163" y1="33.7139" x2="91.9163" y2="4.255" gradientTransform="matrix(1 0 0.1823 1 10.1673 0)">
							<stop  offset="0" style="stop-color:#009FE8"/>
							<stop  offset="0.2599" style="stop-color:#009CE5"/>
							<stop  offset="0.4687" style="stop-color:#0092DC"/>
							<stop  offset="0.6597" style="stop-color:#0081CE"/>
							<stop  offset="0.839" style="stop-color:#0069B9"/>
							<stop  offset="1" style="stop-color:#004DA0"/>
						</linearGradient>
						<path class="st1" d="M94.1,0.6h22.3l0,7.8h-14.7l0,5h13.3l0,7.2h-13.3l0,5.2h14.9l0,7.8H94L94.1,0.6z"/>
						
							<linearGradient id="SVGID_3_" gradientUnits="userSpaceOnUse" x1="129.6577" y1="33.7139" x2="129.6577" y2="4.255" gradientTransform="matrix(1 0 0.1823 1 10.1673 0)">
							<stop  offset="0" style="stop-color:#009FE8"/>
							<stop  offset="0.2599" style="stop-color:#009CE5"/>
							<stop  offset="0.4687" style="stop-color:#0092DC"/>
							<stop  offset="0.6597" style="stop-color:#0081CE"/>
							<stop  offset="0.839" style="stop-color:#0069B9"/>
							<stop  offset="1" style="stop-color:#004DA0"/>
						</linearGradient>
						<path class="st2" d="M144.1,34.1c-2.5,0-4.8-0.5-7.1-1.4c-2.2-0.9-4.2-2.3-5.9-4.1l4.3-6.1c2.8,2.6,5.8,4,9,4
							c1,0,1.8-0.2,2.4-0.6c0.5-0.4,0.8-0.9,0.8-1.7v-0.1c0-0.3-0.1-0.7-0.2-0.9c-0.1-0.3-0.4-0.5-0.7-0.8c-0.4-0.3-0.8-0.5-1.4-0.7
							c-0.6-0.2-1.4-0.5-2.3-0.7c-1.5-0.4-2.8-0.9-4.1-1.3c-1.3-0.5-2.4-1.1-3.3-1.9c-0.9-0.8-1.7-1.7-2.2-2.9
							c-0.5-1.1-0.8-2.6-0.8-4.3v-0.1c0-1.5,0.2-2.9,0.7-4.2c0.5-1.3,1.2-2.4,2.1-3.3c0.9-0.9,2.1-1.7,3.4-2.2
							c1.3-0.5,2.8-0.8,4.5-0.8c2.4,0,4.5,0.4,6.4,1.1c1.9,0.7,3.5,1.8,5,3.3l-3.9,6.5c-1.3-1.1-2.6-1.9-3.9-2.4
							c-1.3-0.5-2.6-0.8-3.9-0.8c-0.9,0-1.6,0.2-2.1,0.6c-0.5,0.4-0.7,0.9-0.7,1.5v0.1c0,0.4,0.1,0.7,0.2,1c0.1,0.3,0.4,0.5,0.8,0.8
							c0.4,0.2,0.8,0.5,1.5,0.7c0.6,0.2,1.4,0.5,2.4,0.7c1.6,0.4,3,0.9,4.3,1.4c1.3,0.5,2.4,1.2,3.3,2c0.9,0.8,1.6,1.7,2.1,2.8
							c0.5,1.1,0.7,2.4,0.7,4v0.1c0,1.7-0.3,3.2-0.8,4.5c-0.5,1.3-1.3,2.4-2.3,3.4c-1,0.9-2.2,1.6-3.5,2.1
							C147.3,33.9,145.8,34.1,144.1,34.1z"/>
						
							<linearGradient id="SVGID_4_" gradientUnits="userSpaceOnUse" x1="171.3979" y1="33.7139" x2="171.3979" y2="4.255" gradientTransform="matrix(1 0 0.1823 1 10.1673 0)">
							<stop  offset="0" style="stop-color:#009FE8"/>
							<stop  offset="0.2599" style="stop-color:#009CE5"/>
							<stop  offset="0.4687" style="stop-color:#0092DC"/>
							<stop  offset="0.6597" style="stop-color:#0081CE"/>
							<stop  offset="0.839" style="stop-color:#0069B9"/>
							<stop  offset="1" style="stop-color:#004DA0"/>
						</linearGradient>
						<path class="st3" d="M178.6,8.6h-8.3l0-8h24.3l0,8h-8.3l0,25h-7.7L178.6,8.6z"/>
						
							<linearGradient id="SVGID_5_" gradientUnits="userSpaceOnUse" x1="201.3763" y1="33.7139" x2="201.3763" y2="4.255" gradientTransform="matrix(1 0 0.1823 1 10.1673 0)">
							<stop  offset="0" style="stop-color:#009FE8"/>
							<stop  offset="0.2599" style="stop-color:#009CE5"/>
							<stop  offset="0.4687" style="stop-color:#0092DC"/>
							<stop  offset="0.6597" style="stop-color:#0081CE"/>
							<stop  offset="0.839" style="stop-color:#0069B9"/>
							<stop  offset="1" style="stop-color:#004DA0"/>
						</linearGradient>
						<path class="st4" d="M210.8,0.6h7.7l-0.1,33h-7.7L210.8,0.6z"/>
						<g>
							
								<linearGradient id="SVGID_6_" gradientUnits="userSpaceOnUse" x1="231.8453" y1="33.7139" x2="231.8453" y2="4.255" gradientTransform="matrix(1 0 0.1823 1 10.1673 0)">
								<stop  offset="0" style="stop-color:#009FE8"/>
								<stop  offset="0.2599" style="stop-color:#009CE5"/>
								<stop  offset="0.4687" style="stop-color:#0092DC"/>
								<stop  offset="0.6597" style="stop-color:#0081CE"/>
								<stop  offset="0.839" style="stop-color:#0069B9"/>
								<stop  offset="1" style="stop-color:#004DA0"/>
							</linearGradient>
							<polygon class="st5" points="253.3,0.3 245.9,0.3 234.1,33.5 259.1,16.7 							"/>
							
								<linearGradient id="SVGID_7_" gradientUnits="userSpaceOnUse" x1="233.2896" y1="33.7139" x2="233.2896" y2="4.2552" gradientTransform="matrix(1 0 0.1823 1 10.1673 0)">
								<stop  offset="0" style="stop-color:#009FE8"/>
								<stop  offset="0.2599" style="stop-color:#009CE5"/>
								<stop  offset="0.4687" style="stop-color:#0092DC"/>
								<stop  offset="0.6597" style="stop-color:#0081CE"/>
								<stop  offset="0.839" style="stop-color:#0069B9"/>
								<stop  offset="1" style="stop-color:#004DA0"/>
							</linearGradient>
							<polygon class="st6" points="234.1,33.5 265.1,33.5 261.7,24 							"/>
						</g>
					</g>
				</g>
			</g>
		</g>
		<g>
			<rect y="27.8" class="st7" width="33.9" height="5.7"/>
			<rect y="14.1" class="st8" width="33.9" height="5.7"/>
			<rect y="0.3" class="st9" width="33.9" height="5.7"/>
		</g>
	</g>
	<g>
		<path class="st10" d="M0.1,42.4h3.8c1,0,1.7,0.3,2.2,0.8c0.4,0.4,0.6,0.9,0.6,1.4v0c0,0.3,0,0.5-0.1,0.7c-0.1,0.2-0.2,0.4-0.3,0.5
			c-0.1,0.2-0.2,0.3-0.4,0.4c-0.1,0.1-0.3,0.2-0.5,0.3c0.2,0.1,0.5,0.2,0.7,0.3c0.2,0.1,0.4,0.3,0.5,0.4c0.1,0.2,0.3,0.4,0.3,0.6
			c0.1,0.2,0.1,0.5,0.1,0.8v0c0,0.4-0.1,0.7-0.2,1c-0.2,0.3-0.4,0.5-0.6,0.7c-0.3,0.2-0.6,0.3-1,0.4C4.9,50.9,4.5,51,4,51H0.1V42.4z
			 M3.6,46c0.5,0,0.9-0.1,1.2-0.3s0.4-0.5,0.4-0.9v0c0-0.3-0.1-0.6-0.4-0.8c-0.3-0.2-0.6-0.3-1.1-0.3H1.5V46H3.6z M4,49.6
			c0.5,0,0.9-0.1,1.2-0.3c0.3-0.2,0.4-0.5,0.4-0.9v0c0-0.4-0.1-0.6-0.4-0.8c-0.3-0.2-0.7-0.3-1.3-0.3H1.5v2.3H4z"/>
		<path class="st10" d="M12.4,43.6h5.4v1.2h-4.1v1.9h3.7v1.2h-3.7v2h4.2V51h-5.5V43.6z"/>
		<path class="st10" d="M25.1,51.1c-0.6,0-1.1-0.1-1.6-0.3c-0.5-0.2-1-0.5-1.4-0.9l0.8-0.9c0.4,0.3,0.7,0.5,1.1,0.7
			c0.4,0.2,0.8,0.2,1.2,0.2c0.4,0,0.7-0.1,0.9-0.3c0.2-0.2,0.3-0.4,0.3-0.7v0c0-0.1,0-0.2-0.1-0.4c0-0.1-0.1-0.2-0.3-0.3
			c-0.1-0.1-0.3-0.2-0.5-0.3c-0.2-0.1-0.5-0.2-0.8-0.2c-0.4-0.1-0.7-0.2-1-0.3s-0.6-0.3-0.8-0.4c-0.2-0.2-0.4-0.4-0.5-0.6
			c-0.1-0.2-0.2-0.5-0.2-0.9v0c0-0.3,0.1-0.6,0.2-0.9c0.1-0.3,0.3-0.5,0.5-0.7c0.2-0.2,0.5-0.3,0.8-0.4c0.3-0.1,0.6-0.2,1-0.2
			c0.5,0,1,0.1,1.4,0.2c0.4,0.2,0.8,0.4,1.2,0.7l-0.7,1c-0.3-0.2-0.7-0.4-1-0.6c-0.3-0.1-0.7-0.2-1-0.2c-0.4,0-0.7,0.1-0.9,0.3
			c-0.2,0.2-0.3,0.4-0.3,0.6v0c0,0.1,0,0.3,0.1,0.4c0,0.1,0.1,0.2,0.3,0.3c0.1,0.1,0.3,0.2,0.5,0.2c0.2,0.1,0.5,0.2,0.9,0.2
			c0.4,0.1,0.7,0.2,1,0.3c0.3,0.1,0.5,0.3,0.7,0.4c0.2,0.2,0.3,0.4,0.4,0.6c0.1,0.2,0.2,0.5,0.2,0.8v0c0,0.3-0.1,0.6-0.2,0.9
			c-0.1,0.3-0.3,0.5-0.5,0.7c-0.2,0.2-0.5,0.3-0.8,0.4C25.8,51,25.5,51.1,25.1,51.1z"/>
		<path class="st10" d="M34.2,44.8h-2.3v-1.2h5.9v1.2h-2.3V51h-1.3V44.8z"/>
		<path class="st10" d="M53.6,42.4h1.5V51h-1.5V42.4z"/>
		<path class="st10" d="M60.9,43.6h1.4l2.2,3.5l2.2-3.5h1.4V51h-1.3v-5.3l-2.3,3.5h0l-2.3-3.4V51h-1.3V43.6z"/>
		<path class="st10" d="M73.1,43.6h1.4l2.2,3.5l2.2-3.5h1.4V51H79v-5.3l-2.3,3.5h0l-2.3-3.4V51h-1.3V43.6z"/>
		<path class="st10" d="M85.4,43.6h5.4v1.2h-4.1v1.9h3.7v1.2h-3.7v2h4.2V51h-5.5V43.6z"/>
		<path class="st10" d="M95.5,43.6h3.3c0.5,0,0.9,0.1,1.2,0.2c0.4,0.1,0.7,0.3,0.9,0.5c0.2,0.2,0.3,0.4,0.4,0.7
			c0.1,0.3,0.2,0.6,0.2,0.9v0c0,0.3,0,0.6-0.1,0.8c-0.1,0.2-0.2,0.5-0.4,0.6c-0.2,0.2-0.3,0.3-0.5,0.5c-0.2,0.1-0.4,0.2-0.7,0.3
			l2,2.8h-1.5l-1.8-2.6h0h-1.6V51h-1.3V43.6z M98.7,47.3c0.5,0,0.8-0.1,1.1-0.3s0.4-0.5,0.4-0.9v0c0-0.4-0.1-0.7-0.4-0.9
			c-0.3-0.2-0.6-0.3-1.1-0.3h-1.9v2.5H98.7z"/>
		<path class="st10" d="M108.8,51.1c-0.6,0-1.1-0.1-1.6-0.3c-0.5-0.2-1-0.5-1.4-0.9l0.8-0.9c0.4,0.3,0.7,0.5,1.1,0.7
			c0.4,0.2,0.8,0.2,1.2,0.2c0.4,0,0.7-0.1,0.9-0.3c0.2-0.2,0.3-0.4,0.3-0.7v0c0-0.1,0-0.2-0.1-0.4c0-0.1-0.1-0.2-0.3-0.3
			c-0.1-0.1-0.3-0.2-0.5-0.3c-0.2-0.1-0.5-0.2-0.8-0.2c-0.4-0.1-0.7-0.2-1-0.3c-0.3-0.1-0.6-0.3-0.8-0.4c-0.2-0.2-0.4-0.4-0.5-0.6
			c-0.1-0.2-0.2-0.5-0.2-0.9v0c0-0.3,0.1-0.6,0.2-0.9c0.1-0.3,0.3-0.5,0.5-0.7c0.2-0.2,0.5-0.3,0.8-0.4c0.3-0.1,0.6-0.2,1-0.2
			c0.5,0,1,0.1,1.4,0.2c0.4,0.2,0.8,0.4,1.2,0.7l-0.7,1c-0.3-0.2-0.7-0.4-1-0.6c-0.3-0.1-0.7-0.2-1-0.2c-0.4,0-0.7,0.1-0.9,0.3
			c-0.2,0.2-0.3,0.4-0.3,0.6v0c0,0.1,0,0.3,0.1,0.4c0,0.1,0.1,0.2,0.3,0.3c0.1,0.1,0.3,0.2,0.5,0.2c0.2,0.1,0.5,0.2,0.9,0.2
			c0.4,0.1,0.7,0.2,1,0.3c0.3,0.1,0.5,0.3,0.7,0.4c0.2,0.2,0.3,0.4,0.4,0.6c0.1,0.2,0.2,0.5,0.2,0.8v0c0,0.3-0.1,0.6-0.2,0.9
			c-0.1,0.3-0.3,0.5-0.5,0.7c-0.2,0.2-0.5,0.3-0.8,0.4C109.6,51,109.2,51.1,108.8,51.1z"/>
		<path class="st10" d="M116.2,43.6h1.3V51h-1.3V43.6z"/>
		<path class="st10" d="M122,43.6h1.4l2.2,5.6l2.2-5.6h1.4l-3,7.4H125L122,43.6z"/>
		<path class="st10" d="M133.6,43.6h5.4v1.2h-4.1v1.9h3.7v1.2h-3.7v2h4.2V51h-5.5V43.6z"/>
		<path class="st10" d="M158,42.4h1.4l3.7,8.6h-1.6l-0.9-2.1h-4l-0.9,2.1h-1.5L158,42.4z M160.1,47.6l-1.5-3.4l-1.5,3.4H160.1z"/>
		<path class="st10" d="M171.1,51.1c-0.5,0-0.9-0.1-1.3-0.2c-0.4-0.1-0.7-0.3-1-0.6c-0.3-0.3-0.5-0.6-0.6-1
			c-0.1-0.4-0.2-0.9-0.2-1.4v-4.2h1.3v4.2c0,0.7,0.2,1.2,0.5,1.6s0.8,0.5,1.4,0.5c0.6,0,1-0.2,1.4-0.5c0.3-0.3,0.5-0.9,0.5-1.5v-4.2
			h1.3v4.2c0,0.5-0.1,1-0.2,1.4c-0.1,0.4-0.4,0.8-0.6,1c-0.3,0.3-0.6,0.5-1,0.6C172,51,171.6,51.1,171.1,51.1z"/>
		<path class="st10" d="M179.2,43.6h2.7c0.6,0,1.1,0.1,1.6,0.3c0.5,0.2,0.9,0.4,1.2,0.8c0.3,0.3,0.6,0.7,0.8,1.2
			c0.2,0.4,0.3,0.9,0.3,1.4v0c0,0.5-0.1,1-0.3,1.4c-0.2,0.4-0.5,0.8-0.8,1.2c-0.3,0.3-0.8,0.6-1.2,0.8c-0.5,0.2-1,0.3-1.6,0.3h-2.7
			V43.6z M181.9,49.8c0.4,0,0.7-0.1,1-0.2c0.3-0.1,0.6-0.3,0.8-0.5c0.2-0.2,0.4-0.5,0.5-0.8c0.1-0.3,0.2-0.6,0.2-1v0
			c0-0.4-0.1-0.7-0.2-1c-0.1-0.3-0.3-0.6-0.5-0.8c-0.2-0.2-0.5-0.4-0.8-0.5c-0.3-0.1-0.7-0.2-1-0.2h-1.4v5H181.9z"/>
		<path class="st10" d="M190.6,43.6h1.3V51h-1.3V43.6z"/>
		<path class="st10" d="M200.5,51.1c-0.6,0-1.1-0.1-1.5-0.3c-0.5-0.2-0.9-0.5-1.2-0.8c-0.3-0.3-0.6-0.7-0.8-1.2
			c-0.2-0.5-0.3-0.9-0.3-1.5v0c0-0.5,0.1-1,0.3-1.5c0.2-0.5,0.5-0.9,0.8-1.2c0.3-0.3,0.7-0.6,1.2-0.8c0.5-0.2,1-0.3,1.5-0.3
			c0.6,0,1.1,0.1,1.5,0.3c0.5,0.2,0.9,0.5,1.2,0.8c0.3,0.3,0.6,0.7,0.8,1.2c0.2,0.5,0.3,0.9,0.3,1.5v0c0,0.5-0.1,1-0.3,1.5
			c-0.2,0.5-0.5,0.9-0.8,1.2c-0.3,0.3-0.7,0.6-1.2,0.8C201.6,51,201,51.1,200.5,51.1z M200.5,49.9c0.4,0,0.7-0.1,1-0.2
			c0.3-0.1,0.6-0.3,0.8-0.6c0.2-0.2,0.4-0.5,0.5-0.8c0.1-0.3,0.2-0.6,0.2-1v0c0-0.4-0.1-0.7-0.2-1c-0.1-0.3-0.3-0.6-0.5-0.8
			c-0.2-0.2-0.5-0.4-0.8-0.6c-0.3-0.1-0.6-0.2-1-0.2c-0.4,0-0.7,0.1-1,0.2s-0.6,0.3-0.8,0.6c-0.2,0.2-0.4,0.5-0.5,0.8
			c-0.1,0.3-0.2,0.6-0.2,1v0c0,0.4,0.1,0.7,0.2,1c0.1,0.3,0.3,0.6,0.5,0.8c0.2,0.2,0.5,0.4,0.8,0.6
			C199.8,49.8,200.1,49.9,200.5,49.9z"/>
		<path class="st10" d="M208.5,42.4h1.7l2.6,6.6l2.6-6.6h1.6l-3.5,8.6H212L208.5,42.4z"/>
		<path class="st10" d="M221.9,43.6h1.3V51h-1.3V43.6z"/>
		<path class="st10" d="M230.9,51.1c-0.6,0-1.1-0.1-1.6-0.3c-0.5-0.2-1-0.5-1.4-0.9l0.8-0.9c0.4,0.3,0.7,0.5,1.1,0.7
			c0.4,0.2,0.8,0.2,1.2,0.2c0.4,0,0.7-0.1,0.9-0.3c0.2-0.2,0.3-0.4,0.3-0.7v0c0-0.1,0-0.2-0.1-0.4c0-0.1-0.1-0.2-0.3-0.3
			c-0.1-0.1-0.3-0.2-0.5-0.3c-0.2-0.1-0.5-0.2-0.8-0.2c-0.4-0.1-0.7-0.2-1-0.3c-0.3-0.1-0.6-0.3-0.8-0.4c-0.2-0.2-0.4-0.4-0.5-0.6
			s-0.2-0.5-0.2-0.9v0c0-0.3,0.1-0.6,0.2-0.9c0.1-0.3,0.3-0.5,0.5-0.7c0.2-0.2,0.5-0.3,0.8-0.4c0.3-0.1,0.6-0.2,1-0.2
			c0.5,0,1,0.1,1.4,0.2c0.4,0.2,0.8,0.4,1.2,0.7l-0.7,1c-0.3-0.2-0.7-0.4-1-0.6c-0.3-0.1-0.7-0.2-1-0.2c-0.4,0-0.7,0.1-0.9,0.3
			c-0.2,0.2-0.3,0.4-0.3,0.6v0c0,0.1,0,0.3,0.1,0.4c0,0.1,0.1,0.2,0.3,0.3c0.1,0.1,0.3,0.2,0.5,0.2c0.2,0.1,0.5,0.2,0.9,0.2
			c0.4,0.1,0.7,0.2,1,0.3c0.3,0.1,0.5,0.3,0.7,0.4c0.2,0.2,0.3,0.4,0.4,0.6c0.1,0.2,0.2,0.5,0.2,0.8v0c0,0.3-0.1,0.6-0.2,0.9
			c-0.1,0.3-0.3,0.5-0.5,0.7c-0.2,0.2-0.5,0.3-0.8,0.4C231.6,51,231.3,51.1,230.9,51.1z"/>
		<path class="st10" d="M241.2,51.1c-0.5,0-0.9-0.1-1.3-0.2c-0.4-0.1-0.7-0.3-1-0.6c-0.3-0.3-0.5-0.6-0.6-1
			c-0.1-0.4-0.2-0.9-0.2-1.4v-4.2h1.3v4.2c0,0.7,0.2,1.2,0.5,1.6s0.8,0.5,1.4,0.5c0.6,0,1-0.2,1.4-0.5c0.3-0.3,0.5-0.9,0.5-1.5v-4.2
			h1.3v4.2c0,0.5-0.1,1-0.2,1.4c-0.1,0.4-0.4,0.8-0.6,1c-0.3,0.3-0.6,0.5-1,0.6C242.1,51,241.7,51.1,241.2,51.1z"/>
		<path class="st10" d="M251.8,43.6h1.2l3.2,7.4h-1.4l-0.7-1.8h-3.5l-0.8,1.8h-1.3L251.8,43.6z M253.7,48.1l-1.3-2.9l-1.3,2.9H253.7
			z"/>
		<path class="st10" d="M260.7,43.6h1.3v6.2h3.8V51h-5.1V43.6z"/>
	</g>
</g>
</svg>
