<?xml version="1.0" encoding="utf-8"?>
<!-- Generator: Adobe Illustrator 23.0.2, SVG Export Plug-In . SVG Version: 6.00 Build 0)  -->
<svg version="1.1" id="レイヤー_1" xmlns="http://www.w3.org/2000/svg" xmlns:xlink="http://www.w3.org/1999/xlink" x="0px"
	 y="0px" width="158.3px" height="184.3px" viewBox="0 0 158.3 184.3" style="enable-background:new 0 0 158.3 184.3;"
	 xml:space="preserve">
<style type="text/css">
	.st0{fill:#CCA57E;}
	.st1{fill:#231815;}
</style>
<g>
	<g>
		<g>
			<path class="st0" d="M19.8,82.7c0,0.8-0.1,1.5-0.3,2.2c-0.2,0.7-0.4,1.3-0.7,1.8c-0.3,0.5-0.6,1.1-1,1.5c-0.3,0.5-0.7,0.9-1,1.4
				c-0.3,0.5-0.5,0.9-0.7,1.4c-0.2,0.5-0.3,1-0.3,1.5c0,0.4,0.1,0.8,0.2,1.1c0.2,0.4,0.4,0.7,0.7,1.1c0.3,0.4,0.5,0.7,0.8,1.1
				c0.3,0.4,0.6,0.7,0.8,1.1c0.3,0.4,0.5,0.9,0.6,1.3c0.2,0.5,0.3,1,0.3,1.6c0,0.9-0.3,1.8-0.7,2.7c-0.5,0.9-1.1,1.6-2,2.3
				c-0.9,0.7-1.9,1.2-3.1,1.6c-1.2,0.4-2.5,0.6-4,0.6c-1.2,0-2.2-0.1-3.2-0.4c-1-0.2-1.8-0.6-2.5-1c-0.7-0.4-1.2-1-1.6-1.6
				c-0.4-0.6-0.6-1.4-0.6-2.2c0-1.2,0.4-2.3,1.1-3.2c0.7-0.9,1.7-1.6,3-2.2c1.2-0.5,2.7-0.9,4.3-1.1c1.6-0.2,3.3-0.1,5.1,0.1
				c-0.2-0.3-0.5-0.7-0.6-1.1c-0.2-0.4-0.3-0.8-0.3-1.3c0-0.5,0.1-1,0.3-1.6c0.2-0.5,0.5-1.2,1-1.9c-0.6,0.4-1.2,0.7-1.9,0.9
				c-0.7,0.2-1.4,0.3-2.2,0.3c-0.8,0-1.6-0.1-2.3-0.4c-0.7-0.3-1.3-0.7-1.8-1.2c-0.5-0.5-0.9-1.2-1.2-1.9c-0.3-0.8-0.4-1.6-0.4-2.6
				c0-1,0.2-2,0.5-3S7,80,7.7,79.2c0.7-0.8,1.5-1.4,2.5-1.8c1-0.5,2.1-0.7,3.4-0.7c1.5,0,2.8,0.4,3.8,1.1h5.7l-0.1,0.7
				c0,0.1-0.1,0.3-0.2,0.4c-0.1,0.1-0.2,0.2-0.4,0.2l-3.6,0.3c0.3,0.5,0.5,1,0.6,1.5C19.7,81.4,19.8,82.1,19.8,82.7z M17.4,100
				c0-0.7-0.1-1.3-0.3-1.8c-0.2-0.5-0.5-1-0.9-1.4l0,0c-2.1-0.3-4-0.4-5.5-0.2c-1.6,0.1-2.9,0.5-3.9,0.9c-1,0.5-1.8,1.1-2.3,1.8
				c-0.5,0.7-0.8,1.5-0.8,2.3c0,0.6,0.1,1.2,0.4,1.7c0.3,0.5,0.7,0.9,1.2,1.2c0.5,0.3,1.2,0.6,1.9,0.8c0.7,0.2,1.6,0.3,2.5,0.3
				c1.2,0,2.2-0.2,3.1-0.5s1.7-0.7,2.4-1.2c0.7-0.5,1.2-1.1,1.6-1.8C17.2,101.4,17.4,100.7,17.4,100z M11.9,89.5
				c0.9,0,1.8-0.2,2.5-0.6c0.7-0.4,1.4-0.9,1.9-1.6c0.5-0.6,0.9-1.4,1.2-2.2c0.3-0.8,0.4-1.6,0.4-2.5c0-1.5-0.4-2.7-1.2-3.4
				c-0.8-0.8-1.9-1.2-3.2-1.2c-1,0-1.8,0.2-2.5,0.6c-0.7,0.4-1.3,0.9-1.8,1.5c-0.5,0.6-0.9,1.3-1.1,2.1c-0.3,0.8-0.4,1.6-0.4,2.5
				c0,1.6,0.4,2.7,1.2,3.5C9.5,89.1,10.6,89.5,11.9,89.5z"/>
			<path class="st0" d="M39.8,98.9l2.6-21.9h0.9c0.5,0,0.8,0.3,0.8,0.8l-0.6,6.5c0.6-1.4,1.3-2.7,2-3.7c0.7-1.1,1.5-1.9,2.3-2.5
				s1.6-1,2.5-1.2c0.9-0.2,1.7-0.1,2.6,0.3l-0.4,2c-1-0.4-1.9-0.5-2.8-0.3c-0.9,0.2-1.7,0.7-2.5,1.4c-0.8,0.7-1.5,1.7-2.2,3
				c-0.7,1.3-1.3,2.8-1.8,4.5l-1.3,11.1H39.8z"/>
			<path class="st0" d="M82.3,98.9h-1c-0.3,0-0.5-0.1-0.6-0.2c-0.1-0.2-0.2-0.3-0.2-0.5l0.7-6.8c-0.6,1.2-1.2,2.2-1.8,3.2
				c-0.7,1-1.4,1.8-2.1,2.5c-0.8,0.7-1.6,1.2-2.4,1.6c-0.8,0.4-1.7,0.6-2.6,0.6c-0.9,0-1.7-0.2-2.4-0.5c-0.7-0.4-1.3-0.9-1.7-1.5
				c-0.5-0.7-0.8-1.5-1-2.4c-0.2-0.9-0.4-2-0.4-3.2c0-1.3,0.2-2.5,0.5-3.7c0.3-1.2,0.8-2.4,1.4-3.5c0.6-1.1,1.3-2.1,2.1-3
				c0.8-0.9,1.7-1.7,2.7-2.4c1-0.7,2.1-1.2,3.2-1.6c1.1-0.4,2.3-0.6,3.5-0.6c0.9,0,1.7,0.1,2.5,0.2c0.8,0.2,1.5,0.4,2.3,0.8
				L82.3,98.9z M73,97.4c0.8,0,1.7-0.2,2.5-0.7c0.8-0.5,1.6-1.1,2.3-2s1.4-1.9,2.1-3.1c0.6-1.2,1.2-2.5,1.7-4l1.1-9
				c-0.9-0.3-1.8-0.4-2.8-0.4c-1.5,0-2.9,0.4-4.2,1.1c-1.3,0.7-2.5,1.7-3.5,2.9c-1,1.2-1.8,2.6-2.4,4.1c-0.6,1.6-0.9,3.2-0.9,4.8
				c0,2,0.3,3.5,1,4.6C70.5,96.9,71.6,97.4,73,97.4z"/>
			<path class="st0" d="M102.4,98.9l2.6-21.9h0.9c0.5,0,0.8,0.3,0.8,0.8l-0.6,6.3c0.6-1.2,1.3-2.2,2-3.1c0.7-0.9,1.5-1.7,2.3-2.3
				c0.8-0.6,1.6-1.1,2.5-1.4c0.9-0.3,1.7-0.5,2.6-0.5c0.9,0,1.7,0.2,2.4,0.5c0.7,0.4,1.2,0.9,1.6,1.6c0.4,0.7,0.7,1.6,0.8,2.6
				c0.1,1,0.1,2.2-0.1,3.5l-1.6,14h-2.1l1.6-14c0.2-2.1,0.1-3.7-0.4-4.8c-0.5-1.1-1.5-1.7-3-1.7c-0.8,0-1.6,0.2-2.5,0.6
				c-0.8,0.4-1.6,1-2.4,1.8c-0.8,0.8-1.5,1.7-2.2,2.8c-0.7,1.1-1.3,2.3-1.8,3.7l-1.3,11.6H102.4z"/>
			<path class="st0" d="M153.4,98.9c-0.3,0-0.5-0.1-0.6-0.2c-0.1-0.2-0.2-0.3-0.2-0.5l0.7-6.9c-0.6,1.2-1.2,2.3-1.9,3.2
				c-0.7,1-1.5,1.8-2.3,2.5c-0.8,0.7-1.6,1.2-2.5,1.6c-0.9,0.4-1.7,0.6-2.6,0.6c-1,0-1.8-0.2-2.5-0.5c-0.7-0.4-1.3-0.9-1.8-1.6
				s-0.9-1.5-1.1-2.4c-0.2-1-0.4-2-0.4-3.2c0-1.1,0.1-2.3,0.4-3.4c0.2-1.2,0.6-2.3,1-3.4c0.4-1.1,1-2.1,1.6-3.1
				c0.6-1,1.3-1.8,2.1-2.5c0.8-0.7,1.7-1.3,2.6-1.7c0.9-0.4,1.9-0.6,3-0.6c1.2,0,2.3,0.3,3.3,0.8c1,0.5,1.8,1.3,2.5,2.3l1.6-12.9h2
				l-3.9,32H153.4z M144.8,97.5c0.8,0,1.7-0.2,2.5-0.7c0.8-0.5,1.6-1.1,2.4-2c0.8-0.9,1.5-1.9,2.2-3.1c0.7-1.2,1.3-2.5,1.8-4
				l0.8-6.3c-0.6-1.1-1.4-1.9-2.4-2.4c-0.9-0.5-1.9-0.7-2.9-0.7c-0.9,0-1.8,0.2-2.6,0.6c-0.8,0.4-1.5,0.9-2.2,1.5
				c-0.7,0.6-1.2,1.4-1.7,2.2c-0.5,0.9-0.9,1.8-1.3,2.7c-0.3,1-0.6,1.9-0.8,2.9s-0.3,2-0.3,2.9c0,2,0.4,3.5,1.1,4.6
				S143.3,97.5,144.8,97.5z"/>
			<path class="st1" d="M15.3,139.5c-0.7,0.6-1.4,1-2,1.3s-1.3,0.5-2,0.7c-0.7,0.1-1.4,0.2-2.2,0.2c-1.3,0-2.4-0.2-3.3-0.6
				c-0.9-0.4-1.7-1-2.3-1.8c-0.6-0.8-1.1-1.7-1.4-2.8c-0.3-1.1-0.5-2.2-0.5-3.5c0-1.2,0.1-2.3,0.4-3.4c0.2-1.1,0.6-2.2,1-3.2
				c0.5-1,1-2,1.6-2.8c0.6-0.9,1.4-1.6,2.2-2.2c0.8-0.6,1.7-1.1,2.6-1.5c0.9-0.4,2-0.5,3-0.5c0.7,0,1.4,0.1,1.9,0.2
				c0.6,0.1,1.1,0.3,1.6,0.6c0.5,0.3,0.9,0.6,1.3,0.9c0.4,0.4,0.8,0.8,1.1,1.2l-0.6,0.7c-0.1,0.2-0.3,0.2-0.5,0.2
				c-0.1,0-0.3-0.1-0.5-0.4c-0.2-0.2-0.5-0.5-0.9-0.8c-0.4-0.3-0.8-0.5-1.4-0.8c-0.6-0.2-1.3-0.4-2.2-0.4c-1.2,0-2.4,0.3-3.4,1
				c-1.1,0.7-2,1.5-2.8,2.7s-1.4,2.4-1.8,3.9c-0.4,1.5-0.7,3-0.7,4.6c0,1,0.1,1.9,0.3,2.8c0.2,0.9,0.6,1.6,1.1,2.2
				c0.5,0.6,1.1,1.1,1.8,1.5c0.7,0.4,1.6,0.5,2.6,0.5c0.8,0,1.5-0.1,2.1-0.3c0.6-0.2,1.2-0.4,1.6-0.6c0.5-0.2,0.9-0.5,1.3-0.8
				c0.4-0.3,0.7-0.6,1-0.8c0.3-0.2,0.5-0.5,0.7-0.6c0.2-0.2,0.4-0.3,0.5-0.3c0.2,0,0.3,0.1,0.5,0.2l0.5,0.6
				C16.7,138.3,16,139,15.3,139.5z"/>
			<path class="st1" d="M28.2,119.5l-2.7,21.9h-2l2.7-21.9H28.2z M29.8,112c0,0.3-0.1,0.5-0.2,0.7c-0.1,0.2-0.3,0.4-0.4,0.6
				c-0.2,0.2-0.4,0.3-0.6,0.4c-0.2,0.1-0.5,0.2-0.7,0.2c-0.2,0-0.5-0.1-0.7-0.2c-0.2-0.1-0.4-0.2-0.6-0.4c-0.2-0.2-0.3-0.4-0.4-0.6
				s-0.2-0.5-0.2-0.7c0-0.3,0.1-0.5,0.2-0.7c0.1-0.2,0.2-0.4,0.4-0.6c0.2-0.2,0.4-0.3,0.6-0.4c0.2-0.1,0.5-0.2,0.7-0.2
				c0.2,0,0.5,0.1,0.7,0.2c0.2,0.1,0.4,0.2,0.6,0.4c0.2,0.2,0.3,0.4,0.4,0.6C29.7,111.5,29.8,111.7,29.8,112z"/>
			<path class="st1" d="M32.8,141.4l2.6-21.9h0.9c0.5,0,0.8,0.3,0.8,0.8l-0.6,6.3c0.6-1.2,1.3-2.2,2-3.1c0.7-0.9,1.5-1.7,2.3-2.3
				c0.8-0.6,1.6-1.1,2.5-1.4s1.7-0.5,2.6-0.5c0.9,0,1.7,0.2,2.4,0.5s1.2,0.9,1.6,1.6c0.4,0.7,0.7,1.6,0.8,2.6c0.1,1,0.1,2.2-0.1,3.5
				l-1.6,14h-2.1l1.6-14c0.2-2.1,0.1-3.7-0.4-4.8c-0.5-1.1-1.5-1.7-3-1.7c-0.8,0-1.6,0.2-2.5,0.6c-0.8,0.4-1.6,1-2.4,1.8
				c-0.8,0.8-1.5,1.7-2.2,2.8s-1.3,2.3-1.8,3.7l-1.3,11.6H32.8z"/>
			<path class="st1" d="M72.4,123.7c0,0.6-0.1,1.2-0.2,1.7c-0.2,0.5-0.4,1.1-0.9,1.5c-0.4,0.5-1,0.9-1.7,1.4
				c-0.7,0.4-1.6,0.8-2.7,1.2c-1.1,0.4-2.4,0.7-3.9,1c-1.5,0.3-3.3,0.5-5.4,0.8c0,0.3-0.1,0.6-0.1,0.9c0,0.3,0,0.6,0,0.9
				c0,2.2,0.5,3.9,1.5,5.1c1,1.2,2.5,1.8,4.5,1.8c0.8,0,1.5-0.1,2.1-0.3c0.6-0.2,1.2-0.4,1.7-0.6c0.5-0.3,0.9-0.5,1.3-0.8
				c0.4-0.3,0.7-0.6,1-0.8c0.3-0.3,0.5-0.5,0.8-0.6c0.2-0.2,0.4-0.3,0.6-0.3c0.2,0,0.3,0.1,0.5,0.2l0.5,0.6c-0.7,0.8-1.4,1.4-2.1,2
				c-0.7,0.5-1.4,1-2.1,1.4c-0.7,0.4-1.4,0.6-2.2,0.8c-0.7,0.2-1.5,0.3-2.4,0.3c-1.2,0-2.3-0.2-3.2-0.6c-0.9-0.4-1.7-1-2.4-1.7
				c-0.6-0.7-1.1-1.6-1.5-2.7c-0.3-1.1-0.5-2.3-0.5-3.6c0-1.1,0.1-2.2,0.3-3.3c0.2-1.1,0.5-2.2,1-3.2c0.4-1,1-2,1.6-2.9
				c0.6-0.9,1.4-1.7,2.2-2.3c0.8-0.7,1.7-1.2,2.7-1.6c1-0.4,2.1-0.6,3.2-0.6c1.1,0,2,0.2,2.7,0.5c0.7,0.3,1.3,0.7,1.8,1.1
				c0.5,0.4,0.8,0.9,1,1.5C72.3,122.8,72.4,123.2,72.4,123.7z M66.5,120.8c-1.2,0-2.2,0.2-3.2,0.7c-0.9,0.5-1.8,1.2-2.5,2
				c-0.7,0.8-1.3,1.8-1.8,2.9c-0.5,1.1-0.9,2.2-1.1,3.4c1.9-0.2,3.5-0.4,4.8-0.7c1.3-0.3,2.5-0.6,3.4-0.9c0.9-0.3,1.7-0.6,2.3-1
				c0.6-0.4,1-0.7,1.4-1.1c0.3-0.4,0.5-0.8,0.6-1.2c0.1-0.4,0.2-0.8,0.2-1.2c0-0.3-0.1-0.6-0.2-1c-0.1-0.4-0.4-0.7-0.7-1
				c-0.3-0.3-0.7-0.5-1.3-0.7C67.9,120.9,67.2,120.8,66.5,120.8z"/>
			<path class="st1" d="M76.3,141.4l2.6-21.9h0.9c0.5,0,0.8,0.3,0.8,0.8l-0.6,6.1c1.1-2.3,2.5-4,4-5.3c1.5-1.3,3.1-1.9,4.7-1.9
				c0.8,0,1.6,0.2,2.1,0.5c0.6,0.3,1,0.8,1.3,1.4c0.3,0.6,0.5,1.3,0.6,2.2c0.1,0.9,0.1,1.9,0,3c0.6-1.2,1.2-2.2,1.9-3.1
				c0.7-0.9,1.4-1.6,2.2-2.2c0.8-0.6,1.5-1,2.3-1.3c0.8-0.3,1.6-0.4,2.4-0.4c1,0,1.7,0.2,2.4,0.5c0.6,0.4,1.1,0.9,1.4,1.6
				c0.3,0.7,0.5,1.6,0.6,2.6c0.1,1,0,2.2-0.1,3.5l-1.6,14h-2l1.6-14c0.1-1,0.2-2,0.2-2.8c0-0.8-0.1-1.5-0.4-2c-0.2-0.5-0.5-1-1-1.2
				c-0.4-0.3-1-0.4-1.7-0.4c-0.7,0-1.4,0.2-2.2,0.5c-0.7,0.3-1.5,0.8-2.2,1.5c-0.7,0.7-1.4,1.5-2,2.5c-0.6,1-1.2,2.2-1.7,3.5
				l-1.5,12.5h-2l1.6-14c0.1-1,0.2-2,0.2-2.8c0-0.8-0.1-1.5-0.3-2c-0.2-0.5-0.5-1-0.9-1.2c-0.4-0.3-1-0.4-1.7-0.4
				c-1.7,0-3.2,0.8-4.6,2.3c-1.4,1.5-2.7,3.7-3.7,6.5l-1.4,11.7H76.3z"/>
			<path class="st1" d="M125.8,141.4h-1c-0.3,0-0.5-0.1-0.6-0.2c-0.1-0.2-0.2-0.3-0.2-0.5l0.7-6.8c-0.6,1.2-1.2,2.2-1.8,3.2
				c-0.7,1-1.4,1.8-2.1,2.5c-0.8,0.7-1.6,1.2-2.4,1.6c-0.8,0.4-1.7,0.6-2.6,0.6c-0.9,0-1.7-0.2-2.4-0.5c-0.7-0.4-1.3-0.9-1.7-1.5
				c-0.5-0.7-0.8-1.5-1-2.4c-0.2-0.9-0.4-2-0.4-3.2c0-1.3,0.2-2.5,0.5-3.7c0.3-1.2,0.8-2.4,1.4-3.5c0.6-1.1,1.3-2.1,2.1-3
				c0.8-0.9,1.7-1.7,2.7-2.4c1-0.7,2.1-1.2,3.2-1.6c1.1-0.4,2.3-0.6,3.5-0.6c0.9,0,1.7,0.1,2.5,0.2c0.8,0.2,1.5,0.4,2.3,0.8
				L125.8,141.4z M116.5,139.9c0.8,0,1.7-0.2,2.5-0.7c0.8-0.5,1.6-1.1,2.3-2c0.7-0.8,1.4-1.9,2.1-3.1c0.6-1.2,1.2-2.5,1.7-4l1.1-9
				c-0.9-0.3-1.8-0.4-2.8-0.4c-1.5,0-2.9,0.4-4.2,1.1c-1.3,0.7-2.5,1.7-3.5,2.9c-1,1.2-1.8,2.6-2.4,4.1c-0.6,1.6-0.9,3.2-0.9,4.8
				c0,2,0.3,3.5,1,4.6C114,139.4,115.1,139.9,116.5,139.9z"/>
			<path class="st1" d="M15.2,164.7c-0.1,0.2-0.3,0.3-0.5,0.3c-0.1,0-0.3-0.1-0.5-0.3c-0.2-0.2-0.5-0.4-0.9-0.6
				c-0.4-0.2-0.8-0.4-1.4-0.6c-0.5-0.2-1.2-0.3-2-0.3c-0.7,0-1.5,0.1-2.1,0.4c-0.7,0.2-1.2,0.6-1.7,1c-0.5,0.4-0.9,0.9-1.2,1.4
				s-0.4,1.1-0.4,1.7c0,0.6,0.1,1.1,0.4,1.5c0.3,0.4,0.6,0.8,1.1,1.1c0.5,0.3,1,0.6,1.6,0.8c0.6,0.2,1.2,0.4,1.8,0.7
				c0.6,0.2,1.2,0.5,1.8,0.7c0.6,0.3,1.1,0.6,1.6,1c0.5,0.4,0.8,0.8,1.1,1.4c0.3,0.5,0.4,1.2,0.4,2c0,0.9-0.2,1.8-0.6,2.7
				c-0.4,0.9-0.9,1.7-1.6,2.3c-0.7,0.7-1.5,1.2-2.5,1.6c-1,0.4-2.1,0.6-3.3,0.6c-1.4,0-2.6-0.2-3.5-0.7c-1-0.5-1.8-1.1-2.5-1.9
				l0.5-0.7c0.2-0.2,0.4-0.4,0.6-0.4c0.1,0,0.3,0.1,0.5,0.4c0.2,0.2,0.5,0.5,0.9,0.8c0.4,0.3,0.9,0.5,1.5,0.8
				c0.6,0.2,1.4,0.4,2.3,0.4c0.9,0,1.7-0.1,2.4-0.4c0.7-0.3,1.3-0.7,1.8-1.2c0.5-0.5,0.9-1.1,1.2-1.7c0.3-0.7,0.4-1.3,0.4-2.1
				c0-0.6-0.1-1.2-0.4-1.6c-0.3-0.4-0.6-0.8-1.1-1.1c-0.5-0.3-1-0.6-1.6-0.8c-0.6-0.2-1.2-0.4-1.8-0.6c-0.6-0.2-1.2-0.4-1.8-0.7
				c-0.6-0.3-1.1-0.6-1.6-0.9c-0.5-0.4-0.8-0.8-1.1-1.3c-0.3-0.5-0.4-1.2-0.4-1.9c0-0.8,0.2-1.7,0.5-2.5s0.9-1.5,1.5-2.1
				c0.7-0.6,1.4-1.1,2.4-1.4c0.9-0.4,1.9-0.5,3-0.5c1.2,0,2.3,0.2,3.2,0.6c0.9,0.4,1.7,1,2.4,1.7L15.2,164.7z"/>
			<path class="st1" d="M23.7,162L22,175.9c-0.3,2.1-0.1,3.7,0.4,4.8c0.5,1.1,1.5,1.7,3,1.7c0.8,0,1.6-0.2,2.4-0.6
				c0.8-0.4,1.6-1,2.4-1.8c0.8-0.8,1.5-1.7,2.2-2.8c0.7-1.1,1.3-2.3,1.8-3.6l1.4-11.6h2.1l-2.6,21.9h-1c-0.3,0-0.5-0.1-0.6-0.2
				c-0.1-0.1-0.2-0.3-0.2-0.6l0.7-6.2c-0.6,1.2-1.3,2.2-2,3.1c-0.7,0.9-1.5,1.7-2.3,2.3c-0.8,0.6-1.6,1.1-2.5,1.4
				c-0.9,0.3-1.7,0.5-2.5,0.5c-1.9,0-3.2-0.7-4-2.2c-0.8-1.4-1-3.5-0.7-6.1l1.6-13.9H23.7z"/>
			<path class="st1" d="M41.7,183.9l2.6-21.9h0.9c0.5,0,0.8,0.3,0.8,0.8l-0.6,6.3c0.6-1.2,1.3-2.2,2-3.1c0.7-0.9,1.5-1.7,2.3-2.3
				c0.8-0.6,1.6-1.1,2.5-1.4c0.9-0.3,1.7-0.5,2.6-0.5c0.9,0,1.7,0.2,2.4,0.5c0.7,0.4,1.2,0.9,1.6,1.6c0.4,0.7,0.7,1.6,0.8,2.6
				c0.1,1,0.1,2.2-0.1,3.5l-1.6,14h-2.1l1.6-14c0.2-2.1,0.1-3.7-0.4-4.8c-0.5-1.1-1.5-1.7-3-1.7c-0.8,0-1.6,0.2-2.5,0.6
				c-0.8,0.4-1.6,1-2.4,1.8c-0.8,0.8-1.5,1.7-2.2,2.8s-1.3,2.3-1.8,3.7l-1.3,11.6H41.7z"/>
			<path class="st1" d="M78.3,164.7c-0.1,0.2-0.3,0.3-0.5,0.3c-0.1,0-0.3-0.1-0.5-0.3c-0.2-0.2-0.5-0.4-0.9-0.6
				c-0.4-0.2-0.8-0.4-1.4-0.6c-0.5-0.2-1.2-0.3-2-0.3c-0.7,0-1.5,0.1-2.1,0.4c-0.7,0.2-1.2,0.6-1.7,1c-0.5,0.4-0.9,0.9-1.2,1.4
				s-0.4,1.1-0.4,1.7c0,0.6,0.1,1.1,0.4,1.5c0.3,0.4,0.6,0.8,1.1,1.1c0.5,0.3,1,0.6,1.6,0.8c0.6,0.2,1.2,0.4,1.8,0.7
				c0.6,0.2,1.2,0.5,1.8,0.7c0.6,0.3,1.1,0.6,1.6,1c0.5,0.4,0.8,0.8,1.1,1.4c0.3,0.5,0.4,1.2,0.4,2c0,0.9-0.2,1.8-0.6,2.7
				c-0.4,0.9-0.9,1.7-1.6,2.3c-0.7,0.7-1.5,1.2-2.5,1.6c-1,0.4-2.1,0.6-3.3,0.6c-1.4,0-2.6-0.2-3.5-0.7c-1-0.5-1.8-1.1-2.5-1.9
				l0.5-0.7c0.2-0.2,0.4-0.4,0.6-0.4c0.1,0,0.3,0.1,0.5,0.4c0.2,0.2,0.5,0.5,0.9,0.8c0.4,0.3,0.9,0.5,1.5,0.8
				c0.6,0.2,1.4,0.4,2.3,0.4c0.9,0,1.7-0.1,2.4-0.4c0.7-0.3,1.3-0.7,1.8-1.2c0.5-0.5,0.9-1.1,1.2-1.7c0.3-0.7,0.4-1.3,0.4-2.1
				c0-0.6-0.1-1.2-0.4-1.6c-0.3-0.4-0.6-0.8-1.1-1.1c-0.5-0.3-1-0.6-1.6-0.8c-0.6-0.2-1.2-0.4-1.8-0.6c-0.6-0.2-1.2-0.4-1.8-0.7
				c-0.6-0.3-1.1-0.6-1.6-0.9c-0.5-0.4-0.8-0.8-1.1-1.3c-0.3-0.5-0.4-1.2-0.4-1.9c0-0.8,0.2-1.7,0.5-2.5s0.9-1.5,1.5-2.1
				c0.7-0.6,1.4-1.1,2.4-1.4c0.9-0.4,1.9-0.5,3-0.5c1.2,0,2.3,0.2,3.2,0.6c0.9,0.4,1.7,1,2.4,1.7L78.3,164.7z"/>
			<path class="st1" d="M82.7,183.9l3.9-32h2.1l-2,16.7c0.6-1.1,1.2-2.1,1.9-2.9c0.7-0.9,1.5-1.6,2.2-2.2c0.8-0.6,1.6-1,2.4-1.4
				c0.8-0.3,1.6-0.5,2.5-0.5c1,0,1.8,0.2,2.4,0.5c0.7,0.4,1.2,0.9,1.6,1.6c0.4,0.7,0.7,1.6,0.8,2.6c0.1,1,0.1,2.2-0.1,3.5l-1.6,14
				h-2.1l1.6-14c0.2-2.1,0.1-3.7-0.4-4.8c-0.5-1.1-1.5-1.7-3-1.7c-0.8,0-1.6,0.2-2.4,0.6c-0.8,0.4-1.6,1-2.4,1.7
				c-0.8,0.8-1.5,1.7-2.2,2.7c-0.7,1.1-1.3,2.3-1.8,3.6l-1.4,11.8H82.7z"/>
			<path class="st1" d="M110.8,162l-2.7,21.9h-2l2.7-21.9H110.8z M112.4,154.5c0,0.3-0.1,0.5-0.2,0.7c-0.1,0.2-0.3,0.4-0.4,0.6
				c-0.2,0.2-0.4,0.3-0.6,0.4c-0.2,0.1-0.5,0.2-0.7,0.2c-0.2,0-0.5-0.1-0.7-0.2c-0.2-0.1-0.4-0.2-0.6-0.4c-0.2-0.2-0.3-0.4-0.4-0.6
				c-0.1-0.2-0.2-0.5-0.2-0.7c0-0.3,0.1-0.5,0.2-0.7c0.1-0.2,0.2-0.4,0.4-0.6c0.2-0.2,0.4-0.3,0.6-0.4c0.2-0.1,0.5-0.2,0.7-0.2
				c0.2,0,0.5,0.1,0.7,0.2c0.2,0.1,0.4,0.2,0.6,0.4c0.2,0.2,0.3,0.4,0.4,0.6C112.3,154,112.4,154.2,112.4,154.5z"/>
			<path class="st1" d="M115.8,183.9l2.6-21.9h0.9c0.5,0,0.8,0.3,0.8,0.8l-0.6,6.3c0.6-1.2,1.3-2.2,2-3.1c0.7-0.9,1.5-1.7,2.3-2.3
				c0.8-0.6,1.6-1.1,2.5-1.4c0.9-0.3,1.7-0.5,2.6-0.5c0.9,0,1.7,0.2,2.4,0.5c0.7,0.4,1.2,0.9,1.6,1.6c0.4,0.7,0.7,1.6,0.8,2.6
				c0.1,1,0.1,2.2-0.1,3.5l-1.6,14h-2.1l1.6-14c0.2-2.1,0.1-3.7-0.4-4.8c-0.5-1.1-1.5-1.7-3-1.7c-0.8,0-1.6,0.2-2.5,0.6
				c-0.8,0.4-1.6,1-2.4,1.8c-0.8,0.8-1.5,1.7-2.2,2.8s-1.3,2.3-1.8,3.7l-1.3,11.6H115.8z"/>
			<path class="st1" d="M155.2,166.2c0,0.6-0.1,1.2-0.2,1.7c-0.2,0.5-0.4,1.1-0.9,1.5c-0.4,0.5-1,0.9-1.7,1.4
				c-0.7,0.4-1.6,0.8-2.7,1.2c-1.1,0.4-2.4,0.7-3.9,1c-1.5,0.3-3.3,0.5-5.4,0.8c0,0.3-0.1,0.6-0.1,0.9c0,0.3,0,0.6,0,0.9
				c0,2.2,0.5,3.9,1.5,5.1c1,1.2,2.5,1.8,4.5,1.8c0.8,0,1.5-0.1,2.1-0.3c0.6-0.2,1.2-0.4,1.7-0.6c0.5-0.3,0.9-0.5,1.3-0.8
				c0.4-0.3,0.7-0.6,1-0.8c0.3-0.3,0.5-0.5,0.8-0.6c0.2-0.2,0.4-0.3,0.6-0.3c0.2,0,0.3,0.1,0.5,0.2l0.5,0.6c-0.7,0.8-1.4,1.4-2.1,2
				c-0.7,0.5-1.4,1-2.1,1.4c-0.7,0.4-1.4,0.6-2.2,0.8s-1.5,0.3-2.4,0.3c-1.2,0-2.3-0.2-3.2-0.6c-0.9-0.4-1.7-1-2.4-1.7
				c-0.6-0.7-1.1-1.6-1.5-2.7c-0.3-1.1-0.5-2.3-0.5-3.6c0-1.1,0.1-2.2,0.3-3.3c0.2-1.1,0.5-2.2,1-3.2c0.4-1,1-2,1.6-2.9
				c0.6-0.9,1.4-1.7,2.2-2.3c0.8-0.7,1.7-1.2,2.7-1.6c1-0.4,2.1-0.6,3.2-0.6c1.1,0,2,0.2,2.7,0.5c0.7,0.3,1.3,0.7,1.8,1.1
				c0.5,0.4,0.8,0.9,1,1.5C155.1,165.3,155.2,165.7,155.2,166.2z M149.3,163.3c-1.2,0-2.2,0.2-3.2,0.7c-0.9,0.5-1.8,1.2-2.5,2
				c-0.7,0.8-1.3,1.8-1.8,2.9c-0.5,1.1-0.9,2.2-1.1,3.4c1.9-0.2,3.5-0.4,4.8-0.7c1.3-0.3,2.5-0.6,3.4-0.9c0.9-0.3,1.7-0.6,2.3-1
				c0.6-0.4,1-0.7,1.4-1.1c0.3-0.4,0.5-0.8,0.6-1.2c0.1-0.4,0.2-0.8,0.2-1.2c0-0.3-0.1-0.6-0.2-1c-0.1-0.4-0.4-0.7-0.7-1
				c-0.3-0.3-0.7-0.5-1.3-0.7C150.7,163.4,150,163.3,149.3,163.3z"/>
		</g>
	</g>
	<g>
		<path class="st0" d="M26.5,0C11.9,0,0,11.9,0,26.5s11.9,26.5,26.5,26.5s26.5-11.9,26.5-26.5S41.2,0,26.5,0z M51.6,26.5
			c0,13.8-11.2,25-25,25s-25-11.2-25-25s11.2-25,25-25S51.6,12.7,51.6,26.5z"/>
		<path class="st0" d="M19.4,15.9c-0.6-0.4-1.4-0.7-2.4-0.7c-0.8,0-1.5,0.1-2.1,0.4c-0.6,0.3-1.1,0.7-1.6,1.1c-0.4,0.5-0.7,1-1,1.6
			c-0.2,0.6-0.3,1.2-0.3,1.8c0,0.6,0.1,1.2,0.3,1.6c0.2,0.5,0.4,0.9,0.8,1.2c0.3,0.3,0.7,0.6,1.2,0.7c0.9,0.3,2,0.3,2.8,0
			c0.2-0.1,0.4-0.2,0.7-0.3c-0.1,0.2-0.2,0.5-0.3,0.7c-0.1,0.3-0.2,0.7-0.2,1c0,0.3,0,0.6,0.2,0.8c0.1,0.1,0.1,0.3,0.2,0.4
			c-1-0.1-1.9-0.1-2.8,0c-1,0.1-1.9,0.3-2.6,0.7c-0.8,0.3-1.4,0.8-1.8,1.4c-0.5,0.6-0.7,1.3-0.7,2c0,0.5,0.1,1,0.4,1.4
			c0.2,0.4,0.6,0.8,1,1c0.4,0.3,1,0.5,1.5,0.6c0.6,0.1,1.2,0.2,2,0.2c0.9,0,1.7-0.1,2.5-0.4c0.7-0.2,1.4-0.6,1.9-1
			c0.5-0.4,0.9-0.9,1.2-1.4c0.3-0.5,0.4-1.1,0.4-1.7c0-0.4-0.1-0.7-0.2-1c-0.1-0.3-0.2-0.6-0.4-0.8c-0.2-0.3-0.3-0.5-0.5-0.7
			c-0.2-0.2-0.4-0.4-0.5-0.6c-0.2-0.2-0.3-0.4-0.4-0.6c-0.1-0.2-0.1-0.4-0.1-0.6c0-0.3,0.1-0.6,0.2-0.8c0.1-0.3,0.3-0.5,0.4-0.8
			c0.2-0.3,0.4-0.5,0.6-0.8c0.2-0.3,0.4-0.6,0.6-0.9c0.2-0.3,0.3-0.7,0.5-1.1c0.1-0.4,0.2-0.9,0.2-1.4v0c0-0.4,0-0.8-0.1-1.1
			c-0.1-0.3-0.2-0.5-0.3-0.7l1.9-0.2c0.2,0,0.3-0.1,0.4-0.2c0.1-0.1,0.1-0.2,0.1-0.3l0.1-0.6H19.4z M19,28.5c0.1,0.3,0.2,0.6,0.2,1
			v0c0,0.4-0.1,0.8-0.3,1.2c-0.2,0.4-0.5,0.7-0.9,1c-0.4,0.3-0.9,0.5-1.4,0.7c-0.5,0.2-1.2,0.3-1.9,0.3c-0.5,0-1-0.1-1.5-0.2
			c-0.4-0.1-0.8-0.2-1.1-0.4c-0.3-0.2-0.5-0.4-0.7-0.7c-0.2-0.3-0.2-0.6-0.2-0.9c0-0.5,0.2-0.9,0.5-1.3c0.3-0.4,0.7-0.8,1.3-1
			c0.6-0.3,1.4-0.5,2.3-0.5c0.3,0,0.6,0,0.9,0c0.7,0,1.5,0.1,2.3,0.2C18.7,28,18.8,28.2,19,28.5z M19.4,19.1c0,0.5-0.1,1-0.2,1.4
			c-0.2,0.5-0.4,0.9-0.7,1.3c-0.3,0.4-0.7,0.7-1.1,0.9C17,22.9,16.5,23,16,23c-0.8,0-1.4-0.2-1.8-0.7c-0.4-0.5-0.7-1.1-0.7-2
			c0-0.5,0.1-1,0.2-1.4c0.2-0.5,0.4-0.9,0.7-1.2c0.3-0.4,0.6-0.6,1.1-0.9c0.4-0.2,0.9-0.3,1.5-0.3c0.8,0,1.4,0.2,1.9,0.7
			C19.2,17.6,19.4,18.2,19.4,19.1z"/>
		<path class="st0" d="M33.8,9.4l-0.9,7.5c-0.4-0.5-0.8-0.9-1.3-1.1c-0.6-0.3-1.3-0.5-2-0.5c-0.7,0-1.3,0.1-1.9,0.4
			c-0.6,0.3-1.1,0.6-1.6,1.1c-0.5,0.4-0.9,1-1.3,1.5c-0.4,0.6-0.7,1.2-1,1.9c-0.3,0.7-0.5,1.4-0.6,2.1c-0.1,0.7-0.2,1.4-0.2,2.1
			c0,0.7,0.1,1.4,0.2,2c0.2,0.6,0.4,1.1,0.7,1.5c0.3,0.4,0.7,0.8,1.1,1c0.1,0,0.1,0.1,0.2,0.1c-0.5,0.4-0.9,0.8-1.3,1.4
			c-0.4,0.5-0.7,1.1-1,1.7c-0.3,0.6-0.5,1.3-0.6,2c-0.1,0.7-0.2,1.4-0.2,2.1c0,0.8,0.1,1.5,0.3,2.2c0.2,0.7,0.5,1.2,0.9,1.7
			c0.4,0.5,0.9,0.9,1.5,1.1c0.6,0.3,1.3,0.4,2,0.4c0.5,0,0.9,0,1.4-0.1c0.4-0.1,0.9-0.2,1.3-0.4c0.4-0.2,0.8-0.5,1.3-0.8
			c0.4-0.3,0.9-0.8,1.4-1.3l0.1-0.1l-0.4-0.5c-0.2-0.2-0.5-0.2-0.8,0c-0.1,0.1-0.3,0.2-0.4,0.4c-0.2,0.1-0.4,0.3-0.6,0.5
			c-0.2,0.2-0.5,0.3-0.7,0.5c-0.3,0.1-0.6,0.3-1,0.4c-0.4,0.1-0.8,0.1-1.2,0.1c-0.6,0-1.1-0.1-1.5-0.3c-0.4-0.2-0.8-0.5-1-0.8
			c-0.3-0.4-0.5-0.8-0.6-1.3c-0.1-0.5-0.2-1.1-0.2-1.7c0-0.9,0.1-1.8,0.4-2.7c0.3-0.9,0.6-1.6,1.1-2.3c0.5-0.7,1-1.2,1.6-1.6
			c0.6-0.4,1.3-0.6,2-0.6c0.5,0,0.9,0.1,1.2,0.2c0.3,0.1,0.6,0.3,0.8,0.4c0.2,0.2,0.4,0.3,0.5,0.4l0.4,0.5c0.1,0.1,0.2,0.2,0.4,0.2
			h0.7l2.6-21.3H33.8z M31.9,25l-0.4,3.6c-0.2-0.2-0.4-0.3-0.7-0.5c-0.3-0.2-0.6-0.3-1-0.4c0,0,0,0,0,0c0.5-0.4,0.9-0.9,1.3-1.5
			C31.4,25.9,31.7,25.4,31.9,25z M32.7,18.3l-0.5,3.8c-0.3,0.9-0.7,1.7-1.1,2.4c-0.4,0.7-0.8,1.3-1.3,1.8c-0.5,0.5-0.9,0.9-1.4,1.2
			c-0.2,0.1-0.4,0.2-0.6,0.3c-0.1,0-0.2,0-0.3,0.1l-0.2,0c-0.1,0-0.3,0.1-0.4,0.1c-0.8,0-1.4-0.3-1.9-0.9c-0.4-0.6-0.7-1.5-0.7-2.7
			c0-0.6,0.1-1.1,0.2-1.7c0.1-0.6,0.3-1.2,0.5-1.8c0.2-0.6,0.5-1.1,0.8-1.6c0.3-0.5,0.6-0.9,1-1.3c0.4-0.4,0.8-0.7,1.3-0.9
			c0.5-0.2,1-0.3,1.5-0.3c0.6,0,1.2,0.1,1.7,0.4C31.9,17.2,32.3,17.7,32.7,18.3z"/>
		<path class="st0" d="M42.6,29.1c-0.4-0.5-0.9-0.8-1.5-1.1c-0.6-0.2-1.2-0.4-2-0.4c-0.7,0-1.3,0.1-1.9,0.3
			c-0.6,0.2-1.1,0.5-1.5,0.9c-0.4,0.4-0.7,0.8-1,1.3c-0.2,0.5-0.3,1-0.3,1.5c0,0.5,0.1,0.9,0.3,1.2c0.2,0.3,0.4,0.6,0.7,0.9
			c0.3,0.2,0.6,0.4,1,0.6c0.4,0.2,0.7,0.3,1.1,0.4c0.4,0.1,0.7,0.3,1.1,0.4c0.3,0.1,0.6,0.3,0.9,0.5c0.3,0.2,0.5,0.4,0.6,0.6
			c0.2,0.2,0.2,0.5,0.2,0.9c0,0.4-0.1,0.8-0.2,1.2c-0.2,0.4-0.4,0.7-0.7,1c-0.3,0.3-0.6,0.5-1.1,0.7c-0.4,0.2-0.9,0.2-1.4,0.2
			c-0.5,0-1-0.1-1.3-0.2c-0.3-0.1-0.6-0.3-0.9-0.5c-0.2-0.2-0.4-0.3-0.5-0.5C34.1,39.1,34,39,33.8,39c-0.1,0-0.3,0-0.5,0.3L33,39.8
			l0.1,0.1c0.4,0.5,0.9,0.9,1.5,1.2c0.6,0.3,1.3,0.5,2.2,0.5c0.7,0,1.4-0.1,2-0.4c0.6-0.3,1.1-0.6,1.6-1c0.4-0.4,0.8-0.9,1-1.5
			c0.2-0.5,0.3-1.1,0.3-1.7c0-0.5-0.1-0.9-0.3-1.3c-0.2-0.3-0.4-0.6-0.7-0.9c-0.3-0.2-0.6-0.4-1-0.6c-0.4-0.2-0.7-0.3-1.1-0.4
			c-0.4-0.1-0.7-0.3-1.1-0.4c-0.3-0.1-0.6-0.3-0.9-0.5c-0.3-0.2-0.5-0.4-0.6-0.6c-0.2-0.2-0.2-0.5-0.2-0.8c0-0.3,0.1-0.7,0.2-1
			c0.2-0.3,0.4-0.6,0.7-0.8c0.3-0.2,0.6-0.4,1-0.6c0.4-0.1,0.8-0.2,1.2-0.2c0.5,0,0.9,0.1,1.2,0.2c0.3,0.1,0.6,0.2,0.8,0.4
			c0.2,0.1,0.4,0.3,0.5,0.4c0.2,0.1,0.3,0.2,0.4,0.2c0.1,0,0.3,0,0.4-0.3L42.6,29.1L42.6,29.1z"/>
	</g>
</g>
</svg>
