<?xml version="1.0" encoding="utf-8"?>
<!-- Generator: Adobe Illustrator 23.0.4, SVG Export Plug-In . SVG Version: 6.00 Build 0)  -->
<svg version="1.1" id="Layer_1" xmlns="http://www.w3.org/2000/svg" xmlns:xlink="http://www.w3.org/1999/xlink" x="0px" y="0px"
	 width="1247.4px" height="351.9px" viewBox="0 0 1247.4 351.9" style="enable-background:new 0 0 1247.4 351.9;"
	 xml:space="preserve">
<style type="text/css">
	.st0{fill:#0971CE;}
</style>
<g>
	<path class="st0" d="M1229.5,3c-8.2,0-14.9,6.7-14.9,14.8c0,8.2,6.7,14.9,14.9,14.9c8.2,0,14.8-6.7,14.8-14.9
		C1244.4,9.7,1237.7,3,1229.5,3 M1229.5,35.7c-9.9,0-17.9-8-17.9-17.9c0-9.9,8-17.9,17.9-17.9c9.9,0,17.9,8,17.9,17.9
		C1247.4,27.7,1239.4,35.7,1229.5,35.7"/>
	<path class="st0" d="M1230.7,17.8c2.7,0,3.4-0.5,3.4-3.4c0-2.7-0.5-3.2-3.1-3.2h-5.2v6.6H1230.7z M1225.8,21v6.4h-3.7V8h9.9
		c4.2,0.1,5.9,1.4,5.9,5.8c0,2.9-0.2,5-3.4,5.4v0.1c2.6,0.2,3.3,1.7,3.3,4.4v3.6h-3.7v-3.6c0-1.6-0.7-2.8-2.5-2.8H1225.8z"/>
	<path class="st0" d="M1109.6,111c5.6-6.6,92.1-109.3,92.8-110.2h-90.7c-3.9,4.7-55.6,66.3-64.1,76.4c0,0,0,0,0-0.1
		c-6.9-8.3-62.1-75.4-62.8-76.3h-91.7c0.8,0.9,87.2,103.6,92.8,110.2c-6.7,7.6-100.6,113.7-110,124.3l-0.2,0.2
		c-0.1,0.2-0.3,0.3-0.3,0.4l-0.2,0.2H973c0,0,66.5-75.7,75.3-85.8c8.7,10.1,74.3,85.8,74.3,85.8h97.8
		C1220.4,236.2,1116.7,119,1109.6,111"/>
	<path class="st0" d="M875.8,235.6l0.2-0.2C875.9,235.4,875.8,235.5,875.8,235.6"/>
	<path class="st0" d="M875.2,236.2l0.2-0.2C875.3,236.1,875.2,236.2,875.2,236.2"/>
	<path class="st0" d="M875.4,236c0.1-0.1,0.2-0.2,0.3-0.4L875.4,236z"/>
	<path class="st0" d="M1111.8,0.7h-0.1l-64,76.3c0,0,0,0,0,0.1C1056.2,67.1,1107.8,5.4,1111.8,0.7"/>
	<polygon class="st0" points="914.3,236.2 914.2,236.2 915.3,236.2 	"/>
	<path class="st0" d="M642.3,0.7L522.7,236.2L642.2,1C642.3,0.8,642.3,0.7,642.3,0.7"/>
	<path class="st0" d="M648,143.5c7.7-15.3,42.2-83.3,45.3-89.4h7.7c3.1,6.1,37.6,74.2,45.3,89.4H648z M751.9,0.8L751.9,0.8l-109.6,0
		h0c0,0-0.1,0.1-0.1,0.3L522.7,236.2h79.2c0,0,17.3-34,20.4-40h149.6c3.1,6,20.4,40,20.4,40h79.1L751.9,0.8z"/>
	<path class="st0" d="M389.8,0.7c0,0-62.9,124.3-71.4,141C311,127.1,247,1.1,246.8,0.8c0,0,0-0.1,0-0.1h0H127.2v235.5h66.6V65.7
		h13.6c3.5,7.2,83.3,170.5,83.3,170.5h55.1c0,0,79.8-163.3,83.3-170.5h13.6v170.5h66.6V0.7H389.8z"/>
	<rect y="0.7" class="st0" width="75" height="235.5"/>
	<polygon class="st0" points="661.3,287.2 642.5,342.7 623.5,287.2 619,287.2 599.9,342.7 580.9,287.2 574.1,287.2 596.4,350 
		603.3,350 613.4,322.7 621.3,298.2 628.9,322.6 639.1,350 646,350 668.2,287.2 	"/>
	<path class="st0" d="M690.5,350h-6.2v-63h6.2V350z M682.5,266.8c0-1.7,0.5-2.9,1.6-3.7c1.1-0.8,2.2-1.2,3.4-1.2
		c1.3,0,2.4,0.4,3.5,1.2c1.1,0.8,1.6,2.1,1.6,3.7c0,1.7-0.5,2.9-1.6,3.7c-1.1,0.8-2.2,1.2-3.5,1.2c-1.2,0-2.3-0.4-3.4-1.2
		C683.1,269.7,682.5,268.5,682.5,266.8"/>
	<path class="st0" d="M725.1,268.3v18.9h21.3v5.2h-21.3v38.2c0,2.1,0.1,4.1,0.4,5.8c0.3,1.8,0.8,3.3,1.6,4.6c0.8,1.3,2,2.3,3.5,3
		c1.5,0.7,3.5,1.1,6,1.1c1.5,0,3.1-0.2,4.8-0.7c1.7-0.5,3.3-1.1,4.9-1.8l2.2,5.1c-2,0.9-3.9,1.7-5.9,2.3c-2,0.6-4,0.9-5.9,0.9
		c-3.3,0-6.1-0.5-8.4-1.4c-2.3-0.9-4.1-2.3-5.5-4.1c-1.4-1.8-2.3-3.9-2.9-6.4c-0.6-2.5-0.9-5.3-0.9-8.3v-38.2h-13.3v-5.2H719V269
		L725.1,268.3z"/>
	<path class="st0" d="M766.1,261.1v37.8c2.5-4.5,5.8-7.7,9.9-9.6c4.1-1.9,8.3-2.9,12.7-3c4.4,0,8.2,0.7,11.5,2
		c3.3,1.4,6,3.2,8.2,5.7c2.2,2.4,3.9,5.3,5,8.8c1.1,3.4,1.7,7.2,1.7,11.2V350h-6.1v-35.9c0-3.2-0.4-6.1-1.1-8.8
		c-0.8-2.7-2-4.9-3.6-6.8c-1.7-1.9-3.7-3.4-6.3-4.4c-2.5-1.1-5.6-1.6-9.1-1.6c-3.3,0-6.3,0.6-9.1,1.8c-2.8,1.2-5.1,2.8-7,4.9
		c-1.9,2.1-3.5,4.6-4.6,7.3c-1.1,2.8-1.6,5.8-1.6,9.1V350h-6.2v-88.9H766.1z"/>
	<polygon class="st0" points="868.6,261.1 868.6,350 929.6,350 929.6,336.8 882.8,336.8 882.8,261.1 	"/>
	<path class="st0" d="M970.4,297.9c-2.8,0-5.4,0.5-7.9,1.5c-2.5,1-4.6,2.4-6.5,4.1c-1.9,1.8-3.3,3.9-4.4,6.5
		c-1.1,2.5-1.6,5.4-1.6,8.6c0,3.2,0.5,6.1,1.6,8.7c1.1,2.6,2.5,4.8,4.4,6.5c1.9,1.8,4,3.2,6.5,4.1c2.5,1,5.1,1.5,7.9,1.5
		c4.5,0,8.2-1,11.2-3c3-2,5.3-4.6,6.8-7.7c1.5-3.1,2.3-6.4,2.3-10c0-3.6-0.8-6.9-2.3-10c-1.5-3.1-3.8-5.7-6.8-7.7
		C978.6,298.9,974.9,297.9,970.4,297.9 M990.7,297.3l0.4-9.9h12.7V350h-12.4l-0.6-10.2c-1,2-2.4,3.8-4,5.3c-1.6,1.5-3.5,2.7-5.5,3.7
		c-2,1-4,1.7-6.1,2.2c-2.1,0.5-4.1,0.7-6,0.7c-4.6,0-8.8-0.7-12.8-2.2c-3.9-1.4-7.3-3.6-10.2-6.4c-2.8-2.8-5.1-6.2-6.7-10.3
		c-1.6-4.1-2.5-8.8-2.5-14.2c0-5.2,0.8-9.9,2.5-14c1.7-4.1,4-7.5,6.9-10.2c2.9-2.7,6.4-4.8,10.3-6.3c3.9-1.4,8.1-2.2,12.6-2.2
		c4.5,0,8.7,1,12.6,3C985.9,291,988.8,293.7,990.7,297.3"/>
	<path class="st0" d="M1062.2,302.7c-2.5-2.3-5-3.8-7.7-4.6c-2.7-0.8-5.6-1.2-8.8-1.2c-4.1-0.1-7.3,0.5-9.7,1.8
		c-2.4,1.3-3.6,3.2-3.6,5.6c0.1,2.6,1.4,4.5,3.8,5.7c2.5,1.1,5.7,1.9,9.8,2.3c2.9,0.3,5.9,0.7,9,1.2c3.1,0.6,6,1.5,8.6,2.9
		c2.6,1.4,4.8,3.3,6.4,5.8c1.7,2.5,2.5,5.7,2.5,9.8c0,3-0.6,5.6-1.9,8.1c-1.3,2.4-3.1,4.5-5.4,6.2c-2.3,1.7-5.1,3.1-8.4,4.1
		c-3.3,1-6.9,1.5-11,1.5c-5.1,0-10.1-0.8-15-2.3c-4.9-1.5-9.4-4.6-13.6-9.2l6.9-9.2c3,3.2,6.4,5.6,10.4,7c4,1.4,7.8,2.2,11.6,2.3
		c1.5,0,3.1-0.2,4.6-0.4c1.6-0.3,3-0.8,4.3-1.4c1.3-0.6,2.3-1.5,3.2-2.6c0.8-1.1,1.3-2.3,1.3-3.8c0.1-2.8-1.1-4.9-3.7-6.1
		c-2.5-1.3-6.1-2.1-10.8-2.6c-3-0.3-5.9-0.7-9-1.5c-3-0.7-5.7-1.8-8.2-3.2c-2.5-1.4-4.5-3.2-6-5.5c-1.6-2.3-2.3-5.2-2.3-8.6
		c0-3.5,0.8-6.4,2.4-8.8c1.6-2.4,3.7-4.4,6.2-5.9c2.5-1.5,5.3-2.6,8.4-3.3c3.1-0.7,6.1-1,9-1c4.8,0,9.2,0.6,13,1.8
		c3.9,1.2,7.6,3.4,11.1,6.5L1062.2,302.7z"/>
	<path class="st0" d="M1096.2,312.5h38c-0.4-5-2.3-8.8-5.6-11.3c-3.3-2.5-7.6-3.8-13-3.8c-4.8,0-9,1.3-12.6,3.8
		C1099.5,303.8,1097.3,307.5,1096.2,312.5 M1146.8,323.6H1096c0.6,4.8,2.7,8.7,6.4,11.5c3.6,2.8,8.3,4.3,14.1,4.3
		c3.2,0,6.6-0.6,10-1.7c3.5-1.1,6.2-2.8,8.1-5l8.5,8.3c-1.6,1.8-3.5,3.3-5.6,4.7c-2.1,1.4-4.3,2.5-6.7,3.4c-2.3,0.9-4.8,1.5-7.3,2
		c-2.5,0.4-5,0.6-7.4,0.6c-5.2,0-9.8-0.8-14-2.3c-4.2-1.6-7.7-3.8-10.6-6.7c-2.9-2.9-5.2-6.4-6.8-10.5c-1.6-4.1-2.4-8.7-2.4-13.7
		c0-4.7,0.8-9.1,2.4-13.1c1.6-4,3.9-7.5,6.7-10.3c2.9-2.9,6.3-5.1,10.4-6.7c4-1.6,8.5-2.4,13.4-2.4c5.1,0,9.7,0.8,13.8,2.3
		c4.1,1.6,7.6,3.9,10.4,7.1c2.8,3.1,4.9,7.1,6.2,11.8C1147,311.7,1147.4,317.2,1146.8,323.6"/>
	<path class="st0" d="M1172.9,287.4l0.9,8.3c2.3-4,5.1-6.6,8.4-7.8c3.3-1.2,6.6-1.8,10-1.8c3,0,5.9,0.5,8.7,1.5c2.7,1,5,2.3,6.8,3.9
		l-6,11.4c-1.6-1.3-3.2-2.2-4.9-2.9c-1.7-0.6-3.7-0.9-6.2-0.9c-2.3,0-4.4,0.4-6.5,1.1c-2,0.7-3.8,1.8-5.3,3.2
		c-1.5,1.4-2.8,3.2-3.7,5.3c-0.9,2.2-1.4,4.7-1.4,7.6V350h-13.1v-62.6H1172.9z"/>
</g>
</svg>
