<?xml version="1.0" encoding="utf-8"?>
<!-- Generator: Adobe Illustrator 23.0.4, SVG Export Plug-In . SVG Version: 6.00 Build 0)  -->
<svg version="1.1" id="レイヤー_1" xmlns="http://www.w3.org/2000/svg" xmlns:xlink="http://www.w3.org/1999/xlink" x="0px"
	 y="0px" width="226.6px" height="157.7px" viewBox="0 0 226.6 157.7" style="enable-background:new 0 0 226.6 157.7;"
	 xml:space="preserve">
<style type="text/css">
	.st0{fill:#231815;}
	.st1{fill:#FFFFFF;stroke:#FFFFFF;stroke-width:1.5;stroke-linecap:round;stroke-linejoin:round;stroke-miterlimit:10;}
	.st2{fill:#FFFFFF;}
	.st3{fill:none;stroke:#FFFFFF;stroke-width:3;stroke-miterlimit:10;}
</style>
<g>
	<polygon class="st0" points="226.2,31.7 202.3,31.7 195.1,48 171.1,48 178.4,31.7 154.5,31.7 147.3,48 123.3,48 130.6,31.7 
		106.6,31.7 99.4,48 75.5,48 82.7,31.7 58.8,31.7 51.6,48 27.7,48 34.9,31.7 1.1,31.7 1.1,48 1.1,157.7 226.2,157.7 	"/>
	<g>
		<path class="st1" d="M18.9,70c0,0.3-0.5,1-1.4,2.4c-0.9,1.3-1.4,2.3-1.4,2.9c0,0.6-0.2,1.2-0.5,1.8c-0.4,0.6-0.7,1.7-1.1,3.1
			c-0.4,1.5-0.6,3.4-0.6,5.8c-0.1,2.4,0,4,0.2,4.7c0.2,0.7,0.5,1.3,1.1,1.8c0.9,0.6,2.1,0.8,3.7,0.6c1.6-0.2,2.9-0.8,3.9-1.8
			c1-0.9,1.7-1.3,2.3-1.3c0.6,0,3.4-2.6,8.6-7.7c4.9-4.9,8-7.3,9.1-7.3c0.6,0,0.9,0.5,1.1,1.4c0.2,0.8-0.8,2.3-3,4.6
			c-2.1,2.2-5.1,5-9,8.2c-4.5,3.6-8.3,6-11.5,7c-3.2,1.1-6,1-8.4-0.2c-1.4-0.8-2.3-1.7-2.7-2.7c-0.5-1-0.7-2.9-0.7-5.5
			c0-3.5,0.7-7.2,2.2-11.1c1.5-3.9,3.4-7.4,5.8-10.4c2.4-3.1,5-5.2,7.6-6.4c0.8-0.4,1.6-0.7,2.3-1.1c0.7-0.4,1.3-0.7,1.9-1
			c0.5-0.2,1.2-0.5,2-0.8c1.5-0.5,2.6-0.8,3.2-0.7c0.7,0,1.7,0.3,3.1,1c1.1,0.5,1.7,0.9,2,1.2c0.3,0.4,0.3,0.9,0.2,1.8
			c-0.2,1.2-0.8,1.9-1.8,2.2c-1.1,0.2-2-0.2-2.8-1.3c-0.6-0.7-1.1-1-1.5-1c-0.4,0.1-1.7,0.6-3.7,1.6c-1.9,1-4.1,2.5-6.5,4.5
			C20.1,67.9,18.9,69.3,18.9,70z"/>
		<path class="st2" d="M47.9,62.8c0-1.5,0.3-2.8,1-4.1c0.7-1.2,1.6-1.8,2.7-1.6c2,0.3,2.6,3.5,1.8,9.5l-1.7,13.3
			c-0.6,4.6-1,9.2-1.3,13.7c-0.1,1.9-0.2,3.1-0.4,3.5c-0.2,0.4-0.6,0.6-1.3,0.7c-1.7,0.3-2.7-0.2-3.1-1.3c-0.6-1.5-0.4-6.8,0.6-15.7
			c0.1-0.8,0.2-1.7,0.3-2.7C47.5,69.8,47.9,64.7,47.9,62.8z"/>
		<path class="st2" d="M66.9,71.2c1.6-0.1,2.9-0.2,4-0.5c1.1-0.3,1.7-0.5,2-0.8c0.3-0.3,0.6-0.4,1.1-0.4c0.4,0,1,0.2,1.7,0.6
			c0.3,0.2,0.5,0.2,0.5,0.3c0,0,0.2,0.3,0.4,0.7c0.2,0.4,0.3,0.9,0.2,1.5c-0.1,0.6-0.2,1.5-0.5,2.7c-0.3,1.2-0.7,2.7-1.2,4.4
			c-1.1,3.3-1.2,5.3-0.4,6.1c0.8,0.8,2.5,0.1,5-1.9c1.2-0.9,1.9-1.4,2.3-1.6c0.4-0.1,0.6,0.1,0.8,0.6c0.2,0.6-0.1,1.4-0.8,2.4
			c-0.7,1-1.1,1.6-1.1,1.9c0,0.5-0.7,1.2-2.1,2.2c-1.1,0.8-2.5,1.3-4.1,1.5c-1.6,0.2-2.7-0.1-3.4-0.8c-0.4-0.3-0.7-0.4-1.1-0.3
			c-0.4,0.1-0.9,0.5-1.7,1.3c-2.4,2.2-4.6,3.7-6.8,4.3c-2.1,0.6-3.7,0.3-4.7-0.9c-1.1-1.2-1.7-3.1-1.9-5.7c-0.2-2.5-0.1-4.9,0.3-7.1
			c0.4-2.2,1-3.6,1.6-4.2c0.6-0.6,0.8-1.2,0.8-2.1c0-1,1-1.9,2.9-2.9C63,71.8,64.9,71.3,66.9,71.2z M68.5,80.2
			c-0.1-2.3-0.3-3.7-0.6-4.3c-0.3-0.6-1-0.7-2-0.3c-2.3,0.8-4.3,3.1-5.9,6.7c-1.5,3.4-1.8,5.9-1,7.6c0.5,1,1.3,1.2,2.6,0.8
			c0.9-0.3,2.3-1.3,4.2-3.1l3-2.7L68.5,80.2z"/>
		<path class="st2" d="M89,70.8c0.4,0.3,0.8,0.4,1.2,0.3c0.5-0.1,0.8-0.3,1.1-0.5c0.3-0.2,0.9-0.5,1.9-0.7c0.9-0.3,2.1-0.4,3.4-0.4
			c1.6,0,2.8,0.1,3.5,0.4c0.7,0.3,1.5,0.8,2.3,1.7c1.3,1.3,2,2.3,2,3.1c0,1.5-1.2,3.7-3.7,6.5c-2.4,2.9-4.6,4.7-6.5,5.5l-2.2,1
			l-0.5,19h-4.9l-0.5-6.5c-0.2-1.7-0.4-4.7-0.6-8.8c-0.2-4.1-0.4-7.9-0.5-11.3c-0.2-3.4-0.3-5.4-0.5-6c-0.3-0.9,0.1-1.8,1.3-2.6
			C87.1,70.5,88.1,70.3,89,70.8z M98.5,74.4c-0.4-0.6-1.1-0.8-2.1-0.6c-1.1,0.1-2,0.5-2.8,1.2c-0.9,0.7-1.5,2-1.9,4
			c-0.4,1.9-0.3,3.1,0.3,3.5c0.6,0.4,1.4-0.1,2.6-1.3c1.2-1.2,2.2-2.5,3-4C98.4,75.6,98.7,74.7,98.5,74.4z"/>
		<path class="st2" d="M108.3,74.4c0.1-0.3-0.1-0.7-0.4-1.3c-0.3-0.6-0.5-1-0.5-1.2c0-0.3,0-0.5,0.2-0.6c0.7-0.6,1-1.7,1.1-3.3
			c0.1-1.7,0.5-2.8,1.4-3.3c1.2-0.8,2.3-1.2,3.4-1.2c1.1,0,1.9,0.4,2.5,1.2c0.4,0.4,0.6,1.1,0.7,2.1c0.1,1,0.2,1.6,0.4,1.7
			c10.1,1.1,14.9,4.5,14.4,10.2c-0.5,4.2-2.9,7.1-7.2,8.7c-3.8,1-7.5,2-11.3,3.1c-0.6,2.7-0.8,5-0.8,6.8c0,2.3,0.6,5.7,1.9,10
			c0.1,0.2,0.4,0.7,1,1.5c0.6,0.8,0.9,1.5,0.9,2c0,1.1-1,1.6-3.1,1.6c-1,0-1.9-0.2-2.7-0.5c-1.2-0.5-2.1-1.5-2.6-3.2
			c-0.3-0.8-0.5-2.4-0.8-4.8c-0.3-2.2-0.5-4.6-0.5-7c0-3.1,0.3-6.8,0.8-11.2C107.4,81.8,107.8,78.1,108.3,74.4z M116.4,74.8
			c-0.7,0.7-1.2,1.7-1.7,3.2c-0.5,1.5-0.7,2.8-0.7,3.9c0,1.2,0.3,1.9,0.8,2.2c0.5,0.2,1.1,0.3,1.9,0.3c1.7,0,3.3-0.6,4.8-1.7
			c1.6-1.1,2.5-2.7,2.7-4.6c0.3-1.7-0.6-2.8-2.6-3.3c-1.1-0.5-2.1-0.7-3.1-0.7C117.5,74.1,116.8,74.3,116.4,74.8z"/>
		<path class="st2" d="M139.2,70.5c1-0.7,2.6-1,4.7-0.9c2.1,0.1,3.9,0.6,5.2,1.5c0.7,0.5,1.2,0.9,1.4,1.5c0.2,0.5,0.3,1.3,0.3,2.4
			c0,1.5-0.4,2.8-1.1,4c-0.8,1.2-1.7,2.1-2.8,2.9c-1.1,0.7-2.3,1.4-3.4,2c-1.1,0.6-2.1,1.2-2.9,1.8c-0.8,0.6-1.3,1.2-1.4,1.7
			c-0.2,1,0.2,1.7,0.9,2.3c0.8,0.6,1.7,0.7,2.7,0.5c1.2-0.3,2.8-1.2,4.8-3c2-1.7,3.3-3.3,3.9-4.6c0.5-0.9,1-1.6,1.6-1.9
			c0.6-0.4,1.1-0.4,1.6-0.2c0.5,0.3,0.7,0.9,0.8,1.7c0.2,1.3-0.5,3-2,5c-1.5,2-3.1,3.5-4.9,4.4c-2.1,1-4.1,1.7-6.1,1.9
			c-2,0.3-3.6,0.1-4.9-0.4c-1.3-0.5-2.2-1.2-2.7-2.1c-0.5-0.9-0.7-2.3-0.7-4c0-1.8-0.4-3-1.1-3.5c-1.4-1.2-1.3-2.3,0.1-3.5
			c0.5-0.4,1.4-1.9,2.7-4.5C137.3,72.8,138.3,71.2,139.2,70.5z M145.2,75.3c-0.3-1.5-1.1-1.9-2.3-1.4c-1.4,0.7-2.4,2.1-2.8,4.2
			c0,0.1,0,0.1-0.1,0.2c-0.3,1.5-0.1,2.2,0.5,2.2c0.8,0,1.8-0.7,3-2.1C144.8,77.1,145.3,76.1,145.2,75.3z"/>
		<path class="st2" d="M158.1,65.5c1.2-0.9,2.3-1.1,3.1-0.5c0.8,0.6,1.3,1.7,1.3,3.5c0,1.6,0.2,2.4,0.7,2.6c0.5,0.1,1.2-0.5,2.2-1.8
			c1.2-1.5,2.8-2.5,4.9-3.1c1.4-0.4,2.4-0.6,3.1-0.6c0.7,0,1.6,0.3,2.7,0.9c1.1,0.5,1.8,1,2.2,1.4c0.4,0.4,0.6,0.9,0.6,1.6
			c0,1.1-0.5,1.7-1.6,2c-1,0.3-2-0.1-2.9-0.9c-0.9-0.8-1.8-1.1-2.7-0.8c-1.8,0.6-3.7,2.9-5.7,7c-1.9,4-2.9,7.7-2.9,11
			c0,2.2-0.3,3.9-1,5.1s-1.6,1.6-2.9,1.5l-1.8-0.2l-0.2-13.9c-0.1-6.2-0.1-10.1,0-11.7C157.3,66.9,157.6,65.9,158.1,65.5z"/>
		<path class="st2" d="M186.2,68.4c1.2-0.7,2.2-1.2,3.1-1.3c0.9-0.2,2.3-0.2,4.2-0.2l4.5,0.2v2.8c0,1.2-0.1,2-0.3,2.3
			c-0.2,0.3-0.7,0.5-1.4,0.6c-1.2,0.2-2.1-0.3-2.8-1.2c-0.5-0.7-0.9-1.1-1.2-1.1c-0.3-0.1-0.9,0.2-1.8,0.6c-0.7,0.4-1.5,0.9-2.2,1.6
			c-0.8,0.7-1.3,1.4-1.7,2.1c-0.4,0.6-0.4,1-0.2,1.2c0.4,0.3,3,0.6,7.7,1.1c4.1,0.4,6.7,0.9,8,1.6c1.2,0.7,1.7,1.8,1.3,3.3
			c-0.3,1.3-1.2,2.9-2.6,4.6c-1.5,1.7-3.3,3.4-5.5,5.1c-1.8,1.4-3.1,2.2-3.8,2.5c-0.8,0.3-2.1,0.4-4,0.3l-4-0.2l-0.2-2.4
			c-0.1-1,0-1.7,0.2-2.3c0.2-0.6,0.6-1.2,1.3-1.8c1.2-1.1,2.1-1.5,2.9-1.2c0.8,0.3,1,1.1,0.6,2.6c-0.3,1.4-0.3,2.1,0.1,2.1
			c0.4,0,1.5-0.8,3.6-2.4c2-1.6,3.4-2.9,4.2-3.9c1.2-1.3,1.7-2.2,1.5-2.7c-0.2-0.5-1.1-0.8-2.8-0.8c-2.2,0-4.8-0.3-7.6-1
			c-2.9-0.7-4.7-1.4-5.4-2c-0.9-0.9-1.4-1.7-1.4-2.4c0-1,0.6-2.2,1.8-3.7C183.4,70.5,184.8,69.3,186.2,68.4z"/>
	</g>
	<g>
		<g>
			<path class="st2" d="M19.6,121h7.7c1.9,0,3.6,0.2,5.2,0.6s3,1.1,4.1,2c1.1,0.9,2,2.2,2.5,3.6c0.5,1.5,0.6,3.3,0.3,5.4
				c-0.3,1.9-0.9,3.6-1.8,5c-0.9,1.4-2,2.7-3.4,3.6c-1.3,1-2.8,1.7-4.5,2.2c-1.7,0.5-3.4,0.8-5.1,0.8h-8.4L19.6,121z M22.2,139.6
				h2.7c1.2,0,2.3-0.1,3.4-0.4c1.1-0.2,2-0.6,2.8-1.2c0.8-0.6,1.5-1.3,2.1-2.2c0.5-0.9,0.9-2,1.1-3.3c0.2-1.1,0.1-2.1-0.2-3
				c-0.3-0.8-0.8-1.5-1.4-2.1c-0.7-0.5-1.5-1-2.4-1.2c-0.9-0.3-1.9-0.4-3-0.4h-3L22.2,139.6z"/>
			<path class="st2" d="M44.6,121h5.1l-3.3,23.4h-5.1L44.6,121z"/>
			<path class="st2" d="M54.5,121h7l7.7,16.2h0.1l2.3-16.2h5.1l-3.3,23.4h-6.7l-7.9-16.6h-0.1l-2.3,16.6h-5.1L54.5,121z"/>
			<path class="st2" d="M81.6,121h15.9l-0.7,4.8H86l-0.6,4.4h10.1l-0.7,4.8H84.8l-0.7,4.8h11.3l-0.7,4.8H78.3L81.6,121z"/>
			<path class="st2" d="M102.1,121h9c1.2,0,2.3,0.1,3.3,0.3c1,0.2,1.9,0.6,2.6,1.2c0.7,0.5,1.3,1.3,1.6,2.2c0.4,0.9,0.4,2.1,0.2,3.4
				c-0.2,1.6-0.9,3.1-1.9,4.2c-1,1.2-2.4,1.9-4.1,2.2l4.6,9.9h-6.2l-3.6-9.3h-2.5l-1.3,9.3h-5.1L102.1,121z M105.9,130.7h3
				c0.5,0,1,0,1.5,0c0.5,0,1-0.1,1.4-0.3c0.4-0.2,0.8-0.4,1.2-0.8c0.3-0.4,0.5-0.8,0.6-1.5c0.1-0.6,0-1.1-0.2-1.4
				c-0.2-0.4-0.5-0.6-0.8-0.8c-0.4-0.2-0.8-0.3-1.2-0.4c-0.5-0.1-0.9-0.1-1.4-0.1h-3.4L105.9,130.7z"/>
		</g>
	</g>
	<line class="st3" x1="1.1" y1="106.6" x2="226.6" y2="106.6"/>
	<line class="st3" x1="134.3" y1="106.6" x2="134.3" y2="157.7"/>
	<g>
		<polygon class="st0" points="74.2,10.3 50.4,12 58.7,27.8 82.5,26.1 		"/>
		<polygon class="st0" points="121.9,7.1 98.1,8.7 106.4,24.5 130.3,22.8 		"/>
		<polygon class="st0" points="169.6,3.8 145.8,5.4 154.1,21.2 178,19.6 		"/>
		<polygon class="st0" points="224.5,0 193.5,2.1 201.8,17.9 225.7,16.3 		"/>
		<polygon class="st0" points="26.5,13.6 0,15.4 1.1,31.7 34.8,29.4 		"/>
	</g>
	<g>
		<path class="st2" d="M148.5,129.9c1.6-0.3,2.5-0.5,2.9-0.5c0.3,0,0.6,0,0.7,0.2c0.2,0.2,0.3,0.4,0.3,0.8c0,0.2-0.1,0.4-0.3,0.5
			c-0.2,0.1-0.7,0.2-1.4,0.3l-1.7,0.3l0.2,2.6c0.1,1.7,0.3,3,0.3,3.9l0.2,1.3l2.4-0.4c1.6-0.3,2.5-0.4,2.7-0.3
			c0.2,0.1,0.1,0.4-0.2,0.9l-0.5,0.8l-4.2,0.7l0,0.7c0,0.4-0.2,0.7-0.5,0.8c-0.3,0.1-0.6,0-0.9-0.4c-0.2-0.2-0.3-0.3-0.5-0.4
			c-0.1,0-0.3,0-0.6,0c-1,0.3-1.6,0.5-1.9,0.5c-0.2,0-0.4-0.1-0.6-0.3c-0.2-0.3-0.2-0.6-0.1-0.9c0.1-0.3,0.3-0.5,0.7-0.5
			c0.2,0,0.7-0.2,1.5-0.6c0.8-0.4,1.2-0.6,1.3-0.7c0.1-0.1,0-1.2-0.2-3.5c-0.2-1.9-0.3-3.1-0.5-3.4c-0.2-0.4-0.5-0.5-1.1-0.4
			c-0.2,0-0.6,0.1-1.2,0.3c-1,0.3-1.7,0.4-2,0.3c-0.4-0.1-0.6-0.3-0.6-0.7c0-0.3,0.1-0.6,0.5-0.8
			C143.7,130.8,145.5,130.4,148.5,129.9z"/>
		<path class="st2" d="M154.7,130c0-0.2,0.2-0.3,0.5-0.3c0.3,0,0.5,0,0.7,0.2c0.1,0.1,0.3,0.6,0.4,1.3c0.1,0.7,0.2,1.4,0.3,2
			c0.1,0.6,0.2,0.9,0.3,0.9c0.2,0,0.6-0.2,1.1-0.6c0.5-0.4,1-0.8,1.5-1.3c0.4-0.4,0.6-0.6,0.8-0.6c0.1,0,0.3,0,0.5,0.2
			c0.3,0.2,0.5,0.6,0.5,1c0,0.3,0,0.5-0.1,0.6c-0.1,0.1-0.2,0.2-0.3,0.2c-0.1,0-0.3,0.1-0.6,0.2c-0.3,0.1-0.5,0.3-0.7,0.5
			c-0.4,0.3-0.6,0.5-0.7,0.5c-0.1,0-0.3,0.2-0.6,0.5c0,0,0,0.1-0.1,0.1c0,0.1-0.1,0.1-0.1,0.1c0,0,0,0.1,0,0.1c0,0.1,0,0.1,0,0.1
			c0,0,0,0.1,0,0.2c0,0.1,0.1,0.2,0.1,0.2c0.1,0.1,0.1,0.2,0.2,0.3c0.1,0.1,0.2,0.2,0.3,0.4c0.1,0.1,0.3,0.3,0.5,0.4
			c0.2,0.2,0.4,0.3,0.6,0.5c1.2,1,1.6,1.7,1.4,2.1c-0.2,0.5-1,0.1-2.5-1.1c-0.9-0.8-1.5-1.1-1.6-1c-0.2,0.1-0.2,0.6-0.1,1.4
			c0.1,0.5,0.1,0.8,0,1c0,0.2-0.2,0.3-0.4,0.5c-0.3,0.2-0.6,0.2-0.9,0.1c-0.1,0-0.1-0.1-0.2-0.1c0,0-0.1-0.1-0.1-0.1
			c0-0.1-0.1-0.1-0.1-0.2c0-0.1,0-0.2,0-0.3c0-0.1,0-0.3,0-0.5c0-0.2,0-0.4,0-0.6c0-0.2,0-0.5-0.1-0.8c0-0.3,0-0.7-0.1-1.1
			c0-0.4-0.1-0.8-0.1-1.4c-0.1-0.5-0.1-1.1-0.1-1.7C154.8,131.5,154.7,130.2,154.7,130z"/>
		<path class="st2" d="M164,132.6c0.3-0.3,0.8-0.4,1.4-0.5c0.7,0,1.2,0,1.7,0.3c0.2,0.1,0.4,0.2,0.5,0.4c0.1,0.2,0.2,0.4,0.2,0.7
			c0.1,0.5,0,0.9-0.2,1.3c-0.2,0.4-0.4,0.7-0.8,1c-0.3,0.3-0.6,0.5-1,0.8c-0.3,0.2-0.6,0.4-0.8,0.7c-0.2,0.2-0.4,0.4-0.4,0.6
			c0,0.3,0.1,0.5,0.4,0.7c0.3,0.1,0.5,0.2,0.9,0c0.4-0.1,0.8-0.5,1.4-1.1c0.5-0.6,0.9-1.1,1-1.6c0.1-0.3,0.2-0.5,0.4-0.7
			c0.2-0.1,0.3-0.2,0.5-0.1c0.2,0.1,0.3,0.2,0.3,0.5c0.1,0.4,0,1-0.4,1.6c-0.4,0.7-0.8,1.2-1.4,1.6c-0.6,0.4-1.2,0.7-1.8,0.8
			c-0.6,0.2-1.1,0.2-1.6,0.1c-0.4-0.1-0.7-0.3-0.9-0.6c-0.2-0.3-0.3-0.7-0.4-1.2c-0.1-0.6-0.2-0.9-0.5-1.1c-0.5-0.3-0.5-0.7-0.1-1.1
			c0.1-0.1,0.4-0.6,0.7-1.5C163.5,133.4,163.7,132.9,164,132.6z M166.1,133.9c-0.2-0.4-0.4-0.6-0.8-0.3c-0.4,0.3-0.7,0.8-0.7,1.4
			c0,0,0,0,0,0.1c0,0.5,0.1,0.7,0.3,0.7c0.2,0,0.5-0.3,0.8-0.8C166,134.5,166.1,134.1,166.1,133.9z"/>
		<path class="st2" d="M169.2,127.1c0.1-0.2,0.2-0.3,0.3-0.3c0.1,0,0.3,0,0.5,0.1c0.2,0.1,0.3,0.3,0.4,0.6c0.1,0.3,0.2,1.1,0.3,2.3
			c0.2,1.8,0.4,2.7,0.5,2.8c0.1,0.1,0.5-0.1,1-0.5c0.5-0.3,1.1-0.5,1.9-0.7c0.8-0.1,1.4-0.1,1.8,0.1c0.4,0.2,0.8,0.4,1.2,0.7
			l0.6,0.5l-0.4,1.1c-0.2,0.6-0.7,1.3-1.3,2c-0.7,0.7-1.4,1.3-2.1,1.7c-0.7,0.4-1.2,0.6-1.3,0.8c-0.2,0.2-0.3,0.3-0.3,0.6
			c0,0.5-0.2,0.9-0.6,1.1c-0.4,0.2-0.7,0.2-1-0.1c-0.2-0.2-0.6-2.3-1.1-6.4C169.3,129.5,169.1,127.3,169.2,127.1z M175.7,132.7
			c-0.4-0.2-0.9-0.2-1.4,0c-0.5,0.2-1,0.5-1.4,0.8c-0.4,0.3-0.6,0.7-0.7,0.9c-0.1,0.3-0.3,0.6-0.4,0.8c-0.1,0.2-0.2,0.5-0.1,1
			c0.1,0.5,0.2,0.8,0.3,0.8c0.4,0.2,1.1-0.1,2.1-0.9c1-0.8,1.6-1.6,1.8-2.3c0.1-0.4,0.2-0.6,0.2-0.7
			C176,132.9,175.9,132.8,175.7,132.7z"/>
		<path class="st2" d="M178.9,130.3c0.1-0.2,0.3-0.3,0.4-0.4c0.1,0,0.3,0.1,0.6,0.2c0.2,0.1,0.3,0.3,0.4,0.5c0,0.2,0.1,0.7,0,1.5
			c0,1,0,1.9,0.1,2.6c0.1,0.7,0.2,1.1,0.3,1.2c0.1,0.1,0.3-0.1,0.6-0.4c0.3-0.4,0.6-1.2,1.1-2.4c0.4-1.2,0.6-2,0.6-2.3
			c0-0.3,0-0.4,0.1-0.6c0.1-0.1,0.4-0.2,0.8-0.3l0.5-0.1l0.2,2.5c0.2,1.7,0.3,2.5,0.6,2.5c0.1,0,0.2-0.2,0.4-0.5
			c0.2-0.3,0.4-0.5,0.7-0.4c0.2,0.1,0.3,0.3,0.3,0.7c0,0.4-0.1,0.8-0.3,1.3c-0.2,0.3-0.4,0.6-0.9,0.7c-0.4,0.2-0.8,0.2-1.2,0.1
			c-0.4-0.1-0.6-0.3-0.6-0.6c-0.1-0.9-0.6-0.8-1.4,0.2c-0.5,0.7-1.1,1.1-1.7,1.3c-0.2,0.1-0.4,0.1-0.5,0.1c-0.1,0-0.3,0-0.4,0
			c-0.1,0-0.2-0.1-0.3-0.1c-0.1-0.1-0.1-0.2-0.2-0.3c-0.1-0.1-0.1-0.3-0.2-0.5c0-0.2-0.1-0.4-0.1-0.7c0-0.3,0-0.6-0.1-1
			c0-0.3,0-0.8,0-1.3c0-0.3,0-0.6,0-0.9c0-0.4,0-0.6,0-0.8c0-0.2,0-0.4,0-0.6c0-0.2,0-0.4,0-0.5c0-0.1,0-0.2,0-0.4
			c0-0.1,0-0.2,0.1-0.3C178.8,130.4,178.8,130.4,178.9,130.3z"/>
		<path class="st2" d="M186.6,126c0-0.2,0.2-0.3,0.5-0.3c0.3,0,0.5,0,0.7,0.2c0.1,0.1,0.3,0.6,0.4,1.3c0.1,0.7,0.2,1.4,0.3,2
			c0.1,0.6,0.2,0.9,0.3,0.9c0.2,0,0.6-0.2,1.1-0.6c0.5-0.4,1-0.8,1.5-1.3c0.4-0.4,0.6-0.6,0.8-0.6c0.1,0,0.3,0,0.5,0.2
			c0.3,0.2,0.5,0.6,0.5,1c0,0.3,0,0.5-0.1,0.6c-0.1,0.1-0.2,0.2-0.3,0.2c-0.1,0-0.3,0.1-0.6,0.2c-0.3,0.1-0.5,0.3-0.7,0.5
			c-0.4,0.3-0.6,0.5-0.7,0.5c-0.1,0-0.3,0.2-0.6,0.5c0,0,0,0.1-0.1,0.1c0,0.1-0.1,0.1-0.1,0.1c0,0,0,0.1,0,0.1c0,0.1,0,0.1,0,0.1
			c0,0,0,0.1,0,0.2c0,0.1,0.1,0.2,0.1,0.2c0.1,0.1,0.1,0.2,0.2,0.3c0.1,0.1,0.2,0.2,0.3,0.4c0.1,0.1,0.3,0.3,0.5,0.4
			c0.2,0.2,0.4,0.3,0.6,0.5c1.2,1,1.6,1.7,1.4,2.1c-0.2,0.5-1,0.1-2.5-1.1c-0.9-0.8-1.5-1.1-1.6-1c-0.2,0.1-0.2,0.6-0.1,1.4
			c0.1,0.5,0.1,0.8,0,1c0,0.2-0.2,0.3-0.4,0.5c-0.3,0.2-0.6,0.2-0.9,0.1c-0.1,0-0.1-0.1-0.2-0.1c0,0-0.1-0.1-0.1-0.1
			c0-0.1-0.1-0.1-0.1-0.2c0-0.1,0-0.2,0-0.3c0-0.1,0-0.3,0-0.5c0-0.2,0-0.4,0-0.6c0-0.2,0-0.5-0.1-0.8c0-0.3,0-0.7-0.1-1.1
			c0-0.4-0.1-0.8-0.1-1.4c-0.1-0.5-0.1-1.1-0.1-1.7C186.6,127.5,186.5,126.2,186.6,126z"/>
		<path class="st2" d="M194.4,128.4c0.1-0.2,0.3-0.3,0.4-0.4c0.1,0,0.3,0.1,0.6,0.2c0.2,0.1,0.3,0.3,0.4,0.5c0,0.2,0.1,0.7,0,1.5
			c0,1,0,1.9,0.1,2.6c0.1,0.7,0.2,1.1,0.3,1.2c0.1,0.1,0.3-0.1,0.6-0.4c0.3-0.4,0.6-1.2,1.1-2.4c0.4-1.2,0.6-2,0.6-2.3
			c0-0.3,0-0.4,0.1-0.6c0.1-0.1,0.4-0.2,0.8-0.3l0.5-0.1l0.2,2.5c0.2,1.7,0.3,2.5,0.6,2.5c0.1,0,0.2-0.2,0.4-0.5
			c0.2-0.3,0.4-0.5,0.7-0.4c0.2,0.1,0.3,0.3,0.3,0.7c0,0.4-0.1,0.8-0.3,1.3c-0.2,0.3-0.4,0.6-0.9,0.7c-0.4,0.2-0.8,0.2-1.2,0.1
			c-0.4-0.1-0.6-0.3-0.6-0.6c-0.1-0.9-0.6-0.8-1.4,0.2c-0.5,0.7-1.1,1.1-1.7,1.3c-0.2,0.1-0.4,0.1-0.5,0.1c-0.1,0-0.3,0-0.4,0
			c-0.1,0-0.2-0.1-0.3-0.1c-0.1-0.1-0.1-0.2-0.2-0.3c-0.1-0.1-0.1-0.3-0.2-0.5c0-0.2-0.1-0.4-0.1-0.7c0-0.3,0-0.6-0.1-1
			c0-0.3,0-0.8,0-1.3c0-0.3,0-0.6,0-0.9c0-0.4,0-0.6,0-0.8c0-0.2,0-0.4,0-0.6c0-0.2,0-0.4,0-0.5c0-0.1,0-0.2,0-0.4
			c0-0.1,0-0.2,0.1-0.3C194.4,128.5,194.4,128.4,194.4,128.4z"/>
		<path class="st2" d="M202.2,126.2c0.3-0.3,0.7-0.4,0.9-0.3c0.3,0.2,0.5,0.5,0.5,1c0.1,0.5,0.2,0.7,0.3,0.8c0.1,0,0.4-0.2,0.6-0.6
			c0.3-0.5,0.8-0.9,1.4-1.1c0.4-0.2,0.7-0.3,0.9-0.3c0.2,0,0.5,0,0.9,0.2c0.4,0.1,0.6,0.2,0.7,0.3c0.1,0.1,0.2,0.3,0.2,0.5
			c0,0.3-0.1,0.6-0.4,0.7c-0.3,0.1-0.6,0.1-1-0.2c-0.3-0.2-0.6-0.3-0.9-0.1c-0.5,0.3-1,1.1-1.5,2.4c-0.4,1.3-0.6,2.5-0.5,3.6
			c0.1,0.7,0,1.2-0.1,1.6c-0.2,0.4-0.4,0.6-0.8,0.6h-0.6l-0.6-4.3c-0.3-1.9-0.4-3.2-0.4-3.7C202,126.7,202.1,126.4,202.2,126.2z"/>
		<path class="st2" d="M212.1,125.1c1.3-0.3,2.3-0.4,2.9-0.3c0.6,0.1,1,0.4,1.3,0.9c0.2,0.4,0.3,0.8,0.4,1.3c0,0.5,0,1-0.1,1.3
			c-0.2,0.4-0.6,1.1-1.3,1.9c-0.7,0.8-1.2,1.3-1.5,1.3c-0.2,0-0.6,0.2-1.1,0.5c-0.5,0.3-1,0.4-1.3,0.3c-0.5-0.2-0.9-0.6-1.2-1.1
			c-0.3-0.6-0.4-1.3-0.3-2c0.1-0.8,0.3-1.5,0.7-2.1c0.2-0.3,0.3-0.6,0.4-0.9c0.1-0.3,0.2-0.5,0.2-0.6c0-0.1,0.1-0.2,0.3-0.3
			C211.5,125.3,211.8,125.2,212.1,125.1z M215.2,126.5c-0.3-0.2-0.5-0.3-0.6-0.3c-0.1,0-0.3,0.2-0.5,0.6c-0.2,0.3-0.3,0.4-0.4,0.5
			c-0.1,0-0.3,0-0.5-0.1c-0.4-0.2-0.8-0.2-1-0.1c-0.2,0.1-0.4,0.5-0.6,1c-0.2,0.7-0.3,1.2-0.2,1.5c0,0.4,0.2,0.7,0.5,0.9
			c0.2,0.2,0.4,0.3,0.5,0.3c0.1,0,0.3-0.1,0.7-0.3c0.4-0.2,0.8-0.6,1.3-1.3c0.5-0.7,0.9-1.3,1.1-1.8c0.1-0.3,0.1-0.4,0.1-0.5
			C215.5,126.9,215.4,126.7,215.2,126.5z"/>
	</g>
</g>
</svg>
