<?xml version="1.0" encoding="utf-8"?>
<!-- Generator: Adobe Illustrator 22.1.0, SVG Export Plug-In . SVG Version: 6.00 Build 0)  -->
<!DOCTYPE svg PUBLIC "-//W3C//DTD SVG 1.1//EN" "http://www.w3.org/Graphics/SVG/1.1/DTD/svg11.dtd" [
	<!ENTITY st0 "fill:url(#SVGID_1_);">
	<!ENTITY st1 "fill:url(#SVGID_2_);">
	<!ENTITY st2 "fill:url(#SVGID_3_);">
	<!ENTITY st3 "fill:url(#SVGID_4_);">
	<!ENTITY st4 "fill:url(#SVGID_5_);">
	<!ENTITY st5 "fill:url(#SVGID_6_);">
	<!ENTITY st6 "fill:url(#SVGID_7_);">
	<!ENTITY st7 "fill:url(#SVGID_8_);">
	<!ENTITY st8 "fill:url(#SVGID_9_);">
	<!ENTITY st9 "fill:url(#SVGID_10_);">
	<!ENTITY st10 "fill:url(#SVGID_11_);">
	<!ENTITY st11 "fill:url(#SVGID_12_);">
	<!ENTITY st12 "fill:url(#SVGID_13_);">
	<!ENTITY st13 "fill:url(#SVGID_14_);">
	<!ENTITY st14 "fill:none;">
	<!ENTITY st15 "fill:url(#SVGID_15_);">
	<!ENTITY st16 "fill:url(#SVGID_16_);">
	<!ENTITY st17 "fill:url(#SVGID_17_);">
	<!ENTITY st18 "fill:url(#SVGID_18_);">
	<!ENTITY st19 "fill:url(#SVGID_19_);">
	<!ENTITY st20 "fill:url(#SVGID_20_);">
	<!ENTITY st21 "fill:url(#SVGID_21_);">
	<!ENTITY st22 "fill:url(#SVGID_22_);">
	<!ENTITY st23 "fill:url(#SVGID_23_);">
	<!ENTITY st24 "fill:url(#SVGID_24_);">
	<!ENTITY st25 "fill:url(#SVGID_25_);">
	<!ENTITY st26 "fill:url(#SVGID_26_);">
	<!ENTITY st27 "fill:url(#SVGID_27_);">
	<!ENTITY st28 "fill:url(#SVGID_28_);">
]>
<svg version="1.1" id="_x31_03_x2A_147" xmlns="http://www.w3.org/2000/svg" xmlns:xlink="http://www.w3.org/1999/xlink" x="0px"
	 y="0px" width="232px" height="36.9px" viewBox="0 0 232 36.9" style="enable-background:new 0 0 232 36.9;" xml:space="preserve">
<g>
	<g>
		<g>
			<g>
				<g>
					<linearGradient id="SVGID_1_" gradientUnits="userSpaceOnUse" x1="8.1701" y1="18.4204" x2="143.773" y2="33.6056">
						<stop  offset="0" style="stop-color:#949495"/>
						<stop  offset="0.3476" style="stop-color:#D9D9D9"/>
						<stop  offset="0.5112" style="stop-color:#CCCCCC"/>
						<stop  offset="0.6847" style="stop-color:#BFBFBF"/>
						<stop  offset="0.7192" style="stop-color:#D9D9D9"/>
						<stop  offset="1" style="stop-color:#949495"/>
					</linearGradient>
					<path style="&st0;" d="M8.6,13.8c-1.7,0-3.1,0.4-4.1,1.2c-1,0.8-1.5,1.9-1.5,3.4c0,1.6,0.5,2.8,1.6,3.5c1,0.7,2.3,1.1,3.9,1.1
						v3c-0.1,0-0.3,0-0.5,0.1c-0.2,0-0.4,0-0.6,0c-1.9,0-3.6-0.7-5.1-2C0.8,22.5,0,20.7,0,18.4c0-2.3,0.7-4.2,2.2-5.5
						c1.5-1.4,3.2-2.1,5.2-2.1c0.3,0,0.5,0,0.7,0c0.2,0,0.3,0,0.5,0V13.8z"/>
					<linearGradient id="SVGID_2_" gradientUnits="userSpaceOnUse" x1="8.2189" y1="17.993" x2="143.8377" y2="33.18">
						<stop  offset="0" style="stop-color:#949495"/>
						<stop  offset="0.3476" style="stop-color:#D9D9D9"/>
						<stop  offset="0.5112" style="stop-color:#CCCCCC"/>
						<stop  offset="0.6847" style="stop-color:#BFBFBF"/>
						<stop  offset="0.7192" style="stop-color:#D9D9D9"/>
						<stop  offset="1" style="stop-color:#949495"/>
					</linearGradient>
					<path style="&st1;" d="M13.6,25.9h-3v-15h3V25.9z"/>
					<linearGradient id="SVGID_3_" gradientUnits="userSpaceOnUse" x1="8.3324" y1="16.9622" x2="143.9736" y2="32.1517">
						<stop  offset="0" style="stop-color:#949495"/>
						<stop  offset="0.3476" style="stop-color:#D9D9D9"/>
						<stop  offset="0.5112" style="stop-color:#CCCCCC"/>
						<stop  offset="0.6847" style="stop-color:#BFBFBF"/>
						<stop  offset="0.7192" style="stop-color:#D9D9D9"/>
						<stop  offset="1" style="stop-color:#949495"/>
					</linearGradient>
					<path style="&st2;" d="M26,24c0,0.6-0.2,1.1-0.6,1.5c-0.4,0.4-0.9,0.6-1.3,0.6c-0.3,0-0.7-0.1-1-0.3c-0.3-0.2-0.6-0.5-0.7-0.9
						l-3.7-9.4l-0.2,0v10.3h-2.6v-13c0-0.6,0.2-1.1,0.5-1.5c0.3-0.4,0.8-0.7,1.3-0.7c0.3,0,0.7,0.1,1,0.4c0.3,0.2,0.6,0.5,0.8,0.9
						l3.8,9.3h0.2V10.9H26V24z"/>
					<linearGradient id="SVGID_4_" gradientUnits="userSpaceOnUse" x1="8.48" y1="15.6282" x2="144.1297" y2="30.8186">
						<stop  offset="0" style="stop-color:#949495"/>
						<stop  offset="0.3476" style="stop-color:#D9D9D9"/>
						<stop  offset="0.5112" style="stop-color:#CCCCCC"/>
						<stop  offset="0.6847" style="stop-color:#BFBFBF"/>
						<stop  offset="0.7192" style="stop-color:#D9D9D9"/>
						<stop  offset="1" style="stop-color:#949495"/>
					</linearGradient>
					<path style="&st3;" d="M35.3,25.9h-4.9c-0.6,0-1.2-0.2-1.6-0.7c-0.4-0.5-0.6-1.1-0.6-1.7v-10c0-0.8,0.2-1.4,0.5-1.9
						c0.3-0.5,0.8-0.8,1.3-0.8h5.2v3h-4.2v2.7h4v2.9h-4v3.4h4.2V25.9z"/>
					<linearGradient id="SVGID_5_" gradientUnits="userSpaceOnUse" x1="8.6065" y1="14.5155" x2="144.2432" y2="29.7045">
						<stop  offset="0" style="stop-color:#949495"/>
						<stop  offset="0.3476" style="stop-color:#D9D9D9"/>
						<stop  offset="0.5112" style="stop-color:#CCCCCC"/>
						<stop  offset="0.6847" style="stop-color:#BFBFBF"/>
						<stop  offset="0.7192" style="stop-color:#D9D9D9"/>
						<stop  offset="1" style="stop-color:#949495"/>
					</linearGradient>
					<path style="&st4;" d="M48.9,25.9h-2.2l0-10.7l-2,9.1c-0.1,0.5-0.3,0.9-0.5,1.2C44,25.8,43.7,26,43.3,26c-0.4,0-0.8-0.2-1-0.5
						c-0.2-0.3-0.4-0.7-0.5-1.3l-2.2-8.8l0,10.5h-2.3v-13c0-0.6,0.2-1.1,0.5-1.5c0.4-0.4,0.8-0.6,1.3-0.6c0.5,0,0.8,0.1,1.1,0.4
						c0.3,0.3,0.5,0.7,0.6,1.2l2.3,9.7l2.1-10.2c0.1-0.3,0.3-0.6,0.6-0.9c0.3-0.2,0.7-0.4,1-0.4c0.4,0,0.8,0.2,1.3,0.6
						c0.5,0.4,0.7,0.9,0.7,1.7V25.9z"/>
					<linearGradient id="SVGID_6_" gradientUnits="userSpaceOnUse" x1="8.7415" y1="13.3273" x2="144.3702" y2="28.5154">
						<stop  offset="0" style="stop-color:#949495"/>
						<stop  offset="0.3476" style="stop-color:#D9D9D9"/>
						<stop  offset="0.5112" style="stop-color:#CCCCCC"/>
						<stop  offset="0.6847" style="stop-color:#BFBFBF"/>
						<stop  offset="0.7192" style="stop-color:#D9D9D9"/>
						<stop  offset="1" style="stop-color:#949495"/>
					</linearGradient>
					<path style="&st5;" d="M54.3,20.6l1.3-6.5l1.2,6.5H54.3z M57.8,12.7c-0.2-0.6-0.5-1.1-0.9-1.5c-0.4-0.4-0.9-0.6-1.4-0.6
						c-0.5,0-0.9,0.2-1.2,0.6c-0.3,0.4-0.6,0.8-0.7,1.3l-3.7,13.4h3l0.8-2.9h4l0.7,2.9h3L57.8,12.7z"/>
				</g>
				<g>
					<linearGradient id="SVGID_7_" gradientUnits="userSpaceOnUse" x1="8.9768" y1="11.1902" x2="144.6139" y2="26.3793">
						<stop  offset="0" style="stop-color:#949495"/>
						<stop  offset="0.3476" style="stop-color:#D9D9D9"/>
						<stop  offset="0.5112" style="stop-color:#CCCCCC"/>
						<stop  offset="0.6847" style="stop-color:#BFBFBF"/>
						<stop  offset="0.7192" style="stop-color:#D9D9D9"/>
						<stop  offset="1" style="stop-color:#949495"/>
					</linearGradient>
					<path style="&st6;" d="M76,14.6c-0.5-0.4-0.9-0.6-1.4-0.8c-0.5-0.2-1-0.3-1.5-0.3c-0.5,0-0.9,0.1-1.3,0.5
						c-0.4,0.3-0.6,0.7-0.6,1.2c0,0.8,0.6,1.4,1.8,1.8c1.2,0.5,2.1,0.9,2.6,1.4c0.6,0.5,0.9,1.5,0.9,3.2c0,1.5-0.4,2.6-1.3,3.3
						c-0.8,0.7-1.9,1.1-3.1,1.1c-0.6,0-1.1-0.1-1.7-0.2c-0.6-0.1-1.1-0.3-1.7-0.6V22c0.5,0.2,1.1,0.5,1.7,0.7
						c0.6,0.2,1.2,0.3,1.7,0.3c0.7,0,1.2-0.2,1.5-0.5c0.3-0.3,0.5-0.7,0.5-1.2c0-0.6-0.6-1.2-1.8-1.6c-1.2-0.5-2.1-1-2.7-1.5
						c-0.6-0.5-1-1.6-1-3.1c0-1.3,0.4-2.3,1.2-3.2c0.8-0.9,1.9-1.3,3.1-1.3c0.6,0,1.2,0,1.7,0.1c0.5,0.1,1,0.3,1.5,0.6V14.6z"/>
					<linearGradient id="SVGID_8_" gradientUnits="userSpaceOnUse" x1="9.1166" y1="9.9519" x2="144.7488" y2="25.1404">
						<stop  offset="0" style="stop-color:#949495"/>
						<stop  offset="0.3476" style="stop-color:#D9D9D9"/>
						<stop  offset="0.5112" style="stop-color:#CCCCCC"/>
						<stop  offset="0.6847" style="stop-color:#BFBFBF"/>
						<stop  offset="0.7192" style="stop-color:#D9D9D9"/>
						<stop  offset="1" style="stop-color:#949495"/>
					</linearGradient>
					<path style="&st7;" d="M87.4,20.9c0,1.3-0.5,2.5-1.4,3.6c-0.9,1.1-2.1,1.6-3.4,1.6c-1.1,0-2.2-0.5-3.1-1.4
						c-1-1-1.4-2.1-1.4-3.4V10.8h2.7V21c0,0.5,0.2,1,0.6,1.5c0.4,0.4,0.8,0.6,1.3,0.6c0.6,0,1-0.2,1.4-0.6c0.4-0.4,0.6-0.9,0.6-1.4
						V10.8h2.8V20.9z"/>
					<linearGradient id="SVGID_9_" gradientUnits="userSpaceOnUse" x1="9.2416" y1="8.853" x2="144.8701" y2="24.0411">
						<stop  offset="0" style="stop-color:#949495"/>
						<stop  offset="0.3476" style="stop-color:#D9D9D9"/>
						<stop  offset="0.5112" style="stop-color:#CCCCCC"/>
						<stop  offset="0.6847" style="stop-color:#BFBFBF"/>
						<stop  offset="0.7192" style="stop-color:#D9D9D9"/>
						<stop  offset="1" style="stop-color:#949495"/>
					</linearGradient>
					<path style="&st8;" d="M98.9,24c0,0.6-0.2,1.1-0.6,1.5c-0.4,0.4-0.8,0.6-1.2,0.6c-0.3,0-0.7-0.1-1-0.3
						c-0.3-0.2-0.5-0.5-0.7-0.9l-3.4-9.4H92v10.3h-2.4v-13c0-0.6,0.2-1.1,0.5-1.5c0.3-0.4,0.7-0.7,1.2-0.7c0.3,0,0.6,0.1,0.9,0.4
						c0.3,0.2,0.6,0.5,0.7,0.9l3.5,9.3h0.2V10.9h2.4V24z"/>
					<linearGradient id="SVGID_10_" gradientUnits="userSpaceOnUse" x1="9.3836" y1="7.6357" x2="145.0045" y2="22.8229">
						<stop  offset="0" style="stop-color:#949495"/>
						<stop  offset="0.3476" style="stop-color:#D9D9D9"/>
						<stop  offset="0.5112" style="stop-color:#CCCCCC"/>
						<stop  offset="0.6847" style="stop-color:#BFBFBF"/>
						<stop  offset="0.7192" style="stop-color:#D9D9D9"/>
						<stop  offset="1" style="stop-color:#949495"/>
					</linearGradient>
					<path style="&st9;" d="M108.1,14.6c-0.5-0.4-0.9-0.6-1.4-0.8c-0.5-0.2-1-0.3-1.5-0.3c-0.5,0-0.9,0.1-1.3,0.5
						c-0.4,0.3-0.6,0.7-0.6,1.2c0,0.8,0.6,1.4,1.8,1.8c1.2,0.5,2.1,0.9,2.6,1.4c0.6,0.5,0.9,1.5,0.9,3.2c0,1.5-0.4,2.6-1.2,3.3
						c-0.8,0.7-1.9,1.1-3.1,1.1c-0.6,0-1.1-0.1-1.7-0.2c-0.6-0.1-1.1-0.3-1.7-0.6V22c0.5,0.2,1.1,0.5,1.7,0.7
						c0.6,0.2,1.2,0.3,1.7,0.3c0.7,0,1.2-0.2,1.5-0.5c0.3-0.3,0.5-0.7,0.5-1.2c0-0.6-0.6-1.2-1.8-1.6c-1.2-0.5-2.1-1-2.7-1.5
						c-0.6-0.5-1-1.6-1-3.1c0-1.3,0.4-2.3,1.2-3.2c0.8-0.9,1.9-1.3,3.1-1.3c0.6,0,1.2,0,1.7,0.1c0.5,0.1,1,0.3,1.5,0.6V14.6z"/>
					<linearGradient id="SVGID_11_" gradientUnits="userSpaceOnUse" x1="9.5454" y1="6.5356" x2="145.1155" y2="21.7171">
						<stop  offset="0" style="stop-color:#949495"/>
						<stop  offset="0.3476" style="stop-color:#D9D9D9"/>
						<stop  offset="0.5112" style="stop-color:#CCCCCC"/>
						<stop  offset="0.6847" style="stop-color:#BFBFBF"/>
						<stop  offset="0.7192" style="stop-color:#D9D9D9"/>
						<stop  offset="1" style="stop-color:#949495"/>
					</linearGradient>
					<path style="&st10;" d="M119.7,25.9H117v-6.3h-4v6.3h-2.7V10.8h2.7v5.7h4v-5.7h2.7V25.9z"/>
					<linearGradient id="SVGID_12_" gradientUnits="userSpaceOnUse" x1="9.7823" y1="5.7057" x2="145.1871" y2="20.8687">
						<stop  offset="0" style="stop-color:#949495"/>
						<stop  offset="0.3476" style="stop-color:#D9D9D9"/>
						<stop  offset="0.5112" style="stop-color:#CCCCCC"/>
						<stop  offset="0.6847" style="stop-color:#BFBFBF"/>
						<stop  offset="0.7192" style="stop-color:#D9D9D9"/>
						<stop  offset="1" style="stop-color:#949495"/>
					</linearGradient>
					<path style="&st11;" d="M124.7,25.9H122v-15h2.7V25.9z"/>
					<linearGradient id="SVGID_13_" gradientUnits="userSpaceOnUse" x1="9.7" y1="4.7211" x2="145.3357" y2="19.91">
						<stop  offset="0" style="stop-color:#949495"/>
						<stop  offset="0.3476" style="stop-color:#D9D9D9"/>
						<stop  offset="0.5112" style="stop-color:#CCCCCC"/>
						<stop  offset="0.6847" style="stop-color:#BFBFBF"/>
						<stop  offset="0.7192" style="stop-color:#D9D9D9"/>
						<stop  offset="1" style="stop-color:#949495"/>
					</linearGradient>
					<path style="&st12;" d="M136.3,24c0,0.6-0.2,1.1-0.6,1.5c-0.4,0.4-0.8,0.6-1.2,0.6c-0.3,0-0.6-0.1-1-0.3
						c-0.3-0.2-0.5-0.5-0.7-0.9l-3.4-9.4h-0.1v10.3h-2.4v-13c0-0.6,0.2-1.1,0.5-1.5c0.3-0.4,0.7-0.7,1.2-0.7c0.3,0,0.6,0.1,0.9,0.4
						c0.3,0.2,0.6,0.5,0.7,0.9l3.4,9.3h0.2V10.9h2.4V24z"/>
					<linearGradient id="SVGID_14_" gradientUnits="userSpaceOnUse" x1="10.0107" y1="3.5314" x2="145.4607" y2="18.6995">
						<stop  offset="0" style="stop-color:#949495"/>
						<stop  offset="0.3476" style="stop-color:#D9D9D9"/>
						<stop  offset="0.5112" style="stop-color:#CCCCCC"/>
						<stop  offset="0.6847" style="stop-color:#BFBFBF"/>
						<stop  offset="0.7192" style="stop-color:#D9D9D9"/>
						<stop  offset="1" style="stop-color:#949495"/>
					</linearGradient>
					<path style="&st13;" d="M144.6,25.9h-4.5c-0.6,0-1.1-0.2-1.5-0.7c-0.4-0.5-0.5-1.1-0.5-1.7v-10c0-0.8,0.2-1.4,0.4-1.9
						c0.3-0.5,0.7-0.8,1.2-0.8h4.8v3h-3.8v2.7h3.6v2.9h-3.6v3.4h3.8V25.9z"/>
				</g>
			</g>
		</g>
	</g>
	<g>
		<g>
			<rect x="159" y="4.3" style="&st14;" width="66.5" height="28.3"/>
			<rect x="159" style="&st14;" width="66.5" height="4.3"/>
			<g>
				<g>
					<rect x="151.9" y="4.3" style="&st14;" width="7.1" height="28.3"/>
					<rect x="144.9" y="4.3" style="&st14;" width="7.1" height="28.3"/>
				</g>
			</g>
			<rect x="159" y="32.6" style="&st14;" width="66.5" height="4.3"/>
			<rect x="154.8" y="4.3" style="&st14;" width="4.3" height="28.3"/>
			<rect x="225.5" y="4.3" style="&st14;" width="4.3" height="28.3"/>
		</g>
		<g>
			<g>
				<g>
					<g>
						<g>
							<linearGradient id="SVGID_15_" gradientUnits="userSpaceOnUse" x1="159.2235" y1="14.5366" x2="215.528" y2="42.3862">
								<stop  offset="0" style="stop-color:#949495"/>
								<stop  offset="0.3476" style="stop-color:#D9D9D9"/>
								<stop  offset="0.5112" style="stop-color:#CCCCCC"/>
								<stop  offset="0.6847" style="stop-color:#BFBFBF"/>
								<stop  offset="0.7192" style="stop-color:#D9D9D9"/>
								<stop  offset="1" style="stop-color:#949495"/>
							</linearGradient>
							<path style="&st15;" d="M173.7,21V10.8h-5.9L159,21h2.2l-1.1,1.2v3.7h11.2v3.3h4.2V21H173.7z M171.4,22.2h-6.6l1.1-1.2h-2
								l5.6-6.4V21h2V22.2z"/>
							<linearGradient id="SVGID_16_" gradientUnits="userSpaceOnUse" x1="162.4838" y1="7.9478" x2="218.7839" y2="35.7952">
								<stop  offset="0" style="stop-color:#949495"/>
								<stop  offset="0.3476" style="stop-color:#D9D9D9"/>
								<stop  offset="0.5112" style="stop-color:#CCCCCC"/>
								<stop  offset="0.6847" style="stop-color:#BFBFBF"/>
								<stop  offset="0.7192" style="stop-color:#D9D9D9"/>
								<stop  offset="1" style="stop-color:#949495"/>
							</linearGradient>
							<path style="&st16;" d="M195.1,18.2h-2.3c-0.1-4.1-3.5-7.4-7.8-7.4h-7.1v7.4h2.3v7.7h7.1c4.3,0,7.8-3.4,7.8-7.5
								C195.1,18.3,195.1,18.3,195.1,18.2z M187.6,22.3h-3v-4h-2.3v-3.8h3c1.7,0,3,1.7,3.1,3.8h2.3c0,0,0,0.1,0,0.1
								C190.7,20.5,189.3,22.3,187.6,22.3z"/>
							<g>
								<linearGradient id="SVGID_17_" gradientUnits="userSpaceOnUse" x1="165.2424" y1="2.3488" x2="221.5569" y2="30.2033">
									<stop  offset="0" style="stop-color:#949495"/>
									<stop  offset="0.3476" style="stop-color:#D9D9D9"/>
									<stop  offset="0.5112" style="stop-color:#CCCCCC"/>
									<stop  offset="0.6847" style="stop-color:#BFBFBF"/>
									<stop  offset="0.7192" style="stop-color:#D9D9D9"/>
									<stop  offset="1" style="stop-color:#949495"/>
								</linearGradient>
								<polygon style="&st17;" points="197.9,21.6 197,22.6 214.4,22.6 213.5,21.6 								"/>
							</g>
							<g>
								
									<linearGradient id="SVGID_18_" gradientUnits="userSpaceOnUse" x1="166.4255" y1="-2.557614e-02" x2="222.731" y2="27.8245">
									<stop  offset="0" style="stop-color:#949495"/>
									<stop  offset="0.3476" style="stop-color:#D9D9D9"/>
									<stop  offset="0.5112" style="stop-color:#CCCCCC"/>
									<stop  offset="0.6847" style="stop-color:#BFBFBF"/>
									<stop  offset="0.7192" style="stop-color:#D9D9D9"/>
									<stop  offset="1" style="stop-color:#949495"/>
								</linearGradient>
								<polygon style="&st18;" points="202.7,18.2 200,21 214.9,21 212.3,18.2 								"/>
							</g>
							<g>
								<linearGradient id="SVGID_19_" gradientUnits="userSpaceOnUse" x1="168.3881" y1="-3.9844" x2="224.6881" y2="23.8629">
									<stop  offset="0" style="stop-color:#949495"/>
									<stop  offset="0.3476" style="stop-color:#D9D9D9"/>
									<stop  offset="0.5112" style="stop-color:#CCCCCC"/>
									<stop  offset="0.6847" style="stop-color:#BFBFBF"/>
									<stop  offset="0.7192" style="stop-color:#D9D9D9"/>
									<stop  offset="1" style="stop-color:#949495"/>
								</linearGradient>
								<polygon style="&st19;" points="202.2,15.8 204,17.6 214.8,17.6 216.6,15.8 								"/>
							</g>
							<g>
								<linearGradient id="SVGID_20_" gradientUnits="userSpaceOnUse" x1="167.7076" y1="-2.6233" x2="224.0156" y2="25.2279">
									<stop  offset="0" style="stop-color:#949495"/>
									<stop  offset="0.3476" style="stop-color:#D9D9D9"/>
									<stop  offset="0.5112" style="stop-color:#CCCCCC"/>
									<stop  offset="0.6847" style="stop-color:#BFBFBF"/>
									<stop  offset="0.7192" style="stop-color:#D9D9D9"/>
									<stop  offset="1" style="stop-color:#949495"/>
								</linearGradient>
								<polygon style="&st20;" points="197.6,15.2 205.3,15.2 201.1,10.8 193.4,10.8 								"/>
								<linearGradient id="SVGID_21_" gradientUnits="userSpaceOnUse" x1="170.0318" y1="-7.3068" x2="226.3321" y2="20.5406">
									<stop  offset="0" style="stop-color:#949495"/>
									<stop  offset="0.3476" style="stop-color:#D9D9D9"/>
									<stop  offset="0.5112" style="stop-color:#CCCCCC"/>
									<stop  offset="0.6847" style="stop-color:#BFBFBF"/>
									<stop  offset="0.7192" style="stop-color:#D9D9D9"/>
									<stop  offset="1" style="stop-color:#949495"/>
								</linearGradient>
								<polygon style="&st21;" points="205.5,15.2 212.6,15.2 216.8,10.8 209.7,10.8 								"/>
							</g>
							<g>
								<linearGradient id="SVGID_22_" gradientUnits="userSpaceOnUse" x1="169.2865" y1="-5.8105" x2="225.5925" y2="22.0399">
									<stop  offset="0" style="stop-color:#949495"/>
									<stop  offset="0.3476" style="stop-color:#D9D9D9"/>
									<stop  offset="0.5112" style="stop-color:#CCCCCC"/>
									<stop  offset="0.6847" style="stop-color:#BFBFBF"/>
									<stop  offset="0.7192" style="stop-color:#D9D9D9"/>
									<stop  offset="1" style="stop-color:#949495"/>
								</linearGradient>
								<polygon style="&st22;" points="196.3,10.2 204,10.2 201.1,7.3 193.4,7.3 								"/>
								<linearGradient id="SVGID_23_" gradientUnits="userSpaceOnUse" x1="173.8282" y1="-15.0021" x2="230.1391" y2="12.8506">
									<stop  offset="0" style="stop-color:#949495"/>
									<stop  offset="0.3476" style="stop-color:#D9D9D9"/>
									<stop  offset="0.5112" style="stop-color:#CCCCCC"/>
									<stop  offset="0.6847" style="stop-color:#BFBFBF"/>
									<stop  offset="0.7192" style="stop-color:#D9D9D9"/>
									<stop  offset="1" style="stop-color:#949495"/>
								</linearGradient>
								<polygon style="&st23;" points="217.8,4.3 212.1,10.2 219.8,10.2 225.5,4.3 								"/>
							</g>
							<g>
								<linearGradient id="SVGID_24_" gradientUnits="userSpaceOnUse" x1="166.1605" y1="0.5049" x2="222.4673" y2="28.3556">
									<stop  offset="0" style="stop-color:#949495"/>
									<stop  offset="0.3476" style="stop-color:#D9D9D9"/>
									<stop  offset="0.5112" style="stop-color:#CCCCCC"/>
									<stop  offset="0.6847" style="stop-color:#BFBFBF"/>
									<stop  offset="0.7192" style="stop-color:#D9D9D9"/>
									<stop  offset="1" style="stop-color:#949495"/>
								</linearGradient>
								<polygon style="&st24;" points="217.4,23.2 209.7,23.2 212.2,25.9 219.9,25.9 								"/>
								<linearGradient id="SVGID_25_" gradientUnits="userSpaceOnUse" x1="160.7072" y1="11.5282" x2="217.0184" y2="39.3811">
									<stop  offset="0" style="stop-color:#949495"/>
									<stop  offset="0.3476" style="stop-color:#D9D9D9"/>
									<stop  offset="0.5112" style="stop-color:#CCCCCC"/>
									<stop  offset="0.6847" style="stop-color:#BFBFBF"/>
									<stop  offset="0.7192" style="stop-color:#D9D9D9"/>
									<stop  offset="1" style="stop-color:#949495"/>
								</linearGradient>
								<polygon style="&st25;" points="190,32.6 198.1,32.6 204,26.4 196,26.4 								"/>
								<linearGradient id="SVGID_26_" gradientUnits="userSpaceOnUse" x1="163.963" y1="4.939" x2="220.2744" y2="32.792">
									<stop  offset="0" style="stop-color:#949495"/>
									<stop  offset="0.3476" style="stop-color:#D9D9D9"/>
									<stop  offset="0.5112" style="stop-color:#CCCCCC"/>
									<stop  offset="0.6847" style="stop-color:#BFBFBF"/>
									<stop  offset="0.7192" style="stop-color:#D9D9D9"/>
									<stop  offset="1" style="stop-color:#949495"/>
								</linearGradient>
								<polygon style="&st26;" points="209,23.2 200.9,23.2 198.3,25.9 206.4,25.9 								"/>
								<linearGradient id="SVGID_27_" gradientUnits="userSpaceOnUse" x1="165.0872" y1="2.7041" x2="221.3823" y2="30.549">
									<stop  offset="0" style="stop-color:#949495"/>
									<stop  offset="0.3476" style="stop-color:#D9D9D9"/>
									<stop  offset="0.5112" style="stop-color:#CCCCCC"/>
									<stop  offset="0.6847" style="stop-color:#BFBFBF"/>
									<stop  offset="0.7192" style="stop-color:#D9D9D9"/>
									<stop  offset="1" style="stop-color:#949495"/>
								</linearGradient>
								<polygon style="&st27;" points="213.3,29.2 221,29.2 218.3,26.4 210.6,26.4 								"/>
							</g>
						</g>
					</g>
				</g>
			</g>
		</g>
		<g>
			<linearGradient id="SVGID_28_" gradientUnits="userSpaceOnUse" x1="140.5545" y1="-22.6866" x2="238.0103" y2="9.9085">
				<stop  offset="0" style="stop-color:#949495"/>
				<stop  offset="0.3476" style="stop-color:#D9D9D9"/>
				<stop  offset="0.5112" style="stop-color:#CCCCCC"/>
				<stop  offset="0.6847" style="stop-color:#BFBFBF"/>
				<stop  offset="0.7192" style="stop-color:#D9D9D9"/>
				<stop  offset="1" style="stop-color:#949495"/>
			</linearGradient>
			<path style="&st28;" d="M226.7,5.9c0.1-0.3,0.3-0.6,0.6-0.9c0.3-0.2,0.5-0.4,0.9-0.6c0.3-0.1,0.7-0.2,1.1-0.2
				c0.4,0,0.7,0.1,1.1,0.2c0.3,0.1,0.6,0.3,0.9,0.6c0.2,0.2,0.4,0.5,0.6,0.9c0.1,0.3,0.2,0.7,0.2,1.1c0,0.4-0.1,0.8-0.2,1.1
				c-0.1,0.3-0.3,0.6-0.6,0.9c-0.2,0.2-0.5,0.4-0.9,0.6c-0.3,0.1-0.7,0.2-1.1,0.2c-0.4,0-0.7-0.1-1.1-0.2c-0.3-0.1-0.6-0.3-0.9-0.6
				c-0.2-0.2-0.5-0.5-0.6-0.9c-0.1-0.3-0.2-0.7-0.2-1.1C226.5,6.6,226.6,6.2,226.7,5.9z M227.2,7.9c0.1,0.3,0.3,0.5,0.5,0.7
				c0.2,0.2,0.4,0.4,0.7,0.5c0.3,0.1,0.6,0.2,0.9,0.2c0.3,0,0.6-0.1,0.9-0.2c0.3-0.1,0.5-0.3,0.7-0.5c0.2-0.2,0.4-0.5,0.5-0.7
				c0.1-0.3,0.2-0.6,0.2-0.9c0-0.3-0.1-0.6-0.2-0.9c-0.1-0.3-0.3-0.5-0.5-0.7c-0.2-0.2-0.4-0.4-0.7-0.5c-0.3-0.1-0.6-0.2-0.9-0.2
				c-0.3,0-0.6,0.1-0.9,0.2c-0.3,0.1-0.5,0.3-0.7,0.5c-0.2,0.2-0.4,0.5-0.5,0.7C227.1,6.3,227,6.6,227,7
				C227,7.3,227.1,7.6,227.2,7.9z M229.4,5.4c0.4,0,0.7,0.1,0.8,0.2c0.2,0.2,0.3,0.4,0.3,0.7c0,0.3-0.1,0.5-0.2,0.6
				c-0.2,0.1-0.4,0.2-0.6,0.2l0.9,1.4h-0.5l-0.9-1.4h-0.5v1.4h-0.5V5.4H229.4z M229.2,6.8c0.1,0,0.2,0,0.3,0c0.1,0,0.2,0,0.3-0.1
				c0.1,0,0.1-0.1,0.2-0.2c0-0.1,0.1-0.2,0.1-0.3c0-0.1,0-0.2-0.1-0.3c0-0.1-0.1-0.1-0.2-0.1c-0.1,0-0.1-0.1-0.2-0.1
				c-0.1,0-0.2,0-0.3,0h-0.7v1H229.2z"/>
		</g>
	</g>
</g>
</svg>
