<?xml version="1.0" encoding="utf-8"?>
<!-- Generator: Adobe Illustrator 22.1.0, SVG Export Plug-In . SVG Version: 6.00 Build 0)  -->
<svg version="1.1" id="レイヤー_1" xmlns="http://www.w3.org/2000/svg" xmlns:xlink="http://www.w3.org/1999/xlink" x="0px"
	 y="0px" width="836.9px" height="110.4px" viewBox="0 0 836.9 110.4" style="enable-background:new 0 0 836.9 110.4;"
	 xml:space="preserve">
<style type="text/css">
	.st0{fill:#FF4D00;}
	.st1{fill:#FFFFFF;}
</style>
<g>
	<path class="st0" d="M805.3,0l-0.5,0.2l-76.7,24.7v60.9l77.2,24.6l31.6-20.1V21.5L805.3,0z M803.9,26.2l-50.8,8.5l-20.6-8.8
		l71.4-23V26.2z M806.3,3.5l26.3,17.9l-26.3,4.4V3.5z M754.3,36.9l49.7-8.3v54l-49.7-9.2V36.9z M752,36.7v36.9l-21.6,9.2V27.5
		L752,36.7z M753.2,75.7l50.8,9.4v22.3l-71.6-22.8L753.2,75.7z M806.3,85.5l26,4.8l-26,16.6V85.5z M806.3,83.1V28.2l28.2-4.7v64.8
		L806.3,83.1z"/>
	<g>
		<path class="st1" d="M509.6,41.9v-7.2h-32.3c-3.6,0-6.5,2.9-6.5,6.5v12.1c0,3.6,2.9,6.5,6.5,6.5h21.1v10.5h-27.6v7.2h32.7
			c3.5,0,6.1-2.9,6.1-6.5V59c0-3.4-3-6.5-6.5-6.5H482V41.9H509.6z"/>
		<path class="st1" d="M550,41.9v-7.2h-29.6l0,0c-3.5,0-6.6,2.9-6.6,6.5V71c0,3.5,3.1,6.5,6.6,6.5l0,0H550v-7.2h-24.9V41.9H550z"/>
		<path class="st1" d="M583.1,62.8h2.5c3.2,0,7-3.3,7-6.8V41.6c0-3.6-3.6-6.9-7-6.9h-31.4v42.7h11.2V41.9h16v13.8h-13.3v1.5
			l13.7,20.2H593L583.1,62.8z"/>
		<path class="st1" d="M633.2,41.9v-7.2h-29.8c-3.6,0-6.5,2.9-6.5,6.5V71c0,3.6,2.9,6.5,6.5,6.5h29.8v-7.2h-25.1V59.6H627v-7.3
			h-18.9V41.9H633.2z"/>
		<path class="st1" d="M673.5,41.9v-7.2h-29.8c-3.6,0-6.5,2.9-6.5,6.5V71c0,3.6,2.9,6.5,6.5,6.5h29.8v-7.2h-25.1V59.6h18.9v-7.3
			h-18.9V41.9H673.5z"/>
		<path class="st1" d="M719.1,34.6h-11.2v32.5l-15.3-28.9c-1-2-3.3-3.5-5.5-3.5h-9.3v42.7H689V44.9l15.2,28.7c1.3,2.3,3.5,3.8,6,3.8
			h8.9L719.1,34.6L719.1,34.6z"/>
		<polygon class="st1" points="801.1,9.3 776.3,16.7 759.6,43.4 746.8,25.3 735.2,28.8 752,55.6 735.3,82.4 746.9,85.8 759.7,67.7 
			776.4,94.4 801.2,101.7 768.3,55.5 		"/>
	</g>
</g>
<g>
	<g>
		<path class="st1" d="M24.4,43.1c-4.9,0-8.7,1.1-11.6,3.3c-2.8,2.2-4.2,5.4-4.2,9.5c0,4.6,1.5,7.9,4.4,10c3,2.1,6.7,3.1,11.1,3.1
			v8.4c-0.4,0.1-0.9,0.1-1.5,0.2c-0.6,0-1.1,0.1-1.6,0.1c-5.3,0-10.1-1.9-14.5-5.8C2.2,68,0,62.8,0,56.3c0-6.6,2.1-11.8,6.3-15.7
			c4.2-3.9,9.1-5.9,14.8-5.9c0.8,0,1.4,0,1.9,0c0.5,0,1,0,1.4,0V43.1z"/>
		<path class="st1" d="M38.6,77.7h-8.4V35h8.4V77.7z"/>
		<path class="st1" d="M73.9,72.2c0,1.6-0.6,3-1.7,4.1C71,77.5,69.8,78,68.4,78c-1,0-1.9-0.3-2.9-0.8c-1-0.6-1.7-1.4-2.1-2.5
			L52.8,48.1l-0.5,0v29.4h-7.3V40.4c0-1.6,0.5-3,1.5-4.2c1-1.3,2.2-1.9,3.6-1.9c1,0,1.9,0.3,2.9,1c1,0.7,1.7,1.5,2.2,2.6l10.7,26.6
			h0.5V34.9h7.5V72.2z"/>
		<path class="st1" d="M100.2,77.5H86.3c-1.8,0-3.3-0.7-4.4-2.1c-1.1-1.4-1.7-3-1.7-4.8V42.2c0-2.1,0.5-3.9,1.4-5.3
			c0.9-1.4,2.2-2.1,3.8-2.1h14.8v8.4H88.3v7.6h11.3v8.3H88.3v9.8h11.9V77.5z"/>
		<path class="st1" d="M139,77.5h-6.3l0-30.3L127,73c-0.3,1.5-0.8,2.7-1.4,3.5c-0.6,0.8-1.5,1.2-2.7,1.2c-1.3,0-2.2-0.4-2.8-1.3
			c-0.6-0.9-1.1-2.1-1.5-3.8l-6.2-25.1l0,29.9H106V40.4c0-1.8,0.5-3.2,1.5-4.3c1-1,2.2-1.6,3.6-1.6c1.3,0,2.4,0.4,3.2,1.1
			c0.8,0.8,1.4,1.9,1.8,3.4l6.7,27.5l6-28.9c0.2-0.9,0.8-1.7,1.7-2.4c0.9-0.7,1.9-1,2.9-1c1,0,2.2,0.5,3.6,1.6
			c1.4,1,2.1,2.6,2.1,4.8V77.5z"/>
		<path class="st1" d="M154.4,62.6l3.8-18.5l3.4,18.5H154.4z M164.2,40c-0.5-1.6-1.3-3-2.4-4.1c-1.1-1.1-2.5-1.7-4-1.7
			c-1.4,0-2.5,0.5-3.5,1.6c-1,1-1.7,2.3-2.1,3.8l-10.6,38h8.5l2.2-8.2h11.5l2.1,8.2h8.5L164.2,40z"/>
	</g>
	<g>
		<path class="st1" d="M216,45.4c-1.3-1-2.6-1.8-4-2.4c-1.4-0.6-2.7-0.9-4.1-0.9c-1.4,0-2.6,0.4-3.7,1.3c-1.1,0.9-1.7,2-1.7,3.6
			c0,2.1,1.7,3.8,5,5.1c3.3,1.3,5.8,2.6,7.4,3.9c1.6,1.3,2.4,4.4,2.4,9.1c0,4.2-1.2,7.4-3.6,9.5c-2.4,2.1-5.3,3.2-8.8,3.2
			c-1.6,0-3.3-0.2-4.8-0.6c-1.6-0.4-3.2-0.9-4.9-1.7v-9.1c1.4,0.6,3.1,1.3,4.8,1.9c1.8,0.7,3.4,1,4.7,1c1.9,0,3.3-0.4,4.2-1.3
			c0.9-0.9,1.3-2,1.3-3.3c0-1.8-1.7-3.3-5-4.7c-3.4-1.4-6-2.8-7.8-4.3c-1.8-1.5-2.7-4.5-2.7-8.9c0-3.6,1.2-6.6,3.5-9.1
			c2.3-2.5,5.3-3.7,8.9-3.7c1.8,0,3.3,0.1,4.7,0.4c1.4,0.3,2.8,0.8,4.2,1.6V45.4z"/>
		<path class="st1" d="M248.4,63.3c0,3.8-1.3,7.2-3.9,10.2c-2.6,3-5.8,4.5-9.7,4.5c-3.2,0-6.2-1.4-8.9-4.1c-2.7-2.7-4.1-5.9-4.1-9.5
			V34.7h7.6v29c0,1.6,0.6,2.9,1.7,4.1c1.1,1.2,2.4,1.8,3.8,1.8c1.6,0,2.9-0.6,4-1.8c1.1-1.2,1.6-2.6,1.6-4v-29h7.9V63.3z"/>
		<path class="st1" d="M281.1,72.2c0,1.6-0.5,3-1.6,4.1c-1.1,1.1-2.2,1.7-3.5,1.7c-0.9,0-1.9-0.3-2.8-0.8c-0.9-0.6-1.5-1.4-1.9-2.5
			l-9.7-26.6l-0.3,0v29.4h-6.8V40.4c0-1.6,0.4-3,1.4-4.2c0.9-1.3,2-1.9,3.4-1.9c0.9,0,1.8,0.3,2.7,1c0.9,0.7,1.6,1.5,2,2.6l9.8,26.6
			h0.5V34.9h6.9V72.2z"/>
		<path class="st1" d="M307.4,45.4c-1.3-1-2.6-1.8-4-2.4c-1.4-0.6-2.7-0.9-4.1-0.9c-1.4,0-2.6,0.4-3.7,1.3c-1.1,0.9-1.7,2-1.7,3.6
			c0,2.1,1.7,3.8,5,5.1c3.4,1.3,5.8,2.6,7.4,3.9c1.6,1.3,2.4,4.4,2.4,9.1c0,4.2-1.2,7.4-3.6,9.5c-2.4,2.1-5.3,3.2-8.8,3.2
			c-1.6,0-3.3-0.2-4.8-0.6c-1.6-0.4-3.2-0.9-4.9-1.7v-9.1c1.4,0.6,3.1,1.3,4.8,1.9c1.8,0.7,3.4,1,4.7,1c1.9,0,3.3-0.4,4.2-1.3
			c0.9-0.9,1.3-2,1.3-3.3c0-1.8-1.7-3.3-5-4.7c-3.4-1.4-6-2.8-7.8-4.3c-1.8-1.5-2.7-4.5-2.7-8.9c0-3.6,1.2-6.6,3.5-9.1
			c2.3-2.5,5.3-3.7,8.9-3.7c1.8,0,3.3,0.1,4.7,0.4c1.4,0.3,2.8,0.8,4.2,1.6V45.4z"/>
		<path class="st1" d="M340.3,77.5h-7.8V59.7h-11.3v17.8h-7.8V34.7h7.8V51h11.3V34.7h7.8V77.5z"/>
		<path class="st1" d="M354.6,77.7h-7.7V35h7.7V77.7z"/>
		<path class="st1" d="M387.3,72.2c0,1.6-0.5,3-1.6,4.1c-1.1,1.1-2.2,1.7-3.5,1.7c-0.9,0-1.9-0.3-2.8-0.8c-0.9-0.6-1.5-1.4-1.9-2.5
			l-9.6-26.6l-0.3,0v29.4h-6.8V40.4c0-1.6,0.5-3,1.4-4.2c0.9-1.3,2-1.9,3.3-1.9c0.9,0,1.8,0.3,2.7,1c0.9,0.7,1.6,1.5,2,2.6l9.8,26.6
			h0.5V34.9h6.9V72.2z"/>
		<path class="st1" d="M411,77.5h-12.8c-1.7,0-3.1-0.7-4.1-2.1c-1-1.4-1.6-3-1.6-4.8V42.1c0-2.1,0.4-3.9,1.3-5.3
			c0.9-1.4,2-2.1,3.4-2.1H411v8.4h-10.9v7.6h10.3v8.3h-10.3v9.8H411V77.5z"/>
	</g>
</g>
</svg>
