<?xml version="1.0" encoding="utf-8"?>
<!-- Generator: Adobe Illustrator 24.0.1, SVG Export Plug-In . SVG Version: 6.00 Build 0)  -->
<svg version="1.1" id="レイヤー_1" xmlns="http://www.w3.org/2000/svg" xmlns:xlink="http://www.w3.org/1999/xlink" x="0px"
	 y="0px" width="836.9px" height="110.4px" viewBox="0 0 836.9 110.4" style="enable-background:new 0 0 836.9 110.4;"
	 xml:space="preserve">
<style type="text/css">
	.st0{fill:#FFFFFF;}
</style>
<g>
	<g>
		<path class="st0" d="M24.4,43c-4.9,0-8.7,1.1-11.6,3.3c-2.8,2.2-4.2,5.4-4.2,9.5c0,4.6,1.5,7.9,4.4,10c3,2.1,6.7,3.1,11.1,3.1v8.4
			c-0.4,0.1-0.9,0.1-1.5,0.2c-0.6,0-1.1,0.1-1.6,0.1c-5.3,0-10.1-1.9-14.5-5.8C2.2,67.9,0,62.7,0,56.2c0-6.6,2.1-11.8,6.3-15.7
			s9.1-5.9,14.8-5.9c0.8,0,1.4,0,1.9,0s1,0,1.4,0V43z"/>
		<path class="st0" d="M38.6,77.6h-8.4V34.9h8.4V77.6z"/>
		<path class="st0" d="M73.9,72.1c0,1.6-0.6,3-1.7,4.1c-1.2,1.2-2.4,1.7-3.8,1.7c-1,0-1.9-0.3-2.9-0.8c-1-0.6-1.7-1.4-2.1-2.5
			L52.8,48h-0.5v29.4H45V40.3c0-1.6,0.5-3,1.5-4.2c1-1.3,2.2-1.9,3.6-1.9c1,0,1.9,0.3,2.9,1s1.7,1.5,2.2,2.6l10.7,26.6h0.5V34.8h7.5
			V72.1z"/>
		<path class="st0" d="M100.2,77.4H86.3c-1.8,0-3.3-0.7-4.4-2.1s-1.7-3-1.7-4.8V42.1c0-2.1,0.5-3.9,1.4-5.3c0.9-1.4,2.2-2.1,3.8-2.1
			h14.8v8.4H88.3v7.6h11.3V59H88.3v9.8h11.9C100.2,68.8,100.2,77.4,100.2,77.4z"/>
		<path class="st0" d="M139,77.4h-6.3V47.1L127,72.9c-0.3,1.5-0.8,2.7-1.4,3.5s-1.5,1.2-2.7,1.2c-1.3,0-2.2-0.4-2.8-1.3
			c-0.6-0.9-1.1-2.1-1.5-3.8l-6.2-25.1v29.9H106v-37c0-1.8,0.5-3.2,1.5-4.3c1-1,2.2-1.6,3.6-1.6c1.3,0,2.4,0.4,3.2,1.1
			c0.8,0.8,1.4,1.9,1.8,3.4l6.7,27.5l6-28.9c0.2-0.9,0.8-1.7,1.7-2.4s1.9-1,2.9-1s2.2,0.5,3.6,1.6c1.4,1,2.1,2.6,2.1,4.8L139,77.4
			L139,77.4z"/>
		<path class="st0" d="M154.4,62.5l3.8-18.5l3.4,18.5H154.4z M164.2,39.9c-0.5-1.6-1.3-3-2.4-4.1c-1.1-1.1-2.5-1.7-4-1.7
			c-1.4,0-2.5,0.5-3.5,1.6c-1,1-1.7,2.3-2.1,3.8l-10.6,38h8.5l2.2-8.2h11.5l2.1,8.2h8.5L164.2,39.9z"/>
	</g>
	<g>
		<path class="st0" d="M216,45.3c-1.3-1-2.6-1.8-4-2.4c-1.4-0.6-2.7-0.9-4.1-0.9c-1.4,0-2.6,0.4-3.7,1.3c-1.1,0.9-1.7,2-1.7,3.6
			c0,2.1,1.7,3.8,5,5.1s5.8,2.6,7.4,3.9c1.6,1.3,2.4,4.4,2.4,9.1c0,4.2-1.2,7.4-3.6,9.5c-2.4,2.1-5.3,3.2-8.8,3.2
			c-1.6,0-3.3-0.2-4.8-0.6c-1.6-0.4-3.2-0.9-4.9-1.7v-9.1c1.4,0.6,3.1,1.3,4.8,1.9c1.8,0.7,3.4,1,4.7,1c1.9,0,3.3-0.4,4.2-1.3
			s1.3-2,1.3-3.3c0-1.8-1.7-3.3-5-4.7c-3.4-1.4-6-2.8-7.8-4.3s-2.7-4.5-2.7-8.9c0-3.6,1.2-6.6,3.5-9.1s5.3-3.7,8.9-3.7
			c1.8,0,3.3,0.1,4.7,0.4c1.4,0.3,2.8,0.8,4.2,1.6L216,45.3L216,45.3z"/>
		<path class="st0" d="M248.4,63.2c0,3.8-1.3,7.2-3.9,10.2c-2.6,3-5.8,4.5-9.7,4.5c-3.2,0-6.2-1.4-8.9-4.1s-4.1-5.9-4.1-9.5V34.6
			h7.6v29c0,1.6,0.6,2.9,1.7,4.1c1.1,1.2,2.4,1.8,3.8,1.8c1.6,0,2.9-0.6,4-1.8c1.1-1.2,1.6-2.6,1.6-4v-29h7.9L248.4,63.2L248.4,63.2
			z"/>
		<path class="st0" d="M281.1,72.1c0,1.6-0.5,3-1.6,4.1s-2.2,1.7-3.5,1.7c-0.9,0-1.9-0.3-2.8-0.8c-0.9-0.6-1.5-1.4-1.9-2.5L261.6,48
			h-0.3v29.4h-6.8V40.3c0-1.6,0.4-3,1.4-4.2c0.9-1.3,2-1.9,3.4-1.9c0.9,0,1.8,0.3,2.7,1c0.9,0.7,1.6,1.5,2,2.6l9.8,26.6h0.5V34.8
			h6.9v37.3H281.1z"/>
		<path class="st0" d="M307.4,45.3c-1.3-1-2.6-1.8-4-2.4c-1.4-0.6-2.7-0.9-4.1-0.9s-2.6,0.4-3.7,1.3c-1.1,0.9-1.7,2-1.7,3.6
			c0,2.1,1.7,3.8,5,5.1c3.4,1.3,5.8,2.6,7.4,3.9c1.6,1.3,2.4,4.4,2.4,9.1c0,4.2-1.2,7.4-3.6,9.5s-5.3,3.2-8.8,3.2
			c-1.6,0-3.3-0.2-4.8-0.6c-1.6-0.4-3.2-0.9-4.9-1.7v-9.1c1.4,0.6,3.1,1.3,4.8,1.9c1.8,0.7,3.4,1,4.7,1c1.9,0,3.3-0.4,4.2-1.3
			c0.9-0.9,1.3-2,1.3-3.3c0-1.8-1.7-3.3-5-4.7c-3.4-1.4-6-2.8-7.8-4.3s-2.7-4.5-2.7-8.9c0-3.6,1.2-6.6,3.5-9.1s5.3-3.7,8.9-3.7
			c1.8,0,3.3,0.1,4.7,0.4c1.4,0.3,2.8,0.8,4.2,1.6V45.3z"/>
		<path class="st0" d="M340.3,77.4h-7.8V59.6h-11.3v17.8h-7.8V34.6h7.8v16.3h11.3V34.6h7.8V77.4z"/>
		<path class="st0" d="M354.6,77.6h-7.7V34.9h7.7V77.6z"/>
		<path class="st0" d="M387.3,72.1c0,1.6-0.5,3-1.6,4.1s-2.2,1.7-3.5,1.7c-0.9,0-1.9-0.3-2.8-0.8c-0.9-0.6-1.5-1.4-1.9-2.5L367.9,48
			h-0.3v29.4h-6.8V40.3c0-1.6,0.5-3,1.4-4.2c0.9-1.3,2-1.9,3.3-1.9c0.9,0,1.8,0.3,2.7,1c0.9,0.7,1.6,1.5,2,2.6l9.8,26.6h0.5V34.8
			h6.9v37.3H387.3z"/>
		<path class="st0" d="M411,77.4h-12.8c-1.7,0-3.1-0.7-4.1-2.1s-1.6-3-1.6-4.8V42c0-2.1,0.4-3.9,1.3-5.3c0.9-1.4,2-2.1,3.4-2.1H411
			V43h-10.9v7.6h10.3v8.3h-10.3v9.8H411V77.4z"/>
	</g>
</g>
<g>
	<path class="st0" d="M835.7,92.2l-36.3-31c-0.2-0.2-0.5-0.3-0.8-0.3h-14.3l40.3-41.4c0.2-0.2,0.1-0.5-0.2-0.5h-21.2
		c-0.3,0-0.6,0.1-0.9,0.3L778,42.2l-14.9-13.3c-0.2-0.2-0.5-0.3-0.8-0.3h-20.9c-0.3,0-0.4,0.4-0.2,0.6l17.3,16.8
		c0.2,0.2,0.6,0.4,0.9,0.4h13.5l-36.7,34.4c-0.2,0.2-0.1,0.5,0.2,0.5h27.9c0.3,0,0.7-0.1,0.9-0.4l13.3-13.7l24.9,25.3
		c0.2,0.2,0.6,0.4,0.9,0.4h31.2C835.8,92.8,835.9,92.4,835.7,92.2"/>
	<path class="st0" d="M720.1,33.6L720.1,33.6v28.6c0,0.8-0.5,1.3-1.2,1.3c-0.7,0-1.1-0.5-1.6-1.2l-16.7-25c-1.1-1.6-3.2-4.6-9.3-4.6
		c-4.9,0-8.3,2.4-8.3,8.1v0v31.2h8.8V43.3c0-0.8,0.5-1.3,1.2-1.3c0.7,0,1.1,0.5,1.6,1.2l16.8,25.4c1.1,1.7,3.5,4.2,9.2,4.2
		c1.6,0,2.9-0.2,4.1-0.8c2.2-0.8,4.1-2.8,4.1-7.1V33.6L720.1,33.6z"/>
	<path class="st0" d="M505.4,52.8c0-5.7,2.4-9.9,4.4-12.2c2.3-2.7,6.8-7,16.2-7h18.1V42h-17.9c-5.7,0-8.3,3.1-9,3.9
		c-0.8,0.9-2.6,3.5-2.6,7c0,3.5,1.8,6.1,2.7,7.1c1.3,1.4,3.8,3.9,8.8,3.9h17.9V72h-18.1c-6.3,0-11.2-1.9-15.3-6
		C508.5,63.8,505.4,59.3,505.4,52.8"/>
	<path class="st0" d="M500.3,42h-26.8c-1.2,0-2.3,0.2-3.1,1.1c-0.7,0.8-1,1.6-1,2.6c0,0.9,0.2,1.6,0.9,2.4c0.7,0.8,1.9,1.1,3.2,1.1
		h16.1c5,0,8,1.8,9.9,4.1c1.7,2.1,2.7,4.6,2.7,7.3c0,3-1.1,5.4-2.6,7.1c-1.6,2-4.4,4.3-10.2,4.3h-27.7v-8.1h27.2
		c2,0,2.9-0.4,3.6-1.1c0.6-0.7,1-1.5,1-2.5c0-1-0.4-1.8-1.1-2.6c-0.7-0.7-1.5-1.1-3.5-1.1h-15.5c-5.8,0-8.3-1.7-9.8-3.4
		c-1.7-1.9-2.8-4.9-2.8-8.1c0-3,1-5.8,2.7-7.8c2.5-2.9,5.8-3.7,10-3.7h27V42z"/>
	<path class="st0" d="M634.2,33.7V42h-28.6c-0.8,0-1.1,0.4-1.1,1.1v6H634v7.4h-29.6v6.2c0,0.8,0.4,1.2,1.1,1.2h28.6V72H601
		c-3.6,0-5.4-1.8-5.4-5.3V38.8c0-3.4,1.8-5.2,5.4-5.2H634.2z"/>
	<path class="st0" d="M677.8,33.7V42h-28.6c-0.8,0-1.1,0.4-1.1,1.1v6h29.6v7.4H648v6.2c0,0.8,0.4,1.2,1.1,1.2h28.6V72h-33.2
		c-3.6,0-5.4-1.8-5.4-5.3V38.8c0-3.4,1.8-5.2,5.4-5.2H677.8z"/>
	<path class="st0" d="M590.4,68.4v-7.5c0-2.3-0.4-4-1.1-5.2c-0.7-1.2-1.5-2.2-2.9-2.8c1.5-1,2.6-2.2,3.2-3.7c0.6-1.5,0.9-3,0.9-4.7
		c0-4.1-2.8-10.8-12-10.8H555c-3.6,0-5.4,1.7-5.4,5.2V72h8.4V57.6h19.1c1.8,0,3.1,0.4,3.8,1.1c0.7,0.7,1,1.8,1,3.3v7.3
		c0,0.8,0.1,1.8,0.2,2.8h8.6c-0.1-0.5-0.1-1.1-0.1-1.6C590.4,69.9,590.4,69.2,590.4,68.4 M579.4,49.6c-0.7,0.3-1.6,0.5-2.8,0.5
		h-18.3v-7.3c0-0.5,0.4-1,1-1h17.3c1.1,0,1.9,0.1,2.5,0.3c1.8,0.7,2.7,2.2,2.7,3.8C581.8,47.3,581,48.8,579.4,49.6"/>
</g>
</svg>
