<?xml version="1.0" encoding="utf-8"?>
<!-- Generator: Adobe Illustrator 22.1.0, SVG Export Plug-In . SVG Version: 6.00 Build 0)  -->
<!DOCTYPE svg PUBLIC "-//W3C//DTD SVG 1.1//EN" "http://www.w3.org/Graphics/SVG/1.1/DTD/svg11.dtd" [
	<!ENTITY st0 "fill:#309CD0;">
	<!ENTITY st1 "fill:#9E6CA3;">
	<!ENTITY st2 "fill:#0A0909;">
	<!ENTITY st3 "clip-path:url(#SVGID_2_);">
	<!ENTITY st4 "fill:#DD8C1E;">
	<!ENTITY st5 "fill:#DF951D;">
	<!ENTITY st6 "fill:#E09D21;">
	<!ENTITY st7 "fill:#E3A521;">
	<!ENTITY st8 "fill:#E2AD22;">
	<!ENTITY st9 "fill:#E3B526;">
	<!ENTITY st10 "fill:#E6BC29;">
	<!ENTITY st11 "fill:#E7C32A;">
	<!ENTITY st12 "fill:#E9CB2D;">
	<!ENTITY st13 "fill:#E8D030;">
	<!ENTITY st14 "fill:#E8D834;">
	<!ENTITY st15 "fill:#E8DD34;">
	<!ENTITY st16 "fill:#522374;">
	<!ENTITY st17 "fill:#58287B;">
	<!ENTITY st18 "fill:#553780;">
	<!ENTITY st19 "fill:#524487;">
	<!ENTITY st20 "fill:#534F8F;">
	<!ENTITY st21 "fill:#4F5C97;">
	<!ENTITY st22 "fill:#4D649E;">
	<!ENTITY st23 "fill:#4A70A6;">
	<!ENTITY st24 "fill:#4479AC;">
	<!ENTITY st25 "fill:#4181B4;">
	<!ENTITY st26 "fill:#3E8ABB;">
	<!ENTITY st27 "fill:#3591C2;">
]>
<svg version="1.1" id="レイヤー_1" xmlns="http://www.w3.org/2000/svg" xmlns:xlink="http://www.w3.org/1999/xlink" x="0px"
	 y="0px" viewBox="0 0 317 236.3" style="enable-background:new 0 0 317 236.3;" xml:space="preserve">
<g>
	<g>
		<g>
			<path style="&st0;" d="M93.2,80.3c-6.3,0-11.5,5.2-11.5,11.5c0,6.3,5.2,11.5,11.5,11.5c6.3,0,11.5-5.2,11.5-11.5
				C104.7,85.4,99.5,80.3,93.2,80.3z M93.2,105.4c-7.5,0-13.7-6.1-13.7-13.7c0-7.6,6.1-13.7,13.7-13.7c7.5,0,13.7,6.1,13.7,13.7
				C106.9,99.3,100.7,105.4,93.2,105.4z"/>
			<path style="&st0;" d="M93.2,73.2c-10.3,0-18.6,8.4-18.6,18.6c0,10.3,8.4,18.6,18.6,18.6c10.3,0,18.6-8.4,18.6-18.6
				C111.8,81.5,103.5,73.2,93.2,73.2z M93.2,112.6c-11.5,0-20.8-9.3-20.8-20.8c0-11.5,9.3-20.8,20.8-20.8c11.5,0,20.8,9.3,20.8,20.8
				C114,103.3,104.7,112.6,93.2,112.6z"/>
			<path style="&st0;" d="M93.2,66.1c-14.2,0-25.7,11.6-25.7,25.7c0,14.2,11.6,25.7,25.7,25.7c14.2,0,25.7-11.6,25.7-25.7
				C119,77.6,107.4,66.1,93.2,66.1z M93.2,119.7c-15.4,0-27.9-12.5-27.9-27.9c0-15.4,12.5-27.9,27.9-27.9
				c15.4,0,27.9,12.5,27.9,27.9C121.2,107.2,108.6,119.7,93.2,119.7z"/>
			<path style="&st0;" d="M93.3,59c-18.1,0-32.9,14.7-32.9,32.9s14.7,32.9,32.9,32.9s32.9-14.7,32.9-32.9S111.4,59,93.3,59z
				 M93.3,126.9c-19.3,0-35.1-15.7-35.1-35.1s15.7-35.1,35.1-35.1s35.1,15.7,35.1,35.1S112.6,126.9,93.3,126.9z"/>
			<path style="&st0;" d="M93.3,51.9c-22,0-40,17.9-40,40c0,22,17.9,40,40,40s40-17.9,40-40C133.3,69.8,115.3,51.9,93.3,51.9z
				 M93.3,134c-23.3,0-42.2-18.9-42.2-42.2c0-23.3,18.9-42.2,42.2-42.2s42.2,18.9,42.2,42.2C135.5,115.1,116.5,134,93.3,134z"/>
			<path style="&st0;" d="M93.3,44.8c-26,0-47.1,21.1-47.1,47.1S67.3,139,93.3,139c26,0,47.1-21.1,47.1-47.1S119.3,44.8,93.3,44.8z
				 M93.3,141.2c-27.2,0-49.3-22.1-49.3-49.3s22.1-49.3,49.3-49.3c27.2,0,49.3,22.1,49.3,49.3S120.5,141.2,93.3,141.2z"/>
			<path style="&st0;" d="M93.3,37.7c-29.9,0-54.2,24.3-54.2,54.2c0,29.9,24.3,54.2,54.2,54.2s54.2-24.3,54.2-54.2
				C147.6,62,123.2,37.7,93.3,37.7z M93.3,148.3c-31.1,0-56.4-25.3-56.4-56.4c0-31.1,25.3-56.4,56.4-56.4s56.4,25.3,56.4,56.4
				C149.8,123,124.4,148.3,93.3,148.3z"/>
			<path style="&st0;" d="M93.4,30.6C59.5,30.6,32,58.1,32,91.9s27.5,61.4,61.4,61.4c33.8,0,61.4-27.5,61.4-61.4
				S127.2,30.6,93.4,30.6z M93.4,155.5c-35,0-63.5-28.5-63.5-63.5s28.5-63.5,63.5-63.5c35,0,63.5,28.5,63.5,63.5
				S128.4,155.5,93.4,155.5z"/>
			<path style="&st0;" d="M93.4,23.5c-37.8,0-68.5,30.7-68.5,68.5c0,37.8,30.7,68.5,68.5,68.5c37.8,0,68.5-30.7,68.5-68.5
				C161.9,54.2,131.1,23.5,93.4,23.5z M93.4,162.6c-39,0-70.7-31.7-70.7-70.7s31.7-70.7,70.7-70.7S164.1,53,164.1,92
				S132.4,162.6,93.4,162.6z"/>
			<path style="&st0;" d="M93.4,16.4c-41.7,0-75.6,33.9-75.6,75.6c0,41.7,33.9,75.6,75.6,75.6S169,133.7,169,92
				C169,50.3,135.1,16.4,93.4,16.4z M93.4,169.8c-42.9,0-77.8-34.9-77.8-77.8s34.9-77.8,77.8-77.8s77.8,34.9,77.8,77.8
				S136.3,169.8,93.4,169.8z"/>
			<path style="&st0;" d="M93.4,9.3C47.8,9.3,10.7,46.4,10.7,92s37.1,82.7,82.7,82.7c45.6,0,82.7-37.1,82.7-82.7S139,9.3,93.4,9.3z
				 M93.4,176.9c-46.8,0-84.9-38.1-84.9-84.9S46.6,7.1,93.4,7.1c46.8,0,84.9,38.1,84.9,84.9S140.3,176.9,93.4,176.9z"/>
			<path style="&st0;" d="M93.5,2.2C43.9,2.2,3.6,42.5,3.6,92s40.3,89.8,89.8,89.8c49.5,0,89.8-40.3,89.8-89.8S143,2.2,93.5,2.2z
				 M93.5,184.1c-50.7,0-92-41.3-92-92s41.3-92,92-92s92,41.3,92,92S144.2,184.1,93.5,184.1z"/>
		</g>
		<g>
			<path style="&st1;" d="M224.9,80.5c-6.3,0-11.5,5.2-11.5,11.5c0,6.3,5.2,11.5,11.5,11.5s11.5-5.2,11.5-11.5
				C236.4,85.7,231.3,80.5,224.9,80.5z M224.9,105.7c-7.5,0-13.7-6.1-13.7-13.7c0-7.6,6.1-13.7,13.7-13.7s13.7,6.1,13.7,13.7
				C238.6,99.6,232.5,105.7,224.9,105.7z"/>
			<path style="&st1;" d="M224.9,73.4c-10.3,0-18.6,8.4-18.6,18.6s8.4,18.6,18.6,18.6c10.3,0,18.6-8.4,18.6-18.6
				S235.2,73.4,224.9,73.4z M224.9,112.8c-11.5,0-20.8-9.3-20.8-20.8s9.3-20.8,20.8-20.8s20.8,9.3,20.8,20.8
				S236.4,112.8,224.9,112.8z"/>
			<path style="&st1;" d="M224.9,66.3c-14.2,0-25.7,11.6-25.7,25.7c0,14.2,11.6,25.7,25.7,25.7c14.2,0,25.7-11.6,25.7-25.7
				C250.7,77.8,239.1,66.3,224.9,66.3z M224.9,120C209.5,120,197,107.4,197,92c0-15.4,12.5-27.9,27.9-27.9
				c15.4,0,27.9,12.5,27.9,27.9C252.9,107.4,240.3,120,224.9,120z"/>
			<path style="&st1;" d="M224.9,59.2c-18.1,0-32.9,14.7-32.9,32.9s14.7,32.9,32.9,32.9s32.9-14.7,32.9-32.9S243.1,59.2,224.9,59.2z
				 M224.9,127.1c-19.3,0-35.1-15.7-35.1-35.1S205.6,57,224.9,57S260,72.7,260,92S244.3,127.1,224.9,127.1z"/>
			<path style="&st1;" d="M224.9,52c-22,0-40,17.9-40,40c0,22,17.9,40,40,40s40-17.9,40-40C264.9,70,247,52,224.9,52z M224.9,134.2
				c-23.3,0-42.2-18.9-42.2-42.2c0-23.3,18.9-42.2,42.2-42.2s42.2,18.9,42.2,42.2C267.1,115.3,248.2,134.2,224.9,134.2z"/>
			<path style="&st1;" d="M224.9,44.9c-26,0-47.1,21.1-47.1,47.1c0,26,21.1,47.1,47.1,47.1c26,0,47.1-21.1,47.1-47.1
				C272,66.1,250.9,44.9,224.9,44.9z M224.9,141.3c-27.2,0-49.3-22.1-49.3-49.3c0-27.2,22.1-49.3,49.3-49.3s49.3,22.1,49.3,49.3
				C274.2,119.2,252.1,141.3,224.9,141.3z"/>
			<path style="&st1;" d="M224.9,37.8c-29.9,0-54.2,24.3-54.2,54.2s24.3,54.2,54.2,54.2s54.2-24.3,54.2-54.2S254.8,37.8,224.9,37.8z
				 M224.9,148.5c-31.1,0-56.4-25.3-56.4-56.4s25.3-56.4,56.4-56.4s56.4,25.3,56.4,56.4S256,148.5,224.9,148.5z"/>
			<path style="&st1;" d="M224.9,30.7c-33.8,0-61.4,27.5-61.4,61.4c0,33.8,27.5,61.4,61.4,61.4c33.8,0,61.4-27.5,61.4-61.4
				C286.3,58.2,258.8,30.7,224.9,30.7z M224.9,155.6c-35,0-63.5-28.5-63.5-63.5c0-35,28.5-63.5,63.5-63.5S288.5,57,288.5,92
				C288.5,127.1,260,155.6,224.9,155.6z"/>
			<path style="&st1;" d="M224.9,23.6c-37.8,0-68.5,30.7-68.5,68.5c0,37.8,30.7,68.5,68.5,68.5c37.8,0,68.5-30.7,68.5-68.5
				C293.4,54.3,262.7,23.6,224.9,23.6z M224.9,162.7c-39,0-70.7-31.7-70.7-70.7c0-39,31.7-70.7,70.7-70.7s70.7,31.7,70.7,70.7
				C295.6,131,263.9,162.7,224.9,162.7z"/>
			<path style="&st1;" d="M224.9,16.4c-41.7,0-75.6,33.9-75.6,75.6c0,41.7,33.9,75.6,75.6,75.6c41.7,0,75.6-33.9,75.6-75.6
				C300.5,50.3,266.6,16.4,224.9,16.4z M224.9,169.8c-42.9,0-77.8-34.9-77.8-77.8s34.9-77.8,77.8-77.8s77.8,34.9,77.8,77.8
				S267.8,169.8,224.9,169.8z"/>
			<path style="&st1;" d="M224.9,9.3c-45.6,0-82.7,37.1-82.7,82.7c0,45.6,37.1,82.7,82.7,82.7s82.7-37.1,82.7-82.7
				C307.6,46.4,270.5,9.3,224.9,9.3z M224.9,176.9c-46.8,0-84.9-38.1-84.9-84.9s38.1-84.9,84.9-84.9s84.9,38.1,84.9,84.9
				S271.7,176.9,224.9,176.9z"/>
			<path style="&st1;" d="M224.9,2.2c-49.5,0-89.8,40.3-89.8,89.8s40.3,89.8,89.8,89.8c49.5,0,89.8-40.3,89.8-89.8
				S274.5,2.2,224.9,2.2z M224.9,184.1c-50.7,0-92-41.3-92-92s41.3-92,92-92s92,41.3,92,92S275.7,184.1,224.9,184.1z"/>
		</g>
	</g>
	<g>
		<g>
			<path style="&st2;" d="M30,147.4c10.8,0,19.3,8.8,19.3,19.3c0,10.7-8.6,19.8-19.3,19.8H0v-13.5h28.6c3.6,0,6.5-2.6,6.5-6.2
				c0-3.6-2.9-6.2-6.5-6.2h-8.3c-10.6,0-18.9-9-18.9-19.5c0-10.4,8.4-19,18.9-19h26v13.1h-25c-3.4,0-6.1,2.7-6.1,6.1
				c0,3.4,2.7,6.1,6.1,6.1H30z"/>
			<path style="&st2;" d="M143.2,122.1v43c0,5,4.1,9.1,9.2,9.1c5.1,0,9.2-4.1,9.2-9.1v-43h13.7v43c0,12.6-10.2,22.5-23,22.5
				c-12.8,0-22.8-9.9-22.8-22.5v-43H143.2z"/>
			<path style="&st2;" d="M191.9,122.1h11.8l26.6,28.5v-28.5h13.2v65.6l-38.3-42.8v41.7h-13.2V122.1z"/>
			<path style="&st2;" d="M260.5,122.1h23.4c17.4,0,31.3,14.4,31.3,32.2c0,17.7-13.4,32.2-31.3,32.2h-23.4V122.1z M282.9,173.7
				c10.6,0,18.2-8.7,18.2-19.5c0-10.8-7.6-19.5-18.2-19.5h-8.6v39H282.9z"/>
		</g>
		<g>
			<defs>
				
					<ellipse id="SVGID_1_" transform="matrix(0.2298 -0.9732 0.9732 0.2298 -82.523 204.5396)" cx="88" cy="154.4" rx="33.3" ry="33.3"/>
			</defs>
			<clipPath id="SVGID_2_">
				<use xlink:href="#SVGID_1_"  style="overflow:visible;"/>
			</clipPath>
			<g style="&st3;">
				<g>
					<path style="&st4;" d="M39.1,75.3c-43.6,0-79.1,35.5-79.1,79.1c0,43.6,35.5,79.1,79.1,79.1c43.6,0,79.1-35.5,79.1-79.1
						C118.2,110.8,82.7,75.3,39.1,75.3z M39.1,236.6c-45.3,0-82.2-36.9-82.2-82.2s36.9-82.2,82.2-82.2c45.3,0,82.2,36.9,82.2,82.2
						S84.4,236.6,39.1,236.6z"/>
					<path style="&st5;" d="M39.1,81.1c-40.4,0-73.3,32.9-73.3,73.3c0,40.4,32.9,73.3,73.3,73.3c40.4,0,73.3-32.9,73.3-73.3
						C112.4,114,79.5,81.1,39.1,81.1z M39.1,230.8c-42.1,0-76.4-34.3-76.4-76.4C-37.3,112.3-3,78,39.1,78
						c42.1,0,76.4,34.3,76.4,76.4C115.5,196.5,81.2,230.8,39.1,230.8z"/>
					<path style="&st6;" d="M39.1,87c-37.2,0-67.4,30.2-67.4,67.4c0,37.2,30.2,67.4,67.4,67.4c37.2,0,67.4-30.2,67.4-67.4
						C106.5,117.2,76.3,87,39.1,87z M39.1,224.9c-38.9,0-70.5-31.6-70.5-70.5c0-38.9,31.6-70.5,70.5-70.5
						c38.9,0,70.5,31.6,70.5,70.5C109.6,193.3,78,224.9,39.1,224.9z"/>
					<path style="&st7;" d="M39.1,92.8c-34,0-61.6,27.6-61.6,61.6c0,34,27.6,61.6,61.6,61.6c34,0,61.6-27.6,61.6-61.6
						C100.7,120.4,73.1,92.8,39.1,92.8z M39.1,219.1c-35.7,0-64.7-29-64.7-64.7c0-35.7,29-64.7,64.7-64.7c35.7,0,64.7,29,64.7,64.7
						C103.8,190.1,74.8,219.1,39.1,219.1z"/>
					<path style="&st8;" d="M39.1,98.7c-30.7,0-55.7,25-55.7,55.7c0,30.7,25,55.7,55.7,55.7c30.7,0,55.7-25,55.7-55.7
						C94.8,123.7,69.8,98.7,39.1,98.7z M39.1,213.3c-32.5,0-58.9-26.4-58.9-58.9c0-32.4,26.4-58.9,58.9-58.9
						C71.6,95.6,98,122,98,154.4C98,186.9,71.6,213.3,39.1,213.3z"/>
					<path style="&st9;" d="M39.1,104.5c-27.5,0-49.9,22.4-49.9,49.9c0,27.5,22.4,49.9,49.9,49.9c27.5,0,49.9-22.4,49.9-49.9
						C89,126.9,66.6,104.5,39.1,104.5z M39.1,207.4c-29.2,0-53-23.8-53-53c0-29.2,23.8-53,53-53c29.2,0,53,23.8,53,53
						C92.1,183.6,68.3,207.4,39.1,207.4z"/>
					<path style="&st10;" d="M39.1,110.4c-24.3,0-44,19.8-44,44c0,24.3,19.8,44,44,44c24.3,0,44-19.8,44-44
						C83.2,130.1,63.4,110.4,39.1,110.4z M39.1,201.6c-26,0-47.2-21.2-47.2-47.2c0-26,21.2-47.2,47.2-47.2c26,0,47.2,21.2,47.2,47.2
						C86.3,180.4,65.1,201.6,39.1,201.6z"/>
					<path style="&st11;" d="M39.1,116.2c-21.1,0-38.2,17.1-38.2,38.2c0,21.1,17.1,38.2,38.2,38.2c21.1,0,38.2-17.1,38.2-38.2
						C77.3,133.3,60.2,116.2,39.1,116.2z M39.1,195.7c-22.8,0-41.3-18.5-41.3-41.3c0-22.8,18.5-41.3,41.3-41.3
						c22.8,0,41.3,18.5,41.3,41.3C80.4,177.2,61.9,195.7,39.1,195.7z"/>
					<path style="&st12;" d="M39.1,122c-17.8,0-32.4,14.5-32.4,32.4c0,17.8,14.5,32.4,32.4,32.4c17.8,0,32.4-14.5,32.4-32.4
						C71.5,136.6,56.9,122,39.1,122z M39.1,189.9c-19.6,0-35.5-15.9-35.5-35.5c0-19.6,15.9-35.5,35.5-35.5
						c19.6,0,35.5,15.9,35.5,35.5C74.6,174,58.7,189.9,39.1,189.9z"/>
					<path style="&st13;" d="M39.1,127.9c-14.6,0-26.5,11.9-26.5,26.5c0,14.6,11.9,26.5,26.5,26.5c14.6,0,26.5-11.9,26.5-26.5
						C65.6,139.8,53.7,127.9,39.1,127.9z M39.1,184c-16.3,0-29.6-13.3-29.6-29.6c0-16.3,13.3-29.6,29.6-29.6
						c16.3,0,29.6,13.3,29.6,29.6C68.7,170.7,55.4,184,39.1,184z"/>
					<path style="&st14;" d="M39.1,133.7c-11.4,0-20.7,9.3-20.7,20.7c0,11.4,9.3,20.7,20.7,20.7c11.4,0,20.7-9.3,20.7-20.7
						C59.8,143,50.5,133.7,39.1,133.7z M39.1,178.2c-13.1,0-23.8-10.7-23.8-23.8c0-13.1,10.7-23.8,23.8-23.8
						c13.1,0,23.8,10.7,23.8,23.8C62.9,167.5,52.2,178.2,39.1,178.2z"/>
					<path style="&st15;" d="M39.1,139.6c-8.2,0-14.8,6.6-14.8,14.8c0,8.2,6.7,14.8,14.8,14.8c8.2,0,14.8-6.7,14.8-14.8
						C53.9,146.2,47.3,139.6,39.1,139.6z M39.1,172.3c-9.9,0-17.9-8-17.9-17.9c0-9.9,8-17.9,17.9-17.9c9.9,0,17.9,8,17.9,17.9
						C57,164.3,49,172.3,39.1,172.3z"/>
				</g>
				<g>
					<path style="&st16;" d="M136.2,75.3c-43.6,0-79.1,35.5-79.1,79.1c0,43.6,35.5,79.1,79.1,79.1s79.1-35.5,79.1-79.1
						C215.3,110.8,179.8,75.3,136.2,75.3z M136.2,236.6c-45.3,0-82.2-36.9-82.2-82.2s36.9-82.2,82.2-82.2s82.2,36.9,82.2,82.2
						S181.5,236.6,136.2,236.6z"/>
					<path style="&st17;" d="M136.2,81.1c-40.4,0-73.3,32.9-73.3,73.3c0,40.4,32.9,73.3,73.3,73.3s73.3-32.9,73.3-73.3
						C209.4,114,176.6,81.1,136.2,81.1z M136.2,230.8c-42.1,0-76.4-34.3-76.4-76.4C59.8,112.3,94,78,136.2,78
						c42.1,0,76.4,34.3,76.4,76.4C212.5,196.5,178.3,230.8,136.2,230.8z"/>
					<path style="&st18;" d="M136.2,87c-37.2,0-67.4,30.2-67.4,67.4c0,37.2,30.2,67.4,67.4,67.4s67.4-30.2,67.4-67.4
						C203.6,117.2,173.3,87,136.2,87z M136.2,224.9c-38.9,0-70.5-31.6-70.5-70.5c0-38.9,31.6-70.5,70.5-70.5
						c38.9,0,70.5,31.6,70.5,70.5C206.7,193.3,175.1,224.9,136.2,224.9z"/>
					<path style="&st19;" d="M136.2,92.8c-34,0-61.6,27.6-61.6,61.6c0,34,27.6,61.6,61.6,61.6c34,0,61.6-27.6,61.6-61.6
						C197.7,120.4,170.1,92.8,136.2,92.8z M136.2,219.1c-35.7,0-64.7-29-64.7-64.7c0-35.7,29-64.7,64.7-64.7s64.7,29,64.7,64.7
						C200.9,190.1,171.8,219.1,136.2,219.1z"/>
					<path style="&st20;" d="M136.2,98.7c-30.7,0-55.7,25-55.7,55.7c0,30.7,25,55.7,55.7,55.7c30.7,0,55.7-25,55.7-55.7
						C191.9,123.7,166.9,98.7,136.2,98.7z M136.2,213.3c-32.5,0-58.9-26.4-58.9-58.9c0-32.4,26.4-58.9,58.9-58.9S195,122,195,154.4
						C195,186.9,168.6,213.3,136.2,213.3z"/>
					<path style="&st21;" d="M136.2,104.5c-27.5,0-49.9,22.4-49.9,49.9c0,27.5,22.4,49.9,49.9,49.9s49.9-22.4,49.9-49.9
						C186,126.9,163.7,104.5,136.2,104.5z M136.2,207.4c-29.2,0-53-23.8-53-53c0-29.2,23.8-53,53-53c29.2,0,53,23.8,53,53
						C189.2,183.6,165.4,207.4,136.2,207.4z"/>
					<path style="&st22;" d="M136.2,110.4c-24.3,0-44,19.8-44,44c0,24.3,19.8,44,44,44s44-19.8,44-44
						C180.2,130.1,160.4,110.4,136.2,110.4z M136.2,201.6c-26,0-47.2-21.2-47.2-47.2c0-26,21.2-47.2,47.2-47.2s47.2,21.2,47.2,47.2
						C183.3,180.4,162.2,201.6,136.2,201.6z"/>
					<path style="&st23;" d="M136.2,116.2c-21.1,0-38.2,17.1-38.2,38.2c0,21.1,17.1,38.2,38.2,38.2c21.1,0,38.2-17.1,38.2-38.2
						C174.4,133.3,157.2,116.2,136.2,116.2z M136.2,195.7c-22.8,0-41.3-18.5-41.3-41.3c0-22.8,18.5-41.3,41.3-41.3
						s41.3,18.5,41.3,41.3C177.5,177.2,158.9,195.7,136.2,195.7z"/>
					<path style="&st24;" d="M136.2,122c-17.8,0-32.4,14.5-32.4,32.4c0,17.8,14.5,32.4,32.4,32.4s32.4-14.5,32.4-32.4
						C168.5,136.6,154,122,136.2,122z M136.2,189.9c-19.6,0-35.5-15.9-35.5-35.5c0-19.6,15.9-35.5,35.5-35.5
						c19.6,0,35.5,15.9,35.5,35.5C171.6,174,155.7,189.9,136.2,189.9z"/>
					<path style="&st25;" d="M136.2,127.9c-14.6,0-26.5,11.9-26.5,26.5c0,14.6,11.9,26.5,26.5,26.5s26.5-11.9,26.5-26.5
						C162.7,139.8,150.8,127.9,136.2,127.9z M136.2,184c-16.3,0-29.6-13.3-29.6-29.6c0-16.3,13.3-29.6,29.6-29.6
						c16.3,0,29.6,13.3,29.6,29.6C165.8,170.7,152.5,184,136.2,184z"/>
					<path style="&st26;" d="M136.2,133.7c-11.4,0-20.7,9.3-20.7,20.7c0,11.4,9.3,20.7,20.7,20.7c11.4,0,20.7-9.3,20.7-20.7
						C156.8,143,147.6,133.7,136.2,133.7z M136.2,178.2c-13.1,0-23.8-10.7-23.8-23.8c0-13.1,10.7-23.8,23.8-23.8
						s23.8,10.7,23.8,23.8C159.9,167.5,149.3,178.2,136.2,178.2z"/>
					<path style="&st27;" d="M136.2,139.6c-8.2,0-14.8,6.6-14.8,14.8c0,8.2,6.7,14.8,14.8,14.8c8.2,0,14.8-6.7,14.8-14.8
						C151,146.2,144.3,139.6,136.2,139.6z M136.2,172.3c-9.9,0-17.9-8-17.9-17.9c0-9.9,8-17.9,17.9-17.9s17.9,8,17.9,17.9
						C154.1,164.3,146,172.3,136.2,172.3z"/>
				</g>
			</g>
		</g>
		<g>
			<path style="&st2;" d="M17.6,200.1v36.2h-3.4v-36.2h-13v-3.3h29.3v3.3H17.6z"/>
			<path style="&st2;" d="M75.2,236.3v-19.2h-22v19.2h-3.4v-39.5h3.4v17h22v-17h3.4v39.5H75.2z"/>
			<path style="&st2;" d="M100.4,236.3v-39.5h23.4v3.3h-20v13.8h18.1v3.3h-18.1v15.9h20v3.3H100.4z"/>
			<path style="&st2;" d="M170.7,236.3l-5-12.8h-15.6l-5,12.8h-3.6l15.8-39.9h1.2l15.8,39.9H170.7z M157.9,203.3l-6.6,16.9h13.1
				L157.9,203.3z"/>
			<path style="&st2;" d="M206.7,200.1v36.2h-3.4v-36.2h-13v-3.3h29.3v3.3H206.7z"/>
			<path style="&st2;" d="M239,236.3v-39.5h23.4v3.3h-20v13.8h18.1v3.3h-18.1v15.9h20v3.3H239z"/>
			<path style="&st2;" d="M306.9,236.3l-10-18.2h-10v18.2h-3.4v-39.5h12.6c3.8,0,5.9,0.4,8,1.5c3.5,1.8,5.2,4.9,5.2,9.2
				c0,5.7-3.2,9.3-8.9,10.4l10.3,18.5H306.9z M301.9,200.8c-1.3-0.6-2.8-0.7-5.4-0.7h-9.6v14.8h9.6c3,0,4.6-0.2,6-1
				c2.2-1.2,3.4-3.4,3.4-6.4C305.9,204.2,304.5,201.9,301.9,200.8z"/>
		</g>
	</g>
	<g>
		<path style="&st2;" d="M14.7,104.4l-3.8,8.9H0.1L21.4,65l21.2,48.2H31.9l-3.7-8.9H14.7z M21.4,87.1l-3.3,8.2h6.6L21.4,87.1z"/>
		<path style="&st2;" d="M73.9,93.2L89.2,65l9.6,48.2H88.5L85,93l-11.1,21.1L62.8,93l-3.5,20.2H48.9L58.5,65L73.9,93.2z"/>
		<path style="&st2;" d="M120,104.4l-3.8,8.9h-10.8L126.7,65l21.2,48.2h-10.8l-3.7-8.9H120z M126.7,87.1l-3.3,8.2h6.6L126.7,87.1z"
			/>
		<path style="&st2;" d="M152.9,113.3l17.5-37.5h-14.1v-9.9h30.2l-17.7,37.4h16.6v9.9H152.9z"/>
		<path style="&st2;" d="M196.2,65.9h10.2v47.4h-10.2V65.9z"/>
		<path style="&st2;" d="M218.9,65.9h8.7l19.6,21v-21h9.7v48.2l-28.2-31.5v30.7h-9.7V65.9z"/>
		<path style="&st2;" d="M290.8,95v-9.1H315c0,0,0.3,1.5,0.3,3.7c0,13.5-10.1,24.5-24.2,24.5c-13.5,0-24.3-11-24.3-24.5
			c0-13.6,10.8-24.6,24.2-24.6c8.3,0,15,3.9,19.4,9.7l-8.3,6.4c-2.5-3.7-6.6-6.2-11.1-6.2c-7.5,0-13.6,6.6-13.6,14.6
			c0,8,6.2,14.5,13.7,14.5c8.1,0,11.8-4.8,12.7-9.2H290.8z"/>
	</g>
</g>
</svg>
