<?xml version="1.0" encoding="utf-8"?>
<!-- Generator: Adobe Illustrator 22.1.0, SVG Export Plug-In . SVG Version: 6.00 Build 0)  -->
<!DOCTYPE svg PUBLIC "-//W3C//DTD SVG 1.1//EN" "http://www.w3.org/Graphics/SVG/1.1/DTD/svg11.dtd" [
	<!ENTITY st0 "fill:url(#SVGID_1_);">
	<!ENTITY st1 "fill:url(#SVGID_2_);">
	<!ENTITY st2 "fill:url(#SVGID_3_);">
	<!ENTITY st3 "fill:url(#SVGID_4_);">
	<!ENTITY st4 "fill:url(#SVGID_5_);">
	<!ENTITY st5 "fill:url(#SVGID_6_);">
	<!ENTITY st6 "fill:url(#SVGID_7_);">
	<!ENTITY st7 "fill:#E50020;">
	<!ENTITY st8 "fill:#00A63C;">
	<!ENTITY st9 "fill:#004DA0;">
	<!ENTITY st10 "fill:#009FE8;">
]>
<svg version="1.1" id="レイヤー_1" xmlns="http://www.w3.org/2000/svg" xmlns:xlink="http://www.w3.org/1999/xlink" x="0px"
	 y="0px" viewBox="0 0 316 60.8" style="enable-background:new 0 0 316 60.8;" xml:space="preserve">
<g>
	<g>
		<g>
			<g>
				<g>
					<g>
						
							<linearGradient id="SVGID_1_" gradientUnits="userSpaceOnUse" x1="60.891" y1="40.0819" x2="60.891" y2="5.0587" gradientTransform="matrix(1 0 0.1823 1 11.6258 0)">
							<stop  offset="0" style="stop-color:#009FE8"/>
							<stop  offset="0.2599" style="stop-color:#009CE5"/>
							<stop  offset="0.4687" style="stop-color:#0092DC"/>
							<stop  offset="0.6597" style="stop-color:#0081CE"/>
							<stop  offset="0.839" style="stop-color:#0069B9"/>
							<stop  offset="1" style="stop-color:#004DA0"/>
						</linearGradient>
						<path style="&st0;" d="M63.1,0.7h16.9c2.1,0,3.8,0.3,5.3,0.9c1.5,0.6,2.7,1.5,3.7,2.6c0.7,0.8,1.2,1.7,1.5,2.7
							c0.4,1,0.6,2.2,0.6,3.6l0,0.1c0,2.3-0.5,4.1-1.4,5.5c-1,1.4-2.2,2.5-3.6,3.2c2,0.8,3.6,1.9,4.8,3.4c1.2,1.5,1.8,3.5,1.8,6.2
							l0,0.1c0,3.4-1.1,6.1-3.3,8c-2.2,1.9-5.3,2.9-9.2,2.9H63L63.1,0.7z M79,31.1c1.4,0,2.5-0.3,3.3-0.9c0.8-0.6,1.1-1.5,1.1-2.7
							v-0.1c0-1.1-0.4-1.9-1.1-2.6c-0.7-0.6-1.9-1-3.4-1h-7l0,7.2H79z M77.7,16.3c1.4,0,2.5-0.3,3.2-0.8c0.7-0.6,1.1-1.4,1.1-2.6
							l0-0.1c0-1.1-0.3-1.9-1-2.5c-0.7-0.6-1.7-0.9-3.1-0.9h-5.9l0,6.9H77.7z"/>
						
							<linearGradient id="SVGID_2_" gradientUnits="userSpaceOnUse" x1="109.7399" y1="40.0819" x2="109.7399" y2="5.0587" gradientTransform="matrix(1 0 0.1823 1 11.6258 0)">
							<stop  offset="0" style="stop-color:#009FE8"/>
							<stop  offset="0.2599" style="stop-color:#009CE5"/>
							<stop  offset="0.4687" style="stop-color:#0092DC"/>
							<stop  offset="0.6597" style="stop-color:#0081CE"/>
							<stop  offset="0.839" style="stop-color:#0069B9"/>
							<stop  offset="1" style="stop-color:#004DA0"/>
						</linearGradient>
						<path style="&st1;" d="M111.9,0.7h26.5l0,9.2h-17.5l0,5.9h15.8l0,8.6h-15.8l0,6.2h17.7l0,9.2h-26.7L111.9,0.7z"/>
						
							<linearGradient id="SVGID_3_" gradientUnits="userSpaceOnUse" x1="154.6102" y1="40.082" x2="154.6102" y2="5.0587" gradientTransform="matrix(1 0 0.1823 1 11.6258 0)">
							<stop  offset="0" style="stop-color:#009FE8"/>
							<stop  offset="0.2599" style="stop-color:#009CE5"/>
							<stop  offset="0.4687" style="stop-color:#0092DC"/>
							<stop  offset="0.6597" style="stop-color:#0081CE"/>
							<stop  offset="0.839" style="stop-color:#0069B9"/>
							<stop  offset="1" style="stop-color:#004DA0"/>
						</linearGradient>
						<path style="&st2;" d="M171.3,40.6c-3,0-5.8-0.5-8.4-1.6c-2.7-1.1-5-2.7-7-4.9l5.1-7.2c3.3,3.1,6.8,4.7,10.7,4.7
							c1.2,0,2.2-0.2,2.8-0.7c0.6-0.5,1-1.1,1-2v-0.1c0-0.4-0.1-0.8-0.2-1.1c-0.2-0.3-0.4-0.6-0.9-0.9c-0.4-0.3-1-0.6-1.7-0.9
							c-0.7-0.3-1.6-0.6-2.8-0.9c-1.8-0.5-3.4-1-4.9-1.6c-1.5-0.6-2.8-1.3-3.9-2.2c-1.1-0.9-2-2-2.6-3.4c-0.6-1.4-1-3-1-5.1v-0.1
							c0-1.8,0.3-3.5,0.9-5c0.6-1.5,1.4-2.9,2.6-4c1.1-1.1,2.5-2,4-2.6c1.6-0.6,3.3-0.9,5.3-0.9c2.8,0,5.3,0.4,7.6,1.3
							c2.2,0.9,4.2,2.2,6,3.9l-4.6,7.7c-1.5-1.3-3-2.2-4.6-2.9c-1.6-0.7-3.1-1-4.6-1c-1.1,0-1.9,0.2-2.5,0.7
							c-0.6,0.5-0.8,1.1-0.8,1.8v0.1c0,0.4,0.1,0.8,0.3,1.2c0.2,0.3,0.5,0.6,0.9,0.9c0.4,0.3,1,0.6,1.7,0.8c0.7,0.3,1.7,0.6,2.8,0.9
							c1.9,0.5,3.6,1.1,5.1,1.7c1.5,0.7,2.8,1.4,3.9,2.4c1.1,0.9,1.9,2.1,2.4,3.4c0.6,1.3,0.8,2.9,0.8,4.7v0.1c0,2-0.3,3.8-1,5.4
							c-0.6,1.6-1.5,2.9-2.7,4c-1.2,1.1-2.6,1.9-4.2,2.5C175.1,40.3,173.3,40.6,171.3,40.6z"/>
						
							<linearGradient id="SVGID_4_" gradientUnits="userSpaceOnUse" x1="204.2345" y1="40.0819" x2="204.2345" y2="5.0587" gradientTransform="matrix(1 0 0.1823 1 11.6258 0)">
							<stop  offset="0" style="stop-color:#009FE8"/>
							<stop  offset="0.2599" style="stop-color:#009CE5"/>
							<stop  offset="0.4687" style="stop-color:#0092DC"/>
							<stop  offset="0.6597" style="stop-color:#0081CE"/>
							<stop  offset="0.839" style="stop-color:#0069B9"/>
							<stop  offset="1" style="stop-color:#004DA0"/>
						</linearGradient>
						<path style="&st3;" d="M212.3,10.2h-9.9l0-9.5h28.9l0,9.5h-9.9l0,29.7h-9.1L212.3,10.2z"/>
						
							<linearGradient id="SVGID_5_" gradientUnits="userSpaceOnUse" x1="239.8754" y1="40.0819" x2="239.8754" y2="5.0587" gradientTransform="matrix(1 0 0.1823 1 11.6258 0)">
							<stop  offset="0" style="stop-color:#009FE8"/>
							<stop  offset="0.2599" style="stop-color:#009CE5"/>
							<stop  offset="0.4687" style="stop-color:#0092DC"/>
							<stop  offset="0.6597" style="stop-color:#0081CE"/>
							<stop  offset="0.839" style="stop-color:#0069B9"/>
							<stop  offset="1" style="stop-color:#004DA0"/>
						</linearGradient>
						<path style="&st4;" d="M250.6,0.7h9.2l-0.1,39.2h-9.2L250.6,0.7z"/>
						<g>
							
								<linearGradient id="SVGID_6_" gradientUnits="userSpaceOnUse" x1="276.0996" y1="40.082" x2="276.0996" y2="5.0588" gradientTransform="matrix(1 0 0.1823 1 11.6258 0)">
								<stop  offset="0" style="stop-color:#009FE8"/>
								<stop  offset="0.2599" style="stop-color:#009CE5"/>
								<stop  offset="0.4687" style="stop-color:#0092DC"/>
								<stop  offset="0.6597" style="stop-color:#0081CE"/>
								<stop  offset="0.839" style="stop-color:#0069B9"/>
								<stop  offset="1" style="stop-color:#004DA0"/>
							</linearGradient>
							<polygon style="&st5;" points="301.2,0.4 292.4,0.4 278.3,39.9 308.1,19.8 							"/>
							
								<linearGradient id="SVGID_7_" gradientUnits="userSpaceOnUse" x1="277.8167" y1="40.082" x2="277.8167" y2="5.0589" gradientTransform="matrix(1 0 0.1823 1 11.6258 0)">
								<stop  offset="0" style="stop-color:#009FE8"/>
								<stop  offset="0.2599" style="stop-color:#009CE5"/>
								<stop  offset="0.4687" style="stop-color:#0092DC"/>
								<stop  offset="0.6597" style="stop-color:#0081CE"/>
								<stop  offset="0.839" style="stop-color:#0069B9"/>
								<stop  offset="1" style="stop-color:#004DA0"/>
							</linearGradient>
							<polygon style="&st6;" points="278.3,39.9 315.1,39.9 311.2,28.6 							"/>
						</g>
					</g>
				</g>
			</g>
		</g>
		<g>
			<rect y="33.1" style="&st7;" width="40.3" height="6.8"/>
			<rect y="16.7" style="&st8;" width="40.3" height="6.8"/>
			<rect y="0.4" style="&st9;" width="40.3" height="6.8"/>
		</g>
	</g>
	<g>
		<path style="&st10;" d="M0.1,50.5h4.5c1.2,0,2,0.3,2.6,0.9c0.5,0.5,0.7,1,0.7,1.7v0c0,0.3,0,0.6-0.1,0.8c-0.1,0.2-0.2,0.4-0.3,0.6
			C7.4,54.7,7.2,54.8,7,55c-0.2,0.1-0.4,0.3-0.5,0.3c0.3,0.1,0.6,0.2,0.8,0.4c0.2,0.1,0.5,0.3,0.6,0.5c0.2,0.2,0.3,0.4,0.4,0.7
			c0.1,0.3,0.1,0.6,0.1,0.9v0c0,0.5-0.1,0.9-0.3,1.2c-0.2,0.3-0.4,0.6-0.8,0.9c-0.3,0.2-0.7,0.4-1.2,0.5c-0.5,0.1-1,0.2-1.5,0.2H0.1
			V50.5z M4.3,54.7c0.6,0,1-0.1,1.4-0.3c0.3-0.2,0.5-0.6,0.5-1v0c0-0.4-0.2-0.7-0.5-0.9C5.4,52.2,5,52,4.4,52H1.8v2.7H4.3z M4.8,59
			c0.6,0,1.1-0.1,1.4-0.3c0.3-0.2,0.5-0.6,0.5-1v0c0-0.4-0.2-0.8-0.5-1c-0.3-0.2-0.9-0.4-1.6-0.4H1.8V59H4.8z"/>
		<path style="&st10;" d="M14.7,51.9h6.4v1.4h-4.9v2.2h4.4v1.4h-4.4v2.3h5v1.4h-6.5V51.9z"/>
		<path style="&st10;" d="M29.9,60.7c-0.7,0-1.3-0.1-1.9-0.3c-0.6-0.2-1.2-0.6-1.7-1.1l0.9-1.1c0.4,0.4,0.8,0.6,1.3,0.8
			c0.4,0.2,0.9,0.3,1.5,0.3c0.5,0,0.8-0.1,1.1-0.3c0.3-0.2,0.4-0.5,0.4-0.8v0c0-0.2,0-0.3-0.1-0.4c-0.1-0.1-0.2-0.2-0.3-0.3
			c-0.1-0.1-0.3-0.2-0.6-0.3c-0.3-0.1-0.6-0.2-1-0.3c-0.5-0.1-0.9-0.2-1.2-0.4s-0.7-0.3-0.9-0.5c-0.2-0.2-0.4-0.4-0.6-0.7
			s-0.2-0.6-0.2-1v0c0-0.4,0.1-0.7,0.2-1c0.1-0.3,0.4-0.6,0.6-0.8c0.3-0.2,0.6-0.4,0.9-0.5c0.4-0.1,0.8-0.2,1.2-0.2
			c0.6,0,1.2,0.1,1.7,0.3c0.5,0.2,1,0.5,1.4,0.8L31.9,54c-0.4-0.3-0.8-0.5-1.2-0.7c-0.4-0.2-0.8-0.2-1.2-0.2c-0.4,0-0.8,0.1-1,0.3
			c-0.2,0.2-0.4,0.4-0.4,0.7v0c0,0.2,0,0.3,0.1,0.4c0.1,0.1,0.2,0.2,0.3,0.3c0.2,0.1,0.4,0.2,0.6,0.3c0.3,0.1,0.6,0.2,1,0.3
			c0.5,0.1,0.9,0.2,1.2,0.4c0.4,0.1,0.6,0.3,0.9,0.5c0.2,0.2,0.4,0.4,0.5,0.7c0.1,0.3,0.2,0.6,0.2,0.9v0c0,0.4-0.1,0.8-0.2,1.1
			c-0.2,0.3-0.4,0.6-0.6,0.8c-0.3,0.2-0.6,0.4-1,0.5C30.7,60.7,30.3,60.7,29.9,60.7z"/>
		<path style="&st10;" d="M40.7,53.3h-2.8v-1.4H45v1.4h-2.8v7.3h-1.5V53.3z"/>
		<path style="&st10;" d="M63.7,50.5h1.8v10.1h-1.8V50.5z"/>
		<path style="&st10;" d="M72.4,51.9H74l2.6,4.1l2.6-4.1h1.6v8.7h-1.5v-6.3l-2.7,4.1h0l-2.7-4.1v6.2h-1.5V51.9z"/>
		<path style="&st10;" d="M86.9,51.9h1.6l2.6,4.1l2.6-4.1h1.6v8.7H94v-6.3l-2.7,4.1h0l-2.7-4.1v6.2h-1.5V51.9z"/>
		<path style="&st10;" d="M101.5,51.9h6.4v1.4H103v2.2h4.4v1.4H103v2.3h5v1.4h-6.5V51.9z"/>
		<path style="&st10;" d="M113.6,51.9h3.9c0.5,0,1,0.1,1.5,0.2c0.4,0.2,0.8,0.4,1.1,0.6c0.2,0.2,0.4,0.5,0.5,0.8
			c0.1,0.3,0.2,0.7,0.2,1v0c0,0.4-0.1,0.7-0.2,1c-0.1,0.3-0.2,0.5-0.4,0.8c-0.2,0.2-0.4,0.4-0.7,0.6c-0.3,0.2-0.5,0.3-0.8,0.4
			l2.3,3.3h-1.8l-2.1-3h0h-1.9v3h-1.5V51.9z M117.3,56.2c0.5,0,1-0.1,1.3-0.4c0.3-0.3,0.5-0.6,0.5-1.1v0c0-0.5-0.2-0.8-0.5-1.1
			c-0.3-0.2-0.8-0.4-1.3-0.4h-2.2v2.9H117.3z"/>
		<path style="&st10;" d="M129.4,60.7c-0.7,0-1.3-0.1-1.9-0.3c-0.6-0.2-1.2-0.6-1.7-1.1l0.9-1.1c0.4,0.4,0.8,0.6,1.3,0.8
			c0.4,0.2,0.9,0.3,1.5,0.3c0.5,0,0.8-0.1,1.1-0.3c0.3-0.2,0.4-0.5,0.4-0.8v0c0-0.2,0-0.3-0.1-0.4c-0.1-0.1-0.2-0.2-0.3-0.3
			c-0.1-0.1-0.3-0.2-0.6-0.3c-0.3-0.1-0.6-0.2-1-0.3c-0.5-0.1-0.9-0.2-1.2-0.4c-0.4-0.1-0.7-0.3-0.9-0.5c-0.2-0.2-0.4-0.4-0.6-0.7
			s-0.2-0.6-0.2-1v0c0-0.4,0.1-0.7,0.2-1c0.1-0.3,0.4-0.6,0.6-0.8c0.3-0.2,0.6-0.4,0.9-0.5c0.4-0.1,0.8-0.2,1.2-0.2
			c0.6,0,1.2,0.1,1.7,0.3c0.5,0.2,1,0.5,1.4,0.8l-0.8,1.2c-0.4-0.3-0.8-0.5-1.2-0.7c-0.4-0.2-0.8-0.2-1.2-0.2c-0.4,0-0.8,0.1-1,0.3
			c-0.2,0.2-0.4,0.4-0.4,0.7v0c0,0.2,0,0.3,0.1,0.4c0.1,0.1,0.2,0.2,0.3,0.3c0.2,0.1,0.4,0.2,0.6,0.3c0.3,0.1,0.6,0.2,1,0.3
			c0.5,0.1,0.9,0.2,1.2,0.4c0.4,0.1,0.6,0.3,0.9,0.5c0.2,0.2,0.4,0.4,0.5,0.7c0.1,0.3,0.2,0.6,0.2,0.9v0c0,0.4-0.1,0.8-0.2,1.1
			c-0.2,0.3-0.4,0.6-0.6,0.8c-0.3,0.2-0.6,0.4-1,0.5C130.3,60.7,129.8,60.7,129.4,60.7z"/>
		<path style="&st10;" d="M138.1,51.9h1.5v8.7h-1.5V51.9z"/>
		<path style="&st10;" d="M145,51.9h1.7l2.6,6.7l2.6-6.7h1.7l-3.6,8.8h-1.3L145,51.9z"/>
		<path style="&st10;" d="M158.8,51.9h6.4v1.4h-4.9v2.2h4.4v1.4h-4.4v2.3h5v1.4h-6.5V51.9z"/>
		<path style="&st10;" d="M187.8,50.4h1.6l4.5,10.2H192l-1-2.5h-4.8l-1,2.5h-1.8L187.8,50.4z M190.3,56.6l-1.7-4.1l-1.7,4.1H190.3z"
			/>
		<path style="&st10;" d="M203.4,60.7c-0.6,0-1.1-0.1-1.5-0.2c-0.5-0.2-0.8-0.4-1.2-0.7c-0.3-0.3-0.6-0.7-0.7-1.2
			c-0.2-0.5-0.3-1-0.3-1.7v-5h1.5v5c0,0.8,0.2,1.4,0.6,1.9c0.4,0.4,0.9,0.6,1.6,0.6c0.7,0,1.2-0.2,1.6-0.6c0.4-0.4,0.6-1,0.6-1.8v-5
			h1.5v4.9c0,0.6-0.1,1.2-0.3,1.7c-0.2,0.5-0.4,0.9-0.8,1.2s-0.7,0.6-1.2,0.7C204.5,60.7,204,60.7,203.4,60.7z"/>
		<path style="&st10;" d="M213,51.9h3.2c0.7,0,1.3,0.1,1.9,0.3c0.6,0.2,1.1,0.5,1.5,0.9c0.4,0.4,0.7,0.8,1,1.4
			c0.2,0.5,0.3,1.1,0.3,1.7v0c0,0.6-0.1,1.2-0.3,1.7c-0.2,0.5-0.5,1-1,1.4c-0.4,0.4-0.9,0.7-1.5,0.9c-0.6,0.2-1.2,0.3-1.9,0.3H213
			V51.9z M216.2,59.2c0.5,0,0.9-0.1,1.2-0.2c0.4-0.1,0.7-0.4,1-0.6c0.3-0.3,0.5-0.6,0.6-0.9c0.1-0.4,0.2-0.8,0.2-1.2v0
			c0-0.4-0.1-0.8-0.2-1.2c-0.1-0.4-0.3-0.7-0.6-0.9c-0.3-0.3-0.6-0.5-1-0.6c-0.4-0.1-0.8-0.2-1.2-0.2h-1.7v6H216.2z"/>
		<path style="&st10;" d="M226.6,51.9h1.5v8.7h-1.5V51.9z"/>
		<path style="&st10;" d="M238.3,60.8c-0.7,0-1.3-0.1-1.8-0.4c-0.6-0.2-1-0.6-1.4-1c-0.4-0.4-0.7-0.9-0.9-1.4
			c-0.2-0.5-0.3-1.1-0.3-1.7v0c0-0.6,0.1-1.2,0.3-1.7c0.2-0.5,0.5-1,0.9-1.4c0.4-0.4,0.9-0.7,1.4-1c0.6-0.2,1.2-0.4,1.8-0.4
			c0.7,0,1.3,0.1,1.8,0.4c0.6,0.2,1,0.6,1.4,1c0.4,0.4,0.7,0.9,0.9,1.4c0.2,0.5,0.3,1.1,0.3,1.7v0c0,0.6-0.1,1.2-0.3,1.7
			c-0.2,0.5-0.5,1-0.9,1.4c-0.4,0.4-0.9,0.7-1.4,1C239.6,60.6,239,60.8,238.3,60.8z M238.4,59.3c0.4,0,0.8-0.1,1.2-0.2
			c0.4-0.2,0.7-0.4,0.9-0.7c0.3-0.3,0.5-0.6,0.6-1c0.1-0.4,0.2-0.8,0.2-1.2v0c0-0.4-0.1-0.8-0.2-1.2c-0.1-0.4-0.3-0.7-0.6-1
			c-0.3-0.3-0.6-0.5-0.9-0.7c-0.4-0.2-0.8-0.2-1.2-0.2c-0.4,0-0.8,0.1-1.2,0.2s-0.7,0.4-0.9,0.7c-0.3,0.3-0.5,0.6-0.6,1
			c-0.1,0.4-0.2,0.8-0.2,1.2v0c0,0.4,0.1,0.8,0.2,1.2c0.1,0.4,0.3,0.7,0.6,1c0.3,0.3,0.6,0.5,0.9,0.7
			C237.5,59.3,237.9,59.3,238.4,59.3z"/>
		<path style="&st10;" d="M247.8,50.5h2l3.1,7.8l3-7.8h1.9l-4.2,10.2H252L247.8,50.5z"/>
		<path style="&st10;" d="M263.8,51.9h1.5v8.7h-1.5V51.9z"/>
		<path style="&st10;" d="M274.5,60.7c-0.7,0-1.3-0.1-1.9-0.3c-0.6-0.2-1.2-0.6-1.7-1.1l0.9-1.1c0.4,0.4,0.8,0.6,1.3,0.8
			c0.4,0.2,0.9,0.3,1.5,0.3c0.5,0,0.8-0.1,1.1-0.3c0.3-0.2,0.4-0.5,0.4-0.8v0c0-0.2,0-0.3-0.1-0.4c-0.1-0.1-0.2-0.2-0.3-0.3
			c-0.1-0.1-0.3-0.2-0.6-0.3c-0.3-0.1-0.6-0.2-1-0.3c-0.5-0.1-0.9-0.2-1.2-0.4s-0.7-0.3-0.9-0.5c-0.2-0.2-0.4-0.4-0.6-0.7
			s-0.2-0.6-0.2-1v0c0-0.4,0.1-0.7,0.2-1c0.1-0.3,0.4-0.6,0.6-0.8c0.3-0.2,0.6-0.4,0.9-0.5c0.4-0.1,0.8-0.2,1.2-0.2
			c0.6,0,1.2,0.1,1.7,0.3c0.5,0.2,1,0.5,1.4,0.8l-0.8,1.2c-0.4-0.3-0.8-0.5-1.2-0.7c-0.4-0.2-0.8-0.2-1.2-0.2c-0.4,0-0.8,0.1-1,0.3
			c-0.2,0.2-0.4,0.4-0.4,0.7v0c0,0.2,0,0.3,0.1,0.4c0.1,0.1,0.2,0.2,0.3,0.3c0.2,0.1,0.4,0.2,0.6,0.3c0.3,0.1,0.6,0.2,1,0.3
			c0.5,0.1,0.9,0.2,1.2,0.4c0.4,0.1,0.6,0.3,0.9,0.5c0.2,0.2,0.4,0.4,0.5,0.7c0.1,0.3,0.2,0.6,0.2,0.9v0c0,0.4-0.1,0.8-0.2,1.1
			c-0.2,0.3-0.4,0.6-0.6,0.8c-0.3,0.2-0.6,0.4-1,0.5C275.4,60.7,275,60.7,274.5,60.7z"/>
		<path style="&st10;" d="M286.7,60.7c-0.6,0-1.1-0.1-1.5-0.2c-0.5-0.2-0.8-0.4-1.2-0.7c-0.3-0.3-0.6-0.7-0.7-1.2
			c-0.2-0.5-0.3-1-0.3-1.7v-5h1.5v5c0,0.8,0.2,1.4,0.6,1.9c0.4,0.4,0.9,0.6,1.6,0.6c0.7,0,1.2-0.2,1.6-0.6c0.4-0.4,0.6-1,0.6-1.8v-5
			h1.5v4.9c0,0.6-0.1,1.2-0.3,1.7c-0.2,0.5-0.4,0.9-0.8,1.2s-0.7,0.6-1.2,0.7C287.8,60.7,287.3,60.7,286.7,60.7z"/>
		<path style="&st10;" d="M299.4,51.8h1.4l3.8,8.8H303l-0.9-2.1H298l-0.9,2.1h-1.6L299.4,51.8z M301.6,57.1l-1.5-3.5l-1.5,3.5H301.6
			z"/>
		<path style="&st10;" d="M309.9,51.9h1.5v7.3h4.6v1.4h-6.1V51.9z"/>
	</g>
</g>
</svg>
