<?xml version="1.0" encoding="utf-8"?>
<!-- Generator: Adobe Illustrator 22.1.0, SVG Export Plug-In . SVG Version: 6.00 Build 0)  -->
<!DOCTYPE svg PUBLIC "-//W3C//DTD SVG 1.1//EN" "http://www.w3.org/Graphics/SVG/1.1/DTD/svg11.dtd" [
	<!ENTITY st0 "fill:#303030;">
]>
<svg version="1.1" id="レイヤー_1" xmlns="http://www.w3.org/2000/svg" xmlns:xlink="http://www.w3.org/1999/xlink" x="0px"
	 y="0px" viewBox="0 0 50 50" style="enable-background:new 0 0 50 50;" xml:space="preserve">
<path style="&st0;" d="M40.1,42c-1,0-1.9,0.4-2.6,1L13.7,26.3c0.2-0.4,0.3-0.9,0.3-1.4c0-0.5-0.1-0.9-0.3-1.4L37.5,7
	c0.7,0.6,1.6,1,2.6,1c2.2,0,4-1.8,4-4c0-2.2-1.8-4-4-4c-2.2,0-4,1.8-4,4c0,0.5,0.1,0.9,0.3,1.4L12.5,21.9c-0.7-0.6-1.6-1-2.6-1
	c-2.2,0-4,1.8-4,4c0,2.2,1.8,4,4,4c1,0,1.9-0.4,2.6-1l23.9,16.7c-0.2,0.4-0.3,0.9-0.3,1.4c0,2.2,1.8,4,4,4c2.2,0,4-1.8,4-4
	C44.1,43.8,42.3,42,40.1,42z"/>
</svg>
