<?xml version="1.0" encoding="utf-8"?>
<!-- Generator: Adobe Illustrator 22.1.0, SVG Export Plug-In . SVG Version: 6.00 Build 0)  -->
<!DOCTYPE svg PUBLIC "-//W3C//DTD SVG 1.1//EN" "http://www.w3.org/Graphics/SVG/1.1/DTD/svg11.dtd" [
	<!ENTITY st0 "fill:#B4B4B5;">
]>
<svg version="1.1" id="レイヤー_1" xmlns="http://www.w3.org/2000/svg" xmlns:xlink="http://www.w3.org/1999/xlink" x="0px"
	 y="0px" width="50px" height="50px" viewBox="0 0 50 50" style="enable-background:new 0 0 50 50;" xml:space="preserve">
<g>
	<g>
		<path style="&st0;" d="M23.2,17v-4.4c0-0.8,0.7-1.5,1.5-1.5l0,0c0.8,0,1.5,0.7,1.5,1.5l0,0V17c0,0.8-0.7,1.5-1.5,1.5l0,0
			C23.8,18.5,23.2,17.8,23.2,17L23.2,17z"/>
	</g>
	<g>
		<path style="&st0;" d="M2.8,37.9l0.1-1.5c0.6-11.6,10.1-20.8,21.8-20.8l0,0l0,1.5l0-1.5c11.7,0.1,21.2,9.2,21.8,20.8l0,0l0.1,1.5
			H2.8L2.8,37.9z M43.3,34.9c-1.2-9.3-9.1-16.4-18.7-16.5l0,0c-9.6,0-17.5,7.2-18.7,16.5l0,0H43.3L43.3,34.9z"/>
	</g>
	<g>
		<path style="&st0;" d="M14.9,44.3h2.9c0,1.5,1.2,2.7,2.7,2.7l0,0c1.5,0,2.7-1.2,2.7-2.7l0,0v-6.9h2.9v6.9c0,3.1-2.5,5.7-5.7,5.7
			l0,0C17.4,49.9,14.9,47.4,14.9,44.3L14.9,44.3z"/>
	</g>
	<g>
		<path style="&st0;" d="M43.2,14.1c-0.5-0.2-0.8-0.8-0.6-1.3l0,0l2.8-7.4c0.2-0.5,0.8-0.8,1.3-0.6l0,0c0.5,0.2,0.8,0.8,0.6,1.3l0,0
			l-2.8,7.4c-0.1,0.4-0.5,0.6-0.9,0.6l0,0C43.4,14.2,43.3,14.1,43.2,14.1L43.2,14.1z"/>
	</g>
	<g>
		<path style="&st0;" d="M36.7,15.3c-0.5-0.2-0.8-0.8-0.6-1.3l0,0l2.8-7.4c0.2-0.5,0.8-0.8,1.3-0.6l0,0c0.5,0.2,0.8,0.8,0.6,1.3l0,0
			l-2.8,7.4c-0.2,0.4-0.5,0.6-0.9,0.6l0,0C36.9,15.4,36.8,15.3,36.7,15.3L36.7,15.3z"/>
	</g>
	<g>
		<path style="&st0;" d="M18.2,11.2c-0.5-0.2-0.8-0.8-0.6-1.3l0,0l2.8-7.4C20.7,2,21.2,1.8,21.8,2l0,0c0.5,0.2,0.8,0.8,0.6,1.3l0,0
			l-2.8,7.4c-0.1,0.4-0.5,0.6-0.9,0.6l0,0C18.5,11.2,18.3,11.2,18.2,11.2L18.2,11.2z"/>
	</g>
	<g>
		<path style="&st0;" d="M3.7,10C3.2,9.8,2.9,9.3,3.1,8.8l0,0l2.8-7.4c0.2-0.5,0.8-0.8,1.3-0.6l0,0C7.7,1,8,1.6,7.8,2.1l0,0L5,9.5
			C4.8,9.9,4.4,10.1,4,10.1l0,0C3.9,10.1,3.8,10.1,3.7,10L3.7,10z"/>
	</g>
	<g>
		<path style="&st0;" d="M8.9,15.7c-0.5-0.2-0.8-0.8-0.6-1.3l0,0L11.2,7c0.2-0.5,0.8-0.8,1.3-0.6l0,0C13,6.7,13.2,7.2,13,7.7l0,0
			l-2.8,7.4c-0.2,0.4-0.5,0.6-0.9,0.6l0,0C9.2,15.7,9,15.7,8.9,15.7L8.9,15.7z"/>
	</g>
	<g>
		<path style="&st0;" d="M31.4,9.3c-0.5-0.2-0.8-0.8-0.6-1.3l0,0l2.8-7.4c0.2-0.5,0.8-0.8,1.3-0.6l0,0c0.5,0.2,0.8,0.8,0.6,1.3l0,0
			l-2.8,7.4c-0.2,0.4-0.5,0.6-0.9,0.6l0,0C31.6,9.4,31.5,9.4,31.4,9.3L31.4,9.3z"/>
	</g>
</g>
</svg>
