<?xml version="1.0" encoding="utf-8"?>
<!-- Generator: Adobe Illustrator 22.1.0, SVG Export Plug-In . SVG Version: 6.00 Build 0)  -->
<!DOCTYPE svg PUBLIC "-//W3C//DTD SVG 1.1//EN" "http://www.w3.org/Graphics/SVG/1.1/DTD/svg11.dtd" [
	<!ENTITY st0 "fill:#B4B4B5;">
]>
<svg version="1.1" id="レイヤー_1" xmlns="http://www.w3.org/2000/svg" xmlns:xlink="http://www.w3.org/1999/xlink" x="0px"
	 y="0px" width="50px" height="50px" viewBox="0 0 50 50" style="enable-background:new 0 0 50 50;" xml:space="preserve">
<g>
	<path style="&st0;" d="M16.3,47C16.3,47,16.2,47,16.3,47c-3.3-2.8-5.6-6.6-6.6-10.7c0,0,0,0,0-0.1c0,0,0,0,0.1,0
		c4.1,1,7.9,3.4,10.6,6.7c0,0,0,0.1,0,0.1C19.5,44.7,18.1,46.1,16.3,47C16.3,47,16.3,47,16.3,47z"/>
	<path style="&st0;" d="M34,46.1C34,46.1,33.9,46.1,34,46.1c-2.5-1.3-4.4-3.2-5.7-5.6c0,0,0-0.1,0-0.1c3.8-4.5,8.9-7.7,14.6-9.1
		c0,0,0.1,0,0.1,0c0,0,0,0.1,0,0.1C41.6,37,38.5,42.2,34,46.1C34,46.1,34,46.1,34,46.1z"/>
	<path style="&st0;" d="M26.1,32.9c0-0.2-0.2-0.4-0.4-0.4h-2.5c-0.2,0-0.4,0.2-0.4,0.4v16.7c0,0.2,0.2,0.4,0.4,0.4h2.5
		c0.2,0,0.4-0.2,0.4-0.4V32.9L26.1,32.9L26.1,32.9z"/>
	<path style="&st0;" d="M39.6,0C39.3,0,39.1,0,39,0.2l-6.2,10l-0.3,0.4c0,0,0,0,0,0c0,0.1-0.1,0.1-0.2,0.1c-0.1,0-0.1,0-0.2-0.1
		c0,0,0,0,0-0.1l-0.3-0.4l-6.8-9.9C24.8,0.1,24.6,0,24.5,0c0,0,0,0,0,0c-0.2,0-0.3,0.1-0.4,0.2l-6.4,9.8l-0.3,0.5l-0.1,0.1
		c0,0-0.1,0.1-0.2,0.1c-0.1,0-0.1,0-0.2-0.1c0,0,0,0,0,0l-0.3-0.5L9.9,0.3C9.8,0.1,9.6,0,9.3,0.1C9.1,0.1,9,0.3,9,0.6V17
		c0,0.6,0.1,1.2,0.1,1.2c1.5,7.3,7.9,12.5,15.4,12.5c7.3,0,13.7-5.1,15.3-12.2c0,0,0.2-0.6,0.2-1.4V0.5C39.9,0.3,39.8,0.1,39.6,0z"
		/>
</g>
</svg>
