<?xml version="1.0" encoding="utf-8"?>
<!-- Generator: Adobe Illustrator 22.1.0, SVG Export Plug-In . SVG Version: 6.00 Build 0)  -->
<!DOCTYPE svg PUBLIC "-//W3C//DTD SVG 1.1//EN" "http://www.w3.org/Graphics/SVG/1.1/DTD/svg11.dtd" [
	<!ENTITY st0 "fill:#B4B4B5;">
]>
<svg version="1.1" id="レイヤー_1" xmlns="http://www.w3.org/2000/svg" xmlns:xlink="http://www.w3.org/1999/xlink" x="0px"
	 y="0px" width="50px" height="50px" viewBox="0 0 50 50" style="enable-background:new 0 0 50 50;" xml:space="preserve">
<path style="&st0;" d="M49.3,4.8C43.9,1.7,35,1,29.6,1.5c-8.3,0.8-14.5,3.8-19.1,9.2c-3.4,4-5.3,9.4-5.1,14.6
	c0.3,7.8,5.1,14.7,12.4,17.5c-2.5,0.9-5.2,1.5-7.9,1.5c-3.1,0.1-5.7-0.4-8.4-1.3c0,0-0.3-0.1-0.6-0.1c-0.6,0.1-1.1,0.7-1,1.3
	c0.1,0.5,0.6,0.9,0.7,0.9c5.4,3.1,14.3,3.8,19.7,3.3c8.3-0.8,14.5-3.8,19.1-9.2c3.4-4,5.3-9.4,5.1-14.6c-0.3-7.8-5.1-14.7-12.4-17.5
	c2.5-1,5.2-1.5,7.9-1.5l-0.1,0l0.1,0C43.1,5.5,45.7,6,48.4,7c0,0,0.3,0.1,0.6,0.1c0.6-0.1,1.1-0.7,1-1.3C49.9,5.2,49.4,4.8,49.3,4.8
	z M34.4,23c0.9,3.2,0.5,6.4-1.3,9.9c-1.2,2.3-3.8,5.6-6.4,6.9c0,0-0.3,0.1-0.5,0c-0.3-0.1-0.4-0.4-0.3-0.7c0.1-0.1,0.2-0.2,0.2-0.2
	c1.1-0.8,1.9-1.7,2.7-3l0,0l0,0c0.7-1.1,1.2-2.3,1.4-3.5c-3,2.1-7,2.2-10.1,0.3c-2.1-1.3-3.8-3.4-4.4-5.8c-0.9-3.2-0.5-6.4,1.3-9.9
	c1.2-2.3,3.8-5.6,6.4-6.9c0,0,0.3-0.1,0.5,0c0.3,0.1,0.4,0.4,0.3,0.7C24.1,11,24,11.1,24,11.1c-1.1,0.8-1.9,1.7-2.7,3
	c-0.7,1.1-1.2,2.3-1.4,3.5c3-2.1,7-2.2,10.1-0.3C32.1,18.5,33.7,20.7,34.4,23z"/>
</svg>
