<?xml version="1.0" encoding="utf-8"?>
<!-- Generator: Adobe Illustrator 22.1.0, SVG Export Plug-In . SVG Version: 6.00 Build 0)  -->
<!DOCTYPE svg PUBLIC "-//W3C//DTD SVG 1.1//EN" "http://www.w3.org/Graphics/SVG/1.1/DTD/svg11.dtd" [
	<!ENTITY st0 "fill:#B4B4B5;">
]>
<svg version="1.1" id="レイヤー_1" xmlns="http://www.w3.org/2000/svg" xmlns:xlink="http://www.w3.org/1999/xlink" x="0px"
	 y="0px" width="50px" height="50px" viewBox="0 0 50 50" style="enable-background:new 0 0 50 50;" xml:space="preserve">
<g>
	<path style="&st0;" d="M23.5,23.4l0.3-0.5L38.9,2.3C39,2.1,39,2,38.9,1.9c-0.1-0.1-0.3-0.1-0.4,0L2.4,31c-0.1,0.1-0.1,0.2-0.1,0.3
		c0,0.1,0.1,0.2,0.2,0.2h11h1.1c0.1,0,0.3,0.1,0.3,0.3c0,0.1,0,0.1-0.1,0.2c0,0,0,0,0,0l-0.5,0.6L0.1,48c-0.1,0.1-0.1,0.3,0,0.4
		c0.1,0.1,0.1,0.1,0.2,0.1c0.1,0,0.1,0,0.2-0.1l32.9-24.1c0.1-0.1,0.1-0.2,0.1-0.3c0-0.1-0.1-0.2-0.2-0.2h-8.7h-0.8l0,0
		c-0.2,0-0.3-0.1-0.3-0.3C23.4,23.5,23.4,23.5,23.5,23.4C23.5,23.4,23.5,23.4,23.5,23.4z"/>
	<path style="&st0;" d="M49.7,30.3L49.7,30.3l-8.3,0l0,0c-0.2,0-0.3-0.1-0.3-0.3c0-0.1,0-0.1,0.1-0.2l7.1-9.4l0,0
		c0-0.1,0.1-0.1,0.1-0.2c0-0.2-0.1-0.3-0.3-0.3c-0.1,0-0.1,0-0.2,0.1l0,0L29.4,34.7l0,0c-0.1,0.1-0.1,0.2-0.1,0.3
		c0,0.2,0.1,0.3,0.3,0.3l0,0l0,0l5.1,0c0.2,0,0.3,0.1,0.3,0.3c0,0.1,0,0.1-0.1,0.2l0,0l-9.2,9.9l0,0c0,0.1-0.1,0.1-0.1,0.2
		c0,0.2,0.1,0.3,0.3,0.3c0.1,0,0.1,0,0.2,0l0,0l23.7-15.2l0,0c0.1-0.1,0.1-0.2,0.1-0.3C50,30.5,49.8,30.3,49.7,30.3z"/>
</g>
</svg>
