<?xml version="1.0" encoding="utf-8"?>
<!-- Generator: Adobe Illustrator 22.1.0, SVG Export Plug-In . SVG Version: 6.00 Build 0)  -->
<!DOCTYPE svg PUBLIC "-//W3C//DTD SVG 1.1//EN" "http://www.w3.org/Graphics/SVG/1.1/DTD/svg11.dtd" [
	<!ENTITY st0 "fill:#B4B4B5;">
]>
<svg version="1.1" id="レイヤー_1" xmlns="http://www.w3.org/2000/svg" xmlns:xlink="http://www.w3.org/1999/xlink" x="0px"
	 y="0px" width="50px" height="50px" viewBox="0 0 50 50" style="enable-background:new 0 0 50 50;" xml:space="preserve">
<path style="&st0;" d="M41.9,19.3c-0.1-1-1.3-11.2-12.9-13.1c-11.1-1-15.6,7.6-16.3,10.9C8.3,16.8,1.1,18.9,0,27.4
	c-0.7,12.5,12.1,15,17,11.7c2,1.8,4.9,4.2,10.6,4.2c4.9-0.4,6.8-1.9,8.4-3.1c4.5,1.3,12.4-0.4,13.8-8.9
	C50.7,22.4,43.6,19.8,41.9,19.3z M46.6,30.8c-1.2,5.9-6.3,7.4-10.1,6.1c-1.4-0.5-1.9,0.3-2.5,0.8c-1.9,1.3-2.7,2-6.7,2.4
	c-4.7,0-7.1-2.3-8.7-4c-1.1-0.9-1.5-0.6-2.7,0.1c-2.6,1.8-10.4,2.4-12.5-5.5c-1.3-7.7,6.2-11.1,10-9.9c1.8,0.3,2.2-0.5,2.4-2
	c0.5-2.7,3.6-9.9,12.9-9.1c9.7,1.6,10.1,10.7,10.1,10.7c0,1.3,0.5,2,1.6,2.2C41.7,22.4,47.2,24.3,46.6,30.8z"/>
</svg>
