<?xml version="1.0" encoding="utf-8"?>
<!-- Generator: Adobe Illustrator 22.1.0, SVG Export Plug-In . SVG Version: 6.00 Build 0)  -->
<!DOCTYPE svg PUBLIC "-//W3C//DTD SVG 1.1//EN" "http://www.w3.org/Graphics/SVG/1.1/DTD/svg11.dtd" [
	<!ENTITY st0 "fill:#FFFFFF;">
]>
<svg version="1.1" id="レイヤー_1" xmlns="http://www.w3.org/2000/svg" xmlns:xlink="http://www.w3.org/1999/xlink" x="0px"
	 y="0px" width="1042px" height="584.6px" viewBox="0 0 1042 584.6" style="enable-background:new 0 0 1042 584.6;"
	 xml:space="preserve">
<g>
	<g>
		<g>
			<g>
				<path style="&st0;" d="M1042,584.6L748.7,428.2V156.4L1042,0V584.6z M754.5,424.7l281.6,150.2V9.7L754.5,159.9V424.7z"/>
				<path style="&st0;" d="M1013.1,505.5L762.5,402.9V181.7l250.6-102.6V505.5z M768.3,399l238.9,97.8V87.8l-238.9,97.8V399z"/>
				<path style="&st0;" d="M987.9,434.6l-207.9-59.3v-166L987.9,150V434.6z M785.9,370.9l196.2,56V157.7l-196.2,56V370.9z"/>
				<path style="&st0;" d="M966.6,370.6L801.4,344V240.6L966.6,214V370.6z M807.3,339l153.4,24.8V220.8l-153.4,24.8V339z"/>
				<g>
					<path style="&st0;" d="M895.1,295.2h-25.1c-1.6,0-2.9-1.3-2.9-2.9c0-1.6,1.3-2.9,2.9-2.9h25.1c1.6,0,2.9,1.3,2.9,2.9
						C898,293.9,896.7,295.2,895.1,295.2z"/>
					<path style="&st0;" d="M882.5,323.1c-1.6,0-2.9-1.3-2.9-2.9v-55.7c0-1.6,1.3-2.9,2.9-2.9s2.9,1.3,2.9,2.9v55.7
						C885.4,321.8,884.1,323.1,882.5,323.1z"/>
				</g>
			</g>
		</g>
		<g>
			<g>
				<path style="&st0;" d="M0,584.6V0l293.3,156.4v271.8L0,584.6z M5.8,9.7v565.1l281.6-150.2V159.9L5.8,9.7z"/>
				<path style="&st0;" d="M28.9,505.5V79.1l250.6,102.6v221.2L28.9,505.5z M34.8,87.8v408.9L273.7,399V185.6L34.8,87.8z
					 M276.6,400.9L276.6,400.9L276.6,400.9z"/>
				<path style="&st0;" d="M54.1,434.6V150l207.9,59.3v166L54.1,434.6z M59.9,157.7v269.1l196.2-56V213.7L59.9,157.7z M259,373.1
					L259,373.1L259,373.1z"/>
				<path style="&st0;" d="M75.4,370.6V214l165.1,26.7V344L75.4,370.6z M81.3,220.8v142.9L234.7,339v-93.4L81.3,220.8z M237.6,341.5
					L237.6,341.5L237.6,341.5z"/>
				<g>
					<path style="&st0;" d="M172.1,295.2h-25.1c-1.6,0-2.9-1.3-2.9-2.9c0-1.6,1.3-2.9,2.9-2.9h25.1c1.6,0,2.9,1.3,2.9,2.9
						C175,293.9,173.7,295.2,172.1,295.2z"/>
					<path style="&st0;" d="M159.5,323.1c-1.6,0-2.9-1.3-2.9-2.9v-55.7c0-1.6,1.3-2.9,2.9-2.9s2.9,1.3,2.9,2.9v55.7
						C162.4,321.8,161.1,323.1,159.5,323.1z"/>
				</g>
			</g>
		</g>
		<g>
			<path style="&st0;" d="M518.3,398.6C410.9,398.6,322.7,297,321.8,296l-2.2-2.5l2.2-2.5c0.9-1,89.1-102.6,196.6-102.6
				c107.5,0,195.7,101.6,196.6,102.6l2.2,2.5l-2.2,2.5C714,297,625.8,398.6,518.3,398.6z M330,293.4c14.3,15.6,93.9,97.3,188.4,97.3
				c94.5,0,174.1-81.8,188.4-97.3c-14.3-15.6-93.9-97.4-188.4-97.4C423.9,196.1,344.3,277.9,330,293.4z"/>
		</g>
		<g>
			<path style="&st0;" d="M518.3,395.1c-56.1,0-101.7-45.6-101.7-101.7c0-56.1,45.6-101.7,101.7-101.7
				c56.1,0,101.7,45.6,101.7,101.7C620,349.5,574.4,395.1,518.3,395.1z M518.3,199.5c-51.8,0-93.9,42.1-93.9,93.9
				s42.1,93.9,93.9,93.9c51.8,0,93.9-42.1,93.9-93.9S570.1,199.5,518.3,199.5z"/>
		</g>
		<g>
			<g>
				<polygon style="&st0;" points="365.4,192.6 357.6,192.6 357.6,140.3 406.9,140.3 406.9,148.1 365.4,148.1 				"/>
			</g>
			<g>
				<polygon style="&st0;" points="679,191.1 671.2,191.1 671.2,149.6 626.7,149.6 626.7,141.8 679,141.8 				"/>
			</g>
		</g>
		<g>
			<g>
				<polygon style="&st0;" points="679,445.4 629.7,445.4 629.7,437.6 671.2,437.6 671.2,393.1 679,393.1 				"/>
			</g>
			<g>
				<polygon style="&st0;" points="409.9,443.9 357.6,443.9 357.6,394.6 365.4,394.6 365.4,436.1 409.9,436.1 				"/>
			</g>
		</g>
		<g>
			<path style="&st0;" d="M518.3,362c-37.8,0-68.5-30.7-68.5-68.5c0-37.8,30.7-68.5,68.5-68.5s68.5,30.7,68.5,68.5
				C586.9,331.2,556.1,362,518.3,362z M518.3,228.8c-35.6,0-64.6,29-64.6,64.6s29,64.6,64.6,64.6s64.6-29,64.6-64.6
				S554,228.8,518.3,228.8z"/>
		</g>
		<g>
			<path style="&st0;" d="M518.3,328.9c-19.6,0-35.5-15.9-35.5-35.5c0-19.6,15.9-35.5,35.5-35.5s35.5,15.9,35.5,35.5
				C553.9,313,537.9,328.9,518.3,328.9z M518.3,265.7c-15.3,0-27.7,12.4-27.7,27.7c0,15.3,12.4,27.7,27.7,27.7
				c15.3,0,27.7-12.4,27.7-27.7C546.1,278.1,533.6,265.7,518.3,265.7z"/>
		</g>
		<g>
			<g>
				<rect x="513.5" y="175.9" style="&st0;" width="7.8" height="68.2"/>
			</g>
			<g>
				<rect x="400.8" y="290.5" style="&st0;" width="68.2" height="7.8"/>
			</g>
			<g>
				<rect x="515.4" y="342.8" style="&st0;" width="7.8" height="68.2"/>
			</g>
			<g>
				<rect x="567.7" y="288.5" style="&st0;" width="68.2" height="7.8"/>
			</g>
		</g>
	</g>
</g>
</svg>
