<?xml version="1.0" encoding="utf-8"?>
<!-- Generator: Adobe Illustrator 22.1.0, SVG Export Plug-In . SVG Version: 6.00 Build 0)  -->
<!DOCTYPE svg PUBLIC "-//W3C//DTD SVG 1.1//EN" "http://www.w3.org/Graphics/SVG/1.1/DTD/svg11.dtd" [
	<!ENTITY st0 "fill:#FFFFFF;">
]>
<svg version="1.1" id="レイヤー_1" xmlns="http://www.w3.org/2000/svg" xmlns:xlink="http://www.w3.org/1999/xlink" x="0px"
	 y="0px" width="1038.7px" height="589.7px" viewBox="0 0 1038.7 589.7" style="enable-background:new 0 0 1038.7 589.7;"
	 xml:space="preserve">
<g>
	<g>
		<g>
			<g>
				<path style="&st0;" d="M735.4,431.9H303.3V157.8h432.1V431.9z M307.1,428.1h424.5V161.6H307.1V428.1z"/>
			</g>
			<g>
				<g>
					<g>
						<rect x="726.3" y="290.7" style="&st0;" width="8.5" height="26.2"/>
					</g>
					<g>
						<rect x="711.5" y="290.7" style="&st0;" width="8.5" height="26.2"/>
					</g>
					<g>
						<rect x="696.7" y="290.7" style="&st0;" width="8.5" height="26.2"/>
					</g>
					<g>
						<rect x="681.5" y="290.7" style="&st0;" width="8.5" height="26.2"/>
					</g>
				</g>
			</g>
			<g>
				<g>
					<g>
						
							<rect x="305.1" y="290.7" transform="matrix(-1 -4.037360e-11 4.037360e-11 -1 618.6993 607.7108)" style="&st0;" width="8.5" height="26.2"/>
					</g>
					<g>
						
							<rect x="319.9" y="290.7" transform="matrix(-1 -4.656865e-11 4.656865e-11 -1 648.2467 607.7108)" style="&st0;" width="8.5" height="26.2"/>
					</g>
					<g>
						
							<rect x="334.6" y="290.7" transform="matrix(-1 -4.656865e-11 4.656865e-11 -1 677.7941 607.7108)" style="&st0;" width="8.5" height="26.2"/>
					</g>
					<g>
						
							<rect x="349.9" y="290.7" transform="matrix(-1 -4.656865e-11 4.656865e-11 -1 708.2947 607.7108)" style="&st0;" width="8.5" height="26.2"/>
					</g>
				</g>
			</g>
			<g>
				<g>
					<path style="&st0;" d="M514.6,351.8c-31.7,0-57.5-25.8-57.5-57.5s25.8-57.5,57.5-57.5s57.5,25.8,57.5,57.5
						S546.4,351.8,514.6,351.8z M514.6,242.6c-28.5,0-51.7,23.2-51.7,51.7s23.2,51.7,51.7,51.7c28.5,0,51.7-23.2,51.7-51.7
						S543.1,242.6,514.6,242.6z"/>
				</g>
				<g>
					<polygon style="&st0;" points="539.4,294.3 489.9,265.7 489.9,322.9 					"/>
				</g>
			</g>
		</g>
	</g>
	<g>
		<g>
			<g>
				<polygon style="&st0;" points="0,589.7 0,582.5 3.9,582.5 3.9,583.1 4.5,582.8 6.3,586.3 				"/>
			</g>
			<g>
				<path style="&st0;" d="M13.2,582.6l-1.9-3.4l6.9-3.7l1.9,3.4L13.2,582.6z M27,575.1l-1.9-3.4l6.9-3.7l1.9,3.4L27,575.1z
					 M40.8,567.7l-1.9-3.4l6.9-3.7l1.9,3.4L40.8,567.7z M54.6,560.2l-1.9-3.4l6.9-3.7l1.9,3.4L54.6,560.2z M68.4,552.8l-1.9-3.4
					l6.9-3.7l1.9,3.4L68.4,552.8z M82.2,545.3l-1.9-3.4l6.9-3.7l1.9,3.4L82.2,545.3z M96,537.9l-1.9-3.4l6.9-3.7l1.9,3.4L96,537.9z
					 M109.8,530.4l-1.9-3.4l6.9-3.7l1.9,3.4L109.8,530.4z M123.6,523l-1.9-3.4l6.9-3.7l1.9,3.4L123.6,523z M137.4,515.5l-1.9-3.4
					l6.9-3.7l1.9,3.4L137.4,515.5z M151.2,508.1l-1.9-3.4l6.9-3.7l1.9,3.4L151.2,508.1z M165,500.6l-1.9-3.4l6.9-3.7l1.9,3.4
					L165,500.6z M178.8,493.2l-1.9-3.4l6.9-3.7l1.9,3.4L178.8,493.2z M192.6,485.7l-1.9-3.4l6.9-3.7l1.9,3.4L192.6,485.7z
					 M206.4,478.3l-1.9-3.4l6.9-3.7l1.9,3.4L206.4,478.3z M220.2,470.8l-1.9-3.4l6.9-3.7l1.9,3.4L220.2,470.8z M234,463.4l-1.9-3.4
					l6.9-3.7l1.9,3.4L234,463.4z M247.8,455.9l-1.9-3.4l6.9-3.7l1.9,3.4L247.8,455.9z M261.6,448.5l-1.9-3.4l6.9-3.7l1.9,3.4
					L261.6,448.5z M275.4,441l-1.9-3.4l6.9-3.7l1.9,3.4L275.4,441z"/>
			</g>
			<g>
				<polygon style="&st0;" points="289.2,433.6 287.3,430.2 289.8,428.9 289.8,426.1 293.6,426.1 293.6,431.2 				"/>
			</g>
			<g>
				<path style="&st0;" d="M293.6,418.2h-3.9v-8h3.9V418.2z M293.6,402.3h-3.9v-8h3.9V402.3z M293.6,386.3h-3.9v-8h3.9V386.3z
					 M293.6,370.4h-3.9v-8h3.9V370.4z M293.6,354.5h-3.9v-8h3.9V354.5z M293.6,338.6h-3.9v-8h3.9V338.6z M293.6,322.7h-3.9v-8h3.9
					V322.7z M293.6,306.8h-3.9v-8h3.9V306.8z M293.6,290.9h-3.9v-8h3.9V290.9z M293.6,274.9h-3.9v-8h3.9V274.9z M293.6,259h-3.9v-8
					h3.9V259z M293.6,243.1h-3.9v-8h3.9V243.1z M293.6,227.2h-3.9v-8h3.9V227.2z M293.6,211.3h-3.9v-8h3.9V211.3z M293.6,195.4h-3.9
					v-8h3.9V195.4z M293.6,179.5h-3.9v-8h3.9V179.5z"/>
			</g>
			<g>
				<polygon style="&st0;" points="293.6,163.6 289.8,163.6 289.8,160.8 287.3,159.5 289.2,156.1 293.6,158.5 				"/>
			</g>
			<g>
				<path style="&st0;" d="M280.4,155.8l-6.9-3.7l1.9-3.4l6.9,3.7L280.4,155.8z M266.6,148.4l-6.9-3.7l1.9-3.4l6.9,3.7L266.6,148.4z
					 M252.8,140.9l-6.9-3.7l1.9-3.4l6.9,3.7L252.8,140.9z M239,133.5l-6.9-3.7l1.9-3.4l6.9,3.7L239,133.5z M225.2,126l-6.9-3.7
					l1.9-3.4l6.9,3.7L225.2,126z M211.4,118.6l-6.9-3.7l1.9-3.4l6.9,3.7L211.4,118.6z M197.6,111.1l-6.9-3.7l1.9-3.4l6.9,3.7
					L197.6,111.1z M183.8,103.7l-6.9-3.7l1.9-3.4l6.9,3.7L183.8,103.7z M170,96.2l-6.9-3.7l1.9-3.4l6.9,3.7L170,96.2z M156.3,88.8
					l-6.9-3.7l1.9-3.4l6.9,3.7L156.3,88.8z M142.5,81.3l-6.9-3.7l1.9-3.4l6.9,3.7L142.5,81.3z M128.6,73.9l-6.9-3.7l1.9-3.4l6.9,3.7
					L128.6,73.9z M114.8,66.4l-6.9-3.7l1.9-3.4l6.9,3.7L114.8,66.4z M101,59l-6.9-3.7l1.9-3.4l6.9,3.7L101,59z M87.3,51.5l-6.9-3.7
					l1.9-3.4l6.9,3.7L87.3,51.5z M73.5,44.1l-6.9-3.7l1.9-3.4l6.9,3.7L73.5,44.1z M59.7,36.6l-6.9-3.7l1.9-3.4l6.9,3.7L59.7,36.6z
					 M45.9,29.2l-6.9-3.7l1.9-3.4l6.9,3.7L45.9,29.2z M32,21.7L25.2,18l1.9-3.4l6.9,3.7L32,21.7z M18.3,14.3l-6.9-3.7l1.9-3.4
					l6.9,3.7L18.3,14.3z"/>
			</g>
			<g>
				<polygon style="&st0;" points="3.9,7.2 0,7.2 0,0 6.3,3.4 4.5,6.8 3.9,6.5 				"/>
			</g>
			<g>
				<path style="&st0;" d="M3.9,574.6H0v-7.9h3.9V574.6z M3.9,558.9H0V551h3.9V558.9z M3.9,543.1H0v-7.9h3.9V543.1z M3.9,527.3H0
					v-7.9h3.9V527.3z M3.9,511.6H0v-7.9h3.9V511.6z M3.9,495.8H0v-7.9h3.9V495.8z M3.9,480.1H0v-7.9h3.9V480.1z M3.9,464.3H0v-7.9
					h3.9V464.3z M3.9,448.5H0v-7.9h3.9V448.5z M3.9,432.8H0v-7.9h3.9V432.8z M3.9,417H0v-7.9h3.9V417z M3.9,401.2H0v-7.9h3.9V401.2z
					 M3.9,385.5H0v-7.9h3.9V385.5z M3.9,369.7H0v-7.9h3.9V369.7z M3.9,354H0v-7.9h3.9V354z M3.9,338.2H0v-7.9h3.9V338.2z M3.9,322.4
					H0v-7.9h3.9V322.4z M3.9,306.7H0v-7.9h3.9V306.7z M3.9,290.9H0V283h3.9V290.9z M3.9,275.1H0v-7.9h3.9V275.1z M3.9,259.4H0v-7.9
					h3.9V259.4z M3.9,243.6H0v-7.9h3.9V243.6z M3.9,227.8H0V220h3.9V227.8z M3.9,212.1H0v-7.9h3.9V212.1z M3.9,196.3H0v-7.9h3.9
					V196.3z M3.9,180.6H0v-7.9h3.9V180.6z M3.9,164.8H0v-7.9h3.9V164.8z M3.9,149H0v-7.9h3.9V149z M3.9,133.3H0v-7.9h3.9V133.3z
					 M3.9,117.5H0v-7.9h3.9V117.5z M3.9,101.7H0v-7.9h3.9V101.7z M3.9,86H0v-7.9h3.9V86z M3.9,70.2H0v-7.9h3.9V70.2z M3.9,54.5H0
					v-7.9h3.9V54.5z M3.9,38.7H0v-7.9h3.9V38.7z M3.9,22.9H0V15h3.9V22.9z"/>
			</g>
		</g>
		<g>
			<g>
				<path style="&st0;" d="M73.4,74c0-2-1.6-3.6-3.6-3.6H33.6v36.2c0,2,1.6,3.6,3.6,3.6c2,0,3.6-1.6,3.6-3.6V77.6h29.1
					C71.8,77.6,73.4,75.9,73.4,74z"/>
			</g>
			<g>
				<path style="&st0;" d="M83,116.2c0-0.9-0.4-1.8-1.1-2.5L39.7,71.4c-1.4-1.4-3.7-1.4-5.1,0c-1.4,1.4-1.4,3.7,0,5.1l42.2,42.2
					c1.4,1.4,3.7,1.4,5.1,0C82.6,118,83,117.1,83,116.2z"/>
			</g>
		</g>
		<g>
			<g>
				<path style="&st0;" d="M41.1,477.7c-2,0-3.6,1.6-3.6,3.6v36.2h36.2c2,0,3.6-1.6,3.6-3.6c0-2-1.6-3.6-3.6-3.6H44.6v-29.1
					C44.6,479.3,43,477.7,41.1,477.7z"/>
			</g>
			<g>
				<path style="&st0;" d="M83.3,468.1c-0.9,0-1.8,0.4-2.5,1.1l-42.2,42.2c-1.4,1.4-1.4,3.7,0,5.1c1.4,1.4,3.7,1.4,5.1,0l42.2-42.2
					c1.4-1.4,1.4-3.7,0-5.1C85.1,468.5,84.2,468.1,83.3,468.1z"/>
			</g>
		</g>
		<g>
			<g>
				<g>
					<polygon style="&st0;" points="282.6,318.8 276.3,319.9 276.3,286.5 282.6,287.6 					"/>
				</g>
				<g>
					<polygon style="&st0;" points="219.7,274.8 219.7,331.6 201.9,335.9 201.9,369.4 148.4,303.1 201.9,237 201.9,270.5 					"/>
				</g>
				<g>
					<polygon style="&st0;" points="262.6,284 270,285.4 270,321 262.6,322.4 					"/>
				</g>
				<g>
					<polygon style="&st0;" points="249,281.3 257.4,283 257.4,323.4 249,325.2 					"/>
				</g>
				<g>
					<polygon style="&st0;" points="289.9,288.9 293.2,289.4 293.2,317 289.9,317.5 					"/>
				</g>
				<g>
					<polygon style="&st0;" points="235.3,278.4 244.8,280.4 244.8,326 235.3,328.1 					"/>
				</g>
				<g>
					<polygon style="&st0;" points="221.7,275.3 232.3,277.7 232.3,328.7 221.7,331.1 					"/>
				</g>
			</g>
		</g>
		<g>
			<path style="&st0;" d="M270.7,328.7l-3.9,0.7v96.3c0,2.2,1.8,3.9,3.9,3.9c2.2,0,3.9-1.7,3.9-3.9v-98.2c-0.3-0.1-0.6-0.1-0.9-0.2
				C272.9,328,271.9,328.5,270.7,328.7z"/>
			<path style="&st0;" d="M273.7,279c0.3-0.1,0.6,0,1-0.1V160.3c0-2.2-1.8-3.9-3.9-3.9c-2.2,0-3.9,1.7-3.9,3.9V277l3.9,0.7
				C271.8,277.9,272.8,278.4,273.7,279z"/>
			<path style="&st0;" d="M247.2,273.7c0.6,0,1.3-0.2,1.9-0.1l2,0.4V147.7c0-1.9-1.6-3.5-3.5-3.5c-1.9,0-3.5,1.6-3.5,3.5v124.9
				l0.8,0.2C245.8,272.9,246.5,273.3,247.2,273.7z"/>
			<path style="&st0;" d="M247.6,333c-0.2,0-0.4-0.1-0.6-0.1c-0.6,0.3-1.3,0.6-2,0.8l-0.8,0.2v105.3c0,1.9,1.6,3.5,3.5,3.5
				c1.9,0,3.5-1.6,3.5-3.5V332.4l-2,0.4C248.6,332.9,248.1,333,247.6,333z"/>
			<path style="&st0;" d="M227.6,135c0-1.7-1.4-3.1-3.1-3.1s-3.1,1.4-3.1,3.1v132.7l6.1,1.4V135z"/>
			<path style="&st0;" d="M221.4,452.4c0,1.7,1.4,3.1,3.1,3.1s3.1-1.4,3.1-3.1V337.3l-6.1,1.4V452.4z"/>
			<path style="&st0;" d="M201.8,376.8c-0.9,0.3-1.8,0.5-2.6,0.5c-0.2,0-0.3-0.1-0.5-0.1v88.7c0,1.5,1.2,2.6,2.6,2.6
				s2.6-1.2,2.6-2.6v-90.2C203.4,376.1,202.6,376.5,201.8,376.8z"/>
			<path style="&st0;" d="M201.8,229.6c0.8,0.3,1.5,0.7,2.2,1.2V122.3c0-1.5-1.2-2.6-2.6-2.6s-2.6,1.2-2.6,2.6v106.9
				C199.8,229.2,200.8,229.3,201.8,229.6z"/>
			<path style="&st0;" d="M176,479.1c0,1.2,1,2.2,2.2,2.2s2.2-1,2.2-2.2v-120l-4.5-5.4V479.1z"/>
			<path style="&st0;" d="M180.5,109.7c0-1.2-1-2.2-2.2-2.2s-2.2,1-2.2,2.2v143l4.5-5.4V109.7z"/>
			<path style="&st0;" d="M156.9,97c0-1-0.8-1.8-1.8-1.8c-1,0-1.8,0.8-1.8,1.8v182.9l3.6-4.4V97z"/>
			<path style="&st0;" d="M153.3,492.5c0,1,0.8,1.8,1.8,1.8c1,0,1.8-0.8,1.8-1.8V330.8l-3.6-4.4V492.5z"/>
			<path style="&st0;" d="M132,83c-0.8,0-1.4,0.6-1.4,1.4v421.5c0,0.8,0.6,1.4,1.4,1.4s1.4-0.6,1.4-1.4V84.3
				C133.4,83.6,132.7,83,132,83z"/>
			<path style="&st0;" d="M108.8,70.7c-0.5,0-1,0.4-1,1v447.5c0,0.5,0.4,1,1,1s1-0.4,1-1V71.7C109.8,71.1,109.4,70.7,108.8,70.7z"/>
		</g>
	</g>
	<g>
		<g>
			<g>
				<polygon style="&st0;" points="1038.7,589.7 1038.7,582.5 1034.8,582.5 1034.8,583.1 1034.3,582.8 1032.4,586.3 				"/>
			</g>
			<g>
				<path style="&st0;" d="M1018.6,578.8l1.9-3.4l6.9,3.7l-1.9,3.4L1018.6,578.8z M1004.8,571.4l1.9-3.4l6.9,3.7l-1.9,3.4
					L1004.8,571.4z M991,563.9l1.9-3.4l6.9,3.7l-1.9,3.4L991,563.9z M977.2,556.5l1.9-3.4l6.9,3.7l-1.9,3.4L977.2,556.5z M963.4,549
					l1.9-3.4l6.9,3.7l-1.9,3.4L963.4,549z M949.6,541.6l1.9-3.4l6.9,3.7l-1.9,3.4L949.6,541.6z M935.8,534.1l1.9-3.4l6.9,3.7
					l-1.9,3.4L935.8,534.1z M922,526.7l1.9-3.4l6.9,3.7l-1.9,3.4L922,526.7z M908.2,519.2l1.9-3.4l6.9,3.7l-1.9,3.4L908.2,519.2z
					 M894.4,511.8l1.9-3.4l6.9,3.7l-1.9,3.4L894.4,511.8z M880.6,504.4l1.9-3.4l6.9,3.7l-1.9,3.4L880.6,504.4z M866.8,496.9l1.9-3.4
					l6.9,3.7l-1.9,3.4L866.8,496.9z M853,489.5l1.9-3.4l6.9,3.7l-1.9,3.4L853,489.5z M839.2,482l1.9-3.4l6.9,3.7l-1.9,3.4L839.2,482
					z M825.4,474.6l1.9-3.4l6.9,3.7l-1.9,3.4L825.4,474.6z M811.6,467.1l1.9-3.4l6.9,3.7l-1.9,3.4L811.6,467.1z M797.8,459.7
					l1.9-3.4l6.9,3.7l-1.9,3.4L797.8,459.7z M784,452.2l1.9-3.4l6.9,3.7l-1.9,3.4L784,452.2z M770.2,444.8l1.9-3.4l6.9,3.7l-1.9,3.4
					L770.2,444.8z M756.4,437.3l1.9-3.4l6.9,3.7l-1.9,3.4L756.4,437.3z"/>
			</g>
			<g>
				<polygon style="&st0;" points="749.5,433.6 751.4,430.2 749,428.9 749,426.1 745.1,426.1 745.1,431.2 				"/>
			</g>
			<g>
				<path style="&st0;" d="M745.1,410.2h3.9v8h-3.9V410.2z M745.1,394.3h3.9v8h-3.9V394.3z M745.1,378.4h3.9v8h-3.9V378.4z
					 M745.1,362.5h3.9v8h-3.9V362.5z M745.1,346.6h3.9v8h-3.9V346.6z M745.1,330.6h3.9v8h-3.9V330.6z M745.1,314.7h3.9v8h-3.9V314.7
					z M745.1,298.8h3.9v8h-3.9V298.8z M745.1,282.9h3.9v8h-3.9V282.9z M745.1,267h3.9v8h-3.9V267z M745.1,251.1h3.9v8h-3.9V251.1z
					 M745.1,235.2h3.9v8h-3.9V235.2z M745.1,219.3h3.9v8h-3.9V219.3z M745.1,203.3h3.9v8h-3.9V203.3z M745.1,187.4h3.9v8h-3.9V187.4
					z M745.1,171.5h3.9v8h-3.9V171.5z"/>
			</g>
			<g>
				<polygon style="&st0;" points="745.1,163.6 749,163.6 749,160.8 751.4,159.5 749.5,156.1 745.1,158.5 				"/>
			</g>
			<g>
				<path style="&st0;" d="M756.4,152.4l6.9-3.7l1.9,3.4l-6.9,3.7L756.4,152.4z M770.2,144.9l6.9-3.7l1.9,3.4l-6.9,3.7L770.2,144.9z
					 M784,137.5l6.9-3.7l1.9,3.4l-6.9,3.7L784,137.5z M797.8,130l6.9-3.7l1.9,3.4l-6.9,3.7L797.8,130z M811.6,122.6l6.9-3.7l1.9,3.4
					l-6.9,3.7L811.6,122.6z M825.4,115.1l6.9-3.7l1.9,3.4l-6.9,3.7L825.4,115.1z M839.2,107.7l6.9-3.7l1.9,3.4l-6.9,3.7L839.2,107.7
					z M853,100.2l6.9-3.7l1.9,3.4l-6.9,3.7L853,100.2z M866.8,92.8l6.9-3.7l1.9,3.4l-6.9,3.7L866.8,92.8z M880.6,85.3l6.9-3.7
					l1.9,3.4l-6.9,3.7L880.6,85.3z M894.4,77.9l6.9-3.7l1.9,3.4l-6.9,3.7L894.4,77.9z M908.2,70.4l6.9-3.7l1.9,3.4l-6.9,3.7
					L908.2,70.4z M922,63l6.9-3.7l1.9,3.4l-6.9,3.7L922,63z M935.8,55.5l6.9-3.7l1.9,3.4l-6.9,3.7L935.8,55.5z M949.6,48.1l6.9-3.7
					l1.9,3.4l-6.9,3.7L949.6,48.1z M963.4,40.6l6.9-3.7l1.9,3.4l-6.9,3.7L963.4,40.6z M977.2,33.2l6.9-3.7l1.9,3.4l-6.9,3.7
					L977.2,33.2z M991,25.7l6.9-3.7l1.9,3.4l-6.9,3.7L991,25.7z M1004.8,18.3l6.9-3.7l1.9,3.4l-6.9,3.7L1004.8,18.3z M1018.6,10.8
					l6.9-3.7l1.9,3.4l-6.9,3.7L1018.6,10.8z"/>
			</g>
			<g>
				<polygon style="&st0;" points="1034.8,7.2 1038.7,7.2 1038.7,0 1032.4,3.4 1034.3,6.8 1034.8,6.5 				"/>
			</g>
			<g>
				<path style="&st0;" d="M1034.8,566.8h3.9v7.9h-3.9V566.8z M1034.8,551h3.9v7.9h-3.9V551z M1034.8,535.2h3.9v7.9h-3.9V535.2z
					 M1034.8,519.5h3.9v7.9h-3.9V519.5z M1034.8,503.7h3.9v7.9h-3.9V503.7z M1034.8,487.9h3.9v7.9h-3.9V487.9z M1034.8,472.2h3.9
					v7.9h-3.9V472.2z M1034.8,456.4h3.9v7.9h-3.9V456.4z M1034.8,440.7h3.9v7.9h-3.9V440.7z M1034.8,424.9h3.9v7.9h-3.9V424.9z
					 M1034.8,409.1h3.9v7.9h-3.9V409.1z M1034.8,393.4h3.9v7.9h-3.9V393.4z M1034.8,377.6h3.9v7.9h-3.9V377.6z M1034.8,361.8h3.9
					v7.9h-3.9V361.8z M1034.8,346.1h3.9v7.9h-3.9V346.1z M1034.8,330.3h3.9v7.9h-3.9V330.3z M1034.8,314.5h3.9v7.9h-3.9V314.5z
					 M1034.8,298.8h3.9v7.9h-3.9V298.8z M1034.8,283h3.9v7.9h-3.9V283z M1034.8,267.3h3.9v7.9h-3.9V267.3z M1034.8,251.5h3.9v7.9
					h-3.9V251.5z M1034.8,235.7h3.9v7.9h-3.9V235.7z M1034.8,220h3.9v7.9h-3.9V220z M1034.8,204.2h3.9v7.9h-3.9V204.2z
					 M1034.8,188.4h3.9v7.9h-3.9V188.4z M1034.8,172.7h3.9v7.9h-3.9V172.7z M1034.8,156.9h3.9v7.9h-3.9V156.9z M1034.8,141.2h3.9
					v7.9h-3.9V141.2z M1034.8,125.4h3.9v7.9h-3.9V125.4z M1034.8,109.6h3.9v7.9h-3.9V109.6z M1034.8,93.9h3.9v7.9h-3.9V93.9z
					 M1034.8,78.1h3.9V86h-3.9V78.1z M1034.8,62.3h3.9v7.9h-3.9V62.3z M1034.8,46.6h3.9v7.9h-3.9V46.6z M1034.8,30.8h3.9v7.9h-3.9
					V30.8z M1034.8,15h3.9v7.9h-3.9V15z"/>
			</g>
		</g>
		<g>
			<g>
				<path style="&st0;" d="M965.3,74c0-2,1.6-3.6,3.6-3.6h36.2v36.2c0,2-1.6,3.6-3.6,3.6c-2,0-3.6-1.6-3.6-3.6V77.6h-29.1
					C966.9,77.6,965.3,75.9,965.3,74z"/>
			</g>
			<g>
				<path style="&st0;" d="M955.8,116.2c0-0.9,0.4-1.8,1.1-2.5L999,71.4c1.4-1.4,3.7-1.4,5.1,0c1.4,1.4,1.4,3.7,0,5.1l-42.2,42.2
					c-1.4,1.4-3.7,1.4-5.1,0C956.1,118,955.8,117.1,955.8,116.2z"/>
			</g>
		</g>
		<g>
			<g>
				<path style="&st0;" d="M997.7,477.7c2,0,3.6,1.6,3.6,3.6v36.2H965c-2,0-3.6-1.6-3.6-3.6c0-2,1.6-3.6,3.6-3.6h29.1v-29.1
					C994.1,479.3,995.7,477.7,997.7,477.7z"/>
			</g>
			<g>
				<path style="&st0;" d="M955.4,468.1c0.9,0,1.8,0.4,2.5,1.1l42.2,42.2c1.4,1.4,1.4,3.7,0,5.1c-1.4,1.4-3.7,1.4-5.1,0l-42.2-42.2
					c-1.4-1.4-1.4-3.7,0-5.1C953.6,468.5,954.5,468.1,955.4,468.1z"/>
			</g>
		</g>
		<g>
			<g>
				<g>
					<polygon style="&st0;" points="756.1,318.8 762.5,319.9 762.5,286.5 756.1,287.6 					"/>
				</g>
				<g>
					<polygon style="&st0;" points="819.1,274.8 819.1,331.6 836.8,335.9 836.8,369.4 890.3,303.1 836.8,237 836.8,270.5 					"/>
				</g>
				<g>
					<polygon style="&st0;" points="776.1,284 768.7,285.4 768.7,321 776.1,322.4 					"/>
				</g>
				<g>
					<polygon style="&st0;" points="789.8,281.3 781.3,283 781.3,323.4 789.8,325.2 					"/>
				</g>
				<g>
					<polygon style="&st0;" points="748.8,288.9 745.5,289.4 745.5,317 748.8,317.5 					"/>
				</g>
				<g>
					<polygon style="&st0;" points="803.4,278.4 793.9,280.4 793.9,326 803.4,328.1 					"/>
				</g>
				<g>
					<polygon style="&st0;" points="817.1,275.3 806.5,277.7 806.5,328.7 817.1,331.1 					"/>
				</g>
			</g>
		</g>
		<g>
			<path style="&st0;" d="M768,328.7l3.9,0.7v96.3c0,2.2-1.8,3.9-3.9,3.9c-2.2,0-3.9-1.7-3.9-3.9v-98.2c0.3-0.1,0.6-0.1,0.9-0.2
				C765.8,328,766.8,328.5,768,328.7z"/>
			<path style="&st0;" d="M765,279c-0.3-0.1-0.6,0-1-0.1V160.3c0-2.2,1.8-3.9,3.9-3.9c2.2,0,3.9,1.7,3.9,3.9V277l-3.9,0.7
				C766.9,277.9,765.9,278.4,765,279z"/>
			<path style="&st0;" d="M791.5,273.7c-0.6,0-1.3-0.2-1.9-0.1l-2,0.4V147.7c0-1.9,1.6-3.5,3.5-3.5c1.9,0,3.5,1.6,3.5,3.5v124.9
				l-0.8,0.2C792.9,272.9,792.2,273.3,791.5,273.7z"/>
			<path style="&st0;" d="M791.1,333c0.2,0,0.4-0.1,0.6-0.1c0.6,0.3,1.3,0.6,2,0.8l0.8,0.2v105.3c0,1.9-1.6,3.5-3.5,3.5
				c-1.9,0-3.5-1.6-3.5-3.5V332.4l2,0.4C790.1,332.9,790.6,333,791.1,333z"/>
			<path style="&st0;" d="M811.2,135c0-1.7,1.4-3.1,3.1-3.1s3.1,1.4,3.1,3.1v132.7l-6.1,1.4V135z"/>
			<path style="&st0;" d="M817.3,452.4c0,1.7-1.4,3.1-3.1,3.1s-3.1-1.4-3.1-3.1V337.3l6.1,1.4V452.4z"/>
			<path style="&st0;" d="M836.9,376.8c0.9,0.3,1.8,0.5,2.6,0.5c0.2,0,0.3-0.1,0.5-0.1v88.7c0,1.5-1.2,2.6-2.6,2.6
				c-1.5,0-2.6-1.2-2.6-2.6v-90.2C835.4,376.1,836.1,376.5,836.9,376.8z"/>
			<path style="&st0;" d="M836.9,229.6c-0.8,0.3-1.5,0.7-2.2,1.2V122.3c0-1.5,1.2-2.6,2.6-2.6c1.5,0,2.6,1.2,2.6,2.6v106.9
				C839,229.2,837.9,229.3,836.9,229.6z"/>
			<path style="&st0;" d="M862.7,479.1c0,1.2-1,2.2-2.2,2.2c-1.2,0-2.2-1-2.2-2.2v-120l4.5-5.4V479.1z"/>
			<path style="&st0;" d="M858.3,109.7c0-1.2,1-2.2,2.2-2.2c1.2,0,2.2,1,2.2,2.2v143l-4.5-5.4V109.7z"/>
			<path style="&st0;" d="M881.8,97c0-1,0.8-1.8,1.8-1.8s1.8,0.8,1.8,1.8v182.9l-3.6-4.4V97z"/>
			<path style="&st0;" d="M885.4,492.5c0,1-0.8,1.8-1.8,1.8s-1.8-0.8-1.8-1.8V330.8l3.6-4.4V492.5z"/>
			<path style="&st0;" d="M906.8,83c0.8,0,1.4,0.6,1.4,1.4v421.5c0,0.8-0.6,1.4-1.4,1.4s-1.4-0.6-1.4-1.4V84.3
				C905.4,83.6,906,83,906.8,83z"/>
			<path style="&st0;" d="M929.9,70.7c0.5,0,1,0.4,1,1v447.5c0,0.5-0.4,1-1,1c-0.5,0-1-0.4-1-1V71.7
				C928.9,71.1,929.3,70.7,929.9,70.7z"/>
		</g>
	</g>
</g>
</svg>
