<?xml version="1.0" encoding="utf-8"?>
<!-- Generator: Adobe Illustrator 22.1.0, SVG Export Plug-In . SVG Version: 6.00 Build 0)  -->
<!DOCTYPE svg PUBLIC "-//W3C//DTD SVG 1.1//EN" "http://www.w3.org/Graphics/SVG/1.1/DTD/svg11.dtd" [
	<!ENTITY st0 "fill:#FFFFFF;">
]>
<svg version="1.1" id="レイヤー_1" xmlns="http://www.w3.org/2000/svg" xmlns:xlink="http://www.w3.org/1999/xlink" x="0px"
	 y="0px" width="1029.6px" height="584.5px" viewBox="0 0 1029.6 584.5" style="enable-background:new 0 0 1029.6 584.5;"
	 xml:space="preserve">
<g>
	<g>
		<g>
			<g>
				<path style="&st0;" d="M1029.6,584.5l-2.8-1.5L738.5,427.4V157.1L1029.6,0V584.5z M742.4,425.1L1025.7,578V6.5L742.4,159.4
					V425.1z"/>
			</g>
			<g>
				<path style="&st0;" d="M0,584.5V0l2.8,1.5L291,157.1v270.3L0,584.5z M3.9,6.5V578l283.3-152.9V159.4L3.9,6.5z"/>
			</g>
			<g>
				<g>
					<g>
						<g>
							<path style="&st0;" d="M1002,384.5c-7.7-29.3-24.1-48.5-43.1-50.5c-16-1.6-31.2,8.6-40.5,27c-13.1,2.8-23.6,12.5-29.9,26.4
								c3.2,4.3,5.8,9.4,7.7,15.2c0,0,0.1,0.1,0.1,0.1c4-16.6,14.1-28.5,26.9-30l3.5-0.4l1.4-3.2c6.8-15.2,18.2-23.9,29.4-22.8
								c13.9,1.4,26.8,18.3,32.9,43l0.5,1.8l1.4,1.3c14.7,13.3,24.6,43.1,24.6,74.4c0,3.4,2.8,6.2,6.2,6.2c3.4,0,6.2-2.8,6.2-6.2
								C1029.3,433.2,1018.4,400.5,1002,384.5z"/>
							<path style="&st0;" d="M902.2,446.3c0,3.1,2.5,5.7,5.7,5.7s5.7-2.5,5.7-5.7c0-17-6.7-33.9-17.2-43.7
								c-1.2,4.9-1.8,10.1-1.9,15.6C899.2,426,902.2,436.2,902.2,446.3z"/>
							<path style="&st0;" d="M868.8,373.2c-10.3-2.4-20.2,1.5-26.5,10.2c-5.7,0.5-10.9,2.9-15,6.8c-1.9,1.9-3.5,4.2-4.8,6.6
								c3.1,3.2,5.7,7,7.9,11.1c0.8-3.9,2.4-7.2,4.8-9.5c2.7-2.6,6.1-3.7,10-3.7l3.4,0.1l1.7-2.9c3.7-6.3,9.6-9,16-7.6
								c7,1.6,13.6,8.4,17.7,17.8c1.1-5.3,2.6-10.3,4.6-14.8C883.2,380,876.3,375,868.8,373.2z"/>
							<path style="&st0;" d="M888.5,387.4c-2,4.5-3.5,9.5-4.6,14.8c0.7,1.7,1.4,3.4,1.9,5.2l0.5,1.6l1.3,1.1c2.6,2.2,4.8,5,6.8,8.2
								c0-5.5,0.7-10.8,1.9-15.6c0,0-0.1-0.1-0.1-0.1C894.3,396.8,891.7,391.7,888.5,387.4z"/>
							<path style="&st0;" d="M826.4,418.6c1.3,4.1,2.3,8.3,2.3,12.5c0,2.1,1.7,3.9,3.9,3.9s3.9-1.7,3.9-3.9c0-7.9-2.3-16-6.1-23.2
								c-0.4,1.8-0.6,3.6-0.6,5.6C829.8,415.7,828.4,417.7,826.4,418.6z"/>
							<path style="&st0;" d="M819.1,393.6c-4.9-12.7-14.9-22.4-26.3-25.4c-9.6-2.5-18.9-0.3-25,5.9c-6.8-0.4-12.8,1.5-17.2,5.3
								c-4.3,3.8-6.6,9.3-6.6,15.6c0,2.1,1.7,3.9,3.9,3.9s3.9-1.7,3.9-3.9c0-4.1,1.4-7.5,4-9.9c3.1-2.8,7.8-3.9,13.2-3.2l2.1,0.3
								l1.4-1.7c4.1-5.1,11-6.9,18.4-4.9c9.3,2.5,17.5,10.7,21.4,21.6l0.4,1.1l0.9,0.7c2.2,1.7,4.2,3.8,6,6.1c0.7-3,1.7-5.7,3.1-8.2
								C821.4,395.7,820.3,394.6,819.1,393.6z"/>
							<path style="&st0;" d="M822.5,396.8c-1.4,2.5-2.4,5.3-3.1,8.2c3.1,3.9,5.4,8.6,7,13.5c2-0.9,3.3-2.8,3.3-5.1
								c0-2,0.2-3.8,0.6-5.6C828.2,403.8,825.6,400,822.5,396.8z"/>
						</g>
						<path style="&st0;" d="M786.2,331.6c-0.5,0-1.1,0-1.6-0.1c-7.6-0.9-13.6-7.7-13.6-15.3c0-3.8,1.5-7.3,4.2-9.9
							c2.7-2.6,6.2-3.8,10.1-3.7c7.7,0.4,13.9,7.3,13.9,15.3c0,4.1-1.7,8-4.5,10.5C792.3,330.5,789.4,331.6,786.2,331.6z
							 M784.6,310.2c-1.5,0-3,0.6-4.1,1.6c-1.2,1.1-1.8,2.6-1.8,4.3c0,3.7,3.1,7.2,6.8,7.7c1.6,0.2,2.9-0.2,4-1.2
							c1.2-1.1,1.9-2.8,1.9-4.8c0-4-2.9-7.5-6.5-7.6C784.8,310.2,784.7,310.2,784.6,310.2z"/>
						<path style="&st0;" d="M951.8,205.8c-1.3,0-2.6-0.5-3.7-1.4c-2.1-1.8-3.4-5-3.4-8.8c0-6.1,3.1-11.5,7.3-12.4
							c1.7-0.4,3.4,0,4.8,1.1c2.2,1.7,3.5,5.1,3.5,8.9c0,6.3-3.2,11.6-7.3,12.4C952.5,205.8,952.2,205.8,951.8,205.8z M953.3,187.3
							c-0.1,0-0.2,0-0.3,0c-1.9,0.4-4,4.1-4,8.3c0,2.9,1,4.8,1.8,5.5c0.5,0.5,1,0.4,1.2,0.4c1.8-0.4,3.9-4,3.9-8.3
							c0-3.1-1-4.9-1.9-5.6C953.8,187.4,953.5,187.3,953.3,187.3z"/>
						<path style="&st0;" d="M813.3,283.7c-0.7,0-1.5-0.2-2.1-0.6c-1.3-0.8-1.9-2.3-1.7-3.8l2.1-14.4c-3.2-3.3-5.2-5.3-8.8-8.7
							c-1-1-1.4-2.4-1.1-3.7c0.3-1.3,1.4-2.4,2.7-2.8c5-1.4,7.8-2.2,12.3-3.6c2.1-5.2,3.3-8.4,5.6-14.2c0.6-1.4,1.9-2.4,3.5-2.5
							c0,0,0.1,0,0.1,0c1.5,0,2.9,0.9,3.5,2.3c2.2,4.9,3.4,7.7,5.4,12.2c4.2,0.2,7,0.3,11.8,0.6c1.4,0.1,2.7,0.9,3.3,2.2
							c0.6,1.3,0.5,2.8-0.4,3.9c-3.8,5.1-5.8,7.8-9.3,12.2l2.2,15.5c0.2,1.5-0.5,2.9-1.7,3.8c-1.3,0.8-2.9,0.8-4.1,0.1
							c-4.3-2.6-6.7-4-10.5-6.1c-3.9,2.6-6.4,4.3-10.8,7.1C814.8,283.5,814.1,283.7,813.3,283.7z M813,255.2
							c1.7,1.7,3.3,3.3,5.5,5.6c0.8,0.9,1.2,2.1,1,3.3l-1.2,7.8c1.6-1.1,3.3-2.2,5.4-3.6c1.2-0.8,2.8-0.9,4.1-0.2
							c2.3,1.3,4.1,2.3,5.8,3.3l-1.3-9.1c-0.1-1,0.1-2.1,0.8-2.9c2.4-3,4.1-5.2,5.9-7.6c-2.1-0.1-4.1-0.2-6.9-0.3
							c-1.5-0.1-2.8-1-3.4-2.3c-1-2.3-1.8-4.1-2.6-5.9c-0.9,2.2-1.8,4.5-3,7.4c-0.4,1.1-1.4,1.9-2.5,2.3
							C817.6,253.9,815.4,254.5,813,255.2z M819.7,249.2h0.1H819.7z"/>
						<g>
							<path style="&st0;" d="M981.3,161.9c-2.1,0-3.9-1.7-3.9-3.9c0-13.5-2.7-17.5-4.4-18.7c-0.5-0.4-2.1-1.5-6.5-0.1
								c-2,0.6-4.2-0.4-4.9-2.5c-0.1-0.4-0.2-0.8-0.2-1.2c0-1.6,1-3.1,2.7-3.7c6.2-2.1,13.3-7.3,13.3-29.4c0-2.1,1.7-3.9,3.9-3.9
								s3.9,1.7,3.9,3.9c0,12.8,2.4,17.3,4.4,18.7c0.5,0.4,2.1,1.5,6.5,0.1c2-0.7,4.2,0.4,4.9,2.5c0.1,0.4,0.2,0.8,0.2,1.2
								c0,1.6-1,3.1-2.7,3.7c-6.2,2.1-13.3,7.3-13.3,29.4C985.2,160.2,983.5,161.9,981.3,161.9z M976.9,132.6
								c0.2,0.1,0.5,0.3,0.7,0.5c1.2,0.8,2.2,1.9,3.1,3.2c1.2-3,2.8-5.9,5-8.3c-0.2-0.2-0.5-0.3-0.7-0.5c-1.2-0.8-2.2-1.9-3.1-3.2
								C980.7,127.3,979.1,130.1,976.9,132.6z"/>
						</g>
						<path style="&st0;" d="M860.4,179.7c-0.9,0-1.7-0.6-2-1.5c-0.3-1.1,0.3-2.3,1.4-2.7l48.4-15.1c1.1-0.3,2.3,0.3,2.7,1.4
							c0.3,1.1-0.3,2.3-1.4,2.7L861,179.6C860.8,179.7,860.6,179.7,860.4,179.7z"/>
						<path style="&st0;" d="M875.3,191.5c-0.9,0-1.8-0.6-2.1-1.6c-0.3-1.1,0.4-2.3,1.5-2.6l42.8-11.5c1.1-0.3,2.3,0.4,2.6,1.5
							c0.3,1.1-0.4,2.3-1.5,2.6l-42.8,11.5C875.6,191.5,875.5,191.5,875.3,191.5z"/>
						<path style="&st0;" d="M871.6,207.5c-1,0-1.8-0.7-2.1-1.6c-0.3-1.1,0.5-2.3,1.6-2.5L899,197c1.2-0.2,2.3,0.5,2.5,1.6
							c0.3,1.1-0.5,2.3-1.6,2.5l-27.9,6.4C871.9,207.5,871.7,207.5,871.6,207.5z"/>
					</g>
				</g>
			</g>
			<g>
				<path style="&st0;" d="M728.9,428.1H300.6V156.4h428.3V428.1z M304.4,424.4h420.8V160.1H304.4V424.4z"/>
			</g>
			<g>
				<g>
					<g>
						<path style="&st0;" d="M9.4,471.9c-3.4,0-6.2-2.8-6.2-6.2c0-33.4,11-65.9,27.5-81.9c7.8-29.1,24.3-48.3,43.4-50.2
							c15.9-1.6,31.3,8.5,40.6,26.5c17.4,2.4,34.8,9,34.8,41.9c0,3.4-2.8,6.2-6.2,6.2c-3.4,0-6.2-2.8-6.2-6.2c0-23.3-8-28-27.3-30.1
							l-3.5-0.4l-1.4-3.2c-6.8-15.1-18.1-23.7-29.6-22.5c-14,1.4-27,18.2-33.1,42.8l-0.5,1.8l-1.4,1.3c-14.6,13-24.8,43.4-24.8,74
							C15.5,469.2,12.7,471.9,9.4,471.9z"/>
						<path style="&st0;" d="M125.4,450.6c-3.1,0-5.7-2.5-5.7-5.7c0-16.9,6.8-33.8,17.4-43.6c5.1-15.3,15.6-26.3,27.5-29.1
							c10.3-2.3,20.2,1.4,26.5,9.9c6.6,0.3,11.9,2.2,15.7,5.8c4.5,4.3,6.7,10.8,6.7,19.3c0,3.1-2.5,5.7-5.7,5.7
							c-3.1,0-5.7-2.5-5.7-5.7c0-5.3-1.1-9.1-3.2-11.1c-2.1-2-5.5-2.8-10.6-2.7l-3.4,0.1l-1.7-2.9c-3.7-6.1-9.7-8.9-16.1-7.4
							c-8.3,1.9-16.1,10.9-19.8,22.9l-0.5,1.6l-1.3,1.1c-8.7,7.3-14.6,21.8-14.6,36C131,448.1,128.5,450.6,125.4,450.6z"/>
						<path style="&st0;" d="M201.1,433.3c-2.1,0-3.9-1.7-3.9-3.9c0-13.8,7-28.6,17.5-37.2c4.9-12.5,15-22.1,26.4-25.2
							c9.6-2.6,19-0.4,25.1,5.7c6.9-0.4,13.1,1.4,17.5,5.3c4.3,3.8,6.5,9,6.5,15.2c0,2.1-1.7,3.9-3.9,3.9s-3.9-1.7-3.9-3.9
							c0-3.9-1.3-7.2-3.9-9.4c-3.1-2.8-7.9-3.9-13.4-3.2l-2.1,0.3l-1.4-1.6c-4.1-4.9-11.1-6.7-18.6-4.7
							c-9.4,2.5-17.6,10.7-21.5,21.4l-0.4,1.1l-0.9,0.7c-9.2,7-15.3,19.8-15.3,31.7C205,431.5,203.2,433.3,201.1,433.3z"/>
					</g>
					<path style="&st0;" d="M115.9,292.8C115.9,292.8,115.9,292.8,115.9,292.8c-4.4,0-7.8-4.7-7.8-10.6c0-3.4,1.2-6.6,3.2-8.5
						c1.4-1.3,2.8-1.9,4.7-1.9c4.3,0.2,7.7,4.9,7.7,10.6c0,3.3-1.1,6.4-3.1,8.3C119.2,292.1,117.6,292.8,115.9,292.8z M115.7,276
						c-0.5,0-1,0.2-1.5,0.7c-1.2,1.1-1.9,3.2-1.9,5.5c0,3.8,1.9,6.4,3.5,6.4l0,0c0.6,0,1.1-0.3,1.7-0.8c1.1-1.1,1.8-3.2,1.8-5.3
						C119.4,278.8,117.5,276.1,115.7,276C115.8,276,115.8,276,115.7,276z"/>
					<path style="&st0;" d="M83,230.1c-1,0-2-0.4-2.7-1.1c-4.3-4.2-6.8-6.7-10.5-10.6c-3.4,2.4-5.9,4.2-9.9,7.2
						c-1.2,0.9-2.9,1-4.2,0.3c-1.3-0.8-2.1-2.2-1.9-3.8l2.3-22.3c-3.7-6.9-5.8-10.8-9.7-18.3c-0.6-1.2-0.6-2.6,0.1-3.8
						c0.7-1.2,1.9-1.9,3.3-1.9c4.7-0.1,7.5-0.1,11.5-0.1c2-6.3,3.3-10.2,5.5-17.1c0.5-1.6,2.3-2.6,3.8-2.7c1.7,0,3.2,1.2,3.6,2.8
						c2.4,8.6,3.6,13.1,5.9,21c4.7,2.2,7.5,3.5,12.6,5.9c1.1,0.5,1.8,1.4,2.1,2.6c0.3,1.1,0,2.4-0.7,3.3c-3.8,4.9-5.8,7.7-9.4,12.5
						l2.3,21.7c0.2,1.6-0.7,3.2-2.2,3.9C84.1,229.9,83.6,230.1,83,230.1z M70.3,209.4c1,0,2,0.4,2.8,1.2c1.9,2,3.5,3.6,5,5.1
						l-1.3-12.3c-0.1-0.9,0.2-1.9,0.7-2.7c3-4.2,5-6.8,7.4-10c-3.2-1.5-5.8-2.7-9.9-4.6c-1-0.5-1.8-1.4-2.1-2.4
						c-1.2-4.1-2.1-7.3-2.9-10.4c-0.7,2.2-1.5,4.6-2.4,7.5c-0.5,1.6-2,2.7-3.7,2.7c-3.2,0-5.5,0-7.9,0.1c2.4,4.6,4.3,8.1,7.3,13.6
						c0.4,0.7,0.5,1.5,0.5,2.2l-1.5,14.8c1.7-1.2,3.5-2.5,5.8-4.1C68.8,209.7,69.5,209.4,70.3,209.4z"/>
					<path style="&st0;" d="M181.6,320.2c-1.4,0-2.5-1.1-2.6-2.4c-0.1-1.4,1-2.7,2.4-2.8l73.6-5.3c1.4-0.1,2.7,1,2.8,2.4
						c0.1,1.4-1,2.7-2.4,2.8l-73.6,5.3C181.8,320.2,181.7,320.2,181.6,320.2z"/>
					<path style="&st0;" d="M204.3,332.9c-1.3,0-2.4-1-2.6-2.3c-0.2-1.4,0.9-2.7,2.3-2.9l65.1-7.4c1.6-0.1,2.7,0.9,2.9,2.3
						c0.2,1.4-0.9,2.7-2.3,2.9l-65.1,7.4C204.5,332.9,204.4,332.9,204.3,332.9z"/>
					<path style="&st0;" d="M198.6,347c-1.3,0-2.4-0.9-2.6-2.2c-0.2-1.4,0.8-2.8,2.2-3l42.4-6.5c1.4-0.2,2.8,0.8,3,2.2
						c0.2,1.4-0.8,2.8-2.2,3l-42.4,6.5C198.9,346.9,198.8,347,198.6,347z"/>
					<g>
						<path style="&st0;" d="M231.4,251.3c-11.8,0-23.3-8-28.8-21c-4.2-10-4.3-21-0.3-29.5c2.8-5.8,7.4-9.9,12.9-11.5
							c13.4-3.9,30.4,6.3,38,22.7l0,0c3.8,8.2,4.3,16.7,1.4,23.9c-2.5,6.2-7.3,11-13.7,13.6C237.9,250.7,234.7,251.3,231.4,251.3z
							 M221.4,196.1c-1.4,0-2.7,0.2-3.9,0.5c-4.4,1.3-6.8,4.8-8.1,7.5c-3.1,6.4-2.9,15.3,0.4,23.2c5.3,12.7,17.8,19.2,28.4,15
							c4.4-1.8,7.7-5,9.4-9.2c2.1-5.2,1.6-11.5-1.3-17.8l0,0C241.1,204,230.5,196.1,221.4,196.1z"/>
						<path style="&st0;" d="M193.4,246.1c-4.9,0-7.7-1.5-9-4.5c-3.5-8.5,12.8-19,17.9-22c1.8-1.1,4.2-0.5,5.3,1.4
							c1.1,1.8,0.5,4.2-1.4,5.3c-8.6,5.1-13.1,9.9-14.3,12.1c1.8,0.3,6.7,0.2,19.1-3.6c5.8-1.7,12.6-4.1,20.4-7
							c7.3-2.7,13.9-5.3,19.4-7.7c9-3.9,12.7-6.2,14.3-7.5c-2.4-0.6-8.4-1.3-17.9-0.2c-2.2,0.3-4.1-1.3-4.3-3.4
							c-0.3-2.1,1.3-4.1,3.4-4.3c8.7-1,23.7-1.8,26.9,4.9c0.7,1.4,0.8,3.1,0.2,4.6c-1.2,3.2-5,6.6-19.5,12.9
							c-5.7,2.5-12.4,5.1-19.8,7.9c-7.9,2.9-15,5.3-20.9,7.1C204.5,244.7,198,246.1,193.4,246.1z"/>
						<path style="&st0;" d="M239.9,216.8c-1.5,0-2.9-0.9-3.5-2.3c-3.5-7.9-10.4-8.7-13-7.9c-2,0.7-4.2-0.5-4.8-2.5
							c-0.6-2,0.5-4.2,2.6-4.8c6.2-1.9,17.2,0.6,22.4,12.2c0.9,1.9,0,4.2-1.9,5.1C241,216.7,240.4,216.8,239.9,216.8z"/>
					</g>
				</g>
			</g>
			<g>
				<g>
					<g>
						<path style="&st0;" d="M542.9,307.5H490l-1.2-2.5c-6.4-13-10-30.2-10-48.2c0-37.1,25.6-70.5,37.7-70.5
							c12.1,0,37.7,33.3,37.7,70.5c0,18.1-3.6,35.2-10,48.2L542.9,307.5z M495.6,298.6h41.8c5.1-11.5,7.9-26.3,7.9-41.9
							c0-35-23.3-61-28.9-61.6c-5.5,0.6-28.8,26.6-28.8,61.6C487.7,272.4,490.5,287.1,495.6,298.6z"/>
					</g>
				</g>
				<g>
					<g>
						<path style="&st0;" d="M516.5,344.1c-6.6,0-20-11.7-20-25.3c0-6.4,1.9-12.6,5.3-17.3l1.3-1.8h26.6l1.3,1.8
							c3.4,4.7,5.3,10.8,5.3,17.3C536.5,332.4,523.1,344.1,516.5,344.1z M507.8,308.6c-1.6,2.9-2.5,6.5-2.5,10.2
							c0,8.9,9,16,11.3,16.5c1.9-0.5,10.9-7.6,10.9-16.5c0-3.8-0.9-7.3-2.5-10.2H507.8z"/>
					</g>
				</g>
				<g>
					<g>
						<path style="&st0;" d="M516.5,330.6c-5.3,0-14-8.1-14-17.4c0-4.3,1.3-8.5,3.6-11.7l1.3-1.8h18.2l1.3,1.8
							c2.3,3.2,3.6,7.3,3.6,11.7C530.5,322.5,521.8,330.6,516.5,330.6z M512.2,308.6c-0.6,1.4-0.9,3-0.9,4.6c0,3.7,3.4,7.2,5.2,8.3
							c1.8-1.1,5.2-4.6,5.2-8.3c0-1.7-0.3-3.3-0.9-4.6H512.2z"/>
					</g>
				</g>
				<g>
					<path style="&st0;" d="M516.5,257.2c-8.7,0-15.7-7-15.7-15.7s7.1-15.7,15.7-15.7c8.7,0,15.7,7.1,15.7,15.7
						S525.2,257.2,516.5,257.2z M516.5,234.7c-3.8,0-6.9,3.1-6.9,6.9c0,3.8,3.1,6.9,6.9,6.9c3.8,0,6.9-3.1,6.9-6.9
						C523.4,237.7,520.3,234.7,516.5,234.7z"/>
				</g>
				<g>
					<rect x="496.1" y="207.2" style="&st0;" width="40.9" height="8.8"/>
				</g>
				<g>
					<g>
						<path style="&st0;" d="M471.8,329.4l-2.8-5c-15-26.9-2.9-61.9,11.2-75.8l6.2,6.3c-11.4,11.3-20.6,38.3-12.1,59.9l15.5-14.9
							l6.1,6.4L471.8,329.4z"/>
					</g>
					<g>
						<path style="&st0;" d="M561.2,329.4l-24.1-23.2l6.1-6.4l15.5,14.9c8.4-21.6-0.7-48.6-12.1-59.9l6.2-6.3
							c14.1,13.9,26.2,48.9,11.2,75.8L561.2,329.4z"/>
					</g>
				</g>
			</g>
			<g>
				<g>
					<path style="&st0;" d="M456.9,197.1h-99.2c-1.6,0-2.9-1.3-2.9-2.9s1.3-2.9,2.9-2.9h99.2c1.6,0,2.9,1.3,2.9,2.9
						S458.5,197.1,456.9,197.1z"/>
				</g>
				<g>
					<path style="&st0;" d="M422.2,221.5H341c-1.6,0-2.9-1.3-2.9-2.9c0-1.6,1.3-2.9,2.9-2.9h81.2c1.6,0,2.9,1.3,2.9,2.9
						C425.1,220.2,423.8,221.5,422.2,221.5z"/>
				</g>
				<g>
					<path style="&st0;" d="M391.2,257.6h-54.1c-1.6,0-2.9-1.3-2.9-2.9c0-1.6,1.3-2.9,2.9-2.9h54.1c1.6,0,2.9,1.3,2.9,2.9
						C394.1,256.3,392.8,257.6,391.2,257.6z"/>
				</g>
				<g>
					<path style="&st0;" d="M673.4,198.3H609c-1.6,0-2.9-1.3-2.9-2.9c0-1.6,1.3-2.9,2.9-2.9h64.4c1.6,0,2.9,1.3,2.9,2.9
						C676.3,197,675,198.3,673.4,198.3z"/>
				</g>
				<g>
					<path style="&st0;" d="M694,217.7h-46.4c-1.6,0-2.9-1.3-2.9-2.9c0-1.6,1.3-2.9,2.9-2.9H694c1.6,0,2.9,1.3,2.9,2.9
						C696.9,216.4,695.6,217.7,694,217.7z"/>
				</g>
			</g>
			<g>
				<g>
					<path style="&st0;" d="M500.8,385.1c-1.6,0-2.9-1.3-2.9-2.9v-25.8c0-1.6,1.3-2.9,2.9-2.9s2.9,1.3,2.9,2.9v25.8
						C503.7,383.8,502.4,385.1,500.8,385.1z"/>
				</g>
				<g>
					<path style="&st0;" d="M518.8,414.8c-1.6,0-2.9-1.3-2.9-2.9v-46.4c0-1.6,1.3-2.9,2.9-2.9s2.9,1.3,2.9,2.9v46.4
						C521.7,413.5,520.4,414.8,518.8,414.8z"/>
				</g>
				<g>
					<path style="&st0;" d="M533,369.7c-1.6,0-2.9-1.3-2.9-2.9v-21.9c0-1.6,1.3-2.9,2.9-2.9s2.9,1.3,2.9,2.9v21.9
						C535.9,368.4,534.6,369.7,533,369.7z"/>
				</g>
			</g>
		</g>
	</g>
	<g>
		<path style="&st0;" d="M322.9,411.5l1.3-0.7l0.5-1.4c3.1-8.2,10.8-15.2,20.6-19.2c0.8-0.1,1.6-0.4,2.2-1c12.1-4.3,25-3.1,32.8,3.2
			l1.2,0.9l1.5-0.1c13-0.6,23.3,4.6,26.5,13.6c0.7,2,2.9,3.1,4.9,2.3c2-0.7,3.1-2.9,2.3-4.9c-4.2-11.9-16.6-19.1-32.8-18.8
			c-9-6.5-21.9-8.2-34.7-4.8c2.4-13.2,12.6-23.9,26.2-26.5l1.6-0.3l0.9-1.4c6.1-9.6,16.5-15.3,27.8-15.3c12.7,0,24.4,7.5,29.8,19
			l0.6,1.4l1.4,0.6c12.6,5,20.8,17,20.8,30.5c0,2.1,1.7,3.9,3.9,3.9c2.1,0,3.9-1.7,3.9-3.9c0-16.2-9.5-30.6-24.2-37.1
			c-6.9-13.5-20.9-22.1-36.1-22.1c-13.4,0-25.8,6.5-33.4,17.5c-17.4,4-29.9,19-31.1,36.7c-10.7,4.7-19.2,12.5-23.2,21.7
			c-6.7,3.7-11.9,8.7-15.5,14.1v6.8h4.9C310.4,420.6,315.7,415.3,322.9,411.5z"/>
		<path style="&st0;" d="M712.3,339.9c-6.9-13.5-20.9-22.1-36.1-22.1c-13.4,0-25.8,6.5-33.4,17.5c-6.3,1.5-12,4.5-16.8,8.5
			c-4.4-2.6-9.5-4.1-14.7-4.1c-9.3,0-17.9,4.4-23.3,12c-12.6,3.2-21.7,14.6-21.7,27.8c0,2.1,1.7,3.9,3.9,3.9s3.9-1.7,3.9-3.9
			c0-10,7.1-18.7,17-20.5l1.6-0.3l0.9-1.4c3.9-6.1,10.5-9.7,17.7-9.7c3.2,0,6.2,0.9,8.9,2.3c2.4,1.1,4.5,2.6,6.3,4.5
			c1.5,1.6,2.7,3.3,3.7,5.3l0.7,1.4l1.4,0.6c6.5,2.6,10.9,8.1,12.5,14.6c-4.2,2.8-8,6.4-11,10.8c-18.2,4.2-31.3,20.5-31.4,39.3h7.7
			c0.1-15.7,11.3-29.2,26.7-32.1l1.6-0.3l0.9-1.4c2.1-3.3,4.9-6,7.9-8.3c1.9-1.4,3.8-2.7,5.9-3.7c4.3-2,9-3.3,14-3.3
			c12.7,0,24.4,7.5,29.8,19l0.6,1.4l1.4,0.6c11.9,4.7,19.7,15.6,20.6,28.2h7.4v-4c-2.1-13.5-10.9-25.1-23.7-30.8
			c-6.9-13.5-20.9-22.1-36.1-22.1c-5.3,0-10.5,1.1-15.3,3c-2.4-7.6-7.9-14-15.4-17.4c-1.2-2.2-2.7-4.3-4.4-6.1c4-3,8.6-5.3,13.7-6.2
			l1.6-0.3l0.9-1.4c6.1-9.6,16.5-15.3,27.8-15.3c12.7,0,24.4,7.5,29.8,19l0.6,1.4l1.4,0.6c9.2,3.6,15.9,11,19,19.9V351
			C723.1,346.3,718.2,342.5,712.3,339.9z"/>
	</g>
</g>
</svg>
