<?xml version="1.0" encoding="utf-8"?>
<!-- Generator: Adobe Illustrator 23.0.4, SVG Export Plug-In . SVG Version: 6.00 Build 0)  -->
<svg version="1.1" id="レイヤー_1" xmlns="http://www.w3.org/2000/svg" xmlns:xlink="http://www.w3.org/1999/xlink" x="0px"
	 y="0px" width="297.6px" height="32.8px" viewBox="0 0 297.6 32.8" style="enable-background:new 0 0 297.6 32.8;"
	 xml:space="preserve">
<style type="text/css">
	.st0{fill:#A57A43;}
	.st1{fill:#231815;}
</style>
<g>
	<g>
		<path class="st0" d="M55.9,12.8c0,0.3,0,0.6-0.1,0.8c-0.1,0.2-0.1,0.4-0.2,0.6c-0.1,0.2-0.2,0.4-0.3,0.6c-0.1,0.2-0.2,0.3-0.3,0.5
			c-0.1,0.2-0.2,0.3-0.2,0.5c-0.1,0.2-0.1,0.4-0.1,0.6c0,0.2,0,0.3,0.1,0.4c0.1,0.1,0.1,0.3,0.2,0.4c0.1,0.1,0.2,0.3,0.3,0.4
			s0.2,0.3,0.3,0.4c0.1,0.2,0.2,0.3,0.2,0.5c0.1,0.2,0.1,0.4,0.1,0.6c0,0.4-0.1,0.8-0.3,1.2c-0.2,0.4-0.5,0.7-0.8,1
			c-0.4,0.3-0.8,0.5-1.3,0.7c-0.5,0.2-1.1,0.2-1.7,0.2c-0.5,0-1-0.1-1.4-0.2c-0.4-0.1-0.8-0.3-1.1-0.4c-0.3-0.2-0.5-0.4-0.7-0.7
			c-0.2-0.3-0.2-0.6-0.2-0.9c0-0.4,0.1-0.7,0.2-1c0.2-0.3,0.4-0.5,0.6-0.7c0.3-0.2,0.6-0.4,0.9-0.5c0.4-0.1,0.7-0.2,1.1-0.3
			s0.8-0.1,1.2-0.1c0.4,0,0.8,0,1.2,0.1c-0.1-0.1-0.1-0.2-0.1-0.3c0-0.1,0-0.2,0-0.4c0-0.2,0-0.4,0.1-0.6c0.1-0.2,0.1-0.4,0.3-0.6
			C53.5,15.8,53.3,16,53,16c-0.3,0.1-0.6,0.1-0.9,0.1c-0.3,0-0.7-0.1-0.9-0.2c-0.3-0.1-0.6-0.3-0.8-0.5c-0.2-0.2-0.4-0.5-0.5-0.8
			c-0.1-0.3-0.2-0.7-0.2-1.1c0-0.4,0.1-0.8,0.2-1.2c0.2-0.4,0.4-0.8,0.7-1.1c0.3-0.3,0.7-0.6,1.1-0.8c0.4-0.2,0.9-0.3,1.5-0.3
			c0.6,0,1.2,0.2,1.7,0.5h2.4l-0.1,0.5c0,0.2-0.1,0.3-0.3,0.4l-1.1,0.2c0.1,0.2,0.1,0.3,0.1,0.5C55.8,12.4,55.9,12.6,55.9,12.8z
			 M54.2,19.4c0-0.2,0-0.3,0-0.4c0-0.1-0.1-0.3-0.1-0.4c-0.8-0.1-1.4-0.2-2-0.1c-0.6,0-1,0.1-1.4,0.3c-0.4,0.1-0.6,0.3-0.8,0.5
			c-0.2,0.2-0.3,0.5-0.3,0.7c0,0.4,0.2,0.7,0.5,1c0.4,0.2,0.9,0.3,1.5,0.3c0.4,0,0.7-0.1,1.1-0.2c0.3-0.1,0.6-0.2,0.8-0.4
			c0.2-0.2,0.4-0.4,0.5-0.6C54.2,19.9,54.2,19.6,54.2,19.4z M52.5,15.2c0.3,0,0.6-0.1,0.8-0.2c0.2-0.1,0.4-0.3,0.6-0.5
			c0.2-0.2,0.3-0.5,0.4-0.8c0.1-0.3,0.1-0.6,0.1-0.8c0-0.5-0.1-0.9-0.4-1.2c-0.3-0.3-0.6-0.4-1.1-0.4c-0.3,0-0.6,0.1-0.8,0.2
			c-0.2,0.1-0.4,0.3-0.6,0.5c-0.2,0.2-0.3,0.5-0.4,0.7C51.1,13,51,13.3,51,13.6c0,0.5,0.1,0.9,0.4,1.2C51.7,15,52,15.2,52.5,15.2z"
			/>
		<path class="st0" d="M76.2,19.2l1.1-8.8H78c0.4,0,0.5,0.2,0.5,0.5l-0.1,2c0.2-0.5,0.5-0.9,0.8-1.3c0.3-0.4,0.6-0.6,0.9-0.9
			c0.3-0.2,0.6-0.3,0.9-0.4c0.3,0,0.6,0,1,0.1l-0.3,1.5c-0.8-0.3-1.4-0.2-2,0.3c-0.6,0.5-1,1.5-1.4,2.8l-0.5,4.1H76.2z"/>
		<path class="st0" d="M106.7,19.2h-0.8c-0.2,0-0.3-0.1-0.4-0.2c-0.1-0.1-0.1-0.2-0.1-0.4l0.2-1.8c-0.2,0.4-0.4,0.7-0.7,1
			c-0.2,0.3-0.5,0.6-0.8,0.8c-0.3,0.2-0.6,0.4-0.9,0.5c-0.3,0.1-0.6,0.2-0.9,0.2c-0.3,0-0.7-0.1-1-0.2c-0.3-0.1-0.5-0.3-0.7-0.6
			c-0.2-0.3-0.4-0.6-0.5-1s-0.2-0.8-0.2-1.3c0-0.5,0.1-1,0.2-1.5s0.3-1,0.6-1.4c0.2-0.4,0.5-0.8,0.9-1.2c0.3-0.4,0.7-0.7,1.1-1
			c0.4-0.3,0.9-0.5,1.3-0.6c0.5-0.1,1-0.2,1.5-0.2c0.4,0,0.7,0,1.1,0.1c0.4,0.1,0.7,0.2,1.1,0.3L106.7,19.2z M102.9,18
			c0.3,0,0.6-0.1,0.8-0.3c0.3-0.2,0.5-0.4,0.8-0.7c0.2-0.3,0.5-0.7,0.7-1.1c0.2-0.4,0.4-0.9,0.6-1.4l0.4-3c-0.1,0-0.3,0-0.4-0.1
			c-0.1,0-0.2,0-0.4,0c-0.3,0-0.7,0.1-1,0.2c-0.3,0.1-0.6,0.3-0.9,0.5c-0.3,0.2-0.5,0.4-0.8,0.7c-0.2,0.3-0.4,0.6-0.6,0.9
			c-0.2,0.3-0.3,0.7-0.4,1.1c-0.1,0.4-0.1,0.8-0.1,1.2C101.6,17.3,102,18,102.9,18z"/>
		<path class="st0" d="M127.3,19.2l1.1-8.8h0.8c0.3,0,0.5,0.2,0.5,0.5l-0.1,1.7c0.5-0.8,1-1.4,1.6-1.8c0.6-0.4,1.2-0.6,1.8-0.6
			c0.4,0,0.7,0.1,1,0.2c0.3,0.1,0.5,0.4,0.7,0.7c0.2,0.3,0.3,0.6,0.4,1.1c0.1,0.4,0.1,0.9,0,1.4l-0.7,5.6h-1.5l0.7-5.6
			c0.1-0.7,0-1.2-0.1-1.5c-0.2-0.3-0.5-0.5-0.9-0.5c-0.3,0-0.6,0.1-0.9,0.2c-0.3,0.2-0.6,0.4-0.8,0.6c-0.3,0.3-0.5,0.6-0.7,1
			c-0.2,0.4-0.4,0.8-0.6,1.3l-0.5,4.5H127.3z"/>
		<path class="st0" d="M160.5,19.2c-0.2,0-0.3-0.1-0.4-0.2c-0.1-0.1-0.1-0.2-0.1-0.4l0.2-1.9c-0.2,0.4-0.5,0.7-0.7,1
			c-0.3,0.3-0.5,0.6-0.8,0.8c-0.3,0.2-0.6,0.4-0.9,0.5c-0.3,0.1-0.6,0.2-0.9,0.2c-0.8,0-1.3-0.3-1.8-0.8c-0.4-0.5-0.6-1.3-0.6-2.4
			c0-0.5,0-1,0.1-1.4s0.2-0.9,0.4-1.4c0.2-0.4,0.4-0.8,0.7-1.2c0.3-0.4,0.5-0.7,0.9-1c0.3-0.3,0.7-0.5,1-0.6
			c0.4-0.2,0.8-0.2,1.2-0.2c0.4,0,0.8,0.1,1.2,0.3c0.4,0.2,0.7,0.4,0.9,0.7l0.6-4.9h1.5l-1.6,12.8H160.5z M157.4,18
			c0.3,0,0.6-0.1,0.8-0.3c0.3-0.2,0.6-0.4,0.8-0.7c0.3-0.3,0.5-0.7,0.7-1.1c0.2-0.4,0.4-0.9,0.6-1.4l0.3-2.3
			c-0.2-0.3-0.5-0.5-0.8-0.7s-0.6-0.2-0.9-0.2c-0.5,0-0.9,0.1-1.2,0.4c-0.4,0.3-0.7,0.6-0.9,1.1c-0.3,0.4-0.5,0.9-0.6,1.5
			c-0.1,0.5-0.2,1.1-0.2,1.6c0,0.7,0.1,1.2,0.4,1.6C156.6,17.9,156.9,18,157.4,18z"/>
		<path class="st1" d="M187.4,18.4c-0.3,0.2-0.5,0.4-0.8,0.5c-0.3,0.1-0.6,0.2-0.9,0.3s-0.6,0.1-0.9,0.1c-0.5,0-1-0.1-1.4-0.3
			c-0.4-0.2-0.7-0.4-1-0.7s-0.5-0.7-0.6-1.1c-0.1-0.4-0.2-0.9-0.2-1.5c0-0.7,0.1-1.4,0.3-2.1c0.2-0.7,0.5-1.2,0.9-1.7
			c0.4-0.5,0.9-0.9,1.4-1.2c0.6-0.3,1.2-0.5,1.8-0.5c0.6,0,1.1,0.1,1.5,0.3c0.4,0.2,0.7,0.5,1,0.9l-0.5,0.6c0,0-0.1,0.1-0.1,0.1
			c0,0-0.1,0-0.2,0c-0.1,0-0.2,0-0.2-0.1c-0.1-0.1-0.2-0.2-0.3-0.2c-0.1-0.1-0.3-0.2-0.5-0.2c-0.2-0.1-0.4-0.1-0.7-0.1
			c-0.4,0-0.8,0.1-1.1,0.3c-0.4,0.2-0.7,0.5-0.9,0.9c-0.3,0.4-0.5,0.8-0.6,1.3c-0.2,0.5-0.2,1.1-0.2,1.7c0,0.4,0,0.7,0.1,1
			c0.1,0.3,0.2,0.5,0.4,0.8c0.2,0.2,0.4,0.4,0.6,0.5c0.2,0.1,0.5,0.2,0.8,0.2c0.4,0,0.7-0.1,1-0.2c0.3-0.1,0.5-0.2,0.7-0.4
			c0.2-0.1,0.3-0.3,0.5-0.4c0.1-0.1,0.2-0.2,0.4-0.2c0.1,0,0.2,0,0.3,0.1l0.4,0.5C187.9,17.9,187.6,18.2,187.4,18.4z"/>
		<path class="st1" d="M191.9,10.3l-1.1,8.8h-1.5l1.1-8.8H191.9z M192.5,7.6c0,0.2,0,0.3-0.1,0.4c-0.1,0.1-0.1,0.2-0.2,0.3
			c-0.1,0.1-0.2,0.2-0.3,0.2c-0.1,0.1-0.3,0.1-0.4,0.1c-0.1,0-0.3,0-0.4-0.1c-0.1-0.1-0.2-0.1-0.3-0.2c-0.1-0.1-0.2-0.2-0.2-0.3
			c-0.1-0.1-0.1-0.3-0.1-0.4c0-0.2,0-0.3,0.1-0.4c0.1-0.1,0.1-0.3,0.2-0.4c0.1-0.1,0.2-0.2,0.3-0.2c0.1-0.1,0.3-0.1,0.4-0.1
			c0.1,0,0.3,0,0.4,0.1c0.1,0.1,0.2,0.1,0.3,0.2c0.1,0.1,0.2,0.2,0.2,0.4C192.5,7.3,192.5,7.4,192.5,7.6z"/>
		<path class="st1" d="M193.1,19.2l1.1-8.8h0.8c0.3,0,0.5,0.2,0.5,0.5l-0.1,1.7c0.5-0.8,1-1.4,1.6-1.8s1.2-0.6,1.8-0.6
			c0.4,0,0.7,0.1,1,0.2c0.3,0.1,0.5,0.4,0.7,0.7c0.2,0.3,0.3,0.6,0.4,1.1c0.1,0.4,0.1,0.9,0,1.4l-0.7,5.6h-1.5l0.7-5.6
			c0.1-0.7,0-1.2-0.1-1.5c-0.2-0.3-0.5-0.5-0.9-0.5c-0.3,0-0.6,0.1-0.9,0.2c-0.3,0.2-0.6,0.4-0.8,0.6c-0.3,0.3-0.5,0.6-0.7,1
			c-0.2,0.4-0.4,0.8-0.6,1.3l-0.5,4.5H193.1z"/>
		<path class="st1" d="M209.4,12.2c0,0.4-0.1,0.7-0.2,1.1s-0.4,0.6-0.9,0.9c-0.4,0.3-1,0.5-1.7,0.7c-0.7,0.2-1.7,0.3-2.8,0.5
			c0,0.1,0,0.1,0,0.2s0,0.1,0,0.2c0,0.8,0.2,1.4,0.5,1.8c0.3,0.4,0.9,0.6,1.5,0.6c0.3,0,0.5,0,0.7-0.1c0.2-0.1,0.4-0.1,0.6-0.2
			c0.2-0.1,0.3-0.2,0.5-0.3c0.1-0.1,0.2-0.2,0.4-0.3c0.1-0.1,0.2-0.2,0.3-0.2c0.1-0.1,0.2-0.1,0.3-0.1c0.1,0,0.2,0,0.3,0.1l0.4,0.5
			c-0.3,0.3-0.6,0.6-0.9,0.8c-0.3,0.2-0.6,0.4-0.9,0.5c-0.3,0.1-0.6,0.3-0.9,0.3c-0.3,0.1-0.7,0.1-1,0.1c-0.5,0-1-0.1-1.4-0.3
			c-0.4-0.2-0.7-0.4-1-0.7c-0.3-0.3-0.5-0.7-0.6-1.1c-0.2-0.4-0.2-0.9-0.2-1.5c0-0.5,0-0.9,0.1-1.4c0.1-0.5,0.2-0.9,0.4-1.3
			s0.4-0.8,0.7-1.1c0.3-0.3,0.6-0.6,0.9-0.9c0.3-0.3,0.7-0.5,1.1-0.6c0.4-0.1,0.9-0.2,1.3-0.2c0.4,0,0.8,0.1,1.2,0.2
			c0.3,0.1,0.6,0.3,0.8,0.5c0.2,0.2,0.4,0.4,0.5,0.7C209.4,11.8,209.4,12,209.4,12.2z M206.7,11.3c-0.4,0-0.7,0.1-1,0.2
			c-0.3,0.2-0.6,0.4-0.8,0.6c-0.2,0.3-0.4,0.6-0.6,0.9s-0.3,0.7-0.4,1.2c0.9-0.1,1.6-0.2,2.2-0.4c0.5-0.1,1-0.3,1.2-0.5
			c0.3-0.2,0.5-0.3,0.6-0.5c0.1-0.2,0.1-0.4,0.1-0.6c0-0.1,0-0.2-0.1-0.3c0-0.1-0.1-0.2-0.2-0.3c-0.1-0.1-0.2-0.2-0.4-0.2
			C207.2,11.4,207,11.3,206.7,11.3z"/>
		<path class="st1" d="M210.4,19.2l1.1-8.8h0.8c0.4,0,0.5,0.2,0.5,0.5l-0.1,1.6c0.4-0.7,0.9-1.3,1.4-1.7c0.5-0.4,1.1-0.6,1.6-0.6
			c0.6,0,1,0.2,1.3,0.6c0.3,0.4,0.4,1,0.4,1.8c0.4-0.8,0.9-1.4,1.5-1.8c0.5-0.4,1.1-0.6,1.7-0.6c0.8,0,1.3,0.3,1.6,0.9
			c0.3,0.6,0.4,1.4,0.3,2.5l-0.7,5.6h-1.5l0.7-5.6c0.1-0.7,0.1-1.2-0.1-1.5s-0.4-0.5-0.8-0.5c-0.3,0-0.5,0.1-0.7,0.2
			c-0.2,0.1-0.5,0.3-0.7,0.5c-0.2,0.2-0.4,0.5-0.7,0.9c-0.2,0.4-0.4,0.8-0.5,1.2v0l-0.6,4.8h-1.5l0.7-5.6c0.1-0.7,0.1-1.2,0-1.5
			c-0.1-0.3-0.4-0.5-0.8-0.5c-0.3,0-0.5,0.1-0.8,0.2c-0.3,0.1-0.5,0.3-0.7,0.6c-0.2,0.3-0.4,0.6-0.6,1c-0.2,0.4-0.4,0.8-0.5,1.3
			l-0.5,4.6H210.4z"/>
		<path class="st1" d="M230.7,19.2h-0.8c-0.2,0-0.3-0.1-0.4-0.2c-0.1-0.1-0.1-0.2-0.1-0.4l0.2-1.8c-0.2,0.4-0.4,0.7-0.7,1
			c-0.2,0.3-0.5,0.6-0.8,0.8c-0.3,0.2-0.6,0.4-0.9,0.5c-0.3,0.1-0.6,0.2-0.9,0.2c-0.3,0-0.7-0.1-1-0.2c-0.3-0.1-0.5-0.3-0.7-0.6
			c-0.2-0.3-0.4-0.6-0.5-1s-0.2-0.8-0.2-1.3c0-0.5,0.1-1,0.2-1.5s0.3-1,0.6-1.4c0.2-0.4,0.5-0.8,0.9-1.2c0.3-0.4,0.7-0.7,1.1-1
			c0.4-0.3,0.9-0.5,1.3-0.6c0.5-0.1,1-0.2,1.5-0.2c0.4,0,0.7,0,1.1,0.1c0.4,0.1,0.7,0.2,1.1,0.3L230.7,19.2z M226.9,18
			c0.3,0,0.6-0.1,0.8-0.3c0.3-0.2,0.5-0.4,0.8-0.7c0.2-0.3,0.5-0.7,0.7-1.1c0.2-0.4,0.4-0.9,0.6-1.4l0.4-3c-0.1,0-0.3,0-0.4-0.1
			c-0.1,0-0.2,0-0.4,0c-0.3,0-0.7,0.1-1,0.2c-0.3,0.1-0.6,0.3-0.9,0.5c-0.3,0.2-0.5,0.4-0.8,0.7c-0.2,0.3-0.4,0.6-0.6,0.9
			c-0.2,0.3-0.3,0.7-0.4,1.1c-0.1,0.4-0.1,0.8-0.1,1.2C225.5,17.3,226,18,226.9,18z"/>
		<path class="st1" d="M242.6,11.7c0,0.1-0.1,0.1-0.1,0.2c0,0-0.1,0-0.2,0c-0.1,0-0.2,0-0.3-0.1c-0.1-0.1-0.2-0.1-0.3-0.2
			c-0.1-0.1-0.3-0.2-0.5-0.2c-0.2-0.1-0.4-0.1-0.7-0.1c-0.3,0-0.5,0-0.7,0.1c-0.2,0.1-0.4,0.2-0.6,0.3c-0.2,0.1-0.3,0.3-0.4,0.4
			c-0.1,0.2-0.1,0.4-0.1,0.5c0,0.3,0.1,0.5,0.3,0.7c0.2,0.2,0.4,0.3,0.7,0.4c0.3,0.1,0.6,0.2,0.9,0.3c0.3,0.1,0.6,0.2,0.9,0.4
			c0.3,0.2,0.5,0.4,0.7,0.6c0.2,0.3,0.3,0.6,0.3,1c0,0.4-0.1,0.8-0.2,1.2c-0.2,0.4-0.4,0.7-0.7,1s-0.7,0.5-1.1,0.7
			c-0.4,0.2-0.9,0.3-1.4,0.3c-0.6,0-1.1-0.1-1.5-0.3c-0.4-0.2-0.8-0.5-1.1-0.8l0.4-0.6c0.1-0.1,0.1-0.1,0.2-0.2
			c0.1,0,0.1-0.1,0.2-0.1c0.1,0,0.2,0,0.3,0.1s0.2,0.2,0.3,0.3s0.3,0.2,0.5,0.3c0.2,0.1,0.5,0.1,0.8,0.1c0.3,0,0.5,0,0.8-0.1
			c0.2-0.1,0.4-0.2,0.6-0.3c0.2-0.1,0.3-0.3,0.4-0.5s0.1-0.4,0.1-0.6c0-0.3-0.1-0.5-0.3-0.7c-0.2-0.2-0.4-0.3-0.7-0.4
			c-0.3-0.1-0.6-0.2-0.9-0.3c-0.3-0.1-0.6-0.2-0.9-0.4c-0.3-0.2-0.5-0.4-0.7-0.6c-0.2-0.3-0.3-0.6-0.3-1c0-0.4,0.1-0.7,0.2-1.1
			c0.1-0.3,0.4-0.7,0.6-0.9c0.3-0.3,0.6-0.5,1-0.6c0.4-0.2,0.8-0.2,1.3-0.2c0.5,0,1,0.1,1.4,0.3c0.4,0.2,0.8,0.4,1,0.7L242.6,11.7z"
			/>
		<path class="st1" d="M246.1,10.3l-0.7,5.6c-0.1,0.7,0,1.2,0.1,1.5c0.2,0.3,0.5,0.5,0.9,0.5c0.3,0,0.5-0.1,0.8-0.2
			c0.3-0.1,0.6-0.4,0.8-0.6c0.3-0.3,0.5-0.6,0.7-1c0.2-0.4,0.4-0.8,0.6-1.3l0.5-4.6h1.5l-1.1,8.8h-0.8c-0.4,0-0.6-0.2-0.6-0.6
			l0.1-1.6c-0.5,0.7-1,1.3-1.6,1.7c-0.6,0.4-1.2,0.6-1.8,0.6c-0.4,0-0.7-0.1-1-0.2c-0.3-0.1-0.5-0.4-0.7-0.7c-0.2-0.3-0.3-0.6-0.4-1
			c-0.1-0.4-0.1-0.9,0-1.4l0.7-5.6H246.1z"/>
		<path class="st1" d="M252.7,19.2l1.1-8.8h0.8c0.3,0,0.5,0.2,0.5,0.5l-0.1,1.7c0.5-0.8,1-1.4,1.6-1.8c0.6-0.4,1.2-0.6,1.8-0.6
			c0.4,0,0.7,0.1,1,0.2c0.3,0.1,0.5,0.4,0.7,0.7c0.2,0.3,0.3,0.6,0.4,1.1c0.1,0.4,0.1,0.9,0,1.4l-0.7,5.6h-1.5l0.7-5.6
			c0.1-0.7,0-1.2-0.1-1.5c-0.2-0.3-0.5-0.5-0.9-0.5c-0.3,0-0.6,0.1-0.9,0.2c-0.3,0.2-0.6,0.4-0.8,0.6c-0.3,0.3-0.5,0.6-0.7,1
			c-0.2,0.4-0.4,0.8-0.6,1.3l-0.5,4.5H252.7z"/>
		<path class="st1" d="M267.4,11.7c0,0.1-0.1,0.1-0.1,0.2c0,0-0.1,0-0.2,0c-0.1,0-0.2,0-0.3-0.1c-0.1-0.1-0.2-0.1-0.3-0.2
			c-0.1-0.1-0.3-0.2-0.5-0.2c-0.2-0.1-0.4-0.1-0.7-0.1c-0.3,0-0.5,0-0.7,0.1c-0.2,0.1-0.4,0.2-0.6,0.3c-0.2,0.1-0.3,0.3-0.4,0.4
			c-0.1,0.2-0.1,0.4-0.1,0.5c0,0.3,0.1,0.5,0.3,0.7c0.2,0.2,0.4,0.3,0.7,0.4c0.3,0.1,0.6,0.2,0.9,0.3c0.3,0.1,0.6,0.2,0.9,0.4
			c0.3,0.2,0.5,0.4,0.7,0.6c0.2,0.3,0.3,0.6,0.3,1c0,0.4-0.1,0.8-0.2,1.2c-0.2,0.4-0.4,0.7-0.7,1s-0.7,0.5-1.1,0.7
			c-0.4,0.2-0.9,0.3-1.4,0.3c-0.6,0-1.1-0.1-1.5-0.3c-0.4-0.2-0.8-0.5-1.1-0.8l0.4-0.6c0.1-0.1,0.1-0.1,0.2-0.2
			c0.1,0,0.1-0.1,0.2-0.1c0.1,0,0.2,0,0.3,0.1c0.1,0.1,0.2,0.2,0.3,0.3c0.1,0.1,0.3,0.2,0.5,0.3c0.2,0.1,0.5,0.1,0.8,0.1
			c0.3,0,0.5,0,0.8-0.1c0.2-0.1,0.4-0.2,0.6-0.3c0.2-0.1,0.3-0.3,0.4-0.5c0.1-0.2,0.1-0.4,0.1-0.6c0-0.3-0.1-0.5-0.3-0.7
			c-0.2-0.2-0.4-0.3-0.7-0.4c-0.3-0.1-0.6-0.2-0.9-0.3c-0.3-0.1-0.6-0.2-0.9-0.4c-0.3-0.2-0.5-0.4-0.7-0.6c-0.2-0.3-0.3-0.6-0.3-1
			c0-0.4,0.1-0.7,0.2-1.1c0.1-0.3,0.4-0.7,0.6-0.9c0.3-0.3,0.6-0.5,1-0.6c0.4-0.2,0.8-0.2,1.3-0.2c0.5,0,1,0.1,1.4,0.3
			c0.4,0.2,0.8,0.4,1,0.7L267.4,11.7z"/>
		<path class="st1" d="M268.4,19.2L270,6.3h1.6l-0.7,6c0.5-0.7,1-1.2,1.5-1.6c0.6-0.4,1.1-0.5,1.7-0.5c0.4,0,0.7,0.1,1,0.2
			c0.3,0.1,0.5,0.4,0.7,0.7c0.2,0.3,0.3,0.6,0.4,1.1c0.1,0.4,0.1,0.9,0,1.4l-0.7,5.6h-1.6l0.7-5.6c0.1-0.7,0-1.2-0.1-1.6
			c-0.2-0.3-0.5-0.5-0.9-0.5c-0.3,0-0.5,0.1-0.8,0.2c-0.3,0.1-0.5,0.3-0.8,0.6c-0.3,0.3-0.5,0.6-0.7,1s-0.4,0.8-0.6,1.2l-0.6,4.7
			H268.4z"/>
		<path class="st1" d="M280.2,10.3l-1.1,8.8h-1.5l1.1-8.8H280.2z M280.8,7.6c0,0.2,0,0.3-0.1,0.4c-0.1,0.1-0.1,0.2-0.2,0.3
			c-0.1,0.1-0.2,0.2-0.3,0.2c-0.1,0.1-0.3,0.1-0.4,0.1c-0.1,0-0.3,0-0.4-0.1c-0.1-0.1-0.2-0.1-0.3-0.2c-0.1-0.1-0.2-0.2-0.2-0.3
			c-0.1-0.1-0.1-0.3-0.1-0.4c0-0.2,0-0.3,0.1-0.4c0.1-0.1,0.1-0.3,0.2-0.4c0.1-0.1,0.2-0.2,0.3-0.2c0.1-0.1,0.3-0.1,0.4-0.1
			c0.1,0,0.3,0,0.4,0.1c0.1,0.1,0.2,0.1,0.3,0.2c0.1,0.1,0.2,0.2,0.2,0.4C280.7,7.3,280.8,7.4,280.8,7.6z"/>
		<path class="st1" d="M281.4,19.2l1.1-8.8h0.8c0.3,0,0.5,0.2,0.5,0.5l-0.1,1.7c0.5-0.8,1-1.4,1.6-1.8s1.2-0.6,1.8-0.6
			c0.4,0,0.7,0.1,1,0.2c0.3,0.1,0.5,0.4,0.7,0.7c0.2,0.3,0.3,0.6,0.4,1.1c0.1,0.4,0.1,0.9,0,1.4l-0.7,5.6h-1.5l0.7-5.6
			c0.1-0.7,0-1.2-0.1-1.5c-0.2-0.3-0.5-0.5-0.9-0.5c-0.3,0-0.6,0.1-0.9,0.2c-0.3,0.2-0.6,0.4-0.8,0.6c-0.3,0.3-0.5,0.6-0.7,1
			c-0.2,0.4-0.4,0.8-0.6,1.3l-0.5,4.5H281.4z"/>
		<path class="st1" d="M297.6,12.2c0,0.4-0.1,0.7-0.2,1.1s-0.4,0.6-0.9,0.9c-0.4,0.3-1,0.5-1.7,0.7c-0.7,0.2-1.7,0.3-2.8,0.5
			c0,0.1,0,0.1,0,0.2s0,0.1,0,0.2c0,0.8,0.2,1.4,0.5,1.8c0.3,0.4,0.9,0.6,1.5,0.6c0.3,0,0.5,0,0.7-0.1c0.2-0.1,0.4-0.1,0.6-0.2
			c0.2-0.1,0.3-0.2,0.5-0.3c0.1-0.1,0.2-0.2,0.4-0.3c0.1-0.1,0.2-0.2,0.3-0.2c0.1-0.1,0.2-0.1,0.3-0.1c0.1,0,0.2,0,0.3,0.1l0.4,0.5
			c-0.3,0.3-0.6,0.6-0.9,0.8c-0.3,0.2-0.6,0.4-0.9,0.5c-0.3,0.1-0.6,0.3-0.9,0.3c-0.3,0.1-0.7,0.1-1,0.1c-0.5,0-1-0.1-1.4-0.3
			c-0.4-0.2-0.7-0.4-1-0.7c-0.3-0.3-0.5-0.7-0.6-1.1c-0.2-0.4-0.2-0.9-0.2-1.5c0-0.5,0-0.9,0.1-1.4c0.1-0.5,0.2-0.9,0.4-1.3
			c0.2-0.4,0.4-0.8,0.7-1.1c0.3-0.3,0.6-0.6,0.9-0.9c0.3-0.3,0.7-0.5,1.1-0.6c0.4-0.1,0.9-0.2,1.3-0.2c0.4,0,0.8,0.1,1.2,0.2
			c0.3,0.1,0.6,0.3,0.8,0.5c0.2,0.2,0.4,0.4,0.5,0.7C297.6,11.8,297.6,12,297.6,12.2z M295,11.3c-0.4,0-0.7,0.1-1,0.2
			c-0.3,0.2-0.6,0.4-0.8,0.6c-0.2,0.3-0.4,0.6-0.6,0.9c-0.2,0.4-0.3,0.7-0.4,1.2c0.9-0.1,1.6-0.2,2.2-0.4c0.5-0.1,1-0.3,1.2-0.5
			c0.3-0.2,0.5-0.3,0.6-0.5c0.1-0.2,0.1-0.4,0.1-0.6c0-0.1,0-0.2-0.1-0.3c0-0.1-0.1-0.2-0.2-0.3c-0.1-0.1-0.2-0.2-0.4-0.2
			C295.4,11.4,295.2,11.3,295,11.3z"/>
	</g>
	<g>
		<g>
			<path class="st0" d="M16.4,0C7.4,0,0,7.4,0,16.4c0,9,7.4,16.4,16.4,16.4s16.4-7.4,16.4-16.4C32.8,7.4,25.4,0,16.4,0z M31.5,16.4
				c0,8.3-6.8,15.1-15.1,15.1S1.3,24.7,1.3,16.4c0-8.3,6.8-15.1,15.1-15.1S31.5,8.1,31.5,16.4z"/>
			<path class="st0" d="M13,10.9l0.9-0.1c0.2,0,0.3-0.1,0.4-0.2c0.1-0.1,0.1-0.2,0.1-0.3l0.1-0.6h-2.3c-0.4-0.3-0.9-0.4-1.5-0.4
				c-0.5,0-1,0.1-1.4,0.3c-0.4,0.2-0.7,0.4-1,0.7c-0.3,0.3-0.5,0.7-0.6,1.1c-0.1,0.4-0.2,0.8-0.2,1.2c0,0.4,0.1,0.8,0.2,1.1
				C7.6,14,7.8,14.3,8,14.5c0.2,0.2,0.5,0.4,0.8,0.5c0.5,0.2,1.2,0.2,1.8,0c-0.1,0.2-0.1,0.4-0.1,0.6c0,0.2,0,0.4,0.1,0.5
				c-0.5,0-0.9,0-1.3,0c-0.6,0.1-1.2,0.2-1.7,0.4c-0.5,0.2-0.9,0.5-1.2,0.9c-0.3,0.4-0.5,0.8-0.5,1.4c0,0.4,0.1,0.7,0.3,1
				c0.2,0.3,0.4,0.5,0.7,0.7c0.3,0.2,0.6,0.3,1,0.4c0.4,0.1,0.8,0.1,1.2,0.1c0.6,0,1.1-0.1,1.6-0.2c0.5-0.2,0.9-0.4,1.2-0.6
				c0.3-0.3,0.6-0.6,0.8-0.9c0.2-0.4,0.3-0.7,0.3-1.1c0-0.3,0-0.5-0.1-0.7c-0.1-0.2-0.2-0.4-0.3-0.6c-0.1-0.2-0.2-0.3-0.3-0.5
				c-0.1-0.1-0.2-0.3-0.3-0.4c-0.1-0.1-0.2-0.2-0.2-0.3c0-0.1-0.1-0.2-0.1-0.3c0-0.2,0-0.3,0.1-0.4c0.1-0.2,0.1-0.3,0.2-0.5
				c0.1-0.2,0.2-0.3,0.3-0.5c0.1-0.2,0.3-0.4,0.4-0.6c0.1-0.2,0.2-0.5,0.3-0.7c0.1-0.3,0.1-0.6,0.1-0.9c0-0.3,0-0.5-0.1-0.7
				C13.1,11,13,11,13,10.9z M11.7,18.2c0,0.2-0.1,0.4-0.2,0.6c-0.1,0.2-0.3,0.4-0.5,0.6c-0.2,0.2-0.5,0.3-0.8,0.4
				C9.9,19.9,9.6,20,9.2,20c-0.3,0-0.6,0-0.8-0.1c-0.2-0.1-0.4-0.1-0.6-0.2c-0.2-0.1-0.3-0.2-0.3-0.3c-0.1-0.1-0.1-0.3-0.1-0.5
				c0-0.2,0.1-0.5,0.2-0.7c0.2-0.2,0.4-0.4,0.7-0.6c0.3-0.2,0.8-0.3,1.3-0.3c0.2,0,0.4,0,0.6,0c0.4,0,0.8,0,1.3,0.1
				c0.1,0.1,0.1,0.2,0.2,0.3C11.7,17.8,11.7,18,11.7,18.2z M10.8,13.9c-0.2,0.1-0.5,0.2-0.8,0.2c-0.4,0-0.7-0.1-1-0.4
				c-0.2-0.2-0.4-0.6-0.4-1.1c0-0.3,0-0.5,0.1-0.8c0.1-0.3,0.2-0.5,0.4-0.7c0.2-0.2,0.4-0.4,0.6-0.5c0.2-0.1,0.5-0.2,0.8-0.2
				c0.4,0,0.7,0.1,1,0.3c0.2,0.2,0.4,0.6,0.4,1c0,0.3,0,0.5-0.1,0.8c-0.1,0.3-0.2,0.5-0.4,0.7C11.2,13.6,11,13.8,10.8,13.9z"/>
			<path class="st0" d="M18.8,23.4c-0.1,0.1-0.2,0.1-0.3,0.2c-0.1,0.1-0.2,0.2-0.3,0.3c-0.1,0.1-0.3,0.2-0.4,0.3
				c-0.2,0.1-0.3,0.2-0.5,0.2c-0.2,0.1-0.4,0.1-0.7,0.1c-0.3,0-0.6-0.1-0.8-0.2c-0.2-0.1-0.4-0.3-0.6-0.5c-0.2-0.2-0.3-0.4-0.3-0.7
				c-0.1-0.3-0.1-0.6-0.1-1c0-0.5,0.1-1.1,0.2-1.6c0.2-0.5,0.4-1,0.6-1.3c0.3-0.4,0.6-0.7,0.9-0.9c0.3-0.2,0.7-0.3,1.1-0.3
				c0.3,0,0.5,0,0.7,0.1c0.2,0.1,0.3,0.2,0.4,0.2c0.1,0.1,0.2,0.2,0.3,0.2l0.3,0.3c0.1,0.1,0.2,0.2,0.4,0.2h0.6L22,5.7h-1.4L20.1,10
				c-0.2-0.2-0.4-0.3-0.6-0.4c-0.8-0.4-1.8-0.4-2.6-0.1c-0.4,0.2-0.7,0.4-1,0.7c-0.3,0.3-0.6,0.6-0.8,1c-0.2,0.4-0.4,0.8-0.6,1.2
				c-0.2,0.4-0.3,0.9-0.4,1.3C14,14.2,14,14.6,14,15.1c0,0.5,0,0.9,0.1,1.3c0.1,0.4,0.3,0.7,0.5,1c0.2,0.2,0.4,0.4,0.6,0.6
				c-0.2,0.2-0.4,0.4-0.6,0.7c-0.2,0.3-0.5,0.7-0.6,1.1c-0.2,0.4-0.3,0.8-0.4,1.3c-0.1,0.4-0.1,0.9-0.1,1.3c0,0.5,0.1,1,0.2,1.4
				c0.1,0.4,0.3,0.8,0.6,1.1c0.3,0.3,0.6,0.6,1,0.8c0.4,0.2,0.8,0.3,1.3,0.3c0.3,0,0.6,0,0.9-0.1c0.3,0,0.6-0.1,0.8-0.3
				c0.3-0.1,0.5-0.3,0.8-0.5c0.3-0.2,0.6-0.5,0.9-0.8l0.2-0.2l-0.4-0.4C19.4,23.2,19.1,23.2,18.8,23.4z M15.3,15c0-0.3,0-0.7,0.1-1
				c0.1-0.4,0.2-0.7,0.3-1c0.1-0.3,0.3-0.7,0.4-0.9c0.2-0.3,0.4-0.5,0.6-0.8c0.2-0.2,0.5-0.4,0.7-0.5c0.3-0.1,0.5-0.2,0.8-0.2
				c0.3,0,0.6,0.1,0.9,0.2c0.3,0.1,0.5,0.4,0.7,0.7l-0.3,2.2c-0.2,0.5-0.4,1-0.6,1.4c-0.2,0.4-0.5,0.8-0.8,1.1
				c-0.3,0.3-0.5,0.5-0.8,0.7c-0.1,0.1-0.2,0.1-0.3,0.1c-0.1,0-0.1,0-0.2,0l-0.1,0c-0.1,0-0.1,0-0.2,0c-0.4,0-0.7-0.2-1-0.5
				C15.5,16.2,15.3,15.6,15.3,15z M19.4,16.2l-0.1,1.3c-0.1,0-0.1-0.1-0.2-0.1c-0.1-0.1-0.3-0.1-0.4-0.2
				C18.9,16.9,19.2,16.6,19.4,16.2C19.4,16.3,19.4,16.2,19.4,16.2z"/>
			<path class="st0" d="M25.3,17.1c-0.4-0.2-0.8-0.2-1.3-0.2c-0.4,0-0.8,0.1-1.2,0.2c-0.4,0.1-0.7,0.3-1,0.6
				c-0.3,0.3-0.5,0.5-0.6,0.9c-0.2,0.3-0.2,0.7-0.2,1c0,0.3,0.1,0.6,0.2,0.9c0.1,0.2,0.3,0.4,0.5,0.6c0.2,0.1,0.4,0.3,0.6,0.4
				c0.2,0.1,0.4,0.2,0.7,0.3c0.2,0.1,0.4,0.2,0.7,0.2c0.2,0.1,0.4,0.2,0.5,0.3c0.1,0.1,0.2,0.2,0.3,0.3c0.1,0.1,0.1,0.3,0.1,0.4
				c0,0.2,0,0.4-0.1,0.6c-0.1,0.2-0.2,0.4-0.4,0.5c-0.2,0.2-0.3,0.3-0.6,0.4c-0.2,0.1-0.5,0.1-0.8,0.1c-0.3,0-0.5,0-0.7-0.1
				c-0.2-0.1-0.4-0.2-0.5-0.2c-0.1-0.1-0.2-0.2-0.3-0.3c-0.1-0.1-0.2-0.2-0.4-0.2c-0.2,0-0.4,0.1-0.5,0.3l-0.3,0.5l0.2,0.2
				c0.3,0.3,0.6,0.6,1,0.8c0.4,0.2,0.9,0.3,1.4,0.3c0.5,0,0.9-0.1,1.3-0.2c0.4-0.2,0.7-0.4,1-0.7c0.3-0.3,0.5-0.6,0.7-1
				c0.2-0.4,0.2-0.7,0.2-1.1c0-0.3-0.1-0.6-0.2-0.9c-0.1-0.2-0.3-0.4-0.5-0.6c-0.2-0.2-0.4-0.3-0.6-0.4c-0.2-0.1-0.4-0.2-0.7-0.3
				c-0.2-0.1-0.4-0.2-0.7-0.2c-0.2-0.1-0.4-0.2-0.5-0.3c-0.1-0.1-0.2-0.2-0.3-0.3c-0.1-0.1-0.1-0.2-0.1-0.4c0-0.2,0-0.3,0.1-0.5
				c0.1-0.2,0.2-0.3,0.4-0.4c0.2-0.1,0.3-0.2,0.5-0.3c0.4-0.2,1-0.1,1.3,0c0.2,0.1,0.3,0.1,0.4,0.2c0.1,0.1,0.2,0.1,0.3,0.2
				c0.2,0.2,0.4,0.2,0.5,0.2c0.1,0,0.3-0.1,0.3-0.2l0.3-0.5l-0.2-0.2C26.1,17.5,25.7,17.3,25.3,17.1z"/>
		</g>
	</g>
</g>
</svg>
