<?xml version="1.0" encoding="utf-8"?>
<!-- Generator: Adobe Illustrator 23.0.4, SVG Export Plug-In . SVG Version: 6.00 Build 0)  -->
<svg version="1.1" id="レイヤー_1" xmlns="http://www.w3.org/2000/svg" xmlns:xlink="http://www.w3.org/1999/xlink" x="0px"
	 y="0px" width="297.6px" height="32.3px" viewBox="0 0 297.6 32.3" style="enable-background:new 0 0 297.6 32.3;"
	 xml:space="preserve">
<style type="text/css">
	.st0{fill:#CCA57E;}
	.st1{fill:#231815;}
</style>
<g>
	<g>
		<g>
			<path class="st0" d="M59.7,12.4c0,0.3,0,0.6-0.1,0.9c-0.1,0.3-0.2,0.5-0.3,0.7s-0.2,0.4-0.4,0.6c-0.1,0.2-0.3,0.4-0.4,0.6
				c-0.1,0.2-0.2,0.4-0.3,0.5c-0.1,0.2-0.1,0.4-0.1,0.6c0,0.2,0,0.3,0.1,0.5c0.1,0.1,0.2,0.3,0.3,0.4c0.1,0.1,0.2,0.3,0.3,0.4
				c0.1,0.1,0.2,0.3,0.3,0.5c0.1,0.2,0.2,0.3,0.3,0.5s0.1,0.4,0.1,0.6c0,0.4-0.1,0.7-0.3,1.1c-0.2,0.3-0.4,0.6-0.8,0.9
				c-0.3,0.3-0.7,0.5-1.2,0.6c-0.5,0.2-1,0.2-1.6,0.2c-0.5,0-0.9,0-1.3-0.1c-0.4-0.1-0.7-0.2-1-0.4c-0.3-0.2-0.5-0.4-0.6-0.6
				c-0.2-0.3-0.2-0.5-0.2-0.9c0-0.5,0.2-0.9,0.4-1.3s0.7-0.6,1.2-0.9c0.5-0.2,1.1-0.4,1.7-0.4c0.6-0.1,1.3-0.1,2,0
				c-0.1-0.1-0.2-0.3-0.3-0.4c-0.1-0.2-0.1-0.3-0.1-0.5c0-0.2,0-0.4,0.1-0.6c0.1-0.2,0.2-0.5,0.4-0.8c-0.2,0.2-0.5,0.3-0.8,0.4
				c-0.3,0.1-0.6,0.1-0.9,0.1c-0.3,0-0.6-0.1-0.9-0.2c-0.3-0.1-0.5-0.3-0.7-0.5c-0.2-0.2-0.4-0.5-0.5-0.8c-0.1-0.3-0.2-0.6-0.2-1
				c0-0.4,0.1-0.8,0.2-1.2c0.1-0.4,0.3-0.7,0.6-1c0.3-0.3,0.6-0.5,1-0.7c0.4-0.2,0.8-0.3,1.4-0.3c0.6,0,1.1,0.1,1.5,0.4H61l0,0.3
				c0,0.1,0,0.1-0.1,0.2c0,0-0.1,0.1-0.2,0.1l-1.4,0.1c0.1,0.2,0.2,0.4,0.2,0.6C59.6,11.9,59.7,12.2,59.7,12.4z M58.7,19.3
				c0-0.3,0-0.5-0.1-0.7c-0.1-0.2-0.2-0.4-0.3-0.6l0,0c-0.8-0.1-1.6-0.2-2.2-0.1c-0.6,0.1-1.1,0.2-1.6,0.4c-0.4,0.2-0.7,0.4-0.9,0.7
				c-0.2,0.3-0.3,0.6-0.3,0.9c0,0.3,0.1,0.5,0.2,0.7c0.1,0.2,0.3,0.4,0.5,0.5c0.2,0.1,0.5,0.2,0.8,0.3c0.3,0.1,0.6,0.1,1,0.1
				c0.5,0,0.9-0.1,1.2-0.2c0.4-0.1,0.7-0.3,1-0.5c0.3-0.2,0.5-0.4,0.6-0.7C58.6,19.8,58.7,19.6,58.7,19.3z M56.6,15.1
				c0.4,0,0.7-0.1,1-0.2c0.3-0.2,0.5-0.4,0.7-0.6c0.2-0.3,0.4-0.5,0.5-0.9c0.1-0.3,0.2-0.6,0.2-1c0-0.6-0.2-1.1-0.5-1.4
				c-0.3-0.3-0.8-0.5-1.3-0.5c-0.4,0-0.7,0.1-1,0.2c-0.3,0.1-0.5,0.3-0.7,0.6c-0.2,0.2-0.3,0.5-0.5,0.8c-0.1,0.3-0.2,0.6-0.2,1
				c0,0.6,0.2,1.1,0.5,1.4C55.6,15,56,15.1,56.6,15.1z"/>
			<path class="st0" d="M80.3,18.8l1-8.7h0.4c0.2,0,0.3,0.1,0.3,0.3L81.7,13c0.2-0.6,0.5-1.1,0.8-1.5c0.3-0.4,0.6-0.8,0.9-1
				c0.3-0.2,0.6-0.4,1-0.5c0.3-0.1,0.7,0,1,0.1L85.3,11c-0.4-0.2-0.8-0.2-1.1-0.1c-0.4,0.1-0.7,0.3-1,0.6c-0.3,0.3-0.6,0.7-0.9,1.2
				c-0.3,0.5-0.5,1.1-0.7,1.8l-0.5,4.4H80.3z"/>
			<path class="st0" d="M109.7,18.8h-0.4c-0.1,0-0.2,0-0.2-0.1c0-0.1-0.1-0.1-0.1-0.2l0.3-2.7c-0.2,0.5-0.5,0.9-0.7,1.3
				c-0.3,0.4-0.5,0.7-0.9,1c-0.3,0.3-0.6,0.5-1,0.6s-0.7,0.2-1,0.2c-0.4,0-0.7-0.1-1-0.2c-0.3-0.1-0.5-0.3-0.7-0.6
				c-0.2-0.3-0.3-0.6-0.4-1c-0.1-0.4-0.1-0.8-0.1-1.3c0-0.5,0.1-1,0.2-1.5c0.1-0.5,0.3-0.9,0.5-1.4c0.2-0.4,0.5-0.8,0.8-1.2
				c0.3-0.4,0.7-0.7,1.1-1s0.8-0.5,1.3-0.6s0.9-0.2,1.4-0.2c0.3,0,0.7,0,1,0.1s0.6,0.2,0.9,0.3L109.7,18.8z M106.1,18.3
				c0.3,0,0.7-0.1,1-0.3c0.3-0.2,0.6-0.4,0.9-0.8c0.3-0.3,0.6-0.7,0.8-1.2c0.3-0.5,0.5-1,0.7-1.6l0.4-3.6c-0.3-0.1-0.7-0.2-1.1-0.2
				c-0.6,0-1.1,0.1-1.7,0.4c-0.5,0.3-1,0.7-1.4,1.1c-0.4,0.5-0.7,1-1,1.6c-0.2,0.6-0.4,1.3-0.4,1.9c0,0.8,0.1,1.4,0.4,1.8
				C105.1,18.1,105.5,18.3,106.1,18.3z"/>
			<path class="st0" d="M130.7,18.8l1-8.7h0.4c0.2,0,0.3,0.1,0.3,0.3l-0.3,2.5c0.2-0.5,0.5-0.9,0.8-1.2c0.3-0.4,0.6-0.7,0.9-0.9
				c0.3-0.2,0.6-0.4,1-0.6c0.3-0.1,0.7-0.2,1-0.2c0.4,0,0.7,0.1,1,0.2s0.5,0.4,0.6,0.6c0.2,0.3,0.3,0.6,0.3,1c0,0.4,0,0.9,0,1.4
				l-0.7,5.6h-0.8l0.7-5.6c0.1-0.8,0-1.5-0.2-1.9c-0.2-0.4-0.6-0.7-1.2-0.7c-0.3,0-0.7,0.1-1,0.2c-0.3,0.2-0.7,0.4-1,0.7
				c-0.3,0.3-0.6,0.7-0.9,1.1c-0.3,0.4-0.5,0.9-0.7,1.5l-0.5,4.6H130.7z"/>
			<path class="st0" d="M163.6,18.8c-0.1,0-0.2,0-0.2-0.1c0-0.1-0.1-0.1-0.1-0.2l0.3-2.7c-0.2,0.5-0.5,0.9-0.8,1.3
				c-0.3,0.4-0.6,0.7-0.9,1c-0.3,0.3-0.6,0.5-1,0.6c-0.3,0.2-0.7,0.2-1,0.2c-0.4,0-0.7-0.1-1-0.2c-0.3-0.1-0.5-0.4-0.7-0.6
				c-0.2-0.3-0.3-0.6-0.4-1c-0.1-0.4-0.1-0.8-0.1-1.3c0-0.4,0-0.9,0.1-1.4s0.2-0.9,0.4-1.3c0.2-0.4,0.4-0.8,0.6-1.2
				c0.2-0.4,0.5-0.7,0.8-1c0.3-0.3,0.7-0.5,1-0.7s0.8-0.2,1.2-0.2c0.5,0,0.9,0.1,1.3,0.3c0.4,0.2,0.7,0.5,1,0.9l0.6-5.1h0.8
				L164,18.8H163.6z M160.1,18.3c0.3,0,0.7-0.1,1-0.3c0.3-0.2,0.7-0.4,1-0.8c0.3-0.3,0.6-0.7,0.9-1.2c0.3-0.5,0.5-1,0.7-1.6l0.3-2.5
				c-0.3-0.5-0.6-0.8-0.9-1c-0.4-0.2-0.8-0.3-1.2-0.3c-0.4,0-0.7,0.1-1,0.2c-0.3,0.1-0.6,0.4-0.9,0.6c-0.3,0.3-0.5,0.6-0.7,0.9
				c-0.2,0.3-0.4,0.7-0.5,1.1c-0.1,0.4-0.2,0.8-0.3,1.2c-0.1,0.4-0.1,0.8-0.1,1.2c0,0.8,0.1,1.4,0.4,1.8
				C159.1,18.1,159.6,18.3,160.1,18.3z"/>
			<path class="st1" d="M190,18.1c-0.3,0.2-0.5,0.4-0.8,0.5c-0.3,0.1-0.5,0.2-0.8,0.3c-0.3,0-0.6,0.1-0.9,0.1
				c-0.5,0-0.9-0.1-1.3-0.3c-0.4-0.2-0.7-0.4-0.9-0.7c-0.2-0.3-0.4-0.7-0.5-1.1c-0.1-0.4-0.2-0.9-0.2-1.4c0-0.5,0-0.9,0.1-1.4
				c0.1-0.5,0.2-0.9,0.4-1.3c0.2-0.4,0.4-0.8,0.7-1.1c0.3-0.3,0.5-0.6,0.9-0.9c0.3-0.2,0.7-0.4,1-0.6c0.4-0.1,0.8-0.2,1.2-0.2
				c0.3,0,0.5,0,0.8,0.1c0.2,0.1,0.4,0.1,0.6,0.2s0.4,0.2,0.5,0.4c0.2,0.1,0.3,0.3,0.4,0.5l-0.2,0.3c-0.1,0.1-0.1,0.1-0.2,0.1
				c-0.1,0-0.1,0-0.2-0.1c-0.1-0.1-0.2-0.2-0.3-0.3c-0.1-0.1-0.3-0.2-0.6-0.3c-0.2-0.1-0.5-0.1-0.9-0.1c-0.5,0-0.9,0.1-1.4,0.4
				c-0.4,0.3-0.8,0.6-1.1,1.1c-0.3,0.4-0.6,1-0.7,1.5c-0.2,0.6-0.3,1.2-0.3,1.8c0,0.4,0,0.8,0.1,1.1c0.1,0.3,0.2,0.6,0.4,0.9
				c0.2,0.2,0.4,0.4,0.7,0.6s0.6,0.2,1,0.2c0.3,0,0.6,0,0.8-0.1c0.2-0.1,0.5-0.2,0.6-0.2c0.2-0.1,0.4-0.2,0.5-0.3
				c0.1-0.1,0.3-0.2,0.4-0.3c0.1-0.1,0.2-0.2,0.3-0.2c0.1-0.1,0.2-0.1,0.2-0.1c0.1,0,0.1,0,0.2,0.1l0.2,0.2
				C190.6,17.6,190.3,17.9,190,18.1z"/>
			<path class="st1" d="M194.2,10.2l-1.1,8.7h-0.8l1.1-8.7H194.2z M194.9,7.2c0,0.1,0,0.2-0.1,0.3c0,0.1-0.1,0.2-0.2,0.2
				c-0.1,0.1-0.2,0.1-0.2,0.2c-0.1,0-0.2,0.1-0.3,0.1c-0.1,0-0.2,0-0.3-0.1c-0.1,0-0.2-0.1-0.2-0.2c-0.1-0.1-0.1-0.1-0.2-0.2
				c0-0.1-0.1-0.2-0.1-0.3s0-0.2,0.1-0.3c0-0.1,0.1-0.2,0.2-0.2c0.1-0.1,0.1-0.1,0.2-0.2c0.1,0,0.2-0.1,0.3-0.1c0.1,0,0.2,0,0.3,0.1
				c0.1,0,0.2,0.1,0.2,0.2c0.1,0.1,0.1,0.2,0.2,0.2C194.9,7,194.9,7.1,194.9,7.2z"/>
			<path class="st1" d="M195.8,18.8l1-8.7h0.4c0.2,0,0.3,0.1,0.3,0.3l-0.3,2.5c0.2-0.5,0.5-0.9,0.8-1.2c0.3-0.4,0.6-0.7,0.9-0.9
				c0.3-0.2,0.6-0.4,1-0.6c0.3-0.1,0.7-0.2,1-0.2c0.4,0,0.7,0.1,1,0.2s0.5,0.4,0.6,0.6c0.2,0.3,0.3,0.6,0.3,1c0,0.4,0,0.9,0,1.4
				l-0.7,5.6h-0.8l0.7-5.6c0.1-0.8,0-1.5-0.2-1.9c-0.2-0.4-0.6-0.7-1.2-0.7c-0.3,0-0.7,0.1-1,0.2c-0.3,0.2-0.7,0.4-1,0.7
				c-0.3,0.3-0.6,0.7-0.9,1.1c-0.3,0.4-0.5,0.9-0.7,1.5l-0.5,4.6H195.8z"/>
			<path class="st1" d="M211.3,11.8c0,0.2,0,0.5-0.1,0.7c-0.1,0.2-0.2,0.4-0.3,0.6c-0.2,0.2-0.4,0.4-0.7,0.5
				c-0.3,0.2-0.6,0.3-1.1,0.5c-0.4,0.1-1,0.3-1.6,0.4c-0.6,0.1-1.3,0.2-2.1,0.3c0,0.1,0,0.2,0,0.4c0,0.1,0,0.2,0,0.4
				c0,0.9,0.2,1.5,0.6,2s1,0.7,1.8,0.7c0.3,0,0.6,0,0.8-0.1c0.2-0.1,0.5-0.2,0.7-0.3c0.2-0.1,0.4-0.2,0.5-0.3
				c0.1-0.1,0.3-0.2,0.4-0.3c0.1-0.1,0.2-0.2,0.3-0.3c0.1-0.1,0.2-0.1,0.2-0.1c0.1,0,0.1,0,0.2,0.1l0.2,0.2
				c-0.3,0.3-0.6,0.6-0.8,0.8s-0.5,0.4-0.8,0.5c-0.3,0.1-0.6,0.2-0.9,0.3c-0.3,0.1-0.6,0.1-1,0.1c-0.5,0-0.9-0.1-1.3-0.2
				c-0.4-0.2-0.7-0.4-0.9-0.7c-0.3-0.3-0.5-0.7-0.6-1.1c-0.1-0.4-0.2-0.9-0.2-1.4c0-0.4,0-0.9,0.1-1.3c0.1-0.4,0.2-0.9,0.4-1.3
				c0.2-0.4,0.4-0.8,0.6-1.1c0.3-0.4,0.5-0.7,0.9-0.9c0.3-0.3,0.7-0.5,1.1-0.6c0.4-0.2,0.8-0.2,1.3-0.2c0.4,0,0.8,0.1,1.1,0.2
				c0.3,0.1,0.5,0.3,0.7,0.4c0.2,0.2,0.3,0.4,0.4,0.6C211.3,11.4,211.3,11.6,211.3,11.8z M209,10.6c-0.5,0-0.9,0.1-1.3,0.3
				c-0.4,0.2-0.7,0.5-1,0.8c-0.3,0.3-0.5,0.7-0.7,1.1c-0.2,0.4-0.3,0.9-0.4,1.4c0.7-0.1,1.4-0.2,1.9-0.3c0.5-0.1,1-0.2,1.4-0.3
				c0.4-0.1,0.7-0.2,0.9-0.4s0.4-0.3,0.5-0.4c0.1-0.1,0.2-0.3,0.3-0.5c0-0.2,0.1-0.3,0.1-0.5c0-0.1,0-0.3-0.1-0.4
				c-0.1-0.1-0.1-0.3-0.3-0.4s-0.3-0.2-0.5-0.3S209.3,10.6,209,10.6z"/>
			<path class="st1" d="M212.7,18.8l1-8.7h0.4c0.2,0,0.3,0.1,0.3,0.3l-0.2,2.4c0.5-0.9,1-1.6,1.6-2.1c0.6-0.5,1.2-0.7,1.9-0.7
				c0.3,0,0.6,0.1,0.8,0.2c0.2,0.1,0.4,0.3,0.5,0.5c0.1,0.2,0.2,0.5,0.2,0.9s0,0.7,0,1.2c0.2-0.5,0.5-0.9,0.7-1.2
				c0.3-0.3,0.6-0.6,0.9-0.9c0.3-0.2,0.6-0.4,0.9-0.5c0.3-0.1,0.6-0.2,0.9-0.2c0.4,0,0.7,0.1,0.9,0.2c0.2,0.1,0.4,0.4,0.6,0.6
				c0.1,0.3,0.2,0.6,0.2,1c0,0.4,0,0.9-0.1,1.4l-0.7,5.6h-0.8l0.7-5.6c0.1-0.4,0.1-0.8,0.1-1.1c0-0.3-0.1-0.6-0.1-0.8
				c-0.1-0.2-0.2-0.4-0.4-0.5c-0.2-0.1-0.4-0.2-0.7-0.2s-0.6,0.1-0.9,0.2c-0.3,0.1-0.6,0.3-0.9,0.6c-0.3,0.3-0.6,0.6-0.8,1
				c-0.3,0.4-0.5,0.9-0.7,1.4l-0.6,5h-0.8l0.7-5.6c0.1-0.4,0.1-0.8,0.1-1.1s0-0.6-0.1-0.8c-0.1-0.2-0.2-0.4-0.4-0.5
				c-0.2-0.1-0.4-0.2-0.7-0.2c-0.7,0-1.3,0.3-1.8,0.9c-0.6,0.6-1.1,1.5-1.5,2.6l-0.5,4.6H212.7z"/>
			<path class="st1" d="M232.2,18.8h-0.4c-0.1,0-0.2,0-0.2-0.1c0-0.1-0.1-0.1-0.1-0.2l0.3-2.7c-0.2,0.5-0.5,0.9-0.7,1.3
				c-0.3,0.4-0.5,0.7-0.9,1c-0.3,0.3-0.6,0.5-1,0.6s-0.7,0.2-1,0.2c-0.4,0-0.7-0.1-1-0.2c-0.3-0.1-0.5-0.3-0.7-0.6
				c-0.2-0.3-0.3-0.6-0.4-1c-0.1-0.4-0.1-0.8-0.1-1.3c0-0.5,0.1-1,0.2-1.5c0.1-0.5,0.3-0.9,0.5-1.4c0.2-0.4,0.5-0.8,0.8-1.2
				c0.3-0.4,0.7-0.7,1.1-1s0.8-0.5,1.3-0.6c0.4-0.2,0.9-0.2,1.4-0.2c0.3,0,0.7,0,1,0.1c0.3,0.1,0.6,0.2,0.9,0.3L232.2,18.8z
				 M228.5,18.3c0.3,0,0.7-0.1,1-0.3c0.3-0.2,0.6-0.4,0.9-0.8c0.3-0.3,0.6-0.7,0.8-1.2c0.3-0.5,0.5-1,0.7-1.6l0.4-3.6
				c-0.3-0.1-0.7-0.2-1.1-0.2c-0.6,0-1.1,0.1-1.7,0.4c-0.5,0.3-1,0.7-1.4,1.1c-0.4,0.5-0.7,1-1,1.6c-0.2,0.6-0.4,1.3-0.4,1.9
				c0,0.8,0.1,1.4,0.4,1.8C227.5,18.1,227.9,18.3,228.5,18.3z"/>
			<path class="st1" d="M244.5,11.2c0,0.1-0.1,0.1-0.2,0.1c-0.1,0-0.1,0-0.2-0.1c-0.1-0.1-0.2-0.2-0.3-0.2s-0.3-0.2-0.5-0.2
				c-0.2-0.1-0.5-0.1-0.8-0.1c-0.3,0-0.6,0-0.8,0.1c-0.3,0.1-0.5,0.2-0.7,0.4s-0.3,0.4-0.5,0.6c-0.1,0.2-0.2,0.5-0.2,0.7
				c0,0.2,0.1,0.4,0.2,0.6c0.1,0.2,0.3,0.3,0.4,0.4c0.2,0.1,0.4,0.2,0.6,0.3c0.2,0.1,0.5,0.2,0.7,0.3c0.2,0.1,0.5,0.2,0.7,0.3
				c0.2,0.1,0.4,0.2,0.6,0.4c0.2,0.2,0.3,0.3,0.4,0.6c0.1,0.2,0.2,0.5,0.2,0.8c0,0.4-0.1,0.7-0.2,1.1c-0.1,0.3-0.4,0.7-0.6,0.9
				c-0.3,0.3-0.6,0.5-1,0.7c-0.4,0.2-0.8,0.2-1.3,0.2c-0.6,0-1-0.1-1.4-0.3c-0.4-0.2-0.7-0.4-1-0.8l0.2-0.3c0.1-0.1,0.1-0.1,0.2-0.1
				c0.1,0,0.1,0,0.2,0.1c0.1,0.1,0.2,0.2,0.4,0.3c0.2,0.1,0.3,0.2,0.6,0.3c0.2,0.1,0.5,0.1,0.9,0.1c0.3,0,0.7-0.1,0.9-0.2
				c0.3-0.1,0.5-0.3,0.7-0.5c0.2-0.2,0.4-0.4,0.5-0.7c0.1-0.3,0.2-0.5,0.2-0.8c0-0.3-0.1-0.5-0.2-0.6c-0.1-0.2-0.3-0.3-0.4-0.5
				c-0.2-0.1-0.4-0.2-0.6-0.3s-0.5-0.2-0.7-0.3c-0.2-0.1-0.5-0.2-0.7-0.3s-0.4-0.2-0.6-0.4c-0.2-0.1-0.3-0.3-0.4-0.5
				c-0.1-0.2-0.2-0.5-0.2-0.8c0-0.3,0.1-0.7,0.2-1c0.1-0.3,0.3-0.6,0.6-0.8c0.3-0.2,0.6-0.4,0.9-0.6c0.4-0.1,0.8-0.2,1.2-0.2
				c0.5,0,0.9,0.1,1.3,0.2s0.7,0.4,1,0.7L244.5,11.2z"/>
			<path class="st1" d="M247.4,10.2l-0.7,5.5c-0.1,0.8,0,1.5,0.2,1.9c0.2,0.4,0.6,0.7,1.2,0.7c0.3,0,0.6-0.1,1-0.2s0.6-0.4,1-0.7
				s0.6-0.7,0.9-1.1s0.5-0.9,0.7-1.4l0.6-4.6h0.8l-1,8.7h-0.4c-0.1,0-0.2,0-0.2-0.1c0-0.1-0.1-0.1-0.1-0.2l0.3-2.5
				c-0.2,0.5-0.5,0.9-0.8,1.2c-0.3,0.4-0.6,0.7-0.9,0.9c-0.3,0.2-0.6,0.4-1,0.6c-0.3,0.1-0.7,0.2-1,0.2c-0.7,0-1.3-0.3-1.6-0.9
				c-0.3-0.6-0.4-1.4-0.3-2.4l0.7-5.5H247.4z"/>
			<path class="st1" d="M254.5,18.8l1-8.7h0.4c0.2,0,0.3,0.1,0.3,0.3l-0.3,2.5c0.2-0.5,0.5-0.9,0.8-1.2c0.3-0.4,0.6-0.7,0.9-0.9
				c0.3-0.2,0.6-0.4,1-0.6c0.3-0.1,0.7-0.2,1-0.2c0.4,0,0.7,0.1,1,0.2s0.5,0.4,0.6,0.6c0.2,0.3,0.3,0.6,0.3,1c0,0.4,0,0.9,0,1.4
				l-0.7,5.6h-0.8l0.7-5.6c0.1-0.8,0-1.5-0.2-1.9c-0.2-0.4-0.6-0.7-1.2-0.7c-0.3,0-0.7,0.1-1,0.2c-0.3,0.2-0.7,0.4-1,0.7
				c-0.3,0.3-0.6,0.7-0.9,1.1c-0.3,0.4-0.5,0.9-0.7,1.5l-0.5,4.6H254.5z"/>
			<path class="st1" d="M268.6,11.2c0,0.1-0.1,0.1-0.2,0.1c-0.1,0-0.1,0-0.2-0.1c-0.1-0.1-0.2-0.2-0.3-0.2s-0.3-0.2-0.5-0.2
				c-0.2-0.1-0.5-0.1-0.8-0.1c-0.3,0-0.6,0-0.8,0.1c-0.3,0.1-0.5,0.2-0.7,0.4s-0.3,0.4-0.5,0.6c-0.1,0.2-0.2,0.5-0.2,0.7
				c0,0.2,0.1,0.4,0.2,0.6c0.1,0.2,0.3,0.3,0.4,0.4c0.2,0.1,0.4,0.2,0.6,0.3c0.2,0.1,0.5,0.2,0.7,0.3c0.2,0.1,0.5,0.2,0.7,0.3
				c0.2,0.1,0.4,0.2,0.6,0.4c0.2,0.2,0.3,0.3,0.4,0.6c0.1,0.2,0.2,0.5,0.2,0.8c0,0.4-0.1,0.7-0.2,1.1c-0.1,0.3-0.4,0.7-0.6,0.9
				c-0.3,0.3-0.6,0.5-1,0.7s-0.8,0.2-1.3,0.2c-0.6,0-1-0.1-1.4-0.3c-0.4-0.2-0.7-0.4-1-0.8l0.2-0.3c0.1-0.1,0.1-0.1,0.2-0.1
				c0.1,0,0.1,0,0.2,0.1c0.1,0.1,0.2,0.2,0.4,0.3c0.2,0.1,0.3,0.2,0.6,0.3c0.2,0.1,0.5,0.1,0.9,0.1c0.3,0,0.7-0.1,0.9-0.2
				c0.3-0.1,0.5-0.3,0.7-0.5c0.2-0.2,0.4-0.4,0.5-0.7c0.1-0.3,0.2-0.5,0.2-0.8c0-0.3-0.1-0.5-0.2-0.6c-0.1-0.2-0.3-0.3-0.4-0.5
				c-0.2-0.1-0.4-0.2-0.6-0.3s-0.5-0.2-0.7-0.3c-0.2-0.1-0.5-0.2-0.7-0.3s-0.4-0.2-0.6-0.4c-0.2-0.1-0.3-0.3-0.4-0.5
				c-0.1-0.2-0.2-0.5-0.2-0.8c0-0.3,0.1-0.7,0.2-1c0.1-0.3,0.3-0.6,0.6-0.8c0.3-0.2,0.6-0.4,0.9-0.6c0.4-0.1,0.8-0.2,1.2-0.2
				c0.5,0,0.9,0.1,1.3,0.2s0.7,0.4,1,0.7L268.6,11.2z"/>
			<path class="st1" d="M269.8,18.8l1.5-12.7h0.8l-0.8,6.6c0.2-0.4,0.5-0.8,0.8-1.2c0.3-0.3,0.6-0.6,0.9-0.9c0.3-0.2,0.6-0.4,1-0.5
				c0.3-0.1,0.7-0.2,1-0.2c0.4,0,0.7,0.1,1,0.2c0.3,0.1,0.5,0.4,0.6,0.6c0.2,0.3,0.3,0.6,0.3,1c0,0.4,0,0.9,0,1.4l-0.7,5.6h-0.8
				l0.7-5.6c0.1-0.8,0-1.5-0.2-1.9c-0.2-0.4-0.6-0.7-1.2-0.7c-0.3,0-0.6,0.1-1,0.2c-0.3,0.2-0.6,0.4-0.9,0.7
				c-0.3,0.3-0.6,0.7-0.9,1.1c-0.3,0.4-0.5,0.9-0.7,1.4l-0.6,4.7H269.8z"/>
			<path class="st1" d="M280.5,10.2l-1.1,8.7h-0.8l1.1-8.7H280.5z M281.2,7.2c0,0.1,0,0.2-0.1,0.3c0,0.1-0.1,0.2-0.2,0.2
				c-0.1,0.1-0.2,0.1-0.2,0.2c-0.1,0-0.2,0.1-0.3,0.1c-0.1,0-0.2,0-0.3-0.1c-0.1,0-0.2-0.1-0.2-0.2c-0.1-0.1-0.1-0.1-0.2-0.2
				c0-0.1-0.1-0.2-0.1-0.3s0-0.2,0.1-0.3c0-0.1,0.1-0.2,0.2-0.2c0.1-0.1,0.1-0.1,0.2-0.2c0.1,0,0.2-0.1,0.3-0.1c0.1,0,0.2,0,0.3,0.1
				c0.1,0,0.2,0.1,0.2,0.2c0.1,0.1,0.1,0.2,0.2,0.2C281.2,7,281.2,7.1,281.2,7.2z"/>
			<path class="st1" d="M282.1,18.8l1-8.7h0.4c0.2,0,0.3,0.1,0.3,0.3l-0.3,2.5c0.2-0.5,0.5-0.9,0.8-1.2c0.3-0.4,0.6-0.7,0.9-0.9
				c0.3-0.2,0.6-0.4,1-0.6c0.3-0.1,0.7-0.2,1-0.2c0.4,0,0.7,0.1,1,0.2s0.5,0.4,0.6,0.6c0.2,0.3,0.3,0.6,0.3,1c0,0.4,0,0.9,0,1.4
				l-0.7,5.6h-0.8l0.7-5.6c0.1-0.8,0-1.5-0.2-1.9c-0.2-0.4-0.6-0.7-1.2-0.7c-0.3,0-0.7,0.1-1,0.2c-0.3,0.2-0.7,0.4-1,0.7
				c-0.3,0.3-0.6,0.7-0.9,1.1c-0.3,0.4-0.5,0.9-0.7,1.5l-0.5,4.6H282.1z"/>
			<path class="st1" d="M297.6,11.8c0,0.2,0,0.5-0.1,0.7c-0.1,0.2-0.2,0.4-0.3,0.6c-0.2,0.2-0.4,0.4-0.7,0.5
				c-0.3,0.2-0.6,0.3-1.1,0.5c-0.4,0.1-1,0.3-1.6,0.4c-0.6,0.1-1.3,0.2-2.1,0.3c0,0.1,0,0.2,0,0.4c0,0.1,0,0.2,0,0.4
				c0,0.9,0.2,1.5,0.6,2s1,0.7,1.8,0.7c0.3,0,0.6,0,0.8-0.1c0.2-0.1,0.5-0.2,0.7-0.3c0.2-0.1,0.4-0.2,0.5-0.3
				c0.1-0.1,0.3-0.2,0.4-0.3c0.1-0.1,0.2-0.2,0.3-0.3c0.1-0.1,0.2-0.1,0.2-0.1c0.1,0,0.1,0,0.2,0.1l0.2,0.2
				c-0.3,0.3-0.6,0.6-0.8,0.8s-0.5,0.4-0.8,0.5s-0.6,0.2-0.9,0.3c-0.3,0.1-0.6,0.1-1,0.1c-0.5,0-0.9-0.1-1.3-0.2
				c-0.4-0.2-0.7-0.4-0.9-0.7c-0.3-0.3-0.5-0.7-0.6-1.1c-0.1-0.4-0.2-0.9-0.2-1.4c0-0.4,0-0.9,0.1-1.3c0.1-0.4,0.2-0.9,0.4-1.3
				c0.2-0.4,0.4-0.8,0.6-1.1c0.3-0.4,0.5-0.7,0.9-0.9c0.3-0.3,0.7-0.5,1.1-0.6c0.4-0.2,0.8-0.2,1.3-0.2c0.4,0,0.8,0.1,1.1,0.2
				c0.3,0.1,0.5,0.3,0.7,0.4c0.2,0.2,0.3,0.4,0.4,0.6C297.6,11.4,297.6,11.6,297.6,11.8z M295.3,10.6c-0.5,0-0.9,0.1-1.3,0.3
				c-0.4,0.2-0.7,0.5-1,0.8c-0.3,0.3-0.5,0.7-0.7,1.1c-0.2,0.4-0.3,0.9-0.4,1.4c0.7-0.1,1.4-0.2,1.9-0.3c0.5-0.1,1-0.2,1.4-0.3
				c0.4-0.1,0.7-0.2,0.9-0.4s0.4-0.3,0.5-0.4c0.1-0.1,0.2-0.3,0.3-0.5c0-0.2,0.1-0.3,0.1-0.5c0-0.1,0-0.3-0.1-0.4
				c-0.1-0.1-0.1-0.3-0.3-0.4c-0.1-0.1-0.3-0.2-0.5-0.3C295.8,10.7,295.6,10.6,295.3,10.6z"/>
		</g>
	</g>
	<g>
		<path class="st0" d="M16.1,32.3C7.2,32.3,0,25,0,16.1C0,7.2,7.2,0,16.1,0s16.1,7.2,16.1,16.1C32.3,25,25,32.3,16.1,32.3z
			 M16.1,0.7C7.6,0.7,0.7,7.6,0.7,16.1s6.9,15.4,15.4,15.4s15.4-6.9,15.4-15.4S24.6,0.7,16.1,0.7z"/>
		<path class="st0" d="M12.6,11.6c0,0.3,0,0.6-0.1,0.8c-0.1,0.2-0.2,0.5-0.3,0.7s-0.2,0.4-0.4,0.6c-0.1,0.2-0.2,0.3-0.4,0.5
			c-0.1,0.2-0.2,0.3-0.3,0.5s-0.1,0.4-0.1,0.6c0,0.2,0,0.3,0.1,0.4c0.1,0.1,0.1,0.3,0.2,0.4c0.1,0.1,0.2,0.3,0.3,0.4
			c0.1,0.1,0.2,0.3,0.3,0.4c0.1,0.2,0.2,0.3,0.2,0.5c0.1,0.2,0.1,0.4,0.1,0.6c0,0.3-0.1,0.7-0.3,1c-0.2,0.3-0.4,0.6-0.7,0.8
			c-0.3,0.2-0.7,0.4-1.1,0.6c-0.4,0.1-0.9,0.2-1.5,0.2c-0.4,0-0.8,0-1.2-0.1S7,20.2,6.7,20s-0.5-0.4-0.6-0.6
			c-0.1-0.2-0.2-0.5-0.2-0.8c0-0.5,0.1-0.8,0.4-1.2s0.6-0.6,1.1-0.8c0.5-0.2,1-0.3,1.6-0.4c0.6-0.1,1.2,0,1.9,0
			c-0.1-0.1-0.2-0.3-0.2-0.4c-0.1-0.1-0.1-0.3-0.1-0.5c0-0.2,0-0.4,0.1-0.6c0.1-0.2,0.2-0.4,0.4-0.7c-0.2,0.1-0.5,0.3-0.7,0.3
			s-0.5,0.1-0.8,0.1c-0.3,0-0.6,0-0.9-0.1C8.4,14.4,8.2,14.2,8,14c-0.2-0.2-0.3-0.4-0.4-0.7c-0.1-0.3-0.2-0.6-0.2-1
			c0-0.4,0.1-0.7,0.2-1.1c0.1-0.4,0.3-0.7,0.6-1C8.4,10,8.7,9.8,9.1,9.6c0.4-0.2,0.8-0.3,1.3-0.3c0.6,0,1,0.1,1.4,0.4h2.1l0,0.3
			c0,0.1,0,0.1-0.1,0.1c0,0-0.1,0.1-0.2,0.1l-1.3,0.1c0.1,0.2,0.2,0.4,0.2,0.6C12.6,11.1,12.6,11.3,12.6,11.6z M11.7,18
			c0-0.3,0-0.5-0.1-0.7c-0.1-0.2-0.2-0.4-0.3-0.5l0,0c-0.8-0.1-1.5-0.1-2-0.1c-0.6,0.1-1.1,0.2-1.4,0.3c-0.4,0.2-0.7,0.4-0.9,0.7
			c-0.2,0.3-0.3,0.5-0.3,0.8c0,0.2,0.1,0.4,0.2,0.6c0.1,0.2,0.3,0.3,0.5,0.5c0.2,0.1,0.4,0.2,0.7,0.3C8.2,20,8.6,20,8.9,20
			c0.4,0,0.8-0.1,1.2-0.2c0.3-0.1,0.6-0.3,0.9-0.5c0.2-0.2,0.4-0.4,0.6-0.6C11.6,18.5,11.7,18.2,11.7,18z M9.7,14.1
			c0.3,0,0.7-0.1,0.9-0.2s0.5-0.3,0.7-0.6c0.2-0.2,0.3-0.5,0.4-0.8c0.1-0.3,0.1-0.6,0.1-0.9c0-0.6-0.1-1-0.5-1.3
			c-0.3-0.3-0.7-0.4-1.2-0.4c-0.4,0-0.7,0.1-0.9,0.2c-0.3,0.1-0.5,0.3-0.7,0.5c-0.2,0.2-0.3,0.5-0.4,0.8c-0.1,0.3-0.1,0.6-0.1,0.9
			c0,0.6,0.1,1,0.4,1.3C8.8,13.9,9.2,14.1,9.7,14.1z"/>
		<g>
			<path class="st0" d="M20.7,5.7l-0.6,4.8c-0.2-0.4-0.5-0.7-0.9-0.9c-0.4-0.2-0.8-0.3-1.2-0.3c-0.4,0-0.8,0.1-1.1,0.2
				c-0.3,0.2-0.7,0.4-1,0.6s-0.6,0.6-0.8,0.9s-0.4,0.7-0.6,1.1c-0.2,0.4-0.3,0.8-0.4,1.2C14.1,14,14,14.4,14,14.8
				c0,0.4,0,0.8,0.1,1.2c0.1,0.4,0.2,0.7,0.4,0.9c0.2,0.2,0.4,0.4,0.7,0.6c0.1,0,0.2,0.1,0.3,0.1c0,0-0.1,0.1-0.1,0.1
				c-0.3,0.2-0.6,0.5-0.8,0.8c-0.2,0.3-0.4,0.7-0.6,1c-0.2,0.4-0.3,0.8-0.4,1.2c-0.1,0.4-0.1,0.8-0.1,1.3c0,0.5,0.1,0.9,0.2,1.3
				c0.1,0.4,0.3,0.7,0.5,1c0.2,0.3,0.5,0.5,0.9,0.7c0.3,0.2,0.7,0.2,1.2,0.2c0.3,0,0.6,0,0.8-0.1c0.3,0,0.5-0.1,0.8-0.2
				c0.2-0.1,0.5-0.3,0.8-0.5c0.3-0.2,0.5-0.5,0.8-0.8l-0.2-0.2c-0.1-0.1-0.1-0.1-0.2-0.1s-0.1,0-0.2,0.1c-0.1,0.1-0.2,0.1-0.3,0.2
				c-0.1,0.1-0.2,0.2-0.4,0.3c-0.1,0.1-0.3,0.2-0.5,0.3c-0.2,0.1-0.4,0.2-0.6,0.2c-0.2,0.1-0.5,0.1-0.8,0.1c-0.4,0-0.7-0.1-0.9-0.2
				c-0.3-0.1-0.5-0.3-0.7-0.5c-0.2-0.2-0.3-0.5-0.4-0.8c-0.1-0.3-0.1-0.7-0.1-1c0-0.6,0.1-1.1,0.2-1.7c0.2-0.5,0.4-1,0.7-1.4
				c0.3-0.4,0.6-0.7,1-1c0.4-0.2,0.8-0.4,1.3-0.4c0.3,0,0.6,0,0.8,0.1c0.2,0.1,0.4,0.2,0.5,0.3c0.1,0.1,0.2,0.2,0.3,0.3
				c0,0,0.2,0.3,0.3,0.3c0.1,0.1,0.1,0.1,0.2,0.1h0.4l1.6-12.8H20.7z M18.7,17.2c-0.2-0.1-0.4-0.2-0.6-0.2c-0.1,0-0.1,0-0.2,0
				c0,0,0.1-0.1,0.1-0.1c0.3-0.3,0.6-0.6,0.8-0.9c0.3-0.4,0.5-0.8,0.7-1.2l-0.3,2.9c0,0,0,0,0,0C19.1,17.4,18.9,17.3,18.7,17.2z
				 M19.7,13.4c-0.2,0.5-0.4,1-0.7,1.5c-0.3,0.4-0.5,0.8-0.8,1.1c-0.3,0.3-0.6,0.6-0.9,0.7c-0.1,0.1-0.3,0.1-0.4,0.2
				c-0.1,0-0.1,0-0.2,0c-0.1,0-0.2,0-0.3,0c-0.5,0-0.9-0.2-1.2-0.6c-0.3-0.4-0.4-1-0.4-1.7c0-0.3,0-0.7,0.1-1.1
				c0.1-0.4,0.2-0.7,0.3-1.1c0.1-0.4,0.3-0.7,0.5-1c0.2-0.3,0.4-0.6,0.6-0.8c0.2-0.2,0.5-0.4,0.8-0.6c0.3-0.1,0.6-0.2,1-0.2
				c0.4,0,0.7,0.1,1.1,0.3c0.3,0.2,0.6,0.5,0.9,0.9L19.7,13.4z"/>
			<path class="st0" d="M25.7,18c0,0.1-0.1,0.1-0.2,0.1c-0.1,0-0.1,0-0.2-0.1c-0.1-0.1-0.2-0.1-0.3-0.2c-0.1-0.1-0.3-0.2-0.5-0.2
				c-0.2-0.1-0.4-0.1-0.7-0.1c-0.3,0-0.5,0-0.8,0.1c-0.2,0.1-0.5,0.2-0.6,0.4c-0.2,0.2-0.3,0.3-0.4,0.5c-0.1,0.2-0.2,0.4-0.2,0.6
				c0,0.2,0.1,0.4,0.2,0.6c0.1,0.2,0.2,0.3,0.4,0.4c0.2,0.1,0.4,0.2,0.6,0.3c0.2,0.1,0.4,0.2,0.7,0.2c0.2,0.1,0.4,0.2,0.7,0.3
				c0.2,0.1,0.4,0.2,0.6,0.4c0.2,0.1,0.3,0.3,0.4,0.5c0.1,0.2,0.2,0.4,0.2,0.7c0,0.3-0.1,0.7-0.2,1c-0.1,0.3-0.3,0.6-0.6,0.9
				c-0.3,0.3-0.6,0.5-0.9,0.6c-0.4,0.2-0.8,0.2-1.2,0.2c-0.5,0-1-0.1-1.3-0.3c-0.4-0.2-0.7-0.4-0.9-0.7l0.2-0.3
				c0.1-0.1,0.1-0.1,0.2-0.1c0.1,0,0.1,0,0.2,0.1c0.1,0.1,0.2,0.2,0.3,0.3c0.1,0.1,0.3,0.2,0.5,0.3c0.2,0.1,0.5,0.1,0.8,0.1
				c0.3,0,0.6-0.1,0.9-0.2c0.3-0.1,0.5-0.2,0.7-0.4c0.2-0.2,0.3-0.4,0.4-0.6c0.1-0.2,0.2-0.5,0.2-0.8c0-0.2-0.1-0.4-0.2-0.6
				c-0.1-0.2-0.2-0.3-0.4-0.4c-0.2-0.1-0.4-0.2-0.6-0.3c-0.2-0.1-0.4-0.2-0.7-0.2c-0.2-0.1-0.4-0.2-0.7-0.3
				c-0.2-0.1-0.4-0.2-0.6-0.3c-0.2-0.1-0.3-0.3-0.4-0.5c-0.1-0.2-0.2-0.4-0.2-0.7c0-0.3,0.1-0.6,0.2-0.9c0.1-0.3,0.3-0.5,0.6-0.8
				c0.2-0.2,0.5-0.4,0.9-0.5c0.3-0.1,0.7-0.2,1.1-0.2c0.5,0,0.8,0.1,1.2,0.2c0.3,0.1,0.6,0.4,0.9,0.6L25.7,18z"/>
		</g>
	</g>
</g>
</svg>
