<?xml version="1.0" encoding="utf-8"?>
<!-- Generator: Adobe Illustrator 23.0.6, SVG Export Plug-In . SVG Version: 6.00 Build 0)  -->
<svg version="1.1" id="レイヤー_1" xmlns="http://www.w3.org/2000/svg" xmlns:xlink="http://www.w3.org/1999/xlink" x="0px"
	 y="0px" width="49.4px" height="51.7px" viewBox="0 0 49.4 51.7" style="enable-background:new 0 0 49.4 51.7;"
	 xml:space="preserve">
<style type="text/css">
	.st0{fill:#1DADE5;}
</style>
<g>
	<path class="st0" d="M24.8,51.7c-5.3,0-9.1-3.3-9.1-8.1V41c0,0-0.1-2.2-1.7-3.9l-0.4-0.5l0,0c-2.5-2.8-3.8-6.3-3.8-10
		c0-8.3,6.7-15,15-15s15,6.7,15,15c0,3.8-1.4,7.4-4,10.2l-0.3,0.3c-1.6,1.8-1.7,3.9-1.7,3.9v2.6C33.8,48.3,30.1,51.7,24.8,51.7z
		 M15.9,36.2c1.7,2.2,1.8,4.7,1.8,4.8v2.6c0,4.2,3.6,6.1,7.1,6.1s7.1-1.9,7.1-6.1V41c0-0.1,0-2.5,1.8-4.8l0-0.1l0.5-0.5
		c2.4-2.5,3.7-5.7,3.7-9.1c0-7.2-5.8-13-13-13s-13,5.8-13,13c0,3.4,1.3,6.6,3.7,9.1L15.9,36.2L15.9,36.2z"/>
	<path class="st0" d="M24.5,8.7c-0.6,0-1-0.4-1-1V1c0-0.6,0.4-1,1-1s1,0.4,1,1v6.7C25.5,8.3,25,8.7,24.5,8.7z"/>
	<path class="st0" d="M38,13.3c-0.3,0-0.5-0.1-0.7-0.3c-0.4-0.4-0.4-1,0-1.4l3.9-3.9c0.4-0.4,1-0.4,1.4,0s0.4,1,0,1.4L38.7,13
		C38.5,13.2,38.2,13.3,38,13.3z"/>
	<path class="st0" d="M11.4,13.3c-0.3,0-0.5-0.1-0.7-0.3L6.8,9.1c-0.4-0.4-0.4-1,0-1.4s1-0.4,1.4,0l3.9,3.9c0.4,0.4,0.4,1,0,1.4
		C12,13.2,11.7,13.3,11.4,13.3z"/>
	<path class="st0" d="M6.5,22.2c-0.1,0-0.1,0-0.2,0l-5.5-0.9c-0.5-0.1-0.9-0.6-0.8-1.2c0.1-0.5,0.6-0.9,1.2-0.8l5.5,0.9
		c0.5,0.1,0.9,0.6,0.8,1.2C7.4,21.8,7,22.2,6.5,22.2z"/>
	<path class="st0" d="M42.9,22.2c-0.5,0-0.9-0.3-1-0.8c-0.1-0.5,0.3-1.1,0.8-1.2l5.5-0.9c0.5-0.1,1.1,0.3,1.2,0.8
		c0.1,0.5-0.3,1.1-0.8,1.2L43,22.2C43,22.2,42.9,22.2,42.9,22.2z"/>
</g>
<path class="st0" d="M24.7,47.4c-2,0-4-0.8-5.5-2.3c-0.4-0.4-0.4-1,0-1.4s1-0.4,1.4,0c2.3,2.3,5.9,2.3,8.2,0c0.4-0.4,1-0.4,1.4,0
	s0.4,1,0,1.4C28.7,46.6,26.7,47.4,24.7,47.4z"/>
<path class="st0" d="M24.7,43.4c-2,0-4-0.8-5.5-2.3c-0.4-0.4-0.4-1,0-1.4s1-0.4,1.4,0c2.3,2.3,5.9,2.3,8.2,0c0.4-0.4,1-0.4,1.4,0
	s0.4,1,0,1.4C28.7,42.7,26.7,43.4,24.7,43.4z"/>
</svg>
