<?xml version="1.0" encoding="utf-8"?>
<!-- Generator: Adobe Illustrator 23.0.6, SVG Export Plug-In . SVG Version: 6.00 Build 0)  -->
<svg version="1.1" id="レイヤー_1" xmlns="http://www.w3.org/2000/svg" xmlns:xlink="http://www.w3.org/1999/xlink" x="0px"
	 y="0px" width="32.5px" height="37.9px" viewBox="0 0 32.5 37.9" style="enable-background:new 0 0 32.5 37.9;"
	 xml:space="preserve">
<style type="text/css">
	.st0{fill:#8DC21F;}
</style>
<ellipse transform="matrix(0.9805 -0.1967 0.1967 0.9805 -6.4574 2.2246)" class="st0" cx="8" cy="33.6" rx="5.1" ry="4.3"/>
<path class="st0" d="M12.3,33.3h-2V13.8c0-0.5,0.4-0.9,0.8-1l19.5-3c0.3,0,0.6,0,0.8,0.2c0.2,0.2,0.3,0.5,0.3,0.8v19.5h-2V12
	l-17.5,2.7V33.3z"/>
<ellipse transform="matrix(0.9805 -0.1967 0.1967 0.9805 -5.492 6.0002)" class="st0" cx="27.5" cy="30.6" rx="5" ry="4.3"/>
<path class="st0" d="M5.5,11.3c-0.6,0-1-0.4-1-1c0-3.1,2.6-5.7,5.7-5.7c0.6,0,1,0.4,1,1s-0.4,1-1,1c-2,0-3.7,1.7-3.7,3.7
	C6.5,10.8,6.1,11.3,5.5,11.3z"/>
<path class="st0" d="M1,11.3c-0.6,0-1-0.4-1-1C0,4.6,4.6,0,10.3,0c0.6,0,1,0.4,1,1s-0.4,1-1,1C5.7,2,2,5.7,2,10.3
	C2,10.8,1.6,11.3,1,11.3z"/>
<polygon class="st0" points="30.8,15.4 11.3,18.4 11.3,13.8 30.8,10.8 "/>
</svg>
