<?xml version="1.0" encoding="utf-8"?>
<!-- Generator: Adobe Illustrator 23.0.6, SVG Export Plug-In . SVG Version: 6.00 Build 0)  -->
<svg version="1.1" id="レイヤー_1" xmlns="http://www.w3.org/2000/svg" xmlns:xlink="http://www.w3.org/1999/xlink" x="0px"
	 y="0px" width="50.1px" height="40.5px" viewBox="0 0 50.1 40.5" style="enable-background:new 0 0 50.1 40.5;"
	 xml:space="preserve">
<style type="text/css">
	.st0{fill:#ED85A0;}
</style>
<path class="st0" d="M21.8,40.5l-18-18C1.4,20,0,16.7,0,13.2c0-3.5,1.4-6.8,3.9-9.3C6.4,1.4,9.7,0,13.2,0c3.2,0,6.2,1.1,8.6,3.2
	c5.2-4.5,13-4.3,18,0.7c2.5,2.5,3.9,5.8,3.9,9.3c0,0.6-0.4,1-1,1s-1-0.4-1-1c0-3-1.2-5.8-3.3-7.9c-4.4-4.4-11.5-4.4-15.8,0L21.8,6
	l-0.7-0.7C19,3.2,16.2,2,13.2,2c-3,0-5.8,1.2-7.9,3.3S2,10.2,2,13.2c0,3,1.2,5.8,3.3,7.9l16.5,16.5l4-4c0.4-0.4,1-0.4,1.4,0
	s0.4,1,0,1.4L21.8,40.5z"/>
<path class="st0" d="M37.3,40.1L26.9,29.7c-1.5-1.5-2.3-3.5-2.3-5.6c0-2.1,0.8-4.1,2.3-5.6c1.5-1.5,3.5-2.3,5.6-2.3
	c1.8,0,3.5,0.6,4.9,1.7c1.4-1.1,3.1-1.7,4.9-1.7c2.1,0,4.1,0.8,5.6,2.3c1.5,1.5,2.3,3.5,2.3,5.6c0,2.1-0.8,4.1-2.3,5.6L37.3,40.1z
	 M32.5,18.2c-1.6,0-3.1,0.6-4.2,1.7s-1.7,2.6-1.7,4.2s0.6,3.1,1.7,4.2l9,9l9-9c1.1-1.1,1.7-2.6,1.7-4.2s-0.6-3.1-1.7-4.2l0,0
	c-1.1-1.1-2.6-1.7-4.2-1.7s-3.1,0.6-4.2,1.7l-0.7,0.7l-0.7-0.7C35.5,18.8,34,18.2,32.5,18.2z"/>
</svg>
