<?xml version="1.0" encoding="utf-8"?>
<!-- Generator: Adobe Illustrator 23.0.6, SVG Export Plug-In . SVG Version: 6.00 Build 0)  -->
<svg version="1.1" id="編集モード" xmlns="http://www.w3.org/2000/svg" xmlns:xlink="http://www.w3.org/1999/xlink" x="0px"
	 y="0px" width="187.3px" height="124px" viewBox="0 0 187.3 124" style="enable-background:new 0 0 187.3 124;"
	 xml:space="preserve">
<style type="text/css">
	.st0{fill:#BAD773;}
	.st1{fill:#FFFFFF;}
	.st2{fill:#A7DCF7;}
	.st3{fill:#F4B3C2;}
	.st4{clip-path:url(#SVGID_2_);}
	.st5{fill:#DEEAAA;}
	.st6{fill:none;stroke:#75655D;stroke-width:0.9297;stroke-linecap:round;stroke-linejoin:round;stroke-miterlimit:10;}
	.st7{fill:#75655D;}
	.st8{fill:#FFFFFF;stroke:#75655D;stroke-width:0.9297;stroke-linecap:round;stroke-linejoin:round;stroke-miterlimit:10;}
	.st9{fill:none;stroke:#75655D;stroke-width:0.9757;stroke-linecap:round;stroke-linejoin:round;stroke-miterlimit:10;}
	.st10{fill:none;stroke:#75655D;stroke-width:0.9812;stroke-linecap:round;stroke-linejoin:round;stroke-miterlimit:10;}
	.st11{fill:none;stroke:#75655D;stroke-width:0.5482;stroke-linecap:round;stroke-linejoin:round;stroke-miterlimit:10;}
	.st12{fill:none;stroke:#75655D;stroke-width:0.7548;stroke-linecap:round;stroke-linejoin:round;stroke-miterlimit:10;}
	.st13{fill:none;stroke:#75655D;stroke-width:0.8224;stroke-linecap:round;stroke-linejoin:round;stroke-miterlimit:10;}
</style>
<g>
	<g>
		<ellipse class="st0" cx="152.7" cy="66.2" rx="34.6" ry="28.5"/>
		<g>
			<ellipse class="st0" cx="123.8" cy="79.1" rx="4.4" ry="3.8"/>
			<ellipse class="st0" cx="117.2" cy="83.1" rx="2.1" ry="1.8"/>
		</g>
		<g>
			<g>
				<path class="st1" d="M140.3,52c0,0.2-1.1,2-1.3,2.3c0,0.1-0.1,0.1-0.1,0.2s0,0.1,0,0.2c0,0.1-0.1,0.1-0.1,0.1
					c-0.1,0-0.2-0.1-0.7-0.6c-0.2-0.1-0.2-0.2-0.2-0.3c0-0.1,0-0.1,0.2-0.2c0.4-0.4,1.1-1.7,1.4-2.3c0,0,0-0.1,0.1-0.1
					C139.6,51.3,140.3,51.7,140.3,52z M138.7,49.2c0.1,0,0.5,0.3,0.6,0.4c0.3,0.2,0.6,0.5,0.6,0.6c0,0.1-0.5,0.8-0.7,0.8
					c-0.1,0-0.1,0-0.2-0.1c-0.2-0.2-0.7-0.6-1-0.8c0,0-0.1-0.1-0.1-0.1C137.9,49.9,138.5,49.2,138.7,49.2z M139.1,47.5
					c0.2,0,1.2,0.8,1.2,1c0,0.2-0.5,0.8-0.7,0.8c-0.1,0-0.1-0.1-0.2-0.1c-0.3-0.3-0.6-0.5-1-0.8c0,0-0.1-0.1-0.1-0.1
					C138.4,48.1,138.9,47.5,139.1,47.5z M143.8,53.1c0,0.1,0,0.1,0,0.2c0,0.1,0.1,0.1,0.2,0.1h0.2c0.3,0,0.5,0,0.8,0
					c0.2,0,0.2,0.1,0.2,0.3v0.4c0,0.2,0,0.3-0.2,0.3c-0.3,0-0.6,0-0.9,0h-3c-0.3,0-0.6,0-1,0c-0.2,0-0.2-0.1-0.2-0.3v-0.5
					c0-0.2,0-0.3,0.2-0.3c0.3,0,0.6,0,0.9,0h1.2c0.2,0,0.3,0,0.4-0.2c0.2-0.6,0.5-2.4,0.6-3c0-0.2,0-0.3,0.1-0.3
					c0.1,0,1,0.2,1.1,0.2c0.1,0,0.1,0,0.1,0.1c0,0.1,0,0.1-0.1,0.1c-0.1,0-0.1,0-0.1,0.1C144.2,51.4,144,52.3,143.8,53.1z
					 M141.9,48.3c0-0.2,0-0.4,0-0.6c0,0,0-0.1,0-0.1c0-0.1,0.1-0.1,0.2-0.1c0.3,0,0.7,0,1,0c0.1,0,0.2,0,0.2,0.1c0,0,0,0.1-0.1,0.1
					c-0.1,0.1-0.1,0.2-0.1,0.4v0.4c0,0.2,0.1,0.3,0.3,0.3h0.4c0.3,0,0.6,0,0.9,0c0.2,0,0.2,0.1,0.2,0.3v0.4c0,0.2,0,0.3-0.2,0.3
					c-0.3,0-0.6,0-1,0h-2.4c-0.3,0-0.6,0-0.9,0c-0.2,0-0.2-0.1-0.2-0.3v-0.4c0-0.2,0-0.3,0.2-0.3c0.3,0,0.6,0,0.9,0h0.3
					c0.2,0,0.3-0.1,0.3-0.3V48.3z M141.6,50.1c0.1,0.4,0.3,1,0.4,1.3c0.1,0.3,0.3,1.2,0.3,1.5c0,0.1,0,0.2-0.5,0.3
					c-0.1,0-0.3,0.1-0.4,0.1c-0.1,0-0.2-0.1-0.2-0.2c-0.1-0.6-0.4-2.1-0.6-2.7c0,0,0-0.1,0-0.1c0-0.1,0.2-0.2,0.4-0.2
					c0.1,0,0.5-0.1,0.6-0.1C141.6,50,141.6,50,141.6,50.1z"/>
				<path class="st1" d="M147.9,49.1c0.1,0,0.2,0,0.2,0.1c0,0,0,0.1-0.1,0.1c-0.1,0.1-0.1,0.2-0.2,0.4c-0.1,0.4-0.1,0.8-0.1,1.1
					c0,0.5,0.1,1.1,0.3,1.5c0.1,0.1,0.2,0.4,0.4,0.4c0.2,0,0.4-0.3,0.4-0.5c0.1-0.1,0.1-0.2,0.2-0.2c0.2,0,0.8,0.5,0.8,0.6
					c0,0.2-0.4,0.6-0.5,0.8c-0.3,0.3-0.6,0.6-1,0.6c-0.5,0-1-0.4-1.3-0.8c-0.6-0.8-0.6-2-0.6-3c0-0.2,0-1.1,0-1.2
					c0-0.1,0-0.1,0.1-0.1C146.8,48.9,147.7,49,147.9,49.1z M150.8,48.8c0.2,0,0.8,0.5,1.2,1.1c0.3,0.5,0.5,1.1,0.6,1.6
					c0,0.1,0,0.3,0,0.4c0,0.2,0,0.2-0.2,0.3c-0.2,0.1-0.5,0.1-0.8,0.1c-0.3,0-0.3-0.1-0.3-0.4c-0.1-1-0.4-1.7-1.2-2.3
					c0,0-0.1-0.1-0.1-0.1C150.1,49.4,150.6,48.8,150.8,48.8z"/>
				<path class="st1" d="M157.1,47.7c0.2,0,0.4,0.1,0.4,0.2c0,0,0,0.1-0.1,0.1c-0.1,0.1-0.1,0.2-0.2,0.4c0,0.1,0,0.2-0.1,0.3
					c0,0,0,0.1,0,0.1c0,0.1,0.1,0.1,0.2,0.1c0.1,0,0.5-0.2,0.6-0.2c0.1,0,0.1-0.1,0.2-0.1c0.2,0,0.2,0.8,0.2,1c0,0.1,0,0.2-0.2,0.2
					c-0.3,0.1-0.8,0.2-1.1,0.3c-0.3,0.1-0.4,0.1-0.5,0.4c-0.3,1-1,2.7-1.5,3.5c-0.1,0.1-0.1,0.2-0.2,0.2s-1-0.4-1-0.6
					c0-0.1,0.1-0.2,0.2-0.3c0.6-0.8,1-1.7,1.3-2.6c0,0,0.1-0.1,0.1-0.2c0-0.1-0.1-0.1-0.2-0.1c-0.2,0-0.4,0-0.5,0
					c-0.2,0-0.3,0-0.3-0.2c0-0.2-0.1-0.7-0.1-0.8c0-0.1,0-0.2,0.1-0.2c0.1,0,0.4,0,0.9,0c0.4,0,0.5,0,0.6-0.2
					c0.1-0.3,0.2-1.2,0.2-1.5c0,0,0-0.1,0.1-0.1C156.2,47.5,157,47.7,157.1,47.7z M156.9,52.7c0.3,0.4,0.9,0.5,1.4,0.5
					c0.4,0,0.8,0,1.2-0.2c0,0,0.1,0,0.1,0c0.1,0,0.1,0.2,0.1,0.4v0.2c0,0.4,0,0.5-0.1,0.6c-0.2,0.1-1.1,0.1-1.4,0.1
					c-0.6,0-1.3-0.1-1.8-0.4c-0.1-0.1-0.4-0.3-0.4-0.5c0-0.1,0.3-0.5,0.4-0.6c0.1-0.1,0.2-0.2,0.3-0.2
					C156.8,52.6,156.9,52.6,156.9,52.7z M157.7,50.3c0.7,0,1.2,0.1,1.8,0.2c0.1,0,0.2,0.1,0.2,0.2c0,0.2-0.1,0.7-0.2,0.9
					c0,0.1-0.1,0.1-0.2,0.1c-0.1,0-0.1,0-0.2-0.1c-0.5-0.2-0.9-0.2-1.4-0.2h-0.3c-0.2,0-0.2,0-0.2-0.2
					C157.2,50.3,157.4,50.3,157.7,50.3z"/>
				<path class="st1" d="M163.4,48.5c0.1,0,0.2,0.1,0.2,0.1c0,0,0,0.1-0.1,0.1c-0.2,0.1-0.3,0.3-0.4,0.5c-0.1,0.3-0.3,0.8-0.3,1.2
					c0,0,0,0.1,0.1,0.1c0,0,0.1,0,0.1-0.2c0-0.1,0.1-0.2,0.2-0.2c0.1,0,0.4,0.2,0.4,0.4c0,0,0,0.1,0,0.1c-0.2,0.4-0.5,1.2-0.5,1.6
					v0.2c0,0.2-0.2,0.3-0.3,0.3c-0.1,0.1-0.3,0.1-0.5,0.1c-0.2,0-0.3-0.2-0.4-0.4c-0.2-0.6-0.3-1.3-0.3-1.9c0-0.5,0.1-1.2,0.2-1.8
					c0-0.2,0.1-0.4,0.2-0.6c0-0.1,0-0.2,0.1-0.2C162.4,48,163.1,48.3,163.4,48.5z M165.3,47.9c0.2,0,0.4-0.1,0.6-0.1
					c0.2,0,0.2,0.1,0.2,0.3c0.2,0.7,0.3,1.7,0.3,2.4c0,1.4-0.2,2.6-1.2,3.6c-0.2,0.2-0.5,0.5-0.7,0.5c-0.1,0-0.4-0.2-0.5-0.3
					c-0.2-0.2-0.4-0.3-0.4-0.5c0,0,0-0.1,0.1-0.2c0.4-0.3,0.8-0.7,1-1.2c0.3-0.6,0.3-1.2,0.3-1.8c0-0.8-0.1-1.6-0.3-2.4
					c0,0,0-0.1,0-0.1C164.8,48,164.9,48,165.3,47.9z"/>
				<path class="st1" d="M133.3,62.1c-0.1,0-0.1,0-0.1,0c0,0,0,0.1,0.1,0.1c0.3,0.2,0.5,0.3,0.5,0.3s-0.1,0.1-0.2,0.1
					c-0.1,0-0.2,0.1-0.2,0.2c-0.3,0.4-0.7,0.9-1.2,1.2c-0.1,0.1-0.2,0.2-0.4,0.2c-0.2,0-0.8-0.6-0.8-0.7c0-0.1,0.1-0.1,0.1-0.2
					c0.4-0.2,0.7-0.5,0.9-0.8c0,0,0,0,0,0c0.1-0.1,0.2-0.3,0.2-0.3c0-0.1-0.1-0.1-0.1-0.1c-0.3,0-0.6,0-1,0c-0.2,0-0.2-0.1-0.2-0.3
					v-0.4c0-0.2,0-0.3,0.2-0.3c0.1,0,0.3,0,0.4,0c0.1,0,0.2-0.1,0.2-0.3v-0.9c0-0.6,0-0.8,0-0.9c0-0.1,0.1-0.1,0.2-0.1
					c0.1,0,0.8,0.1,0.9,0.1c0.1,0,0.2,0,0.2,0.1c0,0,0,0.1-0.1,0.1c-0.1,0.1-0.1,0.2-0.1,0.5v1.2c0,0.1,0.1,0.2,0.2,0.2h0.5
					c0.1,0,0.2-0.1,0.2-0.2v-1.6c0-0.2,0-0.4,0-0.6c0,0,0-0.1,0-0.1c0-0.1,0.1-0.1,0.2-0.1c0.1,0,0.2,0,0.2,0c0.3,0,0.6,0,0.9,0.1
					c0.1,0,0.2,0,0.2,0.1c0,0.1,0,0.1-0.1,0.1c-0.1,0.1-0.1,0.1-0.1,0.2c0,0.2,0.1,0.2,0.3,0.2h0.8c0.3,0,0.6,0,0.9,0
					c0.2,0,0.2,0.1,0.2,0.3V60c0,0.3,0,0.3-0.3,0.3c-0.2,0-0.4,0-0.9,0h-0.9c-0.1,0-0.2,0.1-0.2,0.2v0.3c0,0.1,0.1,0.2,0.2,0.2h1.5
					c0.4,0,0.7,0,1.1,0c0.2,0,0.2,0.1,0.2,0.3v0.4c0,0.2,0,0.3-0.2,0.3c-0.3,0-0.6,0-0.9,0c0,0-0.1,0-0.1,0.1c0,0,0.1,0.1,0.2,0.2
					c0,0,0,0,0.1,0c0.2,0.2,0.6,0.5,0.8,0.7c0,0,0,0,0,0c0.1,0.1,0.2,0.2,0.2,0.3c0,0.2-0.5,0.7-0.7,0.7c-0.1,0-0.2-0.1-0.3-0.2
					c-0.4-0.4-0.8-0.8-1.3-1.2c0,0-0.1-0.1-0.1-0.2c0-0.1,0.2-0.3,0.3-0.3c0,0,0.1,0,0.1-0.1c0-0.1,0-0.1-0.1-0.1h-0.5
					c0,0-0.1,0-0.1,0c0,0,0,0,0,0v0c0,0-0.1,0.1-0.1,0.1c-0.1,0.1-0.1,0.1-0.1,0.3v0.3c0,0.2,0,0.4,0,0.6c0,0.1,0,0.1,0,0.2v0
					c0,0,0,0.1,0.1,0.1c0.1,0,0.6-0.4,0.6-0.5c0,0,0.1-0.1,0.1-0.1c0.1,0,0.4,0.2,0.6,0.4c0,0,0.1,0,0.1,0.1
					c0.2,0.2,0.4,0.2,0.4,0.3c0,0.1-0.1,0.1-0.1,0.1c0,0-0.1,0-0.1,0c0,0,0,0-0.1,0c0,0-0.1,0.1-0.2,0.1c-0.5,0.5-1.3,0.9-2,1.1
					c-0.8,0.3-1.6,0.4-2.4,0.4c-0.1,0-0.3,0-0.4,0c-0.2,0-0.3-0.1-0.4-0.4c0-0.2-0.1-0.4-0.1-0.6c0-0.1,0.1-0.1,0.2-0.1
					c0.2,0,0.4,0,0.6,0c0.6,0,1,0,1.5-0.1c0,0,0.1,0,0.1-0.1s0-0.1-0.1-0.1c-0.1,0-0.2,0-0.3-0.1c-0.1-0.2-0.2-0.5-0.2-0.7
					c0-0.2,0-0.3,0.2-0.3c0,0,0.2,0,0.3,0c0.3,0,0.3,0,0.3-0.4v-0.3c0-0.2,0-0.4-0.2-0.4H133.3z"/>
				<path class="st1" d="M142.2,59.1c0.1,0.3,0.1,0.3,0.2,0.3c0.1,0,0.3-0.1,0.4-0.2c0.1-0.1,0.2-0.1,0.3-0.1c0.2,0,0.5,0.7,0.5,0.9
					c0,0.1-0.1,0.2-0.2,0.2c-0.2,0.1-0.3,0.2-0.5,0.2c-0.1,0-0.2,0.1-0.2,0.1c0,0,0,0.2,0.1,0.2c0.2,0,0.7-0.3,0.8-0.4
					c0.1,0,0.2-0.1,0.2-0.1c0.1,0,0.2,0.2,0.3,0.3c0.1,0.2,0.3,0.4,0.3,0.6c0,0.1-0.2,0.2-0.4,0.3c-0.2,0.1-0.3,0.2-0.5,0.2
					c-0.1,0-0.2,0.1-0.2,0.2c0,0.1,0,0.1,0.1,0.2c0.2,0.3,0.4,0.7,0.6,1c0.1,0.1,0.2,0.3,0.2,0.4c0,0.2-0.6,0.7-0.9,0.7
					c-0.1,0-0.1,0-0.2-0.1c-0.3-0.3-0.8-0.5-1.3-0.5c-0.2,0-0.6,0.1-0.6,0.4c0,0.4,0.7,0.5,1,0.5c0.1,0,0.4,0,0.5,0
					c0.1,0,0.2,0,0.3,0c0.2,0,0.2,0.1,0.2,0.5c0,0.8-0.1,0.8-0.4,0.8c-0.4,0-0.9,0-1.3-0.1c-0.8-0.2-1.6-0.6-1.6-1.6
					c0-1,0.8-1.4,1.6-1.4c0.1,0,0.3,0,0.4,0h0c0,0,0.1,0,0.1-0.1c0,0-0.1-0.1-0.1-0.2c0-0.1-0.1-0.1-0.2-0.1c0,0,0,0-0.1,0
					c-0.5,0.1-1.6,0.4-2.1,0.4c-0.1,0-0.2-0.1-0.2-0.2c-0.1-0.2-0.2-0.5-0.2-0.8c0-0.1,0-0.2,0.4-0.2c0.4,0,1.3-0.1,1.6-0.2
					c0.1,0,0.1-0.1,0.1-0.1c0-0.1-0.1-0.1-0.1-0.1c0,0-0.1,0-0.1,0c-0.2,0.1-0.8,0.2-1,0.2c-0.1,0-0.2-0.1-0.2-0.2
					c-0.1-0.2-0.2-0.6-0.2-0.7c0-0.1,0.1-0.2,0.3-0.2c0.1,0,0.3,0,0.5,0c0.1,0,0.2-0.1,0.2-0.2c0-0.1-0.1-0.2-0.1-0.2
					c0-0.1-0.2-0.3-0.2-0.3c0-0.1,0.2-0.2,0.4-0.2c0.2-0.1,0.5-0.2,0.7-0.2C142.1,58.7,142.1,58.8,142.2,59.1z"/>
				<path class="st1" d="M147.6,65.3c-0.1,0-0.1,0.1-0.1,0.1c0,0,0,0,0,0c0,0.2-0.1,0.2-0.3,0.2h-0.5c-0.3,0-0.4,0-0.4-0.2
					c0-0.4,0-0.8,0-1.2v-4.3c0-0.3,0-0.6,0-0.8c0-0.3,0.2-0.4,0.5-0.4c0.3,0,0.5,0,0.8,0h4c0.3,0,0.5,0,0.8,0c0.3,0,0.5,0,0.5,0.4
					c0,0.3,0,0.6,0,0.8v4.3c0,0.4,0,0.8,0,1.2c0,0.2-0.1,0.2-0.4,0.2H152c-0.3,0-0.3,0-0.3-0.2v0c0-0.1-0.1-0.1-0.1-0.1H147.6z
					 M147.4,64c0,0.1,0.1,0.2,0.2,0.2h3.8c0.1,0,0.2-0.1,0.2-0.2v-3.9c0-0.1-0.1-0.2-0.2-0.2h-3.8c-0.1,0-0.2,0.1-0.2,0.2V64z
					 M149.1,63.5c-0.1,0-0.1,0-0.1,0.1c0,0.1-0.1,0.1-0.3,0.1c-0.1,0-0.2,0-0.3,0c0,0-0.1,0-0.1,0c-0.1,0-0.2,0-0.2-0.2
					c0-0.1,0-0.5,0-0.7v-1.4c0-0.2,0-0.5,0-0.6c0-0.4,0.3-0.4,0.6-0.4c0.2,0,0.4,0,0.7,0h0.7c0.2,0,0.4,0,0.7,0c0.3,0,0.6,0,0.6,0.4
					c0,0.1,0,0.4,0,0.6v1.4c0,0.3,0,0.6,0,0.7c0,0.2-0.1,0.2-0.3,0.2h-0.1c-0.1,0-0.2,0-0.3,0h0c-0.2,0-0.2-0.1-0.2-0.1
					c0-0.1-0.1-0.1-0.1-0.1H149.1z M149,62.4c0,0.1,0.1,0.2,0.2,0.2h0.7c0.1,0,0.2-0.1,0.2-0.2v-0.8c0-0.1-0.1-0.2-0.2-0.2h-0.7
					c-0.1,0-0.2,0.1-0.2,0.2V62.4z"/>
				<path class="st1" d="M159.2,62.6c0,1-0.7,1.7-1.6,2c-0.3,0.1-1,0.3-1.3,0.3c-0.2,0-0.2-0.1-0.3-0.2c-0.1-0.1-0.2-0.5-0.2-0.6
					c0-0.1,0.1-0.2,0.3-0.2c0.7-0.1,2-0.4,2-1.3c0-0.4-0.3-0.6-0.7-0.6c-0.7,0-1.7,0.4-2.3,0.8c-0.1,0.1-0.2,0.1-0.3,0.1
					c-0.3,0-0.7-0.7-0.7-0.9c0-0.1,0.1-0.2,0.3-0.2c0.2,0,0.4-0.1,0.6-0.2c0.7-0.2,1.6-0.6,2.3-0.6
					C158.4,60.9,159.2,61.5,159.2,62.6z"/>
				<path class="st1" d="M164,58.7c0.2,0,0.4,0.1,0.4,0.2c0,0,0,0.1-0.1,0.1c-0.1,0.1-0.1,0.2-0.2,0.4c0,0.1,0,0.2-0.1,0.3
					c0,0,0,0.1,0,0.1c0,0.1,0.1,0.1,0.2,0.1c0.1,0,0.5-0.2,0.6-0.2c0.1,0,0.1-0.1,0.2-0.1c0.2,0,0.2,0.8,0.2,1c0,0.1,0,0.2-0.2,0.2
					c-0.3,0.1-0.8,0.2-1.1,0.3c-0.3,0.1-0.4,0.1-0.5,0.4c-0.3,1-1,2.7-1.5,3.5c-0.1,0.1-0.1,0.2-0.2,0.2s-1-0.4-1-0.6
					c0-0.1,0.1-0.2,0.2-0.3c0.6-0.8,1-1.7,1.3-2.6c0,0,0.1-0.1,0.1-0.2c0-0.1-0.1-0.1-0.2-0.1c-0.2,0-0.4,0-0.5,0
					c-0.2,0-0.3,0-0.3-0.2c0-0.2-0.1-0.7-0.1-0.8c0-0.1,0-0.2,0.1-0.2c0.1,0,0.4,0,0.9,0c0.4,0,0.5,0,0.6-0.2
					c0.1-0.3,0.2-1.2,0.2-1.5c0,0,0-0.1,0.1-0.1C163.1,58.5,163.8,58.7,164,58.7z M163.8,63.7c0.3,0.4,0.9,0.5,1.4,0.5
					c0.4,0,0.8,0,1.2-0.2c0,0,0.1,0,0.1,0c0.1,0,0.1,0.2,0.1,0.4v0.2c0,0.4,0,0.5-0.1,0.6c-0.2,0.1-1.1,0.1-1.4,0.1
					c-0.6,0-1.3-0.1-1.8-0.4c-0.1-0.1-0.4-0.3-0.4-0.5c0-0.1,0.3-0.5,0.4-0.6c0.1-0.1,0.2-0.2,0.3-0.2
					C163.7,63.6,163.7,63.6,163.8,63.7z M164.5,61.3c0.7,0,1.2,0.1,1.8,0.2c0.1,0,0.2,0.1,0.2,0.2c0,0.2-0.1,0.7-0.2,0.9
					c0,0.1-0.1,0.1-0.2,0.1c-0.1,0-0.1,0-0.2-0.1c-0.5-0.2-0.9-0.2-1.4-0.2h-0.3c-0.2,0-0.2,0-0.2-0.2
					C164.1,61.3,164.2,61.3,164.5,61.3z"/>
				<path class="st1" d="M170.2,59.5c0.1,0,0.2,0.1,0.2,0.1c0,0,0,0.1-0.1,0.1c-0.2,0.1-0.3,0.3-0.4,0.5c-0.1,0.3-0.3,0.8-0.3,1.2
					c0,0,0,0.1,0.1,0.1c0,0,0.1,0,0.1-0.2c0-0.1,0.1-0.2,0.2-0.2c0.1,0,0.4,0.2,0.4,0.4c0,0,0,0.1,0,0.1c-0.2,0.4-0.5,1.2-0.5,1.6
					v0.2c0,0.2-0.2,0.3-0.3,0.3c-0.1,0.1-0.3,0.1-0.5,0.1c-0.2,0-0.3-0.2-0.4-0.4c-0.2-0.6-0.3-1.3-0.3-1.9c0-0.5,0.1-1.2,0.2-1.8
					c0-0.2,0.1-0.4,0.2-0.6c0-0.1,0-0.2,0.1-0.2C169.2,59,169.9,59.3,170.2,59.5z M172.1,58.9c0.2,0,0.4-0.1,0.6-0.1
					c0.2,0,0.2,0.1,0.2,0.3c0.2,0.7,0.3,1.7,0.3,2.4c0,1.4-0.2,2.6-1.2,3.6c-0.2,0.2-0.5,0.5-0.7,0.5c-0.1,0-0.4-0.2-0.5-0.3
					c-0.2-0.2-0.4-0.3-0.4-0.5c0,0,0-0.1,0.1-0.2c0.4-0.3,0.8-0.7,1-1.2c0.3-0.6,0.3-1.2,0.3-1.8c0-0.8-0.1-1.6-0.3-2.4
					c0,0,0-0.1,0-0.1C171.7,59,171.8,59,172.1,58.9z"/>
				<path class="st1" d="M128,70.3c0.1,0,0.2,0,0.2,0.1c0,0,0,0.1-0.1,0.1c-0.1,0.1-0.1,0.2-0.2,0.4c-0.2,1-0.3,2-0.3,3
					c0,0.6,0,1.3,0.6,1.3c0.5,0,1-0.3,1.3-0.7c0.3-0.3,0.4-0.8,0.5-1.2c0-0.2,0.1-0.3,0.2-0.3c0.2,0,0.4,0.2,0.5,0.3
					c0.1,0.1,0.4,0.3,0.4,0.5c0,0.2-0.2,0.8-0.3,1c-0.5,0.9-1.4,1.6-2.5,1.6c-0.6,0-1.2-0.2-1.5-0.7c-0.4-0.5-0.4-1.4-0.4-2
					c0-0.9,0.1-1.9,0.1-2.8c0-0.2,0-0.4,0-0.6c0-0.2,0-0.3,0.1-0.3C126.9,70,127.7,70.2,128,70.3z"/>
				<path class="st1" d="M135.7,69.7c0.2,0,0.4,0.1,0.4,0.2c0,0,0,0.1-0.1,0.1c-0.1,0.1-0.1,0.2-0.2,0.4c0,0.1,0,0.2-0.1,0.3
					c0,0,0,0.1,0,0.1c0,0.1,0.1,0.1,0.2,0.1c0.1,0,0.5-0.2,0.6-0.2c0.1,0,0.1-0.1,0.2-0.1c0.2,0,0.2,0.8,0.2,1c0,0.1,0,0.2-0.2,0.2
					c-0.3,0.1-0.8,0.2-1.1,0.3c-0.3,0.1-0.4,0.1-0.5,0.4c-0.3,1-1,2.7-1.5,3.5c-0.1,0.1-0.1,0.2-0.2,0.2c-0.1,0-1-0.4-1-0.6
					c0-0.1,0.1-0.2,0.2-0.3c0.6-0.8,1-1.7,1.3-2.6c0,0,0.1-0.1,0.1-0.2c0-0.1-0.1-0.1-0.2-0.1c-0.2,0-0.4,0-0.5,0
					c-0.2,0-0.3,0-0.3-0.2c0-0.2-0.1-0.7-0.1-0.8c0-0.1,0-0.2,0.1-0.2c0.1,0,0.4,0,0.9,0c0.4,0,0.5,0,0.6-0.2
					c0.1-0.3,0.2-1.2,0.2-1.5c0,0,0-0.1,0.1-0.1C134.8,69.5,135.5,69.7,135.7,69.7z M135.5,74.7c0.3,0.4,0.9,0.5,1.4,0.5
					c0.4,0,0.8,0,1.2-0.2c0,0,0.1,0,0.1,0c0.1,0,0.1,0.2,0.1,0.4v0.2c0,0.4,0,0.5-0.1,0.6c-0.2,0.1-1.1,0.1-1.4,0.1
					c-0.6,0-1.3-0.1-1.8-0.4c-0.1-0.1-0.4-0.3-0.4-0.5c0-0.1,0.3-0.5,0.4-0.6c0.1-0.1,0.2-0.2,0.3-0.2
					C135.4,74.6,135.4,74.6,135.5,74.7z M136.2,72.3c0.7,0,1.2,0.1,1.8,0.2c0.1,0,0.2,0.1,0.2,0.2c0,0.2-0.1,0.7-0.2,0.9
					c0,0.1-0.1,0.1-0.2,0.1c-0.1,0-0.1,0-0.2-0.1c-0.5-0.2-0.9-0.2-1.4-0.2H136c-0.2,0-0.2,0-0.2-0.2
					C135.8,72.3,135.9,72.3,136.2,72.3z"/>
				<path class="st1" d="M141.8,71.3c0.2,0.1,0.4,0.1,0.4,0.2c0,0-0.1,0.1-0.1,0.1c-0.1,0-0.1,0.1-0.2,0.3c-0.1,0.2-0.1,0.5-0.1,0.7
					c0,0.1,0,0.1,0,0.2c0,0.1,0,0.1,0.1,0.1s0.4-0.2,0.5-0.2c0.3-0.2,0.8-0.3,1.2-0.3c0.5,0,1,0.2,1.4,0.6c0.3,0.3,0.4,0.7,0.4,1.2
					c0,0.5-0.1,0.9-0.4,1.2c-0.4,0.4-0.9,0.6-1.4,0.8c-0.3,0.1-0.9,0.2-1.2,0.2c-0.1,0-0.2,0-0.3-0.2c-0.1-0.2-0.3-0.7-0.3-0.9
					c0-0.2,0.1-0.2,0.2-0.2c0.6,0,2.1-0.2,2.1-1c0-0.4-0.4-0.6-0.8-0.6c-0.8,0-1.6,0.7-2,1.3c-0.1,0.1-0.1,0.2-0.3,0.2
					s-0.8-0.1-0.8-0.4c0-0.1,0-0.1,0-0.2c0.3-1,0.4-2.3,0.4-3c0-0.3,0-0.4,0.2-0.4C141,71.1,141.6,71.3,141.8,71.3z M141.9,69.6
					c0.1,0,0.2,0,0.3,0.1c0.4,0.2,0.9,0.5,1.1,0.7c0.2,0.1,0.3,0.2,0.3,0.3c0,0.2-0.5,0.9-0.7,0.9c-0.1,0-0.2-0.1-0.2-0.1
					c-0.4-0.3-0.8-0.6-1.2-0.8c-0.1-0.1-0.2-0.1-0.2-0.2C141.3,70.3,141.7,69.6,141.9,69.6z"/>
				<path class="st1" d="M148.5,70c0.2,0,0.4-0.1,0.6-0.1c0.2,0,0.2,0,0.3,0.8c0,0.4,0.1,0.6,0.1,0.8c0,0.1,0.1,0.2,0.2,0.2
					c0.1,0,0.7-0.3,1.1-0.6c0.1,0,0.2-0.2,0.3-0.2c0.1,0,0.3,0.3,0.4,0.4c0.1,0.2,0.3,0.5,0.3,0.7c0,0.1-0.1,0.1-0.3,0.2
					c0,0-0.1,0-0.1,0c-0.7,0.2-1.7,0.7-2.3,1.1c-0.3,0.2-0.8,0.5-0.8,0.9c0,0.5,1,0.5,1.4,0.5c0.6,0,1.5-0.1,2.1-0.2
					c0,0,0.1,0,0.1,0c0.1,0,0.1,0.1,0.1,0.2c0,0.2,0,0.6,0,0.8c0,0.3-0.1,0.3-0.3,0.4c-0.5,0.1-1.6,0.1-2,0.1c-0.6,0-1.2,0-1.8-0.4
					c-0.5-0.3-0.8-0.8-0.8-1.4c0-0.8,0.5-1.4,1.1-1.8c0.1-0.1,0.2-0.1,0.2-0.2c0-0.1-0.1-0.4-0.1-0.5c-0.1-0.5-0.3-1.1-0.4-1.6
					c0,0,0-0.1,0-0.1C147.7,70.1,147.9,70.1,148.5,70z M152.2,70.6c0.1,0.2,0.3,0.4,0.3,0.5c0,0.2-0.4,0.4-0.5,0.4
					c0,0-0.1,0-0.2-0.2c-0.1-0.2-0.3-0.4-0.4-0.6c0,0,0-0.1,0-0.1c0-0.1,0.5-0.3,0.5-0.3C151.9,70.2,152.2,70.6,152.2,70.6z
					 M152.8,69.7c0.1,0.1,0.2,0.2,0.2,0.3c0.1,0.1,0.3,0.4,0.3,0.5c0,0.2-0.4,0.4-0.5,0.4c-0.1,0-0.1-0.1-0.1-0.1
					c-0.2-0.3-0.3-0.5-0.5-0.8c0,0,0,0,0-0.1C152.2,69.8,152.7,69.6,152.8,69.7C152.8,69.6,152.8,69.6,152.8,69.7z"/>
				<path class="st1" d="M159.1,73.4c0,1.3-1,2.5-2.2,3.1c-0.1,0.1-0.4,0.2-0.6,0.2c-0.3,0-0.8-0.8-0.8-1c0-0.1,0.1-0.1,0.1-0.1
					c0.6-0.2,1-0.4,1.5-0.8c0.4-0.4,0.7-0.8,0.7-1.3c0-0.5-0.4-0.8-0.9-0.8c-0.6,0-1.2,0.3-1.7,0.7c0,0-0.1,0.1-0.2,0.1
					c-0.3,0-0.6-0.8-0.6-1.1c0-0.1,0.1-0.2,0.2-0.2c0.6-0.3,1.6-0.6,2.3-0.6C158.1,71.4,159.1,72.1,159.1,73.4z M155.9,69.7
					c0.5,0.2,1.5,0.4,2.1,0.4c0.2,0,0.3,0,0.3,0.1c0,0.1,0,0.3-0.1,0.5c0,0.3-0.1,0.6-0.3,0.6c-0.4,0-1.5-0.2-1.9-0.4
					c-0.5-0.1-0.6-0.2-0.6-0.3c0-0.2,0.2-0.6,0.2-0.8c0-0.1,0.1-0.2,0.2-0.2C155.8,69.7,155.9,69.7,155.9,69.7z"/>
				<path class="st1" d="M163.2,70.3c0.1,0,0.2,0,0.2,0.1c0,0,0,0.1-0.1,0.1c-0.1,0.1-0.1,0.2-0.2,0.4c-0.2,1-0.3,2-0.3,3
					c0,0.6,0,1.3,0.6,1.3c0.5,0,1-0.3,1.3-0.7c0.3-0.3,0.4-0.8,0.5-1.2c0-0.2,0.1-0.3,0.2-0.3c0.2,0,0.4,0.2,0.5,0.3
					c0.1,0.1,0.4,0.3,0.4,0.5c0,0.2-0.2,0.8-0.3,1c-0.5,0.9-1.4,1.6-2.5,1.6c-0.6,0-1.2-0.2-1.5-0.7c-0.4-0.5-0.4-1.4-0.4-2
					c0-0.9,0.1-1.9,0.1-2.8c0-0.2,0-0.4,0-0.6c0-0.2,0-0.3,0.1-0.3C162,70,162.9,70.2,163.2,70.3z"/>
				<path class="st1" d="M170.7,69.8c0.1,0,0.3,0,0.3,0.1c0,0.1-0.1,0.1-0.1,0.2c-0.1,0.1-0.1,0.3-0.1,0.9c0,0.1,0.1,0.2,0.2,0.2
					c0.2,0,0.7-0.2,0.9-0.2c0.2-0.1,0.3-0.1,0.4-0.1c0.1,0,0.2,0.1,0.3,0.4c0.1,0.2,0.2,0.4,0.2,0.6c0,0.1-0.1,0.1-0.4,0.2
					c-0.4,0.1-0.8,0.2-1.2,0.2c-0.2,0-0.3,0.1-0.3,0.3c0,0.1,0,0.7,0,0.9c0,0.2,0.1,0.3,0.4,0.3c0.5,0.2,1.3,0.4,1.8,0.7
					c0.1,0,0.1,0.1,0.1,0.2c0,0.2-0.4,0.9-0.6,0.9c-0.1,0-0.1-0.1-0.2-0.1c-0.2-0.1-1-0.6-1.2-0.6c-0.1,0-0.2,0-0.2,0.2
					c-0.1,0.9-0.9,1.1-1.6,1.1c-0.8,0-1.8-0.4-1.8-1.3c0-1,1-1.4,1.9-1.4h0.1c0.1,0,0.2-0.1,0.2-0.2c0-0.1,0-0.9,0-1.1
					c0-0.8,0-1.7-0.1-2.5c0,0,0-0.1,0-0.1c0-0.1,0.1-0.1,0.2-0.1C169.8,69.6,170.5,69.7,170.7,69.8z M169.4,74.7
					c-0.2,0-0.9,0-0.9,0.4c0,0.2,0.4,0.3,0.6,0.3c0.3,0,0.6-0.1,0.6-0.4C169.7,74.7,169.6,74.7,169.4,74.7z"/>
				<path class="st1" d="M179.2,73.4c0,1.3-1,2.5-2.2,3.1c-0.1,0.1-0.4,0.2-0.6,0.2c-0.3,0-0.8-0.8-0.8-1c0-0.1,0.1-0.1,0.1-0.1
					c0.6-0.2,1-0.4,1.5-0.8c0.4-0.4,0.7-0.8,0.7-1.3c0-0.5-0.4-0.8-0.9-0.8c-0.6,0-1.2,0.3-1.7,0.7c0,0-0.1,0.1-0.2,0.1
					c-0.3,0-0.6-0.8-0.6-1.1c0-0.1,0.1-0.2,0.2-0.2c0.6-0.3,1.6-0.6,2.3-0.6C178.3,71.4,179.2,72.1,179.2,73.4z M176.1,69.7
					c0.5,0.2,1.5,0.4,2.1,0.4c0.2,0,0.3,0,0.3,0.1c0,0.1,0,0.3-0.1,0.5c0,0.3-0.1,0.6-0.3,0.6c-0.4,0-1.5-0.2-1.9-0.4
					c-0.5-0.1-0.6-0.2-0.6-0.3c0-0.2,0.2-0.6,0.2-0.8c0-0.1,0.1-0.2,0.2-0.2C176,69.7,176,69.7,176.1,69.7z"/>
			</g>
		</g>
		<g>
			<g>
				<path class="st1" d="M149.1,81.5c0.1,0,0.1,0,0.1,0.1c0,0,0,0.1-0.1,0.1c0,0-0.1,0.2-0.1,0.3c0,0,0,0,0,0c0,0,0,0,0,0.1
					c0,0,0,0.1,0.1,0.1c0,0,0.1,0,0.1,0c0,0,0.1,0,0.1,0c0.1,0,0.1,0,0.1,0.1c0,0.1,0.1,0.5,0.1,0.6c0,0.1-0.1,0.2-0.6,0.2
					c-0.2,0-0.2,0.1-0.3,0.3c-0.1,0.3-0.2,0.5-0.3,0.8c-0.2,0.4-0.3,0.7-0.5,1.1c0,0.1-0.1,0.2-0.1,0.3c0,0.1-0.1,0.1-0.1,0.1
					c-0.2,0-0.8-0.3-0.8-0.4c0,0,0.1-0.2,0.1-0.2c0.1-0.2,0.8-1.4,0.8-1.5c0-0.1-0.1-0.1-0.1-0.1c0,0-0.2,0-0.2,0
					c-0.1,0-0.2,0-0.3,0c-0.1,0-0.2-0.1-0.2-0.6c0,0,0-0.2,0-0.2c0-0.1,0-0.1,0.1-0.1c0.1,0,0.2,0,0.4,0c0.5,0,0.6,0,0.7-0.2
					c0.1-0.2,0.2-0.7,0.2-0.9c0,0,0-0.1,0-0.1C148.3,81.3,149,81.5,149.1,81.5z M150,83.4c0.1,0,0.2,0.1,0.2,0.2c0,0.1,0,0.2,0,0.3
					c0,0.3,0,0.6,0,0.9c0,0.1,0,0.2,0.2,0.2c0.2,0.1,0.9,0.4,0.9,0.6c0,0.1-0.3,0.6-0.5,0.6c0,0-0.1-0.1-0.3-0.2
					c0,0-0.1-0.1-0.1-0.1c0,0-0.1,0-0.1,0c-0.1,0-0.1,0.1-0.1,0.1c0,0.1-0.1,0.2-0.2,0.3c-0.2,0.2-0.5,0.2-0.7,0.2
					c-0.6,0-1.2-0.3-1.2-0.9c0-0.6,0.5-0.9,1.1-0.9h0c0.1,0,0.1-0.1,0.1-0.1c0-0.1-0.1-0.6-0.1-0.8c0-0.1,0-0.2,0-0.3
					c0-0.1,0-0.2,0.2-0.2C149.5,83.3,149.8,83.4,150,83.4z M148.9,85.6c0,0.1,0.1,0.2,0.2,0.2c0.1,0,0.2-0.1,0.2-0.2
					c0-0.1,0-0.1-0.2-0.1C149,85.4,148.9,85.5,148.9,85.6z M151,82.7c0.1,0.1,0.5,0.5,0.5,0.6c0,0.2-0.5,0.6-0.6,0.6
					c-0.1,0-0.1-0.1-0.2-0.2c-0.2-0.3-0.5-0.5-0.8-0.8c0,0-0.1-0.1-0.1-0.1c0-0.1,0.4-0.6,0.6-0.6C150.5,82.3,150.9,82.6,151,82.7z"
					/>
				<path class="st1" d="M153.7,81.6c0.1,0,0.3,0,0.4,0c0.2,0,0.2,0,0.2,0.6c0,0.3,0.1,0.4,0.1,0.6c0,0.1,0,0.2,0.1,0.2
					c0.1,0,0.5-0.2,0.8-0.4c0.1,0,0.2-0.1,0.3-0.1c0.1,0,0.2,0.2,0.3,0.3c0.1,0.1,0.3,0.4,0.3,0.5c0,0.1-0.1,0.1-0.2,0.1
					c0,0-0.1,0-0.1,0c-0.5,0.2-1.3,0.5-1.7,0.8c-0.2,0.1-0.6,0.4-0.6,0.7c0,0.4,0.8,0.4,1,0.4c0.5,0,1.1,0,1.5-0.2c0,0,0,0,0.1,0
					c0,0,0.1,0,0.1,0.1c0,0.2,0,0.4,0,0.6c0,0.2,0,0.2-0.3,0.3c-0.3,0.1-1.2,0.1-1.5,0.1c-0.5,0-0.9,0-1.3-0.3
					c-0.4-0.2-0.6-0.6-0.6-1c0-0.6,0.3-1,0.8-1.3c0.1,0,0.1-0.1,0.1-0.2c0,0-0.1-0.3-0.1-0.3c-0.1-0.4-0.2-0.8-0.3-1.2
					c0,0,0-0.1,0-0.1C153.1,81.7,153.2,81.7,153.7,81.6z M156.5,82.1c0.1,0.1,0.2,0.3,0.2,0.4c0,0.1-0.3,0.3-0.4,0.3
					c0,0,0,0-0.1-0.2c-0.1-0.2-0.2-0.3-0.3-0.5c0,0,0-0.1,0-0.1c0-0.1,0.3-0.2,0.4-0.2C156.3,81.8,156.4,82.1,156.5,82.1z M157,81.4
					c0.1,0.1,0.1,0.1,0.2,0.2c0,0.1,0.2,0.3,0.2,0.4c0,0.1-0.3,0.3-0.4,0.3c0,0-0.1,0-0.1-0.1c-0.1-0.2-0.2-0.4-0.4-0.6
					c0,0,0,0,0-0.1C156.5,81.5,156.8,81.4,157,81.4C156.9,81.4,156.9,81.4,157,81.4z"/>
				<path class="st1" d="M160.4,81.5c0.1,0,0.1,0,0.1,0.1c0,0,0,0.1-0.1,0.1c0,0-0.1,0.2-0.1,0.3c0,0,0,0,0,0c0,0,0,0,0,0.1
					c0,0,0,0.1,0.1,0.1c0,0,0.1,0,0.1,0c0,0,0.1,0,0.1,0c0.1,0,0.1,0,0.1,0.1c0,0.1,0.1,0.5,0.1,0.6c0,0.1-0.1,0.2-0.6,0.2
					c-0.2,0-0.2,0.1-0.3,0.3c-0.1,0.3-0.2,0.5-0.3,0.8c-0.2,0.4-0.3,0.7-0.5,1.1c0,0.1-0.1,0.2-0.1,0.3c0,0.1-0.1,0.1-0.1,0.1
					c-0.2,0-0.8-0.3-0.8-0.4c0,0,0.1-0.2,0.1-0.2c0.1-0.2,0.8-1.4,0.8-1.5c0-0.1-0.1-0.1-0.1-0.1c0,0-0.2,0-0.2,0
					c-0.1,0-0.2,0-0.3,0c-0.1,0-0.2-0.1-0.2-0.6c0,0,0-0.2,0-0.2c0-0.1,0-0.1,0.1-0.1c0.1,0,0.2,0,0.4,0c0.5,0,0.6,0,0.7-0.2
					c0.1-0.2,0.2-0.7,0.2-0.9c0,0,0-0.1,0-0.1C159.6,81.3,160.3,81.5,160.4,81.5z M161.2,83.4c0.1,0,0.2,0.1,0.2,0.2
					c0,0.1,0,0.2,0,0.3c0,0.3,0,0.6,0,0.9c0,0.1,0,0.2,0.2,0.2c0.2,0.1,0.9,0.4,0.9,0.6c0,0.1-0.3,0.6-0.5,0.6c0,0-0.1-0.1-0.3-0.2
					c0,0-0.1-0.1-0.1-0.1c0,0-0.1,0-0.1,0c-0.1,0-0.1,0.1-0.1,0.1c0,0.1-0.1,0.2-0.2,0.3c-0.2,0.2-0.5,0.2-0.7,0.2
					c-0.6,0-1.2-0.3-1.2-0.9c0-0.6,0.5-0.9,1.1-0.9h0c0.1,0,0.1-0.1,0.1-0.1c0-0.1-0.1-0.6-0.1-0.8c0-0.1,0-0.2,0-0.3
					c0-0.1,0-0.2,0.2-0.2C160.8,83.3,161.1,83.4,161.2,83.4z M160.2,85.6c0,0.1,0.1,0.2,0.2,0.2c0.1,0,0.2-0.1,0.2-0.2
					c0-0.1,0-0.1-0.2-0.1C160.3,85.4,160.2,85.5,160.2,85.6z M162.2,82.7c0.1,0.1,0.5,0.5,0.5,0.6c0,0.2-0.5,0.6-0.6,0.6
					c-0.1,0-0.1-0.1-0.2-0.2c-0.2-0.3-0.5-0.5-0.8-0.8c0,0-0.1-0.1-0.1-0.1c0-0.1,0.4-0.6,0.6-0.6C161.8,82.3,162.1,82.6,162.2,82.7
					z"/>
				<path class="st1" d="M165,81.6c0.1,0,0.3,0,0.4,0c0.2,0,0.2,0,0.2,0.6c0,0.3,0.1,0.4,0.1,0.6c0,0.1,0,0.2,0.1,0.2
					c0.1,0,0.5-0.2,0.8-0.4c0.1,0,0.2-0.1,0.3-0.1c0.1,0,0.2,0.2,0.3,0.3c0.1,0.1,0.3,0.4,0.3,0.5c0,0.1-0.1,0.1-0.2,0.1
					c0,0-0.1,0-0.1,0c-0.5,0.2-1.3,0.5-1.7,0.8c-0.2,0.1-0.6,0.4-0.6,0.7c0,0.4,0.8,0.4,1,0.4c0.5,0,1.1,0,1.5-0.2c0,0,0,0,0.1,0
					c0,0,0.1,0,0.1,0.1c0,0.2,0,0.4,0,0.6c0,0.2,0,0.2-0.3,0.3c-0.3,0.1-1.2,0.1-1.5,0.1c-0.5,0-0.9,0-1.3-0.3
					c-0.4-0.2-0.6-0.6-0.6-1c0-0.6,0.3-1,0.8-1.3c0.1,0,0.1-0.1,0.1-0.2c0,0-0.1-0.3-0.1-0.3c-0.1-0.4-0.2-0.8-0.3-1.2
					c0,0,0-0.1,0-0.1C164.4,81.7,164.5,81.7,165,81.6z M167.8,82.1c0.1,0.1,0.2,0.3,0.2,0.4c0,0.1-0.3,0.3-0.4,0.3c0,0,0,0-0.1-0.2
					c-0.1-0.2-0.2-0.3-0.3-0.5c0,0,0-0.1,0-0.1c0-0.1,0.3-0.2,0.4-0.2C167.6,81.8,167.7,82.1,167.8,82.1z M168.2,81.4
					c0.1,0.1,0.1,0.1,0.2,0.2c0,0.1,0.2,0.3,0.2,0.4c0,0.1-0.3,0.3-0.4,0.3c0,0-0.1,0-0.1-0.1c-0.1-0.2-0.2-0.4-0.4-0.6
					c0,0,0,0,0-0.1C167.8,81.5,168.1,81.4,168.2,81.4C168.2,81.4,168.2,81.4,168.2,81.4z"/>
				<path class="st1" d="M170.4,83.9c0,0.4-0.3,0.7-0.7,0.7c-0.4,0-0.7-0.3-0.7-0.6c0-0.4,0.3-0.7,0.7-0.7
					C170.2,83.3,170.4,83.6,170.4,83.9z"/>
				<path class="st1" d="M172.5,83.9c0,0.4-0.3,0.7-0.7,0.7c-0.4,0-0.7-0.3-0.7-0.6c0-0.4,0.3-0.7,0.7-0.7
					C172.2,83.3,172.5,83.6,172.5,83.9z"/>
				<path class="st1" d="M174.5,83.9c0,0.4-0.3,0.7-0.7,0.7c-0.4,0-0.7-0.3-0.7-0.6c0-0.4,0.3-0.7,0.7-0.7
					C174.2,83.3,174.5,83.6,174.5,83.9z"/>
			</g>
		</g>
	</g>
	<g>
		<ellipse class="st2" cx="34.6" cy="66.6" rx="34.6" ry="28.5"/>
		<g>
			<g>
				<path class="st1" d="M24.5,53.4c0-0.2,0-0.4,0-0.6c0-0.2,0.1-0.3,0.3-0.3c0.2,0,0.4,0,0.6,0H26c0.2,0,0.4,0,0.6,0
					c0.2,0,0.3,0.1,0.3,0.3c0,0.2,0,0.4,0,0.6v3.5c0,0.3,0,0.6,0,0.9c0,0.1-0.1,0.2-0.2,0.2h-0.5c-0.2,0-0.3,0-0.3-0.2
					c0-0.1,0-0.1,0-0.2c0-0.2-0.1-0.2-0.2-0.2h0c-0.1,0-0.2,0.1-0.2,0.2c0,0.1,0,0.2,0,0.4c0,0.2-0.1,0.2-0.2,0.2h-0.5
					c-0.2,0-0.3,0-0.3-0.1c0-0.3,0-0.6,0-0.9V53.4z M25.5,54.1c0,0.1,0.1,0.2,0.2,0.2h0c0.1,0,0.2-0.1,0.2-0.2v-0.4
					c0-0.1-0.1-0.2-0.2-0.2h0c-0.1,0-0.2,0.1-0.2,0.2V54.1z M25.5,56.1c0,0.1,0.1,0.2,0.2,0.2h0c0.1,0,0.2-0.1,0.2-0.2v-0.6
					c0-0.1-0.1-0.2-0.2-0.2h0c-0.1,0-0.2,0.1-0.2,0.2V56.1z M30.5,54.5c0,0,0.1,0.1,0.2,0.1c0.1,0,0.5,0,0.6,0
					c0.2,0,0.2,0.1,0.2,0.4v0.3c0,0.3-0.1,0.3-0.2,0.3c-0.3,0-0.5,0-0.8,0H28c-0.3,0-0.6,0-0.7,0c-0.3,0-0.3-0.1-0.3-0.4v-0.3
					c0-0.2,0-0.3,0.2-0.3c0.2,0,0.4,0,0.5,0c0.1,0,0.1,0,0.1-0.1c0-0.1-0.2-0.6-0.2-0.7c0-0.1,0-0.1,0-0.2c0,0,0,0,0,0c0,0,0,0,0,0
					c0,0,0,0-0.1,0h-0.1c-0.2,0-0.3,0-0.3-0.3v-0.4c0-0.2,0-0.3,0.2-0.3c0.3,0,0.5,0,0.8,0h0.2c0.1,0,0.2-0.1,0.2-0.2
					c0-0.1,0-0.3,0-0.4c0-0.1,0.1-0.1,0.2-0.1c0.2,0,0.6,0,0.9,0.1c0.2,0,0.3,0,0.3,0.1c0,0,0,0.1-0.1,0.1c-0.1,0.1-0.1,0.1-0.1,0.2
					c0,0.2,0.1,0.2,0.3,0.2h0.3c0.3,0,0.5,0,0.8,0c0.2,0,0.2,0.1,0.2,0.3v0.4c0,0.3-0.1,0.3-0.3,0.3c-0.1,0-0.1,0-0.2,0
					c0,0-0.1,0-0.1,0c0,0,0,0,0.1,0c0.1,0,0.2,0.1,0.2,0.1c0,0.1-0.1,0.1-0.2,0.1c-0.1,0-0.1,0-0.2,0.1C30.7,54,30.5,54.4,30.5,54.5
					z M28.8,58.7c-0.1,0-0.2,0.1-0.2,0.2c0,0.2-0.1,0.2-0.4,0.2h-0.5c-0.2,0-0.3,0-0.3-0.2c0-0.2,0-0.5,0-0.7v-1.6
					c0-0.2,0-0.4,0-0.6c0-0.3,0.3-0.3,0.5-0.3c0.2,0,0.5,0,0.7,0h1.1c0.2,0,0.5,0,0.8,0c0.2,0,0.5,0,0.5,0.3c0,0.2,0,0.4,0,0.6v1.6
					c0,0.2,0,0.6,0,0.7c0,0.2-0.1,0.2-0.3,0.2h-0.4c-0.3,0-0.4,0-0.4-0.2c0-0.1-0.1-0.2-0.2-0.2H28.8z M28.6,56.7
					c0,0.1,0,0.1,0.1,0.1h1.1c0.1,0,0.1,0,0.1-0.1v0c0-0.1,0-0.1-0.1-0.1h-1.1C28.6,56.6,28.6,56.7,28.6,56.7L28.6,56.7z M28.6,57.7
					c0,0.1,0,0.1,0.1,0.1h1.1c0.1,0,0.1,0,0.1-0.1v-0.1c0-0.1,0-0.1-0.1-0.1h-1.1C28.6,57.6,28.6,57.6,28.6,57.7L28.6,57.7z
					 M28.8,53.5c-0.1,0-0.1,0-0.1,0.1c0,0.1,0,0.1,0.1,0.2c0,0.1,0.2,0.5,0.2,0.6c0,0.1,0,0.1-0.1,0.1c0,0,0,0,0,0.1c0,0,0,0,0,0
					h0.3c0.2,0,0.2-0.1,0.3-0.3c0-0.1,0.2-0.5,0.2-0.6c0-0.1-0.1-0.1-0.2-0.1H28.8z"/>
				<path class="st1" d="M35.9,52.9c0.1,0.2,0.1,0.2,0.3,0.2c0.1,0,0.3-0.1,0.5-0.2c0.2-0.1,0.3-0.2,0.4-0.2c0.2,0,0.3,0.2,0.5,0.4
					c0.1,0.2,0.3,0.4,0.3,0.5c0,0.1-0.2,0.2-0.4,0.3C37.3,54,37.1,54,37,54.1c-0.1,0-0.2,0.1-0.2,0.2c0,0.1,0.1,0.2,0.1,0.3
					c0.2,0.4,0.5,0.9,0.8,1.3c0.2,0.3,0.4,0.5,0.4,0.6c0,0.2-0.6,0.7-0.8,0.7c0,0-0.2,0-0.2-0.1c-0.4-0.3-1.3-0.7-1.9-0.7
					c-0.3,0-0.6,0.2-0.6,0.5c0,0.7,1.1,0.8,1.6,0.8c0.2,0,0.3,0,0.5,0c0.2,0,0.3,0.2,0.3,0.4c0,0.2,0,0.4-0.1,0.7
					c0,0.1-0.1,0.2-0.3,0.2c-0.4,0-1.1-0.1-1.5-0.2c-0.9-0.2-1.7-0.8-1.7-1.8s0.9-1.7,1.8-1.7c0.3,0,0.6,0.1,0.6,0.1
					c0.1,0,0.1,0,0.1-0.1c0-0.1-0.1-0.3-0.2-0.4c-0.1-0.1-0.1-0.2-0.3-0.2c0,0-0.1,0-0.1,0c-0.4,0.1-1.4,0.3-1.8,0.3
					c-0.2,0-0.2-0.1-0.3-0.3C33.1,54.5,33,54.2,33,54c0-0.1,0-0.2,0.2-0.2c0.3,0,1.1-0.1,1.3-0.1c0.1,0,0.2-0.1,0.2-0.2
					c0-0.1-0.2-0.3-0.3-0.5c-0.1-0.1-0.3-0.3-0.3-0.4c0-0.1,0.1-0.2,0.2-0.2c0.3-0.2,0.8-0.3,0.9-0.3c0.2,0,0.2,0.1,0.5,0.6
					C35.8,52.7,35.9,52.8,35.9,52.9z"/>
				<path class="st1" d="M45.5,53.8c0.3,0.3,0.4,0.7,0.4,1.1c0,1-0.7,1.5-1.6,1.8c-0.2,0.1-0.5,0.2-0.7,0.2c-0.1,0-0.2-0.1-0.4-0.4
					c-0.1-0.1-0.2-0.4-0.2-0.5c0-0.1,0.1-0.1,0.2-0.2c0.5-0.1,1.4-0.3,1.4-0.9c0-0.3-0.2-0.5-0.5-0.5c-0.6,0-1.4,0.4-1.8,0.7
					c-0.1,0-0.2,0.1-0.2,0.2c0,0.1,0,0.1,0.1,0.2c0.4,0.8,0.9,1.5,1.4,2.3c0,0.1,0.1,0.2,0.1,0.2c0,0.2-0.8,0.6-1,0.6
					c-0.1,0-0.1,0-0.2-0.2c-0.2-0.3-0.3-0.6-0.5-0.9c-0.2-0.4-0.5-0.9-0.7-1.3c-0.1-0.1-0.1-0.2-0.2-0.2c-0.1,0-0.6,0.4-0.7,0.5
					c0,0-0.1,0.1-0.1,0.1c-0.2,0-0.7-0.8-0.7-1c0-0.1,0-0.1,0.3-0.3c0.1-0.1,0.3-0.2,0.5-0.3c0.1-0.1,0.2-0.1,0.2-0.2
					c0-0.2-0.4-0.8-0.6-1c-0.1-0.1-0.1-0.1-0.1-0.2c0-0.1,0.2-0.2,0.5-0.3c0.2-0.1,0.7-0.3,0.8-0.3c0,0,0.1,0,0.1,0.1
					c0,0,0,0.1,0,0.1c0,0,0,0,0,0.1c0,0.1,0.2,0.6,0.3,0.7c0,0.1,0.1,0.1,0.2,0.1c0.1,0,0.2-0.1,0.3-0.1c0.1,0,0.1-0.1,0.2-0.1
					c0.1-0.1,0.2-0.1,0.2-0.2c0-0.1-0.2-0.2-0.6-0.3c-0.1,0-0.2-0.1-0.2-0.2c0-0.1,0.1-0.4,0.2-0.5c0.2-0.3,0.2-0.4,0.3-0.4
					c0.1,0,0.8,0.3,1,0.3c0.2,0.1,0.5,0.2,0.5,0.4c0,0.1-0.1,0.2-0.1,0.3c0,0.1,0.1,0.1,0.1,0.1c0,0,0.1,0,0.1,0c0.1,0,0.3,0,0.4,0
					C44.6,53.4,45.2,53.5,45.5,53.8z"/>
				<path class="st1" d="M21,63.5c0,0.4,0,0.8,0,1.2c0,0.2,0.1,0.2,0.3,0.2h1.6c0.3,0,0.6,0,1,0c0.2,0,0.2,0.1,0.2,0.3v0.6
					c0,0.2,0,0.3-0.2,0.3c-0.3,0-0.6,0-1,0h-1.5c-0.1,0-0.2,0-0.2,0.1c0,0.1,0.2,0.5,0.4,0.7c0.5,0.9,1.1,1.5,2.1,2
					c0.1,0.1,0.2,0.1,0.2,0.2c0,0.2-0.4,0.9-0.7,0.9c-0.1,0-0.1,0-0.2-0.1c-0.6-0.3-1.1-0.8-1.6-1.3c-0.3-0.4-0.6-0.8-0.9-1.2
					c0-0.1-0.1-0.1-0.2-0.1c-0.1,0-0.2,0.1-0.2,0.2c-0.5,1-1.4,1.8-2.4,2.3c0,0,0,0-0.1,0c-0.1,0.1-0.2,0.1-0.3,0.1
					c-0.2,0-0.3-0.3-0.4-0.5c0-0.1-0.2-0.4-0.2-0.5c0-0.1,0.1-0.2,0.2-0.2c1-0.4,1.9-1.1,2.3-2.1c0-0.1,0.2-0.5,0.2-0.6
					c0-0.1-0.1-0.1-0.2-0.1h-1.4c-0.3,0-0.6,0-1,0c-0.2,0-0.2-0.1-0.2-0.4v-0.5c0-0.3,0-0.4,0.2-0.4c0.3,0,0.6,0,1,0h1.6
					c0.3,0,0.3-0.1,0.3-0.8c0-0.3,0-0.7,0-1c0-0.1,0.1-0.2,0.2-0.2c0.2,0,0.8,0,1,0.1c0.1,0,0.2,0,0.2,0.1c0,0,0,0.1-0.1,0.1
					C21,63.3,21,63.4,21,63.5z"/>
				<path class="st1" d="M27.9,63.4c0.1,0.3,0.1,0.3,0.2,0.3c0.1,0,0.3-0.1,0.4-0.2c0.1-0.1,0.2-0.1,0.3-0.1c0.2,0,0.5,0.7,0.5,0.9
					c0,0.1-0.1,0.2-0.2,0.2c-0.2,0.1-0.3,0.2-0.5,0.2c-0.1,0-0.2,0.1-0.2,0.1c0,0,0,0.2,0.1,0.2c0.2,0,0.7-0.3,0.8-0.4
					c0.1,0,0.2-0.1,0.2-0.1c0.1,0,0.2,0.2,0.3,0.3c0.1,0.2,0.3,0.4,0.3,0.6c0,0.1-0.2,0.2-0.4,0.3c-0.2,0.1-0.3,0.2-0.5,0.2
					c-0.1,0-0.2,0.1-0.2,0.2c0,0.1,0,0.1,0.1,0.2c0.2,0.3,0.4,0.7,0.6,1c0.1,0.1,0.2,0.3,0.2,0.4c0,0.2-0.6,0.7-0.9,0.7
					c-0.1,0-0.1,0-0.2-0.1c-0.3-0.3-0.8-0.5-1.3-0.5c-0.2,0-0.6,0.1-0.6,0.4c0,0.4,0.7,0.5,1,0.5c0.1,0,0.4,0,0.5,0
					c0.1,0,0.2,0,0.3,0c0.2,0,0.2,0.1,0.2,0.5c0,0.8-0.1,0.8-0.4,0.8c-0.4,0-0.9,0-1.3-0.1c-0.8-0.2-1.6-0.6-1.6-1.6
					c0-1,0.8-1.4,1.6-1.4c0.1,0,0.3,0,0.4,0h0c0,0,0.1,0,0.1-0.1c0,0-0.1-0.1-0.1-0.2c0-0.1-0.1-0.1-0.2-0.1c0,0,0,0-0.1,0
					c-0.5,0.1-1.6,0.4-2.1,0.4c-0.1,0-0.2-0.1-0.2-0.2c-0.1-0.2-0.2-0.5-0.2-0.8c0-0.1,0-0.2,0.4-0.2c0.4,0,1.3-0.1,1.6-0.2
					c0.1,0,0.1-0.1,0.1-0.1c0-0.1-0.1-0.1-0.1-0.1c0,0-0.1,0-0.1,0c-0.2,0.1-0.8,0.2-1,0.2c-0.1,0-0.2-0.1-0.2-0.2
					c-0.1-0.2-0.2-0.6-0.2-0.7c0-0.1,0.1-0.2,0.3-0.2c0.1,0,0.3,0,0.5,0c0.1,0,0.2-0.1,0.2-0.2c0-0.1-0.1-0.2-0.1-0.2
					c0-0.1-0.2-0.3-0.2-0.3c0-0.1,0.2-0.2,0.4-0.2c0.2-0.1,0.5-0.2,0.7-0.2C27.7,63.1,27.8,63.2,27.9,63.4z"/>
				<path class="st1" d="M35.2,63.2c0.1,0,0.2,0.1,0.2,0.1c0,0-0.1,0.1-0.2,0.1c0,0-0.1,0.3-0.1,0.4c0,0,0,0,0,0.1c0,0,0,0.1,0,0.1
					c0,0,0,0.1,0.1,0.1c0,0,0.1,0,0.2,0c0,0,0.1,0,0.1,0c0.1,0,0.1,0,0.1,0.1c0,0.1,0.1,0.6,0.1,0.8c0,0.2-0.1,0.2-0.7,0.3
					c-0.3,0-0.3,0.1-0.4,0.4c-0.1,0.4-0.3,0.7-0.4,1.1c-0.2,0.5-0.4,1-0.7,1.4c-0.1,0.1-0.1,0.2-0.2,0.3c0,0.1-0.1,0.1-0.2,0.1
					c-0.3,0-1-0.3-1-0.5c0,0,0.1-0.2,0.2-0.3c0.2-0.3,1-1.9,1-2.1c0-0.1-0.1-0.1-0.1-0.1c0,0-0.2,0-0.3,0c-0.1,0-0.3,0-0.4,0
					c-0.2,0-0.2-0.1-0.3-0.8c0-0.1,0-0.2,0-0.3c0-0.1,0.1-0.1,0.2-0.1c0.1,0,0.3,0,0.5,0c0.7,0,0.8,0,0.9-0.2c0.1-0.3,0.2-1,0.2-1.2
					c0-0.1,0-0.1,0.1-0.1C34.1,62.9,35,63.2,35.2,63.2z M36.3,65.7c0.1,0,0.2,0.1,0.2,0.2c0,0.1,0,0.2,0,0.4c0,0.4,0,0.8,0.1,1.2
					c0,0.2,0,0.2,0.2,0.3c0.2,0.1,1.2,0.6,1.2,0.8c0,0.2-0.4,0.8-0.7,0.8c-0.1,0-0.2-0.1-0.4-0.2c0,0-0.1-0.1-0.2-0.1
					c0,0-0.1,0-0.1,0c-0.1,0-0.2,0.1-0.2,0.1c-0.1,0.1-0.2,0.3-0.3,0.4c-0.2,0.2-0.6,0.3-1,0.3c-0.8,0-1.6-0.4-1.6-1.2
					c0-0.8,0.7-1.1,1.4-1.1h0.1c0.1,0,0.2-0.1,0.2-0.2c0-0.1-0.1-0.8-0.1-1.1c0-0.1,0-0.3,0-0.4c0-0.2,0.1-0.2,0.2-0.2
					C35.7,65.6,36,65.7,36.3,65.7z M34.8,68.7c0,0.2,0.2,0.2,0.3,0.2c0.2,0,0.2-0.1,0.2-0.3c0-0.1,0-0.2-0.2-0.2
					C35,68.4,34.8,68.5,34.8,68.7z M37.6,64.8c0.2,0.2,0.7,0.6,0.7,0.8c0,0.2-0.6,0.8-0.8,0.8c-0.1,0-0.2-0.1-0.2-0.2
					c-0.3-0.4-0.6-0.7-1-1c-0.1,0-0.1-0.1-0.1-0.2c0-0.1,0.5-0.8,0.7-0.8C37,64.2,37.5,64.7,37.6,64.8z"/>
				<path class="st1" d="M44.6,65.5c0,0.1,0.1,0.1,0.1,0.1h0.5c0.3,0,0.6,0,1,0c0.2,0,0.2,0.1,0.2,0.2v0.4c0,0.2,0,0.3-0.2,0.3
					c-0.3,0-0.6,0-1,0h-4.8c-0.3,0-0.6,0-1,0c-0.2,0-0.2-0.1-0.2-0.3v-0.4c0-0.2,0-0.2,0.2-0.2c0.3,0,0.6,0,1,0h0.4
					c0.1,0,0.2-0.1,0.2-0.2c0-0.1-0.1-0.3-0.1-0.4c0,0,0-0.1,0-0.1c0,0,0-0.1,0-0.2c0-0.1,0.1-0.1,0.2-0.2c0,0,0,0,0,0
					c0,0,0,0-0.1,0h-0.1c-0.3,0-0.6,0-0.8,0c-0.2,0-0.2-0.1-0.2-0.3v-0.2c0-0.3,0-0.4,0.2-0.4c0.3,0,0.6,0,1,0H42
					c0.1,0,0.2-0.1,0.2-0.2c0-0.1,0-0.2,0-0.3c0,0,0,0,0-0.1c0-0.1,0.1-0.1,0.2-0.1c0.2,0,0.6,0,0.8,0c0.2,0,0.4,0,0.4,0.1
					c0,0,0,0.1-0.1,0.1c-0.1,0.1-0.1,0.1-0.1,0.2c0,0.1,0.1,0.2,0.2,0.2h1.1c0.3,0,0.6,0,1,0c0.2,0,0.2,0.1,0.2,0.2v0.4
					c0,0.2,0,0.3-0.2,0.3c-0.3,0-0.6,0-0.9,0c-0.1,0-0.2,0-0.2,0.1c0,0.1,0.1,0.1,0.2,0.1c0.1,0,0.2,0.1,0.2,0.2
					c0,0.1,0,0.1-0.1,0.1c-0.1,0-0.1,0-0.2,0.1C44.7,65.1,44.6,65.5,44.6,65.5z M41.8,69.7c-0.1,0-0.2,0.1-0.2,0.2
					c0,0.2-0.1,0.2-0.3,0.2h-0.6c-0.3,0-0.4,0-0.4-0.2c0-0.2,0-0.4,0-0.6v-1.7c0-0.2,0-0.4,0-0.6c0-0.2,0.1-0.3,0.3-0.3
					c0.3,0,0.5,0,0.8,0H44c0.3,0,0.5,0,0.8,0c0.2,0,0.3,0,0.3,0.3c0,0.2,0,0.4,0,0.6v1.7c0,0.2,0,0.4,0,0.6c0,0.2-0.1,0.2-0.2,0.2
					h-0.6c-0.3,0-0.4,0-0.4-0.2v0c0-0.1-0.1-0.2-0.2-0.2H41.8z M41.6,67.7c0,0.1,0,0.1,0.1,0.1h2.1c0.1,0,0.1,0,0.1-0.1v0
					c0-0.1,0-0.1-0.1-0.1h-2.1C41.7,67.6,41.6,67.6,41.6,67.7L41.6,67.7z M41.6,68.7c0,0.1,0,0.1,0.1,0.1h2.1c0.1,0,0.1,0,0.1-0.1v0
					c0-0.1,0-0.1-0.1-0.1h-2.1C41.7,68.6,41.6,68.6,41.6,68.7L41.6,68.7z M43.1,65.6c0.2,0,0.2-0.1,0.3-0.2c0-0.1,0.3-0.7,0.3-0.8
					c0-0.1-0.1-0.1-0.2-0.1H42c-0.1,0-0.2,0-0.2,0.1c0,0,0.1,0.3,0.1,0.4c0,0,0,0.1,0,0.1c0,0,0,0.1,0,0.1c0,0.1-0.1,0.2-0.2,0.2
					c0,0-0.1,0-0.1,0.1c0,0,0.1,0,0.1,0H43.1z"/>
				<path class="st1" d="M51,63.2c0.1,0.1,0.2,0.1,0.2,0.2c0,0.1-0.1,0.1-0.1,0.1c-0.1,0-0.2,0.2-0.2,0.3c0,0.1,0,0.1,0.1,0.1
					c0.1,0,0.5-0.1,0.6-0.2c0.1,0,0.2-0.1,0.2-0.1c0.2,0,0.2,0.2,0.2,0.3c0,0.2,0.1,0.5,0.1,0.6c0,0.1-0.1,0.2-0.5,0.2
					c-0.4,0.1-1,0.2-1.5,0.2c-0.3,0-0.3,0.2-0.3,0.2c0,0,0,0.1,0.1,0.1c0,0,0.1,0,0.1,0c0.2-0.1,0.4-0.1,0.7-0.1
					c0.2,0,0.4,0,0.6,0.1c0.2,0.1,0.3,0.2,0.4,0.5c0,0.1,0.1,0.1,0.1,0.1c0.1,0,0.5-0.2,0.7-0.4c0.1,0,0.1-0.1,0.2-0.1s0.1,0,0.1,0
					c0.2,0,0.5,0.9,0.5,1.1c0,0.1-0.1,0.1-0.2,0.2c-0.4,0.1-0.6,0.2-1,0.4c-0.2,0.1-0.2,0.2-0.2,0.4c0,0.1,0,0.3,0,0.5
					c0,0.5,0,0.5-0.5,0.5c-0.6,0-0.7,0-0.7-0.3c0-0.1,0-0.1,0-0.2v0c0-0.1,0-0.1-0.1-0.1c-0.1,0-0.5,0.3-0.5,0.5
					c0,0.4,0.7,0.4,1,0.4c0.5,0,1-0.1,1.5-0.2c0.1,0,0.1,0,0.2,0c0.2,0,0.2,0.3,0.2,0.8c0,0.3,0,0.4-0.2,0.4
					c-0.4,0.1-1.2,0.1-1.6,0.1c-0.6,0-0.9,0-1.4-0.3c-0.5-0.2-0.8-0.7-0.8-1.2c0-0.8,0.6-1.2,1.2-1.5c0.1-0.1,0.3-0.2,0.4-0.2
					c0.1,0,0.1-0.1,0.1-0.2c0-0.1-0.1-0.2-0.2-0.2c-0.3,0-0.9,0.3-1.1,0.5c-0.4,0.3-0.6,0.7-0.8,1.1c0,0-0.1,0.1-0.1,0.1
					c-0.2,0-1-0.4-1-0.6c0-0.1,0-0.1,0.1-0.2c0.3-0.4,0.8-1.2,1.1-1.6c0-0.1,0-0.1,0-0.1c0-0.1-0.1-0.1-0.1-0.1c-0.1,0-0.2,0-0.3,0
					c-0.3,0-0.3,0-0.3-0.6c0-0.5,0-0.5,0.3-0.5c0.2,0,0.5,0,0.7,0c0.4,0,0.5,0,0.5-0.1c0.2-0.3,0.3-0.7,0.4-1c0-0.1,0-0.2,0.1-0.2
					C50.1,62.8,50.8,63.1,51,63.2z"/>
				<path class="st1" d="M22.9,74.9c0.3,0,0.6,0,0.9,0c0.2,0,0.2,0.1,0.2,0.4v0.4c0,0.2,0,0.3-0.2,0.3c-0.3,0-0.6,0-0.9,0h-1.4
					c-0.2,0-0.3,0-0.4,0.2c0,0.1-0.2,0.4-0.3,0.5c0,0,0,0,0,0.1c0,0.1,0.1,0.1,0.1,0.1H21c0.1,0,0.1,0,0.1-0.1c0-0.2,0-0.4,0-0.5
					c0-0.1,0.1-0.1,0.2-0.1c0.2,0,0.6,0,0.8,0c0.1,0,0.2,0,0.2,0.1c0,0,0,0.1-0.1,0.1c-0.1,0.1-0.1,0.2-0.1,0.2
					c0,0.1,0.1,0.2,0.2,0.2c0.2,0,0.5,0,0.7,0s0.5,0,0.5,0.3c0,0.2,0,0.4,0,0.7v1c0,0.2,0,0.4,0,0.5c0,0.7-0.4,0.9-1,0.9
					c-0.3,0-0.4-0.1-0.4-0.7c0-0.2,0-0.4,0.1-0.4c0,0,0.1,0,0.1,0c0.1,0,0.1-0.1,0.1-0.2v-1c0-0.1-0.1-0.2-0.2-0.2h0
					c-0.1,0-0.2,0.1-0.2,0.2V80c0,0.3,0,0.6,0,0.9c0,0.2-0.1,0.2-0.3,0.2h-0.5c-0.2,0-0.3,0-0.3-0.2c0-0.3,0-0.6,0-0.9v-1.9
					c0-0.1-0.1-0.2-0.2-0.2h0c-0.1,0-0.2,0.1-0.2,0.2v1.1c0,0.3,0,0.6,0,0.9c0,0.2-0.1,0.2-0.3,0.2H20c-0.3,0-0.3,0-0.3-0.2
					c0-0.3,0-0.6,0-0.9v-0.5c0-0.1,0-0.1-0.1-0.1c0,0-0.1,0-0.1,0.1c0,0-0.1,0.1-0.1,0.1c-0.1,0-0.3-0.2-0.4-0.2
					c0,0-0.1-0.1-0.2-0.1c-0.1,0-0.1,0.1-0.1,0.2v1.6c0,0.3,0,0.5,0,0.8c0,0.1-0.1,0.2-0.4,0.2h-0.3c-0.3,0-0.4-0.1-0.4-0.2
					c0-0.2,0-0.5,0-0.8V76c0-0.2,0-0.3-0.1-0.3c-0.1,0-0.1,0.3-0.1,0.5c0,0.4-0.1,0.9-0.1,1.3c0,0.1,0,0.2-0.2,0.2
					c-0.1,0-0.6-0.1-0.6-0.3c0,0,0-0.1,0-0.2c0.1-0.5,0.2-1.3,0.2-1.6c0-0.2,0-0.2,0.1-0.2c0,0,0.5,0,0.6,0.1c0,0,0.1,0,0.1,0
					c0.1,0,0.2-0.1,0.2-0.2v-0.6c0-0.2,0-0.4,0-0.6c0-0.1,0-0.1,0.2-0.1c0.2,0,0.5,0,0.7,0c0.1,0,0.3,0,0.3,0.1c0,0,0,0.1,0,0.1
					c-0.1,0.1-0.1,0.1-0.1,0.3V75c0,0.1,0,0.2,0.1,0.2c0,0,0.1,0,0.1,0c0,0,0.1,0,0.2,0c0.1,0,0.1,0.1,0.2,0.2c0,0,0,0.1,0.1,0.1
					s0,0,0-0.1v-0.2c0-0.2,0-0.3,0.2-0.3c0.2,0,0.4,0,0.7,0c0.3,0,0.3-0.2,0.4-0.8c0-0.2,0-0.2,0.1-0.2c0.1,0,0.5,0.1,0.6,0.1
					c0.2,0,0.5,0.1,0.5,0.2c0,0.1-0.1,0.1-0.1,0.1c-0.1,0.1-0.1,0.1-0.2,0.2c0,0,0,0.1,0,0.2c0,0,0,0.1,0,0.1c0,0.1,0.1,0.1,0.2,0.1
					H22.9z M18.7,77.7c0,0.1,0,0.1,0.1,0.1c0.2,0,1.2-1.5,1.2-1.7C20,76,20,76,19.9,76c-0.1,0-0.1,0-0.2,0c-0.1,0-0.1,0.1-0.1,0.1
					c0,0,0,0.2,0,0.2c0,0,0,0.1,0,0.2c0,0.2-0.5,0.3-0.6,0.3c-0.1,0-0.1-0.1-0.2-0.3c0-0.1-0.1-0.6-0.2-0.6c0,0,0,0.1,0,0.1V77.7z"
					/>
				<path class="st1" d="M27.1,74.5c0-0.1,0-0.2,0.1-0.2c0.1,0,1,0.2,1.1,0.3c0.1,0,0.2,0,0.2,0.1c0,0.1-0.1,0.1-0.1,0.1
					c-0.1,0.1-0.2,0.3-0.2,0.5l0,0.1c0,0,0,0.1,0,0.2c0,0.2,0.2,0.2,0.3,0.2c0.2,0,0.4,0,0.7,0.2c0.6,0.3,0.7,0.8,0.7,1.4
					c0,0.7-0.2,1.9-0.5,2.5c-0.4,0.6-1,0.9-1.7,0.9c-0.2,0-0.3,0-0.4-0.2c-0.1-0.2-0.2-0.6-0.2-0.8c0-0.1,0-0.2,0.2-0.2
					c0.1,0,0.2,0,0.3,0c0.5,0,0.6,0,0.8-0.3c0.2-0.4,0.4-1.3,0.4-1.8c0-0.4-0.1-0.5-0.4-0.5c-0.3,0-0.3,0-0.4,0.3
					c-0.3,0.9-0.7,1.8-1.2,2.7c-0.1,0.2-0.4,0.7-0.6,0.8c0,0-0.1,0.1-0.1,0.1c-0.2,0-0.9-0.4-0.9-0.7c0-0.1,0.1-0.2,0.2-0.3
					c0.6-0.6,1.1-1.4,1.4-2.2c0,0,0-0.1,0-0.1c0-0.1,0-0.1-0.1-0.1c-0.1,0-0.6,0.2-0.7,0.2c0,0-0.1,0.1-0.2,0.1
					c-0.1,0-0.2-0.3-0.3-0.6c0-0.2-0.1-0.5-0.1-0.6c0-0.1,0.1-0.1,0.3-0.2c0.5,0,0.7-0.1,1.2-0.2c0.2,0,0.3-0.1,0.3-0.3
					c0-0.3,0.1-0.8,0.1-1.1V74.5z M30.4,75.2c0.2,0.2,0.4,0.5,0.6,0.8c0.1,0.2,0.7,1,0.7,1.1c0,0.3-0.7,0.7-1,0.7
					c-0.1,0-0.1-0.1-0.2-0.2c-0.3-0.6-0.6-1.3-1.1-1.8c0,0-0.1-0.1-0.1-0.1c0-0.2,0.6-0.6,0.8-0.6C30.3,75.1,30.3,75.2,30.4,75.2z
					 M31.2,74.6c0.2,0.2,0.4,0.4,0.4,0.5c0,0.2-0.4,0.5-0.5,0.5c0,0-0.1,0-0.1-0.1c-0.2-0.2-0.4-0.4-0.6-0.6c0,0-0.1-0.1-0.1-0.1
					c0-0.1,0.4-0.4,0.5-0.4C30.8,74.2,31,74.4,31.2,74.6z M31.8,73.8c0.1,0.1,0.6,0.5,0.6,0.6c0,0.2-0.4,0.5-0.5,0.5
					c0,0-0.1-0.1-0.1-0.1c-0.2-0.2-0.4-0.4-0.6-0.6c0,0-0.1-0.1-0.1-0.1c0-0.1,0.4-0.4,0.5-0.4C31.6,73.6,31.7,73.8,31.8,73.8z"/>
				<path class="st1" d="M37.7,75.3c0,0,0,0.1-0.1,0.1c-0.3,0.2-0.7,0.5-1,0.8c0,0-0.1,0.1-0.1,0.1c0,0.1,0.1,0.2,0.2,0.2
					c0,0,0.1,0,0.1,0c0.1,0,0.4,0,0.6,0.1c0.9,0.3,1.4,1,1.4,1.9c0,1.5-1.3,2.3-2.7,2.3c-0.8,0-1.8-0.3-1.8-1.2
					c0-0.6,0.6-1.1,1.2-1.1c0.4,0,0.8,0.2,1.1,0.5c0.1,0.2,0.1,0.2,0.2,0.4c0,0.1,0.1,0.2,0.2,0.2c0.2,0,0.6-0.4,0.6-0.9
					c0-0.7-0.6-1-1.2-1c-0.6,0-1.1,0.2-1.5,0.6c-0.3,0.3-0.7,0.7-1,1c-0.1,0.1-0.2,0.2-0.2,0.2c-0.2,0-0.8-0.7-0.8-0.8
					c0-0.1,0.1-0.2,0.2-0.3c0.2-0.2,1.5-1.5,1.8-1.8c0.2-0.2,0.3-0.3,0.4-0.4c0.1-0.1,0.1-0.1,0.1-0.2c0-0.1-0.1-0.1-0.2-0.1
					c0,0-0.9,0.2-1.1,0.2c0,0-0.1,0-0.1,0c-0.2,0-0.2-0.9-0.2-1.1v-0.1c0-0.1,0-0.1,0.3-0.1h0.2c0.5,0,1.7-0.1,2.1-0.3
					c0.2-0.1,0.3-0.1,0.3-0.1C37.1,74.3,37.7,75.1,37.7,75.3z M35.6,79.3c-0.1,0-0.3,0.1-0.3,0.2c0,0.2,0.3,0.3,0.5,0.3
					c0.1,0,0.2-0.1,0.2-0.2C36,79.6,35.8,79.3,35.6,79.3z"/>
				<path class="st1" d="M43.5,74.5c0.1,0,0.2,0.1,0.2,0.1c0,0.1-0.1,0.1-0.1,0.1c-0.1,0.1-0.2,0.3-0.2,0.5l0,0.2c0,0,0,0.1,0,0.1
					c0,0.1,0,0.1,0.1,0.2c0.1,0,0.2,0,0.2,0c0.2,0,0.5,0,0.7,0.2c0.5,0.3,0.7,0.8,0.7,1.4c0,0.7-0.1,1.9-0.5,2.5
					c-0.4,0.6-1,0.9-1.7,0.9c-0.2,0-0.3,0-0.4-0.2c-0.1-0.2-0.2-0.6-0.2-0.8c0-0.1,0-0.2,0.2-0.2s0.2,0,0.3,0c0.5,0,0.6,0,0.8-0.3
					c0.2-0.4,0.4-1.3,0.4-1.8c0-0.4-0.1-0.5-0.4-0.5c-0.3,0-0.3,0-0.4,0.3c-0.3,0.9-0.7,1.8-1.2,2.7c-0.1,0.2-0.4,0.7-0.6,0.8
					c0,0-0.1,0.1-0.1,0.1c-0.2,0-0.9-0.4-0.9-0.7c0-0.1,0.1-0.2,0.2-0.2c0.4-0.4,1-1.2,1.4-2.2c0-0.1,0-0.1,0-0.1
					c0-0.1,0-0.1-0.1-0.1c-0.1,0-0.6,0.2-0.7,0.2c0,0-0.1,0-0.2,0c-0.1,0-0.2-0.3-0.3-0.6c0-0.2-0.1-0.5-0.1-0.6
					c0-0.1,0.1-0.1,0.3-0.2c0.5,0,0.7-0.1,1.2-0.2c0.2,0,0.2-0.1,0.3-0.3c0-0.3,0.1-0.8,0.1-1.2v-0.1c0-0.1,0-0.2,0.1-0.2
					C42.5,74.2,43.4,74.5,43.5,74.5z M45.6,75.1c0.2,0.2,0.4,0.5,0.6,0.8c0,0,0,0.1,0.1,0.1c0.2,0.3,0.5,0.9,0.5,1
					c0,0.3-0.7,0.7-1,0.7c-0.1,0-0.2-0.1-0.2-0.2c-0.3-0.6-0.6-1.3-1.1-1.8c0,0-0.1-0.1-0.1-0.1c0-0.2,0.7-0.6,0.9-0.6
					C45.5,75,45.6,75.1,45.6,75.1z"/>
				<path class="st1" d="M51.1,74.3c0.1,0,0.1,0.1,0.1,0.1c0,0,0,0.1-0.1,0.1c-0.1,0.1-0.2,0.1-0.3,0.4l-0.1,0.4c0,0,0,0.1,0,0.1
					c0,0.2,0.1,0.2,0.4,0.2c0.2,0,0.4,0,0.6,0c0.2,0,0.2,0,0.2,0.2c0,0.2-0.1,0.5-0.1,0.7c-0.1,0.2-0.1,0.3-0.2,0.3
					c-0.2,0-0.8-0.1-1-0.1c0,0,0,0-0.1,0c-0.2,0-0.2,0.2-0.2,0.3l0,0.1c0,0,0,0.1,0,0.1c0,0.2,0.2,0.2,0.8,0.2c0.2,0,0.3,0,0.3,0.1
					c0,0.2-0.1,0.6-0.1,0.8c-0.1,0.2-0.1,0.3-0.3,0.3c-0.2,0-0.5,0-0.7-0.1c0,0,0,0-0.1,0c-0.2,0-0.2,0.2-0.2,0.3v0
					c0,0.2,0,0.4,0.1,0.5c0.1,0.3,0.5,0.4,0.8,0.4c0.3,0,0.6-0.1,0.9-0.2C52,79.4,52,79.2,52,79c0-0.4-0.1-0.8-0.2-1.1
					c0-0.1,0-0.1,0-0.2c0-0.1,0.1-0.1,0.3-0.2c0.2-0.1,0.6-0.2,0.7-0.2c0.1,0,0.2,0.1,0.3,0.4c0.1,0.4,0.3,1,0.3,1.4
					c0,0.6-0.2,1.1-0.7,1.4c-0.5,0.3-1.1,0.4-1.6,0.4c-1.4,0-2.1-0.8-2.1-2.2c0-0.1,0-0.3,0-0.4c0-0.2-0.1-0.2-0.2-0.3
					c-0.5-0.2-0.6-0.2-0.6-0.4s0.1-0.4,0.1-0.5c0.1-0.2,0.1-0.4,0.3-0.4c0.1,0,0.2,0,0.2,0.1c0.1,0.1,0.2,0.1,0.3,0.1
					c0.1,0,0.1,0,0.2-0.2c0-0.1,0.1-0.2,0.1-0.3c0-0.1-0.1-0.2-0.2-0.3c-0.7-0.2-0.7-0.3-0.7-0.4c0-0.2,0.2-1,0.4-1
					c0.1,0,0.2,0.1,0.3,0.1c0.1,0.1,0.4,0.2,0.4,0.2c0.1,0,0.2-0.1,0.2-0.2c0.1-0.2,0.2-0.6,0.3-0.9c0-0.1,0-0.2,0.1-0.2
					C50.1,73.9,51,74.2,51.1,74.3z"/>
			</g>
		</g>
		<g>
			<ellipse class="st2" cx="63.4" cy="80" rx="4.4" ry="3.8"/>
			<ellipse class="st2" cx="70" cy="83.7" rx="2.1" ry="1.8"/>
		</g>
	</g>
	<g>
		<g>
			<ellipse class="st3" cx="93.5" cy="28.5" rx="34.6" ry="28.5"/>
			<g>
				<ellipse class="st3" cx="107.5" cy="52.4" rx="4.4" ry="3.8"/>
				<ellipse class="st3" cx="105.3" cy="59.1" rx="2.1" ry="1.8"/>
			</g>
		</g>
		<g>
			<g>
				<path class="st1" d="M68.9,17.7c0,1.5,0,3-0.4,4.4c-0.1,0.4-0.2,0.7-0.4,0.7c-0.1,0-0.9-0.3-0.9-0.5c0,0,0-0.1,0.1-0.2
					c0.5-1.3,0.5-2.8,0.5-4.5v-0.8c0-0.3,0-0.5,0-0.7c0-0.3,0.2-0.4,0.4-0.4c0.3,0,0.5,0,0.8,0h4.1c0.3,0,0.5,0,0.8,0
					c0.3,0,0.5,0,0.5,0.4c0,0.2,0,0.5,0,0.7V21c0,0.2,0,0.4,0,0.6c0,0.3,0,0.7-0.3,0.9c-0.3,0.2-0.8,0.3-1.1,0.3
					c-0.4,0-0.5-0.2-0.6-0.6c0-0.1,0-0.2-0.2-0.2c-0.3,0-0.6,0-0.9,0h-0.3c-0.3,0-0.3,0-0.3,0.2c0,0.2-0.1,0.2-0.3,0.2h-0.4
					c-0.3,0-0.4,0-0.4-0.2c0-0.2,0-0.3,0-0.5v-1.1c0-0.2,0-0.4,0-0.6c0-0.3,0.2-0.3,0.4-0.3c0.3,0,0.6,0,0.9,0h0.5
					c0.3,0,0.6,0,0.9,0c0.2,0,0.4,0,0.4,0.3c0,0.2,0,0.4,0,0.6v0.6c0,0.5,0,0.5,0.4,0.5c0.2,0,0.2-0.1,0.2-0.2V17
					c0-0.1-0.1-0.2-0.2-0.2h-3.8c-0.1,0-0.2,0.1-0.2,0.2V17.7z M71.7,18.1C71.6,18.1,71.6,18.2,71.7,18.1l-0.1,0.2
					c0,0.1,0,0.1,0.1,0.1h0.1c0.3,0,0.6,0,0.9,0c0.2,0,0.2,0.1,0.2,0.3v0.4c0,0.2,0,0.3-0.2,0.3c-0.3,0-0.6,0-0.9,0h-1.5
					c-0.3,0-0.6,0-0.9,0c-0.2,0-0.2-0.1-0.2-0.3v-0.3c0-0.2,0-0.3,0.2-0.3c0.3,0,0.6,0,0.9,0h0.1c0.1,0,0.1,0,0.1-0.1v-0.1
					c0,0,0-0.1-0.1-0.1h-0.1c-0.2,0-0.5,0-0.7,0c-0.2,0-0.2-0.1-0.2-0.3v-0.4c0-0.2,0-0.3,0.2-0.3c0.2,0,0.5,0,0.7,0
					c0.1,0,0.2,0,0.2-0.1c0,0,0-0.1,0-0.2c0,0,0,0,0-0.1c0-0.1,0.1-0.1,0.2-0.1c0.1,0,0.8,0,1,0.1c0,0,0.2,0,0.2,0.1
					c0,0,0,0.1-0.1,0.1c0,0-0.1,0.1-0.1,0.1c0,0.1,0.1,0.1,0.1,0.1h0.1c0.2,0,0.5,0,0.7,0c0.2,0,0.2,0.1,0.2,0.3v0.3
					c0,0.2,0,0.3-0.2,0.3c-0.2,0-0.4,0-0.7,0H71.7z M70.6,20.9c0,0.1,0.1,0.2,0.2,0.2h0.4c0.1,0,0.2-0.1,0.2-0.2v-0.2
					c0-0.1-0.1-0.2-0.2-0.2h-0.4c-0.1,0-0.2,0.1-0.2,0.2V20.9z"/>
				<path class="st1" d="M77.4,16.5c0.1,0,0.2,0.1,0.2,0.1c0,0,0,0.1-0.1,0.1c-0.2,0.1-0.3,0.3-0.4,0.5c-0.1,0.3-0.3,0.8-0.3,1.2
					c0,0,0,0.1,0.1,0.1c0,0,0.1,0,0.1-0.2c0-0.1,0.1-0.2,0.2-0.2c0.1,0,0.4,0.2,0.4,0.4c0,0,0,0.1,0,0.1c-0.2,0.4-0.5,1.2-0.5,1.6
					v0.2c0,0.2-0.2,0.3-0.3,0.3c-0.1,0.1-0.3,0.1-0.5,0.1c-0.2,0-0.3-0.2-0.4-0.4c-0.2-0.6-0.3-1.3-0.3-1.9c0-0.5,0.1-1.2,0.2-1.8
					c0-0.2,0.1-0.4,0.2-0.6c0-0.1,0-0.2,0.1-0.2C76.4,16,77.1,16.4,77.4,16.5z M79.3,16c0.2,0,0.4-0.1,0.6-0.1
					c0.2,0,0.2,0.1,0.2,0.3c0.2,0.7,0.3,1.7,0.3,2.4c0,1.4-0.2,2.6-1.2,3.6c-0.2,0.2-0.5,0.5-0.7,0.5c-0.1,0-0.4-0.2-0.5-0.3
					c-0.2-0.2-0.4-0.3-0.4-0.5c0,0,0-0.1,0.1-0.2c0.4-0.3,0.8-0.7,1-1.2c0.3-0.6,0.3-1.2,0.3-1.8c0-0.8-0.1-1.6-0.3-2.4
					c0,0,0-0.1,0-0.1C78.8,16.1,78.9,16,79.3,16z"/>
				<path class="st1" d="M86.1,18.2c0.5,0.5,0.7,1,0.7,1.6c0,0.9-0.5,1.7-1.3,2.1c-0.2,0.1-0.6,0.3-0.8,0.3c-0.2,0-0.6-0.6-0.6-0.8
					c0-0.1,0.1-0.1,0.2-0.1c0.7-0.2,1.3-0.7,1.3-1.5c0-1-0.8-1.4-1-1.4c-0.1,0-0.1,0.1-0.1,0.2c-0.1,0.9-0.3,2-0.9,2.7
					c-0.2,0.3-0.5,0.5-0.9,0.5c-0.4,0-0.8-0.3-1-0.7c-0.1-0.3-0.2-0.6-0.2-1c0-1.5,1.2-2.8,2.7-2.8C85,17.6,85.6,17.8,86.1,18.2z
					 M82.6,20.3c0,0.2,0,0.6,0.3,0.6c0.2,0,0.4-0.4,0.4-0.6c0.2-0.5,0.4-1.4,0.4-1.6c0-0.1,0-0.1-0.1-0.1
					C83.4,18.6,82.6,19.2,82.6,20.3z"/>
				<path class="st1" d="M90.6,21.7c0,0.4-0.7,0.7-0.9,0.7c-0.2,0-0.2-0.1-0.3-0.3c-0.1-0.3-0.5-0.7-0.7-0.7c-0.1,0-0.2,0.1-0.3,0.1
					c-0.1,0.1-0.2,0.1-0.2,0.1c-0.2,0-0.6-0.9-0.6-1.1c0-0.1,0.1-0.1,0.2-0.2c0.2-0.1,1.5-0.9,1.6-1c0.1-0.1,0.1-0.2,0.1-0.3v-0.3
					c0-0.1-0.1-0.2-0.2-0.2c0,0-0.2,0-0.3,0c-0.1,0-0.3,0.1-0.4,0.1c-0.2,0-0.3,0-0.3-0.8c0-0.3,0-0.3,0.3-0.3c0.2,0,0.5,0,0.7,0
					c0.1,0,0.2,0,0.2-0.1c0-0.1,0.1-0.5,0.1-0.7v-0.1c0-0.2,0-0.3,0-0.4c0-0.1,0-0.1,0.1-0.1c0.2,0,1,0.2,1.2,0.2
					c0.1,0,0.2,0,0.2,0.1c0,0,0,0.1-0.1,0.1c-0.1,0.1-0.1,0.2-0.2,0.3c0,0.2,0,0.3,0,0.3c0,0.1,0.1,0.2,0.2,0.2c0,0,0.2-0.1,0.3-0.1
					c0.1,0,0.2-0.1,0.2-0.1c0.1,0,0.2,0.2,0.2,0.5c0,0.1,0,0.4,0,0.5c0,0.2-0.1,0.2-0.8,0.3c-0.1,0-0.2,0.1-0.2,0.3
					c0,0.1,0,0.2,0.2,0.2c0,0,0.1,0,0.2,0c0.3-0.1,0.7-0.2,1.1-0.2c1,0,1.9,0.6,1.9,1.6c0,0.5-0.2,1-0.6,1.3
					c-0.4,0.3-1.2,0.4-1.7,0.4c-0.2,0-0.4,0-0.4-0.1c-0.1-0.2-0.1-0.6-0.1-0.8c0-0.1,0-0.3,0.2-0.3c0,0,0.2,0,0.3,0
					c0.1,0,0.2,0,0.3,0c0.3,0,0.9-0.1,0.9-0.5c0-0.4-0.4-0.6-0.7-0.6c-0.3,0-1,0.2-1.2,0.3c-0.1,0.1-0.1,0.2-0.1,0.3s0,0.3,0,0.4
					C90.5,20.9,90.6,21.6,90.6,21.7z M89.4,21.1c0-0.1,0-0.2-0.1-0.2c-0.1,0-0.1,0.1-0.2,0.1c0,0-0.1,0-0.1,0.1c0,0.1,0,0.1,0.2,0.2
					c0,0,0.1,0,0.1,0c0.1,0,0.1,0,0.1-0.1V21.1z M93.5,17.6c0.2,0.2,0.5,0.4,0.6,0.6c0,0,0.1,0.1,0.1,0.2c0,0.2-0.5,0.8-0.7,0.8
					c-0.1,0-0.1-0.1-0.2-0.1c-0.4-0.3-0.7-0.6-1.1-0.9c-0.1-0.1-0.2-0.1-0.2-0.2c0-0.1,0.2-0.4,0.3-0.5c0,0,0,0,0-0.1
					c0.1-0.1,0.2-0.2,0.3-0.2C92.8,17,93.4,17.5,93.5,17.6z"/>
				<path class="st1" d="M100.4,22.1c0,0.2,0,0.4,0,0.5c0,0.1-0.1,0.2-0.3,0.2h-0.5c-0.2,0-0.3,0-0.3-0.2c0,0,0-0.1-0.1-0.1h-1.8
					c-0.1,0-0.1,0-0.1,0.1c0,0.1-0.1,0.1-0.3,0.1h-0.5c-0.3,0-0.4,0-0.4-0.2c0-0.1,0-0.3,0-0.5v-0.9c0-0.2,0-0.3-0.2-0.3
					c-0.1,0-0.5,0.1-0.6,0.2c0,0-0.1,0-0.2,0c-0.2,0-0.5-0.6-0.5-0.8c0-0.1,0.1-0.1,0.3-0.2c0.6-0.2,1.3-0.4,1.9-0.6
					c0.1,0,0.4-0.2,0.4-0.3c0,0,0-0.1-0.1-0.2c0,0-0.1-0.1-0.2-0.2c-0.1-0.1-0.1-0.1-0.2-0.1c0,0-0.1,0-0.1,0.1
					c-0.2,0.1-1,0.7-1.2,0.7c-0.2,0-0.6-0.6-0.6-0.8c0-0.1,0.1-0.1,0.2-0.2c0.7-0.3,1.3-0.8,1.8-1.2c0.1-0.1,0.1-0.1,0.1-0.1
					c0-0.1-0.1-0.1-0.2-0.1h-0.4c-0.2,0-0.3,0.1-0.3,0.2c0,0.1,0,0.3,0,0.3c0,0.2-0.1,0.2-0.4,0.2h-0.5c-0.2,0-0.3,0-0.3-0.2
					c0-0.2,0-0.3,0-0.4v-0.5c0-0.2,0-0.3,0-0.5c0-0.3,0.3-0.3,0.5-0.3c0.3,0,0.6,0,0.9,0h1.1c0.2,0,0.3-0.1,0.3-0.2c0,0,0-0.2,0-0.3
					c0-0.1,0.1-0.1,0.2-0.1c0.2,0,0.7,0,0.9,0.1c0.2,0,0.3,0,0.3,0.1c0,0,0,0.1-0.1,0.1S99,15.9,99,16c0,0.1,0.1,0.2,0.2,0.2h1.2
					c0.3,0,0.6,0,0.9,0c0.2,0,0.5,0,0.5,0.3c0,0.1,0,0.2,0,0.4v0.6c0,0.1,0,0.3,0,0.4c0,0.2-0.1,0.2-0.4,0.2h-0.4
					c-0.2,0-0.3,0-0.3-0.2c0-0.1,0-0.3,0-0.4c0-0.1-0.1-0.2-0.3-0.2h-1.7c-0.1,0-0.1,0-0.1,0.1c0,0.1-0.1,0.1-0.2,0.1
					c0,0-0.1,0-0.1,0.1c0,0.1,0.1,0.1,0.2,0.1h0.7c0.1,0,0.3,0,0.4,0c0.2,0,0.3,0.1,0.5,0.3c0.1,0.1,0.2,0.3,0.2,0.4
					c0,0.2-0.8,0.9-0.9,1c0,0-0.1,0.1-0.1,0.1c0,0.1,0.1,0.1,0.3,0.2c0.4,0.2,1.2,0.5,2,0.7c0.1,0,0.3,0.1,0.3,0.2
					c0,0.1-0.3,0.8-0.6,0.8c-0.1,0-0.4-0.1-0.5-0.2c0,0-0.1,0-0.2,0c-0.2,0-0.2,0.2-0.2,0.3V22.1z M99.2,21.6c0.1,0,0.2-0.1,0.2-0.2
					v0c0-0.1-0.1-0.2-0.2-0.2h-1.6c-0.1,0-0.2,0.1-0.2,0.2v0c0,0.1,0.1,0.2,0.2,0.2H99.2z M98.9,20.3c0.1,0,0.2,0,0.2,0
					c0,0-0.1-0.1-0.1-0.1c-0.2-0.1-0.3-0.2-0.5-0.3c0,0-0.1,0-0.2,0c-0.1,0-0.2,0.1-0.4,0.2c-0.1,0-0.2,0.1-0.2,0.1
					c0,0-0.1,0-0.1,0.1c0,0.1,0.1,0.1,0.2,0.1H98.9z M98.1,18.3c-0.1,0-0.1,0-0.1,0.1c0,0.1,0.3,0.3,0.4,0.3c0.1,0,0.2-0.1,0.4-0.2
					c0,0,0,0,0-0.1c0-0.1-0.2-0.1-0.3-0.1H98.1z"/>
				<path class="st1" d="M106,16.6c0.1,0.2,0.1,0.2,0.3,0.2c0.1,0,0.3-0.1,0.5-0.2c0.2-0.1,0.3-0.2,0.4-0.2c0.2,0,0.3,0.2,0.5,0.4
					c0.1,0.2,0.3,0.4,0.3,0.5c0,0.1-0.2,0.2-0.4,0.3c-0.2,0.1-0.4,0.2-0.6,0.2c-0.1,0-0.2,0.1-0.2,0.2c0,0.1,0.1,0.2,0.1,0.3
					c0.2,0.4,0.5,0.9,0.8,1.3c0.2,0.3,0.4,0.5,0.4,0.6c0,0.2-0.6,0.7-0.8,0.7c0,0-0.2,0-0.2-0.1c-0.4-0.3-1.3-0.7-1.9-0.7
					c-0.3,0-0.6,0.2-0.6,0.5c0,0.7,1.1,0.8,1.6,0.8c0.2,0,0.3,0,0.5,0c0.2,0,0.3,0.2,0.3,0.4c0,0.2,0,0.4-0.1,0.7
					c0,0.1-0.1,0.2-0.3,0.2c-0.4,0-1.1-0.1-1.5-0.2c-0.9-0.2-1.7-0.8-1.7-1.8s0.9-1.7,1.8-1.7c0.3,0,0.6,0.1,0.6,0.1
					c0.1,0,0.1,0,0.1-0.1c0-0.1-0.1-0.3-0.2-0.4c-0.1-0.1-0.1-0.2-0.3-0.2c0,0-0.1,0-0.1,0c-0.4,0.1-1.4,0.3-1.8,0.3
					c-0.2,0-0.2-0.1-0.3-0.3c-0.1-0.2-0.2-0.5-0.2-0.7c0-0.1,0-0.2,0.2-0.2c0.3,0,1.1-0.1,1.3-0.1c0.1,0,0.2-0.1,0.2-0.2
					c0-0.1-0.2-0.3-0.3-0.5c-0.1-0.1-0.3-0.3-0.3-0.4c0-0.1,0.1-0.2,0.2-0.2c0.3-0.2,0.8-0.3,0.9-0.3c0.2,0,0.2,0.1,0.5,0.6
					C105.9,16.4,105.9,16.5,106,16.6z"/>
				<path class="st1" d="M109.4,21c0.6-1.2,1.1-2.5,1.9-3.6c0.3-0.5,0.7-1,1-1.6c0,0,0-0.1,0.1-0.1c0.1,0,0.6,0.4,0.7,0.5l0.1,0.1
					c0.2,0.1,0.2,0.2,0.2,0.3c0,0.1,0,0.1-0.1,0.1c-0.2,0-0.2,0.1-0.4,0.3c-0.3,0.4-0.6,0.8-0.8,1.2c0,0-0.1,0.1-0.1,0.1
					c0,0,0.1,0.1,0.1,0.1c0,0,0.1,0,0.1,0c0.1,0,0.2,0,0.3,0c0.7,0,1.1,0.4,1.1,1.1c0,0.4-0.1,0.8-0.2,1.2c0,0.1,0,0.2,0,0.3
					c0,0.1,0,0.2,0.1,0.2c0.3,0,1-0.9,1.2-1.1c0.1-0.2,0.2-0.3,0.3-0.3c0.2,0,0.5,0.8,0.5,1c0,0.2-0.5,0.6-0.7,0.8
					c-0.5,0.4-1.1,0.9-1.8,0.9c-0.6,0-0.9-0.5-0.9-1.1c0-0.3,0.1-0.6,0.1-0.9c0-0.2,0.1-0.5,0.1-0.6c0-0.1,0-0.2-0.2-0.2
					c-0.2,0-0.4,0.1-0.6,0.2c-0.3,0.2-0.5,0.4-0.7,0.7c-0.2,0.4-0.6,1.2-0.7,1.6c0,0.1-0.1,0.2-0.2,0.2c-0.2,0-0.7-0.2-0.8-0.3
					c-0.1-0.1-0.2-0.1-0.2-0.2C109.1,21.7,109.3,21.1,109.4,21z"/>
				<path class="st1" d="M120.6,18.2c0.5,0.5,0.7,1,0.7,1.6c0,0.9-0.5,1.7-1.3,2.1c-0.2,0.1-0.6,0.3-0.8,0.3c-0.2,0-0.6-0.6-0.6-0.8
					c0-0.1,0.1-0.1,0.2-0.1c0.7-0.2,1.3-0.7,1.3-1.5c0-1-0.8-1.4-1-1.4c-0.1,0-0.1,0.1-0.1,0.2c-0.1,0.9-0.3,2-0.9,2.7
					c-0.2,0.3-0.5,0.5-0.9,0.5c-0.4,0-0.8-0.3-1-0.7c-0.1-0.3-0.2-0.6-0.2-1c0-1.5,1.2-2.8,2.7-2.8
					C119.5,17.6,120.1,17.8,120.6,18.2z M117.1,20.3c0,0.2,0,0.6,0.3,0.6c0.2,0,0.4-0.4,0.4-0.6c0.2-0.5,0.4-1.4,0.4-1.6
					c0-0.1,0-0.1-0.1-0.1C117.9,18.6,117.1,19.2,117.1,20.3z"/>
				<path class="st1" d="M75.6,33.3c-0.1,0-0.3,0.1-0.3,0.2v0.1c0,0.2-0.1,0.2-0.4,0.2h-0.6c-0.2,0-0.3,0-0.3-0.2c0-0.3,0-0.7,0-1
					V28c0-0.3,0-0.6,0-0.8c0-0.3,0.2-0.4,0.5-0.4c0.3,0,0.6,0,0.8,0h2.8c0.3,0,0.6,0,0.8,0c0.3,0,0.5,0.1,0.5,0.4c0,0.3,0,0.6,0,0.8
					v4.5c0,0.4,0,0.7,0,1c0,0.2-0.1,0.2-0.3,0.2h-0.6c-0.3,0-0.4,0-0.4-0.3c0-0.2-0.1-0.2-0.3-0.2H75.6z M75.3,28.4
					c0,0.1,0.1,0.2,0.2,0.2h2.4c0.1,0,0.2-0.1,0.2-0.2v-0.2c0-0.1-0.1-0.2-0.2-0.2h-2.4c-0.1,0-0.2,0.1-0.2,0.2V28.4z M75.3,30.1
					c0,0.1,0.1,0.2,0.2,0.2h2.4c0.1,0,0.2-0.1,0.2-0.2v-0.3c0-0.1-0.1-0.2-0.2-0.2h-2.4c-0.1,0-0.2,0.1-0.2,0.2V30.1z M75.3,31.9
					c0,0.1,0.1,0.2,0.2,0.2h2.4c0.1,0,0.2-0.1,0.2-0.2v-0.3c0-0.1-0.1-0.2-0.2-0.2h-2.4c-0.1,0-0.2,0.1-0.2,0.2V31.9z"/>
				<path class="st1" d="M82.6,28.4c0-0.1,0-0.1,0.1-0.1c0.1,0,0.8,0.2,0.9,0.2c0.1,0,0.2,0,0.2,0.1c0,0,0,0.1-0.1,0.1
					c-0.1,0.1-0.1,0.2-0.2,0.4l0,0.1c0,0,0,0.1,0,0.1c0,0.1,0.1,0.2,0.2,0.2c0.1,0,0.4,0,0.5,0.1c0.5,0.3,0.5,0.6,0.5,1.1
					c0,0.6-0.1,1.5-0.4,2c-0.3,0.5-0.8,0.7-1.3,0.7c-0.2,0-0.3,0-0.3-0.2c-0.1-0.1-0.1-0.5-0.1-0.6c0-0.1,0-0.2,0.1-0.2
					c0.1,0,0.2,0,0.3,0c0.4,0,0.5,0,0.6-0.3c0.2-0.3,0.3-1,0.3-1.4c0-0.3,0-0.4-0.3-0.4c-0.2,0-0.3,0-0.3,0.2
					c-0.2,0.7-0.6,1.5-1,2.1c-0.1,0.1-0.3,0.5-0.5,0.6c0,0-0.1,0-0.1,0c-0.1,0-0.8-0.3-0.8-0.5c0-0.1,0.1-0.1,0.2-0.2
					c0.5-0.5,0.9-1.1,1.1-1.8c0,0,0-0.1,0-0.1c0-0.1,0-0.1-0.1-0.1c-0.1,0-0.5,0.1-0.5,0.2c0,0-0.1,0-0.1,0c-0.1,0-0.2-0.2-0.2-0.5
					c0-0.2-0.1-0.4-0.1-0.4c0-0.1,0-0.1,0.2-0.1c0.4,0,0.6-0.1,1-0.2c0.2,0,0.2-0.1,0.2-0.3C82.6,29.1,82.6,28.7,82.6,28.4
					L82.6,28.4z M85.2,29c0.2,0.2,0.4,0.4,0.5,0.6c0.1,0.1,0.5,0.8,0.5,0.9c0,0.2-0.6,0.5-0.8,0.5c-0.1,0-0.1-0.1-0.2-0.2
					c-0.2-0.5-0.5-1-0.9-1.4c0,0-0.1-0.1-0.1-0.1c0-0.1,0.5-0.5,0.6-0.5C85.1,28.9,85.1,28.9,85.2,29z M85.8,28.5
					c0.2,0.2,0.3,0.3,0.3,0.4c0,0.1-0.3,0.4-0.4,0.4c0,0-0.1,0-0.1-0.1c-0.1-0.2-0.3-0.3-0.5-0.5c0,0-0.1-0.1-0.1-0.1
					c0-0.1,0.3-0.3,0.4-0.3C85.5,28.2,85.7,28.4,85.8,28.5z M86.3,27.8c0.1,0.1,0.5,0.4,0.5,0.5c0,0.1-0.3,0.4-0.4,0.4
					c0,0-0.1-0.1-0.1-0.1c-0.1-0.2-0.3-0.3-0.5-0.5c0,0-0.1-0.1-0.1-0.1c0-0.1,0.3-0.3,0.4-0.3C86.2,27.7,86.2,27.8,86.3,27.8z"/>
				<path class="st1" d="M93.7,28.5c0.3,0.3,0.4,0.7,0.4,1.1c0,1-0.7,1.5-1.6,1.8c-0.2,0.1-0.5,0.2-0.7,0.2c-0.1,0-0.2-0.1-0.4-0.4
					c-0.1-0.1-0.2-0.4-0.2-0.5c0-0.1,0.1-0.1,0.2-0.2c0.5-0.1,1.4-0.3,1.4-0.9c0-0.3-0.2-0.5-0.5-0.5c-0.6,0-1.4,0.4-1.8,0.7
					c-0.1,0-0.2,0.1-0.2,0.2c0,0.1,0,0.1,0.1,0.2c0.4,0.8,0.9,1.5,1.4,2.3c0,0.1,0.1,0.2,0.1,0.2c0,0.2-0.8,0.6-1,0.6
					c-0.1,0-0.1,0-0.2-0.2c-0.2-0.3-0.3-0.6-0.5-0.9c-0.2-0.4-0.5-0.9-0.7-1.3c-0.1-0.1-0.1-0.2-0.2-0.2c-0.1,0-0.6,0.4-0.7,0.5
					c0,0-0.1,0.1-0.1,0.1c-0.2,0-0.7-0.8-0.7-1c0-0.1,0-0.1,0.3-0.3c0.1-0.1,0.3-0.2,0.5-0.3c0.1-0.1,0.2-0.1,0.2-0.2
					c0-0.2-0.4-0.8-0.6-1c-0.1-0.1-0.1-0.1-0.1-0.2c0-0.1,0.2-0.2,0.5-0.3c0.2-0.1,0.7-0.3,0.8-0.3c0,0,0.1,0,0.1,0.1
					c0,0,0,0.1,0,0.1c0,0,0,0,0,0.1c0,0.1,0.2,0.6,0.3,0.7c0,0.1,0.1,0.1,0.2,0.1c0.1,0,0.2-0.1,0.3-0.1c0.1,0,0.1-0.1,0.2-0.1
					c0.1-0.1,0.2-0.1,0.2-0.2c0-0.1-0.2-0.2-0.6-0.3c-0.1,0-0.2-0.1-0.2-0.2c0-0.1,0.1-0.4,0.2-0.5c0.2-0.3,0.2-0.4,0.3-0.4
					c0.1,0,0.8,0.3,1,0.3c0.2,0.1,0.5,0.2,0.5,0.4c0,0.1-0.1,0.2-0.1,0.3c0,0.1,0.1,0.1,0.1,0.1c0,0,0.1,0,0.1,0c0.1,0,0.3,0,0.4,0
					C92.8,28.1,93.4,28.2,93.7,28.5z"/>
				<path class="st1" d="M100.2,30.6c0,1-0.7,1.7-1.6,2c-0.3,0.1-1,0.3-1.3,0.3c-0.2,0-0.2-0.1-0.3-0.2c-0.1-0.1-0.2-0.5-0.2-0.6
					c0-0.1,0.1-0.2,0.3-0.2c0.7-0.1,2-0.4,2-1.3c0-0.4-0.3-0.6-0.7-0.6c-0.7,0-1.7,0.4-2.3,0.8c-0.1,0.1-0.2,0.1-0.3,0.1
					c-0.3,0-0.7-0.7-0.7-0.9c0-0.1,0.1-0.2,0.3-0.2c0.2,0,0.4-0.1,0.6-0.2c0.7-0.2,1.6-0.6,2.3-0.6C99.4,29,100.2,29.6,100.2,30.6z"
					/>
				<path class="st1" d="M103.7,27.6c0.2,0.1,0.3,0.1,0.3,0.2c0,0,0,0.1-0.1,0.1c-0.2,0.1-0.2,0.2-0.3,0.3c-0.3,0.7-0.5,1.7-0.5,2.4
					c0,0.2,0,0.4,0.1,0.4c0.1,0,0.1-0.1,0.2-0.3c0-0.1,0.1-0.1,0.1-0.1c0.1,0,0.5,0.2,0.5,0.4c0,0.1-0.4,1-0.4,1.5
					c0,0.1,0,0.3,0,0.4c0,0,0,0.1,0,0.2c0,0.3-0.7,0.5-0.8,0.5c-0.1,0-0.2-0.2-0.3-0.3c-0.4-0.9-0.5-1.8-0.5-2.7
					c0-0.8,0.1-1.5,0.3-2.3c0.1-0.3,0.2-0.6,0.2-1c0-0.1,0-0.2,0.1-0.2C102.7,27.2,103.5,27.5,103.7,27.6z M106.5,27.3
					c0.3,0,0.3,0,0.3,0.1c0,0.1-0.1,0.2-0.1,0.8v0.1c0,0.1,0,0.2,0.2,0.2c0.1,0,0.5-0.1,0.6-0.2c0.1,0,0.2,0,0.2,0
					c0.1,0,0.1,0.1,0.1,0.2c0.1,0.2,0.1,0.6,0.1,0.8c0,0.2-0.1,0.2-0.9,0.4c-0.2,0-0.3,0.1-0.3,0.2c0,0.1,0.1,1,0.1,1.2
					c0,0.2,0,0.2,0.2,0.3c0,0,0.3,0.2,0.4,0.2c0.3,0.2,0.8,0.5,0.8,0.8c0,0.2-0.4,0.7-0.6,0.7c-0.1,0-0.3-0.1-0.4-0.3
					c-0.1-0.1-0.2-0.2-0.2-0.2c-0.1,0-0.1,0.1-0.2,0.1c-0.2,0.4-0.8,0.6-1.3,0.6c-0.7,0-1.4-0.4-1.4-1.2c0-0.6,0.4-1,1-1.1
					c0.2,0,0.3,0,0.5,0h0.1c0.1,0,0.2-0.1,0.2-0.2c0-0.1,0-0.6-0.1-0.8c0-0.1,0-0.3-0.2-0.3c-0.1,0-0.8,0.1-1.2,0.1
					c-0.1,0-0.3,0-0.4-0.2c0-0.1,0-0.7,0-0.8c0-0.1,0-0.2,0.1-0.2c0.1,0,0.8,0.1,1.2,0.1h0.1c0.1,0,0.3,0,0.3-0.2
					c0-0.1-0.1-1-0.1-1.1c0,0,0-0.1,0-0.1c0-0.1,0-0.1,0.1-0.1C105.8,27.2,106.3,27.3,106.5,27.3z M105.1,32.2
					c0,0.2,0.3,0.2,0.4,0.2c0.2,0,0.4-0.1,0.4-0.3c0-0.2-0.2-0.2-0.4-0.2C105.4,32,105.1,32.1,105.1,32.2z M108.9,27.4
					c0,0.5-0.4,0.8-0.8,0.8c-0.5,0-0.8-0.4-0.8-0.8c0-0.5,0.4-0.8,0.8-0.8C108.5,26.6,108.9,27,108.9,27.4z M107.6,27.4
					c0,0.2,0.2,0.4,0.4,0.4c0.2,0,0.4-0.2,0.4-0.4c0-0.2-0.2-0.4-0.4-0.4C107.8,27,107.6,27.2,107.6,27.4z"/>
				<path class="st1" d="M111.7,27.5c0.1,0,0.2,0.1,0.2,0.1c0,0,0,0.1-0.1,0.1c-0.2,0.1-0.3,0.3-0.4,0.5c-0.1,0.3-0.3,0.8-0.3,1.2
					c0,0,0,0.1,0.1,0.1c0,0,0.1,0,0.1-0.2c0-0.1,0.1-0.2,0.2-0.2c0.1,0,0.4,0.2,0.4,0.4c0,0,0,0.1,0,0.1c-0.2,0.4-0.5,1.2-0.5,1.6
					v0.2c0,0.2-0.2,0.3-0.3,0.3c-0.1,0.1-0.3,0.1-0.5,0.1c-0.2,0-0.3-0.2-0.4-0.4c-0.2-0.6-0.3-1.3-0.3-1.9c0-0.5,0.1-1.2,0.2-1.8
					c0-0.2,0.1-0.4,0.2-0.6c0-0.1,0-0.2,0.1-0.2C110.6,27,111.4,27.4,111.7,27.5z M113.6,27c0.2,0,0.4-0.1,0.6-0.1
					c0.2,0,0.2,0.1,0.2,0.3c0.2,0.7,0.3,1.7,0.3,2.4c0,1.4-0.2,2.6-1.2,3.6c-0.2,0.2-0.5,0.5-0.7,0.5c-0.1,0-0.4-0.2-0.5-0.3
					c-0.2-0.2-0.4-0.3-0.4-0.5c0,0,0-0.1,0.1-0.2c0.4-0.3,0.8-0.7,1-1.2c0.3-0.6,0.3-1.2,0.3-1.8c0-0.8-0.1-1.6-0.3-2.4
					c0,0,0-0.1,0-0.1C113.1,27.1,113.2,27,113.6,27z"/>
				<path class="st1" d="M85.4,38.2c0.3,0,0.6,0,0.9,0c0.2,0,0.2,0.1,0.2,0.3v0.3c0,0.2,0,0.3-0.2,0.3c-0.3,0-0.6,0-0.9,0h-3.6
					c-0.2,0-0.3,0.1-0.3,0.2c0,0,0,0.1,0.1,0.1c0.2,0,0.4,0,0.6,0h2.5c0.2,0,0.5,0,0.7,0c0.2,0,0.2,0.1,0.2,0.2v0.3
					c0,0.2,0,0.2-0.2,0.2c-0.2,0-0.5,0-0.7,0h-2.5c-0.2,0-0.5,0-0.7,0c-0.2,0-0.2-0.1-0.2-0.3v-0.1c0,0,0-0.1-0.1-0.1
					c0,0-0.1,0.1-0.1,0.1c-0.1,0.1-0.6,0.6-0.7,0.6c-0.1,0-0.8-0.4-0.8-0.6c0-0.1,0.1-0.2,0.2-0.2c0.6-0.4,1.2-1.2,1.4-1.9
					c0-0.1,0-0.2,0.1-0.2c0.1,0,0.8,0.2,1,0.2c0.1,0,0.2,0.1,0.2,0.1c0,0.1-0.1,0.1-0.2,0.1c-0.1,0-0.2,0.1-0.2,0.2
					c0,0.1,0,0.1,0.1,0.1H85.4z M83,41.3c0,0-0.1,0-0.1,0c0,0,0.4,0.3,0.5,0.3c0.1,0,0.3,0.2,0.3,0.2c0,0.1-0.1,0.1-0.1,0.1
					c-0.1,0-0.1,0-0.2,0.1c-0.1,0.1-0.2,0.3-0.3,0.4c0,0.1-0.1,0.1-0.1,0.2c0,0.1,0.2,0.2,0.3,0.3c0.1,0.1,0.5,0.3,0.6,0.4
					c0.1,0,0.1,0.1,0.1,0.2c0,0.1-0.3,0.8-0.6,0.8c-0.1,0-0.2-0.1-0.2-0.1c-0.3-0.2-0.6-0.5-0.7-0.6c-0.1-0.1-0.1-0.1-0.2-0.1
					c0,0-0.1,0-0.1,0.1c-0.2,0.2-1.5,1.1-1.7,1.1c-0.2,0-0.7-0.7-0.7-0.8c0-0.1,0.1-0.1,0.2-0.2c0.2-0.1,1.3-0.7,1.3-0.8
					c0-0.1-0.7-0.4-0.8-0.4c-0.1,0-0.2-0.1-0.2-0.2c0-0.2,0.5-0.7,0.6-0.7c0.2,0,0.8,0.3,1,0.4c0.1,0,0.1,0.1,0.2,0.1
					c0.1,0,0.2-0.2,0.3-0.3c0.1-0.1,0.2-0.4,0.2-0.5c0-0.1-0.1-0.1-0.2-0.1h-0.9c-0.3,0-0.7,0-1,0c-0.1,0-0.2,0-0.2-0.2v-0.4
					c0-0.2,0-0.3,0.2-0.3c0.3,0,0.7,0,1,0h3.4c0.2,0,0.5,0,0.7,0c0.3,0,0.4,0.1,0.4,0.4c0,0.3,0,1,0,1.5c0,0.4,0,0.8,0.1,1.1
					c0,0.1,0,0.2,0.1,0.2c0.1,0,0.2-0.7,0.2-0.8c0-0.1,0.1-0.2,0.2-0.2c0.2,0,0.6,0.1,0.6,0.4c0,0.1,0,0.2,0,0.4
					c-0.1,0.6-0.3,1.5-1.1,1.5c-0.5,0-0.8-0.3-1-0.8c-0.2-0.7-0.3-1.7-0.3-2.5v-0.1c0-0.1-0.1-0.2-0.2-0.2H83z"/>
				<path class="st1" d="M88.6,38.8c0-0.2,0.1-0.3,0.1-0.4c0-0.2,0-0.2,0.1-0.2c0.1,0,0.8,0.3,1.2,0.4c0.2,0.1,0.2,0.1,0.2,0.2
					c0,0,0,0-0.1,0.1c-0.2,0.1-0.2,0.2-0.3,0.3c-0.3,0.6-0.5,1.5-0.5,2.3c0,0.4,0,0.7,0.1,0.7c0.1,0,0.1-0.1,0.1-0.1
					c0-0.1,0.1-0.2,0.2-0.2c0.1,0,0.4,0.3,0.4,0.4c0,0.1-0.4,0.7-0.4,1.2c0,0.1,0,0.3,0,0.4c0,0,0,0.2,0,0.2c0,0.3-0.6,0.5-0.8,0.5
					c-0.2,0-0.2-0.1-0.4-0.4c-0.4-0.8-0.5-1.7-0.5-2.6C88.2,40.5,88.3,39.7,88.6,38.8z M90.9,42.2c0.3,0.4,0.6,0.5,1.1,0.5
					c0.6,0,1.2-0.1,1.8-0.3c0.1,0,0.1,0,0.2,0c0.1,0,0.2,0.1,0.2,0.2c0,0.2,0,0.7,0,0.8c0,0.1,0,0.2-0.1,0.2c-0.3,0.1-1.6,0.3-2,0.3
					c-1.3,0-1.9-0.6-1.9-0.8C90.2,43,90.6,42.2,90.9,42.2C90.8,42.2,90.8,42.2,90.9,42.2z M90.8,38.8c0,0,0.2,0,0.2,0
					c0.3,0.1,0.7,0.1,1.1,0.1c0.4,0,0.8-0.1,1.2-0.2c0.1,0,0.1,0,0.2,0c0.2,0,0.2,0.2,0.2,0.3c0,0.2,0,0.5,0,0.7
					c0,0.2,0,0.2-0.2,0.3C93.1,40,92.6,40,92.2,40c-0.2,0-1.3,0-1.5-0.2c-0.1-0.1-0.1-0.3-0.1-0.4C90.6,38.9,90.7,38.8,90.8,38.8z"
					/>
				<path class="st1" d="M98.8,37.9c0.1,0,0.2,0.1,0.2,0.1c0,0-0.1,0.1-0.2,0.1c0,0-0.1,0.3-0.1,0.4c0,0,0,0,0,0.1c0,0,0,0.1,0,0.1
					c0,0,0,0.1,0.1,0.1c0,0,0.1,0,0.2,0s0.1,0,0.1,0c0.1,0,0.1,0,0.1,0.1c0,0.1,0.1,0.6,0.1,0.8c0,0.2-0.1,0.2-0.7,0.3
					c-0.3,0-0.3,0.1-0.4,0.4c-0.1,0.4-0.3,0.7-0.4,1.1c-0.2,0.5-0.4,1-0.7,1.4c-0.1,0.1-0.1,0.2-0.2,0.3c0,0.1-0.1,0.1-0.2,0.1
					c-0.3,0-1-0.3-1-0.5c0,0,0.1-0.2,0.2-0.3c0.2-0.3,1-1.9,1-2.1c0-0.1-0.1-0.1-0.1-0.1c0,0-0.2,0-0.3,0c-0.1,0-0.3,0-0.4,0
					c-0.2,0-0.2-0.1-0.3-0.8c0-0.1,0-0.2,0-0.3c0-0.1,0.1-0.1,0.2-0.1c0.1,0,0.3,0,0.5,0c0.7,0,0.8,0,0.9-0.2c0.1-0.3,0.2-1,0.2-1.2
					c0-0.1,0-0.1,0.1-0.1C97.7,37.6,98.7,37.9,98.8,37.9z M99.9,40.4c0.1,0,0.2,0.1,0.2,0.2c0,0.1,0,0.2,0,0.4c0,0.4,0,0.8,0.1,1.2
					c0,0.2,0,0.2,0.2,0.3c0.2,0.1,1.2,0.6,1.2,0.8c0,0.2-0.4,0.8-0.7,0.8c-0.1,0-0.2-0.1-0.4-0.2c0,0-0.1-0.1-0.2-0.1
					c0,0-0.1,0-0.1,0c-0.1,0-0.2,0.1-0.2,0.1c-0.1,0.1-0.2,0.3-0.3,0.4c-0.2,0.2-0.6,0.3-1,0.3c-0.8,0-1.6-0.4-1.6-1.2
					c0-0.8,0.7-1.1,1.4-1.1h0.1c0.1,0,0.2-0.1,0.2-0.2c0-0.1-0.1-0.8-0.1-1.1c0-0.1,0-0.3,0-0.4c0-0.2,0.1-0.2,0.2-0.2
					C99.3,40.3,99.7,40.4,99.9,40.4z M98.5,43.4c0,0.2,0.2,0.2,0.3,0.2c0.2,0,0.2-0.1,0.2-0.3c0-0.1,0-0.2-0.2-0.2
					C98.7,43.1,98.5,43.2,98.5,43.4z M101.3,39.5c0.2,0.2,0.7,0.6,0.7,0.8c0,0.2-0.6,0.8-0.8,0.8c-0.1,0-0.2-0.1-0.2-0.2
					c-0.3-0.4-0.6-0.7-1-1c-0.1,0-0.1-0.1-0.1-0.2c0-0.1,0.5-0.8,0.7-0.8C100.6,38.9,101.1,39.4,101.3,39.5z"/>
				<path class="st1" d="M107.8,39c0,0,0,0.1-0.1,0.1c-0.3,0.2-0.7,0.5-1,0.8c0,0-0.1,0.1-0.1,0.1c0,0.1,0.1,0.2,0.2,0.2
					c0,0,0.1,0,0.1,0c0.1,0,0.4,0,0.6,0.1c0.9,0.3,1.4,1,1.4,1.9c0,1.5-1.3,2.3-2.7,2.3c-0.8,0-1.8-0.3-1.8-1.2
					c0-0.6,0.6-1.1,1.2-1.1c0.4,0,0.8,0.2,1.1,0.5c0.1,0.2,0.1,0.2,0.2,0.4c0,0.1,0.1,0.2,0.2,0.2c0.2,0,0.6-0.4,0.6-0.9
					c0-0.7-0.6-1-1.2-1c-0.6,0-1.1,0.2-1.5,0.6c-0.3,0.3-0.7,0.7-1,1c-0.1,0.1-0.2,0.2-0.2,0.2c-0.2,0-0.8-0.7-0.8-0.8
					c0-0.1,0.1-0.2,0.2-0.3c0.2-0.2,1.5-1.5,1.8-1.8c0.2-0.2,0.3-0.3,0.4-0.4c0.1-0.1,0.1-0.1,0.1-0.2c0-0.1-0.1-0.1-0.2-0.1
					c0,0-0.9,0.2-1.1,0.2c0,0-0.1,0-0.1,0c-0.2,0-0.2-0.9-0.2-1.1v-0.1c0-0.1,0-0.1,0.3-0.1h0.2c0.5,0,1.7-0.1,2.1-0.3
					c0.2-0.1,0.3-0.1,0.3-0.1C107.2,38,107.8,38.8,107.8,39z M105.7,43c-0.1,0-0.3,0.1-0.3,0.2c0,0.2,0.3,0.3,0.5,0.3
					c0.1,0,0.2-0.1,0.2-0.2C106.1,43.2,105.9,43,105.7,43z"/>
			</g>
		</g>
	</g>
	<g>
		<defs>
			<rect id="SVGID_1_" x="48.2" y="36.8" width="81.5" height="75.5"/>
		</defs>
		<clipPath id="SVGID_2_">
			<use xlink:href="#SVGID_1_"  style="overflow:visible;"/>
		</clipPath>
		<g class="st4">
			<g>
				<path class="st5" d="M79.9,93.3c-0.3,6.2-0.5,11.8-0.7,16.8c-0.1,2.4-0.5,4.2-0.6,6.4c0,1-0.4,2.4-0.4,3.4
					c0,0.8-0.3,1.6,0.6,1.6c0.5,0,1.1,0,1.6,0c2.2,0,5,0.4,7.1,0.8c2.8,0.6,5.6,1.3,8.5,1.2c2.6-0.1,6.1-0.7,8.7-1.9
					c0.7-0.3,1.6-0.7,2.2-1.2c0.3-0.2,0.2-0.1,0.2-0.4c0-0.2-0.1-0.4-0.1-0.5c-0.1-0.4-0.2-0.7-0.2-1.1c-0.2-1.6-0.3-3.3-0.3-5
					c0-2.3-0.1-4.7,0-7.2c0-1.3,0.1-2.7,0.1-4.1c0-0.7,0-1.4,0.2-2.1c0.1-0.6,0.3-1,0.3-1.6"/>
				<polyline class="st6" points="79.9,93.3 79.8,94.1 79.8,94.9 79.8,95.6 79.8,96.4 79.7,97.2 79.6,97.9 79.6,98.7 79.6,99.5 
					79.6,100.2 79.5,101 79.5,101.8 79.5,102.5 79.4,103.3 79.4,104.1 79.4,104.8 79.4,105.6 79.3,106.4 79.3,107.1 79.2,107.9 
					79.2,108.6 79.2,109.4 79.1,110.2 79.1,111 79,111.8 78.9,112.6 78.8,113.4 78.7,114.2 78.6,115 78.6,115.8 78.5,116.6 
					78.4,117.4 78.3,118.3 78.2,119.1 78.1,120 78.1,120.6 78.1,121.3 78.7,121.6 79.5,121.5 80.3,121.6 81.1,121.6 81.9,121.6 
					82.7,121.7 83.5,121.7 84.3,121.8 85.1,122 85.8,122.1 86.6,122.2 87.4,122.4 88.2,122.6 88.9,122.7 89.7,122.9 90.5,123 
					91.2,123.2 92,123.3 92.8,123.4 93.6,123.5 94.3,123.5 95.1,123.6 95.9,123.6 96.6,123.6 97.4,123.5 98.1,123.4 98.9,123.3 
					99.6,123.2 100.3,123 101.1,122.9 101.8,122.7 102.5,122.5 103.2,122.3 103.9,122 104.6,121.7 105.4,121.4 106.1,121 
					106.8,120.5 107.1,120.2 107,119.7 106.8,118.6 106.7,117.8 106.5,117.1 106.5,116.4 106.5,115.7 106.5,115 106.5,114.3 
					106.4,113.6 106.4,112.8 106.4,112 106.4,111.2 106.4,110.4 106.4,109.6 106.4,108.8 106.4,108 106.4,107.2 106.4,106.3 
					106.4,105.5 106.4,104.7 106.5,103.9 106.5,103.1 106.5,102.3 106.6,101.6 106.5,100.9 106.7,100.2 106.8,99.4 107,98.6 				"/>
			</g>
			<g>
				<path class="st5" d="M110.3,99.9c-2.3,1.1-5,1.2-7.4,0.4c-0.2-0.1-0.3-0.1-0.4-0.3c0-0.2,0.1-0.4,0.3-0.5
					c0.7-0.5,1.4-0.9,2.2-1.2c1.6-0.7,3.4-1,5-0.5c0.3,0.1,1.5,0.3,1.8,0.4c0.2,0.1,0.8,0.4,0.9,0.6
					C112.8,99.3,110.6,99.7,110.3,99.9z"/>
				<polygon class="st6" points="110.3,99.9 109.6,100.2 108.9,100.4 108.1,100.6 107.4,100.7 106.6,100.8 105.9,100.8 105.1,100.8 
					104.4,100.7 103.6,100.5 102.9,100.3 102.5,99.9 102.8,99.5 103.5,99 104.2,98.6 105,98.3 105.7,98 106.4,97.8 107.1,97.7 
					107.8,97.6 108.6,97.6 109.3,97.7 110,97.8 110.9,98 111.8,98.2 112.6,98.8 112,99.3 111.1,99.6 				"/>
			</g>
			<g>
				<g>
					<g>
						<g>
							<path class="st1" d="M109.5,97.8l0-0.2c0-0.3,0-0.6,0-0.8l0-0.5l0-0.8l0-0.8l-0.1-0.5c0-0.1,0-0.2,0-0.2l0.1-0.1c0,0,0,0,0,0
								l0,0l-0.8,0l-0.4,0c-0.7,0-1.4,0.1-2.1,0.2l-0.6,0.1l-0.5,0.1c-0.5,0.1-0.9,0.2-1.4,0.3l-0.4,0.1l-0.4,0.1
								c-0.3,0.1-0.7,0.2-1,0.3l-0.1,0l0,0.1c0.1,0.4,0.1,0.8,0.2,1.2l0,0.2l0,0.2c0,0.3,0.1,0.7,0.1,1l0,0.3l0.1,0.5
								c0.1,0.5,0.1,1,0.2,1.5l0,0.3l0.1,0.8l0,0.8c0,0.2-0.1,0.3-0.1,0.6l0,0.2l-0.6,0.1c-0.1,0-0.2,0-0.2,0c0,0,0,0-0.1,0l-0.5,0
								c-0.2,0-0.5,0-0.7,0l-0.2,0l-0.1,0c-0.3,0-0.6,0-0.9,0l-0.5,0l-0.8,0l-0.5,0c-0.8,0-1.5,0-2.3,0l-0.4,0l-0.3,0
								c-0.7,0-1.4,0-2.1,0l0,0h0c-0.7,0-1.4,0-2.2,0l-0.2,0l-0.4,0c-0.2,0-0.4,0-0.6,0l-0.6-0.1l-0.8,0l-0.8-0.1l-0.8-0.1h0
								c-1.2-0.1-2.3-0.3-3.3-0.5L82,102l-0.6-0.1c-0.1,0-0.3-0.1-0.4-0.1l-0.2-0.1c-0.1,0-0.2-0.1-0.4-0.1l-0.2,0.3l-0.3,0.4
								l-0.2,0.3l-0.6,0.9l-0.2,0.2l-0.4,0.7l-0.5,0.7c0,0,0,0,0,0l0,0l0,0c0.5,0.1,1.5,0.4,2.5,0.7l0.5,0.2l0.8,0.2l0.7,0.2
								c0,0,0,0,0.1,0l0.7,0.2l0.7,0.2L85,107l0.7,0.2l0.7,0.2l0.7,0.2l0.3,0.1c0.2,0.1,0.4,0.1,0.7,0.2l0.5,0.1l0.5,0.1
								c0.8,0.2,1.7,0.4,2.5,0.5c0.1,0,0.2,0,0.4,0.1l0.4,0.1l0.8,0.1l0.8,0.1l0.8,0.1l0.8,0.1l0.8,0.1l0.8,0.1l0.8,0.1l0.8,0.1
								l0.8,0.1l0.1,0c0.3,0,0.5,0,0.8,0.1l0.8,0.1l0.6,0c0.2,0,0.4,0,0.6,0l0.3,0l0.5,0c0.2,0,0.4,0,0.6,0l0.5,0l0.8,0l0.7-0.1
								c0,0,0,0,0.1,0c0.3,0,0.6-0.1,0.9-0.2l0.3-0.1l0.5-0.5l0.3-0.6c0,0,0,0,0,0l0,0l0.3-0.7l0.2-0.7l0.1-0.8l0-0.3
								c0.1-0.4,0.1-0.8,0.2-1.2l0-0.1l0-0.3c0.1-0.5,0.1-1,0.2-1.5l0.1-0.5l0-0.4c0.1-0.9,0.1-1.8,0.2-2.7l0,0l0-0.8L109.5,97.8z"
								/>
						</g>
						<g>
							<path class="st1" d="M109.5,97.8l0-0.2c0-0.3,0-0.6,0-0.8l0-0.5l0-0.8l0-0.8l-0.1-0.5c0-0.1,0-0.2,0-0.2l0.1-0.1c0,0,0,0,0,0
								l0,0l-0.8,0l-0.4,0c-0.7,0-1.4,0.1-2.1,0.2l-0.6,0.1l-0.5,0.1c-0.5,0.1-0.9,0.2-1.4,0.3l-0.4,0.1l-0.4,0.1
								c-0.3,0.1-0.7,0.2-1,0.3l-0.1,0l0,0.1c0.1,0.4,0.1,0.8,0.2,1.2l0,0.2l0,0.2c0,0.3,0.1,0.7,0.1,1l0,0.3l0.1,0.5
								c0.1,0.5,0.1,1,0.2,1.5l0,0.3l0.1,0.8l0,0.8c0,0.2-0.1,0.3-0.1,0.6l0,0.2l-0.6,0.1c-0.1,0-0.2,0-0.2,0c0,0,0,0-0.1,0l-0.5,0
								c-0.2,0-0.5,0-0.7,0l-0.2,0l-0.1,0c-0.3,0-0.6,0-0.9,0l-0.5,0l-0.8,0l-0.5,0c-0.8,0-1.5,0-2.3,0l-0.4,0l-0.3,0
								c-0.7,0-1.4,0-2.1,0l0,0h0c-0.7,0-1.4,0-2.2,0l-0.2,0l-0.4,0c-0.2,0-0.4,0-0.6,0l-0.6-0.1l-0.8,0l-0.8-0.1l-0.8-0.1h0
								c-1.2-0.1-2.3-0.3-3.3-0.5L82,102l-0.6-0.1c-0.1,0-0.3-0.1-0.4-0.1l-0.2-0.1c-0.1,0-0.2-0.1-0.4-0.1l-0.2,0.3l-0.3,0.4
								l-0.2,0.3l-0.6,0.9l-0.2,0.2l-0.4,0.7l-0.5,0.7c0,0,0,0,0,0l0,0l0,0c0.5,0.1,1.5,0.4,2.5,0.7l0.5,0.2l0.8,0.2l0.7,0.2
								c0,0,0,0,0.1,0l0.7,0.2l0.7,0.2L85,107l0.7,0.2l0.7,0.2l0.7,0.2l0.3,0.1c0.2,0.1,0.4,0.1,0.7,0.2l0.5,0.1l0.5,0.1
								c0.8,0.2,1.7,0.4,2.5,0.5c0.1,0,0.2,0,0.4,0.1l0.4,0.1l0.8,0.1l0.8,0.1l0.8,0.1l0.8,0.1l0.8,0.1l0.8,0.1l0.8,0.1l0.8,0.1
								l0.8,0.1l0.1,0c0.3,0,0.5,0,0.8,0.1l0.8,0.1l0.6,0c0.2,0,0.4,0,0.6,0l0.3,0l0.5,0c0.2,0,0.4,0,0.6,0l0.5,0l0.8,0l0.7-0.1
								c0,0,0,0,0.1,0c0.3,0,0.6-0.1,0.9-0.2l0.3-0.1l0.5-0.5l0.3-0.6c0,0,0,0,0,0l0,0l0.3-0.7l0.2-0.7l0.1-0.8l0-0.3
								c0.1-0.4,0.1-0.8,0.2-1.2l0-0.1l0-0.3c0.1-0.5,0.1-1,0.2-1.5l0.1-0.5l0-0.4c0.1-0.9,0.1-1.8,0.2-2.7l0,0l0-0.8L109.5,97.8z"
								/>
						</g>
						<g>
							<path class="st1" d="M109.5,97.8l0-0.2c0-0.3,0-0.6,0-0.8l0-0.5l0-0.8l0-0.8l-0.1-0.5c0-0.1,0-0.2,0-0.2l0.1-0.1c0,0,0,0,0,0
								l0,0l-0.8,0l-0.4,0c-0.7,0-1.4,0.1-2.1,0.2l-0.6,0.1l-0.5,0.1c-0.5,0.1-0.9,0.2-1.4,0.3l-0.4,0.1l-0.4,0.1
								c-0.3,0.1-0.7,0.2-1,0.3l-0.1,0l0,0.1c0.1,0.4,0.1,0.8,0.2,1.2l0,0.2l0,0.2c0,0.3,0.1,0.7,0.1,1l0,0.3l0.1,0.5
								c0.1,0.5,0.1,1,0.2,1.5l0,0.3l0.1,0.8l0,0.8c0,0.2-0.1,0.3-0.1,0.6l0,0.2l-0.6,0.1c-0.1,0-0.2,0-0.2,0c0,0,0,0-0.1,0l-0.5,0
								c-0.2,0-0.5,0-0.7,0l-0.2,0l-0.1,0c-0.3,0-0.6,0-0.9,0l-0.5,0l-0.8,0l-0.5,0c-0.8,0-1.5,0-2.3,0l-0.4,0l-0.3,0
								c-0.7,0-1.4,0-2.1,0l0,0h0c-0.7,0-1.4,0-2.2,0l-0.2,0l-0.4,0c-0.2,0-0.4,0-0.6,0l-0.6-0.1l-0.8,0l-0.8-0.1l-0.8-0.1h0
								c-1.2-0.1-2.3-0.3-3.3-0.5L82,102l-0.6-0.1c-0.1,0-0.3-0.1-0.4-0.1l-0.2-0.1c-0.1,0-0.2-0.1-0.4-0.1l-0.2,0.3l-0.3,0.4
								l-0.2,0.3l-0.6,0.9l-0.2,0.2l-0.4,0.7l-0.5,0.7c0,0,0,0,0,0l0,0l0,0c0.5,0.1,1.5,0.4,2.5,0.7l0.5,0.2l0.8,0.2l0.7,0.2
								c0,0,0,0,0.1,0l0.7,0.2l0.7,0.2L85,107l0.7,0.2l0.7,0.2l0.7,0.2l0.3,0.1c0.2,0.1,0.4,0.1,0.7,0.2l0.5,0.1l0.5,0.1
								c0.8,0.2,1.7,0.4,2.5,0.5c0.1,0,0.2,0,0.4,0.1l0.4,0.1l0.8,0.1l0.8,0.1l0.8,0.1l0.8,0.1l0.8,0.1l0.8,0.1l0.8,0.1l0.8,0.1
								l0.8,0.1l0.1,0c0.3,0,0.5,0,0.8,0.1l0.8,0.1l0.6,0c0.2,0,0.4,0,0.6,0l0.3,0l0.5,0c0.2,0,0.4,0,0.6,0l0.5,0l0.8,0l0.7-0.1
								c0,0,0,0,0.1,0c0.3,0,0.6-0.1,0.9-0.2l0.3-0.1l0.5-0.5l0.3-0.6c0,0,0,0,0,0l0,0l0.3-0.7l0.2-0.7l0.1-0.8l0-0.3
								c0.1-0.4,0.1-0.8,0.2-1.2l0-0.1l0-0.3c0.1-0.5,0.1-1,0.2-1.5l0.1-0.5l0-0.4c0.1-0.9,0.1-1.8,0.2-2.7l0,0l0-0.8L109.5,97.8z"
								/>
						</g>
					</g>
					<g>
						<g>
							<path class="st1" d="M109.5,97.8l0-0.2c0-0.3,0-0.6,0-0.8l0-0.5l0-0.8l0-0.8l-0.1-0.5c0-0.1,0-0.2,0-0.2l0.1-0.1c0,0,0,0,0,0
								l0,0l-0.8,0l-0.4,0c-0.7,0-1.4,0.1-2.1,0.2l-0.6,0.1l-0.5,0.1c-0.5,0.1-0.9,0.2-1.4,0.3l-0.4,0.1l-0.4,0.1
								c-0.3,0.1-0.7,0.2-1,0.3l-0.1,0l0,0.1c0.1,0.4,0.1,0.8,0.2,1.2l0,0.2l0,0.2c0,0.3,0.1,0.7,0.1,1l0,0.3l0.1,0.5
								c0.1,0.5,0.1,1,0.2,1.5l0,0.3l0.1,0.8l0,0.8c0,0.2-0.1,0.3-0.1,0.6l0,0.2l-0.6,0.1c-0.1,0-0.2,0-0.2,0c0,0,0,0-0.1,0l-0.5,0
								c-0.2,0-0.5,0-0.7,0l-0.2,0l-0.1,0c-0.3,0-0.6,0-0.9,0l-0.5,0l-0.8,0l-0.5,0c-0.8,0-1.5,0-2.3,0l-0.4,0l-0.3,0
								c-0.7,0-1.4,0-2.1,0l0,0h0c-0.7,0-1.4,0-2.2,0l-0.2,0l-0.4,0c-0.2,0-0.4,0-0.6,0l-0.6-0.1l-0.8,0l-0.8-0.1l-0.8-0.1h0
								c-1.2-0.1-2.3-0.3-3.3-0.5L82,102l-0.6-0.1c-0.1,0-0.3-0.1-0.4-0.1l-0.2-0.1c-0.1,0-0.2-0.1-0.4-0.1l-0.2,0.3l-0.3,0.4
								l-0.2,0.3l-0.6,0.9l-0.2,0.2l-0.4,0.7l-0.5,0.7c0,0,0,0,0,0l0,0l0,0c0.5,0.1,1.5,0.4,2.5,0.7l0.5,0.2l0.8,0.2l0.7,0.2
								c0,0,0,0,0.1,0l0.7,0.2l0.7,0.2L85,107l0.7,0.2l0.7,0.2l0.7,0.2l0.3,0.1c0.2,0.1,0.4,0.1,0.7,0.2l0.5,0.1l0.5,0.1
								c0.8,0.2,1.7,0.4,2.5,0.5c0.1,0,0.2,0,0.4,0.1l0.4,0.1l0.8,0.1l0.8,0.1l0.8,0.1l0.8,0.1l0.8,0.1l0.8,0.1l0.8,0.1l0.8,0.1
								l0.8,0.1l0.1,0c0.3,0,0.5,0,0.8,0.1l0.8,0.1l0.6,0c0.2,0,0.4,0,0.6,0l0.3,0l0.5,0c0.2,0,0.4,0,0.6,0l0.5,0l0.8,0l0.7-0.1
								c0,0,0,0,0.1,0c0.3,0,0.6-0.1,0.9-0.2l0.3-0.1l0.5-0.5l0.3-0.6c0,0,0,0,0,0l0,0l0.3-0.7l0.2-0.7l0.1-0.8l0-0.3
								c0.1-0.4,0.1-0.8,0.2-1.2l0-0.1l0-0.3c0.1-0.5,0.1-1,0.2-1.5l0.1-0.5l0-0.4c0.1-0.9,0.1-1.8,0.2-2.7l0,0l0-0.8L109.5,97.8z"
								/>
						</g>
						<g>
							<path class="st6" d="M109.5,97.8l0-0.2c0-0.3,0-0.6,0-0.8l0-0.5l0-0.8l0-0.8l-0.1-0.5c0-0.1,0-0.2,0-0.2l0.1-0.1c0,0,0,0,0,0
								l0,0l-0.8,0l-0.4,0c-0.7,0-1.4,0.1-2.1,0.2l-0.6,0.1l-0.5,0.1c-0.5,0.1-0.9,0.2-1.4,0.3l-0.4,0.1l-0.4,0.1
								c-0.3,0.1-0.7,0.2-1,0.3l-0.1,0l0,0.1c0.1,0.4,0.1,0.8,0.2,1.2l0,0.2l0,0.2c0,0.3,0.1,0.7,0.1,1l0,0.3l0.1,0.5
								c0.1,0.5,0.1,1,0.2,1.5l0,0.3l0.1,0.8l0,0.8c0,0.2-0.1,0.3-0.1,0.6l0,0.2l-0.6,0.1c-0.1,0-0.2,0-0.2,0c0,0,0,0-0.1,0l-0.5,0
								c-0.2,0-0.5,0-0.7,0l-0.2,0l-0.1,0c-0.3,0-0.6,0-0.9,0l-0.5,0l-0.8,0l-0.5,0c-0.8,0-1.5,0-2.3,0l-0.4,0l-0.3,0
								c-0.7,0-1.4,0-2.1,0l0,0h0c-0.7,0-1.4,0-2.2,0l-0.2,0l-0.4,0c-0.2,0-0.4,0-0.6,0l-0.6-0.1l-0.8,0l-0.8-0.1l-0.8-0.1h0
								c-1.2-0.1-2.3-0.3-3.3-0.5L82,102l-0.6-0.1c-0.1,0-0.3-0.1-0.4-0.1l-0.2-0.1c-0.1,0-0.2-0.1-0.4-0.1l-0.2,0.3l-0.3,0.4
								l-0.2,0.3l-0.6,0.9l-0.2,0.2l-0.4,0.7l-0.5,0.7c0,0,0,0,0,0l0,0l0,0c0.5,0.1,1.5,0.4,2.5,0.7l0.5,0.2l0.8,0.2l0.7,0.2
								c0,0,0,0,0.1,0l0.7,0.2l0.7,0.2L85,107l0.7,0.2l0.7,0.2l0.7,0.2l0.3,0.1c0.2,0.1,0.4,0.1,0.7,0.2l0.5,0.1l0.5,0.1
								c0.8,0.2,1.7,0.4,2.5,0.5c0.1,0,0.2,0,0.4,0.1l0.4,0.1l0.8,0.1l0.8,0.1l0.8,0.1l0.8,0.1l0.8,0.1l0.8,0.1l0.8,0.1l0.8,0.1
								l0.8,0.1l0.1,0c0.3,0,0.5,0,0.8,0.1l0.8,0.1l0.6,0c0.2,0,0.4,0,0.6,0l0.3,0l0.5,0c0.2,0,0.4,0,0.6,0l0.5,0l0.8,0l0.7-0.1
								c0,0,0,0,0.1,0c0.3,0,0.6-0.1,0.9-0.2l0.3-0.1l0.5-0.5l0.3-0.6c0,0,0,0,0,0l0,0l0.3-0.7l0.2-0.7l0.1-0.8l0-0.3
								c0.1-0.4,0.1-0.8,0.2-1.2l0-0.1l0-0.3c0.1-0.5,0.1-1,0.2-1.5l0.1-0.5l0-0.4c0.1-0.9,0.1-1.8,0.2-2.7l0,0l0-0.8L109.5,97.8z"
								/>
						</g>
					</g>
					<g>
						<g>
							<polygon class="st6" points="109.5,97.8 109.5,97.6 109.5,96.7 109.5,96.2 109.5,95.5 109.4,94.7 109.4,94.1 109.4,93.9 
								109.5,93.8 109.4,93.8 109.5,93.8 108.7,93.8 108.2,93.8 107.5,93.9 106.8,94 106.1,94.1 105.6,94.2 105,94.3 104.3,94.4 
								103.6,94.6 103.3,94.7 102.9,94.8 101.9,95 101.7,95 101.8,95.1 101.8,95.7 101.9,96.3 101.9,96.6 101.9,96.8 102.1,97.8 
								102.1,98.1 102.2,98.5 102.3,99.3 102.4,100.1 102.4,100.4 102.5,101.1 102.6,101.9 102.5,102.5 102.4,102.7 101.8,102.8 
								101.6,102.9 101.5,102.9 101,103 100.4,103 100.1,103 100,103 99.1,102.9 98.5,103 97.7,102.9 97.2,102.9 96.4,103 95.7,103 
								94.9,103 94.6,102.9 94.2,102.9 93.5,102.9 92.9,102.9 92.2,102.9 92.2,102.9 92.2,102.9 91.4,102.9 90.7,102.9 90,102.9 
								89.8,102.9 89.4,102.8 88.9,102.8 88.2,102.8 87.4,102.8 86.6,102.7 85.8,102.6 85.8,102.6 85.2,102.6 84.5,102.5 
								83.8,102.4 83.2,102.3 82.5,102.1 82,102 81.4,101.9 81,101.8 80.8,101.7 80.5,101.6 80.3,101.9 80,102.2 79.9,102.5 
								79.3,103.4 79.1,103.7 78.7,104.3 78.2,105.1 78.3,105.1 78.3,105.1 78.3,105.1 79.1,105.3 79.9,105.6 80.8,105.8 81.2,106 
								82,106.2 82.7,106.3 82.8,106.4 83.5,106.5 84.2,106.8 85,107 85.7,107.2 86.5,107.4 87.2,107.5 87.5,107.6 88.2,107.8 
								88.7,107.9 89.2,108 90,108.2 90.9,108.3 91.7,108.5 92.1,108.5 92.5,108.6 93.3,108.8 94,108.9 94.8,109 95.6,109.1 
								96.4,109.2 97.2,109.3 98,109.4 98.8,109.5 99.6,109.5 99.6,109.5 100.4,109.6 101.2,109.7 101.8,109.7 102.5,109.7 
								102.8,109.7 103.3,109.8 103.9,109.7 104.4,109.7 105.2,109.7 105.9,109.7 106,109.7 106.9,109.5 107.2,109.4 107.8,108.9 
								108.1,108.4 108.1,108.4 108.1,108.3 108.4,107.7 108.5,107 108.7,106.2 108.8,106 108.9,105.4 108.9,104.8 108.9,104.7 
								109,104.5 109.1,103.7 109.2,102.9 109.3,102.4 109.3,102 109.4,101.4 109.4,100.7 109.5,100 109.5,99.4 109.5,99.3 
								109.6,98.5 							"/>
						</g>
						<g>
							<polygon class="st6" points="109.5,97.8 109.5,97.6 109.5,96.7 109.5,96.2 109.5,95.5 109.4,94.7 109.4,94.1 109.3,93.9 
								109.5,93.8 109.4,93.8 109.5,93.8 108.7,93.8 108.2,93.9 107.5,93.9 106.8,94 106.1,94.1 105.6,94.2 105,94.3 104.3,94.4 
								103.6,94.6 103.3,94.6 102.8,94.7 101.9,95 101.7,95.1 101.7,95.1 101.8,95.7 101.9,96.3 101.9,96.6 102,96.8 102.1,97.8 
								102.1,98.1 102.2,98.5 102.3,99.3 102.4,100.1 102.4,100.4 102.5,101.1 102.5,101.9 102.5,102.5 102.4,102.7 101.8,102.8 
								101.6,102.9 101.5,102.9 101,102.9 100.4,102.9 100.1,103 100,102.9 99.1,102.9 98.5,103 97.7,102.9 97.2,102.9 96.4,102.9 
								95.7,103 94.9,102.9 94.6,102.9 94.2,103 93.5,103 92.9,102.9 92.2,102.9 92.2,102.9 92.2,102.9 91.4,102.9 90.7,102.9 
								90,102.9 89.8,102.9 89.4,102.9 88.9,102.8 88.2,102.8 87.4,102.7 86.6,102.7 85.8,102.7 85.8,102.6 85.2,102.6 84.5,102.5 
								83.8,102.4 83.2,102.3 82.5,102.2 82,102 81.4,101.9 81,101.8 80.8,101.7 80.5,101.6 80.3,101.9 80,102.3 79.9,102.5 
								79.3,103.4 79.1,103.7 78.7,104.3 78.3,105.1 78.2,105.1 78.3,105.1 78.3,105.1 79.1,105.3 80,105.5 80.8,105.8 81.2,106 
								82,106.2 82.7,106.3 82.8,106.4 83.5,106.6 84.2,106.8 85,107 85.7,107.1 86.5,107.3 87.2,107.5 87.5,107.6 88.2,107.7 
								88.7,107.9 89.2,108 90,108.2 90.8,108.3 91.7,108.5 92.1,108.5 92.5,108.7 93.3,108.8 94,108.9 94.8,109 95.6,109.1 
								96.4,109.2 97.2,109.3 98,109.4 98.8,109.5 99.6,109.5 99.6,109.5 100.4,109.6 101.2,109.7 101.8,109.7 102.5,109.7 
								102.8,109.7 103.3,109.7 103.9,109.7 104.4,109.8 105.2,109.7 105.9,109.7 106,109.6 106.9,109.5 107.2,109.4 107.8,108.9 
								108.1,108.4 108.1,108.4 108.1,108.3 108.4,107.7 108.5,107 108.7,106.2 108.7,106 108.8,105.4 109,104.8 109,104.7 
								109,104.5 109.1,103.7 109.2,102.9 109.3,102.4 109.3,102 109.3,101.4 109.4,100.7 109.5,100 109.5,99.4 109.5,99.3 
								109.6,98.5 							"/>
						</g>
						<g>
							<polygon class="st6" points="109.5,97.8 109.5,97.6 109.5,96.7 109.5,96.2 109.5,95.5 109.5,94.7 109.3,94.1 109.4,93.9 
								109.4,93.8 109.4,93.8 109.5,93.8 108.7,93.8 108.2,93.8 107.5,93.9 106.8,94 106.1,94.1 105.6,94.2 105,94.3 104.3,94.4 
								103.6,94.6 103.3,94.7 102.9,94.8 101.9,95 101.7,95.1 101.7,95.1 101.8,95.7 101.9,96.3 101.9,96.6 102,96.8 102.1,97.8 
								102.1,98.1 102.2,98.5 102.3,99.3 102.4,100.1 102.4,100.4 102.5,101.1 102.6,101.9 102.5,102.5 102.4,102.7 101.8,102.8 
								101.6,102.9 101.5,102.9 101,102.9 100.4,103 100.1,103 100,102.9 99.1,102.9 98.5,103 97.7,103 97.2,102.9 96.4,103 
								95.7,103 94.9,102.9 94.6,102.9 94.2,102.9 93.5,102.9 92.9,102.9 92.2,102.9 92.2,102.9 92.2,102.9 91.4,102.9 90.7,102.9 
								90,102.9 89.8,102.9 89.4,102.9 88.9,102.8 88.2,102.8 87.4,102.7 86.6,102.7 85.8,102.6 85.8,102.6 85.2,102.6 84.5,102.5 
								83.8,102.4 83.2,102.3 82.5,102.1 82,102 81.4,101.9 81,101.7 80.8,101.7 80.5,101.6 80.3,101.9 80,102.2 79.8,102.5 
								79.3,103.4 79.1,103.7 78.7,104.3 78.2,105.1 78.3,105.1 78.2,105.1 78.3,105.1 79.1,105.3 79.9,105.6 80.8,105.8 81.2,106 
								82,106.2 82.7,106.4 82.8,106.3 83.5,106.6 84.2,106.8 85,107 85.7,107.2 86.5,107.3 87.2,107.6 87.5,107.6 88.2,107.7 
								88.7,107.9 89.2,108 90,108.2 90.9,108.3 91.7,108.5 92.1,108.6 92.5,108.6 93.2,108.8 94,108.9 94.8,109 95.6,109.1 
								96.4,109.2 97.2,109.3 98,109.4 98.8,109.5 99.6,109.5 99.6,109.5 100.4,109.6 101.2,109.6 101.8,109.6 102.5,109.7 
								102.8,109.7 103.3,109.7 103.9,109.8 104.4,109.8 105.2,109.8 105.9,109.7 106,109.6 106.9,109.5 107.2,109.4 107.8,109 
								108.1,108.4 108.1,108.4 108.1,108.3 108.4,107.7 108.5,107 108.7,106.2 108.8,106 108.9,105.4 109,104.8 109,104.7 
								109,104.5 109.1,103.7 109.2,102.9 109.3,102.4 109.3,102 109.4,101.4 109.4,100.7 109.5,100 109.5,99.4 109.5,99.3 
								109.6,98.6 							"/>
						</g>
					</g>
				</g>
				<g>
					<path class="st7" d="M83.4,103.7c-0.1,1.1-0.9,2.2-1.9,2.7c0.2,0.6,0.9,0.8,1.5,0.5c0.5-0.2,0.9-0.7,1.1-1.3
						c0.2-0.5,0.4-1,0.6-1.6c0.1-0.4,0.1-0.8,0.1-1.1c-0.1-0.5-0.7-1.3-1.3-0.9C83.1,102.3,83.5,103.2,83.4,103.7z"/>
					<polygon class="st6" points="83.4,103.7 83.3,104.3 83,104.9 82.6,105.5 82.1,106 81.6,106.3 82.2,106.9 83,106.9 83.7,106.3 
						84.2,105.6 84.5,104.8 84.7,104 84.8,103.5 84.8,102.9 84.4,102.1 83.5,102 83.3,102.8 					"/>
				</g>
				<ellipse transform="matrix(0.298 -0.9546 0.9546 0.298 -43.4486 153.91)" class="st8" cx="82.9" cy="106.5" rx="1" ry="1.2"/>
			</g>
			<polyline class="st6" points="74.7,58.3 74.9,57.6 74.5,56.9 73.9,56.5 73.1,56.2 72.4,55.9 71.9,55.4 71.8,54.6 72.2,53.9 
				73,53.7 73.7,53.9 73.1,54.5 72.3,54.7 71.5,54.5 70.9,54.2 70.2,53.9 69.6,53.5 69.4,52.9 69.9,52.3 70.6,52 71.5,52 70.8,52.4 
				70.1,52.7 69.4,52.8 68.6,52.8 68,52.5 67.5,51.9 67.4,51.2 67.7,50.5 68.4,50.2 67.8,50.6 67,50.6 66.4,50.2 66,49.6 66,48.8 
				66.3,48.1 66.8,47.6 67.5,47.2 68.2,47 69.2,47.1 69.3,47.8 68.9,48.3 68.2,48.2 67.7,47.8 67.5,47.1 67.5,46.4 67.8,45.7 
				68.2,45.1 68.7,44.5 69.3,44.1 70,43.9 70.8,43.8 71.5,43.9 72.2,44.3 72.8,44.7 73.3,45.3 73.7,45.9 73.8,46.7 73.8,47.4 
				73.6,48.1 73.3,48.8 72.8,49.4 72.2,49.8 71.5,50.1 70.7,50.2 70,50 69.4,49.5 69.2,48.6 69.6,47.8 70.3,47.2 71.2,47 72,47.1 
				72.8,47.3 73.4,47.7 73.9,48.3 74.3,49 74.4,49.8 74.2,50.5 73.9,51.2 73.4,51.8 72.7,52.1 71.8,52.1 71.2,51.6 71.3,50.9 
				71.8,50.4 72.5,50.1 73.2,50 74.1,50 74.9,50.2 75.5,50.7 75.7,51.5 75.4,52.1 74.8,52.4 74.2,52.6 73.4,52.5 72.6,52.3 72,51.8 
				71.5,51.2 71.4,50.4 71.5,49.6 72,49.1 72.5,48.7 73.1,48.5 73.8,48.5 74.5,48.5 75.1,48.6 75.9,48.7 76.6,49 77.1,49.6 
				77.1,50.3 76.8,50.8 76.2,51.2 75.6,51.4 74.8,51.4 74.1,51.1 73.4,50.6 73,49.9 72.8,49.1 72.9,48.3 73.2,47.5 73.7,46.9 
				74.4,46.5 75.2,46.4 76,46.5 76.8,46.8 76.6,47.5 76.3,48.1 75.9,48.7 75.3,49.2 74.7,49.5 74.1,49.8 73.4,49.9 72.6,49.8 
				72,49.6 71.3,49.3 70.8,48.9 70.3,48.4 69.9,47.8 69.7,47.1 69.7,46.4 70,45.7 70.4,45.2 71.1,44.9 71.8,44.9 72.4,45.3 			"/>
			<g>
				<path class="st5" d="M102.2,98.9c2.7-1.5,7.4-0.9,10.4-0.2c-0.6-2.9-1.6-4.4-2.4-7.5c-0.5-1.8-1.7-4.4-3.2-5.8
					c-1.4-1.4-5.8-2.6-8.4-2.9c0,0-14.9,0.5-14.9,0.5c-1.5,0.1-3.1,0.9-4.3,1.7c-1.4,1-2.3,2-3.1,3.5c-2,3.5-2.9,5.4-4.4,9.1
					c1.9,0.7,3.9,1.3,5.8,2"/>
				<polyline class="st6" points="102.2,98.9 102.8,98.6 103.6,98.4 104.3,98.2 105.1,98.1 105.8,98.1 106.6,98 107.3,98 
					108.1,98.1 108.8,98.1 109.6,98.2 110.4,98.3 111.1,98.5 111.9,98.6 112.6,98.7 112.4,98 112.2,97.2 112,96.4 111.7,95.7 
					111.4,94.9 111.2,94.2 110.8,93.5 110.6,92.7 110.3,92 110.2,91.2 109.9,90.5 109.7,89.8 109.4,89.1 109.1,88.4 108.7,87.8 
					108.3,87.1 107.9,86.5 107.5,85.9 106.9,85.4 106.4,84.9 105.7,84.5 105,84.2 104.4,83.9 103.7,83.6 103,83.4 102.2,83.2 
					101.5,83 100.8,82.9 100.1,82.7 99.3,82.6 98.6,82.5 97.8,82.5 97,82.6 96.2,82.5 95.5,82.6 94.7,82.6 93.9,82.6 93.1,82.6 
					92.3,82.6 91.6,82.7 90.8,82.8 90,82.8 89.2,82.8 88.4,82.8 87.6,82.8 86.8,82.9 86.1,82.9 85.3,82.9 84.5,82.9 83.7,83 
					82.9,83 82.2,83.3 81.5,83.6 80.8,83.9 80.1,84.3 79.4,84.7 78.8,85.1 78.2,85.6 77.6,86.2 77.1,86.8 76.7,87.5 76.3,88.2 
					75.9,88.9 75.5,89.5 75.1,90.2 74.8,90.9 74.4,91.6 74.1,92.3 73.7,93 73.4,93.7 73.1,94.4 72.8,95.1 72.5,95.8 72.2,96.5 
					71.9,97.3 72.6,97.5 73.4,97.7 74.1,98 74.8,98.2 75.6,98.5 76.3,98.7 77,99 77.7,99.3 				"/>
			</g>
			<g>
				<g>
					<g>
						<path class="st1" d="M86,82.8c-0.2,0.1-0.3,0.2-0.3,0.5c0,1.7,1.9,2.8,3.2,3.4c1.7,0.9,4.2,0.6,6-0.1c1.9-0.7,3.5-2,4.5-3.7
							c-2-0.4-4.1-0.8-6.1-1.2c-1.6-0.3-3.5,0-5.1,0.5c-0.5,0.1-1.1,0.3-1.6,0.5C86.3,82.7,86.1,82.7,86,82.8z"/>
						<polygon class="st6" points="86,82.8 85.7,83.3 85.8,84.1 86.2,84.8 86.8,85.4 87.5,85.9 88.2,86.3 88.9,86.7 89.6,87 
							90.4,87.2 91.1,87.2 91.9,87.2 92.7,87.2 93.4,87 94.1,86.8 94.9,86.6 95.6,86.3 96.2,86 96.8,85.5 97.4,85.1 98,84.6 
							98.5,84.1 99,83.5 99.4,82.9 98.6,82.7 97.9,82.6 97.1,82.4 96.3,82.3 95.6,82.1 94.8,82 94,81.8 93.3,81.7 92.5,81.6 
							91.8,81.6 91.1,81.6 90.3,81.7 89.6,81.8 88.9,82 88.2,82.2 87.3,82.4 86.6,82.6 						"/>
					</g>
					<g>
						<g>
							<path class="st7" d="M96.4,77.3c-0.4,0.6-0.5,1.3-0.3,1.9c0.2,0.6,0.8,1.2,1.5,1.1c-0.9,0.1-1.9-0.3-2.6-0.9
								s-1.2-1.5-1.3-2.5c0.6-0.3,3.3-1.5,3.7-0.9C97.2,76.6,96.7,76.9,96.4,77.3z"/>
							<polygon class="st6" points="96.4,77.3 96.1,77.9 96,78.6 96.1,79.3 96.4,79.9 97,80.3 97.6,80.4 96.9,80.4 96.2,80.2 
								95.6,79.9 95,79.5 94.5,79 94.1,78.4 93.9,77.8 93.8,77.1 94.4,76.8 95,76.5 95.6,76.3 96.2,76.1 96.9,76 97.5,76.2 
								96.9,76.7 							"/>
						</g>
						<g>
							<g>
								<path class="st7" d="M93.5,49.2c0.9-0.1,1.8,0,2.6,0.2c1.6,0.4,3.1,1.4,4.3,2.6c1.9,1.8,3.3,3.9,4.4,6.3
									c1.2,2.6,1.8,5.5,1.5,8.3c-0.3,2.6-1.5,5.1-3.3,7s-4.2,3.2-6.7,3.6c0.3-0.1,0.5-2.7,0.5-3c0.1-1.1,0-2.1-0.1-3.2
									c-0.2-1.1-0.6-1.9-1.1-2.9c-0.5-1-0.9-2.1-1.3-3.2c-0.6-1.7-1.2-3.4-1.7-5.1c-0.7-2.6-1.3-5.3-1.4-8.1c0-0.5-0.2-1.2,0-1.7
									c0.2-0.4,0.9-0.6,1.3-0.7C92.9,49.3,93.2,49.3,93.5,49.2z"/>
								<polygon class="st6" points="93.5,49.2 94.2,49.2 94.8,49.2 95.5,49.3 96.1,49.4 96.8,49.7 97.5,49.9 98.2,50.3 98.8,50.7 
									99.4,51.1 99.9,51.5 100.5,52 101,52.5 101.5,53 101.9,53.5 102.3,54.1 102.8,54.6 103.2,55.2 103.5,55.8 103.9,56.4 
									104.2,57 104.6,57.6 104.9,58.2 105.1,58.9 105.4,59.6 105.6,60.2 105.8,60.9 106,61.6 106.1,62.3 106.3,63 106.4,63.7 
									106.4,64.4 106.4,65.1 106.3,65.9 106.3,66.6 106.2,67.3 106.1,68 105.8,68.6 105.7,69.3 105.4,70 105.1,70.6 104.7,71.3 
									104.3,71.8 103.9,72.4 103.5,73 103,73.5 102.5,74 102,74.5 101.4,74.9 100.9,75.3 100.3,75.7 99.7,76.1 99,76.4 98.3,76.6 
									97.7,76.8 97,77 96.3,77.2 96.5,76.5 96.7,75.7 96.8,74.9 96.8,74.2 96.9,73.4 96.8,72.6 96.8,71.8 96.7,71 96.5,70.2 
									96.3,69.5 95.9,68.8 95.6,68.1 95.3,67.5 95.1,66.8 94.8,66.2 94.6,65.6 94.3,64.9 94,64.2 93.8,63.5 93.5,62.8 93.3,62.1 
									93.1,61.3 92.9,60.6 92.7,59.9 92.5,59.1 92.3,58.4 92.1,57.7 91.9,57 91.8,56.2 91.6,55.5 91.5,54.8 91.4,54 91.4,53.3 
									91.3,52.5 91.3,51.8 91.2,51 91.3,50.1 91.9,49.7 92.6,49.4 								"/>
							</g>
							<g>
								<path class="st7" d="M81.1,51.7c-0.6,0.5-1.2,1.1-1.7,1.6c-1.5,1.6-2.5,3.6-3.2,5.6c-1.1,2.9-1.7,6-1,9.1
									c0.9,4.3,4.4,7.8,8.4,9.5c-0.3-0.1-0.4-1.7-0.4-2c0-0.7,0.1-1.4,0.2-2c0.2-1.4,0.6-2.7,1-4c1-2.8,2.5-5.3,3.8-7.9
									c0.5-1,1.1-2,1.6-3.1c0.3-0.5,0.5-1.1,0.7-1.6c0.1-0.4,0.2-0.7,0.5-1c0.7-0.8,1.4-1.6,2.3-2.2c0.2-0.2,2.4-1.8,2.5-1.7
									c-1.2-2-3.6-3.2-5.8-3.4c-1.6-0.1-3.2,0.3-4.7,0.9c-1.2,0.5-2.3,1.1-3.4,1.8C81.6,51.4,81.3,51.5,81.1,51.7z"/>
								<polygon class="st6" points="81.1,51.7 80.5,52.2 80,52.8 79.4,53.3 79,53.9 78.5,54.4 78.1,55 77.7,55.7 77.4,56.3 
									77.1,56.9 76.8,57.6 76.4,58.3 76.2,58.9 75.9,59.6 75.8,60.3 75.6,61 75.4,61.7 75.2,62.4 75.1,63 75,63.8 75,64.5 
									74.9,65.2 74.9,65.9 75,66.6 75.1,67.3 75.2,68 75.4,68.7 75.6,69.4 75.9,70.1 76.2,70.7 76.5,71.4 76.9,72 77.3,72.6 
									77.8,73.2 78.3,73.7 78.8,74.2 79.3,74.7 79.9,75.2 80.4,75.7 81,76.1 81.6,76.5 82.3,76.8 82.9,77.2 83.6,77.5 83.3,76.9 
									83.3,76.2 83.2,75.5 83.2,74.8 83.3,74.2 83.4,73.5 83.5,72.8 83.6,72.1 83.8,71.5 84,70.8 84.2,70.2 84.4,69.5 84.7,68.8 
									84.9,68.1 85.2,67.5 85.6,66.8 85.9,66.1 86.2,65.5 86.6,64.8 86.9,64.2 87.2,63.5 87.6,62.9 87.9,62.2 88.3,61.6 88.6,61 
									88.9,60.4 89.2,59.7 89.5,59.1 89.8,58.5 90.2,57.7 90.6,56.9 90.8,56.4 91,55.9 91.5,55.3 92.1,54.7 92.7,54.2 93.3,53.6 
									93.9,53.2 94.5,52.8 95.1,52.3 95.7,51.9 95.4,51.3 94.9,50.8 94.4,50.3 93.8,49.9 93.2,49.6 92.6,49.2 92,49 91.3,48.8 
									90.6,48.6 89.9,48.5 89.2,48.5 88.5,48.6 87.8,48.7 87.1,48.8 86.5,48.9 85.8,49.2 85.2,49.4 84.5,49.7 83.8,50.1 
									83.1,50.5 82.4,50.8 81.8,51.2 								"/>
							</g>
							<g>
								<path class="st1" d="M94.7,82.9c-0.2-1.4-0.2-2.8,0-4.2c0.1-0.3,0.1-0.6,0.3-0.8c0.2-0.2,0.4-0.4,0.7-0.6
									c1.4-0.9,2.5-2.2,3.2-3.7c0.3-0.7,0.6-1.5,0.8-2.3c0.1-0.3,0.1-0.9,0.4-1c0.2-0.1,0.4-0.1,0.6-0.2c0.2-0.1,0.4-0.2,0.5-0.4
									c1.2-1,2-2.6,2-4.2c0-0.7-0.1-1.4-0.5-2c-0.4-0.6-1-1.1-1.7-1.2c-0.9-0.1-1.3,0.4-1.8,1c-0.1-0.7,0-1.5-0.1-2.2
									c-0.1-0.8-0.4-1.5-0.7-2.2c-0.7-1.4-1.7-2.6-3.1-3.4c-2.7-1.6-7.2-3-10.1-1.4l-1.1,0.6c-1,0-1.9,1.1-2.6,1.7
									c-0.8,0.6-1.1,1.8-1.6,2.6c-0.6,0.9-1.2,1.9-1.6,3c-0.2,0.5-0.3,1-0.4,1.5c-0.1,0.4,0.1,1.4-0.4,1.5c-0.2,0.1-0.7-0.1-1-0.1
									c-0.3,0.1-0.7,0.3-0.9,0.5c-0.4,0.5-0.5,1.3-0.4,1.9c0.1,0.7,0.4,1.3,0.7,1.9c0.2,0.5,0.5,1,0.9,1.4
									c0.4,0.4,0.9,0.7,1.4,0.7c0.1,0,0.3,1.7,0.4,1.9c0.4,1.3,1.2,2.5,2.1,3.5c0.7,0.8,1.6,1.4,2.6,1.8c0.5,0.2,0.9,0.4,1.4,0.5
									c0.5,0.1,1,0.1,1.5,0.3c0.3,0.1,0.7,0.3,1,0.4c0.2,0.1,0.4,0.2,0.6,0.3c0.4,0.3,0.6,0.9,0.7,1.4c0.1,0.7,0.1,1.4,0,2.1"/>
								<polyline class="st6" points="94.8,82.9 94.6,82.2 94.6,81.5 94.6,80.8 94.6,80.1 94.7,79.4 94.8,78.7 95.1,77.9 95.8,77.3 
									96.3,76.9 96.9,76.5 97.4,75.9 97.8,75.4 98.2,74.8 98.6,74.2 99,73.6 99.3,72.8 99.5,72.1 99.8,71.3 99.9,70.8 100.2,70.3 
									100.9,70.1 101.4,69.7 101.9,69.2 102.4,68.5 102.8,67.9 103.1,67.1 103.3,66.3 103.4,65.5 103.3,64.8 103.2,64.1 
									102.9,63.5 102.4,62.9 101.9,62.5 101.2,62.3 100.5,62.4 99.8,62.8 99.4,63.4 99.3,62.6 99.3,61.8 99.2,61.1 99.1,60.3 
									98.8,59.6 98.6,58.9 98.2,58.2 97.8,57.5 97.3,56.9 96.8,56.4 96.1,55.9 95.5,55.5 94.8,55.1 94.1,54.8 93.5,54.5 
									92.8,54.2 92,54 91.3,53.8 90.6,53.6 89.8,53.5 89.1,53.4 88.3,53.4 87.6,53.4 86.8,53.5 86.1,53.8 85.4,54.1 84.9,54.4 
									84.3,54.6 83.5,54.8 82.9,55.3 82.3,55.8 81.7,56.4 81.1,56.9 80.8,57.6 80.4,58.3 80.1,59 79.7,59.7 79.3,60.4 78.9,61.2 
									78.6,61.9 78.3,62.7 78.1,63.4 78.1,64.3 77.8,65 76.8,64.9 75.9,65.4 75.6,66 75.5,66.7 75.5,67.4 75.6,68 75.9,68.7 
									76.2,69.3 76.5,70 77,70.6 77.7,71.1 78.5,71.3 78.6,71.9 78.7,72.5 78.8,73.2 79.1,73.8 79.3,74.4 79.7,75 80.1,75.6 
									80.5,76.1 80.9,76.7 81.5,77.2 82.2,77.7 82.8,78.1 83.5,78.5 84.2,78.8 85,79 85.7,79.1 86.4,79.3 87.4,79.8 88,80.1 
									88.5,80.7 88.7,81.5 88.8,82.2 88.8,82.9 88.8,83.6 								"/>
							</g>
							<g>
								<path class="st7" d="M81.5,63.7c-0.9,0.6-1.6,1.3-2.2,2.3c-0.1,0.3-0.2,0.6-0.3,0.9c-0.5-0.6-0.9-1.3-1.2-2.1
									c-0.3-0.7-0.4-1.5-0.4-2.3c0-0.5,0.1-1,0.2-1.6c0.1-0.4,0.2-0.8,0.3-1.1c0.8-2.3,2.4-4.3,4.2-6c1.3-1.3,2.8-2.4,4.5-3
									c2.1-0.7,4.5-0.6,6.5,0.3s3.8,2.5,4.9,4.4c0.8,1.3,1,2.7,1.3,4.2c0.1,0.7,0,1.3,0,2c0,0.4-0.1,0.8-0.1,1.2
									c0,0.2-0.2,1-0.1,1.1c-1.4-1.2-2.6-2.7-3.7-4.2c-0.5-0.8-1-1.6-1.4-2.5c-0.4-0.8-0.6-1.8-1-2.6c-0.1,0.2-0.2,0.4-0.2,0.6
									c-0.1,0.3-0.2,0.6-0.3,0.8c-0.2,0.5-0.5,1.1-0.8,1.6c-1.6,2.6-4,4.6-6.8,5.6c-0.7,0.3-1.5,0.4-2.2,0.6c0.5-0.5,0.9-1.2,1-2
									c-0.6,0.7-1.4,1.2-2.1,1.7C81.6,63.7,81.6,63.7,81.5,63.7z"/>
								<polygon class="st6" points="81.5,63.7 80.9,64.2 80.3,64.8 79.8,65.4 79.3,66.1 79.1,67 78.6,66.3 78.2,65.6 77.9,64.9 
									77.6,64.2 77.5,63.4 77.5,62.6 77.5,61.8 77.6,61 77.8,60.4 77.9,59.9 78.2,59.2 78.5,58.5 78.9,57.9 79.2,57.2 79.6,56.6 
									80.1,56 80.6,55.5 81.1,54.9 81.6,54.4 82.1,53.9 82.6,53.4 83.2,53 83.7,52.5 84.3,52.2 84.8,51.8 85.4,51.4 86,51.1 
									86.7,50.9 87.4,50.7 88.1,50.5 88.8,50.4 89.6,50.4 90.3,50.4 91.1,50.5 91.8,50.7 92.5,50.9 93.2,51.1 93.8,51.5 
									94.5,51.8 95.1,52.3 95.7,52.7 96.2,53.2 96.8,53.8 97.2,54.3 97.6,55 98.1,55.6 98.4,56.3 98.7,56.9 98.9,57.6 99.1,58.3 
									99.3,59 99.4,59.8 99.5,60.4 99.4,61.1 99.4,61.8 99.3,62.4 99.3,63 99.2,63.5 99.2,64 98.7,63.6 98.2,63.1 97.7,62.6 
									97.2,62.1 96.8,61.5 96.3,61 95.9,60.4 95.5,59.8 95.1,59.2 94.8,58.6 94.5,58 94.1,57.4 93.9,56.7 93.6,56.1 93.4,55.4 
									93.1,54.8 92.9,55.4 92.6,56.2 92.2,57 91.8,57.8 91.4,58.4 90.9,59 90.5,59.6 89.9,60.2 89.4,60.7 88.8,61.2 88.3,61.7 
									87.6,62.1 87,62.4 86.3,62.8 85.6,63.1 84.9,63.4 84.2,63.6 83.5,63.8 82.7,64 83.2,63.4 83.5,62.7 83.7,62 83.3,62.5 
									82.8,62.9 82.2,63.3 81.6,63.7 								"/>
							</g>
							<path class="st9" d="M87.5,70.2c-0.2,0.2-0.1,0.6,0.1,0.8"/>
							<path class="st10" d="M91.9,66.8c-0.1-0.1-0.1-0.1-0.1-0.2c0-0.1-0.1-0.2-0.2-0.1c-0.1,0-0.1,0.1-0.1,0.2
								c0,0.1,0,0.3,0.1,0.4c0,0.1,0.1,0.1,0.1,0.2c0.1,0,0.1,0.1,0.2,0c0.1,0,0.1-0.1,0.1-0.2c0-0.3,0-0.8-0.4-0.9
								c-0.3,0-0.5,0.4-0.5,0.7c0.1,0.4,0.9,0.9,0.9,0.3C92,67,92,66.9,91.9,66.8c0-0.2,0-0.3-0.1-0.3s-0.2,0-0.3,0
								c-0.1,0.1-0.1,0.2,0,0.4c0,0.2,0.1,0.3,0.2,0.4c0.1,0.1,0.2,0.1,0.2,0.1c0.1,0,0.1-0.2,0.1-0.2c0-0.1,0-0.2,0-0.4
								c0-0.1-0.1-0.2-0.2-0.2c-0.1,0-0.3,0.1-0.3,0.2c-0.1,0.1,0,0.3,0,0.4c0.1,0.1,0.2,0.2,0.3,0.2c0-0.1,0-0.2-0.1-0.2"/>
							<path class="st10" d="M84.5,67.8c0-0.1,0-0.2-0.1-0.2s-0.1-0.1-0.2-0.1c-0.1,0-0.1,0.1-0.1,0.2c0,0.1,0,0.2,0,0.2
								c0,0.1,0.1,0.3,0.2,0.3c0.1,0,0.1-0.1,0.2-0.1C84.6,68,84.6,67.9,84.5,67.8c0-0.1,0-0.2,0-0.3c0-0.1-0.1-0.2-0.2-0.2
								c-0.1-0.1-0.3,0-0.4,0.1c-0.1,0.1-0.1,0.3-0.1,0.4c0,0.1,0.1,0.2,0.1,0.3c0.1,0.1,0.2,0.1,0.3,0.1c0.1,0,0.2-0.1,0.2-0.2
								C84.5,68,84.5,67.9,84.5,67.8c0-0.2,0-0.3-0.1-0.4c0-0.1-0.1-0.2-0.2-0.2c-0.1,0-0.3,0.1-0.4,0.2c-0.1,0.2-0.1,0.4-0.1,0.6
								c0.1,0.1,0.2,0.3,0.3,0.3c0.1,0,0.2-0.1,0.2-0.1s0.1-0.2,0.1-0.3c0-0.2,0-0.3,0-0.5c0-0.1-0.1-0.2-0.2-0.2
								c-0.1,0-0.2,0.1-0.2,0.2c-0.1,0.2,0,0.5,0.1,0.7c0,0.1,0.1,0.1,0.2,0.2c0.1,0,0.2,0.1,0.2,0c0.1-0.1,0.1-0.2,0.1-0.3
								c0-0.2,0-0.3-0.1-0.5c-0.1-0.1-0.1-0.2-0.3-0.2c-0.1,0-0.2,0.1-0.3,0.3c0,0.2-0.1,0.3,0,0.5c0,0.1,0,0.2,0.1,0.2
								c0,0.1,0.1,0.1,0.2,0.1c0.1,0,0.2-0.2,0.2-0.3c0-0.2,0-0.5-0.1-0.7c-0.2,0.1-0.4,0.4-0.3,0.6c0,0.1,0.1,0.2,0.2,0.2
								c0.1,0,0.1,0,0.2-0.1s0.1-0.1,0.1-0.2c0-0.1,0.1-0.3,0.1-0.4c0-0.1-0.1-0.3-0.2-0.3c-0.2,0.1-0.3,0.3-0.4,0.5s0,0.4,0.1,0.6
								c0,0.1,0.1,0.1,0.2,0.2c0.1,0,0.2,0,0.2-0.1"/>
							<path class="st9" d="M91.8,63.3c0.4,0.3,0.9,0.5,1.3,0.4"/>
						</g>
						<g>
							<path class="st7" d="M101.6,71c0.7-0.6,1.7-0.7,2.6-0.5c1.2,0.3,2.2,1.2,2.6,2.3c0.3,1.2-0.2,2.5-1.2,3.2
								C103.1,77.4,98.9,73.1,101.6,71z"/>
							<polygon class="st6" points="101.6,71 102.2,70.6 102.9,70.5 103.6,70.4 104.2,70.5 104.9,70.7 105.6,71.1 106.1,71.6 
								106.5,72.1 106.8,72.8 106.9,73.5 106.8,74.2 106.6,74.9 106.1,75.5 105.6,76 104.9,76.2 104.2,76.2 103.5,76.1 102.8,75.8 
								102.2,75.4 101.7,74.8 101.2,74.3 100.9,73.6 100.7,72.9 100.8,72.2 101.1,71.5 							"/>
						</g>
						<g>
							<path class="st7" d="M98.7,64c0.3,0.8,0.2,1.8-0.2,2.5c-0.4,0.8-1.2,1.5-1.3,2.4c0,0.8,0.7,1.6,1.5,1.6
								c-0.3,0-0.6-0.2-0.7-0.6c-0.1-0.3,0-0.7,0.1-1s0.4-0.6,0.6-0.8c1.5-2.1,1.7-5.1,0.5-7.4c-0.1-0.1-0.2-0.2-0.3-0.3
								c-0.1,0-0.2,0.1-0.3,0.2c-0.4,0.3-1.5,1-1,1.6c0.2,0.3,0.5,0.5,0.7,0.7C98.4,63.4,98.5,63.7,98.7,64z"/>
							<polygon class="st6" points="98.6,64 98.8,64.6 98.8,65.3 98.7,65.9 98.4,66.5 98,67.1 97.6,67.7 97.3,68.3 97.1,68.9 
								97.3,69.7 97.9,70.3 98.6,70.6 97.9,70 98,69.1 98.6,68.2 99,67.6 99.3,67 99.6,66.4 99.7,65.7 99.9,65 99.9,64.3 99.9,63.6 
								99.8,62.9 99.7,62.2 99.4,61.5 99.1,60.9 98.8,60.6 98.5,60.8 98,61.2 97.5,61.7 97.5,62.4 98.2,63.1 							"/>
						</g>
					</g>
					<g>
						<path class="st7" d="M101.3,75c0.2,0.9,0.8,1.6,1.5,2.1c-1,0.1-1.9-0.6-2.3-1.5c-0.3-0.6-0.9-3.4,0.1-3.6
							c0.6-0.1,0.7,0.4,0.7,0.9C101.3,73.6,101.1,74.3,101.3,75z"/>
						<polygon class="st11" points="101.3,75 101.5,75.6 101.9,76.2 102.3,76.7 102.8,77.1 102.1,77.1 101.4,76.8 100.9,76.3 
							100.5,75.7 100.3,74.9 100.1,74.2 100.1,73.4 100.1,72.6 100.6,72.1 101.1,72.3 101.3,72.9 101.2,73.6 101.2,74.3 						"/>
					</g>
				</g>
				<path class="st12" d="M88.6,75c0.2-0.4,0.5-0.7,1-0.9c0.4-0.1,0.9,0,1.3,0.2"/>
			</g>
			<g>
				<g>
					<path class="st1" d="M86.5,80.3c-0.2-1.5-0.8-2.9-2-3.7c-0.5-0.3-0.5,0.1-0.9-0.3c-1.3-1-1.5-3-2.8-4.1
						c-0.2-0.1-0.4-0.3-0.6-0.3c-0.2,0-0.5,0.2-0.4,0.4c0-0.3-0.2-0.6-0.5-0.7c-0.3-0.1-0.7,0.1-0.8,0.4c-0.1-0.3-0.3-0.6-0.6-0.6
						c-0.4,0-0.6,0.5-0.6,0.8c0,0.4,0.2,0.6,0.3,1c-0.1-0.2-0.1-0.3-0.3-0.5c-0.1-0.2-0.4-0.2-0.6-0.1c-0.3,0.2-0.2,0.7-0.1,1
						c0.4,1.3,0.8,2.5,1.3,3.7c0.6,1.2,0.7,1.7,1.7,2.6c1,0.9,2.3,1.4,3.6,1.5c0.2,0-0.2,0.6-0.2,0.6c-0.2,0.3-0.4,0.7-0.6,1
						c-0.4,0.7-0.8,1.3-1.2,2c-0.7,1.1-1.4,2.3-2.1,3.4c-0.7,1.1-1.4,2.3-2.1,3.4c-1.3,2.1-3.4,6.6-4.2,9c-0.8,2.5-0.5,3.8-0.3,6.4
						c0.1,0.5,0.3,0.7,0.8,0.9c0.4,0.2,0.7,0.4,1.1,0.2c0.9-0.3,1.7-1.1,2.4-1.9c1.4-1.6,2.5-3,3.6-5.1c1-2,2.4-6.4,3.1-8.5
						c1.1-3.3,2-6.7,3-10.1C86.6,81.9,86.6,81.1,86.5,80.3z"/>
					<polygon class="st6" points="86.5,80.3 86.4,79.5 86.2,78.8 85.9,78.2 85.6,77.5 85.1,77 84.5,76.5 83.6,76.2 83.1,75.7 
						82.7,75.1 82.3,74.5 82,73.8 81.6,73.2 81.3,72.6 80.8,72.1 80.1,71.8 79.7,72.3 79.2,71.6 78.4,72 77.8,71.4 77.2,72.2 
						77.5,73.2 77.3,72.6 76.6,72.6 76.5,73.6 76.7,74.4 77,75.1 77.2,75.9 77.5,76.6 77.8,77.3 78.1,78 78.5,78.7 78.9,79.4 
						79.5,79.9 80.1,80.4 80.8,80.8 81.5,81.1 82.3,81.3 83.1,81.4 82.9,82 82.6,82.5 82.3,83 81.9,83.6 81.4,84.3 81,84.9 
						80.6,85.6 80.2,86.3 79.8,87 79.4,87.7 78.9,88.4 78.5,89 78.1,89.7 77.7,90.4 77.3,91.1 76.8,91.8 76.4,92.4 76,93.1 
						75.7,93.8 75.4,94.5 75,95.1 74.7,95.8 74.3,96.5 74,97.2 73.7,97.9 73.4,98.6 73.1,99.4 72.9,100.1 72.6,100.8 72.3,101.5 
						72.2,102.2 72.1,102.9 72.1,103.6 72.1,104.3 72.1,105.1 72.2,105.8 72.2,106.5 72.3,107.2 72.5,107.8 73.1,108.1 73.6,108.3 
						74.2,108.3 74.9,108 75.5,107.5 76.1,107 76.6,106.4 77.1,105.8 77.7,105.3 78.1,104.6 78.6,104 79,103.4 79.5,102.7 
						79.9,102.1 80.2,101.4 80.5,100.7 80.8,100 81.1,99.3 81.4,98.6 81.6,97.9 81.9,97.1 82.1,96.4 82.4,95.7 82.6,95 82.8,94.3 
						83.1,93.6 83.4,92.8 83.6,92.1 83.9,91.4 84.1,90.7 84.3,90 84.5,89.3 84.7,88.6 84.9,87.8 85.1,87.1 85.3,86.4 85.5,85.7 
						85.7,84.9 86,84.2 86.1,83.5 86.3,82.8 86.5,81.9 86.6,81.1 					"/>
				</g>
				<path class="st13" d="M77.5,73c0.6,1.9,0.9,3,1.9,4.7"/>
				<path class="st13" d="M78.4,71.9c0.4,1.2,0.9,2.5,1.3,3.7c0.3,0.8,0.6,1.3,1.1,2"/>
				<path class="st13" d="M79.6,72.2c0.7,2,1.5,3.4,2.7,5.1"/>
			</g>
			<polyline class="st6" points="85.4,86.8 86,87.3 86.7,87.7 87.4,88.1 88.2,88.4 88.9,88.6 89.7,88.8 90.5,89 91.3,89 92.1,89 
				92.9,89 93.6,88.8 94.4,88.7 95.1,88.5 95.9,88.2 96.6,87.9 97.3,87.6 97.9,87.2 98.6,86.8 99.2,86.3 99.8,85.8 100.3,85.2 
				100.8,84.7 			"/>
		</g>
	</g>
</g>
</svg>
