<?xml version="1.0" encoding="utf-8"?>
<!-- Generator: Adobe Illustrator 27.3.1, SVG Export Plug-In . SVG Version: 6.00 Build 0)  -->
<svg version="1.1" id="編集モード" xmlns="http://www.w3.org/2000/svg" xmlns:xlink="http://www.w3.org/1999/xlink" x="0px"
	 y="0px" viewBox="0 0 187.3 124" style="enable-background:new 0 0 187.3 124;" xml:space="preserve">
<style type="text/css">
	.st0{fill:#BAD773;}
	.st1{fill:#FFFFFF;}
	.st2{fill:#A7DBF6;}
	.st3{fill:#F3B2C1;}
	.st4{clip-path:url(#SVGID_00000071559054981325298800000001800394429544560032_);}
	.st5{fill:#DDE9AA;}
	.st6{fill:#75655D;}
	.st7{fill:none;stroke:#75655D;stroke-width:0.9297;stroke-linecap:round;stroke-linejoin:round;stroke-miterlimit:10;}
</style>
<g>
	<g>
		<ellipse class="st0" cx="152.7" cy="66.2" rx="34.6" ry="28.5"/>
		<g>
			<ellipse class="st0" cx="123.8" cy="79.1" rx="4.4" ry="3.8"/>
			<ellipse class="st0" cx="117.2" cy="83.1" rx="2.1" ry="1.8"/>
		</g>
		<g>
			<g>
				<path class="st1" d="M140.3,52c0,0.2-1.1,2-1.3,2.3c0,0.1-0.1,0.1-0.1,0.2s0,0.1,0,0.2c0,0.1-0.1,0.1-0.1,0.1
					c-0.1,0-0.2-0.1-0.7-0.6c-0.2-0.1-0.2-0.2-0.2-0.3c0-0.1,0-0.1,0.2-0.2c0.4-0.4,1.1-1.7,1.4-2.3c0,0,0-0.1,0.1-0.1
					C139.6,51.3,140.3,51.7,140.3,52z M138.7,49.2c0.1,0,0.5,0.3,0.6,0.4c0.3,0.2,0.6,0.5,0.6,0.6c0,0.1-0.5,0.8-0.7,0.8
					c-0.1,0-0.1,0-0.2-0.1c-0.2-0.2-0.7-0.6-1-0.8c0,0-0.1-0.1-0.1-0.1C137.9,49.9,138.5,49.2,138.7,49.2z M139.1,47.5
					c0.2,0,1.2,0.8,1.2,1c0,0.2-0.5,0.8-0.7,0.8c-0.1,0-0.1-0.1-0.2-0.1c-0.3-0.3-0.6-0.5-1-0.8c0,0-0.1-0.1-0.1-0.1
					C138.4,48.1,138.9,47.5,139.1,47.5z M143.8,53.1c0,0.1,0,0.1,0,0.2c0,0.1,0.1,0.1,0.2,0.1h0.2c0.3,0,0.5,0,0.8,0
					c0.2,0,0.2,0.1,0.2,0.3v0.4c0,0.2,0,0.3-0.2,0.3c-0.3,0-0.6,0-0.9,0h-3c-0.3,0-0.6,0-1,0c-0.2,0-0.2-0.1-0.2-0.3v-0.5
					c0-0.2,0-0.3,0.2-0.3c0.3,0,0.6,0,0.9,0h1.2c0.2,0,0.3,0,0.4-0.2c0.2-0.6,0.5-2.4,0.6-3c0-0.2,0-0.3,0.1-0.3
					c0.1,0,1,0.2,1.1,0.2c0.1,0,0.1,0,0.1,0.1c0,0.1,0,0.1-0.1,0.1c-0.1,0-0.1,0-0.1,0.1C144.2,51.4,144,52.3,143.8,53.1z
					 M141.9,48.3c0-0.2,0-0.4,0-0.6c0,0,0-0.1,0-0.1c0-0.1,0.1-0.1,0.2-0.1c0.3,0,0.7,0,1,0c0.1,0,0.2,0,0.2,0.1c0,0,0,0.1-0.1,0.1
					c-0.1,0.1-0.1,0.2-0.1,0.4v0.4c0,0.2,0.1,0.3,0.3,0.3h0.4c0.3,0,0.6,0,0.9,0c0.2,0,0.2,0.1,0.2,0.3v0.4c0,0.2,0,0.3-0.2,0.3
					c-0.3,0-0.6,0-1,0h-2.4c-0.3,0-0.6,0-0.9,0c-0.2,0-0.2-0.1-0.2-0.3v-0.4c0-0.2,0-0.3,0.2-0.3c0.3,0,0.6,0,0.9,0h0.3
					c0.2,0,0.3-0.1,0.3-0.3V48.3z M141.6,50.1c0.1,0.4,0.3,1,0.4,1.3c0.1,0.3,0.3,1.2,0.3,1.5c0,0.1,0,0.2-0.5,0.3
					c-0.1,0-0.3,0.1-0.4,0.1c-0.1,0-0.2-0.1-0.2-0.2c-0.1-0.6-0.4-2.1-0.6-2.7c0,0,0-0.1,0-0.1c0-0.1,0.2-0.2,0.4-0.2
					c0.1,0,0.5-0.1,0.6-0.1C141.6,50,141.6,50,141.6,50.1z"/>
				<path class="st1" d="M147.9,49.1c0.1,0,0.2,0,0.2,0.1c0,0,0,0.1-0.1,0.1c-0.1,0.1-0.1,0.2-0.2,0.4c-0.1,0.4-0.1,0.8-0.1,1.1
					c0,0.5,0.1,1.1,0.3,1.5c0.1,0.1,0.2,0.4,0.4,0.4c0.2,0,0.4-0.3,0.4-0.5c0.1-0.1,0.1-0.2,0.2-0.2c0.2,0,0.8,0.5,0.8,0.6
					c0,0.2-0.4,0.6-0.5,0.8c-0.3,0.3-0.6,0.6-1,0.6c-0.5,0-1-0.4-1.3-0.8c-0.6-0.8-0.6-2-0.6-3c0-0.2,0-1.1,0-1.2
					c0-0.1,0-0.1,0.1-0.1C146.8,48.9,147.7,49,147.9,49.1z M150.8,48.8c0.2,0,0.8,0.5,1.2,1.1c0.3,0.5,0.5,1.1,0.6,1.6
					c0,0.1,0,0.3,0,0.4c0,0.2,0,0.2-0.2,0.3c-0.2,0.1-0.5,0.1-0.8,0.1c-0.3,0-0.3-0.1-0.3-0.4c-0.1-1-0.4-1.7-1.2-2.3
					c0,0-0.1-0.1-0.1-0.1C150.1,49.4,150.6,48.8,150.8,48.8z"/>
				<path class="st1" d="M157.1,47.7c0.2,0,0.4,0.1,0.4,0.2c0,0,0,0.1-0.1,0.1c-0.1,0.1-0.1,0.2-0.2,0.4c0,0.1,0,0.2-0.1,0.3
					c0,0,0,0.1,0,0.1c0,0.1,0.1,0.1,0.2,0.1c0.1,0,0.5-0.2,0.6-0.2c0.1,0,0.1-0.1,0.2-0.1c0.2,0,0.2,0.8,0.2,1c0,0.1,0,0.2-0.2,0.2
					c-0.3,0.1-0.8,0.2-1.1,0.3c-0.3,0.1-0.4,0.1-0.5,0.4c-0.3,1-1,2.7-1.5,3.5c-0.1,0.1-0.1,0.2-0.2,0.2s-1-0.4-1-0.6
					c0-0.1,0.1-0.2,0.2-0.3c0.6-0.8,1-1.7,1.3-2.6c0,0,0.1-0.1,0.1-0.2c0-0.1-0.1-0.1-0.2-0.1c-0.2,0-0.4,0-0.5,0
					c-0.2,0-0.3,0-0.3-0.2c0-0.2-0.1-0.7-0.1-0.8c0-0.1,0-0.2,0.1-0.2c0.1,0,0.4,0,0.9,0c0.4,0,0.5,0,0.6-0.2
					c0.1-0.3,0.2-1.2,0.2-1.5c0,0,0-0.1,0.1-0.1C156.2,47.5,157,47.7,157.1,47.7z M156.9,52.7c0.3,0.4,0.9,0.5,1.4,0.5
					c0.4,0,0.8,0,1.2-0.2c0,0,0.1,0,0.1,0c0.1,0,0.1,0.2,0.1,0.4v0.2c0,0.4,0,0.5-0.1,0.6c-0.2,0.1-1.1,0.1-1.4,0.1
					c-0.6,0-1.3-0.1-1.8-0.4c-0.1-0.1-0.4-0.3-0.4-0.5c0-0.1,0.3-0.5,0.4-0.6c0.1-0.1,0.2-0.2,0.3-0.2
					C156.8,52.6,156.9,52.6,156.9,52.7z M157.7,50.3c0.7,0,1.2,0.1,1.8,0.2c0.1,0,0.2,0.1,0.2,0.2c0,0.2-0.1,0.7-0.2,0.9
					c0,0.1-0.1,0.1-0.2,0.1c-0.1,0-0.1,0-0.2-0.1c-0.5-0.2-0.9-0.2-1.4-0.2h-0.3c-0.2,0-0.2,0-0.2-0.2
					C157.2,50.3,157.4,50.3,157.7,50.3z"/>
				<path class="st1" d="M163.4,48.5c0.1,0,0.2,0.1,0.2,0.1c0,0,0,0.1-0.1,0.1c-0.2,0.1-0.3,0.3-0.4,0.5c-0.1,0.3-0.3,0.8-0.3,1.2
					c0,0,0,0.1,0.1,0.1c0,0,0.1,0,0.1-0.2c0-0.1,0.1-0.2,0.2-0.2c0.1,0,0.4,0.2,0.4,0.4c0,0,0,0.1,0,0.1c-0.2,0.4-0.5,1.2-0.5,1.6
					v0.2c0,0.2-0.2,0.3-0.3,0.3c-0.1,0.1-0.3,0.1-0.5,0.1c-0.2,0-0.3-0.2-0.4-0.4c-0.2-0.6-0.3-1.3-0.3-1.9c0-0.5,0.1-1.2,0.2-1.8
					c0-0.2,0.1-0.4,0.2-0.6c0-0.1,0-0.2,0.1-0.2C162.4,48,163.1,48.3,163.4,48.5z M165.3,47.9c0.2,0,0.4-0.1,0.6-0.1
					c0.2,0,0.2,0.1,0.2,0.3c0.2,0.7,0.3,1.7,0.3,2.4c0,1.4-0.2,2.6-1.2,3.6c-0.2,0.2-0.5,0.5-0.7,0.5c-0.1,0-0.4-0.2-0.5-0.3
					c-0.2-0.2-0.4-0.3-0.4-0.5c0,0,0-0.1,0.1-0.2c0.4-0.3,0.8-0.7,1-1.2c0.3-0.6,0.3-1.2,0.3-1.8c0-0.8-0.1-1.6-0.3-2.4
					c0,0,0-0.1,0-0.1C164.8,48,164.9,48,165.3,47.9z"/>
				<path class="st1" d="M133.3,62.1c-0.1,0-0.1,0-0.1,0c0,0,0,0.1,0.1,0.1c0.3,0.2,0.5,0.3,0.5,0.3s-0.1,0.1-0.2,0.1
					c-0.1,0-0.2,0.1-0.2,0.2c-0.3,0.4-0.7,0.9-1.2,1.2c-0.1,0.1-0.2,0.2-0.4,0.2c-0.2,0-0.8-0.6-0.8-0.7c0-0.1,0.1-0.1,0.1-0.2
					c0.4-0.2,0.7-0.5,0.9-0.8c0,0,0,0,0,0c0.1-0.1,0.2-0.3,0.2-0.3c0-0.1-0.1-0.1-0.1-0.1c-0.3,0-0.6,0-1,0c-0.2,0-0.2-0.1-0.2-0.3
					v-0.4c0-0.2,0-0.3,0.2-0.3c0.1,0,0.3,0,0.4,0c0.1,0,0.2-0.1,0.2-0.3v-0.9c0-0.6,0-0.8,0-0.9c0-0.1,0.1-0.1,0.2-0.1
					c0.1,0,0.8,0.1,0.9,0.1c0.1,0,0.2,0,0.2,0.1c0,0,0,0.1-0.1,0.1c-0.1,0.1-0.1,0.2-0.1,0.5v1.2c0,0.1,0.1,0.2,0.2,0.2h0.5
					c0.1,0,0.2-0.1,0.2-0.2v-1.6c0-0.2,0-0.4,0-0.6c0,0,0-0.1,0-0.1c0-0.1,0.1-0.1,0.2-0.1c0.1,0,0.2,0,0.2,0c0.3,0,0.6,0,0.9,0.1
					c0.1,0,0.2,0,0.2,0.1c0,0.1,0,0.1-0.1,0.1c-0.1,0.1-0.1,0.1-0.1,0.2c0,0.2,0.1,0.2,0.3,0.2h0.8c0.3,0,0.6,0,0.9,0
					c0.2,0,0.2,0.1,0.2,0.3V60c0,0.3,0,0.3-0.3,0.3c-0.2,0-0.4,0-0.9,0h-0.9c-0.1,0-0.2,0.1-0.2,0.2v0.3c0,0.1,0.1,0.2,0.2,0.2h1.5
					c0.4,0,0.7,0,1.1,0c0.2,0,0.2,0.1,0.2,0.3v0.4c0,0.2,0,0.3-0.2,0.3c-0.3,0-0.6,0-0.9,0c0,0-0.1,0-0.1,0.1c0,0,0.1,0.1,0.2,0.2
					c0,0,0,0,0.1,0c0.2,0.2,0.6,0.5,0.8,0.7c0,0,0,0,0,0c0.1,0.1,0.2,0.2,0.2,0.3c0,0.2-0.5,0.7-0.7,0.7c-0.1,0-0.2-0.1-0.3-0.2
					c-0.4-0.4-0.8-0.8-1.3-1.2c0,0-0.1-0.1-0.1-0.2c0-0.1,0.2-0.3,0.3-0.3c0,0,0.1,0,0.1-0.1c0-0.1,0-0.1-0.1-0.1h-0.5
					c0,0-0.1,0-0.1,0c0,0,0,0,0,0v0c0,0-0.1,0.1-0.1,0.1c-0.1,0.1-0.1,0.1-0.1,0.3v0.3c0,0.2,0,0.4,0,0.6c0,0.1,0,0.1,0,0.2v0
					c0,0,0,0.1,0.1,0.1c0.1,0,0.6-0.4,0.6-0.5c0,0,0.1-0.1,0.1-0.1c0.1,0,0.4,0.2,0.6,0.4c0,0,0.1,0,0.1,0.1
					c0.2,0.2,0.4,0.2,0.4,0.3c0,0.1-0.1,0.1-0.1,0.1c0,0-0.1,0-0.1,0c0,0,0,0-0.1,0c0,0-0.1,0.1-0.2,0.1c-0.5,0.5-1.3,0.9-2,1.1
					c-0.8,0.3-1.6,0.4-2.4,0.4c-0.1,0-0.3,0-0.4,0c-0.2,0-0.3-0.1-0.4-0.4c0-0.2-0.1-0.4-0.1-0.6c0-0.1,0.1-0.1,0.2-0.1
					c0.2,0,0.4,0,0.6,0c0.6,0,1,0,1.5-0.1c0,0,0.1,0,0.1-0.1s0-0.1-0.1-0.1c-0.1,0-0.2,0-0.3-0.1c-0.1-0.2-0.2-0.5-0.2-0.7
					c0-0.2,0-0.3,0.2-0.3c0,0,0.2,0,0.3,0c0.3,0,0.3,0,0.3-0.4v-0.3c0-0.2,0-0.4-0.2-0.4H133.3z"/>
				<path class="st1" d="M142.2,59.1c0.1,0.3,0.1,0.3,0.2,0.3c0.1,0,0.3-0.1,0.4-0.2c0.1-0.1,0.2-0.1,0.3-0.1c0.2,0,0.5,0.7,0.5,0.9
					c0,0.1-0.1,0.2-0.2,0.2c-0.2,0.1-0.3,0.2-0.5,0.2c-0.1,0-0.2,0.1-0.2,0.1c0,0,0,0.2,0.1,0.2c0.2,0,0.7-0.3,0.8-0.4
					c0.1,0,0.2-0.1,0.2-0.1c0.1,0,0.2,0.2,0.3,0.3c0.1,0.2,0.3,0.4,0.3,0.6c0,0.1-0.2,0.2-0.4,0.3c-0.2,0.1-0.3,0.2-0.5,0.2
					c-0.1,0-0.2,0.1-0.2,0.2c0,0.1,0,0.1,0.1,0.2c0.2,0.3,0.4,0.7,0.6,1c0.1,0.1,0.2,0.3,0.2,0.4c0,0.2-0.6,0.7-0.9,0.7
					c-0.1,0-0.1,0-0.2-0.1c-0.3-0.3-0.8-0.5-1.3-0.5c-0.2,0-0.6,0.1-0.6,0.4c0,0.4,0.7,0.5,1,0.5c0.1,0,0.4,0,0.5,0
					c0.1,0,0.2,0,0.3,0c0.2,0,0.2,0.1,0.2,0.5c0,0.8-0.1,0.8-0.4,0.8c-0.4,0-0.9,0-1.3-0.1c-0.8-0.2-1.6-0.6-1.6-1.6
					c0-1,0.8-1.4,1.6-1.4c0.1,0,0.3,0,0.4,0h0c0,0,0.1,0,0.1-0.1c0,0-0.1-0.1-0.1-0.2c0-0.1-0.1-0.1-0.2-0.1c0,0,0,0-0.1,0
					c-0.5,0.1-1.6,0.4-2.1,0.4c-0.1,0-0.2-0.1-0.2-0.2c-0.1-0.2-0.2-0.5-0.2-0.8c0-0.1,0-0.2,0.4-0.2c0.4,0,1.3-0.1,1.6-0.2
					c0.1,0,0.1-0.1,0.1-0.1c0-0.1-0.1-0.1-0.1-0.1c0,0-0.1,0-0.1,0c-0.2,0.1-0.8,0.2-1,0.2c-0.1,0-0.2-0.1-0.2-0.2
					c-0.1-0.2-0.2-0.6-0.2-0.7c0-0.1,0.1-0.2,0.3-0.2c0.1,0,0.3,0,0.5,0c0.1,0,0.2-0.1,0.2-0.2c0-0.1-0.1-0.2-0.1-0.2
					c0-0.1-0.2-0.3-0.2-0.3c0-0.1,0.2-0.2,0.4-0.2c0.2-0.1,0.5-0.2,0.7-0.2C142.1,58.7,142.1,58.8,142.2,59.1z"/>
				<path class="st1" d="M147.6,65.3c-0.1,0-0.1,0.1-0.1,0.1c0,0,0,0,0,0c0,0.2-0.1,0.2-0.3,0.2h-0.5c-0.3,0-0.4,0-0.4-0.2
					c0-0.4,0-0.8,0-1.2v-4.3c0-0.3,0-0.6,0-0.8c0-0.3,0.2-0.4,0.5-0.4c0.3,0,0.5,0,0.8,0h4c0.3,0,0.5,0,0.8,0c0.3,0,0.5,0,0.5,0.4
					c0,0.3,0,0.6,0,0.8v4.3c0,0.4,0,0.8,0,1.2c0,0.2-0.1,0.2-0.4,0.2H152c-0.3,0-0.3,0-0.3-0.2v0c0-0.1-0.1-0.1-0.1-0.1H147.6z
					 M147.4,64c0,0.1,0.1,0.2,0.2,0.2h3.8c0.1,0,0.2-0.1,0.2-0.2v-3.9c0-0.1-0.1-0.2-0.2-0.2h-3.8c-0.1,0-0.2,0.1-0.2,0.2V64z
					 M149.1,63.5c-0.1,0-0.1,0-0.1,0.1c0,0.1-0.1,0.1-0.3,0.1c-0.1,0-0.2,0-0.3,0c0,0-0.1,0-0.1,0c-0.1,0-0.2,0-0.2-0.2
					c0-0.1,0-0.5,0-0.7v-1.4c0-0.2,0-0.5,0-0.6c0-0.4,0.3-0.4,0.6-0.4c0.2,0,0.4,0,0.7,0h0.7c0.2,0,0.4,0,0.7,0c0.3,0,0.6,0,0.6,0.4
					c0,0.1,0,0.4,0,0.6v1.4c0,0.3,0,0.6,0,0.7c0,0.2-0.1,0.2-0.3,0.2h-0.1c-0.1,0-0.2,0-0.3,0h0c-0.2,0-0.2-0.1-0.2-0.1
					c0-0.1-0.1-0.1-0.1-0.1H149.1z M149,62.4c0,0.1,0.1,0.2,0.2,0.2h0.7c0.1,0,0.2-0.1,0.2-0.2v-0.8c0-0.1-0.1-0.2-0.2-0.2h-0.7
					c-0.1,0-0.2,0.1-0.2,0.2V62.4z"/>
				<path class="st1" d="M159.2,62.6c0,1-0.7,1.7-1.6,2c-0.3,0.1-1,0.3-1.3,0.3c-0.2,0-0.2-0.1-0.3-0.2c-0.1-0.1-0.2-0.5-0.2-0.6
					c0-0.1,0.1-0.2,0.3-0.2c0.7-0.1,2-0.4,2-1.3c0-0.4-0.3-0.6-0.7-0.6c-0.7,0-1.7,0.4-2.3,0.8c-0.1,0.1-0.2,0.1-0.3,0.1
					c-0.3,0-0.7-0.7-0.7-0.9c0-0.1,0.1-0.2,0.3-0.2c0.2,0,0.4-0.1,0.6-0.2c0.7-0.2,1.6-0.6,2.3-0.6
					C158.4,60.9,159.2,61.5,159.2,62.6z"/>
				<path class="st1" d="M164,58.7c0.2,0,0.4,0.1,0.4,0.2c0,0,0,0.1-0.1,0.1c-0.1,0.1-0.1,0.2-0.2,0.4c0,0.1,0,0.2-0.1,0.3
					c0,0,0,0.1,0,0.1c0,0.1,0.1,0.1,0.2,0.1c0.1,0,0.5-0.2,0.6-0.2c0.1,0,0.1-0.1,0.2-0.1c0.2,0,0.2,0.8,0.2,1c0,0.1,0,0.2-0.2,0.2
					c-0.3,0.1-0.8,0.2-1.1,0.3c-0.3,0.1-0.4,0.1-0.5,0.4c-0.3,1-1,2.7-1.5,3.5c-0.1,0.1-0.1,0.2-0.2,0.2s-1-0.4-1-0.6
					c0-0.1,0.1-0.2,0.2-0.3c0.6-0.8,1-1.7,1.3-2.6c0,0,0.1-0.1,0.1-0.2c0-0.1-0.1-0.1-0.2-0.1c-0.2,0-0.4,0-0.5,0
					c-0.2,0-0.3,0-0.3-0.2c0-0.2-0.1-0.7-0.1-0.8c0-0.1,0-0.2,0.1-0.2c0.1,0,0.4,0,0.9,0c0.4,0,0.5,0,0.6-0.2
					c0.1-0.3,0.2-1.2,0.2-1.5c0,0,0-0.1,0.1-0.1C163.1,58.5,163.8,58.7,164,58.7z M163.8,63.7c0.3,0.4,0.9,0.5,1.4,0.5
					c0.4,0,0.8,0,1.2-0.2c0,0,0.1,0,0.1,0c0.1,0,0.1,0.2,0.1,0.4v0.2c0,0.4,0,0.5-0.1,0.6c-0.2,0.1-1.1,0.1-1.4,0.1
					c-0.6,0-1.3-0.1-1.8-0.4c-0.1-0.1-0.4-0.3-0.4-0.5c0-0.1,0.3-0.5,0.4-0.6c0.1-0.1,0.2-0.2,0.3-0.2
					C163.7,63.6,163.7,63.6,163.8,63.7z M164.5,61.3c0.7,0,1.2,0.1,1.8,0.2c0.1,0,0.2,0.1,0.2,0.2c0,0.2-0.1,0.7-0.2,0.9
					c0,0.1-0.1,0.1-0.2,0.1c-0.1,0-0.1,0-0.2-0.1c-0.5-0.2-0.9-0.2-1.4-0.2h-0.3c-0.2,0-0.2,0-0.2-0.2
					C164.1,61.3,164.2,61.3,164.5,61.3z"/>
				<path class="st1" d="M170.2,59.5c0.1,0,0.2,0.1,0.2,0.1c0,0,0,0.1-0.1,0.1c-0.2,0.1-0.3,0.3-0.4,0.5c-0.1,0.3-0.3,0.8-0.3,1.2
					c0,0,0,0.1,0.1,0.1c0,0,0.1,0,0.1-0.2c0-0.1,0.1-0.2,0.2-0.2c0.1,0,0.4,0.2,0.4,0.4c0,0,0,0.1,0,0.1c-0.2,0.4-0.5,1.2-0.5,1.6
					v0.2c0,0.2-0.2,0.3-0.3,0.3c-0.1,0.1-0.3,0.1-0.5,0.1c-0.2,0-0.3-0.2-0.4-0.4c-0.2-0.6-0.3-1.3-0.3-1.9c0-0.5,0.1-1.2,0.2-1.8
					c0-0.2,0.1-0.4,0.2-0.6c0-0.1,0-0.2,0.1-0.2C169.2,59,169.9,59.3,170.2,59.5z M172.1,58.9c0.2,0,0.4-0.1,0.6-0.1
					c0.2,0,0.2,0.1,0.2,0.3c0.2,0.7,0.3,1.7,0.3,2.4c0,1.4-0.2,2.6-1.2,3.6c-0.2,0.2-0.5,0.5-0.7,0.5c-0.1,0-0.4-0.2-0.5-0.3
					c-0.2-0.2-0.4-0.3-0.4-0.5c0,0,0-0.1,0.1-0.2c0.4-0.3,0.8-0.7,1-1.2c0.3-0.6,0.3-1.2,0.3-1.8c0-0.8-0.1-1.6-0.3-2.4
					c0,0,0-0.1,0-0.1C171.7,59,171.8,59,172.1,58.9z"/>
				<path class="st1" d="M128,70.3c0.1,0,0.2,0,0.2,0.1c0,0,0,0.1-0.1,0.1c-0.1,0.1-0.1,0.2-0.2,0.4c-0.2,1-0.3,2-0.3,3
					c0,0.6,0,1.3,0.6,1.3c0.5,0,1-0.3,1.3-0.7c0.3-0.3,0.4-0.8,0.5-1.2c0-0.2,0.1-0.3,0.2-0.3c0.2,0,0.4,0.2,0.5,0.3
					c0.1,0.1,0.4,0.3,0.4,0.5c0,0.2-0.2,0.8-0.3,1c-0.5,0.9-1.4,1.6-2.5,1.6c-0.6,0-1.2-0.2-1.5-0.7c-0.4-0.5-0.4-1.4-0.4-2
					c0-0.9,0.1-1.9,0.1-2.8c0-0.2,0-0.4,0-0.6c0-0.2,0-0.3,0.1-0.3C126.9,70,127.7,70.2,128,70.3z"/>
				<path class="st1" d="M135.7,69.7c0.2,0,0.4,0.1,0.4,0.2c0,0,0,0.1-0.1,0.1c-0.1,0.1-0.1,0.2-0.2,0.4c0,0.1,0,0.2-0.1,0.3
					c0,0,0,0.1,0,0.1c0,0.1,0.1,0.1,0.2,0.1c0.1,0,0.5-0.2,0.6-0.2c0.1,0,0.1-0.1,0.2-0.1c0.2,0,0.2,0.8,0.2,1c0,0.1,0,0.2-0.2,0.2
					c-0.3,0.1-0.8,0.2-1.1,0.3c-0.3,0.1-0.4,0.1-0.5,0.4c-0.3,1-1,2.7-1.5,3.5c-0.1,0.1-0.1,0.2-0.2,0.2c-0.1,0-1-0.4-1-0.6
					c0-0.1,0.1-0.2,0.2-0.3c0.6-0.8,1-1.7,1.3-2.6c0,0,0.1-0.1,0.1-0.2c0-0.1-0.1-0.1-0.2-0.1c-0.2,0-0.4,0-0.5,0
					c-0.2,0-0.3,0-0.3-0.2c0-0.2-0.1-0.7-0.1-0.8c0-0.1,0-0.2,0.1-0.2c0.1,0,0.4,0,0.9,0c0.4,0,0.5,0,0.6-0.2
					c0.1-0.3,0.2-1.2,0.2-1.5c0,0,0-0.1,0.1-0.1C134.8,69.5,135.5,69.7,135.7,69.7z M135.5,74.7c0.3,0.4,0.9,0.5,1.4,0.5
					c0.4,0,0.8,0,1.2-0.2c0,0,0.1,0,0.1,0c0.1,0,0.1,0.2,0.1,0.4v0.2c0,0.4,0,0.5-0.1,0.6c-0.2,0.1-1.1,0.1-1.4,0.1
					c-0.6,0-1.3-0.1-1.8-0.4c-0.1-0.1-0.4-0.3-0.4-0.5c0-0.1,0.3-0.5,0.4-0.6c0.1-0.1,0.2-0.2,0.3-0.2
					C135.4,74.6,135.4,74.6,135.5,74.7z M136.2,72.3c0.7,0,1.2,0.1,1.8,0.2c0.1,0,0.2,0.1,0.2,0.2c0,0.2-0.1,0.7-0.2,0.9
					c0,0.1-0.1,0.1-0.2,0.1c-0.1,0-0.1,0-0.2-0.1c-0.5-0.2-0.9-0.2-1.4-0.2H136c-0.2,0-0.2,0-0.2-0.2
					C135.8,72.3,135.9,72.3,136.2,72.3z"/>
				<path class="st1" d="M141.8,71.3c0.2,0.1,0.4,0.1,0.4,0.2c0,0-0.1,0.1-0.1,0.1c-0.1,0-0.1,0.1-0.2,0.3c-0.1,0.2-0.1,0.5-0.1,0.7
					c0,0.1,0,0.1,0,0.2c0,0.1,0,0.1,0.1,0.1s0.4-0.2,0.5-0.2c0.3-0.2,0.8-0.3,1.2-0.3c0.5,0,1,0.2,1.4,0.6c0.3,0.3,0.4,0.7,0.4,1.2
					c0,0.5-0.1,0.9-0.4,1.2c-0.4,0.4-0.9,0.6-1.4,0.8c-0.3,0.1-0.9,0.2-1.2,0.2c-0.1,0-0.2,0-0.3-0.2c-0.1-0.2-0.3-0.7-0.3-0.9
					c0-0.2,0.1-0.2,0.2-0.2c0.6,0,2.1-0.2,2.1-1c0-0.4-0.4-0.6-0.8-0.6c-0.8,0-1.6,0.7-2,1.3c-0.1,0.1-0.1,0.2-0.3,0.2
					s-0.8-0.1-0.8-0.4c0-0.1,0-0.1,0-0.2c0.3-1,0.4-2.3,0.4-3c0-0.3,0-0.4,0.2-0.4C141,71.1,141.6,71.3,141.8,71.3z M141.9,69.6
					c0.1,0,0.2,0,0.3,0.1c0.4,0.2,0.9,0.5,1.1,0.7c0.2,0.1,0.3,0.2,0.3,0.3c0,0.2-0.5,0.9-0.7,0.9c-0.1,0-0.2-0.1-0.2-0.1
					c-0.4-0.3-0.8-0.6-1.2-0.8c-0.1-0.1-0.2-0.1-0.2-0.2C141.3,70.3,141.7,69.6,141.9,69.6z"/>
				<path class="st1" d="M148.5,70c0.2,0,0.4-0.1,0.6-0.1c0.2,0,0.2,0,0.3,0.8c0,0.4,0.1,0.6,0.1,0.8c0,0.1,0.1,0.2,0.2,0.2
					c0.1,0,0.7-0.3,1.1-0.6c0.1,0,0.2-0.2,0.3-0.2c0.1,0,0.3,0.3,0.4,0.4c0.1,0.2,0.3,0.5,0.3,0.7c0,0.1-0.1,0.1-0.3,0.2
					c0,0-0.1,0-0.1,0c-0.7,0.2-1.7,0.7-2.3,1.1c-0.3,0.2-0.8,0.5-0.8,0.9c0,0.5,1,0.5,1.4,0.5c0.6,0,1.5-0.1,2.1-0.2
					c0,0,0.1,0,0.1,0c0.1,0,0.1,0.1,0.1,0.2c0,0.2,0,0.6,0,0.8c0,0.3-0.1,0.3-0.3,0.4c-0.5,0.1-1.6,0.1-2,0.1c-0.6,0-1.2,0-1.8-0.4
					c-0.5-0.3-0.8-0.8-0.8-1.4c0-0.8,0.5-1.4,1.1-1.8c0.1-0.1,0.2-0.1,0.2-0.2c0-0.1-0.1-0.4-0.1-0.5c-0.1-0.5-0.3-1.1-0.4-1.6
					c0,0,0-0.1,0-0.1C147.7,70.1,147.9,70.1,148.5,70z M152.2,70.6c0.1,0.2,0.3,0.4,0.3,0.5c0,0.2-0.4,0.4-0.5,0.4
					c0,0-0.1,0-0.2-0.2c-0.1-0.2-0.3-0.4-0.4-0.6c0,0,0-0.1,0-0.1c0-0.1,0.5-0.3,0.5-0.3C151.9,70.2,152.2,70.6,152.2,70.6z
					 M152.8,69.7c0.1,0.1,0.2,0.2,0.2,0.3c0.1,0.1,0.3,0.4,0.3,0.5c0,0.2-0.4,0.4-0.5,0.4c-0.1,0-0.1-0.1-0.1-0.1
					c-0.2-0.3-0.3-0.5-0.5-0.8c0,0,0,0,0-0.1C152.2,69.8,152.7,69.6,152.8,69.7C152.8,69.6,152.8,69.6,152.8,69.7z"/>
				<path class="st1" d="M159.1,73.4c0,1.3-1,2.5-2.2,3.1c-0.1,0.1-0.4,0.2-0.6,0.2c-0.3,0-0.8-0.8-0.8-1c0-0.1,0.1-0.1,0.1-0.1
					c0.6-0.2,1-0.4,1.5-0.8c0.4-0.4,0.7-0.8,0.7-1.3c0-0.5-0.4-0.8-0.9-0.8c-0.6,0-1.2,0.3-1.7,0.7c0,0-0.1,0.1-0.2,0.1
					c-0.3,0-0.6-0.8-0.6-1.1c0-0.1,0.1-0.2,0.2-0.2c0.6-0.3,1.6-0.6,2.3-0.6C158.1,71.4,159.1,72.1,159.1,73.4z M155.9,69.7
					c0.5,0.2,1.5,0.4,2.1,0.4c0.2,0,0.3,0,0.3,0.1c0,0.1,0,0.3-0.1,0.5c0,0.3-0.1,0.6-0.3,0.6c-0.4,0-1.5-0.2-1.9-0.4
					c-0.5-0.1-0.6-0.2-0.6-0.3c0-0.2,0.2-0.6,0.2-0.8c0-0.1,0.1-0.2,0.2-0.2C155.8,69.7,155.9,69.7,155.9,69.7z"/>
				<path class="st1" d="M163.2,70.3c0.1,0,0.2,0,0.2,0.1c0,0,0,0.1-0.1,0.1c-0.1,0.1-0.1,0.2-0.2,0.4c-0.2,1-0.3,2-0.3,3
					c0,0.6,0,1.3,0.6,1.3c0.5,0,1-0.3,1.3-0.7c0.3-0.3,0.4-0.8,0.5-1.2c0-0.2,0.1-0.3,0.2-0.3c0.2,0,0.4,0.2,0.5,0.3
					c0.1,0.1,0.4,0.3,0.4,0.5c0,0.2-0.2,0.8-0.3,1c-0.5,0.9-1.4,1.6-2.5,1.6c-0.6,0-1.2-0.2-1.5-0.7c-0.4-0.5-0.4-1.4-0.4-2
					c0-0.9,0.1-1.9,0.1-2.8c0-0.2,0-0.4,0-0.6c0-0.2,0-0.3,0.1-0.3C162,70,162.9,70.2,163.2,70.3z"/>
				<path class="st1" d="M170.7,69.8c0.1,0,0.3,0,0.3,0.1c0,0.1-0.1,0.1-0.1,0.2c-0.1,0.1-0.1,0.3-0.1,0.9c0,0.1,0.1,0.2,0.2,0.2
					c0.2,0,0.7-0.2,0.9-0.2c0.2-0.1,0.3-0.1,0.4-0.1c0.1,0,0.2,0.1,0.3,0.4c0.1,0.2,0.2,0.4,0.2,0.6c0,0.1-0.1,0.1-0.4,0.2
					c-0.4,0.1-0.8,0.2-1.2,0.2c-0.2,0-0.3,0.1-0.3,0.3c0,0.1,0,0.7,0,0.9c0,0.2,0.1,0.3,0.4,0.3c0.5,0.2,1.3,0.4,1.8,0.7
					c0.1,0,0.1,0.1,0.1,0.2c0,0.2-0.4,0.9-0.6,0.9c-0.1,0-0.1-0.1-0.2-0.1c-0.2-0.1-1-0.6-1.2-0.6c-0.1,0-0.2,0-0.2,0.2
					c-0.1,0.9-0.9,1.1-1.6,1.1c-0.8,0-1.8-0.4-1.8-1.3c0-1,1-1.4,1.9-1.4h0.1c0.1,0,0.2-0.1,0.2-0.2c0-0.1,0-0.9,0-1.1
					c0-0.8,0-1.7-0.1-2.5c0,0,0-0.1,0-0.1c0-0.1,0.1-0.1,0.2-0.1C169.8,69.6,170.5,69.7,170.7,69.8z M169.4,74.7
					c-0.2,0-0.9,0-0.9,0.4c0,0.2,0.4,0.3,0.6,0.3c0.3,0,0.6-0.1,0.6-0.4C169.7,74.7,169.6,74.7,169.4,74.7z"/>
				<path class="st1" d="M179.2,73.4c0,1.3-1,2.5-2.2,3.1c-0.1,0.1-0.4,0.2-0.6,0.2c-0.3,0-0.8-0.8-0.8-1c0-0.1,0.1-0.1,0.1-0.1
					c0.6-0.2,1-0.4,1.5-0.8c0.4-0.4,0.7-0.8,0.7-1.3c0-0.5-0.4-0.8-0.9-0.8c-0.6,0-1.2,0.3-1.7,0.7c0,0-0.1,0.1-0.2,0.1
					c-0.3,0-0.6-0.8-0.6-1.1c0-0.1,0.1-0.2,0.2-0.2c0.6-0.3,1.6-0.6,2.3-0.6C178.3,71.4,179.2,72.1,179.2,73.4z M176.1,69.7
					c0.5,0.2,1.5,0.4,2.1,0.4c0.2,0,0.3,0,0.3,0.1c0,0.1,0,0.3-0.1,0.5c0,0.3-0.1,0.6-0.3,0.6c-0.4,0-1.5-0.2-1.9-0.4
					c-0.5-0.1-0.6-0.2-0.6-0.3c0-0.2,0.2-0.6,0.2-0.8c0-0.1,0.1-0.2,0.2-0.2C176,69.7,176,69.7,176.1,69.7z"/>
			</g>
		</g>
		<g>
			<g>
				<path class="st1" d="M149.1,81.5c0.1,0,0.1,0,0.1,0.1c0,0,0,0.1-0.1,0.1c0,0-0.1,0.2-0.1,0.3c0,0,0,0,0,0c0,0,0,0,0,0.1
					c0,0,0,0.1,0.1,0.1c0,0,0.1,0,0.1,0c0,0,0.1,0,0.1,0c0.1,0,0.1,0,0.1,0.1c0,0.1,0.1,0.5,0.1,0.6c0,0.1-0.1,0.2-0.6,0.2
					c-0.2,0-0.2,0.1-0.3,0.3c-0.1,0.3-0.2,0.5-0.3,0.8c-0.2,0.4-0.3,0.7-0.5,1.1c0,0.1-0.1,0.2-0.1,0.3c0,0.1-0.1,0.1-0.1,0.1
					c-0.2,0-0.8-0.3-0.8-0.4c0,0,0.1-0.2,0.1-0.2c0.1-0.2,0.8-1.4,0.8-1.5c0-0.1-0.1-0.1-0.1-0.1c0,0-0.2,0-0.2,0
					c-0.1,0-0.2,0-0.3,0c-0.1,0-0.2-0.1-0.2-0.6c0,0,0-0.2,0-0.2c0-0.1,0-0.1,0.1-0.1c0.1,0,0.2,0,0.4,0c0.5,0,0.6,0,0.7-0.2
					c0.1-0.2,0.2-0.7,0.2-0.9c0,0,0-0.1,0-0.1C148.3,81.3,149,81.5,149.1,81.5z M150,83.4c0.1,0,0.2,0.1,0.2,0.2c0,0.1,0,0.2,0,0.3
					c0,0.3,0,0.6,0,0.9c0,0.1,0,0.2,0.2,0.2c0.2,0.1,0.9,0.4,0.9,0.6c0,0.1-0.3,0.6-0.5,0.6c0,0-0.1-0.1-0.3-0.2
					c0,0-0.1-0.1-0.1-0.1c0,0-0.1,0-0.1,0c-0.1,0-0.1,0.1-0.1,0.1c0,0.1-0.1,0.2-0.2,0.3c-0.2,0.2-0.5,0.2-0.7,0.2
					c-0.6,0-1.2-0.3-1.2-0.9c0-0.6,0.5-0.9,1.1-0.9h0c0.1,0,0.1-0.1,0.1-0.1c0-0.1-0.1-0.6-0.1-0.8c0-0.1,0-0.2,0-0.3
					c0-0.1,0-0.2,0.2-0.2C149.5,83.3,149.8,83.4,150,83.4z M148.9,85.6c0,0.1,0.1,0.2,0.2,0.2c0.1,0,0.2-0.1,0.2-0.2
					c0-0.1,0-0.1-0.2-0.1C149,85.4,148.9,85.5,148.9,85.6z M151,82.7c0.1,0.1,0.5,0.5,0.5,0.6c0,0.2-0.5,0.6-0.6,0.6
					c-0.1,0-0.1-0.1-0.2-0.2c-0.2-0.3-0.5-0.5-0.8-0.8c0,0-0.1-0.1-0.1-0.1c0-0.1,0.4-0.6,0.6-0.6C150.5,82.3,150.9,82.6,151,82.7z"
					/>
				<path class="st1" d="M153.7,81.6c0.1,0,0.3,0,0.4,0c0.2,0,0.2,0,0.2,0.6c0,0.3,0.1,0.4,0.1,0.6c0,0.1,0,0.2,0.1,0.2
					c0.1,0,0.5-0.2,0.8-0.4c0.1,0,0.2-0.1,0.3-0.1c0.1,0,0.2,0.2,0.3,0.3c0.1,0.1,0.3,0.4,0.3,0.5c0,0.1-0.1,0.1-0.2,0.1
					c0,0-0.1,0-0.1,0c-0.5,0.2-1.3,0.5-1.7,0.8c-0.2,0.1-0.6,0.4-0.6,0.7c0,0.4,0.8,0.4,1,0.4c0.5,0,1.1,0,1.5-0.2c0,0,0,0,0.1,0
					c0,0,0.1,0,0.1,0.1c0,0.2,0,0.4,0,0.6c0,0.2,0,0.2-0.3,0.3c-0.3,0.1-1.2,0.1-1.5,0.1c-0.5,0-0.9,0-1.3-0.3
					c-0.4-0.2-0.6-0.6-0.6-1c0-0.6,0.3-1,0.8-1.3c0.1,0,0.1-0.1,0.1-0.2c0,0-0.1-0.3-0.1-0.3c-0.1-0.4-0.2-0.8-0.3-1.2
					c0,0,0-0.1,0-0.1C153.1,81.7,153.2,81.7,153.7,81.6z M156.5,82.1c0.1,0.1,0.2,0.3,0.2,0.4c0,0.1-0.3,0.3-0.4,0.3
					c0,0,0,0-0.1-0.2c-0.1-0.2-0.2-0.3-0.3-0.5c0,0,0-0.1,0-0.1c0-0.1,0.3-0.2,0.4-0.2C156.3,81.8,156.4,82.1,156.5,82.1z M157,81.4
					c0.1,0.1,0.1,0.1,0.2,0.2c0,0.1,0.2,0.3,0.2,0.4c0,0.1-0.3,0.3-0.4,0.3c0,0-0.1,0-0.1-0.1c-0.1-0.2-0.2-0.4-0.4-0.6
					c0,0,0,0,0-0.1C156.5,81.5,156.8,81.4,157,81.4C156.9,81.4,156.9,81.4,157,81.4z"/>
				<path class="st1" d="M160.4,81.5c0.1,0,0.1,0,0.1,0.1c0,0,0,0.1-0.1,0.1c0,0-0.1,0.2-0.1,0.3c0,0,0,0,0,0c0,0,0,0,0,0.1
					c0,0,0,0.1,0.1,0.1c0,0,0.1,0,0.1,0c0,0,0.1,0,0.1,0c0.1,0,0.1,0,0.1,0.1c0,0.1,0.1,0.5,0.1,0.6c0,0.1-0.1,0.2-0.6,0.2
					c-0.2,0-0.2,0.1-0.3,0.3c-0.1,0.3-0.2,0.5-0.3,0.8c-0.2,0.4-0.3,0.7-0.5,1.1c0,0.1-0.1,0.2-0.1,0.3c0,0.1-0.1,0.1-0.1,0.1
					c-0.2,0-0.8-0.3-0.8-0.4c0,0,0.1-0.2,0.1-0.2c0.1-0.2,0.8-1.4,0.8-1.5c0-0.1-0.1-0.1-0.1-0.1c0,0-0.2,0-0.2,0
					c-0.1,0-0.2,0-0.3,0c-0.1,0-0.2-0.1-0.2-0.6c0,0,0-0.2,0-0.2c0-0.1,0-0.1,0.1-0.1c0.1,0,0.2,0,0.4,0c0.5,0,0.6,0,0.7-0.2
					c0.1-0.2,0.2-0.7,0.2-0.9c0,0,0-0.1,0-0.1C159.6,81.3,160.3,81.5,160.4,81.5z M161.2,83.4c0.1,0,0.2,0.1,0.2,0.2
					c0,0.1,0,0.2,0,0.3c0,0.3,0,0.6,0,0.9c0,0.1,0,0.2,0.2,0.2c0.2,0.1,0.9,0.4,0.9,0.6c0,0.1-0.3,0.6-0.5,0.6c0,0-0.1-0.1-0.3-0.2
					c0,0-0.1-0.1-0.1-0.1c0,0-0.1,0-0.1,0c-0.1,0-0.1,0.1-0.1,0.1c0,0.1-0.1,0.2-0.2,0.3c-0.2,0.2-0.5,0.2-0.7,0.2
					c-0.6,0-1.2-0.3-1.2-0.9c0-0.6,0.5-0.9,1.1-0.9h0c0.1,0,0.1-0.1,0.1-0.1c0-0.1-0.1-0.6-0.1-0.8c0-0.1,0-0.2,0-0.3
					c0-0.1,0-0.2,0.2-0.2C160.8,83.3,161.1,83.4,161.2,83.4z M160.2,85.6c0,0.1,0.1,0.2,0.2,0.2c0.1,0,0.2-0.1,0.2-0.2
					c0-0.1,0-0.1-0.2-0.1C160.3,85.4,160.2,85.5,160.2,85.6z M162.2,82.7c0.1,0.1,0.5,0.5,0.5,0.6c0,0.2-0.5,0.6-0.6,0.6
					c-0.1,0-0.1-0.1-0.2-0.2c-0.2-0.3-0.5-0.5-0.8-0.8c0,0-0.1-0.1-0.1-0.1c0-0.1,0.4-0.6,0.6-0.6C161.8,82.3,162.1,82.6,162.2,82.7
					z"/>
				<path class="st1" d="M165,81.6c0.1,0,0.3,0,0.4,0c0.2,0,0.2,0,0.2,0.6c0,0.3,0.1,0.4,0.1,0.6c0,0.1,0,0.2,0.1,0.2
					c0.1,0,0.5-0.2,0.8-0.4c0.1,0,0.2-0.1,0.3-0.1c0.1,0,0.2,0.2,0.3,0.3c0.1,0.1,0.3,0.4,0.3,0.5c0,0.1-0.1,0.1-0.2,0.1
					c0,0-0.1,0-0.1,0c-0.5,0.2-1.3,0.5-1.7,0.8c-0.2,0.1-0.6,0.4-0.6,0.7c0,0.4,0.8,0.4,1,0.4c0.5,0,1.1,0,1.5-0.2c0,0,0,0,0.1,0
					c0,0,0.1,0,0.1,0.1c0,0.2,0,0.4,0,0.6c0,0.2,0,0.2-0.3,0.3c-0.3,0.1-1.2,0.1-1.5,0.1c-0.5,0-0.9,0-1.3-0.3
					c-0.4-0.2-0.6-0.6-0.6-1c0-0.6,0.3-1,0.8-1.3c0.1,0,0.1-0.1,0.1-0.2c0,0-0.1-0.3-0.1-0.3c-0.1-0.4-0.2-0.8-0.3-1.2
					c0,0,0-0.1,0-0.1C164.4,81.7,164.5,81.7,165,81.6z M167.8,82.1c0.1,0.1,0.2,0.3,0.2,0.4c0,0.1-0.3,0.3-0.4,0.3c0,0,0,0-0.1-0.2
					c-0.1-0.2-0.2-0.3-0.3-0.5c0,0,0-0.1,0-0.1c0-0.1,0.3-0.2,0.4-0.2C167.6,81.8,167.7,82.1,167.8,82.1z M168.2,81.4
					c0.1,0.1,0.1,0.1,0.2,0.2c0,0.1,0.2,0.3,0.2,0.4c0,0.1-0.3,0.3-0.4,0.3c0,0-0.1,0-0.1-0.1c-0.1-0.2-0.2-0.4-0.4-0.6
					c0,0,0,0,0-0.1C167.8,81.5,168.1,81.4,168.2,81.4C168.2,81.4,168.2,81.4,168.2,81.4z"/>
				<path class="st1" d="M170.4,83.9c0,0.4-0.3,0.7-0.7,0.7c-0.4,0-0.7-0.3-0.7-0.6c0-0.4,0.3-0.7,0.7-0.7
					C170.2,83.3,170.4,83.6,170.4,83.9z"/>
				<path class="st1" d="M172.5,83.9c0,0.4-0.3,0.7-0.7,0.7c-0.4,0-0.7-0.3-0.7-0.6c0-0.4,0.3-0.7,0.7-0.7
					C172.2,83.3,172.5,83.6,172.5,83.9z"/>
				<path class="st1" d="M174.5,83.9c0,0.4-0.3,0.7-0.7,0.7c-0.4,0-0.7-0.3-0.7-0.6c0-0.4,0.3-0.7,0.7-0.7
					C174.2,83.3,174.5,83.6,174.5,83.9z"/>
			</g>
		</g>
	</g>
	<g>
		<ellipse class="st2" cx="34.6" cy="66.6" rx="34.6" ry="28.5"/>
		<g>
			<g>
				<path class="st1" d="M20.2,53.4c0-0.2,0-0.4,0-0.6c0-0.2,0.1-0.3,0.3-0.3c0.2,0,0.4,0,0.6,0h0.5c0.2,0,0.4,0,0.6,0
					c0.2,0,0.3,0.1,0.3,0.3c0,0.2,0,0.4,0,0.6v3.5c0,0.3,0,0.6,0,0.9c0,0.1-0.1,0.2-0.2,0.2h-0.5c-0.2,0-0.3,0-0.3-0.2
					c0-0.1,0-0.1,0-0.2c0-0.2-0.1-0.2-0.2-0.2h0c-0.1,0-0.2,0.1-0.2,0.2c0,0.1,0,0.2,0,0.4c0,0.2-0.1,0.2-0.2,0.2h-0.5
					c-0.2,0-0.3,0-0.3-0.1c0-0.3,0-0.6,0-0.9V53.4z M21.2,54.1c0,0.1,0.1,0.2,0.2,0.2h0c0.1,0,0.2-0.1,0.2-0.2v-0.4
					c0-0.1-0.1-0.2-0.2-0.2h0c-0.1,0-0.2,0.1-0.2,0.2V54.1z M21.2,56.1c0,0.1,0.1,0.2,0.2,0.2h0c0.1,0,0.2-0.1,0.2-0.2v-0.6
					c0-0.1-0.1-0.2-0.2-0.2h0c-0.1,0-0.2,0.1-0.2,0.2V56.1z M26.1,54.5c0,0,0.1,0.1,0.2,0.1c0.1,0,0.5,0,0.6,0
					c0.2,0,0.2,0.1,0.2,0.4v0.3c0,0.3-0.1,0.3-0.2,0.3c-0.3,0-0.5,0-0.8,0h-2.5c-0.3,0-0.6,0-0.7,0c-0.3,0-0.3-0.1-0.3-0.4v-0.3
					c0-0.2,0-0.3,0.2-0.3c0.2,0,0.4,0,0.5,0c0.1,0,0.1,0,0.1-0.1c0-0.1-0.2-0.6-0.2-0.7c0-0.1,0-0.1,0-0.2c0,0,0,0,0,0c0,0,0,0,0,0
					c0,0,0,0-0.1,0h-0.1c-0.2,0-0.3,0-0.3-0.3v-0.4c0-0.2,0-0.3,0.2-0.3c0.3,0,0.5,0,0.8,0h0.2c0.1,0,0.2-0.1,0.2-0.2
					c0-0.1,0-0.3,0-0.4c0-0.1,0.1-0.1,0.2-0.1c0.2,0,0.6,0,0.9,0.1c0.2,0,0.3,0,0.3,0.1c0,0,0,0.1-0.1,0.1c-0.1,0.1-0.1,0.1-0.1,0.2
					c0,0.2,0.1,0.2,0.3,0.2H26c0.3,0,0.5,0,0.8,0c0.2,0,0.2,0.1,0.2,0.3v0.4c0,0.3-0.1,0.3-0.3,0.3c-0.1,0-0.1,0-0.2,0
					c0,0-0.1,0-0.1,0c0,0,0,0,0.1,0c0.1,0,0.2,0.1,0.2,0.1c0,0.1-0.1,0.1-0.2,0.1c-0.1,0-0.1,0-0.2,0.1C26.3,54,26.1,54.4,26.1,54.5
					z M24.4,58.7c-0.1,0-0.2,0.1-0.2,0.2c0,0.2-0.1,0.2-0.4,0.2h-0.5c-0.2,0-0.3,0-0.3-0.2c0-0.2,0-0.5,0-0.7v-1.6
					c0-0.2,0-0.4,0-0.6c0-0.3,0.3-0.3,0.5-0.3c0.2,0,0.5,0,0.7,0h1.1c0.2,0,0.5,0,0.8,0c0.2,0,0.5,0,0.5,0.3c0,0.2,0,0.4,0,0.6v1.6
					c0,0.2,0,0.6,0,0.7c0,0.2-0.1,0.2-0.3,0.2h-0.4c-0.3,0-0.4,0-0.4-0.2c0-0.1-0.1-0.2-0.2-0.2H24.4z M24.2,56.7
					c0,0.1,0,0.1,0.1,0.1h1.1c0.1,0,0.1,0,0.1-0.1v0c0-0.1,0-0.1-0.1-0.1h-1.1C24.3,56.6,24.2,56.7,24.2,56.7L24.2,56.7z M24.2,57.7
					c0,0.1,0,0.1,0.1,0.1h1.1c0.1,0,0.1,0,0.1-0.1v-0.1c0-0.1,0-0.1-0.1-0.1h-1.1C24.3,57.6,24.2,57.6,24.2,57.7L24.2,57.7z
					 M24.5,53.5c-0.1,0-0.1,0-0.1,0.1c0,0.1,0,0.1,0.1,0.2c0,0.1,0.2,0.5,0.2,0.6c0,0.1,0,0.1-0.1,0.1c0,0,0,0,0,0.1c0,0,0,0,0,0
					h0.3c0.2,0,0.2-0.1,0.3-0.3c0-0.1,0.2-0.5,0.2-0.6c0-0.1-0.1-0.1-0.2-0.1H24.5z"/>
				<path class="st1" d="M30,53.4c0.1,0,0.2,0,0.2,0.1c0,0,0,0.1-0.1,0.1c-0.1,0.1-0.1,0.2-0.2,0.4c-0.1,0.4-0.1,0.8-0.1,1.1
					c0,0.5,0.1,1.1,0.3,1.5c0.1,0.1,0.2,0.4,0.4,0.4c0.2,0,0.4-0.3,0.4-0.5c0.1-0.1,0.1-0.2,0.2-0.2c0.2,0,0.8,0.5,0.8,0.6
					c0,0.2-0.4,0.6-0.5,0.8c-0.3,0.3-0.6,0.6-1,0.6c-0.5,0-1-0.4-1.3-0.8c-0.6-0.8-0.6-2-0.6-3c0-0.2,0-1.1,0-1.2
					c0-0.1,0-0.1,0.1-0.1C28.8,53.2,29.8,53.4,30,53.4z M32.9,53.2c0.2,0,0.8,0.5,1.2,1.1c0.3,0.5,0.5,1.1,0.6,1.6
					c0,0.1,0,0.3,0,0.4c0,0.2,0,0.2-0.2,0.3c-0.2,0.1-0.5,0.1-0.8,0.1c-0.3,0-0.3-0.1-0.3-0.4c-0.1-1-0.4-1.7-1.2-2.3
					c0,0-0.1-0.1-0.1-0.1C32.2,53.7,32.7,53.2,32.9,53.2z"/>
				<path class="st1" d="M36.1,54.6c0-0.3,0-0.5,0-0.6c0-0.3,0.2-0.3,0.4-0.3c0.2,0,0.5,0,0.7,0h0.7c0.2,0,0.5,0,0.7,0
					c0.2,0,0.4,0,0.4,0.3c0,0.2,0,0.4,0,0.6v1c0,0.3,0,0.6,0,0.9c0,0.1-0.1,0.2-0.3,0.2h-0.5c-0.3,0-0.3,0-0.3-0.1
					c0-0.1-0.1-0.1-0.2-0.1h-0.4c-0.1,0-0.2,0.1-0.2,0.2c0,0.3,0,0.7-0.1,1c-0.1,0.3-0.2,1-0.4,1.3c0,0.1-0.1,0.1-0.2,0.1
					c-0.1,0-1-0.3-1-0.5c0,0,0-0.1,0.1-0.2c0.2-0.4,0.3-0.9,0.4-1.3c0.1-0.5,0.1-1.1,0.1-1.6V54.6z M38.2,52.1c0.3,0,0.6,0,0.8,0
					c0.2,0,0.2,0.1,0.2,0.5v0.3c0,0.3,0,0.4-0.2,0.4c-0.3,0-0.6,0-0.8,0h-1.3c-0.3,0-0.6,0-0.8,0c-0.2,0-0.2-0.1-0.2-0.4v-0.5
					c0-0.2,0-0.3,0.2-0.3c0.2,0,0.6,0,0.8,0H38.2z M37.7,55.5c0.1,0,0.2-0.1,0.2-0.2V55c0-0.1-0.1-0.2-0.2-0.2h-0.3
					c-0.1,0-0.2,0.1-0.2,0.2v0.2c0,0.2,0.1,0.3,0.3,0.3H37.7z M39.6,53.7c0-0.3,0-0.6,0-0.9c0-0.4,0.5-0.4,0.8-0.4
					c0.5,0,1.3-0.2,1.7-0.4c0,0,0.1,0,0.1,0c0.1,0,0.2,0.1,0.4,0.3c0.1,0.1,0.4,0.5,0.4,0.6c0,0.1-0.1,0.1-0.1,0.1c0,0-0.1,0-0.1,0
					c0,0-0.1,0-0.1,0c-0.1,0-0.2,0-0.3,0.1c-0.4,0.1-0.8,0.2-1.2,0.2c-0.3,0-0.3,0-0.3,0.4V54c0,0.2,0.1,0.2,0.2,0.2h0.6
					c0.3,0,0.7,0,1,0c0.2,0,0.2,0.1,0.2,0.3V55c0,0.3,0,0.3-0.2,0.3h-0.2c-0.1,0-0.2,0.1-0.2,0.2v2.1c0,0.4,0,0.8,0,1.2
					c0,0.2-0.1,0.2-0.4,0.2h-0.5c-0.3,0-0.4,0-0.4-0.2c0-0.4,0-0.8,0-1.2v-2.3c0-0.1-0.1-0.1-0.1-0.1h0c-0.1,0-0.1,0-0.1,0.1
					c0,0.6-0.1,1.3-0.3,1.8c-0.1,0.4-0.5,1.3-0.8,1.6C39.6,59,39.6,59,39.5,59c-0.2,0-0.9-0.3-0.9-0.5c0-0.1,0.1-0.2,0.1-0.2
					c0.2-0.3,0.5-0.8,0.6-1.2c0.2-0.6,0.2-1.6,0.2-2.2V53.7z"/>
				<path class="st1" d="M49.8,53.8c0.3,0.3,0.4,0.7,0.4,1.1c0,1-0.7,1.5-1.6,1.8c-0.2,0.1-0.5,0.2-0.7,0.2c-0.1,0-0.2-0.1-0.4-0.4
					c-0.1-0.1-0.2-0.4-0.2-0.5c0-0.1,0.1-0.1,0.2-0.2c0.5-0.1,1.4-0.3,1.4-0.9c0-0.3-0.2-0.5-0.5-0.5c-0.6,0-1.4,0.4-1.8,0.7
					c-0.1,0-0.2,0.1-0.2,0.2c0,0.1,0,0.1,0.1,0.2c0.4,0.8,0.9,1.5,1.4,2.3c0,0.1,0.1,0.2,0.1,0.2c0,0.2-0.8,0.6-1,0.6
					c-0.1,0-0.1,0-0.2-0.2c-0.2-0.3-0.3-0.6-0.5-0.9c-0.2-0.4-0.5-0.9-0.7-1.3c-0.1-0.1-0.1-0.2-0.2-0.2c-0.1,0-0.6,0.4-0.7,0.5
					c0,0-0.1,0.1-0.1,0.1c-0.2,0-0.7-0.8-0.7-1c0-0.1,0-0.1,0.3-0.3c0.1-0.1,0.3-0.2,0.5-0.3c0.1-0.1,0.2-0.1,0.2-0.2
					c0-0.2-0.4-0.8-0.6-1c-0.1-0.1-0.1-0.1-0.1-0.2c0-0.1,0.2-0.2,0.5-0.3c0.2-0.1,0.7-0.3,0.8-0.3c0,0,0.1,0,0.1,0.1
					c0,0,0,0.1,0,0.1c0,0,0,0,0,0.1c0,0.1,0.2,0.6,0.3,0.7c0,0.1,0.1,0.1,0.2,0.1c0.1,0,0.2-0.1,0.3-0.1c0.1,0,0.1-0.1,0.2-0.1
					c0.1-0.1,0.2-0.1,0.2-0.2c0-0.1-0.2-0.2-0.6-0.3c-0.1,0-0.2-0.1-0.2-0.2c0-0.1,0.1-0.4,0.2-0.5c0.2-0.3,0.2-0.4,0.3-0.4
					c0.1,0,0.8,0.3,1,0.3c0.2,0.1,0.5,0.2,0.5,0.4c0,0.1-0.1,0.2-0.1,0.3c0,0.1,0.1,0.1,0.1,0.1c0,0,0.1,0,0.1,0c0.1,0,0.3,0,0.4,0
					C48.9,53.4,49.5,53.5,49.8,53.8z"/>
				<path class="st1" d="M20.8,63.5c0,0.4,0,0.8,0,1.2c0,0.2,0.1,0.2,0.3,0.2h1.6c0.3,0,0.6,0,1,0c0.2,0,0.2,0.1,0.2,0.3v0.6
					c0,0.2,0,0.3-0.2,0.3c-0.3,0-0.6,0-1,0h-1.5c-0.1,0-0.2,0-0.2,0.1c0,0.1,0.2,0.5,0.4,0.7c0.5,0.9,1.1,1.5,2.1,2
					c0.1,0.1,0.2,0.1,0.2,0.2c0,0.2-0.4,0.9-0.7,0.9c-0.1,0-0.1,0-0.2-0.1c-0.6-0.3-1.1-0.8-1.6-1.3c-0.3-0.4-0.6-0.8-0.9-1.2
					c0-0.1-0.1-0.1-0.2-0.1c-0.1,0-0.2,0.1-0.2,0.2c-0.5,1-1.4,1.8-2.4,2.3c0,0,0,0-0.1,0c-0.1,0.1-0.2,0.1-0.3,0.1
					c-0.2,0-0.3-0.3-0.4-0.5c0-0.1-0.2-0.4-0.2-0.5c0-0.1,0.1-0.2,0.2-0.2c1-0.4,1.9-1.1,2.3-2.1c0-0.1,0.2-0.5,0.2-0.6
					c0-0.1-0.1-0.1-0.2-0.1h-1.4c-0.3,0-0.6,0-1,0c-0.2,0-0.2-0.1-0.2-0.4v-0.5c0-0.3,0-0.4,0.2-0.4c0.3,0,0.6,0,1,0h1.6
					c0.3,0,0.3-0.1,0.3-0.8c0-0.3,0-0.7,0-1c0-0.1,0.1-0.2,0.2-0.2c0.2,0,0.8,0,1,0.1c0.1,0,0.2,0,0.2,0.1c0,0,0,0.1-0.1,0.1
					C20.8,63.3,20.8,63.4,20.8,63.5z"/>
				<path class="st1" d="M27.7,63.4c0.1,0.3,0.1,0.3,0.2,0.3c0.1,0,0.3-0.1,0.4-0.2c0.1-0.1,0.2-0.1,0.3-0.1c0.2,0,0.5,0.7,0.5,0.9
					c0,0.1-0.1,0.2-0.2,0.2c-0.2,0.1-0.3,0.2-0.5,0.2c-0.1,0-0.2,0.1-0.2,0.1c0,0,0,0.2,0.1,0.2c0.2,0,0.7-0.3,0.8-0.4
					c0.1,0,0.2-0.1,0.2-0.1c0.1,0,0.2,0.2,0.3,0.3c0.1,0.2,0.3,0.4,0.3,0.6c0,0.1-0.2,0.2-0.4,0.3c-0.2,0.1-0.3,0.2-0.5,0.2
					c-0.1,0-0.2,0.1-0.2,0.2c0,0.1,0,0.1,0.1,0.2c0.2,0.3,0.4,0.7,0.6,1c0.1,0.1,0.2,0.3,0.2,0.4c0,0.2-0.6,0.7-0.9,0.7
					c-0.1,0-0.1,0-0.2-0.1c-0.3-0.3-0.8-0.5-1.3-0.5c-0.2,0-0.6,0.1-0.6,0.4c0,0.4,0.7,0.5,1,0.5c0.1,0,0.4,0,0.5,0
					c0.1,0,0.2,0,0.3,0c0.2,0,0.2,0.1,0.2,0.5c0,0.8-0.1,0.8-0.4,0.8c-0.4,0-0.9,0-1.3-0.1c-0.8-0.2-1.6-0.6-1.6-1.6
					c0-1,0.8-1.4,1.6-1.4c0.1,0,0.3,0,0.4,0h0c0,0,0.1,0,0.1-0.1c0,0-0.1-0.1-0.1-0.2c0-0.1-0.1-0.1-0.2-0.1c0,0,0,0-0.1,0
					c-0.5,0.1-1.6,0.4-2.1,0.4c-0.1,0-0.2-0.1-0.2-0.2c-0.1-0.2-0.2-0.5-0.2-0.8c0-0.1,0-0.2,0.4-0.2c0.4,0,1.3-0.1,1.6-0.2
					c0.1,0,0.1-0.1,0.1-0.1c0-0.1-0.1-0.1-0.1-0.1c0,0-0.1,0-0.1,0c-0.2,0.1-0.8,0.2-1,0.2c-0.1,0-0.2-0.1-0.2-0.2
					c-0.1-0.2-0.2-0.6-0.2-0.7c0-0.1,0.1-0.2,0.3-0.2c0.1,0,0.3,0,0.5,0c0.1,0,0.2-0.1,0.2-0.2c0-0.1-0.1-0.2-0.1-0.2
					c0-0.1-0.2-0.3-0.2-0.3c0-0.1,0.2-0.2,0.4-0.2c0.2-0.1,0.5-0.2,0.7-0.2C27.6,63.1,27.6,63.2,27.7,63.4z"/>
				<path class="st1" d="M35,63.2c0.1,0,0.2,0.1,0.2,0.1c0,0-0.1,0.1-0.2,0.1c0,0-0.1,0.3-0.1,0.4c0,0,0,0,0,0.1c0,0,0,0.1,0,0.1
					c0,0,0,0.1,0.1,0.1c0,0,0.1,0,0.2,0c0,0,0.1,0,0.1,0c0.1,0,0.1,0,0.1,0.1c0,0.1,0.1,0.6,0.1,0.8c0,0.2-0.1,0.2-0.7,0.3
					c-0.3,0-0.3,0.1-0.4,0.4c-0.1,0.4-0.3,0.7-0.4,1.1c-0.2,0.5-0.4,1-0.7,1.4c-0.1,0.1-0.1,0.2-0.2,0.3c0,0.1-0.1,0.1-0.2,0.1
					c-0.3,0-1-0.3-1-0.5c0,0,0.1-0.2,0.2-0.3c0.2-0.3,1-1.9,1-2.1c0-0.1-0.1-0.1-0.1-0.1c0,0-0.2,0-0.3,0c-0.1,0-0.3,0-0.4,0
					c-0.2,0-0.2-0.1-0.3-0.8c0-0.1,0-0.2,0-0.3c0-0.1,0.1-0.1,0.2-0.1c0.1,0,0.3,0,0.5,0c0.7,0,0.8,0,0.9-0.2c0.1-0.3,0.2-1,0.2-1.2
					c0-0.1,0-0.1,0.1-0.1C33.9,62.9,34.8,63.2,35,63.2z M36.1,65.7c0.1,0,0.2,0.1,0.2,0.2c0,0.1,0,0.2,0,0.4c0,0.4,0,0.8,0.1,1.2
					c0,0.2,0,0.2,0.2,0.3c0.2,0.1,1.2,0.6,1.2,0.8c0,0.2-0.4,0.8-0.7,0.8c-0.1,0-0.2-0.1-0.4-0.2c0,0-0.1-0.1-0.2-0.1
					c0,0-0.1,0-0.1,0c-0.1,0-0.2,0.1-0.2,0.1c-0.1,0.1-0.2,0.3-0.3,0.4c-0.2,0.2-0.6,0.3-1,0.3c-0.8,0-1.6-0.4-1.6-1.2
					c0-0.8,0.7-1.1,1.4-1.1H35c0.1,0,0.2-0.1,0.2-0.2c0-0.1-0.1-0.8-0.1-1.1c0-0.1,0-0.3,0-0.4c0-0.2,0.1-0.2,0.2-0.2
					C35.5,65.6,35.9,65.7,36.1,65.7z M34.7,68.7c0,0.2,0.2,0.2,0.3,0.2c0.2,0,0.2-0.1,0.2-0.3c0-0.1,0-0.2-0.2-0.2
					C34.8,68.4,34.7,68.5,34.7,68.7z M37.4,64.8c0.2,0.2,0.7,0.6,0.7,0.8c0,0.2-0.6,0.8-0.8,0.8c-0.1,0-0.2-0.1-0.2-0.2
					c-0.3-0.4-0.6-0.7-1-1c-0.1,0-0.1-0.1-0.1-0.2c0-0.1,0.5-0.8,0.7-0.8C36.8,64.2,37.3,64.7,37.4,64.8z"/>
				<path class="st1" d="M44.4,65.5c0,0.1,0.1,0.1,0.1,0.1H45c0.3,0,0.6,0,1,0c0.2,0,0.2,0.1,0.2,0.2v0.4c0,0.2,0,0.3-0.2,0.3
					c-0.3,0-0.6,0-1,0h-4.8c-0.3,0-0.6,0-1,0c-0.2,0-0.2-0.1-0.2-0.3v-0.4c0-0.2,0-0.2,0.2-0.2c0.3,0,0.6,0,1,0h0.4
					c0.1,0,0.2-0.1,0.2-0.2c0-0.1-0.1-0.3-0.1-0.4c0,0,0-0.1,0-0.1c0,0,0-0.1,0-0.2c0-0.1,0.1-0.1,0.2-0.2c0,0,0,0,0,0
					c0,0,0,0-0.1,0h-0.1c-0.3,0-0.6,0-0.8,0c-0.2,0-0.2-0.1-0.2-0.3v-0.2c0-0.3,0-0.4,0.2-0.4c0.3,0,0.6,0,1,0h1.1
					c0.1,0,0.2-0.1,0.2-0.2c0-0.1,0-0.2,0-0.3c0,0,0,0,0-0.1c0-0.1,0.1-0.1,0.2-0.1c0.2,0,0.6,0,0.8,0c0.2,0,0.4,0,0.4,0.1
					c0,0,0,0.1-0.1,0.1c-0.1,0.1-0.1,0.1-0.1,0.2c0,0.1,0.1,0.2,0.2,0.2h1.1c0.3,0,0.6,0,1,0c0.2,0,0.2,0.1,0.2,0.2v0.4
					c0,0.2,0,0.3-0.2,0.3c-0.3,0-0.6,0-0.9,0c-0.1,0-0.2,0-0.2,0.1c0,0.1,0.1,0.1,0.2,0.1c0.1,0,0.2,0.1,0.2,0.2
					c0,0.1,0,0.1-0.1,0.1c-0.1,0-0.1,0-0.2,0.1C44.5,65.1,44.4,65.5,44.4,65.5z M41.6,69.7c-0.1,0-0.2,0.1-0.2,0.2
					c0,0.2-0.1,0.2-0.3,0.2h-0.6c-0.3,0-0.4,0-0.4-0.2c0-0.2,0-0.4,0-0.6v-1.7c0-0.2,0-0.4,0-0.6c0-0.2,0.1-0.3,0.3-0.3
					c0.3,0,0.5,0,0.8,0h2.5c0.3,0,0.5,0,0.8,0c0.2,0,0.3,0,0.3,0.3c0,0.2,0,0.4,0,0.6v1.7c0,0.2,0,0.4,0,0.6c0,0.2-0.1,0.2-0.2,0.2
					h-0.6c-0.3,0-0.4,0-0.4-0.2v0c0-0.1-0.1-0.2-0.2-0.2H41.6z M41.4,67.7c0,0.1,0,0.1,0.1,0.1h2.1c0.1,0,0.1,0,0.1-0.1v0
					c0-0.1,0-0.1-0.1-0.1h-2.1C41.5,67.6,41.4,67.6,41.4,67.7L41.4,67.7z M41.4,68.7c0,0.1,0,0.1,0.1,0.1h2.1c0.1,0,0.1,0,0.1-0.1v0
					c0-0.1,0-0.1-0.1-0.1h-2.1C41.5,68.6,41.4,68.6,41.4,68.7L41.4,68.7z M42.9,65.6c0.2,0,0.2-0.1,0.3-0.2c0-0.1,0.3-0.7,0.3-0.8
					c0-0.1-0.1-0.1-0.2-0.1h-1.5c-0.1,0-0.2,0-0.2,0.1c0,0,0.1,0.3,0.1,0.4c0,0,0,0.1,0,0.1c0,0,0,0.1,0,0.1c0,0.1-0.1,0.2-0.2,0.2
					c0,0-0.1,0-0.1,0.1c0,0,0.1,0,0.1,0H42.9z"/>
				<path class="st1" d="M47.9,64.2c0.1-0.3,0.1-0.5,0.2-0.7c0-0.1,0-0.2,0.1-0.2c0.1,0,1,0.4,1.2,0.5c0.1,0.1,0.2,0.1,0.2,0.2
					c0,0,0,0.1-0.1,0.1c-0.2,0.1-0.3,0.2-0.4,0.4c-0.3,0.6-0.5,1.6-0.5,2.4c0,0.2,0,0.3,0.1,0.3c0.1,0,0.1-0.1,0.1-0.1
					c0.1-0.2,0.1-0.3,0.2-0.3c0.1,0,0.5,0.3,0.5,0.4c0,0.1-0.4,1-0.4,1.6c0,0.1,0,0.2,0,0.3c0,0,0,0.1,0,0.1c0,0.2-0.2,0.3-0.4,0.4
					c-0.1,0-0.3,0.1-0.4,0.1c-0.1,0-0.2-0.1-0.3-0.3c-0.4-0.8-0.5-1.7-0.5-2.6C47.6,66,47.7,65.1,47.9,64.2z M52.4,63.5
					c0,0,0.1,0,0.1,0.1c0,0,0,0.1-0.1,0.1c-0.1,0.2-0.1,0.5-0.1,0.7c0,0.1,0.1,0.2,0.2,0.2c0.1,0,0.5-0.1,0.6-0.1c0.1,0,0.2,0,0.2,0
					c0.1,0,0.2,0.2,0.2,0.3c0,0.2,0.1,0.5,0.1,0.7c0,0.2-0.1,0.2-1,0.4c-0.2,0-0.3,0.1-0.3,0.3c0,0.1,0,1.2,0.1,1.3
					c0,0.2,0.1,0.2,0.3,0.3c0.3,0.2,0.6,0.4,0.9,0.6c0.1,0.1,0.2,0.2,0.2,0.3c0,0.2-0.4,0.7-0.6,0.7c-0.1,0-0.2-0.1-0.4-0.3
					c0,0-0.1-0.1-0.1-0.1c0,0-0.1-0.1-0.2-0.1c-0.1,0-0.1,0-0.2,0.1c-0.2,0.4-0.8,0.5-1.2,0.5c-0.7,0-1.5-0.4-1.5-1.2
					c0-0.8,0.7-1.1,1.4-1.1h0.2c0.1,0,0.2-0.1,0.2-0.2c0-0.2,0-0.6,0-0.7c0-0.3,0-0.4-0.2-0.4c-0.1,0-0.7,0-1,0H50
					c-0.2,0-0.3,0-0.4-0.1c-0.1-0.1-0.1-0.8-0.1-0.9c0-0.1,0-0.2,0.2-0.2c0,0,0.3,0,0.4,0c0.3,0,0.7,0,1,0c0.1,0,0.2,0,0.2-0.2
					c0-0.2-0.1-1-0.1-1.1c0-0.1,0-0.1,0.1-0.1C51.4,63.4,52.2,63.5,52.4,63.5z M50.6,68.4c0,0.2,0.3,0.2,0.4,0.2
					c0.2,0,0.4-0.1,0.4-0.3c0-0.2-0.2-0.2-0.4-0.2C50.9,68.2,50.6,68.2,50.6,68.4z"/>
				<path class="st1" d="M22.9,74.9c0.3,0,0.6,0,0.9,0c0.2,0,0.2,0.1,0.2,0.4v0.4c0,0.2,0,0.3-0.2,0.3c-0.3,0-0.6,0-0.9,0h-1.4
					c-0.2,0-0.3,0-0.4,0.2c0,0.1-0.2,0.4-0.3,0.5c0,0,0,0,0,0.1c0,0.1,0.1,0.1,0.1,0.1H21c0.1,0,0.1,0,0.1-0.1c0-0.2,0-0.4,0-0.5
					c0-0.1,0.1-0.1,0.2-0.1c0.2,0,0.6,0,0.8,0c0.1,0,0.2,0,0.2,0.1c0,0,0,0.1-0.1,0.1c-0.1,0.1-0.1,0.2-0.1,0.2
					c0,0.1,0.1,0.2,0.2,0.2c0.2,0,0.5,0,0.7,0s0.5,0,0.5,0.3c0,0.2,0,0.4,0,0.7v1c0,0.2,0,0.4,0,0.5c0,0.7-0.4,0.9-1,0.9
					c-0.3,0-0.4-0.1-0.4-0.7c0-0.2,0-0.4,0.1-0.4c0,0,0.1,0,0.1,0c0.1,0,0.1-0.1,0.1-0.2v-1c0-0.1-0.1-0.2-0.2-0.2h0
					c-0.1,0-0.2,0.1-0.2,0.2V80c0,0.3,0,0.6,0,0.9c0,0.2-0.1,0.2-0.3,0.2h-0.5c-0.2,0-0.3,0-0.3-0.2c0-0.3,0-0.6,0-0.9v-1.9
					c0-0.1-0.1-0.2-0.2-0.2h0c-0.1,0-0.2,0.1-0.2,0.2v1.1c0,0.3,0,0.6,0,0.9c0,0.2-0.1,0.2-0.3,0.2H20c-0.3,0-0.3,0-0.3-0.2
					c0-0.3,0-0.6,0-0.9v-0.5c0-0.1,0-0.1-0.1-0.1c0,0-0.1,0-0.1,0.1c0,0-0.1,0.1-0.1,0.1c-0.1,0-0.3-0.2-0.4-0.2
					c0,0-0.1-0.1-0.2-0.1c-0.1,0-0.1,0.1-0.1,0.2v1.6c0,0.3,0,0.5,0,0.8c0,0.1-0.1,0.2-0.4,0.2h-0.3c-0.3,0-0.4-0.1-0.4-0.2
					c0-0.2,0-0.5,0-0.8V76c0-0.2,0-0.3-0.1-0.3c-0.1,0-0.1,0.3-0.1,0.5c0,0.4-0.1,0.9-0.1,1.3c0,0.1,0,0.2-0.2,0.2
					c-0.1,0-0.6-0.1-0.6-0.3c0,0,0-0.1,0-0.2c0.1-0.5,0.2-1.3,0.2-1.6c0-0.2,0-0.2,0.1-0.2c0,0,0.5,0,0.6,0.1c0,0,0.1,0,0.1,0
					c0.1,0,0.2-0.1,0.2-0.2v-0.6c0-0.2,0-0.4,0-0.6c0-0.1,0-0.1,0.2-0.1c0.2,0,0.5,0,0.7,0c0.1,0,0.3,0,0.3,0.1c0,0,0,0.1,0,0.1
					c-0.1,0.1-0.1,0.1-0.1,0.3V75c0,0.1,0,0.2,0.1,0.2c0,0,0.1,0,0.1,0c0,0,0.1,0,0.2,0c0.1,0,0.1,0.1,0.2,0.2c0,0,0,0.1,0.1,0.1
					s0,0,0-0.1v-0.2c0-0.2,0-0.3,0.2-0.3c0.2,0,0.4,0,0.7,0c0.3,0,0.3-0.2,0.4-0.8c0-0.2,0-0.2,0.1-0.2c0.1,0,0.5,0.1,0.6,0.1
					c0.2,0,0.5,0.1,0.5,0.2c0,0.1-0.1,0.1-0.1,0.1c-0.1,0.1-0.1,0.1-0.2,0.2c0,0,0,0.1,0,0.2c0,0,0,0.1,0,0.1c0,0.1,0.1,0.1,0.2,0.1
					H22.9z M18.7,77.7c0,0.1,0,0.1,0.1,0.1c0.2,0,1.2-1.5,1.2-1.7C20,76,20,76,19.9,76c-0.1,0-0.1,0-0.2,0c-0.1,0-0.1,0.1-0.1,0.1
					c0,0,0,0.2,0,0.2c0,0,0,0.1,0,0.2c0,0.2-0.5,0.3-0.6,0.3c-0.1,0-0.1-0.1-0.2-0.3c0-0.1-0.1-0.6-0.2-0.6c0,0,0,0.1,0,0.1V77.7z"
					/>
				<path class="st1" d="M27.1,74.5c0-0.1,0-0.2,0.1-0.2c0.1,0,1,0.2,1.1,0.3c0.1,0,0.2,0,0.2,0.1c0,0.1-0.1,0.1-0.1,0.1
					c-0.1,0.1-0.2,0.3-0.2,0.5l0,0.1c0,0,0,0.1,0,0.2c0,0.2,0.2,0.2,0.3,0.2c0.2,0,0.4,0,0.7,0.2c0.6,0.3,0.7,0.8,0.7,1.4
					c0,0.7-0.2,1.9-0.5,2.5c-0.4,0.6-1,0.9-1.7,0.9c-0.2,0-0.3,0-0.4-0.2c-0.1-0.2-0.2-0.6-0.2-0.8c0-0.1,0-0.2,0.2-0.2
					c0.1,0,0.2,0,0.3,0c0.5,0,0.6,0,0.8-0.3c0.2-0.4,0.4-1.3,0.4-1.8c0-0.4-0.1-0.5-0.4-0.5c-0.3,0-0.3,0-0.4,0.3
					c-0.3,0.9-0.7,1.8-1.2,2.7c-0.1,0.2-0.4,0.7-0.6,0.8c0,0-0.1,0.1-0.1,0.1c-0.2,0-0.9-0.4-0.9-0.7c0-0.1,0.1-0.2,0.2-0.3
					c0.6-0.6,1.1-1.4,1.4-2.2c0,0,0-0.1,0-0.1c0-0.1,0-0.1-0.1-0.1c-0.1,0-0.6,0.2-0.7,0.2c0,0-0.1,0.1-0.2,0.1
					c-0.1,0-0.2-0.3-0.3-0.6c0-0.2-0.1-0.5-0.1-0.6c0-0.1,0.1-0.1,0.3-0.2c0.5,0,0.7-0.1,1.2-0.2c0.2,0,0.3-0.1,0.3-0.3
					c0-0.3,0.1-0.8,0.1-1.1V74.5z M30.4,75.2c0.2,0.2,0.4,0.5,0.6,0.8c0.1,0.2,0.7,1,0.7,1.1c0,0.3-0.7,0.7-1,0.7
					c-0.1,0-0.1-0.1-0.2-0.2c-0.3-0.6-0.6-1.3-1.1-1.8c0,0-0.1-0.1-0.1-0.1c0-0.2,0.6-0.6,0.8-0.6C30.3,75.1,30.3,75.2,30.4,75.2z
					 M31.2,74.6c0.2,0.2,0.4,0.4,0.4,0.5c0,0.2-0.4,0.5-0.5,0.5c0,0-0.1,0-0.1-0.1c-0.2-0.2-0.4-0.4-0.6-0.6c0,0-0.1-0.1-0.1-0.1
					c0-0.1,0.4-0.4,0.5-0.4C30.8,74.2,31,74.4,31.2,74.6z M31.8,73.8c0.1,0.1,0.6,0.5,0.6,0.6c0,0.2-0.4,0.5-0.5,0.5
					c0,0-0.1-0.1-0.1-0.1c-0.2-0.2-0.4-0.4-0.6-0.6c0,0-0.1-0.1-0.1-0.1c0-0.1,0.4-0.4,0.5-0.4C31.6,73.6,31.7,73.8,31.8,73.8z"/>
				<path class="st1" d="M37.7,75.3c0,0,0,0.1-0.1,0.1c-0.3,0.2-0.7,0.5-1,0.8c0,0-0.1,0.1-0.1,0.1c0,0.1,0.1,0.2,0.2,0.2
					c0,0,0.1,0,0.1,0c0.1,0,0.4,0,0.6,0.1c0.9,0.3,1.4,1,1.4,1.9c0,1.5-1.3,2.3-2.7,2.3c-0.8,0-1.8-0.3-1.8-1.2
					c0-0.6,0.6-1.1,1.2-1.1c0.4,0,0.8,0.2,1.1,0.5c0.1,0.2,0.1,0.2,0.2,0.4c0,0.1,0.1,0.2,0.2,0.2c0.2,0,0.6-0.4,0.6-0.9
					c0-0.7-0.6-1-1.2-1c-0.6,0-1.1,0.2-1.5,0.6c-0.3,0.3-0.7,0.7-1,1c-0.1,0.1-0.2,0.2-0.2,0.2c-0.2,0-0.8-0.7-0.8-0.8
					c0-0.1,0.1-0.2,0.2-0.3c0.2-0.2,1.5-1.5,1.8-1.8c0.2-0.2,0.3-0.3,0.4-0.4c0.1-0.1,0.1-0.1,0.1-0.2c0-0.1-0.1-0.1-0.2-0.1
					c0,0-0.9,0.2-1.1,0.2c0,0-0.1,0-0.1,0c-0.2,0-0.2-0.9-0.2-1.1v-0.1c0-0.1,0-0.1,0.3-0.1h0.2c0.5,0,1.7-0.1,2.1-0.3
					c0.2-0.1,0.3-0.1,0.3-0.1C37.1,74.3,37.7,75.1,37.7,75.3z M35.6,79.3c-0.1,0-0.3,0.1-0.3,0.2c0,0.2,0.3,0.3,0.5,0.3
					c0.1,0,0.2-0.1,0.2-0.2C36,79.6,35.8,79.3,35.6,79.3z"/>
				<path class="st1" d="M43.5,74.5c0.1,0,0.2,0.1,0.2,0.1c0,0.1-0.1,0.1-0.1,0.1c-0.1,0.1-0.2,0.3-0.2,0.5l0,0.2c0,0,0,0.1,0,0.1
					c0,0.1,0,0.1,0.1,0.2c0.1,0,0.2,0,0.2,0c0.2,0,0.5,0,0.7,0.2c0.5,0.3,0.7,0.8,0.7,1.4c0,0.7-0.1,1.9-0.5,2.5
					c-0.4,0.6-1,0.9-1.7,0.9c-0.2,0-0.3,0-0.4-0.2c-0.1-0.2-0.2-0.6-0.2-0.8c0-0.1,0-0.2,0.2-0.2s0.2,0,0.3,0c0.5,0,0.6,0,0.8-0.3
					c0.2-0.4,0.4-1.3,0.4-1.8c0-0.4-0.1-0.5-0.4-0.5c-0.3,0-0.3,0-0.4,0.3c-0.3,0.9-0.7,1.8-1.2,2.7c-0.1,0.2-0.4,0.7-0.6,0.8
					c0,0-0.1,0.1-0.1,0.1c-0.2,0-0.9-0.4-0.9-0.7c0-0.1,0.1-0.2,0.2-0.2c0.4-0.4,1-1.2,1.4-2.2c0-0.1,0-0.1,0-0.1
					c0-0.1,0-0.1-0.1-0.1c-0.1,0-0.6,0.2-0.7,0.2c0,0-0.1,0-0.2,0c-0.1,0-0.2-0.3-0.3-0.6c0-0.2-0.1-0.5-0.1-0.6
					c0-0.1,0.1-0.1,0.3-0.2c0.5,0,0.7-0.1,1.2-0.2c0.2,0,0.2-0.1,0.3-0.3c0-0.3,0.1-0.8,0.1-1.2v-0.1c0-0.1,0-0.2,0.1-0.2
					C42.5,74.2,43.4,74.5,43.5,74.5z M45.6,75.1c0.2,0.2,0.4,0.5,0.6,0.8c0,0,0,0.1,0.1,0.1c0.2,0.3,0.5,0.9,0.5,1
					c0,0.3-0.7,0.7-1,0.7c-0.1,0-0.2-0.1-0.2-0.2c-0.3-0.6-0.6-1.3-1.1-1.8c0,0-0.1-0.1-0.1-0.1c0-0.2,0.7-0.6,0.9-0.6
					C45.5,75,45.6,75.1,45.6,75.1z"/>
				<path class="st1" d="M51.1,74.3c0.1,0,0.1,0.1,0.1,0.1c0,0,0,0.1-0.1,0.1c-0.1,0.1-0.2,0.1-0.3,0.4l-0.1,0.4c0,0,0,0.1,0,0.1
					c0,0.2,0.1,0.2,0.4,0.2c0.2,0,0.4,0,0.6,0c0.2,0,0.2,0,0.2,0.2c0,0.2-0.1,0.5-0.1,0.7c-0.1,0.2-0.1,0.3-0.2,0.3
					c-0.2,0-0.8-0.1-1-0.1c0,0,0,0-0.1,0c-0.2,0-0.2,0.2-0.2,0.3l0,0.1c0,0,0,0.1,0,0.1c0,0.2,0.2,0.2,0.8,0.2c0.2,0,0.3,0,0.3,0.1
					c0,0.2-0.1,0.6-0.1,0.8c-0.1,0.2-0.1,0.3-0.3,0.3c-0.2,0-0.5,0-0.7-0.1c0,0,0,0-0.1,0c-0.2,0-0.2,0.2-0.2,0.3v0
					c0,0.2,0,0.4,0.1,0.5c0.1,0.3,0.5,0.4,0.8,0.4c0.3,0,0.6-0.1,0.9-0.2C52,79.4,52,79.2,52,79c0-0.4-0.1-0.8-0.2-1.1
					c0-0.1,0-0.1,0-0.2c0-0.1,0.1-0.1,0.3-0.2c0.2-0.1,0.6-0.2,0.7-0.2c0.1,0,0.2,0.1,0.3,0.4c0.1,0.4,0.3,1,0.3,1.4
					c0,0.6-0.2,1.1-0.7,1.4c-0.5,0.3-1.1,0.4-1.6,0.4c-1.4,0-2.1-0.8-2.1-2.2c0-0.1,0-0.3,0-0.4c0-0.2-0.1-0.2-0.2-0.3
					c-0.5-0.2-0.6-0.2-0.6-0.4s0.1-0.4,0.1-0.5c0.1-0.2,0.1-0.4,0.3-0.4c0.1,0,0.2,0,0.2,0.1c0.1,0.1,0.2,0.1,0.3,0.1
					c0.1,0,0.1,0,0.2-0.2c0-0.1,0.1-0.2,0.1-0.3c0-0.1-0.1-0.2-0.2-0.3c-0.7-0.2-0.7-0.3-0.7-0.4c0-0.2,0.2-1,0.4-1
					c0.1,0,0.2,0.1,0.3,0.1c0.1,0.1,0.4,0.2,0.4,0.2c0.1,0,0.2-0.1,0.2-0.2c0.1-0.2,0.2-0.6,0.3-0.9c0-0.1,0-0.2,0.1-0.2
					C50.1,73.9,51,74.2,51.1,74.3z"/>
			</g>
		</g>
		<g>
			<ellipse class="st2" cx="63.4" cy="80" rx="4.4" ry="3.8"/>
			<ellipse class="st2" cx="70" cy="83.7" rx="2.1" ry="1.8"/>
		</g>
	</g>
	<g>
		<g>
			<ellipse class="st3" cx="93.5" cy="28.5" rx="34.6" ry="28.5"/>
			<g>
				<ellipse class="st3" cx="107.5" cy="52.4" rx="4.4" ry="3.8"/>
				<ellipse class="st3" cx="105.3" cy="59.1" rx="2.1" ry="1.8"/>
			</g>
		</g>
		<g>
			<g>
				<path class="st1" d="M79.9,20c0,0.1,0.1,0.2,0.2,0.2h1.4c0.4,0,0.7,0,1.1,0c0.2,0,0.2,0.1,0.2,0.4V21c0,0.3,0,0.4-0.2,0.4
					c-0.4,0-0.7,0-1.1,0h-1.4c-0.1,0-0.2,0.1-0.2,0.2v1c0,0.2,0,0.4,0,0.6c0,1-1,1.1-1.8,1.1c-0.2,0-0.5,0-0.5-0.2
					c-0.1-0.2-0.1-0.6-0.1-0.8c0-0.1,0-0.2,0.2-0.2c0.1,0,0.1,0,0.2,0c0.1,0,0.2,0,0.3,0c0.5,0,0.5-0.1,0.5-0.4v-1
					c0-0.1-0.1-0.2-0.2-0.2h-1.4c-0.4,0-0.7,0-1.1,0c-0.2,0-0.2-0.1-0.2-0.4v-0.5c0-0.3,0-0.4,0.2-0.4c0.4,0,0.7,0,1.1,0h1.4
					c0.2,0,0.3-0.1,0.3-0.2v-0.1c0-0.2,0-0.4,0-0.5c0,0,0-0.1,0-0.1c0-0.1,0.1-0.1,0.2-0.1H79c0.2,0,0.3-0.1,0.4-0.2
					c0,0,0,0,0.1-0.1c0.2-0.1,0.4-0.4,0.4-0.4c0-0.1-0.1-0.1-0.2-0.1H78c-0.3,0-0.7,0-1,0c-0.2,0-0.2-0.1-0.2-0.4v-0.5
					c0-0.3,0-0.4,0.2-0.4c0.3,0,0.6,0,1,0h2.3c0.4,0,0.7,0,1.1,0c0.2,0,0.3,0,0.5,0.2c0.1,0.1,0.3,0.3,0.3,0.4c0,0.4-1.7,1.5-2,1.7
					C80,19.7,79.9,19.8,79.9,20L79.9,20z"/>
				<path class="st1" d="M84.4,22.5c0.1-0.1,0.1-0.1,0.1-0.3v-1.1c0-0.2-0.1-0.2-0.2-0.2c-0.1,0-0.2,0-0.4,0c-0.2,0-0.2-0.1-0.2-0.3
					v-0.4c0-0.2,0-0.3,0.2-0.3c0.1,0,0.3,0,0.5,0h0.3c0.2,0,0.3,0,0.5,0c0.3,0,0.5,0.1,0.5,0.4c0,0.2,0,0.4,0,0.7v1.2
					c0,0.3,0,0.6,0.3,0.8C86.2,23,86.7,23,87,23c0.5,0,0.9,0,1.3,0c0.6,0,1.3,0,1.9,0c0.1,0,0.5,0,0.6,0c0.2,0,0.2,0.1,0.2,0.3
					c0,0.8-0.2,0.8-0.7,0.8h-1.8c-0.6,0-2.1,0-2.7-0.2c-0.2-0.1-0.4-0.2-0.5-0.4c0,0-0.1-0.1-0.1-0.1c-0.1,0-0.1,0.1-0.2,0.1
					c-0.1,0.1-0.3,0.2-0.5,0.3c-0.2,0.1-0.2,0.1-0.2,0.2c0,0.1-0.1,0.1-0.1,0.1c-0.1,0-0.1-0.1-0.3-0.5c0-0.1-0.1-0.3-0.2-0.4
					c0-0.1-0.1-0.2-0.1-0.3c0-0.1,0.1-0.1,0.2-0.2c0,0,0.1,0,0.1,0C84.1,22.6,84.3,22.5,84.4,22.5z M84.5,17.1
					c0.1,0,0.1,0.1,0.2,0.2c0.2,0.2,0.4,0.4,0.6,0.7c0.1,0.1,0.4,0.4,0.4,0.6c0,0.2-0.5,0.6-0.7,0.6c-0.1,0-0.1,0-0.2-0.1
					c-0.3-0.4-0.6-0.8-1-1.1c0,0,0-0.1,0-0.1C83.8,17.6,84.4,17.1,84.5,17.1z M89.8,17.6c0.3,0,0.5,0,0.8,0c0.1,0,0.2,0.1,0.2,0.2
					v0.2c0,0.2,0,0.3-0.2,0.3c-0.3,0-0.5,0-0.8,0H89c-0.1,0-0.1,0-0.1,0.1v0.1c0,0.1,0,0.1,0.1,0.1h0.4c0.2,0,0.4,0,0.6,0
					c0.2,0,0.4,0.1,0.4,0.3c0,0.2,0,0.4,0,0.6v0.7c0,0.2,0,0.4,0,0.6c0,0.3-0.1,0.3-0.4,0.3c-0.2,0-0.4,0-0.7,0H89
					c-0.1,0-0.1,0-0.1,0.1v0c0,0.1,0,0.1,0.1,0.1h0.9c0.3,0,0.5,0,0.8,0c0.2,0,0.2,0.1,0.2,0.2v0.3c0,0.2,0,0.2-0.2,0.2
					c-0.3,0-0.5,0-0.8,0h-0.7c-0.2,0-0.3,0.1-0.3,0.2c0,0.1,0,0.3,0,0.4c0,0.2-0.1,0.2-0.3,0.2h-0.5c-0.2,0-0.3,0-0.3-0.2
					c0-0.1,0-0.3,0-0.4c0-0.2-0.1-0.2-0.3-0.2h-0.6c-0.3,0-0.5,0-0.8,0c-0.2,0-0.2-0.1-0.2-0.2v-0.1c0-0.3,0-0.4,0.2-0.4
					c0.3,0,0.5,0,0.8,0h0.8c0.1,0,0.1,0,0.1-0.1v0c0-0.1,0-0.1-0.1-0.1h-0.4c-0.2,0-0.4,0-0.7,0c-0.2,0-0.4-0.1-0.4-0.3
					c0-0.2,0-0.4,0-0.6v-0.7c0-0.2,0-0.4,0-0.6c0-0.3,0.1-0.3,0.4-0.3c0.2,0,0.4,0,0.7,0h0.4c0.1,0,0.1,0,0.1-0.1v-0.1
					c0-0.1,0-0.1-0.1-0.1H87c-0.3,0-0.5,0-0.8,0c-0.2,0-0.2-0.1-0.2-0.2V18c0-0.3,0-0.4,0.2-0.4c0.3,0,0.5,0,0.8,0h0.5
					c0.2,0,0.2-0.1,0.2-0.2c0,0,0-0.1,0-0.2c0-0.1,0-0.1,0-0.1c0-0.1,0.1-0.1,0.2-0.1c0.2,0,0.6,0,0.9,0c0.1,0,0.3,0,0.3,0.1
					c0,0,0,0.1-0.1,0.1c0,0.1-0.1,0.1-0.1,0.2c0,0.1,0.1,0.2,0.3,0.2H89.8z M87.7,19.6c0.1,0,0.1,0,0.1-0.1v-0.1
					c0-0.1,0-0.1-0.1-0.1h-0.3c-0.1,0-0.1,0-0.1,0.1v0.1c0,0.1,0,0.1,0.1,0.1H87.7z M87.5,20.2c-0.1,0-0.1,0.1-0.1,0.1v0
					c0,0.1,0.1,0.1,0.1,0.1h0.2c0.1,0,0.1-0.1,0.1-0.1v0c0-0.1,0-0.1-0.1-0.1H87.5z M89.3,19.6c0.1,0,0.1,0,0.1-0.1v-0.1
					c0-0.1,0-0.1-0.1-0.1H89c-0.1,0-0.1,0-0.1,0.1v0.1c0,0.1,0,0.1,0.1,0.1H89.3z M89,20.2c-0.1,0-0.1,0.1-0.1,0.1v0
					c0,0.1,0.1,0.1,0.1,0.1h0.2c0.1,0,0.1-0.1,0.1-0.1v0c0-0.1-0.1-0.1-0.1-0.1H89z"/>
				<path class="st1" d="M94.9,17.2c0.1,0,0.1,0,0.1,0.1c0,0.1,0,0.1-0.1,0.1c-0.1,0.1-0.1,0.1-0.1,0.4c0,0.1-0.1,0.6-0.1,0.6
					c0,0.1,0,0.1,0.1,0.2c0.1,0.1,0.2,0.3,0.2,0.4c0,0,0,0.1,0,0.1c0,0,0,0.1,0,0.1c0,0,0.1-0.1,0.2-0.2c0.3-0.3,0.8-0.7,1.3-0.7
					c0.3,0,0.7,0.1,0.9,0.4c0.2,0.3,0.2,0.6,0.2,0.9c0,0.4,0,0.9,0,1.3c0,0.3,0,0.5,0,0.8c0,0.1,0,0.3,0.1,0.3
					c0.1,0,0.4-0.4,0.5-0.4c0-0.1,0.1-0.1,0.2-0.1c0.1,0,0.2,0.3,0.3,0.3c0.1,0.1,0.3,0.5,0.3,0.7c0,0.1-0.1,0.2-0.3,0.3
					c-0.4,0.3-0.9,0.7-1.4,0.7c-0.3,0-0.5-0.2-0.7-0.4c-0.2-0.3-0.2-0.8-0.2-1.2c0-0.8,0.1-1.6,0.1-2c0-0.1,0-0.2-0.2-0.2
					c-0.3,0-1.2,0.9-1.4,1.1c-0.1,0.1-0.2,0.2-0.2,0.4c0,0.7,0,1.7,0.1,2.3c0,0,0,0.1,0,0.1c0,0.1-0.1,0.1-0.1,0.1
					c-0.3,0-0.4,0-0.7,0c-0.3,0-0.4,0-0.4-0.2c0,0,0-0.6,0-0.8c0-0.1,0-0.1-0.1-0.1c-0.1,0-0.2,0.3-0.3,0.4c0,0,0,0.1,0,0.1
					c0,0-0.1,0.1-0.1,0.1c-0.2,0-0.8-0.6-0.8-0.7c0-0.1,0.1-0.2,0.2-0.3c0.4-0.6,0.8-1.3,1.2-1.9c0-0.1,0.1-0.1,0.1-0.2
					c0-0.1,0-0.2-0.1-0.2c-0.1,0-0.2,0-0.3,0.1c-0.2,0.1-0.5,0.2-0.6,0.2c-0.2,0-0.3-0.2-0.3-0.3c-0.1-0.1-0.2-0.6-0.2-0.8
					c0-0.1,0.1-0.2,0.3-0.2c0.2,0,1.1-0.2,1.2-0.3c0.1-0.1,0.1-0.2,0.1-0.3v-0.1c0-0.3,0-0.6,0-1c0-0.1,0-0.2,0-0.2
					c0-0.1,0.1-0.1,0.2-0.1C93.9,17.1,94.7,17.2,94.9,17.2z"/>
				<path class="st1" d="M103.1,17.2c0.1,0,0.2,0.1,0.2,0.1c0,0,0,0.1-0.1,0.1c-0.1,0.1-0.1,0.2-0.2,0.4c0,0.1,0,0.2-0.1,0.3
					c0,0,0,0,0,0.1c0,0.1,0.1,0.1,0.2,0.1c0.1,0,0.5-0.2,0.6-0.2c0.1,0,0.1-0.1,0.2-0.1c0.2,0,0.2,0.8,0.2,1c0,0.1,0,0.2-0.2,0.2
					c-0.3,0.1-0.8,0.2-1.1,0.3c-0.3,0.1-0.4,0.1-0.5,0.4c-0.3,0.8-1,2.7-1.5,3.5c-0.1,0.1-0.1,0.2-0.2,0.2c-0.1,0-1-0.4-1-0.6
					c0-0.1,0.1-0.2,0.2-0.3c0.5-0.8,1-1.7,1.3-2.6c0,0,0.1-0.1,0.1-0.2c0-0.1-0.1-0.1-0.2-0.1c-0.2,0-0.4,0-0.5,0
					c-0.2,0-0.3,0-0.3-0.2c0-0.2-0.1-0.7-0.1-0.8c0-0.1,0-0.2,0.1-0.2c0.1,0,0.4,0,0.9,0c0.4,0,0.5,0,0.6-0.2
					c0.1-0.3,0.2-1.2,0.2-1.5c0-0.1,0-0.1,0.1-0.1C102,16.9,102.9,17.1,103.1,17.2z M102.7,22.1c0.3,0.4,0.9,0.5,1.4,0.5
					c0.4,0,0.8,0,1.2-0.2c0,0,0.1,0,0.1,0c0.1,0,0.1,0.2,0.1,0.4v0.2c0,0.4,0,0.5-0.1,0.6c-0.2,0.1-1,0.1-1.4,0.1
					c-0.6,0-1.3-0.1-1.8-0.4c-0.1-0.1-0.4-0.3-0.4-0.5c0-0.1,0.3-0.5,0.4-0.6c0.1-0.1,0.2-0.2,0.3-0.2
					C102.6,22,102.7,22.1,102.7,22.1z M103.5,19.7c0.7,0,1.2,0.1,1.8,0.2c0.1,0,0.2,0.1,0.2,0.2c0,0.2-0.1,0.7-0.2,0.9
					c0,0.1-0.1,0.1-0.2,0.1c-0.1,0-0.1,0-0.2-0.1c-0.5-0.2-0.9-0.2-1.4-0.2h-0.3c-0.2,0-0.2,0-0.2-0.2
					C103,19.7,103.2,19.7,103.5,19.7z M104.8,17.6c0.1,0.1,0.6,0.6,0.6,0.7c0,0.2-0.4,0.4-0.5,0.4c0,0-0.1,0-0.1-0.1
					c-0.2-0.2-0.4-0.4-0.6-0.6c0,0-0.1-0.1-0.1-0.1c0-0.1,0.4-0.4,0.5-0.4C104.7,17.6,104.8,17.6,104.8,17.6z M105.7,17.1
					c0.1,0.1,0.6,0.6,0.6,0.7c0,0.1-0.4,0.4-0.5,0.4c0,0-0.1-0.1-0.1-0.1c-0.2-0.3-0.4-0.4-0.6-0.7c0,0,0,0,0-0.1
					c0-0.1,0.4-0.4,0.5-0.4C105.6,17,105.7,17,105.7,17.1z"/>
				<path class="st1" d="M109,17.4c0.3,0,0.5-0.1,0.6-0.1c0.2,0,0.2,0,0.3,0.6c0,0.5,0.1,0.8,0.1,1c0,0.1,0.1,0.2,0.2,0.2
					c0.2,0,0.9-0.4,1-0.5c0.1-0.1,0.5-0.3,0.6-0.3c0.1,0,0.3,0.2,0.4,0.4c0.1,0.1,0.3,0.5,0.3,0.7c0,0.1-0.1,0.1-0.3,0.2
					c0,0-0.1,0-0.1,0c-0.7,0.2-1.7,0.8-2.5,1.3c-0.4,0.2-0.9,0.6-0.9,1c0,0.5,1,0.5,1.4,0.5c0.4,0,0.8,0,1.2-0.1
					c0.2,0,0.7-0.1,0.8-0.2c0,0,0.1,0,0.1,0c0.1,0,0.1,0.1,0.1,0.2c0,0.2,0,0.5,0,0.7c0,0.2,0,0.3-0.2,0.4c-0.4,0.1-1.8,0.1-2.2,0.1
					c-0.6,0-1.2,0-1.7-0.4c-0.5-0.3-0.8-0.8-0.8-1.4c0-0.8,0.6-1.5,1.2-1.9c0.1-0.1,0.2-0.1,0.2-0.2c0-0.1,0-0.1,0-0.2
					c-0.1-0.2-0.1-0.4-0.2-0.7c-0.1-0.4-0.2-0.8-0.3-1.2c0,0,0-0.1,0-0.1C108.3,17.5,108.4,17.5,109,17.4z"/>
				<path class="st1" d="M68.9,34.1c0,0.3,0,0.6,0,0.9c0,0.1,0,0.2-0.4,0.2h-0.4c-0.3,0-0.4-0.1-0.4-0.2c0-0.3,0-0.6,0-0.9v-1.1
					c0,0,0-0.1-0.1-0.1c0,0,0,0-0.1,0c0,0-0.1,0-0.1,0c-0.1,0-0.2-0.1-0.3-0.3c-0.2-0.2-0.3-0.5-0.3-0.6c0-0.1,0.1-0.2,0.2-0.3
					c0.5-0.5,0.9-1.1,1.2-1.9c0.1-0.2,0.1-0.3,0.2-0.3c0.1,0,0.2,0,0.2,0c0,0,0,0,0.1,0c0.1,0,0.1,0,0.1-0.1c0-0.1-0.1-0.1-0.1-0.1
					h-0.4c-0.3,0-0.6,0-1,0c-0.2,0-0.2-0.1-0.2-0.3v-0.5c0-0.2,0-0.3,0.2-0.3c0.3,0,0.6,0,1,0h0.3c0.2,0,0.3-0.1,0.3-0.2
					c0,0,0-0.2,0-0.2c0,0,0,0,0-0.1c0-0.1,0.1-0.1,0.2-0.1c0.2,0,0.8,0,1,0.1c0.2,0,0.3,0,0.3,0.1c0,0,0,0-0.1,0.1
					c-0.1,0-0.1,0.1-0.1,0.2c0,0.1,0.1,0.2,0.2,0.2h0.8c0.1,0,0.3,0,0.3-0.2c0,0,0-0.2,0-0.2c0,0,0,0,0-0.1c0-0.1,0.1-0.1,0.2-0.1
					c0.2,0,0.6,0,0.9,0.1c0.2,0,0.3,0,0.3,0.1c0,0,0,0-0.1,0.1c-0.1,0-0.1,0.1-0.1,0.2c0,0.1,0.1,0.2,0.2,0.2H73c0.3,0,0.6,0,1,0
					c0.2,0,0.2,0.1,0.2,0.3v0.5c0,0.2,0,0.3-0.2,0.3c-0.3,0-0.6,0-1,0h-0.3c-0.2,0-0.2,0.1-0.2,0.2v0.1c0,0.2-0.1,0.2-0.4,0.2h-0.5
					c-0.3,0-0.4,0-0.4-0.2c0,0,0-0.1,0-0.1c0-0.2-0.1-0.2-0.2-0.2h-0.8c-0.1,0-0.2,0.1-0.2,0.2v0.1c0,0.2-0.1,0.2-0.4,0.2h0
					c0,0-0.1,0-0.1,0.1c0,0.1-0.1,0.1-0.1,0.1c0,0-0.1,0.1-0.2,0.3c-0.1,0.1-0.2,0.5-0.3,0.6c0,0.1-0.1,0.1-0.1,0.1
					c0,0.1,0,0.1,0.1,0.1c0,0,0.1,0,0.1,0.1S69,31.5,69,31.5c-0.1,0.1-0.1,0.2-0.1,0.4V34.1z M69.3,32.5c0-0.2,0-0.4,0-0.6
					c0-0.2,0.1-0.3,0.3-0.3c0.2,0,0.5,0,0.7,0H71c0.2,0,0.5,0,0.7,0c0.2,0,0.4,0,0.4,0.3c0,0.2,0,0.4,0,0.6V33c0,0.2,0,0.4,0,0.6
					c0,0.2-0.1,0.3-0.3,0.3c-0.2,0-0.5,0-0.7,0h-0.4c-0.1,0-0.2,0.1-0.2,0.2c0,0,0,0,0,0.1c0,0.2-0.1,0.2-0.3,0.2h-0.5
					c-0.2,0-0.3,0-0.3-0.2c0-0.2,0-0.5,0-0.8V32.5z M73.6,33.7c0,0.2,0,0.3,0,0.5c0,1-0.7,1.1-1.5,1.1c-0.2,0-0.4,0-0.4-0.2
					c-0.1-0.1-0.1-0.5-0.1-0.6c0-0.1,0-0.3,0.2-0.3c0,0,0.1,0,0.2,0c0.1,0,0.2,0,0.3,0c0.3,0,0.3-0.1,0.3-0.4v-2.2
					c0-0.1-0.1-0.2-0.2-0.2h-1.8c-0.3,0-0.6,0-0.9,0c-0.2,0-0.2-0.1-0.2-0.3v-0.5c0-0.2,0-0.3,0.2-0.3c0.3,0,0.6,0,0.9,0H73
					c0.3,0,0.6,0,0.9,0c0.2,0,0.2,0.1,0.2,0.3V31c0,0.2,0,0.3-0.3,0.3h-0.1c-0.1,0-0.2,0.1-0.2,0.3V33.7z M70.8,32.9
					c0.1,0,0.2-0.1,0.2-0.2v-0.1c0-0.1-0.1-0.2-0.2-0.2h-0.3c-0.1,0-0.2,0.1-0.2,0.2v0.1c0,0.1,0.1,0.2,0.2,0.2H70.8z"/>
				<path class="st1" d="M77.4,33.8c0,0.4,0,0.7,0,1.1c0,0.2-0.1,0.2-0.3,0.2h-0.5c-0.2,0-0.3,0-0.3-0.2c0-0.4,0-0.8,0-1.1v-0.5
					c0-0.1,0-0.3-0.2-0.3c-0.1,0-0.4,0.1-0.5,0.1c-0.1,0-0.1,0.1-0.1,0.1c0,0-0.1,0.1-0.1,0.1c-0.1,0-0.1-0.1-0.2-0.3
					c-0.1-0.3-0.2-0.8-0.2-0.9c0-0.1,0.1-0.1,0.4-0.2c0.1,0,0.2,0,0.3-0.1c0.2,0,0.4-0.1,0.4-0.1c0.1-0.1,0.1-0.1,0.1-0.3v-1.1
					c0-0.1-0.1-0.1-0.1-0.1h0c-0.1,0-0.1,0.1-0.1,0.6c0,0.2-0.1,0.3-0.3,0.3c-0.1,0-0.3,0-0.4-0.1c-0.1,0-0.3-0.1-0.3-0.2
					c0,0,0-0.2,0-0.3c0.1-0.5,0.2-1.1,0.2-1.5c0-0.4,0-0.5,0.1-0.5c0.1,0,0.5,0.1,0.7,0.1c0.1,0,0.2,0,0.2,0.1c0,0,0,0.1-0.1,0.1
					C76.1,29,76,29,76,29.3c0,0.1,0,0.1,0.1,0.1h0c0.1,0,0.1,0,0.1-0.1v-0.4c0-0.2,0-0.5,0-0.7c0,0,0-0.1,0-0.1
					c0-0.1,0.1-0.1,0.2-0.1c0.1,0,0.7,0.1,0.9,0.1c0.2,0,0.3,0,0.3,0.1c0,0,0,0.1-0.1,0.1c0,0-0.1,0.2-0.1,0.3v0.5
					c0,0.2,0.1,0.2,0.2,0.2c0.1,0,0.1,0,0.2,0c0.2,0,0.2,0.1,0.2,0.2v0.2c0,0.1,0,0.3,0.1,0.3c0.1,0,0.5-1.4,0.5-1.7
					c0.1-0.3,0.1-0.4,0.2-0.4c0.1,0,0.7,0.2,0.9,0.2c0.1,0,0.1,0.1,0.1,0.1c0,0.1-0.1,0.1-0.1,0.1c-0.1,0.1-0.1,0.2-0.2,0.3
					c0,0.1,0,0.2-0.1,0.3c0,0.1,0,0.1,0,0.2c0,0.1,0.1,0.2,0.3,0.2h1.2c0.3,0,0.6,0,0.9,0c0.4,0,0.4,0.2,0.4,0.7
					c0,1.3-0.1,3.3-0.4,4.2c-0.1,0.4-0.2,0.6-0.6,0.8c-0.4,0.2-0.7,0.2-1.1,0.2c-0.4,0-0.6,0-0.6-0.6c0-0.1,0-0.1-0.1-0.1
					c-0.1,0-0.1,0-0.1,0.1c-0.2,0.2-0.3,0.4-0.5,0.6c0,0-0.1,0.1-0.2,0.1c-0.2,0-0.6-0.3-0.6-0.5c0-0.1,0.1-0.1,0.1-0.2
					c0.8-0.8,1.5-1.8,1.9-2.9c0.1-0.2,0.2-0.8,0.2-1c0-0.1,0-0.1-0.1-0.1c-0.1,0-0.1,0.1-0.1,0.2c-0.2,0.8-0.6,1.8-1,2.4
					c-0.1,0.1-0.6,0.9-0.7,0.9c-0.1,0-0.6-0.3-0.6-0.5c0-0.1,0.1-0.2,0.1-0.2c0.5-0.5,0.9-1.2,1.1-1.9c0.1-0.1,0.3-0.7,0.3-0.8
					c0,0,0-0.1-0.1-0.1s-0.1,0.1-0.1,0.1c-0.1,0.2-0.2,0.4-0.3,0.6c-0.1,0.2-0.2,0.4-0.3,0.4c-0.1,0-0.1,0-0.2,0c0,0,0,0-0.1,0
					c0,0,0,0,0,0.1c0,0,0,0.2,0,0.2c0,0.1,0,0.2,0,0.3c0,0.2-0.1,0.3-0.4,0.4c-0.2,0.1-0.2,0.2-0.2,0.3V33.8z M77.4,31.3
					c0,0.1,0,0.2,0.1,0.2c0,0,0.1,0,0.1,0c0,0,0.1,0,0.1-0.1c0,0,0,0,0-0.1c0,0-0.1-0.1-0.1-0.2c0,0,0.1-0.1,0.1-0.2
					c0.1-0.1,0.3-0.4,0.3-0.5s-0.1-0.1-0.3-0.1c-0.1,0-0.2,0.1-0.2,0.3V31.3z M80.8,30.8c-0.2,1-0.6,2.1-1.2,3
					c0,0.1-0.1,0.1-0.1,0.2c0,0.1,0,0.1,0.6,0.1c0.4,0,0.5-0.3,0.5-0.7c0.1-0.8,0.2-1.8,0.2-2.6v-0.1c0,0,0-0.1,0-0.1
					S80.8,30.8,80.8,30.8z"/>
				<path class="st1" d="M85.4,28.5c0-0.1,0-0.2,0.1-0.2c0.1,0,1,0.2,1.1,0.3c0.1,0,0.2,0,0.2,0.1c0,0.1-0.1,0.1-0.1,0.1
					c-0.1,0.1-0.2,0.3-0.2,0.5l0,0.1c0,0,0,0.1,0,0.2c0,0.2,0.2,0.2,0.3,0.2c0.2,0,0.4,0,0.7,0.2c0.6,0.3,0.7,0.8,0.7,1.4
					c0,0.7-0.2,1.9-0.5,2.5c-0.4,0.6-1,0.9-1.7,0.9c-0.2,0-0.3,0-0.4-0.2c-0.1-0.2-0.2-0.6-0.2-0.8c0-0.1,0-0.2,0.2-0.2
					c0.1,0,0.2,0,0.3,0c0.5,0,0.6,0,0.8-0.3c0.2-0.4,0.4-1.3,0.4-1.8c0-0.4-0.1-0.5-0.4-0.5c-0.3,0-0.3,0-0.4,0.3
					c-0.3,0.9-0.7,1.8-1.2,2.7c-0.1,0.2-0.4,0.7-0.6,0.8c0,0-0.1,0.1-0.1,0.1c-0.2,0-0.9-0.4-0.9-0.7c0-0.1,0.1-0.2,0.2-0.3
					c0.6-0.6,1.1-1.4,1.4-2.2c0,0,0-0.1,0-0.1c0-0.1,0-0.1-0.1-0.1s-0.6,0.2-0.7,0.2c0,0-0.1,0.1-0.2,0.1c-0.1,0-0.2-0.3-0.3-0.6
					c0-0.2-0.1-0.5-0.1-0.6c0-0.1,0.1-0.1,0.3-0.2c0.5,0,0.7-0.1,1.2-0.2c0.2,0,0.3-0.1,0.3-0.3c0-0.3,0.1-0.8,0.1-1.1V28.5z
					 M88.6,29.3c0.2,0.2,0.4,0.5,0.6,0.8c0.1,0.2,0.7,1,0.7,1.1c0,0.3-0.7,0.7-1,0.7c-0.1,0-0.1-0.1-0.2-0.2
					c-0.3-0.6-0.6-1.3-1.1-1.8c0,0-0.1-0.1-0.1-0.1c0-0.2,0.6-0.6,0.8-0.6C88.5,29.2,88.5,29.3,88.6,29.3z M89.4,28.7
					c0.2,0.2,0.4,0.4,0.4,0.5c0,0.2-0.4,0.5-0.5,0.5c0,0-0.1,0-0.1-0.1c-0.2-0.2-0.4-0.4-0.6-0.6c0,0-0.1-0.1-0.1-0.1
					c0-0.1,0.4-0.4,0.5-0.4C89.1,28.3,89.2,28.5,89.4,28.7z M90,27.9c0.1,0.1,0.6,0.5,0.6,0.6c0,0.2-0.4,0.5-0.5,0.5
					c0,0-0.1-0.1-0.1-0.1c-0.2-0.2-0.4-0.4-0.6-0.6c0,0-0.1-0.1-0.1-0.1c0-0.1,0.4-0.4,0.5-0.4C89.8,27.7,89.9,27.8,90,27.9z"/>
				<path class="st1" d="M94,29.5c-0.1,0-0.2,0-0.4,0.1c-0.3,0.2-1.6,0.9-1.9,0.9c-0.2,0-0.6-0.6-0.6-0.7c0-0.1,0.1-0.1,0.3-0.2
					c0.9-0.3,2.1-0.8,2.7-1.5c0.1-0.1,0.1-0.1,0.2-0.1s0.9,0.2,1,0.3c0.1,0,0.2,0,0.2,0.1c0,0.1-0.1,0.1-0.2,0.1
					c-0.1,0-0.1,0-0.2,0.1c0,0,0,0,0,0.1c0,0.1,0.1,0.1,0.2,0.1h0.7c0.3,0,0.6,0,0.9,0c0.3,0,0.4,0.1,0.5,0.3
					c0.1,0.1,0.2,0.2,0.2,0.3c0,0.3-1.3,1.1-1.6,1.3c-0.1,0-0.2,0.1-0.2,0.2c0,0.1,0.2,0.2,0.6,0.3c0.1,0,0.2,0.1,0.2,0.1
					c0,0.1-0.1,0.1-0.2,0.1c-0.2,0-0.3,0.2-0.3,0.2c0,0.1,0,0.1,0.2,0.1h0.1c0.3,0,0.7,0,1,0c0.3,0,0.3,0,0.5,0.2
					c0.1,0.1,0.2,0.2,0.2,0.4c0,0.1-0.2,0.3-0.2,0.4c-0.5,0.6-1.2,1.1-1.9,1.5c-1.2,0.6-2.5,1-3.8,1.2c-0.1,0-0.3,0-0.4,0
					c-0.2,0-0.3-0.1-0.3-0.3c-0.1-0.2-0.2-0.4-0.2-0.6c0-0.2,0.1-0.2,0.3-0.2c0.4,0,1.3-0.2,2-0.3c0.3-0.1,0.5-0.1,0.5-0.2
					c0-0.1-0.1-0.2-0.2-0.2c0,0-0.1-0.1-0.1-0.2c0-0.2,0.6-0.5,0.8-0.5c0.1,0,0.4,0.2,0.4,0.3c0.1,0.1,0.2,0.2,0.2,0.2
					c0.1,0,1-0.5,1-0.7c0-0.1-0.2-0.1-0.3-0.1H95c-0.3,0-0.4,0.1-0.7,0.2c-0.3,0.2-1.6,0.8-1.9,0.8c-0.2,0-0.6-0.5-0.6-0.8
					c0-0.1,0.1-0.2,0.2-0.2c0.7-0.2,1.2-0.4,1.8-0.7c0.3-0.2,0.6-0.3,0.9-0.5c0,0,0.1,0,0.1-0.1c0,0,0,0,0,0c-0.1,0-0.3,0.1-0.3,0.1
					c-0.8,0.3-1.6,0.6-2.4,0.8c-0.1,0-0.3,0.1-0.4,0.1c-0.3,0-0.5-0.6-0.5-0.8c0-0.2,0.1-0.2,0.3-0.2c0.4-0.1,0.8-0.2,1.2-0.3
					c0.3-0.1,0.4-0.1,0.4-0.2c0-0.1,0-0.1-0.1-0.2c0,0-0.2-0.2-0.2-0.2c0-0.2,0.6-0.5,0.8-0.5c0.1,0,0.4,0.2,0.5,0.3
					c0.1,0.1,0.1,0.1,0.2,0.1c0.1,0,0.1,0,0.2-0.1c0.1-0.1,0.8-0.5,0.8-0.6c0-0.1-0.2-0.1-0.4-0.1H94z"/>
				<path class="st1" d="M100.9,29.5c0.1,0,0.2,0,0.2,0.1c0,0,0,0.1-0.1,0.1c-0.1,0.1-0.1,0.2-0.2,0.4c-0.1,0.4-0.1,0.8-0.1,1.1
					c0,0.5,0.1,1.1,0.3,1.5c0.1,0.1,0.2,0.4,0.4,0.4c0.2,0,0.4-0.3,0.4-0.5c0.1-0.1,0.1-0.2,0.2-0.2c0.2,0,0.8,0.5,0.8,0.6
					c0,0.2-0.4,0.6-0.5,0.8c-0.3,0.3-0.6,0.6-1,0.6c-0.5,0-1-0.4-1.3-0.8c-0.6-0.8-0.6-2-0.6-3c0-0.2,0-1.1,0-1.2
					c0-0.1,0-0.1,0.1-0.1C99.8,29.3,100.7,29.5,100.9,29.5z M103.8,29.3c0.2,0,0.8,0.5,1.2,1.1c0.3,0.5,0.5,1.1,0.6,1.6
					c0,0.1,0,0.3,0,0.4c0,0.2,0,0.2-0.2,0.3c-0.2,0.1-0.5,0.1-0.8,0.1c-0.3,0-0.3-0.1-0.3-0.4c-0.1-1-0.4-1.7-1.2-2.3
					c0,0-0.1-0.1-0.1-0.1C103.1,29.8,103.6,29.3,103.8,29.3z"/>
				<path class="st1" d="M109.4,28.7c0.1,0,0.2,0,0.2,0.1c0,0,0,0.1-0.1,0.1c-0.1,0.1-0.1,0.2-0.2,0.4c-0.2,1-0.3,2-0.3,3
					c0,0.6,0,1.3,0.6,1.3c0.5,0,1-0.3,1.3-0.7c0.3-0.3,0.4-0.8,0.5-1.2c0-0.2,0.1-0.3,0.2-0.3c0.2,0,0.4,0.2,0.5,0.3
					c0.1,0.1,0.4,0.3,0.4,0.5c0,0.2-0.2,0.8-0.3,1c-0.5,0.9-1.4,1.6-2.5,1.6c-0.6,0-1.2-0.2-1.5-0.7c-0.4-0.5-0.4-1.4-0.4-2
					c0-0.9,0.1-1.9,0.1-2.8c0-0.2,0-0.4,0-0.6c0-0.2,0-0.3,0.1-0.3C108.2,28.5,109.1,28.7,109.4,28.7z"/>
				<path class="st1" d="M115.7,31.5c0,0.7-0.4,1.2-1.2,1.2c-0.6,0-1.1-0.4-1.1-1c0-0.6,0.4-1.2,1.2-1.2
					C115.3,30.5,115.7,30.9,115.7,31.5z"/>
				<path class="st1" d="M118.7,31.5c0,0.7-0.4,1.2-1.2,1.2c-0.6,0-1.1-0.4-1.1-1c0-0.6,0.4-1.2,1.2-1.2
					C118.3,30.5,118.7,30.9,118.7,31.5z"/>
				<path class="st1" d="M121.8,31.5c0,0.7-0.4,1.2-1.2,1.2c-0.6,0-1.1-0.4-1.1-1c0-0.6,0.4-1.2,1.2-1.2
					C121.3,30.5,121.8,30.9,121.8,31.5z"/>
			</g>
		</g>
	</g>
	<g>
		<defs>
			<rect id="SVGID_1_" x="48.2" y="36.8" width="81.5" height="75.5"/>
		</defs>
		<clipPath id="SVGID_00000176730025484097831540000005985646861929025437_">
			<use xlink:href="#SVGID_1_"  style="overflow:visible;"/>
		</clipPath>
		<g style="clip-path:url(#SVGID_00000176730025484097831540000005985646861929025437_);">
			<g>
				<path class="st5" d="M79.9,93.3c-0.3,6.2-0.5,11.8-0.7,16.8c-0.1,2.4-0.5,4.2-0.6,6.4c0,1-0.4,2.4-0.4,3.4
					c0,0.8-0.3,1.6,0.6,1.6c0.5,0,1.1,0,1.6,0c2.2,0,5,0.4,7.1,0.8c2.8,0.6,5.6,1.3,8.5,1.2c2.6-0.1,6.1-0.7,8.7-1.9
					c0.7-0.3,1.6-0.7,2.2-1.2c0.3-0.2,0.2-0.1,0.2-0.4c0-0.2-0.1-0.4-0.1-0.5c-0.1-0.4-0.2-0.7-0.2-1.1c-0.2-1.6-0.3-3.3-0.3-5
					c0-2.3-0.1-4.7,0-7.2c0-1.3,0.1-2.7,0.1-4.1c0-0.7,0-1.4,0.2-2.1c0.1-0.6,0.3-1,0.3-1.6"/>
				<path class="st6" d="M95.1,124l-2.4-0.2l-2.3-0.3l-3.1-0.7l-4.7-0.7l-2.3-0.1l-1.6,0c-0.1,0-0.1,0-0.2,0l-0.6-0.2
					c-0.2-0.1-0.3-0.2-0.3-0.4l-0.1-0.7l0.3-2.5l0.2-0.9l0.3-3.2l0.1-0.8l0-0.8l0.1-0.9l0.2-3.8l0-0.7l0.4-9.2l0-0.7l0.2-3.9
					c0-0.3,0.2-0.4,0.5-0.4c0.3,0,0.4,0.2,0.4,0.5l-0.1,0.8l0,1.5l-0.1,1.5l0,0.7l-0.4,9.2l0,0.7l-0.2,3.9l-0.1,0.9l0,0.8l-0.3,3.2
					l-0.1,0.9l-0.3,1.7l-0.1,1.5l0,0.3l0.3,0.1l1.6,0l3.2,0.2l2.4,0.3l4.6,1l3.8,0.5l0.8,0l0.7,0l0.8,0l2.2-0.2l3.6-0.8l0.6-0.3
					l0.7-0.2l1.4-0.6l1.4-0.7l0.1-0.1l-0.1-0.3l-0.2-1.2l-0.2-1.4l0-0.8l-0.1-2.1l0-0.7l0-2.4l0-0.8l0-0.8l0-0.8l0-0.8l0-0.8l0-0.8
					l0.2-5.5l0.1-0.8l0.2-0.8l0.1-0.8c0-0.3,0.3-0.4,0.5-0.4c0.3,0,0.4,0.3,0.4,0.5l-0.1,0.8l-0.2,0.8L107,101l0,0.6l-0.2,4.8l0,0.8
					l0,0.8l0,0.8l0,0.8l0,0.8l0,0.8l0,2.4l0,0.7l0,0.7l0.1,1.4l0,0.7l0.4,2.4l0.2,0.5c0,0.1,0,0.3-0.1,0.4l-0.2,0.4
					c0,0.1-0.1,0.1-0.2,0.2l-2.3,1.2l-0.7,0.3l-0.8,0.2l-0.7,0.3l-3,0.7l-0.7,0.1l-2.3,0.3l-0.8,0L95.1,124z"/>
			</g>
			<g>
				<path class="st5" d="M110.3,99.9c-2.3,1.1-5,1.2-7.4,0.4c-0.2-0.1-0.3-0.1-0.4-0.3c0-0.2,0.1-0.4,0.3-0.5
					c0.7-0.5,1.4-0.9,2.2-1.2c1.6-0.7,3.4-1,5-0.5c0.3,0.1,1.5,0.3,1.8,0.4c0.2,0.1,0.8,0.4,0.9,0.6
					C112.8,99.3,110.6,99.7,110.3,99.9z"/>
				<path class="st6" d="M105.9,101.3l-1.6-0.2l-0.8-0.2l-0.8-0.3c-0.1,0-0.1,0-0.2-0.1l-0.4-0.3c-0.2-0.1-0.2-0.4-0.1-0.6l0.3-0.5
					c0-0.1,0.1-0.1,0.1-0.1l0.7-0.4l0.7-0.4l1.5-0.6l0.7-0.2l0.8-0.2l0.8-0.1l0.8,0l0.8,0.1l0.8,0.2l1.8,0.4c0.1,0,0.1,0,0.1,0.1
					l0.9,0.6c0.1,0.1,0.2,0.2,0.2,0.4s-0.1,0.3-0.2,0.4l-0.7,0.5c0,0-0.1,0-0.1,0.1l-1.7,0.5l-0.7,0.3l-0.8,0.3l-1.6,0.3l-0.8,0.1
					L105.9,101.3z M103.1,99.9l0.6,0.2l0.7,0.2l1.4,0.1l0.7,0l1.4-0.2l0.7-0.2l0.7-0.2l0.7-0.3c0,0,0,0,0.1,0l1.7-0.6l-0.3-0.2
					l-2.4-0.6l-0.7-0.1l-1.4,0.1l-0.7,0.1l-0.7,0.2l-1.4,0.6L103.1,99.9z"/>
			</g>
			<g>
				<g>
					<g>
						<g>
							<g>
								<path class="st1" d="M110,97l0-0.8l-0.2-2.1c0.1-0.1,0.1-0.2,0.1-0.3c0-0.3-0.3-0.5-0.5-0.5l-1.6,0.1l-1.6,0.2l-0.7,0.2
									l-0.8,0.1l-3,0.7c-0.3,0.1-0.4,0.3-0.4,0.6l0.1,0.7l0.1,0.8l0.3,2.2l0.2,1.6l0.1,0.7l0,0.7l-0.1,0.5l-0.4,0.1l-2.2,0.1
									l-0.8,0l-0.8,0l-0.8,0l-0.8,0l-1.6-0.1l-1.5,0l-0.8,0l-0.8,0l-0.8,0l-0.8,0l-3.1-0.2l-3.1-0.4l-0.8-0.2l-0.7-0.1l-0.7-0.2
									l-0.7-0.3c-0.2-0.1-0.5,0-0.6,0.2l-2.2,3.5c-0.1,0.1-0.1,0.3-0.1,0.5s0.2,0.3,0.3,0.3l2.3,0.6l0.8,0.3l7.5,2l1.5,0.3
									l0.8,0.2l3.9,0.6l5.6,0.6l4.1,0.1l1.7-0.1l0.6-0.1c0,0,0.1,0,0.1,0l0.6-0.2c0.1,0,0.1-0.1,0.2-0.1l0.5-0.5
									c0,0,0.1-0.1,0.1-0.1l0.4-0.6c0,0,0-0.1,0.1-0.1l0.3-0.7c0,0,0-0.1,0-0.1l0.8-4.6l0.2-2.3l0-1.5l0.1-0.8L110,97z"/>
							</g>
							<g>
								<path class="st1" d="M110,97l0-0.8l-0.2-2.1c0.1-0.1,0.1-0.2,0.1-0.3c0-0.3-0.3-0.5-0.5-0.5l-1.6,0.1l-1.6,0.2l-0.7,0.2
									l-0.8,0.1l-3,0.7c-0.3,0.1-0.4,0.3-0.4,0.6l0.1,0.7l0.1,0.8l0.3,2.2l0.2,1.6l0.1,0.7l0,0.7l-0.1,0.5l-0.4,0.1l-2.2,0.1
									l-0.8,0l-0.8,0l-0.8,0l-0.8,0l-1.6-0.1l-1.5,0l-0.8,0l-0.8,0l-0.8,0l-0.8,0l-3.1-0.2l-3.1-0.4l-0.8-0.2l-0.7-0.1l-0.7-0.2
									l-0.7-0.3c-0.2-0.1-0.5,0-0.6,0.2l-2.2,3.5c-0.1,0.1-0.1,0.3-0.1,0.5s0.2,0.3,0.3,0.3l2.3,0.6l0.8,0.3l7.5,2l1.5,0.3
									l0.8,0.2l3.9,0.6l5.6,0.6l4.1,0.1l1.7-0.1l0.6-0.1c0,0,0.1,0,0.1,0l0.6-0.2c0.1,0,0.1-0.1,0.2-0.1l0.5-0.5
									c0,0,0.1-0.1,0.1-0.1l0.4-0.6c0,0,0-0.1,0.1-0.1l0.3-0.7c0,0,0-0.1,0-0.1l0.8-4.6l0.2-2.3l0-1.5l0.1-0.8L110,97z"/>
							</g>
							<g>
								<path class="st1" d="M110,97l0-0.8l-0.2-2.1c0.1-0.1,0.1-0.2,0.1-0.3c0-0.3-0.3-0.5-0.5-0.5l-1.6,0.1l-1.6,0.2l-0.7,0.2
									l-0.8,0.1l-3,0.7c-0.3,0.1-0.4,0.3-0.4,0.6l0.1,0.7l0.1,0.8l0.3,2.2l0.2,1.6l0.1,0.7l0,0.7l-0.1,0.5l-0.4,0.1l-2.2,0.1
									l-0.8,0l-0.8,0l-0.8,0l-0.8,0l-1.6-0.1l-1.5,0l-0.8,0l-0.8,0l-0.8,0l-0.8,0l-3.1-0.2l-3.1-0.4l-0.8-0.2l-0.7-0.1l-0.7-0.2
									l-0.7-0.3c-0.2-0.1-0.5,0-0.6,0.2l-2.2,3.5c-0.1,0.1-0.1,0.3-0.1,0.5s0.2,0.3,0.3,0.3l2.3,0.6l0.8,0.3l7.5,2l1.5,0.3
									l0.8,0.2l3.9,0.6l5.6,0.6l4.1,0.1l1.7-0.1l0.6-0.1c0,0,0.1,0,0.1,0l0.6-0.2c0.1,0,0.1-0.1,0.2-0.1l0.5-0.5
									c0,0,0.1-0.1,0.1-0.1l0.4-0.6c0,0,0-0.1,0.1-0.1l0.3-0.7c0,0,0-0.1,0-0.1l0.8-4.6l0.2-2.3l0-1.5l0.1-0.8L110,97z"/>
							</g>
						</g>
					</g>
					<g>
						<g>
							<g>
								<path class="st1" d="M110,97l0-0.8l-0.2-2.1c0.1-0.1,0.1-0.2,0.1-0.3c0-0.3-0.3-0.5-0.5-0.5l-1.6,0.1l-1.6,0.2l-0.7,0.2
									l-0.8,0.1l-3,0.7c-0.3,0.1-0.4,0.3-0.4,0.6l0.1,0.7l0.1,0.8l0.3,2.2l0.2,1.6l0.1,0.7l0,0.7l-0.1,0.5l-0.4,0.1l-2.2,0.1
									l-0.8,0l-0.8,0l-0.8,0l-0.8,0l-1.6-0.1l-1.5,0l-0.8,0l-0.8,0l-0.8,0l-0.8,0l-3.1-0.2l-3.1-0.4l-0.8-0.2l-0.7-0.1l-0.7-0.2
									l-0.7-0.3c-0.2-0.1-0.5,0-0.6,0.2l-2.2,3.5c-0.1,0.1-0.1,0.3-0.1,0.5s0.2,0.3,0.3,0.3l2.3,0.6l0.8,0.3l7.5,2l1.5,0.3
									l0.8,0.2l3.9,0.6l5.6,0.6l4.1,0.1l1.7-0.1l0.6-0.1c0,0,0.1,0,0.1,0l0.6-0.2c0.1,0,0.1-0.1,0.2-0.1l0.5-0.5
									c0,0,0.1-0.1,0.1-0.1l0.4-0.6c0,0,0-0.1,0.1-0.1l0.3-0.7c0,0,0-0.1,0-0.1l0.8-4.6l0.2-2.3l0-1.5l0.1-0.8L110,97z"/>
							</g>
							<g>
								<path class="st7" d="M110,97l0-0.8l-0.2-2.1c0.1-0.1,0.1-0.2,0.1-0.3c0-0.3-0.3-0.5-0.5-0.5l-1.6,0.1l-1.6,0.2l-0.7,0.2
									l-0.8,0.1l-3,0.7c-0.3,0.1-0.4,0.3-0.4,0.6l0.1,0.7l0.1,0.8l0.3,2.2l0.2,1.6l0.1,0.7l0,0.7l-0.1,0.5l-0.4,0.1l-2.2,0.1
									l-0.8,0l-0.8,0l-0.8,0l-0.8,0l-1.6-0.1l-1.5,0l-0.8,0l-0.8,0l-0.8,0l-0.8,0l-3.1-0.2l-3.1-0.4l-0.8-0.2l-0.7-0.1l-0.7-0.2
									l-0.7-0.3c-0.2-0.1-0.5,0-0.6,0.2l-2.2,3.5c-0.1,0.1-0.1,0.3-0.1,0.5s0.2,0.3,0.3,0.3l2.3,0.6l0.8,0.3l7.5,2l1.5,0.3
									l0.8,0.2l3.9,0.6l5.6,0.6l4.1,0.1l1.7-0.1l0.6-0.1c0,0,0.1,0,0.1,0l0.6-0.2c0.1,0,0.1-0.1,0.2-0.1l0.5-0.5
									c0,0,0.1-0.1,0.1-0.1l0.4-0.6c0,0,0-0.1,0.1-0.1l0.3-0.7c0,0,0-0.1,0-0.1l0.8-4.6l0.2-2.3l0-1.5l0.1-0.8L110,97z"/>
							</g>
						</g>
					</g>
					<g>
						<g>
							<g>
								<polygon class="st7" points="110,97 110,96.2 109.9,95.5 109.9,94.8 109.8,94.1 109.9,93.8 109.4,93.3 108.6,93.3 
									107.8,93.3 107,93.4 106.2,93.5 105.5,93.7 104.7,93.8 103.9,94 103.1,94.2 102.4,94.4 101.6,94.6 101.2,95.1 101.3,95.9 
									101.4,96.7 101.6,97.4 101.6,98.2 101.8,98.9 101.8,99.7 101.9,100.4 102.1,101.1 102,101.8 102,102.3 101.6,102.4 
									100.8,102.4 100.1,102.5 99.3,102.5 98.5,102.5 97.7,102.5 96.9,102.4 96.2,102.4 95.3,102.5 94.5,102.4 93.8,102.4 
									93,102.4 92.2,102.4 91.4,102.4 90.6,102.4 89.8,102.4 89,102.3 88.3,102.3 87.5,102.3 86.7,102.2 85.9,102.1 85.1,102 
									84.4,101.9 83.6,101.9 82.8,101.7 82.1,101.6 81.4,101.4 80.7,101 80,101.3 79.7,101.9 79.3,102.4 78.9,103 78.5,103.6 
									78.2,104.2 77.8,104.8 77.8,105.2 78.1,105.6 78.8,105.8 79.6,106 80.3,106.2 81.1,106.4 81.9,106.6 82.6,106.8 83.4,107 
									84.1,107.2 84.9,107.4 85.6,107.6 86.4,107.8 87.1,108 87.9,108.2 88.6,108.4 89.3,108.5 90.1,108.6 90.9,108.9 91.7,109 
									92.4,109.1 93.2,109.2 94,109.3 94.7,109.5 95.4,109.6 96.1,109.6 96.8,109.7 97.5,109.8 98.2,109.9 98.9,110 99.7,110 
									100.4,110.1 101.2,110.2 102,110.2 102.8,110.2 103.6,110.2 104.4,110.2 105.2,110.2 106.1,110.2 106.7,110.1 106.8,110.1 
									107.4,109.9 107.6,109.7 108.1,109.3 108.1,109.2 108.6,108.6 108.6,108.5 108.9,107.9 108.9,107.8 109.1,107 109.2,106.3 
									109.3,105.5 109.5,104.7 109.6,104 109.7,103.2 109.8,102.4 109.9,101.7 110,100.9 110,100.1 110,99.4 110.1,98.5 110,97.8 
																	"/>
							</g>
							<g>
								<polygon class="st7" points="110,97 110,96.2 109.9,95.5 109.9,94.8 109.8,94.1 110,93.8 109.4,93.3 108.6,93.3 107.8,93.4 
									107,93.4 106.2,93.5 105.5,93.7 104.7,93.8 103.9,94 103.1,94.2 102.4,94.4 101.6,94.6 101.2,95.1 101.4,95.8 101.4,96.7 
									101.5,97.4 101.6,98.1 101.8,98.9 101.8,99.7 101.9,100.5 102.1,101.1 102.1,101.8 102,102.3 101.6,102.4 100.8,102.4 
									100.1,102.5 99.3,102.5 98.5,102.4 97.7,102.5 96.9,102.4 96.2,102.5 95.3,102.4 94.5,102.4 93.8,102.4 93,102.4 
									92.2,102.4 91.4,102.4 90.6,102.4 89.8,102.4 89,102.4 88.3,102.3 87.5,102.3 86.7,102.2 85.9,102.1 85.1,102 84.4,101.9 
									83.6,101.9 82.8,101.7 82.1,101.5 81.4,101.4 80.6,101.1 80,101.3 79.6,101.9 79.3,102.4 78.9,103 78.5,103.6 78.2,104.2 
									77.8,104.8 77.8,105.2 78.1,105.6 78.8,105.7 79.6,106 80.3,106.2 81.1,106.5 81.9,106.6 82.6,106.8 83.4,107 84.1,107.2 
									84.9,107.4 85.6,107.6 86.4,107.8 87.1,108 87.9,108.2 88.6,108.4 89.3,108.5 90.1,108.7 90.9,108.9 91.6,109 92.4,109.1 
									93.2,109.2 94,109.4 94.7,109.5 95.4,109.5 96.1,109.6 96.8,109.7 97.5,109.8 98.2,109.9 98.9,109.9 99.7,110 100.4,110.1 
									101.2,110.1 102,110.2 102.8,110.2 103.6,110.2 104.4,110.2 105.2,110.2 106.1,110.1 106.7,110.1 106.8,110.1 107.4,109.9 
									107.6,109.8 108.1,109.3 108.2,109.2 108.6,108.6 108.6,108.5 108.9,107.9 108.9,107.8 109,107 109.2,106.3 109.3,105.5 
									109.5,104.7 109.6,104 109.7,103.2 109.8,102.4 109.8,101.7 109.9,100.9 110,100.1 110,99.4 110.1,98.5 110,97.8 								
									"/>
							</g>
							<g>
								<polygon class="st7" points="110,97 110,96.2 110,95.5 109.9,94.8 109.9,94.1 109.9,93.8 109.4,93.3 108.6,93.3 107.8,93.4 
									107,93.4 106.2,93.6 105.5,93.7 104.7,93.8 103.9,94 103.1,94.2 102.4,94.4 101.6,94.5 101.2,95.1 101.3,95.9 101.4,96.7 
									101.5,97.4 101.6,98.2 101.7,98.9 101.8,99.7 101.9,100.4 102.1,101.1 102,101.8 102,102.3 101.6,102.4 100.8,102.4 
									100.1,102.5 99.3,102.5 98.5,102.5 97.7,102.5 96.9,102.5 96.2,102.4 95.3,102.4 94.5,102.4 93.8,102.4 93,102.4 
									92.2,102.4 91.4,102.4 90.6,102.4 89.8,102.4 89,102.3 88.3,102.3 87.5,102.3 86.7,102.2 85.9,102.1 85.1,102.1 84.4,101.9 
									83.6,101.9 82.8,101.6 82.1,101.6 81.4,101.4 80.7,101.1 80,101.3 79.7,101.9 79.3,102.4 78.9,103 78.6,103.6 78.2,104.2 
									77.8,104.8 77.8,105.2 78.1,105.6 78.8,105.7 79.6,106 80.3,106.2 81.1,106.4 81.9,106.6 82.6,106.8 83.4,107 84.1,107.2 
									84.9,107.4 85.6,107.6 86.4,107.8 87.1,108 87.9,108.2 88.6,108.4 89.3,108.6 90.1,108.6 90.9,108.9 91.6,109 92.4,109.1 
									93.2,109.2 94,109.3 94.7,109.5 95.4,109.6 96.1,109.7 96.8,109.7 97.5,109.8 98.2,109.9 98.9,110 99.7,110.1 100.4,110.1 
									101.2,110.2 102,110.2 102.8,110.2 103.6,110.2 104.4,110.2 105.2,110.2 106.1,110.2 106.7,110.1 106.8,110.1 107.4,109.8 
									107.6,109.8 108.1,109.3 108.2,109.2 108.6,108.6 108.6,108.5 108.9,107.9 108.9,107.8 109.1,107 109.2,106.3 109.3,105.5 
									109.4,104.7 109.6,104 109.7,103.2 109.8,102.4 109.8,101.7 110,100.9 110,100.1 110,99.4 110,98.5 110.1,97.8 								"/>
							</g>
						</g>
					</g>
				</g>
				<g>
					<path class="st6" d="M83.4,103.7c-0.1,1.1-0.9,2.2-1.9,2.7c0.2,0.6,0.9,0.8,1.5,0.5c0.5-0.2,0.9-0.7,1.1-1.3
						c0.2-0.5,0.4-1,0.6-1.6c0.1-0.4,0.1-0.8,0.1-1.1c-0.1-0.5-0.7-1.3-1.3-0.9C83.1,102.3,83.5,103.2,83.4,103.7z"/>
					<path class="st6" d="M82.2,107.4c-0.1,0-0.2,0-0.3-0.1l-0.6-0.6c-0.1-0.1-0.2-0.2-0.1-0.4c0-0.1,0.1-0.3,0.2-0.3l0.6-0.4
						l0.4-0.4l0.3-0.5l0.2-0.5l0.1-0.5l-0.1-0.8c0-0.1,0-0.1,0-0.2l0.2-0.8c0.1-0.2,0.3-0.4,0.5-0.3l0.8,0.1c0.1,0,0.3,0.1,0.3,0.2
						l0.4,0.8c0,0.1,0.1,0.1,0.1,0.2l0,0.6l-0.1,0.7l-0.3,0.9l-0.3,0.8l-0.5,0.8c0,0-0.1,0.1-0.1,0.1l-0.7,0.5
						c-0.1,0.1-0.2,0.1-0.3,0.1L82.2,107.4C82.2,107.4,82.2,107.4,82.2,107.4z M82.3,106.4L82.3,106.4l0.5,0l0.5-0.4l0.4-0.7
						l0.3-0.7l0.2-0.7l0.1-0.5l0-0.4l-0.3-0.5l-0.2,0l-0.1,0.3l0.1,0.8c0,0.1,0,0.1,0,0.2l-0.1,0.7l-0.3,0.7l-0.4,0.6L82.3,106.4z"
						/>
				</g>
				<g>
					<ellipse transform="matrix(0.298 -0.9546 0.9546 0.298 -43.4486 153.91)" class="st1" cx="82.9" cy="106.5" rx="1" ry="1.2"/>
					<path class="st6" d="M83,108c-0.2,0-0.5,0-0.7-0.1c-0.4-0.2-0.8-0.5-1-0.9c-0.1-0.3-0.1-0.7,0-1c0.3-0.7,1.3-1,2.1-0.7
						c0.4,0.2,0.8,0.5,1,0.9c0.1,0.3,0.1,0.7,0,1l0,0C84.2,107.6,83.7,108,83,108z M82.8,106c-0.2,0-0.5,0.1-0.5,0.3
						c-0.1,0.1,0,0.2,0,0.3c0.1,0.2,0.2,0.3,0.4,0.4c0.4,0.1,0.8,0,0.9-0.2l0,0c0.1-0.1,0-0.2,0-0.3c-0.1-0.2-0.2-0.3-0.4-0.4
						C83,106,82.9,106,82.8,106z"/>
				</g>
			</g>
			<path class="st6" d="M74.7,58.8c0,0-0.1,0-0.1,0c-0.2-0.1-0.4-0.3-0.3-0.6l0.1-0.5l-0.2-0.4l-0.6-0.3L73,56.7l-0.7-0.3
				c-0.1,0-0.1-0.1-0.1-0.1l-0.5-0.5c-0.1-0.1-0.1-0.2-0.1-0.3l-0.1-0.6L70,54.3l-0.7-0.4c-0.1-0.1-0.2-0.1-0.2-0.3L69,53.3l-0.4,0
				c0,0-0.1,0-0.1,0l-0.7-0.3c-0.1,0-0.1-0.1-0.2-0.1l-0.5-0.6C67.1,52.1,67,52,67,51.9L67,51.2c0,0,0-0.1,0-0.1
				c-0.1,0-0.1,0-0.2-0.1l-0.6-0.4c-0.1,0-0.1-0.1-0.2-0.2l-0.3-0.7c0-0.1,0-0.1-0.1-0.2l0-0.8c0-0.1,0-0.1,0-0.2l0.3-0.7
				c0-0.1,0.1-0.1,0.1-0.1l0.5-0.6c0,0,0.1-0.1,0.1-0.1l0.5-0.3l0-0.5c0,0,0-0.1,0-0.1l0.2-0.7c0,0,0-0.1,0.1-0.1l0.4-0.6
				c0,0,0-0.1,0.1-0.1l0.5-0.5c0,0,0.1,0,0.1-0.1l0.6-0.4l0.8-0.3c0,0,0.1,0,0.1,0l0.8-0.1c0,0,0.1,0,0.1,0l0.7,0.1c0,0,0.1,0,0.1,0
				l0.7,0.3l0.7,0.5c0,0,0.1,0,0.1,0.1l0.5,0.6l0.4,0.7c0,0,0,0.1,0,0.1l0.1,0.3l0,0c0,0,0.1,0,0.1-0.1l0.8-0.1c0,0,0.1,0,0.1,0
				l0.8,0.1c0.1,0,0.1,0,0.2,0l0.7,0.3c0.2,0.1,0.3,0.3,0.3,0.5l-0.2,0.7l-0.5,0.9l0.2,0.1c0.1,0,0.1,0.1,0.2,0.1l0.5,0.6
				c0.1,0.1,0.1,0.2,0.1,0.3l0,0.6c0,0.1,0,0.2-0.1,0.2l-0.3,0.5c0,0-0.1,0.1-0.1,0.1l-0.5,0.4c0,0-0.1,0.1-0.1,0.1l-0.2,0.1
				c0,0,0,0,0,0l-0.3,0.6c0,0.1-0.1,0.1-0.2,0.2l-0.6,0.3c0,0-0.1,0-0.1,0L74.3,53c0,0-0.1,0-0.1,0l-0.8,0c0,0-0.1,0-0.1,0l-0.8-0.2
				c0,0-0.1,0-0.1-0.1l-0.1-0.1l-0.4,0c0,0,0,0,0,0c-0.1,0-0.2,0-0.3-0.1l0,0L71,52.8l-0.7,0.3c0,0-0.1,0-0.1,0l-0.2,0l0,0l0.5,0.3
				l1.2,0.5l0.2-0.3c0.1-0.1,0.1-0.2,0.2-0.2l0.8-0.2c0.1,0,0.2,0,0.3,0l0.8,0.3c0.2,0.1,0.3,0.2,0.3,0.4s0,0.3-0.2,0.4l-0.6,0.5
				c-0.1,0-0.1,0.1-0.2,0.1l-0.8,0.2c0,0,0,0-0.1,0l0,0l0.4,0.4l0.6,0.3l0.7,0.3l0.7,0.4c0.1,0,0.1,0.1,0.2,0.2l0.4,0.7
				c0.1,0.1,0.1,0.2,0,0.4l-0.2,0.7C75.1,58.6,74.9,58.8,74.7,58.8z M68.8,52.3l0.5,0.1l0.3-0.4c0-0.1,0.1-0.1,0.2-0.1l0.7-0.3
				c0.1,0,0.1,0,0.2,0l0.1,0l0-0.6c0-0.1,0-0.2,0.1-0.2l-0.1,0c0,0-0.1,0-0.1,0l-0.8-0.2c-0.1,0-0.2-0.1-0.2-0.1l-0.6-0.5
				c-0.1-0.1-0.1-0.2-0.1-0.3l-0.2-0.9l-0.6,0c-0.1,0-0.2,0-0.3-0.1l-0.5-0.5c-0.1-0.1-0.1-0.1-0.1-0.2l0-0.1l-0.1,0.1l-0.4,0.5
				l-0.2,0.5l0,0.6l0.2,0.5l0.4,0.2l0.3,0c0,0,0.1-0.1,0.1-0.1l0.7-0.3c0.2-0.1,0.5,0,0.6,0.2c0.1,0.2,0.1,0.5-0.1,0.6L68,51
				c0,0,0,0,0,0l-0.1,0.2l0,0.5l0.3,0.4L68.8,52.3z M73.7,52.1l0.5,0l0.5-0.1l0.2-0.1l-0.1,0c-0.1,0-0.1,0-0.1,0l-0.5-0.2L73.7,52.1
				z M72.3,51.5l0.2,0.2l0.5-0.3l0.3-0.3l-0.2-0.2c0,0-0.1-0.1-0.1-0.1l-0.2-0.3l-0.3,0L72,50.8l-0.1,0.1l0,0.1L72.3,51.5z
				 M74.9,50.9L74.9,50.9l-0.2-0.3c0,0,0,0,0,0.1l0,0.1L74.9,50.9z M75.1,49.8C75.1,49.8,75.2,49.9,75.1,49.8l0.7,0.6
				c0.1,0.1,0.1,0.1,0.2,0.2l0,0.2l0,0l0.4-0.3l0.2-0.4l0-0.4l-0.3-0.4l-0.4-0.2l-0.3,0.3L75.1,49.8z M70.2,49.6l0.6,0.1l0.3,0
				l-0.6-0.4c0,0-0.1,0-0.1-0.1l-0.5-0.5l-0.1-0.2l-0.1,0.2l0.1,0.6L70.2,49.6z M73.4,49.4L73.4,49.4l0.5-0.1l0-0.2L73.7,49l0,0
				l0,0.1L73.4,49.4z M71.1,48.6l0.5,0.3l0.1-0.1c0,0,0.1-0.1,0.1-0.1l0.6-0.3c0,0,0.1,0,0.1,0l0-0.1c0-0.1,0-0.1,0-0.2l0.1-0.3l0,0
				l-0.6-0.2l-0.7,0l-0.8,0.2l0.2,0.4L71.1,48.6z M74.3,48l0.2,0l1.2,0.2l0.3-0.4l0.3-0.8l-0.3-0.2l-0.7-0.1L74.6,47l-0.3,0.2l0,0.3
				c0,0,0,0.1,0,0.1l-0.1,0.3L74.3,48C74.3,48,74.3,48,74.3,48z M68.4,47.8l0.3,0l0.1-0.2l0-0.1l-0.6-0.1l-0.1,0l0,0L68.4,47.8z
				 M71.2,46.6C71.3,46.6,71.3,46.6,71.2,46.6l0.8,0c0,0,0.1,0,0.1,0l0.7,0.3c0,0,0.1,0,0.1,0.1l0.1,0l0.3-0.3l-0.1-0.5l-0.4-0.7
				c0,0,0,0.1,0,0.1c-0.1,0.2-0.4,0.3-0.6,0.2l-0.5-0.3l-0.5,0l-0.5,0.2L70.4,46l-0.2,0.5l0,0.3c0,0,0,0,0.1,0L71.2,46.6
				C71.2,46.6,71.2,46.6,71.2,46.6z M68.2,46.5C68.2,46.5,68.2,46.5,68.2,46.5l1.1,0.2l0-0.3c0-0.1,0-0.1,0-0.2l0.2-0.7
				c0-0.1,0.1-0.1,0.1-0.2l0.5-0.5c0,0,0.1-0.1,0.1-0.1l0.6-0.3c0.1,0,0.1,0,0.2,0l0.5,0l-0.2-0.1l-0.6-0.1l-0.6,0.1l-0.7,0.2
				L69,44.9l-0.5,0.5l-0.3,0.5L68,46.5l0.1,0C68.1,46.5,68.1,46.5,68.2,46.5z"/>
			<g>
				<path class="st5" d="M102.2,98.9c2.7-1.5,7.4-0.9,10.4-0.2c-0.6-2.9-1.6-4.4-2.4-7.5c-0.5-1.8-1.7-4.4-3.2-5.8
					c-1.4-1.4-5.8-2.6-8.4-2.9c0,0-14.9,0.5-14.9,0.5c-1.5,0.1-3.1,0.9-4.3,1.7c-1.4,1-2.3,2-3.1,3.5c-2,3.5-2.9,5.4-4.4,9.1
					c1.9,0.7,3.9,1.3,5.8,2"/>
				<path class="st6" d="M77.8,99.7c-0.1,0-0.1,0-0.2,0l-0.7-0.3l-0.7-0.2l-1.5-0.5l-0.7-0.3l-2.2-0.7c-0.1,0-0.2-0.1-0.3-0.3
					c-0.1-0.1-0.1-0.3,0-0.4l0.3-0.7l0.2-0.7l1.6-3.6l0.4-0.7l0.3-0.7l0.4-0.7l0.3-0.7l0.4-0.7l0.3-0.7l0.9-1.4l1.1-1.2l1.2-1
					l0.7-0.5l1.4-0.7l1.6-0.5l0.8-0.1l1.6-0.1l0.8,0l1.5-0.1l0.8,0l0.8,0l0.7-0.1l0.8,0l0.8,0l0.7-0.1l0.8,0l0.8,0l4.7-0.2
					c0,0,0.1,0,0.1,0l0.7,0.2l0.7,0.1l0.8,0.2l0.7,0.1l2.9,1l1.4,0.6l0.7,0.4l0.6,0.5l0.6,0.6l0.5,0.6l0.8,1.3l0.7,1.4l0.6,1.4
					l0.7,2.3l1.1,2.9l0.9,3.1c0,0.2,0,0.3-0.1,0.4c-0.1,0.1-0.3,0.2-0.4,0.1l-0.7-0.2l-3.7-0.5l-1.5-0.1l-0.7,0l-2.2,0.4L103,99
					l-0.6,0.3c-0.2,0.1-0.5,0.1-0.6-0.2c-0.1-0.2-0.1-0.5,0.2-0.6l0.7-0.4l0.8-0.3l2.3-0.4l0.8,0l1.5,0.1l3.8,0.5l-0.2-0.8l-0.4-1.5
					l-0.3-0.7l-1.5-4.5l-1.2-2.6l-0.8-1.2l-0.4-0.5l-0.5-0.5l-0.5-0.4l-0.6-0.3l-2.7-1.1l-0.7-0.2l-0.7-0.2l-0.7-0.1l-0.8-0.2
					l-0.7-0.1l-0.7-0.2l-4.6,0.2l-0.8,0l-0.8,0l-0.7,0.1l-0.8,0l-0.8,0l-0.8,0.1l-0.8,0l-0.8,0l-1.5,0.1l-0.8,0l-1.5,0.1L83,83.5
					L81.6,84l-1.3,0.7L79.6,85l-0.5,0.5L78.5,86l-1,1.1l-0.9,1.3l-0.3,0.6l-0.4,0.7l-0.3,0.7l-0.4,0.7l-0.3,0.7l-0.4,0.7l-0.3,0.7
					l-0.3,0.7L72.9,96l-0.4,1l3.9,1.3l0.7,0.2l0.8,0.3c0.2,0.1,0.4,0.4,0.3,0.6C78.1,99.6,77.9,99.7,77.8,99.7z"/>
			</g>
			<g>
				<g>
					<g>
						<path class="st1" d="M86,82.8c-0.2,0.1-0.3,0.2-0.3,0.5c0,1.7,1.9,2.8,3.2,3.4c1.7,0.9,4.2,0.6,6-0.1c1.9-0.7,3.5-2,4.5-3.7
							c-2-0.4-4.1-0.8-6.1-1.2c-1.6-0.3-3.5,0-5.1,0.5c-0.5,0.1-1.1,0.3-1.6,0.5C86.3,82.7,86.1,82.7,86,82.8z"/>
						<path class="st6" d="M91.1,87.7l-0.8-0.1l-0.8-0.2l-0.8-0.3L88,86.7l-0.7-0.4l-0.7-0.5l-0.6-0.6c0,0-0.1-0.1-0.1-0.1l-0.4-0.7
							c0,0,0-0.1-0.1-0.1l-0.1-0.8c0-0.1,0-0.2,0-0.3l0.3-0.5c0.1-0.1,0.2-0.2,0.3-0.2l4.4-1.1l0.8-0.1l0.8,0l0.8,0l1.6,0.2l5.4,1
							c0.2,0,0.3,0.1,0.3,0.3c0.1,0.1,0,0.3,0,0.4l-0.9,1.2l-1.1,1.1l-0.6,0.5l-0.7,0.4l-0.7,0.4L95.1,87l-1.5,0.4l-0.8,0.1
							L91.1,87.7z M86.6,84.5l0.5,0.5l0.6,0.4l0.7,0.4l0.7,0.4l0.7,0.3l0.7,0.2l0.7,0.1l1.4-0.1l0.7-0.1l1.4-0.4l0.6-0.3l0.6-0.3
							l0.6-0.4l1.1-0.9l0.5-0.5l0.4-0.5l-6.1-1.1l-0.7,0l-0.7,0L89,82.4l-2.7,0.7l-0.1,0.2l0.1,0.6L86.6,84.5z"/>
					</g>
					<g>
						<g>
							<path class="st6" d="M96.4,77.3c-0.4,0.6-0.5,1.3-0.3,1.9c0.2,0.6,0.8,1.2,1.5,1.1c-0.9,0.1-1.9-0.3-2.6-0.9
								s-1.2-1.5-1.3-2.5c0.6-0.3,3.3-1.5,3.7-0.9C97.2,76.6,96.7,76.9,96.4,77.3z"/>
							<path class="st6" d="M97.6,80.9C97.6,80.9,97.6,80.9,97.6,80.9l-0.7,0l-0.8-0.2l-0.7-0.3l-0.7-0.5l-0.6-0.6l-0.4-0.7
								l-0.3-0.7l-0.2-0.8c0-0.2,0.1-0.4,0.3-0.5l1.2-0.5l1.3-0.4l0.7-0.1c0.1,0,0.1,0,0.2,0l0.6,0.2c0.2,0,0.3,0.2,0.3,0.3
								c0,0.2,0,0.3-0.1,0.4l-1,1.1l-0.2,0.5l-0.1,0.5l0.1,0.5l0.2,0.4l0.4,0.3l0.5,0.1c0.2,0,0.4,0.3,0.4,0.5
								C98.1,80.7,97.9,80.9,97.6,80.9z M94.3,77.3l0.1,0.3l0.2,0.6l0.3,0.5l0.4,0.4l0.3,0.2c0,0,0,0,0-0.1l-0.1-0.7
								c0,0,0-0.1,0-0.1l0.1-0.7c0,0,0-0.1,0-0.1l0.3-0.6c0,0,0-0.1,0.1-0.1l0.5-0.5l-0.2,0L95.1,77L94.3,77.3z"/>
						</g>
						<g>
							<g>
								<path class="st6" d="M93.5,49.2c0.9-0.1,1.8,0,2.6,0.2c1.6,0.4,3.1,1.4,4.3,2.6c1.9,1.8,3.3,3.9,4.4,6.3
									c1.2,2.6,1.8,5.5,1.5,8.3c-0.3,2.6-1.5,5.1-3.3,7s-4.2,3.2-6.7,3.6c0.3-0.1,0.5-2.7,0.5-3c0.1-1.1,0-2.1-0.1-3.2
									c-0.2-1.1-0.6-1.9-1.1-2.9c-0.5-1-0.9-2.1-1.3-3.2c-0.6-1.7-1.2-3.4-1.7-5.1c-0.7-2.6-1.3-5.3-1.4-8.1c0-0.5-0.2-1.2,0-1.7
									c0.2-0.4,0.9-0.6,1.3-0.7C92.9,49.3,93.2,49.3,93.5,49.2z"/>
								<path class="st6" d="M96.3,77.6c-0.1,0-0.3-0.1-0.4-0.2c-0.1-0.1-0.1-0.3-0.1-0.5l0.3-0.7l0.2-1.4l0.1-1.5l0-0.8l-0.2-1.5
									L96,70.3l-0.2-0.7l-1.4-3.2l-2-5.7L92.2,60L92,59.3l-0.8-3.7L90.7,51l0.1-0.9c0-0.1,0.1-0.2,0.2-0.3l0.6-0.5
									c0,0,0.1-0.1,0.1-0.1l0.7-0.3l1.1-0.2c0,0,0.1,0,0.1,0l0.7,0l0.7,0l0.7,0.1l1.4,0.4l0.7,0.3l1.3,0.7l1.2,0.9l0.6,0.5
									l1.5,1.5l1.7,2.3l1.6,3.2l0.5,1.4l0.5,2.1l0.2,1.4l0.1,1.5l0,0.7l-0.2,1.5l-0.3,1.4l-0.2,0.7l-0.6,1.4l-0.3,0.7l-0.8,1.2
									l-1,1.1l-0.5,0.5l-0.6,0.5l-1.2,0.9l-1.9,1.1l-0.7,0.3l-1.4,0.4L96.3,77.6C96.4,77.6,96.3,77.6,96.3,77.6z M91.7,50.4
									L91.6,51l0.5,4.4l0.8,3.6l0.2,0.7l0.9,2.9l2.1,5.3l0.6,1.4l0.3,0.8l0.3,1.6l0.1,0.8l0,0.8l-0.2,2.4L97,76.6l1.2-0.4l0.6-0.3
									l1.8-1l1.1-0.8l1-0.9l0.9-1.1l0.8-1.1l0.6-1.2l0.3-0.6l0.2-0.6l0.3-1.4l0.2-1.4l0-0.7l-0.1-1.4l-0.3-2l-0.8-2.6l-1.6-3
									l-1.6-2.2l-1.4-1.5l-0.5-0.5L98.5,51l-1.2-0.7l-0.6-0.3l-1.3-0.3l-0.6-0.1l-0.6,0l-0.6,0l-0.9,0.2l-0.6,0.2L91.7,50.4z"/>
							</g>
							<g>
								<path class="st6" d="M81.1,51.7c-0.6,0.5-1.2,1.1-1.7,1.6c-1.5,1.6-2.5,3.6-3.2,5.6c-1.1,2.9-1.7,6-1,9.1
									c0.9,4.3,4.4,7.8,8.4,9.5c-0.3-0.1-0.4-1.7-0.4-2c0-0.7,0.1-1.4,0.2-2c0.2-1.4,0.6-2.7,1-4c1-2.8,2.5-5.3,3.8-7.9
									c0.5-1,1.1-2,1.6-3.1c0.3-0.5,0.5-1.1,0.7-1.6c0.1-0.4,0.2-0.7,0.5-1c0.7-0.8,1.4-1.6,2.3-2.2c0.2-0.2,2.4-1.8,2.5-1.7
									c-1.2-2-3.6-3.2-5.8-3.4c-1.6-0.1-3.2,0.3-4.7,0.9c-1.2,0.5-2.3,1.1-3.4,1.8C81.6,51.4,81.3,51.5,81.1,51.7z"/>
								<path class="st6" d="M83.6,78c-0.1,0-0.1,0-0.2,0l-2-1l-0.6-0.4l-1.2-0.9L79,75.1l-1.6-1.6L77,72.9l-0.8-1.3l-0.7-1.3
									l-0.3-0.7l-0.4-1.4L74.4,66l0-0.8l0.2-2.2l0.1-0.7l0.8-2.8l0.8-2.1l1-2l0.4-0.7l1.4-1.8l1.1-1.1l0.6-0.5c0,0,0,0,0,0
									l0.7-0.5l2.7-1.5l2.1-0.8l1.4-0.3l1.5-0.1l0.7,0l1.5,0.2l1.4,0.4l0.7,0.4l1.2,0.8l1.1,1c0,0,0,0.1,0.1,0.1l0.4,0.6
									c0.1,0.1,0.1,0.2,0.1,0.4s-0.1,0.2-0.2,0.3l-1.2,0.8l-0.6,0.5L93.5,54L93,54.5l-0.6,0.5l-0.5,0.5l-0.5,0.6l-0.2,0.4L91,57.1
									l-1.1,2.3l-0.6,1.2L89,61.2l-0.4,0.7L85.1,69l-0.9,2.6l-0.3,1.3l-0.2,2.6l0,0.7l0.1,0.6l0.2,0.6c0.1,0.2,0,0.4-0.1,0.5
									C83.8,78,83.7,78,83.6,78z M81.4,52.1l-0.6,0.5l-1.1,1.1l-1.3,1.7l-0.4,0.6l-1,1.9l-0.8,2l-0.7,2.7l-0.2,2l-0.1,0.7l0,0.7
									l0.3,2.1l0.7,2l0.6,1.3l0.8,1.2l0.9,1l1,1l1.1,0.9l0.6,0.4l1.5,0.9l-0.1-0.4l0-0.8l0.1-2.1l0.2-1.4l0.2-0.7l0.9-2.7l1.2-2.7
									l0.4-0.7l2-3.9l0.4-0.6l0.6-1.2l0.6-1.2l0.9-2.1l0.3-0.5l0.5-0.7l0.6-0.6l1.2-1.1l0.7-0.5l0.6-0.5l0.9-0.6L95,51.6l-0.9-0.9
									L93,49.9l-0.6-0.3l-1.2-0.4L89.9,49l-0.6,0l-1.3,0.1l-1.3,0.3l-1.9,0.7L82,51.6L81.4,52.1z"/>
							</g>
							<g>
								<path class="st1" d="M94.7,82.9c-0.2-1.4-0.2-2.8,0-4.2c0.1-0.3,0.1-0.6,0.3-0.8c0.2-0.2,0.4-0.4,0.7-0.6
									c1.4-0.9,2.5-2.2,3.2-3.7c0.3-0.7,0.6-1.5,0.8-2.3c0.1-0.3,0.1-0.9,0.4-1c0.2-0.1,0.4-0.1,0.6-0.2c0.2-0.1,0.4-0.2,0.5-0.4
									c1.2-1,2-2.6,2-4.2c0-0.7-0.1-1.4-0.5-2c-0.4-0.6-1-1.1-1.7-1.2c-0.9-0.1-1.3,0.4-1.8,1c-0.1-0.7,0-1.5-0.1-2.2
									c-0.1-0.8-0.4-1.5-0.7-2.2c-0.7-1.4-1.7-2.6-3.1-3.4c-2.7-1.6-7.2-3-10.1-1.4l-1.1,0.6c-1,0-1.9,1.1-2.6,1.7
									c-0.8,0.6-1.1,1.8-1.6,2.6c-0.6,0.9-1.2,1.9-1.6,3c-0.2,0.5-0.3,1-0.4,1.5c-0.1,0.4,0.1,1.4-0.4,1.5c-0.2,0.1-0.7-0.1-1-0.1
									c-0.3,0.1-0.7,0.3-0.9,0.5c-0.4,0.5-0.5,1.3-0.4,1.9c0.1,0.7,0.4,1.3,0.7,1.9c0.2,0.5,0.5,1,0.9,1.4
									c0.4,0.4,0.9,0.7,1.4,0.7c0.1,0,0.3,1.7,0.4,1.9c0.4,1.3,1.2,2.5,2.1,3.5c0.7,0.8,1.6,1.4,2.6,1.8c0.5,0.2,0.9,0.4,1.4,0.5
									c0.5,0.1,1,0.1,1.5,0.3c0.3,0.1,0.7,0.3,1,0.4c0.2,0.1,0.4,0.2,0.6,0.3c0.4,0.3,0.6,0.9,0.7,1.4c0.1,0.7,0.1,1.4,0,2.1"/>
								<path class="st6" d="M88.7,84C88.7,84,88.7,84,88.7,84c-0.3,0-0.5-0.3-0.5-0.5l0.1-0.7l-0.1-1.3l-0.2-0.6l-0.3-0.5l-1.5-0.7
									l-0.6-0.2l-0.7-0.1l-1.5-0.6l-1.5-0.8L80.6,77l-0.9-1.1l-0.4-0.6L78.7,74l-0.3-0.7l-0.3-1.7l-0.5-0.1c-0.1,0-0.1,0-0.2-0.1
									L76.8,71c0,0-0.1-0.1-0.1-0.1l-0.5-0.6l-0.7-1.4l-0.3-0.7L75,67.5c0,0,0-0.1,0-0.1l0-0.7c0,0,0-0.1,0-0.1l0.2-0.7
									c0,0,0-0.1,0-0.1l0.3-0.6c0-0.1,0.1-0.1,0.2-0.2l0.9-0.5c0.1-0.1,0.2-0.1,0.3-0.1l0.7,0.1l0.2-0.3l0-0.7c0,0,0-0.1,0-0.1
									l0.4-1.5l0.7-1.6l0.9-1.5l0.6-1.3l0.4-0.7l0.5-0.7l2-1.6c0,0,0.1-0.1,0.2-0.1l0.8-0.2l1.7-0.9l0.8-0.2l1.6-0.2l0.8,0
									l2.3,0.4l2.2,0.7l1.4,0.7l1.3,0.8L97,56l1.1,1.2l0.5,0.7l0.4,0.7l0.6,1.5l0.2,1.6l0,0.5l0.4-0.3c0.1,0,0.1-0.1,0.2-0.1
									l0.7-0.1c0.1,0,0.1,0,0.2,0l0.7,0.2c0.1,0,0.1,0,0.2,0.1l0.6,0.4l0.5,0.6c0,0,0,0.1,0.1,0.1l0.3,0.6c0,0,0,0.1,0,0.1
									l0.1,0.7l0.1,0.7l-0.1,0.9l-0.1,0.8l-0.3,0.8l-0.4,0.8l-0.5,0.7l-0.6,0.6l-0.6,0.4c0,0-0.1,0-0.1,0.1l-0.5,0.2l-0.1,0.2
									l-0.4,1.3l-0.6,1.6L99,74.4l-0.4,0.6l-0.9,1.2l-1.1,1l-1.2,0.9l-0.2,0.7L95,80.1l0,0.6l0,0.7l0.1,1.4c0,0.3-0.2,0.5-0.4,0.5
									c-0.3,0-0.5-0.2-0.5-0.4l-0.1-1.4l0-0.8l0-0.7l0.2-1.5l0.3-0.9c0-0.1,0.1-0.2,0.2-0.2l1.3-1l1-0.9l0.8-1.1l0.4-0.6l0.6-1.3
									l0.3-0.7l0.3-1.3c0,0,0-0.1,0.1-0.1l0.3-0.5c0.1-0.1,0.1-0.2,0.3-0.2l0.6-0.2l0.5-0.3l0.5-0.5l0.4-0.6l0.4-0.6l0.3-0.7
									l0.2-1.5l-0.2-1.2l-0.2-0.5l-0.4-0.5l-0.4-0.3l-0.5-0.1l-0.5,0.1l-0.5,0.3l-0.4,0.5c-0.1,0.1-0.3,0.2-0.5,0.1
									c-0.2-0.1-0.3-0.2-0.3-0.4l-0.1-1.5l-0.2-1.4l-0.5-1.4l-0.3-0.6l-0.4-0.6l-1-1.1l-0.6-0.4l-1.2-0.7l-1.3-0.6l-0.7-0.2
									l-1.4-0.4L89,53.8l-0.7,0L86.9,54l-0.6,0.2l-1.7,0.9l-0.8,0.2L82,56.7l-0.4,0.5l-0.7,1.3l-0.3,0.7l-0.9,1.5L79,62.1
									l-0.4,1.4l0,0.8c0,0.1,0,0.1,0,0.2l-0.3,0.7c-0.1,0.2-0.3,0.3-0.5,0.3l-0.8-0.1l-0.6,0.4L76,66.2l-0.1,0.5l0,0.6l0.4,1.2
									l0.6,1.3l0.4,0.5l0.5,0.4l0.7,0.2c0.2,0,0.3,0.2,0.3,0.4l0.4,1.9l0.2,0.6l0.6,1.2l0.3,0.5l0.9,1l1.1,1l1.3,0.7l1.4,0.5
									l0.7,0.1l0.8,0.2l1.7,0.8c0.1,0,0.1,0.1,0.2,0.2l0.5,0.7c0,0,0,0.1,0.1,0.1l0.2,0.8l0.1,1.5l-0.1,0.8
									C89.2,83.9,89,84,88.7,84z"/>
							</g>
							<g>
								<path class="st6" d="M81.5,63.7c-0.9,0.6-1.6,1.3-2.2,2.3c-0.1,0.3-0.2,0.6-0.3,0.9c-0.5-0.6-0.9-1.3-1.2-2.1
									c-0.3-0.7-0.4-1.5-0.4-2.3c0-0.5,0.1-1,0.2-1.6c0.1-0.4,0.2-0.8,0.3-1.1c0.8-2.3,2.4-4.3,4.2-6c1.3-1.3,2.8-2.4,4.5-3
									c2.1-0.7,4.5-0.6,6.5,0.3s3.8,2.5,4.9,4.4c0.8,1.3,1,2.7,1.3,4.2c0.1,0.7,0,1.3,0,2c0,0.4-0.1,0.8-0.1,1.2
									c0,0.2-0.2,1-0.1,1.1c-1.4-1.2-2.6-2.7-3.7-4.2c-0.5-0.8-1-1.6-1.4-2.5c-0.4-0.8-0.6-1.8-1-2.6c-0.1,0.2-0.2,0.4-0.2,0.6
									c-0.1,0.3-0.2,0.6-0.3,0.8c-0.2,0.5-0.5,1.1-0.8,1.6c-1.6,2.6-4,4.6-6.8,5.6c-0.7,0.3-1.5,0.4-2.2,0.6c0.5-0.5,0.9-1.2,1-2
									c-0.6,0.7-1.4,1.2-2.1,1.7C81.6,63.7,81.6,63.7,81.5,63.7z"/>
								<path class="st6" d="M79.1,67.4c-0.1,0-0.3-0.1-0.4-0.2l-0.9-1.3l-0.3-0.8l-0.3-0.8L77,63.4l0-1.7l0.3-1.4l0.2-0.6l0.6-1.4
									l0.4-0.7l1.8-2.5l1.1-1.1l2.1-1.9l0.6-0.4l1.2-0.7l0.7-0.3l1.4-0.5L88,50l0.8-0.1l0.8,0l0.8,0l0.8,0.1l0.8,0.2l1.5,0.5
									l0.7,0.3l1.3,0.8l1.2,1l1,1.2l0.5,0.6l0.8,1.3l0.3,0.7l0.4,1.5l0.3,1.5l0.1,0.7l-0.1,2l-0.2,1.2l0,0.5
									c0,0.2-0.1,0.4-0.3,0.4c-0.2,0.1-0.4,0-0.5-0.1l-1.5-1.5L96,61.2l-1.2-1.8l-1-1.9l-0.6-1.5L93,56.4l-0.4,0.8l-0.9,1.4
									l-0.9,1.2L89.8,61l-0.6,0.5l-1.9,1.3l-1.4,0.7l-0.7,0.3l-2.3,0.6c-0.2,0-0.4,0-0.5-0.2c-0.1-0.1-0.1-0.3-0.1-0.4l-1.1,0.8
									l-1,1.1l-0.3,0.6l-0.3,0.8C79.5,67.3,79.3,67.4,79.1,67.4C79.1,67.4,79.1,67.4,79.1,67.4z M89.6,50.8l-0.7,0l-0.7,0.1
									l-1.3,0.4l-0.6,0.2l-0.6,0.3L84,52.9l-2,1.8l-1,1l-1.7,2.3l-0.6,1.3L78.3,60l-0.3,1.1L78,61.9l0,1.5l0.1,0.7l0.5,1.4
									l0.3,0.5c0,0,0-0.1,0-0.1l0.4-0.7l0.6-0.7l0.6-0.6l0.7-0.5c0,0,0,0,0,0l1.2-0.8l0.5-0.4l0.4-0.5c0.2-0.2,0.4-0.2,0.6-0.1
									c0.2,0.1,0.3,0.3,0.2,0.5L84,62.8l-0.2,0.4l1.1-0.3l0.7-0.3l1.3-0.6l1.8-1.2l0.5-0.5l1-1l0.9-1.2l0.8-1.4l0.4-0.8l0.5-1.4
									c0.1-0.2,0.2-0.3,0.4-0.3c0.2,0,0.4,0.1,0.4,0.3l0.3,0.6l0.8,1.9l0.3,0.6l0.7,1.2l1.6,2.2l0.9,1.1l0.8,0.7l0.2-1.9l0-0.7
									l0-0.6l-0.5-2.1l-0.2-0.7L98,56.4l-0.7-1.2l-1.4-1.7l-1.1-0.9l-1.2-0.8L93,51.5l-1.3-0.4L90.9,51l-0.7-0.1L89.6,50.8z"/>
							</g>
							<path class="st6" d="M87.6,71.6c-0.1,0-0.2,0-0.3-0.1c-0.4-0.4-0.5-1.1-0.1-1.5c0.2-0.2,0.5-0.3,0.7-0.1
								c0.2,0.2,0.3,0.5,0.1,0.7c0,0,0,0.1,0.1,0.2c0.2,0.2,0.2,0.5,0,0.7C87.8,71.5,87.7,71.6,87.6,71.6z"/>
							<path class="st6" d="M91.8,68c-0.5,0-1.1-0.5-1.2-1c-0.1-0.3,0.1-0.8,0.3-1c0.2-0.2,0.4-0.3,0.7-0.2c0.4,0,0.6,0.3,0.7,0.6
								c0.1,0.1,0.1,0.2,0.1,0.3c0.1,0.2,0.1,0.4,0,0.6c0,0,0,0.1,0,0.1C92.5,67.8,92.1,68,91.8,68C91.8,68,91.8,68,91.8,68z"/>
							<path class="st6" d="M84.1,69.1c0,0-0.1,0-0.1,0c-0.1,0-0.3-0.1-0.5-0.4c-0.1-0.2-0.1-0.3-0.1-0.5c-0.1-0.3,0-0.7,0.1-0.9
								c0.1-0.2,0.3-0.3,0.4-0.4c0.1-0.1,0.2-0.1,0.4-0.1c0.1,0,0.1,0,0.2,0c0,0,0.1,0,0.1,0c0.2,0.1,0.4,0.3,0.4,0.5
								c0.1,0.2,0.1,0.3,0.1,0.4c0,0.1,0,0.2,0,0.3c0,0.4-0.2,0.6-0.3,0.7c0,0-0.1,0-0.1,0.1c0,0,0,0.1-0.1,0.1
								C84.4,69,84.3,69.1,84.1,69.1z"/>
							<path class="st6" d="M93,64.2c-0.6,0-1.1-0.2-1.6-0.6c-0.2-0.2-0.2-0.5-0.1-0.7c0.2-0.2,0.5-0.2,0.7-0.1
								c0.3,0.2,0.7,0.4,1,0.3c0.3,0,0.5,0.2,0.5,0.5c0,0.3-0.2,0.5-0.5,0.5C93.1,64.2,93.1,64.2,93,64.2z"/>
						</g>
						<g>
							<path class="st6" d="M101.6,71c0.7-0.6,1.7-0.7,2.6-0.5c1.2,0.3,2.2,1.2,2.6,2.3c0.3,1.2-0.2,2.5-1.2,3.2
								C103.1,77.4,98.9,73.1,101.6,71z"/>
							<path class="st6" d="M104.2,76.7c0,0-0.1,0-0.1,0l-0.7-0.2l-0.7-0.3l-0.7-0.5l-0.6-0.6l-0.5-0.6l-0.4-0.7c0,0,0-0.1,0-0.1
								l-0.2-0.7c0,0,0-0.1,0-0.1l0.1-0.7c0-0.1,0-0.1,0-0.2l0.3-0.7c0,0,0.1-0.1,0.1-0.1l0.5-0.5c0,0,0.1,0,0.1-0.1l0.6-0.4
								c0,0,0.1,0,0.1,0l0.7-0.2l0.8-0.1c0,0,0.1,0,0.1,0l0.7,0.1l0.8,0.2l0.7,0.4l0.6,0.5c0,0,0,0,0.1,0.1l0.4,0.6l0.3,0.8
								c0,0,0,0.1,0,0.1l0.1,0.7c0,0,0,0.1,0,0.1l-0.1,0.7c0,0,0,0.1,0,0.1l-0.3,0.7c0,0,0,0.1,0,0.1l-0.4,0.6c0,0-0.1,0.1-0.1,0.1
								l-0.6,0.5c0,0-0.1,0.1-0.1,0.1l-0.7,0.3c0,0-0.1,0-0.1,0L104.2,76.7C104.2,76.7,104.2,76.7,104.2,76.7z M101.3,73.4l0.3,0.6
								l0.4,0.5l0.5,0.5l0.5,0.4l0.6,0.3l0.6,0.1l0.6,0l0.5-0.2l0.5-0.4l0.3-0.5l0.2-0.6l0.1-0.6l-0.1-0.6l-0.3-0.6l-0.3-0.5
								l-0.5-0.5l-0.5-0.3l-0.6-0.2l-0.5-0.1l-0.6,0.1l-0.5,0.2l-0.5,0.3l-0.4,0.4l-0.2,0.5l0,0.6L101.3,73.4z"/>
						</g>
						<g>
							<path class="st6" d="M98.7,64c0.3,0.8,0.2,1.8-0.2,2.5c-0.4,0.8-1.2,1.5-1.3,2.4c0,0.8,0.7,1.6,1.5,1.6
								c-0.3,0-0.6-0.2-0.7-0.6c-0.1-0.3,0-0.7,0.1-1s0.4-0.6,0.6-0.8c1.5-2.1,1.7-5.1,0.5-7.4c-0.1-0.1-0.2-0.2-0.3-0.3
								c-0.1,0-0.2,0.1-0.3,0.2c-0.4,0.3-1.5,1-1,1.6c0.2,0.3,0.5,0.5,0.7,0.7C98.4,63.4,98.5,63.7,98.7,64z"/>
							<path class="st6" d="M98.6,71c0,0-0.1,0-0.1,0l-0.8-0.3c-0.1,0-0.1-0.1-0.2-0.1L97,70c-0.1-0.1-0.1-0.1-0.1-0.2l-0.2-0.8
								c0-0.1,0-0.1,0-0.2l0.2-0.7c0,0,0-0.1,0.1-0.1l0.4-0.6l0.8-1.2l0.2-0.5l0.1-0.5l0-0.6l-0.1-0.5l-0.4-0.8l-0.7-0.7
								c-0.1-0.1-0.1-0.2-0.1-0.4l0-0.6c0-0.1,0.1-0.2,0.1-0.3l0.5-0.5l0.6-0.5c0,0,0.1,0,0.1-0.1l0.3-0.2c0.2-0.1,0.4-0.1,0.5,0.1
								l0.3,0.3c0,0,0.1,0.1,0.1,0.1l0.3,0.6l0.3,0.7l0.2,0.7l0.1,0.7l0,0.8l0,0.7l-0.1,0.7l-0.2,0.7l-0.3,0.7l-0.3,0.7l-0.9,1.4
								l-0.1,0.6l0.5,0.4c0.2,0.1,0.2,0.4,0.1,0.6C98.9,71,98.8,71,98.6,71z M97.7,68.4l-0.1,0.4c0,0,0,0,0-0.1l1-1.4l0.3-0.6
								l0.2-0.6l0.2-0.6l0.1-0.7l0-0.7l0-0.7l-0.2-1.3L99,61.7l-0.2-0.5L98,61.9l0,0.3l0.6,0.6c0,0,0.1,0.1,0.1,0.1l0.5,0.9
								c0,0,0,0.1,0,0.1l0.1,0.6l0,0.7c0,0,0,0.1,0,0.1L99.1,66l-0.3,0.7l-0.4,0.7L97.7,68.4z"/>
						</g>
					</g>
					<g>
						<path class="st6" d="M101.3,75c0.2,0.9,0.8,1.6,1.5,2.1c-1,0.1-1.9-0.6-2.3-1.5c-0.3-0.6-0.9-3.4,0.1-3.6
							c0.6-0.1,0.7,0.4,0.7,0.9C101.3,73.6,101.1,74.3,101.3,75z"/>
						<path class="st6" d="M102.8,77.4C102.8,77.4,102.8,77.4,102.8,77.4l-0.7-0.1c0,0-0.1,0-0.1,0l-0.6-0.3c0,0,0,0-0.1,0l-0.5-0.5
							c0,0,0,0,0-0.1l-0.4-0.6c0,0,0,0,0-0.1L100,75l-0.2-0.8l-0.1-0.8l0.1-0.8c0-0.1,0-0.1,0.1-0.2l0.5-0.6
							c0.1-0.1,0.2-0.1,0.3-0.1l0.5,0.2c0.1,0,0.1,0.1,0.2,0.2l0.1,0.6l-0.1,1.5l0.1,0.6l0.2,0.6l0.3,0.5l0.4,0.5l0.5,0.4
							c0.1,0.1,0.1,0.2,0.1,0.3C103,77.3,102.9,77.4,102.8,77.4z M101.6,76.5l0.3,0.2l-0.3-0.3l-0.4-0.6l-0.2-0.7c0,0,0,0,0-0.1
							l-0.1-0.7l0.1-1.4l-0.1-0.4l-0.2-0.1l-0.3,0.3l-0.1,0.7l0.1,0.7l0.1,0.7l0.2,0.7l0.3,0.5L101.6,76.5z"/>
					</g>
				</g>
				<path class="st6" d="M88.6,75.4c0,0-0.1,0-0.1,0c-0.2-0.1-0.3-0.3-0.2-0.5c0.2-0.5,0.7-0.9,1.2-1.1c0.5-0.2,1.1-0.1,1.6,0.3
					c0.2,0.1,0.2,0.4,0.1,0.5c-0.1,0.2-0.4,0.2-0.5,0.1c-0.3-0.2-0.7-0.3-1-0.2c-0.3,0.1-0.6,0.3-0.7,0.7
					C88.9,75.3,88.7,75.4,88.6,75.4z"/>
			</g>
			<g>
				<g>
					<path class="st1" d="M86.5,80.3c-0.2-1.5-0.8-2.9-2-3.7c-0.5-0.3-0.5,0.1-0.9-0.3c-1.3-1-1.5-3-2.8-4.1
						c-0.2-0.1-0.4-0.3-0.6-0.3c-0.2,0-0.5,0.2-0.4,0.4c0-0.3-0.2-0.6-0.5-0.7c-0.3-0.1-0.7,0.1-0.8,0.4c-0.1-0.3-0.3-0.6-0.6-0.6
						c-0.4,0-0.6,0.5-0.6,0.8c0,0.4,0.2,0.6,0.3,1c-0.1-0.2-0.1-0.3-0.3-0.5c-0.1-0.2-0.4-0.2-0.6-0.1c-0.3,0.2-0.2,0.7-0.1,1
						c0.4,1.3,0.8,2.5,1.3,3.7c0.6,1.2,0.7,1.7,1.7,2.6c1,0.9,2.3,1.4,3.6,1.5c0.2,0-0.2,0.6-0.2,0.6c-0.2,0.3-0.4,0.7-0.6,1
						c-0.4,0.7-0.8,1.3-1.2,2c-0.7,1.1-1.4,2.3-2.1,3.4c-0.7,1.1-1.4,2.3-2.1,3.4c-1.3,2.1-3.4,6.6-4.2,9c-0.8,2.5-0.5,3.8-0.3,6.4
						c0.1,0.5,0.3,0.7,0.8,0.9c0.4,0.2,0.7,0.4,1.1,0.2c0.9-0.3,1.7-1.1,2.4-1.9c1.4-1.6,2.5-3,3.6-5.1c1-2,2.4-6.4,3.1-8.5
						c1.1-3.3,2-6.7,3-10.1C86.6,81.9,86.6,81.1,86.5,80.3z"/>
					<path class="st6" d="M73.6,108.8c-0.1,0-0.1,0-0.2,0l-0.5-0.2l-0.6-0.3c-0.1,0-0.2-0.1-0.2-0.2l-0.3-0.6c0-0.1,0-0.1,0-0.2
						l-0.3-3.6c0,0,0-0.1,0-0.1l0.3-2.1l0.8-2.2l0.4-0.8l0.2-0.7l0.7-1.4l0.3-0.7l1-2.1l0.4-0.7l0.3-0.6l0.8-1.4l1.3-2.1l1.6-2.8
						l0.9-1.3L81,84l1.4-2.3l-0.2,0l-0.8-0.2l-0.8-0.3c0,0-0.1,0-0.1,0l-0.7-0.4l-0.7-0.5l-0.6-0.6l-0.5-0.6c0,0,0-0.1-0.1-0.1
						l-1.2-2.9l-0.5-1.5l-0.2-0.8c0-0.1,0-0.1,0-0.2l0.1-1c0-0.1,0.1-0.2,0.2-0.3c0.1-0.1,0.2-0.1,0.4-0.1l0.1,0
						c0-0.1,0-0.1,0.1-0.2l0.6-0.9c0.1-0.1,0.2-0.2,0.3-0.2c0.1,0,0.3,0,0.4,0.1l0.4,0.4l0.5-0.2c0.2-0.1,0.4,0,0.6,0.2l0.2,0.3
						l0.1-0.1c0.1-0.1,0.3-0.2,0.5-0.1l0.6,0.2c0.1,0,0.1,0.1,0.2,0.1l0.5,0.5l0.5,0.6l1,2l0.3,0.5l0.4,0.4l0.8,0.3
						c0.1,0,0.1,0,0.1,0.1l0.6,0.5l0.5,0.6l0.4,0.7l0.3,0.7l0.2,0.8l0.2,1.6L87,82l-0.4,1.6L86,85.8l-0.1,0.7l-0.3,0.8l-0.1,0.7
						l-0.3,0.8L85,89.4l-0.3,0.8l-0.4,1.4l-1.7,5l-0.3,0.8l-0.5,1.4l-1.1,2.8l-1.2,2.1l-0.5,0.7l-2,2.5l-1.2,1.2l-0.7,0.5l-0.8,0.3
						c-0.1,0-0.1,0-0.2,0L73.6,108.8C73.6,108.8,73.6,108.8,73.6,108.8z M74.2,108.3L74.2,108.3L74.2,108.3z M72.9,107.4l0.8,0.4
						l0.4,0l0.6-0.3l0.6-0.4l1-1l2.3-3l1.2-2l1.4-3.4l0.2-0.7l0.3-0.8l0.2-0.7l0.3-0.8l0.4-1.4l1-2.8l0.2-0.7l0.3-0.8l0.2-0.7
						l0.3-0.7l0.1-0.7l0.3-0.8l0.1-0.7l1-3.7l0.1-0.8L86,80.3c0,0,0,0,0,0L86,79.6L85.8,79l-0.3-0.6l-0.3-0.6l-0.4-0.5l-0.4-0.3
						l-0.8-0.3c-0.1,0-0.1-0.1-0.2-0.1l-0.5-0.5c0,0-0.1-0.1-0.1-0.1l-0.4-0.6l-1-1.9l-0.4-0.5l-0.4-0.4l-0.3-0.1L80,72.6
						c-0.1,0.1-0.2,0.1-0.4,0.1c-0.1,0-0.3-0.1-0.3-0.2L79,72.2l-0.4,0.2c-0.2,0.1-0.4,0-0.5-0.1l-0.2-0.2l-0.1,0.2L78,73
						c0.1,0.2,0,0.5-0.3,0.6c-0.2,0.1-0.5,0-0.6-0.2L77,73.2l0,0.3l0.2,0.7l0.5,1.5l1.2,2.8l0.5,0.6l0.5,0.5l0.6,0.4l0.6,0.4
						l0.7,0.2l0.7,0.2l0.7,0.1c0.1,0,0.3,0.1,0.4,0.2c0.1,0.1,0.1,0.3,0,0.4l-0.2,0.6l-0.6,1.1l-0.9,1.3l-0.4,0.7l-4.6,7.5l-0.3,0.7
						L76.1,94l-1.9,4.1l-0.2,0.7l-0.4,0.7l-0.7,2.1l-0.1,0.6l-0.2,1.4l0.3,3.5L72.9,107.4z"/>
				</g>
				<path class="st6" d="M79.4,78.1c-0.1,0-0.3-0.1-0.4-0.2c-1-1.8-1.4-2.9-1.9-4.8c-0.1-0.2,0.1-0.4,0.3-0.5
					c0.2-0.1,0.4,0.1,0.5,0.3c0.6,1.9,0.9,2.9,1.8,4.6c0.1,0.2,0,0.4-0.2,0.6C79.5,78.1,79.5,78.1,79.4,78.1z"/>
				<path class="st6" d="M80.8,78c-0.1,0-0.2-0.1-0.3-0.2c-0.5-0.7-0.8-1.2-1.2-2.1L78,72c-0.1-0.2,0-0.4,0.2-0.5
					c0.2-0.1,0.4,0,0.5,0.2l1.3,3.7c0.3,0.7,0.5,1.2,1.1,1.9c0.1,0.2,0.1,0.4-0.1,0.6C81,78,80.9,78,80.8,78z"/>
				<path class="st6" d="M82.3,77.7c-0.1,0-0.3-0.1-0.3-0.2c-1.1-1.7-2-3.1-2.7-5.2c-0.1-0.2,0-0.4,0.2-0.5c0.2-0.1,0.5,0,0.5,0.2
					c0.7,2,1.6,3.4,2.6,5c0.1,0.2,0.1,0.4-0.1,0.6C82.5,77.7,82.4,77.7,82.3,77.7z"/>
			</g>
			<path class="st6" d="M91.3,89.5l-1.7-0.2l-0.8-0.2L88,88.8l-0.8-0.3l-0.7-0.4l-1.4-0.9c-0.2-0.1-0.3-0.4-0.1-0.6
				c0.1-0.2,0.4-0.3,0.6-0.1l1.3,0.9l1.4,0.7l0.7,0.3l1.5,0.3l0.8,0.1l0.8,0l0.8-0.1l1.5-0.3l1.4-0.5l1.4-0.6l1.3-0.8l1.2-0.9
				l0.5-0.5l0.4-0.6c0.2-0.2,0.5-0.2,0.7-0.1c0.2,0.2,0.2,0.5,0.1,0.7l-0.5,0.6l-0.6,0.6l-1.2,1L97.5,88L96,88.6l-1.5,0.5L93,89.4
				l-0.8,0.1L91.3,89.5z"/>
		</g>
	</g>
</g>
</svg>
