<?xml version="1.0" encoding="utf-8"?>
<!-- Generator: Adobe Illustrator 22.1.0, SVG Export Plug-In . SVG Version: 6.00 Build 0)  -->
<!DOCTYPE svg PUBLIC "-//W3C//DTD SVG 1.1//EN" "http://www.w3.org/Graphics/SVG/1.1/DTD/svg11.dtd" [
	<!ENTITY st0 "fill:#B4B4B5;">
]>
<svg version="1.1" id="レイヤー_1" xmlns="http://www.w3.org/2000/svg" xmlns:xlink="http://www.w3.org/1999/xlink" x="0px"
	 y="0px" width="50px" height="50px" viewBox="0 0 50 50" style="enable-background:new 0 0 50 50;" xml:space="preserve">
<g>
	<g>
		<g>
			<path style="&st0;" d="M21.8,33.5c-0.1,0-0.1,0-0.2-0.1L0.1,17.8C0.1,17.8,0,17.7,0,17.6c0-0.1,0-0.2,0.1-0.2L21.6,1.7
				c0.1-0.1,0.2-0.1,0.3,0C22,1.8,22.1,1.9,22.1,2l0,31.2c0,0.1-0.1,0.2-0.2,0.3C21.9,33.5,21.8,33.5,21.8,33.5z"/>
		</g>
	</g>
	<g>
		<g>
			<path style="&st0;" d="M28.2,48.4c0,0-0.1,0-0.1,0c-0.1,0-0.2-0.1-0.2-0.3V16.9c0-0.1,0.1-0.2,0.2-0.3c0.1-0.1,0.2,0,0.3,0
				l21.5,15.6c0.1,0.1,0.1,0.1,0.1,0.2c0,0.1,0,0.2-0.1,0.2L28.4,48.4C28.3,48.4,28.3,48.4,28.2,48.4z"/>
		</g>
	</g>
</g>
</svg>
