<?xml version="1.0" encoding="utf-8"?>
<!-- Generator: Adobe Illustrator 22.1.0, SVG Export Plug-In . SVG Version: 6.00 Build 0)  -->
<!DOCTYPE svg PUBLIC "-//W3C//DTD SVG 1.1//EN" "http://www.w3.org/Graphics/SVG/1.1/DTD/svg11.dtd" [
	<!ENTITY st0 "fill:#B4B4B5;">
]>
<svg version="1.1" id="レイヤー_1" xmlns="http://www.w3.org/2000/svg" xmlns:xlink="http://www.w3.org/1999/xlink" x="0px"
	 y="0px" width="50px" height="50px" viewBox="0 0 50 50" style="enable-background:new 0 0 50 50;" xml:space="preserve">
<g>
	<path style="&st0;" d="M25,1.5c-6.6,0-11.9,5.3-11.9,11.9c0,6.6,5.3,11.9,11.9,11.9c6.6,0,11.9-5.3,11.9-11.9
		C36.9,6.8,31.6,1.5,25,1.5z M25,21.3c-4.4,0-8-3.6-8-8c0-4.4,3.6-8,8-8c4.4,0,8,3.6,8,8C33,17.8,29.4,21.3,25,21.3z"/>
	<path style="&st0;" d="M11.9,24.6C5.3,24.6,0,29.9,0,36.5s5.3,11.9,11.9,11.9c6.6,0,11.9-5.3,11.9-11.9S18.4,24.6,11.9,24.6z
		 M11.9,44.5c-4.4,0-8-3.6-8-8c0-4.4,3.6-8,8-8c4.4,0,8,3.6,8,8C19.9,40.9,16.3,44.5,11.9,44.5z"/>
	<path style="&st0;" d="M38.1,24.6c-6.6,0-11.9,5.3-11.9,11.9s5.3,11.9,11.9,11.9C44.7,48.4,50,43,50,36.5S44.7,24.6,38.1,24.6z
		 M38.1,44.5c-4.4,0-8-3.6-8-8c0-4.4,3.6-8,8-8c4.4,0,8,3.6,8,8C46.1,40.9,42.5,44.5,38.1,44.5z"/>
</g>
</svg>
