<?xml version="1.0" encoding="utf-8"?>
<!-- Generator: Adobe Illustrator 22.1.0, SVG Export Plug-In . SVG Version: 6.00 Build 0)  -->
<!DOCTYPE svg PUBLIC "-//W3C//DTD SVG 1.1//EN" "http://www.w3.org/Graphics/SVG/1.1/DTD/svg11.dtd" [
	<!ENTITY st0 "fill:#B4B4B5;">
]>
<svg version="1.1" id="レイヤー_1" xmlns="http://www.w3.org/2000/svg" xmlns:xlink="http://www.w3.org/1999/xlink" x="0px"
	 y="0px" width="50px" height="50px" viewBox="0 0 50 50" style="enable-background:new 0 0 50 50;" xml:space="preserve">
<path style="&st0;" d="M24.8,0.1C24.4,0.2,24.1,0.6,24,1c-1.8,10-8.4,20.4-11.4,24c-2.1,2.7-3.1,5.9-3.1,9.3
	c0,8.5,6.9,15.4,15.4,15.4c8.5,0,15.4-6.9,15.4-15.4c0-3.4-1.1-6.6-3.1-9.3C35,22,27.8,11.3,25.9,1c-0.1-0.4-0.3-0.8-0.8-0.9
	C25.1,0.1,25,0.1,24.8,0.1z"/>
</svg>
