<?xml version="1.0" encoding="utf-8"?>
<!-- Generator: Adobe Illustrator 22.1.0, SVG Export Plug-In . SVG Version: 6.00 Build 0)  -->
<!DOCTYPE svg PUBLIC "-//W3C//DTD SVG 1.1//EN" "http://www.w3.org/Graphics/SVG/1.1/DTD/svg11.dtd" [
	<!ENTITY st0 "fill:#B4B4B5;">
]>
<svg version="1.1" id="レイヤー_1" xmlns="http://www.w3.org/2000/svg" xmlns:xlink="http://www.w3.org/1999/xlink" x="0px"
	 y="0px" width="50px" height="50px" viewBox="0 0 50 50" style="enable-background:new 0 0 50 50;" xml:space="preserve">
<g>
	<path style="&st0;" d="M43.8,14.7C42.5,7.2,37.1,1.4,30.6,1.4c-5.2,0-9.7,3.6-11.9,9c-0.8-0.1-1.6-0.1-2.4-0.1
		c-4.6,0.4-8.3,3.6-9.8,8c-0.1,0-0.1,0-0.2,0c-3.4,0-6.2,2.8-6.2,6.3c0,3.5,2.8,6.3,6.2,6.3c0.7,0,1.3-0.1,2-0.3
		c2.3,3.2,6.1,5.2,10.1,4.8c2.4-0.2,4.5-1.2,6.3-2.7c1.8,1.1,3.8,1.8,6,1.8c3.2,0,6.1-1.4,8.4-3.7c0.9,0.4,1.8,0.5,2.8,0.5
		c4.4,0,8-3.8,8-8.4C49.9,19,47.3,15.6,43.8,14.7z M41.3,29c-1.2,0-2.3-0.4-3.2-1.1c-1.9,2.3-4.5,3.8-7.3,3.8
		c-2.2,0-4.2-0.8-5.9-2.3c-1.7,2.1-4.3,3.4-7.1,3.4c-3.8,0-7-2.3-8.5-5.6c-0.7,0.6-1.5,0.9-2.5,0.9c-2,0-3.7-1.6-3.7-3.5
		s1.7-3.5,3.7-3.5c0.6,0,1.2,0.1,1.7,0.4C9.1,16.7,13,13,17.8,13c1,0,2,0.2,2.9,0.5c1.4-5.4,5.4-9.3,10.1-9.3
		c5.6,0,10.1,5.6,10.6,12.6c3.1,0,5.6,2.7,5.6,6.1C46.9,26.2,44.4,29,41.3,29z"/>
	<g>
		<path style="&st0;" d="M7.5,48.5c-0.6-0.4-0.8-1.1-0.4-1.7l5.2-8.6c0.4-0.6,1.1-0.8,1.7-0.4c0.6,0.4,0.8,1.1,0.4,1.7l-5.2,8.6
			C9,48.5,8.5,48.7,8,48.6C7.8,48.6,7.7,48.6,7.5,48.5"/>
		<path style="&st0;" d="M13.1,48.5c-0.6-0.4-0.8-1.1-0.4-1.7l5.2-8.6c0.4-0.6,1.1-0.8,1.7-0.4c0.6,0.4,0.8,1.1,0.4,1.7l-5.2,8.6
			c-0.3,0.5-0.8,0.7-1.3,0.6C13.4,48.6,13.3,48.6,13.1,48.5"/>
		<path style="&st0;" d="M18.7,48.5c-0.6-0.4-0.8-1.1-0.4-1.7l5.2-8.6c0.4-0.6,1.1-0.8,1.7-0.4c0.6,0.4,0.8,1.1,0.4,1.7l-5.2,8.6
			c-0.3,0.5-0.8,0.7-1.3,0.6C19,48.6,18.8,48.6,18.7,48.5"/>
		<path style="&st0;" d="M24.3,48.5c-0.6-0.4-0.8-1.1-0.4-1.7l5.2-8.6c0.4-0.6,1.1-0.8,1.7-0.4c0.6,0.4,0.8,1.1,0.4,1.7L26,48.1
			c-0.3,0.5-0.8,0.7-1.3,0.6C24.6,48.6,24.4,48.6,24.3,48.5"/>
		<path style="&st0;" d="M29.9,48.5c-0.6-0.4-0.8-1.1-0.4-1.7l5.2-8.6c0.4-0.6,1.1-0.8,1.7-0.4c0.6,0.4,0.8,1.1,0.4,1.7l-5.2,8.6
			c-0.3,0.5-0.8,0.7-1.3,0.6C30.2,48.6,30,48.6,29.9,48.5"/>
		<path style="&st0;" d="M35.5,48.5c-0.6-0.4-0.8-1.1-0.4-1.7l5.2-8.6c0.4-0.6,1.1-0.8,1.7-0.4c0.6,0.4,0.8,1.1,0.4,1.7l-5.2,8.6
			c-0.3,0.5-0.8,0.7-1.3,0.6C35.7,48.6,35.6,48.6,35.5,48.5"/>
	</g>
</g>
</svg>
