<?xml version="1.0" encoding="utf-8"?>
<!-- Generator: Adobe Illustrator 22.1.0, SVG Export Plug-In . SVG Version: 6.00 Build 0)  -->
<!DOCTYPE svg PUBLIC "-//W3C//DTD SVG 1.1//EN" "http://www.w3.org/Graphics/SVG/1.1/DTD/svg11.dtd" [
	<!ENTITY st0 "fill:#B3B3B4;">
]>
<svg version="1.1" id="レイヤー_1" xmlns="http://www.w3.org/2000/svg" xmlns:xlink="http://www.w3.org/1999/xlink" x="0px"
	 y="0px" width="50px" height="50px" viewBox="0 0 50 50" style="enable-background:new 0 0 50 50;" xml:space="preserve">
<g>
	<path style="&st0;" d="M47.3,32.3c-0.1-1.1-0.8-3-1.1-3.6c-0.7-1.3-1.5-2.5-2.4-3.6h0c0,0,0,0,0,0c0,0,0,0,0,0h0
		c-0.1-0.1-0.1-0.2-0.2-0.2c-1-1.1-1.8-2.2-2.5-3c-3.3-3.9-2.4-8.2-2.4-8.4c0.6-3.9,2.4-8.7,6-11.7l-6.3-1.6
		c-6.2,7-6.3,14.5-5.9,17.7c0.1,1.1,0.8,3,1.1,3.6c0.7,1.3,1.5,2.5,2.4,3.6h0c0,0,0,0,0,0c0,0,0,0,0,0h0c0.1,0.1,0.1,0.2,0.2,0.2
		c1,1.1,1.8,2.2,2.5,3c3.3,3.9,2.4,8.2,2.4,8.4c-0.6,3.9-2.4,8.7-6,11.7l6.3,1.6C47.6,43,47.6,35.5,47.3,32.3z"/>
	<path style="&st0;" d="M32.3,32.3c-0.1-1.1-0.8-3-1.1-3.6c-0.7-1.3-1.5-2.5-2.4-3.6h0c0,0,0,0,0,0c0,0,0,0,0,0h0
		c-0.1-0.1-0.1-0.2-0.2-0.2c-1-1.1-1.8-2.2-2.5-3c-3.3-3.9-2.4-8.2-2.4-8.4c0.6-3.9,2.4-8.7,6-11.7l-6.3-1.6
		c-6.2,7-6.3,14.5-5.9,17.7c0.1,1.1,0.8,3,1.1,3.6c0.7,1.3,1.5,2.5,2.4,3.6h0c0,0,0,0,0,0c0,0,0,0,0,0h0c0.1,0.1,0.1,0.2,0.2,0.2
		c1,1.1,1.8,2.2,2.5,3c3.3,3.9,2.4,8.2,2.4,8.4c-0.6,3.9-2.4,8.7-6,11.7l6.3,1.6C32.6,43,32.6,35.5,32.3,32.3z"/>
	<path style="&st0;" d="M17.3,32.3c-0.1-1.1-0.8-3-1.1-3.6c-0.7-1.3-1.5-2.5-2.4-3.6h0c0,0,0,0,0,0c0,0,0,0,0,0h0
		c-0.1-0.1-0.1-0.2-0.2-0.2c-1-1.1-1.8-2.2-2.5-3c-3.3-3.9-2.4-8.2-2.4-8.4c0.6-3.9,2.4-8.7,6-11.7L8.2,0.1C2,7.1,2,14.6,2.3,17.8
		c0.1,1.1,0.8,3,1.1,3.6c0.7,1.3,1.5,2.5,2.4,3.6h0c0,0,0,0,0,0c0,0,0,0,0,0h0c0.1,0.1,0.1,0.2,0.2,0.2c1,1.1,1.8,2.2,2.5,3
		c3.3,3.9,2.4,8.2,2.4,8.4c-0.6,3.9-2.4,8.7-6,11.7l6.3,1.6C17.6,43,17.6,35.5,17.3,32.3z"/>
</g>
</svg>
