<?xml version="1.0" encoding="utf-8"?>
<!-- Generator: Adobe Illustrator 22.1.0, SVG Export Plug-In . SVG Version: 6.00 Build 0)  -->
<!DOCTYPE svg PUBLIC "-//W3C//DTD SVG 1.1//EN" "http://www.w3.org/Graphics/SVG/1.1/DTD/svg11.dtd" [
	<!ENTITY st0 "fill:#B4B4B5;">
]>
<svg version="1.1" id="レイヤー_1" xmlns="http://www.w3.org/2000/svg" xmlns:xlink="http://www.w3.org/1999/xlink" x="0px"
	 y="0px" width="50px" height="50px" viewBox="0 0 50 50" style="enable-background:new 0 0 50 50;" xml:space="preserve">
<g>
	<path style="&st0;" d="M46.3,34.9l-6.1-3.5l4.9-1.3c0.9-0.2,1.4-1.2,1.2-2.1c-0.2-0.9-1.2-1.4-2.1-1.2l-7.2,1.9l-1,0.3L29,24.9
		l7.3-4.2l0.8,0.2l7.3,2c0.9,0.2,1.8-0.3,2.1-1.2c0.2-0.9-0.3-1.8-1.2-2.1l-4.9-1.3l5.9-3.4c0.8-0.5,1.1-1.5,0.6-2.3
		c-0.5-0.8-1.5-1.1-2.3-0.6l-6.1,3.5l1.4-5.2c0.2-0.9-0.3-1.8-1.2-2.1c-0.9-0.2-1.8,0.3-2.1,1.2l-2,7.3l-0.3,1.1l-7.2,4.2v-8.8
		l0.6-0.6l5.4-5.4c0.7-0.7,0.6-1.7,0-2.4c-0.7-0.7-1.7-0.7-2.4,0l-3.6,3.6V1.7c0-0.9-0.8-1.7-1.7-1.7c-0.9,0-1.7,0.7-1.7,1.7v7
		l-3.8-3.8c-0.7-0.7-1.7-0.6-2.4,0c-0.7,0.7-0.7,1.7,0,2.4l5.4,5.4l0.8,0.8v8.4l-7.8-4.5l-0.2-0.8l-2-7.3c-0.2-0.9-1.2-1.4-2.1-1.2
		c-0.9,0.2-1.4,1.2-1.2,2.1l1.3,4.9L6,11.7c-0.8-0.5-1.8-0.2-2.3,0.6c-0.5,0.8-0.2,1.8,0.6,2.3l6.1,3.5l-5.2,1.4
		c-0.9,0.2-1.4,1.2-1.2,2.1c0.2,0.9,1.2,1.4,2.1,1.2l7.3-2l1.1-0.3l7.7,4.4l-7.7,4.4l-1-0.3l-7.8-2.1C5,26.8,4,27.4,3.8,28.3
		c-0.2,0.9,0.3,1.8,1.2,2.1l5.4,1.5l-6.1,3.5c-0.8,0.5-1.1,1.5-0.6,2.3c0.5,0.8,1.5,1.1,2.3,0.6l6.1-3.5l-1.3,4.9
		c-0.2,0.9,0.3,1.8,1.2,2.1c0.9,0.2,1.8-0.3,2.1-1.2l1.9-7.2l0.3-1l7.6-4.4v8.5l-0.7,0.7l-5.7,5.7c-0.7,0.7-0.6,1.7,0,2.4
		c0.7,0.7,1.7,0.7,2.4,0l4-4v7c0,0.9,0.8,1.7,1.7,1.7c0.9,0,1.7-0.7,1.7-1.7v-7l3.6,3.6c0.7,0.7,1.7,0.6,2.4,0
		c0.7-0.7,0.7-1.7,0-2.4l-5.3-5.3l-0.7-0.7v-8.6l7.2,4.2l0.3,1l2.1,7.8c0.2,0.9,1.2,1.4,2.1,1.2c0.9-0.2,1.4-1.2,1.2-2.1l-1.5-5.4
		l6.1,3.5c0.8,0.5,1.8,0.2,2.3-0.6C47.4,36.4,47.1,35.4,46.3,34.9"/>
</g>
</svg>
