<?xml version="1.0" encoding="utf-8"?>
<!-- Generator: Adobe Illustrator 22.1.0, SVG Export Plug-In . SVG Version: 6.00 Build 0)  -->
<!DOCTYPE svg PUBLIC "-//W3C//DTD SVG 1.1//EN" "http://www.w3.org/Graphics/SVG/1.1/DTD/svg11.dtd" [
	<!ENTITY st0 "fill:#231815;">
	<!ENTITY st1 "fill:none;stroke:#231815;stroke-width:2;stroke-miterlimit:10;">
	<!ENTITY st2 "fill:none;stroke:#231815;stroke-width:2;stroke-linecap:round;stroke-miterlimit:10;">
	<!ENTITY st3 "fill:none;stroke:#212121;stroke-width:3;stroke-miterlimit:10;">
	<!ENTITY st4 "fill:#212121;">
]>
<svg version="1.1" id="レイヤー_1" xmlns="http://www.w3.org/2000/svg" xmlns:xlink="http://www.w3.org/1999/xlink" x="0px"
	 y="0px" viewBox="0 0 664.8 286.2" style="enable-background:new 0 0 664.8 286.2;" xml:space="preserve">
<g>
	<g>
		<g>
			<circle style="&st0;" cx="187.5" cy="109.9" r="5"/>
			<circle style="&st0;" cx="217.5" cy="109.9" r="5"/>
			<circle style="&st0;" cx="247.5" cy="109.9" r="5"/>
			<circle style="&st0;" cx="277.5" cy="109.9" r="5"/>
			<circle style="&st0;" cx="307.5" cy="109.9" r="5"/>
			<circle style="&st0;" cx="337.4" cy="109.9" r="5"/>
			<circle style="&st0;" cx="367.4" cy="109.9" r="5"/>
			<circle style="&st0;" cx="397.4" cy="109.9" r="5"/>
			<circle style="&st0;" cx="427.4" cy="109.9" r="5"/>
			<circle style="&st0;" cx="457.4" cy="109.9" r="5"/>
		</g>
		<g>
			<g>
				<g>
					<path style="&st1;" d="M624.4,207.3H538c-9.2,0-16.8-7.6-16.8-16.8V29.3c0-9.2,7.6-16.8,16.8-16.8h86.4
						c9.2,0,16.8,7.6,16.8,16.8v161.2C641.2,199.7,633.7,207.3,624.4,207.3z"/>
					<path style="&st1;" d="M626.6,19.1h-25.3V26c-0.7,1.1-2.3,2-3.6,2h-33.1c-1.3,0-2.9-0.9-3.6-2v-6.8h-25.3c-4,0-7.2,3.2-7.2,7.2
						v166.2c0,4,3.2,7.2,7.2,7.2h90.8c4,0,7.2-3.2,7.2-7.2V26.3C633.9,22.4,630.6,19.1,626.6,19.1z"/>
					<line style="&st2;" x1="563.5" y1="188.9" x2="599" y2="188.9"/>
				</g>
				<g>
					<rect x="585.8" y="84.1" style="&st3;" width="20" height="20"/>
					<rect x="555.8" y="84.1" style="&st3;" width="20" height="20"/>
					<rect x="561.8" y="90.1" style="&st4;" width="8" height="8"/>
					<rect x="561.8" y="120.4" style="&st4;" width="8" height="8"/>
					<rect x="591.9" y="90.1" style="&st4;" width="8" height="8"/>
					<rect x="555.8" y="114.1" style="&st3;" width="20" height="20"/>
					<rect x="587.9" y="116.8" style="&st4;" width="6.3" height="6.3"/>
					<rect x="581.6" y="110.5" style="&st4;" width="6.3" height="6.3"/>
					<rect x="581.6" y="123.1" style="&st4;" width="6.3" height="6.3"/>
					<rect x="594.1" y="110.5" style="&st4;" width="6.3" height="6.3"/>
					<rect x="600.4" y="116.8" style="&st4;" width="6.3" height="6.3"/>
					<rect x="594.1" y="123.1" style="&st4;" width="6.3" height="6.3"/>
					<rect x="587.9" y="129.4" style="&st4;" width="6.3" height="6.3"/>
					<rect x="600.4" y="129.4" style="&st4;" width="6.3" height="6.3"/>
				</g>
			</g>
			<g>
				<path d="M516.8,250.6c-1.9-2.4-4.6-5-7.7-7.4c-1.7,1.9-2.9,3-4.6,4.3c-1.7,1.2-2.9,2-4.7,2.9c-0.4-0.7-0.6-1-1.2-1.6
					c1.8-0.7,3-1.4,4.9-2.8c3.8-2.8,6.8-6.6,8.6-10.8c0-0.1,0.1-0.2,0.1-0.3c0-0.1,0-0.1,0.1-0.2c-0.2,0-0.3,0-0.6,0l-8,0.1
					c-1.1,0-1.8,0.1-2.5,0.2l0-1.9c0.6,0.1,1.1,0.1,1.9,0.1c0.1,0,0.3,0,0.6,0l8.6-0.1c0.8,0,1.1,0,1.5-0.2l1,1
					c-0.2,0.3-0.4,0.6-0.7,1.2c-1.3,3-2.5,4.9-4,6.7c3.1,2.4,5.3,4.3,8,7.2L516.8,250.6z"/>
				<path d="M524.9,239.2c1.8,1.5,2.7,2.3,4.9,4.5c1-0.9,2.3-2,3.2-3c1.3-1.4,3-3.6,4-5.2c0.1-0.1,0.1-0.1,0.2-0.3
					c-0.3,0-0.3,0-13.7,0c-1.3,0-2,0-2.8,0.1v-1.9c0.8,0.1,1.4,0.1,2.8,0.1h14c0.8,0,1,0,1.3-0.2l1,1.2c-0.3,0.3-0.5,0.5-1,1.3
					c-2.4,3.7-4.9,6.6-7.9,9c0.9,1,1.9,2.2,3.5,4.4l-1.5,1.2c-2.2-3.5-5.8-7.4-9.4-10.3L524.9,239.2z"/>
				<path d="M542,240.1c0.7,0.1,1.3,0.1,3,0.1h13.9c1.8,0,2.2,0,2.9-0.1v1.9c-0.8-0.1-1.3-0.1-2.9-0.1H545c-1.8,0-2.3,0-3,0.1V240.1
					z"/>
				<path d="M568.4,251.1c0.1-0.6,0.1-1.2,0.1-2.5v-14.9c0-1.3,0-1.8-0.1-2.4h2.1c-0.1,0.6-0.1,1.1-0.1,2.5v4.5
					c3.7,1.3,6.5,2.6,10.7,5.1l-1,1.8c-2.3-1.6-5.6-3.4-9-4.8c-0.4-0.1-0.5-0.2-0.7-0.4l0,0c0.1,0.5,0.1,0.8,0.1,1.4v7.2
					c0,1.3,0,1.9,0.1,2.5H568.4z"/>
				<path d="M600.2,234.4c-0.2,0.3-0.2,0.3-0.5,1.5c-1.3,4.6-3.1,7.8-6,10.4c-2.2,2-4.3,3.3-7.5,4.5c-0.4-0.8-0.6-1.1-1.2-1.7
					c2.2-0.6,3.6-1.3,5.4-2.5c3.9-2.6,6.2-6,7.6-11.4h-12.2c-1.2,0-1.9,0-2.7,0.1v-1.9c0.9,0.1,1.4,0.2,2.7,0.2h11.8
					c1,0,1.1,0,1.5-0.2L600.2,234.4z"/>
				<path d="M607.1,240.3c-1,0-1.6,0-2.2,0.1v-1.7c0.6,0.1,1,0.1,2.1,0.1h7.1l0-1.7c0-0.9,0-1.3-0.1-1.8h1.7
					c-0.1,0.4-0.1,0.8-0.1,1.3v0.4l0,1.8h2.3c1.1,0,1.5,0,2.2-0.1v1.7c-0.6-0.1-1.2-0.1-2.2-0.1h-2.3l0.1,9.3c0,1.1,0,1.3,0.1,1.9
					h-1.8c0.1-0.6,0.1-0.9,0.1-1.8v-0.1l0-7.2c0,0,0-0.6,0.1-1.3c0,0.1,0,0.1-0.1,0.3c-1.3,2.7-4.7,5.8-9,8.1
					c-0.4-0.6-0.5-0.8-1.1-1.3c1.9-0.8,3.6-2,5.5-3.6c1.6-1.4,2.8-2.7,3.7-4.3H607.1z"/>
				<path d="M623,248.3c1.9-0.1,4.8-0.8,7-1.8c4.6-2.1,7.8-5.6,9.8-10.7c0.6,0.7,0.8,1,1.5,1.4c-1.9,4.2-4.2,7-7.3,9.2
					c-2.5,1.7-4.9,2.7-9,3.6c-0.6,0.1-0.8,0.2-1.4,0.4L623,248.3z M624.6,233.4c2.6,1.6,4.1,2.8,5.8,4.5l-1.2,1.5
					c-1.7-1.9-3.6-3.4-5.7-4.7L624.6,233.4z"/>
				<path d="M643.6,234.5c0.5,0,0.7,0,0.9,0c0.3,0,0.6,0,1.4-0.1c1.3-0.1,1.5-0.1,4.4-0.3l3.8-0.2c3-0.2,3.3-0.2,4.1-0.2l1.4,0
					c2.1-0.1,2.5-0.2,2.9-0.3l0.1,1.8c-1,0-1.8,0.1-2.7,0.3c-1.6,0.4-3.3,1.3-4.6,2.4c-1.9,1.6-3,3.6-3,5.5c0,2,1.2,3.6,3.4,4.4
					c1.2,0.4,2.7,0.8,3.6,0.8c0,0,0.1,0,0.2,0l-0.3,1.9c-0.3,0-0.3-0.1-0.7-0.1c-2.4-0.4-3.8-0.9-5.2-1.8c-1.7-1.2-2.7-2.9-2.7-4.9
					c0-2.8,1.6-5.4,4.5-7.4c0.7-0.5,1.4-0.8,2.3-1.3c-1.4,0.2-2.8,0.4-5.3,0.5c-4.8,0.3-7.4,0.6-8.3,0.8L643.6,234.5z M659.6,238
					c1.1,1.3,1.8,2.3,2.5,3.7l-1.2,0.7c-0.6-1.3-1.7-3.1-2.4-3.8L659.6,238z M662.3,236.7c1.1,1.3,1.7,2.2,2.5,3.7l-1.2,0.7
					c-0.5-1.1-1.5-2.7-2.4-3.8L662.3,236.7z"/>
				<path d="M518.3,266.4c0.7,0.1,1.2,0.1,2.2,0.1c2.2,0,5.6-0.1,7.3-0.3c0.5,0,1-0.1,1.3-0.3l1,1.3c-0.4,0.3-0.6,0.4-1.2,1
					c-2.4,2.3-5.5,4.7-7.9,6.1c1.2-0.2,2.1-0.3,5.8-0.6c1-0.1,2.4-0.2,4.3-0.4c1-0.1,1.7-0.1,2.2-0.2c0.3,0,0.4,0,0.7-0.1l0.2,1.7
					c-0.2,0-0.4,0-0.5,0c-2.4,0-4.8,0.5-6.6,1.3c-1.2,0.6-2.3,1.4-3,2.3c-0.6,0.7-0.8,1.3-0.8,2c0,2,2.1,3.1,5.7,3.1
					c0.6,0,1.1,0,1.6-0.1l0.1,1.8c-0.4,0-0.4,0-1.6,0c-2.8,0-4.9-0.6-6-1.6c-0.9-0.8-1.4-1.8-1.4-3c0-2.1,1.8-4,5.2-5.5
					c-0.3,0-0.3,0-1.3,0.2c-0.4,0-2.5,0.3-3.9,0.5c-3.8,0.5-6.2,0.8-7.1,1.1l-0.2-1.8c0.1,0,0.1,0,0.2,0c0.7,0,2.5-0.2,4.2-0.5
					c2.4-1.4,5.6-3.9,8-6.2c0.4-0.4,0.5-0.4,0.8-0.7c-1.3,0.3-4,0.5-7.5,0.6c-0.9,0-1,0-1.5,0.1L518.3,266.4z"/>
				<path d="M545.6,278c-1.4,3.2-2.8,4.6-4.5,4.6c-2.3,0-4-2.5-4-5.9c0-2.4,0.9-4.8,2.5-6.6c1.9-2.1,4.5-3.2,7.8-3.2
					c2.7,0,5,0.8,6.6,2.4c1.5,1.5,2.3,3.6,2.3,5.9c0,3.7-2,6.8-5.5,8.3c-1.1,0.5-2,0.7-3.6,1.1c-0.2-0.8-0.4-1-0.8-1.6
					c1.8-0.3,2.9-0.6,4-1.1c2.6-1.2,4.2-3.8,4.2-6.7c0-2.7-1.4-4.9-3.8-6c-0.9-0.4-1.6-0.6-2.8-0.6
					C547.6,271.8,546.7,275.4,545.6,278z M542.7,269.6c-2.4,1.5-3.9,4.2-3.9,7.2c0,2.3,1,4.1,2.3,4.1c1,0,2-1.1,3-3.5
					c1-2.3,1.9-5.8,2.2-8.9C544.8,268.6,543.8,268.9,542.7,269.6z"/>
				<path d="M576.7,284.1c-1.1-1.2-2.9-2.4-4.9-3.4c-0.4-0.2-1-0.5-1.6-0.7c0,0.6,0,0.6,0,0.9c0,1.3-0.2,2-0.6,2.6
					c-0.7,1-2.2,1.5-4.1,1.5c-1.6,0-2.9-0.3-3.7-1c-0.8-0.6-1.3-1.5-1.3-2.5c0-1.6,1.2-2.8,3.4-3.3c0.7-0.2,1.4-0.2,2.5-0.2
					c0.8,0,1.1,0,2.2,0.2c0-0.1,0-0.1,0-0.3c0,0,0-0.1,0-0.3c0-0.2,0-0.7,0-1.4c0-0.3,0-0.8,0-1.4c-0.9,0-2.1,0-2.8,0
					c-1.4,0-2.6,0-4.1-0.2c-0.3,0-0.5,0-0.6,0c0,0-0.1,0-0.2,0l0-1.6c1.1,0.2,3.1,0.4,5.5,0.4c0.6,0,1.5,0,2.1,0l0-3.3
					c-0.7,0-1.1,0-1.6,0c-1.8,0-3.7-0.1-5.9-0.2c-0.2,0-0.3,0-0.4,0c-0.1,0-0.2,0-0.3,0l0-1.6c1,0.3,3.5,0.5,6.1,0.5
					c0.5,0,1.3,0,2.1,0c0-2.9,0-2.9-0.1-3.5h1.8c-0.1,0.5-0.1,1.7-0.2,3.4c3.3-0.2,5.8-0.6,7.1-1l0.1,1.6c-0.4,0-0.4,0-1.7,0.2
					c-2.3,0.3-2.9,0.4-5.6,0.6c0,2,0,2,0,3.2c3.3-0.2,5.3-0.5,6.6-1l0.1,1.7c-0.3,0-0.6,0-1.4,0.2c-1.7,0.3-3.6,0.5-5.3,0.6
					c0,1.3,0,1.3,0.1,3.7c2.1,0.6,4.2,1.7,6.7,3.5c0.4,0.3,0.5,0.4,0.8,0.6L576.7,284.1z M568.6,279.6c-0.9-0.2-1.4-0.3-2.4-0.3
					c-2.4,0-3.9,0.9-3.9,2.1c0,1.3,1.2,2,3.3,2c1.3,0,2.2-0.3,2.6-0.8c0.3-0.3,0.5-1,0.5-2.2L568.6,279.6z"/>
				<path d="M598.3,284.1c-1.1-1.2-2.9-2.4-4.9-3.4c-0.4-0.2-1-0.5-1.6-0.7c0,0.6,0,0.6,0,0.9c0,1.3-0.2,2-0.6,2.6
					c-0.7,1-2.2,1.5-4.1,1.5c-1.6,0-2.9-0.3-3.7-1c-0.8-0.6-1.3-1.5-1.3-2.5c0-1.6,1.2-2.8,3.4-3.3c0.7-0.2,1.4-0.2,2.5-0.2
					c0.8,0,1.1,0,2.2,0.2c0-0.1,0-0.1,0-0.3c0,0,0-0.1,0-0.3c0-0.2,0-0.7,0-1.4c0-0.3,0-0.8,0-1.4c-0.9,0-2.1,0-2.8,0
					c-1.4,0-2.6,0-4.1-0.2c-0.3,0-0.5,0-0.6,0c0,0-0.1,0-0.2,0l0-1.6c1.1,0.2,3.1,0.4,5.5,0.4c0.6,0,1.5,0,2.1,0l0-3.3
					c-0.7,0-1.1,0-1.6,0c-1.8,0-3.7-0.1-5.9-0.2c-0.2,0-0.3,0-0.4,0c-0.1,0-0.2,0-0.3,0l0-1.6c1,0.3,3.5,0.5,6.1,0.5
					c0.5,0,1.3,0,2.1,0c0-2.9,0-2.9-0.1-3.5h1.8c-0.1,0.5-0.1,1.7-0.2,3.4c3.3-0.2,5.8-0.6,7.1-1l0.1,1.6c-0.4,0-0.4,0-1.7,0.2
					c-2.3,0.3-2.9,0.4-5.6,0.6c0,2,0,2,0,3.2c3.3-0.2,5.3-0.5,6.6-1l0.1,1.7c-0.3,0-0.6,0-1.4,0.2c-1.7,0.3-3.6,0.5-5.3,0.6
					c0,1.3,0,1.3,0.1,3.7c2.1,0.6,4.2,1.7,6.7,3.5c0.4,0.3,0.5,0.4,0.8,0.6L598.3,284.1z M590.2,279.6c-0.9-0.2-1.4-0.3-2.4-0.3
					c-2.4,0-3.9,0.9-3.9,2.1c0,1.3,1.2,2,3.3,2c1.3,0,2.2-0.3,2.6-0.8c0.3-0.3,0.5-1,0.5-2.2L590.2,279.6z"/>
				<path d="M608.8,267.4c-0.5,0-1,0-1.8,0.1v-1.7c0.5,0.1,1,0.1,1.8,0.1h3.2c1.2,0,1.8,0,2.2-0.1c-0.1,0.6-0.1,1.1-0.1,1.6
					c0,3,0.6,5.7,2,8.4c0.9,1.8,2.1,3.4,3.6,5c1.4,1.4,2.3,2.2,4.5,3.5c-0.6,0.6-0.8,0.7-1.3,1.5c-2.1-1.5-3.2-2.4-4.7-4.1
					c-1.4-1.6-2.6-3.4-3.4-5.2c-0.7-1.5-1.1-2.6-1.5-4.4c-0.7,3.2-1.7,5.5-3.4,7.8c-0.9,1.3-2,2.5-3.2,3.6c-0.9,0.8-1.5,1.3-3,2.4
					c-0.4-0.6-0.7-1-1.3-1.4c2.6-1.6,4-2.8,5.6-4.7c1.7-2.1,3-4.4,3.7-7c0.5-1.6,0.6-2.8,0.8-5.2H608.8z"/>
				<path d="M629.4,267.2c0-1.1,0-2-0.1-2.6h1.8c-0.1,0.7-0.1,1.5-0.1,2.7v3.3h0.6c0.9,0,1.5,0,2-0.1v1.5c-0.7-0.1-1.3-0.1-2-0.1
					h-0.6v6.2c0.8-0.4,1.1-0.6,2-1.2l0.1,1.4c-1.4,0.9-3.6,2.1-5,2.7c-0.4,0.2-1.1,0.5-1.3,0.6l-0.5-1.7c0.9-0.2,1.2-0.3,3.1-1.2
					v-6.9h-1c-0.8,0-1.4,0-2,0.1v-1.6c0.6,0.1,1.2,0.1,2.1,0.1h1V267.2z M636.1,278.2c-1.1,1.2-2.3,2.2-4,3.2
					c-0.3-0.4-0.6-0.8-1-1.1c2.8-1.4,4.6-3,5.6-5.1h-1.5c-1,0-1.7,0-2.2,0.1v-1.6c0.5,0.1,1.1,0.1,2.2,0.1h10.2c1.2,0,1.8,0,2.4-0.1
					v1.5c-0.6-0.1-1.3-0.1-2.4-0.1h-7.3c-0.4,0.7-0.6,1-1.1,1.8h7.9c1.2,0,1.8,0,2.4-0.1c0,0.3-0.1,0.5-0.1,1.4
					c-0.2,2.8-0.6,5.6-1.1,6.4c-0.4,0.9-1,1.1-2.7,1.1c-0.6,0-1.3,0-2.1-0.1c-0.1-0.6-0.2-1-0.5-1.6c1.1,0.2,2,0.3,2.9,0.3
					c1,0,1.1-0.2,1.4-1.6c0.3-1.2,0.4-2.7,0.5-4.6h-1.6c-0.6,1.5-1.2,2.5-2.1,3.6c-0.7,0.9-2.1,2.2-3,3c-0.6,0.4-1,0.7-1.9,1.3
					c-0.4-0.5-0.6-0.7-1.1-1.1c2.1-1.2,3.4-2.2,4.7-3.6c0.8-1,1.5-2,2-3.1h-2.4c-1.4,2.4-3.5,4.3-6.6,6c-0.3-0.5-0.5-0.7-1-1.1
					c2.8-1.3,4.9-3,6.1-4.9H636.1z M636.9,272.4c-1,0-1.7,0-2.2,0.1c0.1-0.6,0.1-1.2,0.1-2.2v-3.1c0-1.1,0-1.4-0.1-2.1
					c0.7,0.1,1.2,0.1,2.3,0.1h6.3c1.1,0,1.8,0,2.5-0.1c-0.1,0.6-0.1,1.1-0.1,2.2v3c0,1.1,0,1.7,0.1,2.1c-0.5,0-1.3-0.1-2.2-0.1
					H636.9z M636.2,268.2h8v-1.8h-8V268.2z M636.2,271.2h8v-1.8h-8V271.2z"/>
			</g>
		</g>
		<g>
			<g>
				<path style="&st1;" d="M106.9,207.3H20.5c-9.2,0-16.8-7.6-16.8-16.8V29.3c0-9.2,7.6-16.8,16.8-16.8h86.4
					c9.2,0,16.8,7.6,16.8,16.8v161.2C123.7,199.7,116.1,207.3,106.9,207.3z"/>
				<path style="&st1;" d="M109.1,19.1H83.8V26c-0.7,1.1-2.3,2-3.6,2H47.1c-1.3,0-2.9-0.9-3.6-2v-6.8H18.3c-4,0-7.2,3.2-7.2,7.2
					v166.2c0,4,3.2,7.2,7.2,7.2h90.8c4,0,7.2-3.2,7.2-7.2V26.3C116.3,22.4,113.1,19.1,109.1,19.1z"/>
				<line style="&st2;" x1="45.9" y1="188.9" x2="81.4" y2="188.9"/>
			</g>
			<g>
				<path d="M12.6,239.8c0-0.2,0-0.5,0.1-1.6c-0.5,0.9-0.7,1.2-1.8,2.7c-1.2,1.7-3.4,3.6-5.7,5.3c-1.1,0.8-2,1.4-4,2.5
					c-0.4-0.7-0.6-0.9-1.2-1.4c2.9-1.3,5.6-3.2,8.1-5.7c1.3-1.3,2.7-3,3.5-4.4l-7.9,0c-1.5,0-1.8,0-2.7,0.1v-1.8
					c0.9,0.1,1.3,0.2,2.7,0.2l8.7,0l0-2.4c0-1.2,0-1.2-0.1-1.9h1.9c-0.1,0.5-0.1,0.9-0.1,1.3v0.6l0,2.4h3.2c1.3,0,1.6,0,2.4-0.1v1.8
					c-0.5,0-1-0.1-2-0.1c-0.1,0-0.2,0-0.4,0h-3.2l0.2,11.7c0,1,0,1.8,0.1,2.4h-1.9c0.1-0.7,0.1-1,0.1-1.9c0-0.3,0-0.4,0-0.5
					l-0.1-8.8V239.8L12.6,239.8z"/>
				<path d="M22.9,248.3c1.9-0.1,4.8-0.8,7-1.8c4.6-2.1,7.8-5.6,9.8-10.7c0.6,0.7,0.8,1,1.5,1.4c-1.9,4.2-4.2,7-7.3,9.2
					c-2.5,1.7-4.9,2.7-9,3.6c-0.6,0.1-0.8,0.2-1.4,0.4L22.9,248.3z M24.4,233.4c2.6,1.6,4.1,2.8,5.8,4.5l-1.2,1.5
					c-1.7-1.9-3.6-3.4-5.7-4.7L24.4,233.4z"/>
				<path d="M44.1,237.7c0.9,0.1,1.4,0.1,2.8,0.1h12.3c0.9,0,1.2,0,1.6-0.2l0.9,1c-0.2,0.3-0.3,0.5-0.7,1.5
					c-2,5.6-5.4,8.7-11.6,10.8c-0.3-0.7-0.5-1-1-1.7c3.2-0.9,5.3-2,7.1-3.6c1.7-1.6,2.8-3.3,3.9-6.3H46.9c-1.3,0-2,0-2.8,0.1V237.7z
					 M46.2,232.2c0.7,0.1,1.2,0.2,2.5,0.2h8c1.3,0,1.8,0,2.5-0.2v1.8c-0.6-0.1-1.2-0.1-2.5-0.1h-8.1c-1.3,0-1.8,0-2.5,0.1V232.2z"/>
				<path d="M82.9,232.5c-0.4,0.3-0.5,0.4-1.1,1c-1.5,1.6-3.6,3.3-5.6,4.8v10.2c0,1.4,0,1.9,0.1,2.5h-2.1c0.1-0.6,0.1-1.2,0.1-2.5
					v-9.1c-3.1,1.9-4.9,2.7-9.3,4.2c-0.3-0.8-0.5-1-0.9-1.6c4.5-1.2,8.7-3.2,12.5-6.2c2.2-1.7,3.9-3.4,4.6-4.5L82.9,232.5z"/>
				<path d="M86.5,248.3c1.9-0.1,4.8-0.8,7-1.8c4.6-2.1,7.8-5.6,9.8-10.7c0.6,0.7,0.8,1,1.5,1.4c-1.9,4.2-4.2,7-7.3,9.2
					c-2.5,1.7-4.9,2.7-9,3.6c-0.6,0.1-0.8,0.2-1.4,0.4L86.5,248.3z M88,233.4c2.6,1.6,4.1,2.8,5.8,4.5l-1.2,1.5
					c-1.7-1.9-3.6-3.4-5.7-4.7L88,233.4z"/>
				<path d="M107,234.5c0.5,0,0.7,0,0.9,0c0.3,0,0.6,0,1.4-0.1c1.3-0.1,1.5-0.1,4.4-0.3l3.8-0.2c3-0.2,3.3-0.2,4.1-0.2l1.4,0
					c2.1-0.1,2.5-0.2,2.9-0.3l0.1,1.8c-1,0-1.8,0.1-2.7,0.3c-1.6,0.4-3.3,1.3-4.6,2.4c-1.9,1.6-3,3.6-3,5.5c0,2,1.2,3.6,3.4,4.4
					c1.2,0.4,2.7,0.8,3.6,0.8c0,0,0.1,0,0.2,0l-0.3,1.9c-0.3,0-0.3-0.1-0.7-0.1c-2.4-0.4-3.8-0.9-5.2-1.8c-1.7-1.2-2.7-2.9-2.7-4.9
					c0-2.8,1.6-5.4,4.5-7.4c0.7-0.5,1.4-0.8,2.3-1.3c-1.4,0.2-2.8,0.4-5.3,0.5c-4.8,0.3-7.4,0.6-8.3,0.8L107,234.5z M123,238
					c1.1,1.3,1.8,2.3,2.5,3.7l-1.2,0.7c-0.6-1.3-1.7-3.1-2.4-3.8L123,238z M125.7,236.7c1.1,1.3,1.7,2.2,2.5,3.7l-1.2,0.7
					c-0.5-1.1-1.5-2.7-2.4-3.8L125.7,236.7z"/>
				<path d="M44.3,281.1c-0.7,2.2-1.2,3.3-2.3,4.9c-0.6-0.5-0.7-0.6-1.2-0.9c1.2-1.5,1.7-2.6,2.3-4.7L44.3,281.1z M43.6,279.9
					c-0.8,0-1.3,0-1.9,0.1c0-0.5,0.1-1.3,0.1-2.5v-9.6c0-1.2,0-1.8-0.1-2.5c0.6,0,1.1,0.1,2,0.1H46c0.8,0,1.3,0,1.8-0.1
					c0,0.5-0.1,0.9-0.1,2.4v9.8c0,1.3,0,2,0.1,2.4c-0.5,0-1-0.1-1.9-0.1H43.6z M43.1,269.7h3.3v-3h-3.3V269.7z M43.1,274h3.3v-3
					h-3.3V274z M43.1,278.6h3.3v-3.3h-3.3V278.6z M46.5,280.5c0.6,1.7,1.1,2.7,2.1,4.2c-0.4,0.2-0.6,0.4-1.2,0.8
					c-0.9-1.6-1.4-2.6-2.1-4.4L46.5,280.5z M50.8,273.3c-1.1,0-1.6,0-2.3,0.1V272c0.6,0.1,1.2,0.1,2.3,0.1h1.4v-1.8h-0.8
					c-0.9,0-1.4,0-2,0.1v-1.3c0.6,0.1,1,0.1,2,0.1h0.8v-1.6h-1.3c-0.9,0-1.5,0-2.1,0.1v-1.4c0.6,0.1,1.1,0.1,2.1,0.1h1.2
					c0-0.9,0-1.4-0.1-1.9h1.6c-0.1,0.5-0.1,0.9-0.1,1.9h3.6c0-1.1,0-1.4-0.1-1.9h1.6c-0.1,0.6-0.1,1.1-0.1,1.9H60c1,0,1.5,0,2-0.1
					v1.4c-0.7-0.1-1.2-0.1-2-0.1h-1.6v1.6h1.1c0.9,0,1.4,0,2-0.1v1.3c-0.6-0.1-1.2-0.1-2-0.1h-1v1.8h1.7c1.1,0,1.6,0,2.2-0.1v1.5
					c-0.6-0.1-1.2-0.1-2.3-0.1H56v1.7h2.8c1,0,1.7,0,2.3-0.1c-0.1,0.5-0.1,1.2-0.1,2.4v3.8c0.6,0,1,0,1.4-0.1v1.4
					c-0.5-0.1-0.7-0.1-1.4-0.1v2c0,1.5-0.4,1.8-2.2,1.8c-0.8,0-1.3,0-2.4-0.1c0-0.6-0.1-0.9-0.3-1.4c0.9,0.1,1.8,0.2,2.5,0.2
					c0.9,0,1-0.1,1-0.6v-1.9h-8.4v1.5c0,1.6,0,2,0.1,2.6h-1.6c0.1-0.7,0.1-1.4,0.1-2.6v-1.5c-0.7,0-1,0-1.6,0.1v-1.4
					c0.5,0.1,0.9,0.1,1.6,0.1v-3.7c0-0.9,0-1.5-0.1-2.4c0.6,0,1.3,0.1,2.6,0.1h2.3v-1.7H50.8z M54.6,276.1h-3.5v1.8h3.5V276.1z
					 M54.6,279h-3.5v1.9h3.5V279z M53.5,269.2h3.6v-1.6h-3.6V269.2z M53.5,272.1h3.6v-1.8h-3.6V272.1z M59.6,277.9v-1.8H56v1.8H59.6
					z M59.6,280.9V279H56v1.9H59.6z"/>
				<path d="M71.2,267.4c-0.5,0-1,0-1.8,0.1v-1.7c0.5,0.1,1,0.1,1.8,0.1h3.2c1.2,0,1.8,0,2.2-0.1c-0.1,0.6-0.1,1.1-0.1,1.6
					c0,3,0.6,5.7,2,8.4c0.9,1.8,2.1,3.4,3.6,5c1.4,1.4,2.3,2.2,4.5,3.5c-0.6,0.6-0.8,0.7-1.3,1.5c-2.1-1.5-3.2-2.4-4.7-4.1
					c-1.4-1.6-2.6-3.4-3.4-5.2c-0.7-1.5-1.1-2.6-1.5-4.4c-0.7,3.2-1.7,5.5-3.4,7.8c-0.9,1.3-2,2.5-3.2,3.6c-0.9,0.8-1.5,1.3-3,2.4
					c-0.4-0.6-0.7-1-1.3-1.4c2.6-1.6,4-2.8,5.6-4.7c1.7-2.1,3-4.4,3.7-7c0.5-1.6,0.6-2.8,0.8-5.2H71.2z"/>
			</g>
		</g>
	</g>
	<g>
		<path d="M172.2,10.4c-0.7,0-1,0-1.6,0.1V9.5c-1.4,1-2.3,1.5-4.2,2.3c-0.4-0.9-0.8-1.4-1.4-2.2c1.8-0.7,3-1.3,4.6-2.3
			c-1.3-1.6-2.2-2.3-3.4-3.1l2-1.5c0.4,0.3,0.4,0.3,0.8,0.6V0.8c0.5,0.1,1.2,0.1,2,0.1h4.4c1.1,0,1.5,0,2.1-0.1
			c0.2,1,0.6,1.5,1.5,2.6c0.8-0.8,0.9-0.9,1.4-1.5c0.3-0.4,0.4-0.5,0.5-0.7C181,1,181,1,181,0.9l2.2,1.2c-0.1,0.1-0.4,0.5-0.9,1.1
			c-0.4,0.5-1.2,1.2-1.8,1.8c0.6,0.6,0.9,0.8,1.4,1.2c1-0.9,1.9-2,2.5-2.9l2.2,1.2c-0.1,0.1-0.2,0.2-0.7,0.7
			c-0.6,0.8-1.3,1.5-2.2,2.2c1.3,0.8,2.1,1.2,3.8,1.8c-0.6,0.7-0.7,1-1.3,2.4c-2-0.9-2.7-1.3-4-2.2v1c-0.7-0.1-1.2-0.1-2.3-0.1V13
			h3.8c1.2,0,1.8,0,2.5-0.1v2.6c-0.7-0.1-1.4-0.1-2.5-0.1h-3.8v3.6c0,0.5,0,0.6,0.4,0.6c0.3,0.1,0.7,0.1,1.5,0.1
			c1.3,0,1.9-0.1,2.2-0.5c0.2-0.3,0.4-1.1,0.4-2.4c0.9,0.5,1.6,0.7,2.6,0.8c-0.5,4.1-1,4.4-5.6,4.4c-3.3,0-4-0.4-4-2.1v-4.7h-3.1
			c-0.3,1.4-0.8,2.5-1.5,3.5c-1.2,1.6-2.6,2.5-5.6,3.7c-0.5-0.9-0.9-1.6-1.7-2.4c2.2-0.6,3.4-1.2,4.4-2.1c0.8-0.7,1.3-1.5,1.7-2.7
			h-3.1c-1.1,0-1.7,0-2.5,0.1v-2.6c0.7,0.1,1.3,0.1,2.5,0.1h3.4c0-0.3,0-0.5,0-0.7L172.2,10.4z M170.4,3.2c-0.4,0-1,0-1.5,0.1
			c1.3,1.1,1.8,1.6,2.6,2.5c1-0.9,1.6-1.6,2.4-2.6H170.4z M180,8.2c0.3,0,0.3,0,0.5,0c-1.7-1.4-2.8-2.5-4.1-4.3
			c-1.3,1.9-2.4,3-4.1,4.3c0.3,0,0.4,0,0.6,0H180z M174.8,12.5c0,0.2,0,0.3,0,0.6h2.8v-2.6h-2.8L174.8,12.5z"/>
		<path d="M195.9,8.5c0.5-0.8,0.8-1.3,1.2-2.1h-3.4c-1.2,0-1.8,0-2.6,0.1V4c0.7,0.1,1.3,0.1,2.6,0.1h0.3c-0.4-0.9-0.9-1.6-1.7-2.7
			l2.5-0.8c0.7,1.1,1.3,2.2,1.9,3.5h1.2c0.4-1.2,0.7-3.1,0.7-3.9c0,0,0-0.1,0-0.2l2.9,0.3c-0.1,0.3-0.2,0.8-0.3,1.4
			c-0.1,0.6-0.4,1.6-0.7,2.4h2.4c1-1.3,1.5-2.1,2.2-3.5l2.7,0.7c-1.2,1.9-1.4,2.1-1.9,2.8h1.2c1.3,0,1.9,0,2.7-0.1v2.6
			c-0.8-0.1-1.5-0.1-2.7-0.1h-3.5c0.5,1,0.7,1.3,1.2,2.1h3.7c1.4,0,2,0,2.7-0.1v2.6c-0.8-0.1-1.5-0.1-2.7-0.1h-1.9
			c1.5,1.5,2.9,2.4,5.3,3.3c-0.8,0.9-1,1.3-1.5,2.5c-1.7-0.9-2.4-1.4-3.7-2.4c-0.2,3.3-0.4,5.3-0.8,6.3c-0.5,1.2-1.3,1.5-3.6,1.5
			c-0.6,0-1,0-2-0.1c-0.1-1.3-0.2-1.7-0.6-2.6c1.2,0.2,2.1,0.3,2.8,0.3c0.6,0,1-0.1,1.1-0.5c0.2-0.7,0.4-1.6,0.5-4h-3.9
			c-0.4,2-0.9,3-2,4.2c-1.3,1.5-3.1,2.4-5.7,3.1c-0.4-1.1-0.8-1.7-1.5-2.4c1.5-0.3,2.2-0.5,3-1c1.4-0.7,2.3-1.5,3-2.5
			c0.2-0.5,0.3-0.7,0.5-1.5h-0.7c-1.1,0-1.8,0-2.5,0.1V14c-1.2,1-2,1.5-3.5,2.4c-0.4-0.9-0.8-1.4-1.7-2.2c2.4-1.2,3.6-1.9,5.1-3.4
			h-1.8c-1.2,0-1.9,0-2.7,0.1V8.4c0.7,0.1,1.3,0.1,2.7,0.1H195.9z M197.3,10.8c-0.6,0.8-1.1,1.3-1.8,2c0.3,0,0.5,0,0.8,0h7.9
			c0.4,0,0.6,0,1,0c-0.7-0.7-1.1-1.2-1.7-2H197.3z M202.1,8.5c-0.4-0.8-0.6-1.1-1-2.1h-1.3c-0.3,0.8-0.6,1.3-1,2.1H202.1z"/>
		<path d="M233.2,1.3c-0.8,1.3-1.1,1.8-2,3c0.3,0.3,0.3,0.4,0.6,0.7c0.5-0.7,0.7-1.1,1.5-2.3l1.8,1.3c-0.5,0.6-0.5,0.6-1.7,2.2
			c-0.6,0.8-1.2,1.4-1.9,2.2c0.7,0,1-0.1,1.7-0.1c-0.1-0.4-0.2-0.5-0.4-0.9l1.5-0.6c0.6,1.2,0.9,1.9,1.4,3.8L234,11
			c-0.1-0.5-0.2-0.7-0.3-1.2c-0.5,0.1-1.1,0.1-1.8,0.2c0.6,0.4,0.6,0.4,1.2,1l-0.9,0.9h0.5c1.4,0,1.9,0,2.5-0.1v2.5
			c-0.7-0.1-1.6-0.1-2.5-0.1h-0.8l1.8,1.2c-0.9,1.2-1.6,2-2.6,2.9c0.7,1,1.3,1.5,1.7,1.5c0.4,0,0.6-0.7,0.9-2.9
			c0.6,0.6,1.2,1,1.8,1.3c-0.3,1.8-0.5,2.7-1,3.4c-0.3,0.5-0.8,0.8-1.6,0.8c-1.2,0-2.3-0.8-3.7-2.6c-1.7,1.2-3.1,1.9-5.3,2.7
			c-0.4-0.9-0.6-1.3-1.4-2.1c2.2-0.5,3.7-1.2,5.5-2.4c-0.6-1.1-0.8-2-1.2-3.7H224c0,0.4,0,0.5-0.1,0.8c0.8,0.9,1.4,1.3,2.7,2
			c-0.3,0.4-0.5,0.7-0.6,1.1c-0.3,0.6-0.3,0.6-0.5,0.9c-0.8-0.5-1.4-1-2-1.7c-0.6,2.1-1.4,3.4-3,5c-0.7-0.8-1-1-1.9-1.7
			c1.9-1.4,2.9-3.4,3.1-6.3c-0.9,0-1.3,0-1.8,0.1v-2.4c0.6,0.1,1,0.1,2,0.1h4.9c-0.1-0.7-0.1-0.9-0.2-1.3l-1.3,0.5
			c0-0.4-0.1-0.6-0.1-0.8c-0.6,0.1-1,0.2-1.7,0.3c-1.8,0.2-3.1,0.4-3.4,0.5l-0.1-0.7c-0.4,0.7-0.5,1.1-0.7,1.7
			c-0.5-0.7-0.8-1.4-1.1-2.2c0,0.7,0.1,2.1,0.1,2.9v6.9c0,1.5,0,2.3,0.1,3h-2.6c0.1-0.7,0.1-1.7,0.1-3v-4.2c0-1.1,0-1.9,0.2-4
			c-0.7,2.5-1.3,4.1-2.1,5.4c-0.3-1.1-0.6-2-1.2-2.6c0.6-1,1-1.8,1.8-3.8c0.2-0.6,0.4-1.2,1-3.2H215c-0.6,0-1.2,0-1.6,0.1V4.6
			c0.4,0.1,0.8,0.1,1.6,0.1h0.8v-2c0-1.2,0-1.9-0.1-2.5h2.6c-0.1,0.6-0.1,1.2-0.1,2.5v2h0.4c0.5,0,0.9,0,1.2,0
			c-0.2-0.2-0.3-0.2-0.5-0.5l1.4-1.7l0.5,0.5c0.7-1.1,1.2-1.8,1.5-2.9l2,1c-0.8,1.4-1.2,2.2-2.1,3.4c0.2,0.3,0.3,0.4,0.6,0.7
			c0.6-1,0.8-1.2,1.2-2.3l1.7,1.2c0-0.5,0-0.9,0-1.1c0-1.7,0-2-0.2-2.7h2.6c-0.1,0.5-0.1,0.9-0.1,1.6c0,0.1,0,0.4,0,0.8
			c0,0.2,0,0.4,0,0.7l0.7-1c0.3,0.3,0.5,0.4,0.5,0.5c0.6-0.9,1.1-1.7,1.5-2.6L233.2,1.3z M220,7.2c-0.6-0.1-0.9-0.1-1.4-0.1h-0.3
			c0.4,0.9,0.7,1.5,1.5,2.4l-0.1-0.5c0.2,0,0.3,0,0.4,0c0.1,0,0.2,0,0.4,0c0.8-0.9,1.1-1.3,1.5-1.8c-0.7-0.9-1.2-1.5-2-2.2V7.2z
			 M225.8,7.1c0.3,0.7,0.5,1,0.6,1.6c-0.1-2-0.2-3.1-0.2-4.2c-0.3,0.4-0.4,0.5-0.5,0.8c-0.9,1.3-1.9,2.7-2.7,3.5
			c0.9-0.1,0.9-0.1,1.8-0.2c-0.2-0.4-0.2-0.5-0.4-1L225.8,7.1z M228.5,4.5c0,2.2,0,2.2,0.1,3.9c0.1,0,0.2,0,0.3,0
			c0.9-1,0.9-1,1.5-1.7C229.9,5.8,229.3,5.2,228.5,4.5z M230.9,10.2c-0.2,0-0.4,0-0.5,0c-0.4,0.1-0.4,0.1-1,0.1c0,0-0.3,0-0.6,0
			c0,0.6,0.1,0.6,0.2,1.5h2.7c-0.5-0.5-0.8-0.7-1.5-1L230.9,10.2z M229.5,14.2c0.2,0.9,0.4,1.4,0.8,2.3c1.1-1.1,1.5-1.5,1.8-2.3
			H229.5z"/>
		<path d="M247,5.4c0.7-0.2,1.1-0.3,2-0.5c0-0.5,0-0.5,0-1.3c0-2.1,0-2.3-0.1-2.9h3c-0.1,0.7-0.1,0.7-0.1,3.8c0.6,0,0.9-0.1,1.4-0.1
			c3.4,0,5.6,1.9,5.6,4.9c0,1.6-0.7,3.2-1.9,4.2c-1.1,0.9-2.6,1.4-4.4,1.4c-1.2,0-2.4-0.2-3.7-0.7c0-1.2-0.1-1.6-0.4-3
			c1.4,0.6,2.6,0.9,3.8,0.9c1,0,2-0.3,2.7-0.8c0.6-0.5,1-1.2,1-2c0-1.5-1.2-2.4-3.2-2.4c-1.7,0-3.1,0.3-7.2,1.5
			c1.5,5.2,1.6,5.7,3,11.7c0.1,0.5,0.2,0.7,0.4,1.2l-3.2,0.7c-0.1-1.9-1.4-7.6-2.9-12.8c-0.3,0.1-0.4,0.1-1.2,0.4
			c-0.9,0.3-2.5,0.9-3.1,1.2l-0.9-2.8c0.7-0.1,1-0.2,2.2-0.6c1-0.3,1.2-0.4,2.3-0.7c-0.7-2.4-1.2-3.6-1.6-4.5l3-0.8
			c0.1,0.8,0.1,0.8,0.8,2.8c0.2,0.6,0.3,0.9,0.5,1.7L247,5.4z"/>
		<path d="M261.4,19.8c0.8-0.9,1.1-1.4,1.6-2.3c0.6-1,0.8-1.6,1.2-2.9l2.3,1c-0.8,2.6-1.5,4.1-2.9,5.9L261.4,19.8z M279.5,14.4
			c-0.5-0.6-0.6-0.8-1.1-1.3c-4.2,0.5-9,0.8-14,1c-0.3,0-0.7,0-1.4,0.1l-0.4-2.7c0.6,0,1,0.1,1.8,0.1c0.1,0,0.9,0,2.4,0
			c1.1-1.3,2.1-2.7,2.9-4.3l2.8,0.7c-1.1,1.7-1.8,2.5-2.7,3.6c2.6-0.1,5.3-0.2,6.6-0.3c-0.6-0.5-0.9-0.8-1.9-1.6l1.6-1
			c-2.7,0-3.2-0.3-3.2-1.6V4.2h-1.7c-0.3,1.2-0.6,1.8-1.5,2.6c-1.4,1.4-3,2.2-5.9,3c-0.4-0.9-0.7-1.2-1.4-2.1c2.4-0.5,3.7-1,4.8-1.7
			c0.7-0.6,1.1-1,1.3-1.8h-4.3V7h-2.6c0.1-0.5,0.1-1,0.1-1.8V3.6c0-0.8,0-1.2-0.1-1.8c0.7,0.1,1.5,0.1,2.6,0.1h6.4V1.5
			c0-0.6,0-1.1-0.1-1.5h2.9c-0.1,0.5-0.1,0.9-0.1,1.5V2h6.9c1.2,0,1.9,0,2.6-0.1c-0.1,0.5-0.1,0.9-0.1,1.8v1.5c0,0.9,0,1.5,0.1,1.9
			h-1.9c-0.4,1.2-1,1.5-4.1,1.5c1.9,1.4,3.2,2.7,5.2,4.8l-2,1.4c1.1,1.2,2.2,2.8,3.4,5l-2.3,1.6c-1.4-2.7-2-3.6-3.8-5.9L279.5,14.4z
			 M270.1,14.6c-0.1,0.5-0.1,0.9-0.1,1.6v2.5c0,0.5,0.1,0.6,0.4,0.7c0.3,0.1,0.8,0.1,1.6,0.1c2.9,0,3.6-0.1,3.9-0.4
			c0.2-0.2,0.4-1,0.4-2.3c0.9,0.4,1.5,0.6,2.5,0.7c-0.3,2.6-0.5,3.3-1.4,3.8c-0.8,0.4-1.8,0.5-5.5,0.5c-3.6,0-4.5-0.4-4.5-2.2v-3.2
			c0-0.9,0-1.3-0.1-1.9H270.1z M273.7,18.3c-0.8-1.5-1.4-2.2-2.7-3.4l2.1-1.2c1.2,1,1.6,1.6,2.7,3.1L273.7,18.3z M275.5,6.1
			c0,0.3,0.1,0.4,0.4,0.4c0.2,0,0.9,0.1,1.8,0.1c1.2,0,1.2-0.1,1.3-1.5c0.7,0.2,0.9,0.3,1.4,0.4V4.2h-4.9V6.1z"/>
		<path d="M286.9,21.5c0.1-0.8,0.2-1.7,0.2-3V4.7c0-1.1,0-1.8-0.1-2.6c0.8,0.1,1.5,0.1,2.7,0.1h13.6c1.1,0,1.8,0,2.7-0.1
			c-0.1,0.8-0.1,1.5-0.1,2.6v13.8c0,1.2,0,2.2,0.1,3h-3v-1.8h-13v1.8H286.9z M289.9,17h13V4.9h-13V17z"/>
		<path d="M311.8,21.1c0-0.4,0-0.6-0.1-1.1c-0.5-2.9-0.6-4.8-0.6-7.2c0-3.1,0.3-5.8,1-9.4c0.3-1.3,0.3-1.6,0.4-2.2l3.2,0.3
			C315,3,314.4,5.6,314,8.7c-0.2,1.8-0.3,3.2-0.4,5.3c0,0.5,0,0.7,0,1.3c0.3-0.8,0.3-1,1.2-3.2l1.9,0.9c-1.3,2.8-2.1,5.6-2.1,7.3
			c0,0.1,0,0.3,0,0.6L311.8,21.1z M322,11.6c-1.2,1.4-1.7,2.4-1.7,3.5c0,1.4,1.3,2.1,3.8,2.1c2.1,0,4.2-0.3,5.7-0.9l0.2,3
			c-0.3,0-0.4,0-1,0.1c-1.9,0.3-3.4,0.5-5,0.5c-3,0-4.9-0.7-6-2.1c-0.5-0.6-0.7-1.5-0.7-2.4c0-1.6,0.7-3.2,2.2-4.9L322,11.6z
			 M318,3.7c1.1,0.3,2.4,0.4,4.4,0.4c2.7,0,4.9-0.2,6.5-0.6l0.1,2.9c-0.2,0-0.6,0.1-1.7,0.2c-1.5,0.2-3.4,0.3-5.1,0.3
			c-1.8,0-1.8,0-4.3-0.3L318,3.7z"/>
		<path d="M340,4.7c-0.8-1.6-1.2-2.3-2.4-3.6l2.4-1.1c1.1,1.5,1.6,2.3,2.3,3.6l-2.2,1h5.4c1-1.5,1.7-2.8,2.3-4.5l2.7,0.9
			c-1.4,2.5-1.5,2.7-2.2,3.6h3.6c1.3,0,2.1,0,2.8-0.1v2.7c-0.8-0.1-1.7-0.1-2.7-0.1H348v11.6h4.3c1.3,0,2.1,0,2.8-0.1v2.8
			c-0.8-0.1-1.7-0.1-2.8-0.1h-16.1c-1.1,0-2,0-2.8,0.1v-2.8c0.7,0.1,1.5,0.1,2.8,0.1h4.1V7.2h-3.7c-1.1,0-1.9,0-2.7,0.1V4.6
			c0.7,0.1,1.5,0.1,2.8,0.1H340z M336.9,8.7c1.2,2.6,1.8,4.3,2.6,7.4l-2.5,0.9c-0.8-3.4-1.3-4.9-2.5-7.6L336.9,8.7z M345.4,18.8V7.2
			h-2.3v11.6H345.4z M354.1,9.8c-1.1,3.2-1.8,4.8-3.2,7.5l-2.3-1c1.4-2.5,2.2-4.3,3-7.4L354.1,9.8z"/>
		<path d="M363.3,11.7c0,0.1-0.1,0.3-0.1,0.3c0,0.1-0.1,0.3-0.2,0.7c-0.9,3.4-1.9,5.9-3.1,7.7c-0.9-0.8-1.5-1.1-2.6-1.6
			c1.2-1.6,2.7-5.5,3.1-8.1L363.3,11.7z M374.7,4.1c1,1.1,1.7,2,2.5,3.5l-1.7,0.9C374.7,7,374,6.1,373,4.9l0,0.9
			c-0.6,0.1-1.2,0.4-2,0.9c-1.5,1-2.4,2-2.4,2.9c0,0.3,0.1,0.6,0.2,0.9c0.2,0.5,0.3,0.6,1.8,2.1c0.9,1,1.3,1.6,1.7,2.3
			c0.3,0.7,0.5,1.4,0.5,2.1c0,1.2-0.6,2.5-1.5,3.3c-0.8,0.7-1.9,1.1-3.3,1.1c-1.7,0-3.3-0.6-5-1.9c0.4-1,0.5-1.5,0.7-2.9
			c1.3,1.2,2.8,2,4.1,2c1.1,0,1.9-0.7,1.9-1.7c0-0.4-0.1-0.8-0.4-1.3c-0.3-0.6-0.6-0.9-1.5-2c-1.4-1.6-1.8-2.4-1.8-3.6
			c0-1.1,0.5-2.2,1.3-3.1c0.5-0.5,0.7-0.8,1.7-1.4l-0.3,0l-0.5,0c-1.5-0.1-2.8-0.5-4.8-1.3c-0.4-0.1-0.5-0.2-0.8-0.3l1.1-2.7
			c0.7,0.4,1.7,0.8,3.2,1.2c1.8,0.5,4.5,0.9,5.9,0.9c0.1,0,0.2,0,0.5,0l0,1.9L374.7,4.1z M375.6,10.3c1.8,2.6,3.1,5.4,3.9,8.3
			l-2.8,1.3c-0.4-2.4-2.5-7.3-3.7-8.5L375.6,10.3z M378.4,7c-0.7-1.3-1.5-2.4-2.4-3.5l1.6-0.8c1.1,1.1,1.7,2,2.5,3.4L378.4,7z"/>
		<path d="M385.9,8c-0.6,4-1.1,5.8-2.4,9.1l-2.5-1.2c1.3-3,1.8-4.7,2.3-8.3L385.9,8z M387.2,19.1c-1.7,1.2-2.5,1.7-4.3,2.6
			c-0.6-1-1-1.5-1.8-2.3c2.3-1,4.1-2.1,6.1-3.6V7.8c0-0.9,0-1.4-0.1-2.4h2.9c-0.1,0.7-0.1,1.5-0.1,2.4v5.9c1.8-1.7,3.7-4,5.1-6.3
			c1.3-2,2.4-4.3,2.7-5.8l2.8,1.1c-0.3,0.5-0.3,0.5-0.9,1.8c-1.7,3.5-3.6,6.3-6,9.1c-1.1,1.3-2.1,2.2-3.6,3.5v1.7
			c0,0.6,0.6,0.8,2.9,0.8c2.1,0,3-0.2,3.2-0.7c0.3-0.6,0.5-2.1,0.6-4.5c1,0.5,1.6,0.7,2.5,0.9c-0.5,6.3-0.9,6.7-6.5,6.7
			c-4.4,0-5.4-0.5-5.4-2.6V19.1z M388.6,0c3.2,1.3,4.5,1.9,7,3.4L394,5.8c-1.8-1.4-3.8-2.4-7-3.7L388.6,0z M400,7.8
			c1.6,3,2.5,5.2,3.7,9l-2.5,1.4c-1.1-4.2-1.8-6-3.5-9.2L400,7.8z"/>
		<path d="M412.8,12.6c0.4-0.6,0.6-0.9,0.9-1.5H410c-1.2,0-2,0-2.8,0.1c0.1-0.7,0.1-1.2,0.1-2.3V7.2c0-1.1,0-1.7-0.1-2.4
			c0.8,0.1,1.5,0.1,2.7,0.1h2.6V3.4h-4c-1.1,0-2,0-2.8,0.1V1c0.7,0.1,1.6,0.1,3,0.1H424c1.4,0,2.3,0,3-0.1v2.5
			c-0.8-0.1-1.6-0.1-2.8-0.1h-4.3v1.5h2.8c1.2,0,2,0,2.7-0.1c-0.1,0.7-0.1,1.3-0.1,2.4v1.6c0,1.2,0,1.8,0.1,2.4
			c-0.6-0.1-1.3-0.1-2.7-0.1h-6.1c-0.5,0.9-0.6,1-0.9,1.5h8.5c1.4,0,2.1,0,2.8-0.1V15c-0.8-0.1-1.6-0.1-2.8-0.1H422
			c-0.6,1.2-1.3,2.2-2.2,3.1c3,0.9,3.9,1.2,6.6,2.3l-1.7,2.2c-0.6-0.3-1.1-0.5-1.4-0.6c-2-0.9-2-0.9-5.7-2.3
			c-2.8,1.6-6,2.4-10.8,2.6c-0.3-1-0.5-1.4-1.1-2.4c0.2,0,0.4,0,0.5,0c3.3,0,5.9-0.4,8.1-1.2c-2.8-0.7-3.2-0.8-5.6-1.4
			c1.1-0.9,1.5-1.4,2.4-2.4h-2.6c-1.2,0-2,0-2.8,0.1v-2.5c0.7,0.1,1.4,0.1,2.8,0.1H412.8z M409.9,6.9v2.3h2.6V6.9H409.9z
			 M414.1,14.9c-0.4,0.4-0.6,0.6-1.2,1.2c0.8,0.2,0.8,0.2,2.7,0.7c0.3,0,0.6,0.1,1.4,0.4c0.9-0.6,1.5-1.3,2.1-2.3H414.1z M414.9,4.9
			h2.6V3.4h-2.6V4.9z M414.9,9.1h2.6V6.9h-2.6V9.1z M419.9,9.1h2.8V6.9h-2.8V9.1z"/>
		<path d="M438.7,0.8c-0.1,0.5-0.1,0.5-0.4,1.6c-0.1,0.6-0.2,1.1-0.5,2.1c1.7-0.2,2.9-0.4,3.8-0.7l0.1,2.8c-0.3,0-0.3,0-0.8,0.1
			c-0.9,0.1-2.3,0.3-3.8,0.4c-0.7,2.4-1.6,4.7-2.6,7c-0.6,1.2-0.8,1.6-1.7,3.3c-0.3,0.6-0.3,0.6-0.5,0.9l-2.8-1.5
			c0.8-1.1,1.5-2.2,2.3-3.8c0.9-1.9,1.3-2.9,2.3-5.7c-1.1,0-1.2,0-1.5,0c-0.3,0-0.5,0-1,0l-1.3,0V4.5c0.9,0.2,1.8,0.2,3.2,0.2
			c0.3,0,0.7,0,1.2,0c0.4-1.7,0.7-3.1,0.7-4.2L438.7,0.8z M449.6,20.2c-0.9-1-2.3-2.2-3.7-3c0,0.2,0,0.4,0,0.5c0,0.9-0.4,1.9-1,2.5
			c-0.8,0.9-2.3,1.3-4,1.3c-3.2,0-5.2-1.6-5.2-4c0-2.4,2.1-4.1,5.2-4.1c0.7,0,1.2,0,2.2,0.2c-0.1-1.1-0.1-2-0.1-2.8
			c0-0.9,0-1.6,0.2-2.4l2.8,0.1c-0.2,0.9-0.3,1.4-0.3,2.4c0,1,0,1.9,0.2,3.3c1.7,0.8,2,0.9,3.8,2.2c0.4,0.2,0.5,0.3,0.8,0.6
			c0.2,0.2,0.2,0.2,0.4,0.3L449.6,20.2z M441.1,15.8c-1.6,0-2.6,0.6-2.6,1.7c0,1,0.9,1.6,2.4,1.6c1.6,0,2.4-0.7,2.4-2
			c0-0.2,0-0.8,0-0.8C442.4,15.9,441.8,15.8,441.1,15.8z M449.7,9.2c-2.1-1.4-4.2-2.4-6.9-3.4l1.4-2.3c2.8,1.1,4.6,1.9,6.8,3.2
			L449.7,9.2z"/>
		<path d="M460.6,1.2c-0.1,0.7-0.2,1.4-0.3,3.2c-0.1,2.2-0.2,7.1-0.2,8.8c0,2.3,0.1,3.1,0.6,3.9c0.6,0.8,1.7,1.2,3.2,1.2
			c2.6,0,4.7-1.5,5.8-4.1c0.5-1.2,0.8-2.4,1.1-4c1.3,1.1,1.7,1.3,2.9,1.8c-1,3.2-1.7,4.8-2.9,6.1c-1.8,2-4.2,3-7.2,3
			c-1.7,0-3.2-0.4-4.2-1.1c-1.7-1.1-2.4-3-2.4-6.2c0-1.2,0-3.6,0.2-9.7c0-0.7,0-1.2,0-1.6c0-0.7,0-1-0.1-1.6L460.6,1.2z"/>
		<path d="M487,15.6c0-0.5,0-0.7,0-1c0-0.3,0-0.3-0.1-1.7l-0.3-8.2c0-1.1-0.1-2.3-0.2-2.9h3.9c-0.1,0.6-0.2,1.9-0.2,2.9l-0.3,8.2
			c0,1.4,0,1.4,0,1.7c0,0.3,0,0.5,0,1H487z M486.6,20.8v-3.3h3.5v3.3H486.6z"/>
		<path d="M208.4,63.2c-2-2.4-4.8-5.1-7.4-7.1c-2.7,3-5.5,5.1-9.1,6.9c-0.7-1.2-1-1.6-1.9-2.7c1.8-0.7,3-1.4,4.8-2.6
			c3.6-2.5,6.5-6,8.1-9.8l0.3-0.6c-0.4,0-0.4,0-7.9,0.1c-1.2,0-1.8,0.1-2.6,0.2l-0.1-3.1c0.7,0.1,1.1,0.1,2.1,0.1c0.1,0,0.3,0,0.6,0
			l8.4-0.1c1.3,0,1.5,0,2.1-0.3l1.6,1.6c-0.3,0.4-0.5,0.7-0.8,1.3c-1.1,2.6-2.3,4.7-3.7,6.6c1.5,1,2.8,2,4.4,3.5
			c0.6,0.5,0.6,0.5,3.5,3.3L208.4,63.2z"/>
		<path d="M219.5,50.9c1.3,1.1,2,1.7,3,2.7c1.3,1.3,1.3,1.3,1.5,1.5c1.2-1.1,2.3-2,3.1-3c1-1.2,2.4-3,2.9-3.9
			c0.1-0.1,0.1-0.1,0.1-0.2c0-0.1,0-0.1,0-0.1c-0.2,0-0.6,0-1.1,0h-8.7c-0.9,0-1.6,0-2.7,0c-1.9,0-2.2,0-3.1,0.1v-3
			c0.9,0.1,1.5,0.2,3.1,0.2l13.3,0c1,0,1.4,0,2-0.2l1.7,1.9c-0.4,0.4-0.5,0.6-1.1,1.4c-2.3,3.7-4.8,6.6-7.8,9.1c1,1.2,1.9,2.3,3.2,4
			l-2.5,2c-1.3-2.2-2.6-3.8-4.6-6c-1.8-2-3-3.2-4.8-4.6L219.5,50.9z"/>
		<path d="M238,51.5c1.1,0.1,1.5,0.2,3.9,0.2h12.8c2.4,0,2.8,0,3.9-0.2v3.3c-1-0.1-1.2-0.1-3.9-0.1H242c-2.7,0-3,0-3.9,0.1V51.5z"/>
		<path d="M266.7,63.5c0.1-0.8,0.1-1.4,0.1-2.7V45.4c0-1.2,0-1.8-0.1-2.4h3.3c-0.1,0.7-0.1,1-0.1,2.5v4.5c3.3,1.2,7.1,2.9,10.9,5.1
			l-1.7,2.8c-2-1.4-4.5-2.7-8.5-4.6c-0.6-0.3-0.6-0.3-0.8-0.4c0.1,0.7,0.1,1,0.1,1.6v6.3c0,1.2,0,1.9,0.1,2.7H266.7z"/>
		<path d="M305.6,46.2c-0.2,0.4-0.3,0.6-0.4,1.1c-1.2,4.6-2.6,7.5-4.9,10.1c-2.4,2.6-4.9,4.4-8.9,6.1c-0.7-1.3-1-1.8-2.1-2.9
			c2.1-0.7,3.5-1.3,5.3-2.4c3.7-2.4,6.1-5.8,7.3-10.5h-11.4c-1.6,0-2.2,0-3,0.1v-3.1c0.9,0.1,1.4,0.2,3.1,0.2h11
			c1.3,0,1.8,0,2.6-0.2L305.6,46.2z"/>
		<path d="M314.6,52.6c-1,0-1.5,0-2.2,0.1v-2.6c0.6,0.1,1.1,0.1,2.2,0.1h7v-1.5c0-0.9,0-1.4-0.1-1.9h2.8c-0.1,0.6-0.1,0.7-0.1,1.8
			l0,1.6h2.1c1.1,0,1.5,0,2.2-0.1v2.6c-0.6-0.1-1.1-0.1-2.2-0.1h-2.1l0.1,9.1c0,1,0,1.5,0.1,2h-2.9c0.1-0.6,0.1-1.1,0.1-2l0-6
			c0-0.3,0-1.2,0-1.5c-0.3,0.6-0.5,0.9-0.8,1.3c-1.6,2.3-4.3,4.5-7.8,6.3c-0.6-1-0.9-1.4-1.8-2.3c1.9-0.9,3.6-1.9,5.2-3.2
			c1.5-1.2,2.8-2.7,3.5-3.9H314.6z"/>
		<path d="M335.2,59.5c2.1-0.1,4.9-0.8,7.1-1.8c3-1.3,5.2-3.1,7.1-5.9c1.1-1.5,1.7-2.9,2.4-4.8c0.9,1.1,1.3,1.5,2.5,2.4
			c-2,4.4-4.3,7.2-7.6,9.4c-2.4,1.6-5.4,2.8-9.1,3.6c-1,0.2-1,0.2-1.6,0.4L335.2,59.5z M337.3,44.6c2.9,1.8,4.3,2.9,6.2,4.6
			l-2.1,2.6c-1.9-2-3.9-3.6-6.1-4.9L337.3,44.6z"/>
		<path d="M358.4,46.7c0.9,0.1,1.8,0.2,3.2,0.2c0.3,0,0.6,0,1.1,0c0.2-1.2,0.5-3,0.5-3.7c0-0.1,0-0.2,0-0.4l3.2,0.3
			c-0.1,0.5-0.2,0.6-0.4,1.9c0,0.3-0.1,0.6-0.2,1.1c0,0.1-0.1,0.3-0.1,0.7c1.6-0.1,3-0.4,4.1-0.7l0.1,2.8c-0.1,0-0.2,0-0.2,0
			l-0.6,0.1c-1.6,0.3-3.4,0.5-3.9,0.5c-0.9,4.6-2.1,8.6-4.2,14.1l-3-1.2c1.6-2.8,3.5-8.6,4.3-12.9c-0.1,0-0.2,0-0.2,0l-0.5,0h-1.2
			c0,0-0.2,0-0.6,0c-0.3,0-0.8,0-1,0c-0.1,0-0.2,0-0.5,0L358.4,46.7z M370.3,55.9c-1,1.2-1.2,1.8-1.2,2.7c0,1.2,1.2,1.8,3.6,1.8
			c1.8,0,4.1-0.4,5.4-0.9l0.2,2.9c-0.4,0-0.6,0.1-1.2,0.2c-2,0.3-3,0.4-4.5,0.4c-2.1,0-3.7-0.3-4.8-1c-1-0.6-1.7-1.8-1.7-3
			c0-1.3,0.5-2.4,1.8-4.2L370.3,55.9z M377.5,52.8c-1.2-0.1-1.8-0.2-3-0.2c-2.4,0-4,0.2-6.3,0.7l-0.2-2.7c3.4-0.6,4.6-0.8,7.2-0.8
			c0.7,0,1.3,0,2.4,0L377.5,52.8z M373.5,43.4c1.1,1.1,1.7,2,2.5,3.5l-1.7,0.9c-0.8-1.5-1.5-2.4-2.5-3.6L373.5,43.4z M377.2,46.3
			c-0.7-1.3-1.5-2.4-2.4-3.5l1.6-0.8c1.1,1.1,1.8,2,2.5,3.4L377.2,46.3z"/>
		<path d="M389.8,55c-1.6,2.9-2.7,6-2.7,7.7l-2.8,0.1c0-0.3,0-0.5-0.2-0.9c-0.6-2.7-0.9-5.1-0.9-7.8c0-2.7,0.1-4.1,0.9-9.1
			c0.1-1,0.2-1.3,0.2-1.8l3.2,0.3c-0.3,1-0.4,1.5-0.7,2.9c-0.4,2-0.5,2.7-0.6,4.7c-0.1,1.6-0.2,2.3-0.2,2.7c0,0.1,0,0.4,0,0.7
			c0,0.3,0,0.7,0,1.8c0,0.2,0,0.3,0,0.4c0,0.4,0,0.5,0,0.9c0.4-1.3,1-2.9,1.6-4L389.8,55z M389.2,48.1c1.1,0.2,2.3,0.3,4.3,0.3
			c0.9,0,1.3,0,2.5-0.1c-0.1-4.2-0.2-4.4-0.3-5.3l3,0c0,0.4,0,0.5,0,0.8c0,0.2,0,0.5,0,1.5c0,0.3,0,1.2,0.1,2.7
			c1.7-0.3,2.8-0.5,3.6-0.9l0.2,2.9c-0.4,0-0.6,0.1-1.3,0.2c-1.1,0.2-1.3,0.3-2.3,0.4c0,0.5,0,0.7,0,1.2c0,2.5-0.2,4.5-0.5,5.7
			c-0.5,2-1.4,3.5-2.7,4.7c-0.7,0.6-1.4,1.1-2.6,1.8c-0.8-1.1-1.2-1.4-2.3-2.3c1.6-0.7,2.8-1.5,3.7-2.6c1.2-1.5,1.7-3.2,1.7-6.7
			c0-0.5,0-0.7,0-1.5c-0.8,0.1-2.1,0.1-3.3,0.1c-0.7,0-1.6,0-2.2,0c-0.7,0-0.8,0-1.1,0c-0.1,0-0.2,0-0.4,0V48.1z"/>
		<path d="M406.1,45.6c0.5,0,0.8,0,0.9,0c0.4,0,0.4,0,4-0.2c1.8-0.1,5.9-0.3,12.3-0.6c2-0.1,2.1-0.1,2.5-0.2l0.2,3
			c-0.3,0-0.3,0-0.5,0c-1.4,0-3.2,0.5-4.8,1.3c-3,1.6-4.8,4-4.8,6.4c0,1.9,1.2,3.3,3.2,3.9c1.2,0.4,2.7,0.6,3.6,0.6c0,0,0.2,0,0.5,0
			l-0.4,3.3c-0.3-0.1-0.4-0.1-0.8-0.1c-2.6-0.3-4.2-0.8-5.6-1.6c-2.2-1.2-3.4-3.3-3.4-5.8c0-2,0.8-4.1,2.3-5.6
			c0.9-1,1.8-1.6,3.3-2.4c-1.9,0.3-3.4,0.4-8.1,0.8c-2.1,0.2-3.2,0.3-4,0.5L406.1,45.6z M422.7,50.2c1.1,1.1,1.7,2,2.5,3.5l-1.7,0.9
			c-0.8-1.5-1.5-2.4-2.5-3.6L422.7,50.2z M426.4,53.1c-0.7-1.3-1.5-2.4-2.4-3.5l1.6-0.8c1.1,1.1,1.8,2,2.5,3.4L426.4,53.1z"/>
		<path d="M432.5,55.3c-1.2,0-1.9,0-2.6,0.1v-2.6c0.6,0.1,1.3,0.1,2.6,0.1h15.7c1.2,0,1.9,0,2.5-0.1v2.6c-0.7-0.1-1.4-0.1-2.5-0.1
			h-4.4v5.5c0,0.6,0.3,0.7,2.3,0.7c1.8,0,2.3-0.1,2.5-0.6c0.1-0.3,0.2-1.2,0.2-2c0-0.1,0-0.2,0-0.4c1,0.5,1.5,0.6,2.5,0.7
			c-0.1,2.4-0.4,3.5-1.1,4.1c-0.7,0.6-1.7,0.7-4.8,0.7c-3.6,0-4.3-0.3-4.3-2.1v-6.5h-2.6c-0.2,2.2-0.5,3.2-1.2,4.6
			c-1.2,2.1-2.7,3.1-6.6,4.6c-0.4-0.9-0.8-1.7-1.5-2.5c2-0.6,2.7-0.9,3.6-1.4c1.6-0.9,2.5-2.3,2.8-4c0.1-0.4,0.1-0.6,0.2-1.3H432.5z
			 M438.8,43.9c0-0.7,0-1.2-0.1-1.8h3c-0.1,0.5-0.1,1-0.1,1.8v0.6h6.6c1.2,0,1.8,0,2.7-0.1c-0.1,0.5-0.1,1-0.1,1.8v2
			c0,0.8,0,1.3,0.1,1.8h-2.6v-3.2h-15.6V50H430c0.1-0.6,0.1-1.1,0.1-1.9v-1.9c0-0.8,0-1.3-0.1-1.8c0.8,0.1,1.4,0.1,2.6,0.1h6.2V43.9
			z M433.4,48.6c0.6,0.1,1.2,0.1,2.3,0.1h9.4c1.1,0,1.6,0,2.3-0.1v2.6c-0.7-0.1-1.2-0.1-2.3-0.1h-9.4c-1.1,0-1.6,0-2.3,0.1V48.6z"/>
		<path d="M456.5,56.2c-0.2,3.3-0.4,5-1,7l-2.2-1c0.6-1.7,0.9-3.2,1-6.4L456.5,56.2z M453.3,52.3c0.6,0,1,0.1,1.6,0.1
			c0.1,0,0.2,0,0.5,0c0.6-0.8,0.7-0.9,1.1-1.5c-1.2-1.5-1.9-2.3-3.2-3.5l1.3-2l0.7,0.8c1-1.6,1.7-3.1,1.9-4.1l2.4,0.9
			c-0.2,0.3-0.3,0.4-0.5,0.9c-0.8,1.6-1.4,2.7-2.3,3.9c0.4,0.5,0.5,0.6,0.9,1.1c1.6-2.5,1.7-2.8,2.2-4l2.2,1.2
			c-0.3,0.4-0.5,0.6-0.8,1.2c-1.5,2.3-2.4,3.6-3.5,5c1.2-0.1,1.6-0.1,2.6-0.2c-0.3-0.8-0.4-1-0.7-1.8l1.8-0.7c0.7,1.5,1.2,3,1.7,4.8
			l-1.9,0.8c-0.1-0.5-0.2-0.7-0.3-1c-0.7,0.1-0.7,0.1-1.7,0.1v7.4c0,1.2,0,1.8,0.1,2.5H457c0.1-0.8,0.1-1.4,0.1-2.5v-7.2l-3.6,0.2
			L453.3,52.3z M462,55.7c0.4,1.8,0.6,3.2,0.8,5.8l-2,0.4c-0.1-2.2-0.2-3.5-0.6-5.8L462,55.7z M465.3,47.7c-1.1,0-1.9,0-2.6,0.1
			v-2.6c0.7,0.1,1.5,0.1,2.6,0.1h2.2v-1.3c0-0.7,0-1.2-0.1-1.8h2.8c-0.1,0.6-0.1,1.1-0.1,1.9v1.2h2.7c1.2,0,1.9,0,2.7-0.1v2.6
			c-0.7-0.1-1.6-0.1-2.7-0.1H470v2.8h2.2c1.1,0,1.9,0,2.6-0.1v2.6c-0.8-0.1-1.6-0.1-2.6-0.1h-6.4c-0.9,0-1.8,0-2.5,0.1v-2.6
			c0.7,0.1,1.5,0.1,2.6,0.1h1.6v-2.8H465.3z M466.1,64.3h-2.6c0.1-0.7,0.1-1.3,0.1-2.4v-5.1c0-1.2,0-1.6-0.1-2.3
			c0.6,0.1,1.2,0.1,2.1,0.1h6.5c1,0,1.6,0,2.1-0.1c-0.1,0.6-0.1,1.2-0.1,2.3v4.8c0,0.9,0,1.8,0.1,2.5h-2.6v-1.2h-5.6V64.3z
			 M466.1,60.8h5.6V57h-5.6V60.8z"/>
	</g>
</g>
</svg>
