<?xml version="1.0" encoding="utf-8"?>
<!-- Generator: Adobe Illustrator 22.1.0, SVG Export Plug-In . SVG Version: 6.00 Build 0)  -->
<!DOCTYPE svg PUBLIC "-//W3C//DTD SVG 1.1//EN" "http://www.w3.org/Graphics/SVG/1.1/DTD/svg11.dtd" [
	<!ENTITY st0 "fill:#212121;">
	<!ENTITY st1 "fill:#FFFFFF;">
	<!ENTITY st2 "fill:#231815;">
	<!ENTITY st3 "fill:#0A0A0A;">
]>
<svg version="1.1" id="レイヤー_1" xmlns="http://www.w3.org/2000/svg" xmlns:xlink="http://www.w3.org/1999/xlink" x="0px"
	 y="0px" viewBox="0 0 668.6 282.7" style="enable-background:new 0 0 668.6 282.7;" xml:space="preserve">
<g>
	<g>
		<g>
			<g>
				<path style="&st0;" d="M178.4,167.9H15.3V63.5c0-2.8,2.2-5,5-5h153.1c2.8,0,5,2.2,5,5V167.9z M17.3,165.9h159.1V63.5
					c0-1.7-1.3-3-3-3H20.3c-1.7,0-3,1.3-3,3V165.9z"/>
				<path style="&st0;" d="M171.9,161h-150V65.4h150V161z M23.8,159h146V67.4h-146V159z"/>
				<path style="&st0;" d="M187.5,185.9H6.2c-2.3,0-4.3-1.9-4.3-4.2L0,172h85.4l0.6,4c0.1,0.6,0.5,1.1,0.9,1.1h20
					c0.4,0,0.8-0.5,0.9-1.1l0.6-4h85.4l-1.9,9.7C191.8,184.1,189.9,185.9,187.5,185.9z M2.4,174l1.4,7.6c0,1.3,1,2.3,2.3,2.3h181.3
					c1.3,0,2.3-1,2.3-2.3l0-0.2l1.4-7.5h-81.2l-0.3,2.3c-0.2,1.6-1.4,2.8-2.9,2.8h-20c-1.4,0-2.6-1.2-2.9-2.8l-0.3-2.3H2.4z"/>
			</g>
		</g>
		<g>
			<g>
				<path style="&st1;" d="M223.1,189.4h-34.5c-3.7,0-6.7-3-6.7-6.7v-64.3c0-3.7,3-6.7,6.7-6.7h34.5c3.7,0,6.7,3,6.7,6.7v64.3
					C229.8,186.4,226.8,189.4,223.1,189.4z"/>
				<path style="&st2;" d="M223.1,190.4h-34.5c-4.2,0-7.7-3.5-7.7-7.7v-64.3c0-4.2,3.5-7.7,7.7-7.7h34.5c4.2,0,7.7,3.5,7.7,7.7v64.3
					C230.8,186.9,227.3,190.4,223.1,190.4z M188.6,112.6c-3.1,0-5.7,2.6-5.7,5.7v64.3c0,3.1,2.6,5.7,5.7,5.7h34.5
					c3.1,0,5.7-2.6,5.7-5.7v-64.3c0-3.1-2.6-5.7-5.7-5.7H188.6z"/>
			</g>
			<path style="&st0;" d="M223.6,186.6h-35.5c-2.1,0-3.8-1.7-3.8-3.8v-64.9c0-2.1,1.7-3.8,3.8-3.8H199v3.3c0.1,0.1,0.3,0.2,0.4,0.2
				h12.9c0.1,0,0.3-0.1,0.4-0.2v-3.3h10.9c2.1,0,3.8,1.7,3.8,3.8v64.9C227.4,184.9,225.7,186.6,223.6,186.6z M188.1,116.1
				c-1,0-1.8,0.8-1.8,1.8v64.9c0,1,0.8,1.8,1.8,1.8h35.5c1,0,1.8-0.8,1.8-1.8v-64.9c0-1-0.8-1.8-1.8-1.8h-8.9v2l-0.1,0.2
				c-0.5,0.7-1.4,1.3-2.3,1.3h-12.9c-0.9,0-1.8-0.5-2.3-1.3L197,118v-2H188.1z"/>
			<path style="&st2;" d="M212.9,183h-14.2c-0.6,0-1-0.4-1-1s0.4-1,1-1h14.2c0.6,0,1,0.4,1,1S213.5,183,212.9,183z"/>
		</g>
	</g>
	<g>
		<path d="M486.3,238.2h-5.6c-1,0-1.6,0-2.3,0.1v-1.5c0.6,0.1,1.2,0.1,2.3,0.1h5.6v-1.6h-5c-0.8,0-1.4,0-2,0.1
			c0.1-0.6,0.1-1,0.1-1.6v-1.1c0-0.6,0-1-0.1-1.6c0.6,0.1,1.2,0.1,2,0.1h5v-1.6h-7c-1.1,0-2,0-2.7,0.1v-1.6c0.6,0.1,1.3,0.1,2.7,0.1
			h6.9c0-1.2,0-1.5-0.1-2.2h1.8c-0.1,0.6-0.2,0.9-0.2,2.2h7.3c1.4,0,2.1,0,2.8-0.1v1.6c-0.8-0.1-1.6-0.1-2.7-0.1h-7.4v1.6h5.5
			c0.8,0,1.4,0,2-0.1c-0.1,0.6-0.1,1-0.1,1.6v1.1c0,0.7,0,1,0.1,1.6c-0.5-0.1-1.2-0.1-1.9-0.1h-5.5v1.6h5.2c1.4,0,2,0,2.7-0.1
			c0,0.5-0.1,1-0.1,2v1c1.4,0,2,0,2.5-0.1v1.5c-0.6-0.1-1.3-0.1-2.5-0.1v1.6c0,1.2,0,1.8,0.1,2.4h-1.6v-1h-6.4v2c0,1.7-0.5,2-2.8,2
			c-0.5,0-0.9,0-2.3-0.1c0-0.6-0.1-0.9-0.4-1.5c1.2,0.2,2.1,0.2,3,0.2c0.9,0,1.1-0.1,1.1-0.6v-2h-5.8c-1.1,0-1.6,0-2.4,0.1v-1.5
			c0.7,0.1,1.2,0.1,2.3,0.1h5.8v-1.7h-7.2c-1.3,0-2,0-2.6,0.1v-1.5c0.6,0.1,1.2,0.1,2.6,0.1h7.2V238.2z M480.9,232.5v1.8h5.4v-1.8
			H480.9z M487.8,234.3h6v-1.8h-6V234.3z M494.2,239.9v-1.7h-6.4v1.7H494.2z M487.8,242.9h6.4v-1.7h-6.4V242.9z"/>
		<path d="M507.8,230c-0.8-1.3-1.3-1.9-2.6-3.3l1.4-0.6c1.7,2,1.9,2.4,2.8,3.9h3.4c1.2-1.3,1.8-2.2,2.7-3.9l1.5,0.6
			c-1,1.4-1.8,2.5-2.6,3.3h4.9c1.1,0,1.8,0,2.4-0.1v1.6c-0.7-0.1-1.4-0.1-2.4-0.1h-16.4c-1,0-1.7,0-2.4,0.1v-1.6
			c0.8,0.1,0.8,0.1,2.4,0.1H507.8z M503.8,245.6c0,1.3,0,1.9,0.1,2.5h-1.8c0.1-0.7,0.1-1.4,0.1-2.6v-10.1c0-1.2,0-1.6-0.1-2.1
			c0.8,0.1,1.4,0.1,2.3,0.1h3.8c1.3,0,1.7,0,2.2-0.1c0,0.6-0.1,1.2-0.1,2.5V246c0,1.4-0.5,1.8-2,1.8c-0.5,0-1.1,0-2-0.1
			c-0.1-0.7-0.2-0.9-0.4-1.5c0.9,0.2,1.6,0.2,2.1,0.2c0.7,0,0.8-0.1,0.8-0.6v-3.2h-5.2V245.6z M509,237.4v-2.6h-5.2v2.6H509z
			 M509,241.4v-2.6h-5.2v2.6H509z M515.3,233.6c-0.1,0.6-0.1,1-0.1,2.3v4.9c0,1.8,0,2.1,0.1,2.7h-1.7c0.1-0.6,0.1-1,0.1-2.7v-4.9
			c0-1.2,0-1.6-0.1-2.3H515.3z M520.4,232.9c-0.1,0.6-0.1,1.3-0.1,2.6v10.4c0,1.7-0.5,2.1-2.5,2.1c-0.8,0-1.6,0-2.8-0.1
			c-0.1-0.6-0.2-1-0.5-1.6c1.3,0.2,2.3,0.3,3.1,0.3c0.9,0,1.1-0.1,1.1-0.7v-10.4c0-1.4,0-1.9-0.1-2.5H520.4z"/>
		<path d="M543.4,228.8c-2.7,2.4-3.9,3.2-6.5,4.6c0.7,0.5,1,0.7,1.9,1.4l-0.6,0.6h4.3c1.4,0,2,0,2.5-0.1l0.9,1
			c-0.1,0.1-0.4,0.4-0.6,0.8c-1.7,2.1-2.3,2.7-4.2,4.2c-0.4-0.4-0.8-0.7-1.2-1c1.6-1.1,2.5-1.9,3.8-3.5h-7.3v9.3
			c0,1.5-0.6,1.9-2.8,1.9c-0.7,0-2,0-2.8-0.1c-0.1-0.8-0.2-1.1-0.4-1.7c1.4,0.2,2.3,0.3,3.4,0.3c0.8,0,1.1-0.2,1.1-0.7v-9.1h-7.4
			c-1.1,0-1.7,0-2.5,0.1v-1.7c0.7,0.1,1.4,0.1,2.7,0.1h9.6c-1.9-1.5-3.9-2.7-6.6-4.1l1-1.1c2.1,1.1,2.9,1.6,4.1,2.3
			c2.2-1.2,3.5-2,5.1-3.4h-11.1c-1.3,0-1.8,0-2.5,0.1v-1.6c0.7,0.1,1.3,0.1,2.5,0.1h11c0.9,0,1.3,0,1.8-0.1L543.4,228.8z"/>
		<path d="M548.4,237c0.4,0,0.5,0.1,0.9,0.1c0.1,0,0.8,0,1.2,0c0.9-1.1,1.1-1.4,1.8-2.3c-1.2-1.5-1.8-2.1-3.6-3.7l0.9-1.1
			c0.5,0.5,0.6,0.6,1,1c1.3-2,2.1-3.5,2.4-4.4l1.5,0.7c-0.2,0.2-0.3,0.4-0.6,0.9c-0.7,1.3-1.4,2.4-2.4,3.8c0.7,0.7,1.1,1.2,1.6,1.8
			c1.6-2.4,2.4-3.7,2.8-4.5l1.4,0.8c-0.2,0.3-0.4,0.5-0.7,1c-1.9,2.9-3.2,4.7-4.4,6.1c1.8-0.1,2.2-0.1,3.9-0.4c-0.4-0.8-0.5-1-1-1.9
			l1.1-0.4c0.8,1.4,1.5,2.8,2.1,4.6l-1.2,0.6c-0.2-0.8-0.3-1-0.6-1.6c-0.3,0-0.5,0.1-0.6,0.1c-0.2,0-0.7,0.1-1.7,0.2v7.9
			c0,1,0,1.7,0.1,2.4h-1.8c0.1-0.7,0.1-1.5,0.1-2.5v-7.7c-1.8,0.2-1.8,0.2-2.7,0.2c-1,0.1-1,0.1-1.5,0.2L548.4,237z M551.4,239.9
			c-0.4,3.5-0.7,4.6-1.6,6.8l-1.3-0.6c0.9-1.9,1.3-3.5,1.6-6.4L551.4,239.9z M556.8,239.5c0.7,2.2,1,3.5,1.4,5.7l-1.4,0.5
			c-0.3-2.4-0.6-3.9-1.2-5.8L556.8,239.5z M560.9,232c-0.7,1.4-1.5,2.6-2.4,3.7c-0.4-0.4-0.7-0.7-1.2-0.9c1.1-1.2,1.9-2.5,2.7-4.1
			c0.8-1.7,1.2-2.8,1.3-4l1.6,0.4c-0.2,0.5-0.2,0.5-0.6,1.7c-0.2,0.5-0.4,1-0.7,1.8h6c1,0,1.4,0,1.9-0.1c-0.1,0.7-0.1,0.7-0.1,3.7
			c0,3.8-0.5,8.5-1,10.9c-0.6,2.3-1.2,2.8-3.5,2.8c-0.7,0-1.6,0-2.5-0.1c-0.1-0.6-0.2-1-0.4-1.7c1.3,0.2,2.2,0.3,3.2,0.3
			c1.1,0,1.4-0.3,1.7-1.8c0.6-2.7,1-7.4,1-12.6H560.9z M563.4,241.6c-1.1-2.7-1.7-3.8-3.3-6l1.2-0.7c1.6,2.1,2.3,3.4,3.4,5.9
			L563.4,241.6z"/>
		<path d="M572.3,230.6c0.5,0,0.7,0,0.9,0c0.3,0,0.6,0,1.4-0.1c1.3-0.1,1.5-0.1,4.4-0.3l3.8-0.2c3-0.2,3.3-0.2,4.1-0.2l1.4,0
			c2.1-0.1,2.5-0.2,2.9-0.3l0.1,1.8c-1,0-1.8,0.1-2.7,0.3c-1.6,0.4-3.3,1.3-4.6,2.4c-1.9,1.6-3,3.6-3,5.5c0,2,1.2,3.6,3.4,4.4
			c1.2,0.4,2.7,0.8,3.6,0.8c0,0,0.1,0,0.2,0l-0.3,1.9c-0.3,0-0.3-0.1-0.7-0.1c-2.4-0.4-3.8-0.9-5.2-1.8c-1.7-1.2-2.7-2.9-2.7-4.9
			c0-2.8,1.6-5.4,4.5-7.4c0.7-0.5,1.4-0.8,2.3-1.3c-1.4,0.2-2.8,0.4-5.3,0.5c-4.8,0.3-7.4,0.6-8.3,0.8L572.3,230.6z M588.4,234.2
			c1.1,1.3,1.8,2.3,2.5,3.7l-1.2,0.7c-0.6-1.3-1.7-3.1-2.4-3.8L588.4,234.2z M591.1,232.9c1.1,1.3,1.7,2.2,2.5,3.7l-1.2,0.7
			c-0.5-1.1-1.5-2.7-2.4-3.8L591.1,232.9z"/>
		<path d="M456.9,274.5c-0.2,2.2-0.5,3.4-1.4,4.9c-0.7,1.3-1.6,2.1-3,3c-0.5-0.6-0.6-0.8-1.1-1.1c0.5-0.2,0.6-0.3,1-0.6
			c-0.5,0-1.1-0.1-2-0.1h-5v1.4h-1.5c0.1-0.7,0.2-1.4,0.2-2.5v-5.8c0-0.6,0-1.2,0-2c-0.6,0.7-1,1.2-1.9,2c-0.3-0.6-0.5-0.8-0.9-1.1
			c2-1.7,3.2-3.1,4.3-5.3h-1.5c-0.9,0-1.5,0-2,0.1v-1.5c0.6,0.1,1.1,0.1,2,0.1h2.1c0.3-0.8,0.6-1.5,0.8-2.4h-2.1
			c-0.6,1-1,1.4-1.7,2.2c-0.4-0.3-0.7-0.5-1.2-0.7c1.5-1.5,2.4-2.9,2.9-4.7l1.4,0.4c-0.3,0.7-0.5,1-0.8,1.6h4.5c1.1,0,1.7,0,2.2-0.1
			v1.5c-0.7-0.1-1.2-0.1-2.2-0.1h-1.8c-0.3,1.1-0.5,1.7-0.8,2.4h3.3c1,0,1.5,0,2-0.1v1.4c-0.6-0.1-1.2-0.1-2-0.1H447
			c-0.4,0.9-0.7,1.4-1.4,2.5h2.5c0.4-0.7,0.7-1.3,1-2.1l1.3,0.4c-0.3,0.6-0.6,1-1,1.7h1.3c1.1,0,1.5,0,2-0.1v1.3
			c-0.5-0.1-1.1-0.1-2-0.1h-1.4v1.9h1c1,0,1.5,0,1.9-0.1v1.3c-0.5-0.1-1.1-0.1-1.9-0.1h-1v2h0.9c1.1,0,1.6,0,2-0.1v1.3
			c-0.4-0.1-1-0.1-2-0.1h-0.9v2.2h1c1.2,0,1.6,0,2-0.1v1.3c1-0.7,1.7-1.4,2.2-2.4c0.6-1.1,0.9-2,1-3.8h-0.3c-0.7,0-1.1,0-1.7,0.1
			c0.1-0.6,0.1-1,0.1-2.4v-8.5c0-1.2,0-1.7-0.1-2.4c0.7,0.1,1.3,0.1,2.3,0.1h4.7c1.1,0,1.6,0,2.3-0.1c-0.1,0.8-0.1,1.4-0.1,2.5v8.5
			c0,1.1,0,1.7,0.1,2.3c-0.6-0.1-1-0.1-2.2-0.1h-0.5v5.4c0,0.4,0.2,0.6,1,0.6c1.1,0,1.5-0.1,1.7-0.4c0.2-0.3,0.3-1.2,0.3-3.1
			c0.5,0.3,0.8,0.5,1.3,0.6c-0.3,3.9-0.5,4.2-3.3,4.2c-1.9,0-2.4-0.3-2.4-1.7v-5.7H456.9z M448.1,273v-1.9h-2.8v1.9H448.1z
			 M445.3,276.2h2.8v-2h-2.8V276.2z M445.3,279.5h2.8v-2.2h-2.8V279.5z M455,265.4h6.3v-2.6H455V265.4z M455,269.3h6.3v-2.6H455
			V269.3z M455,273.3h6.3v-2.8H455V273.3z"/>
		<path d="M466.7,265.4c0.8,0.1,1.7,0.2,3,0.2c0.5,0,0.7,0,1.4,0c0.5-3,0.5-3.4,0.5-4.4l1.9,0.2c-0.1,0.6-0.1,0.6-0.4,2.3
			c-0.1,0.8-0.2,1.1-0.3,1.8c1.9-0.2,3.2-0.4,4.3-0.8l0.1,1.7c-0.2,0-0.2,0-0.7,0.1c-1.2,0.3-2.9,0.5-4.1,0.6
			c-0.4,1.9-1,4.6-1.7,6.8c-0.8,2.6-1.5,4.4-2.8,7.3l-1.8-0.7c1.8-3.1,3.6-8.6,4.5-13.3c-0.5,0-0.8,0-1.7,0c-0.8,0-1.1,0-2,0
			c0,0-0.1,0-0.1,0c0,0-0.2,0-0.4,0V265.4z M477.5,274.1c-0.5,0.6-0.6,0.6-0.7,0.9c-0.4,0.5-0.6,1.1-0.6,1.7c0,1.4,1.5,2.2,4.2,2.2
			c1.8,0,3.9-0.3,5.3-0.8l0.2,1.8c-0.3,0-0.3,0-1.1,0.2c-1.6,0.3-3,0.4-4.3,0.4c-3.9,0-6-1.2-6-3.6c0-1.1,0.3-1.8,1.6-3.5
			L477.5,274.1z M484.9,270c-1.2-0.1-1.8-0.2-2.8-0.2c-2.1,0-3.8,0.2-6,0.8l-0.2-1.6c2.8-0.6,4.3-0.8,6.4-0.8c0.5,0,0.8,0,2.6,0.1
			L484.9,270z"/>
		<path d="M491.5,263.5c-0.1,0.7-0.2,1.5-0.2,2.9c0,2.6,0.3,5.9,0.6,7.5c0.5,2.4,1.5,4.1,2.4,4.1c0.4,0,0.8-0.4,1.2-1.2
			c0.6-1.2,0.9-2.5,1.2-4.1c0.5,0.6,0.7,0.8,1.4,1.4c-1.2,4.2-2.3,5.8-4,5.8c-1.3,0-2.6-1.3-3.4-3.6c-0.8-2.3-1.2-5.4-1.3-11.3
			c0-0.9,0-1-0.1-1.4L491.5,263.5z M503.1,264.8c1.6,1.8,2.5,3.4,3.4,5.5c0.9,2,1.4,3.7,1.8,6.4l-1.7,0.7c-0.4-4.5-2.2-8.6-5-11.8
			L503.1,264.8z"/>
		<path d="M521.3,261.9c0-0.6,0-1-0.1-1.5h1.8c-0.1,0.4-0.1,0.9-0.1,1.6v0.8h6.6c1.1,0,1.9,0,2.6-0.1v1.7c-0.6-0.1-1.3-0.1-2.5-0.1
			h-15.4c0,10.5-0.6,14-2.6,17.6c-0.4-0.5-0.7-0.8-1.3-1.2c0.9-1.5,1.4-2.7,1.7-4.6c0.4-2.3,0.6-5.6,0.6-10.6c0-0.4,0-0.6,0-0.7
			c0-0.8,0-1.4-0.1-2c0.8,0.1,1.6,0.1,2.5,0.1h6.3V261.9z M522,267.1c0-1.2,0-1.6-0.1-2.2h1.7c-0.1,0.5-0.1,0.9-0.1,2.2v8h5
			c1,0,1.5,0,2.1-0.1v1.6c-0.6-0.1-1.1-0.1-2.1-0.1h-5v3.6h6.5c1,0,1.7,0,2.4-0.1v1.7c-0.7-0.1-1.5-0.1-2.5-0.1h-13.8
			c-1,0-1.7,0-2.5,0.1v-1.6c0.6,0.1,1.2,0.1,2.4,0.1h6v-3.6h-4.4c-1.2,0-1.4,0-2.1,0.1V275c0.6,0.1,0.9,0.1,2,0.1h4.5V267.1z
			 M519.2,265.6c-0.5,1.9-0.6,2.3-0.8,2.8c0.8,1.6,1.6,2.5,3,3.7c-0.4,0.4-0.6,0.7-0.9,1.2c-1.2-1.3-2-2.3-2.7-3.5
			c-0.7,1.6-1.4,2.8-2.5,4c-0.4-0.5-0.6-0.6-1.1-0.9c1.3-1.3,2-2.5,2.6-4.2c0.5-1.2,0.7-2.4,0.8-3.4L519.2,265.6z M528.8,265.6
			c-0.1,0.4-0.1,0.4-0.4,1.6c-0.2,0.7-0.3,1-0.4,1.4c1,1.8,2.1,2.9,4,4.1c-0.3,0.3-0.7,0.8-1,1.2c-1.7-1.3-2.7-2.5-3.6-4
			c-0.6,1.4-1.2,2.4-2.3,3.7c-0.3-0.3-0.7-0.6-1.2-0.9c1.3-1.4,2-2.5,2.6-4.3c0.4-1.2,0.6-2.2,0.7-3.2L528.8,265.6z"/>
		<path d="M544,271.6c-0.6,0-1.1,0-1.5,0.1c0-0.5,0.1-0.9,0.1-1.4v-2.5h-4.4c-0.1,4.4-0.3,6.7-0.6,8.8c-0.4,2.2-1,3.6-1.9,5.4
			c-0.3-0.4-0.6-0.7-1.2-1.1c0.9-1.4,1.3-2.6,1.7-4.5c0.4-2.1,0.7-5.6,0.7-10.2c0-1.9,0-2.6-0.1-3.7c0.8,0.1,1.6,0.1,2.5,0.1h6.3
			V262c0-0.6,0-1.1-0.1-1.5h1.8c-0.1,0.4-0.1,0.8-0.1,1.6v0.6h6.6c1.1,0,1.9,0,2.6-0.1v1.6c-0.6-0.1-1.2-0.1-2.5-0.1h-15.4v2.6h4.4
			v-0.3c0-0.8,0-1.2-0.1-1.6h1.7c-0.1,0.3-0.1,0.8-0.1,1.6v0.3h5.7v-0.3c0-0.7,0-1.2-0.1-1.6h1.7c-0.1,0.4-0.1,0.8-0.1,1.6v0.3h2.7
			c1.2,0,1.7,0,2.3-0.1v1.6c-0.6-0.1-1.2-0.1-2.3-0.1h-2.7v2.5c0,0.5,0,0.9,0.1,1.4c-0.6,0-0.9-0.1-1.6-0.1h-2.1v2.1h4.8
			c1,0,1.5,0,2.2-0.1c-0.1,0.6-0.1,1.1-0.1,1.9v3.7c0,1.3-0.6,1.6-2.9,1.6c-0.6,0-0.9,0-1.6,0c-0.1-0.6-0.1-0.9-0.4-1.5
			c1,0.1,1.6,0.1,2.3,0.1c0.9,0,1.1-0.1,1.1-0.6V275h-5.4v4.8c0,1.2,0,1.9,0.1,2.5h-1.8c0.1-0.6,0.1-1.5,0.1-2.5V275h-4.7v3.6
			c0,1.5,0,1.9,0.1,2.4h-1.7c0.1-0.6,0.1-1.2,0.1-2.4v-2.9c0-0.8,0-1.4-0.1-2.1c0.6,0.1,1.3,0.1,2.3,0.1h4v-2.1H544z M544,270.4h5.7
			v-2.6H544V270.4z"/>
		<path d="M558.6,264.6c0.5,0,0.7,0,0.9,0c0.3,0,0.6,0,1.4-0.1c1.3-0.1,1.5-0.1,4.4-0.3l3.8-0.2c3-0.2,3.3-0.2,4.1-0.2l1.4,0
			c2.1-0.1,2.5-0.2,2.9-0.3l0.1,1.8c-1,0-1.8,0.1-2.7,0.3c-1.6,0.4-3.3,1.3-4.6,2.4c-1.9,1.6-3,3.6-3,5.5c0,2,1.2,3.6,3.4,4.4
			c1.2,0.4,2.7,0.8,3.6,0.8c0,0,0.1,0,0.2,0l-0.3,1.9c-0.3,0-0.3-0.1-0.7-0.1c-2.4-0.4-3.8-0.9-5.2-1.8c-1.7-1.2-2.7-2.9-2.7-4.9
			c0-2.8,1.6-5.4,4.5-7.4c0.7-0.5,1.4-0.8,2.3-1.3c-1.4,0.2-2.8,0.4-5.3,0.5c-4.8,0.3-7.4,0.6-8.3,0.8L558.6,264.6z M574.6,268.2
			c1.1,1.3,1.8,2.3,2.5,3.7l-1.2,0.7c-0.6-1.3-1.7-3.1-2.4-3.8L574.6,268.2z M577.4,266.9c1.1,1.3,1.7,2.2,2.5,3.7l-1.2,0.7
			c-0.5-1.1-1.5-2.7-2.4-3.8L577.4,266.9z"/>
		<path d="M586.2,261c0.8,1.8,1.4,2.7,2.9,4c-0.4,0.5-0.6,0.7-0.9,1.1c-1.3-1.2-2-2.1-2.8-3.9c-1,2.1-2.3,3.9-4.1,5.4
			c-0.3-0.7-0.4-0.7-0.9-1.2c2-1.5,3.1-3,4-5.4H586.2z M584,267.9c-0.5,0-1.1,0-1.6,0.1v-1.4c0.4,0.1,1,0.1,1.6,0.1h2.4
			c0.7,0,1.3,0,1.6-0.1v1.3c-0.6,0-1.1-0.1-1.6-0.1h-0.5v2.6h0.5c1,0,1.7,0,2.1-0.1v1.5c-0.4-0.1-1.1-0.1-2.1-0.1h-0.5v7.2
			c1-0.3,1.5-0.5,2.9-1l0,1.3c-2.1,0.7-2.8,1-6.4,2c-0.4,0.1-0.6,0.2-1,0.3l-0.3-1.6c0.7,0,1.4-0.2,3.5-0.7v-7.5h-1.2
			c-0.8,0-1.6,0-2.2,0.1v-1.5c0.6,0.1,1.4,0.1,2.2,0.1h1.2v-2.6H584z M582.4,278.3c-0.2-1.9-0.5-3-1.1-4.8l1.2-0.4
			c0.6,2,0.8,2.8,1.1,4.8L582.4,278.3z M586.6,277.2c0.5-1.5,0.6-2.4,0.8-4.2l1.2,0.3c-0.3,1.7-0.5,2.6-0.9,4.2L586.6,277.2z
			 M601.6,280.2c0.5,0,0.8,0,1.2-0.1v1.5c-0.7-0.1-1.7-0.1-2.6-0.1h-9.1c-0.9,0-1.8,0-2.4,0.1v-1.5c0.4,0.1,0.9,0.1,1.3,0.1h0.2
			v-4.5c0-1.1,0-1.6-0.1-2.1c0.7,0.1,1.4,0.1,2.4,0.1h6.7c1,0,1.6,0,2.2-0.1c-0.1,0.5-0.1,1.1-0.1,2.1v4.4H601.6z M593.5,271.2h0.4
			c0.9,0,1.5,0,1.9-0.1v1.3c-0.4-0.1-1-0.1-1.8-0.1h-3.1c-0.7,0-1.1,0-1.6,0.1c0-0.5,0.1-1.1,0.1-1.8v-7.6c0-0.7,0-1.1-0.1-1.7
			c0.5,0,0.9,0.1,1.7,0.1h3c0.9,0,1.4,0,1.9-0.1v1.4c-0.5-0.1-1.1-0.1-1.9-0.1h-0.4v2.1h0.2c0.6,0,1.2,0,1.6-0.1
			c0,0.4-0.1,0.8-0.1,1.4v1.4c0,0.6,0,1.2,0.1,1.5c-0.5,0-1-0.1-1.6-0.1h-0.2V271.2z M592.4,264.7v-2.1h-1.8v2.1H592.4z
			 M594.1,267.8v-2h-3.6v2H594.1z M590.5,268.9v2.3h1.9v-2.3H590.5z M591.5,280.3h2v-5.2h-2V280.3z M594.6,280.3h2v-5.2h-2V280.3z
			 M598,265.1c-0.4,1-0.7,1.6-1.4,2.6c-0.3-0.3-0.6-0.6-1.2-0.8c1-1.4,1.7-3,2.1-4.8c0.1-0.6,0.2-1.2,0.3-1.5l1.5,0.4
			c-0.2,0.5-0.2,0.6-0.4,1.2c-0.2,0.6-0.3,0.9-0.5,1.6h2.1c1,0,1.4,0,2-0.1v1.6c-0.6-0.1-1.2-0.2-2-0.2H598z M596.8,269.2
			c0.4,0.1,0.8,0.1,1.6,0.1h1.9c0.9,0,1.3,0,1.8-0.1v1.5c-0.4-0.1-0.9-0.1-1.8-0.1h-1.8c-0.8,0-1.3,0-1.7,0.1V269.2z M597.8,280.3
			h2.1v-5.2h-2.1V280.3z"/>
		<path d="M613.1,280.1c-2.4,1.2-3.7,1.7-7,2.3c-0.3-0.6-0.5-0.8-1-1.4c3.3-0.4,4.8-0.7,6.8-1.8L613.1,280.1z M614.8,262.1
			c0-0.6,0-1.2-0.1-1.7h1.8c-0.1,0.5-0.1,1.1-0.1,1.7v1.4h3c1-1,1.5-1.6,2.3-2.9l1.3,0.7c-0.8,1-1.2,1.5-2,2.3h2.4
			c2.1,0,2.1,0,2.4-0.1c-0.1,0.7-0.1,1.2-0.1,2.2v0.9c0,0.5,0,0.9,0.1,1.3h-1.5v-3.1h-17v3.1h-1.5c0.1-0.5,0.1-1,0.1-1.4v-1
			c0-0.8,0-1.3-0.1-1.9c0.7,0.1,1.4,0.1,2.6,0.1h2.1c-0.6-0.8-1.1-1.2-2-2.1l1.3-0.6c1,1,1.5,1.6,2.3,2.7h2.8V262.1z M608,273.2
			c0-1.1,0-1.7-0.1-2.5c0.7,0,1.2,0.1,2.7,0.1h10.2c1.4,0,2,0,2.7-0.1c-0.1,0.7-0.1,1.4-0.1,2.5v3.3c0,1.4,0,2.1,0.1,2.6
			c-0.8-0.1-1.6-0.1-2.5-0.1h-10.5c-1,0-1.8,0-2.6,0.1c0.1-0.5,0.1-1.3,0.1-2.6V273.2z M621.9,268.3c0,0.5,0,0.9,0,1.4
			c-0.6,0-0.9,0-2.1,0h-8.5c-0.7,0-1.2,0-2,0.1c0-0.5,0.1-0.7,0.1-1.4v-1.2c0-0.7,0-1-0.1-1.3c0.7,0.1,1.2,0.1,2.1,0.1h8.3
			c0.9,0,1.5,0,2.2-0.1c0,0.5-0.1,0.8-0.1,1.4V268.3z M609.5,273.2h12.5V272h-12.5V273.2z M609.5,275.6h12.5v-1.3h-12.5V275.6z
			 M609.5,278h12.5v-1.3h-12.5V278z M610.9,267v1.6h9.6V267H610.9z M619.1,279.2c2.3,1.3,3.8,1.8,7.1,2.2c-0.4,0.4-0.6,0.7-0.9,1.3
			c-3.4-0.7-4.9-1.2-7.4-2.6L619.1,279.2z"/>
	</g>
	<g>
		<path d="M67,246.4c-1.5,0-1.9,0-2.6,0.1c0.3-1.9,0.3-2.3,0.7-3.2c0.6-1.5,1.6-2.8,3.1-4.1c0.8-0.7,0.9-0.7,3.7-2.6
			c2.4-1.6,3.2-2.7,3.2-4.1c0-1.8-1.5-3-4-3c-1.6,0-2.8,0.5-3.5,1.6c-0.5,0.6-0.7,1.2-0.8,2.4l-2-0.3c0.4-1.7,0.7-2.6,1.5-3.5
			c1.1-1.2,2.7-1.8,4.8-1.8c3.6,0,6,1.8,6,4.7c0,1.2-0.5,2.4-1.4,3.4c-0.7,0.8-1.3,1.3-4.1,3.1c-1.9,1.3-2.7,1.9-3.5,3
			c-0.7,1-1.1,1.6-1.4,2.8h7.7c1.2,0,2,0,2.9-0.2v2c-1-0.1-1.8-0.1-3-0.1H67z"/>
		<path d="M81.9,230.2c0-1,0-1.7-0.1-2.4c0.8,0.1,1.5,0.1,2.6,0.1h10.8c1.1,0,1.8,0,2.5-0.1c-0.1,0.7-0.1,1.3-0.1,2.2v15.4
			c0,1.2,0,1.8,0.1,2.6h-1.8v-1.6H83.5v1.6h-1.8c0.1-0.7,0.1-1.5,0.1-2.5V230.2z M83.5,236.1h12.4v-6.7H83.5V236.1z M83.5,244.9
			h12.4v-7.4H83.5V244.9z"/>
		<path d="M109.1,230c-0.8-1.3-1.3-1.9-2.6-3.3l1.4-0.6c1.7,2,1.9,2.4,2.8,3.9h3.4c1.2-1.3,1.8-2.2,2.7-3.9l1.5,0.6
			c-1,1.4-1.8,2.5-2.6,3.3h4.9c1.1,0,1.8,0,2.4-0.1v1.6c-0.7-0.1-1.4-0.1-2.4-0.1h-16.4c-1,0-1.7,0-2.4,0.1v-1.6
			c0.8,0.1,0.8,0.1,2.4,0.1H109.1z M105.2,245.6c0,1.3,0,1.9,0.1,2.5h-1.8c0.1-0.7,0.1-1.4,0.1-2.6v-10.1c0-1.2,0-1.6-0.1-2.1
			c0.8,0.1,1.4,0.1,2.3,0.1h3.8c1.3,0,1.7,0,2.2-0.1c0,0.6-0.1,1.2-0.1,2.5V246c0,1.4-0.5,1.8-2,1.8c-0.5,0-1.1,0-2-0.1
			c-0.1-0.7-0.2-0.9-0.4-1.5c0.9,0.2,1.6,0.2,2.1,0.2c0.7,0,0.8-0.1,0.8-0.6v-3.2h-5.2V245.6z M110.3,237.4v-2.6h-5.2v2.6H110.3z
			 M110.3,241.4v-2.6h-5.2v2.6H110.3z M116.6,233.6c-0.1,0.6-0.1,1-0.1,2.3v4.9c0,1.8,0,2.1,0.1,2.7h-1.7c0.1-0.6,0.1-1,0.1-2.7
			v-4.9c0-1.2,0-1.6-0.1-2.3H116.6z M121.7,232.9c-0.1,0.6-0.1,1.3-0.1,2.6v10.4c0,1.7-0.5,2.1-2.5,2.1c-0.8,0-1.6,0-2.8-0.1
			c-0.1-0.6-0.2-1-0.5-1.6c1.3,0.2,2.3,0.3,3.1,0.3c0.9,0,1.1-0.1,1.1-0.7v-10.4c0-1.4,0-1.9-0.1-2.5H121.7z"/>
		<path d="M126,233.2c0.9,0,3.4-0.3,5.3-0.6c0.4-1.8,0.7-4.1,0.7-5.1c0,0,0-0.2,0-0.3l1.9,0.2c-0.2,0.5-0.2,0.9-0.5,2.3
			c-0.1,0.7-0.3,1.6-0.5,2.7c0.6,0,0.9-0.1,1.4-0.1c1.7,0,2.7,0.3,3.5,1c0.8,0.8,1.2,1.9,1.2,3.9c0,3.7-0.6,6.9-1.6,8.3
			c-0.6,0.8-1.2,1.1-2.4,1.1c-1,0-2-0.3-3.6-0.9c0-0.4,0-0.5,0-0.8c0-0.4,0-0.5-0.1-1c1.4,0.7,2.7,1.1,3.6,1.1
			c0.6,0,1.1-0.4,1.4-1.2c0.6-1.5,1-4,1-6.7c0-2.5-0.7-3.4-3-3.4c-0.5,0-0.8,0-1.7,0.1c-0.9,3.8-2,6.9-3.6,10.2
			c-0.3,0.6-0.8,1.5-1.6,2.9l-1.6-1c0.7-0.9,1.7-2.5,2.5-4.3c1.1-2.4,1.8-4.5,2.6-7.6c-2.1,0.3-3.2,0.5-3.4,0.6
			c-0.6,0.1-0.7,0.1-1.4,0.3L126,233.2z M141.8,231c2.4,2.6,3.9,5.1,5,8.5l-1.5,0.9c-0.9-3.3-2.6-6.2-4.9-8.6L141.8,231z"/>
		<path d="M153.2,231.8c-0.2,0.7-0.3,1.3-0.6,2.6c-0.6,3.5-0.6,3.6-0.7,4.2c0,0.3,0,0.3-0.1,0.6l0,0c0.3-0.3,0.5-0.5,0.7-0.7
			c1.7-1.3,4.3-2.1,6.9-2.1c3.9,0,6.4,1.8,6.4,4.6c0,1.6-0.8,3.2-2.2,4.1c-1.5,1.1-3.4,1.6-6,1.6c-1.4,0-2.9-0.1-4.2-0.4
			c-0.5-0.1-0.5-0.1-1.9-0.5c0-0.2,0-0.4,0-0.5c0-0.6,0-0.9-0.2-1.5c1.8,0.7,4.1,1.2,6.1,1.2c4,0,6.5-1.6,6.5-4c0-2-1.7-3.1-4.7-3.1
			c-2.4,0-4.9,0.8-6.7,2.1c-0.4,0.3-0.6,0.5-1,1l-1.9,0c0.1-0.4,0.1-0.6,0.2-1.4c0.2-1.8,0.7-4.6,1-6.6c0.1-0.6,0.1-0.8,0.2-1.3
			L153.2,231.8z M154.3,227.6c1.9,1.1,5.5,2.3,8.1,2.7l-0.7,1.7c-3.1-0.8-3.1-0.8-4.7-1.4c-1.5-0.5-1.5-0.5-3.7-1.5L154.3,227.6z"/>
		<path d="M27.6,269.9c0-0.2,0-0.5,0.1-1.6c-0.5,0.9-0.7,1.2-1.8,2.7c-1.2,1.7-3.4,3.6-5.7,5.3c-1.1,0.8-2,1.4-4,2.5
			c-0.4-0.7-0.6-0.9-1.2-1.4c2.9-1.3,5.6-3.2,8.1-5.7c1.3-1.3,2.7-3,3.5-4.4l-7.9,0c-1.5,0-1.8,0-2.7,0.1v-1.8
			c0.9,0.1,1.3,0.2,2.7,0.2l8.7,0l0-2.4c0-1.2,0-1.2-0.1-1.9h1.9c-0.1,0.5-0.1,0.9-0.1,1.3v0.6l0,2.4h3.2c1.3,0,1.6,0,2.4-0.1v1.8
			c-0.5,0-1-0.1-2-0.1c-0.1,0-0.2,0-0.4,0h-3.2l0.2,11.7c0,1,0,1.8,0.1,2.4h-1.9c0.1-0.7,0.1-1,0.1-1.9c0-0.3,0-0.4,0-0.5l-0.1-8.8
			V269.9L27.6,269.9z"/>
		<path d="M37.9,278.4c1.9-0.1,4.8-0.8,7-1.8c4.6-2.1,7.8-5.6,9.8-10.7c0.6,0.7,0.8,1,1.5,1.4c-1.9,4.2-4.2,7-7.3,9.2
			c-2.5,1.7-4.9,2.7-9,3.6c-0.6,0.1-0.8,0.2-1.4,0.4L37.9,278.4z M39.5,263.5c2.6,1.6,4.1,2.8,5.8,4.5l-1.2,1.5
			c-1.7-1.9-3.6-3.4-5.7-4.7L39.5,263.5z"/>
		<path d="M59.2,267.9C60,268,60.5,268,62,268h12.3c0.9,0,1.2,0,1.6-0.2l0.9,1c-0.2,0.3-0.3,0.5-0.7,1.5c-2,5.6-5.4,8.7-11.6,10.8
			c-0.3-0.7-0.5-1-1-1.7c3.2-0.9,5.3-2,7.1-3.6c1.7-1.6,2.8-3.3,3.9-6.3H61.9c-1.3,0-2,0-2.8,0.1V267.9z M61.2,262.3
			c0.7,0.1,1.2,0.2,2.5,0.2h8c1.3,0,1.8,0,2.5-0.2v1.8c-0.6-0.1-1.2-0.1-2.5-0.1h-8.1c-1.3,0-1.8,0-2.5,0.1V262.3z"/>
		<path d="M97.9,262.6c-0.4,0.3-0.5,0.4-1.1,1c-1.5,1.6-3.6,3.3-5.6,4.8v10.2c0,1.4,0,1.9,0.1,2.5h-2.1c0.1-0.6,0.1-1.2,0.1-2.5
			v-9.1c-3.1,1.9-4.9,2.7-9.3,4.2c-0.3-0.8-0.5-1-0.9-1.6c4.5-1.2,8.7-3.2,12.5-6.2c2.2-1.7,3.9-3.4,4.6-4.5L97.9,262.6z"/>
		<path d="M101.5,278.4c1.9-0.1,4.8-0.8,7-1.8c4.6-2.1,7.8-5.6,9.8-10.7c0.6,0.7,0.8,1,1.5,1.4c-1.9,4.2-4.2,7-7.3,9.2
			c-2.5,1.7-4.9,2.7-9,3.6c-0.6,0.1-0.8,0.2-1.4,0.4L101.5,278.4z M103,263.5c2.6,1.6,4.1,2.8,5.8,4.5l-1.2,1.5
			c-1.7-1.9-3.6-3.4-5.7-4.7L103,263.5z"/>
		<path d="M125.7,277.2c-0.7,2.2-1.2,3.3-2.3,4.9c-0.6-0.5-0.7-0.6-1.2-0.9c1.2-1.5,1.7-2.6,2.3-4.7L125.7,277.2z M125,276
			c-0.8,0-1.3,0-1.9,0.1c0-0.5,0.1-1.3,0.1-2.5v-9.6c0-1.2,0-1.8-0.1-2.5c0.6,0,1.1,0.1,2,0.1h2.3c0.8,0,1.3,0,1.8-0.1
			c0,0.5-0.1,0.9-0.1,2.4v9.8c0,1.3,0,2,0.1,2.4c-0.5,0-1-0.1-1.9-0.1H125z M124.5,265.9h3.3v-3h-3.3V265.9z M124.5,270.2h3.3v-3
			h-3.3V270.2z M124.5,274.8h3.3v-3.3h-3.3V274.8z M127.9,276.7c0.6,1.7,1.1,2.7,2.1,4.2c-0.4,0.2-0.6,0.4-1.2,0.8
			c-0.9-1.6-1.4-2.6-2.1-4.4L127.9,276.7z M132.1,269.4c-1.1,0-1.6,0-2.3,0.1v-1.5c0.6,0.1,1.2,0.1,2.3,0.1h1.4v-1.8h-0.8
			c-0.9,0-1.4,0-2,0.1v-1.3c0.6,0.1,1,0.1,2,0.1h0.8v-1.6h-1.3c-0.9,0-1.5,0-2.1,0.1v-1.4c0.6,0.1,1.1,0.1,2.1,0.1h1.2
			c0-0.9,0-1.4-0.1-1.9h1.6c-0.1,0.5-0.1,0.9-0.1,1.9h3.6c0-1.1,0-1.4-0.1-1.9h1.6c-0.1,0.6-0.1,1.1-0.1,1.9h1.5c1,0,1.5,0,2-0.1
			v1.4c-0.7-0.1-1.2-0.1-2-0.1h-1.6v1.6h1.1c0.9,0,1.4,0,2-0.1v1.3c-0.6-0.1-1.2-0.1-2-0.1h-1v1.8h1.7c1.1,0,1.6,0,2.2-0.1v1.5
			c-0.6-0.1-1.2-0.1-2.3-0.1h-4.1v1.7h2.8c1,0,1.7,0,2.3-0.1c-0.1,0.5-0.1,1.2-0.1,2.4v3.8c0.6,0,1,0,1.4-0.1v1.4
			c-0.5-0.1-0.7-0.1-1.4-0.1v2c0,1.5-0.4,1.8-2.2,1.8c-0.8,0-1.3,0-2.4-0.1c0-0.6-0.1-0.9-0.3-1.4c0.9,0.1,1.8,0.2,2.5,0.2
			c0.9,0,1-0.1,1-0.6v-1.9h-8.4v1.5c0,1.6,0,2,0.1,2.6h-1.6c0.1-0.7,0.1-1.4,0.1-2.6v-1.5c-0.7,0-1,0-1.6,0.1V277
			c0.5,0.1,0.9,0.1,1.6,0.1v-3.7c0-0.9,0-1.5-0.1-2.4c0.6,0,1.3,0.1,2.6,0.1h2.3v-1.7H132.1z M136,272.2h-3.5v1.8h3.5V272.2z
			 M136,275.2h-3.5v1.9h3.5V275.2z M134.8,265.4h3.6v-1.6h-3.6V265.4z M134.8,268.3h3.6v-1.8h-3.6V268.3z M141,274.1v-1.8h-3.6v1.8
			H141z M141,277.1v-1.9h-3.6v1.9H141z"/>
		<path d="M152.6,263.5c-0.5,0-1,0-1.8,0.1v-1.7c0.5,0.1,1,0.1,1.8,0.1h3.2c1.2,0,1.8,0,2.2-0.1c-0.1,0.6-0.1,1.1-0.1,1.6
			c0,3,0.6,5.7,2,8.4c0.9,1.8,2.1,3.4,3.6,5c1.4,1.4,2.3,2.2,4.5,3.5c-0.6,0.6-0.8,0.7-1.3,1.5c-2.1-1.5-3.2-2.4-4.7-4.1
			c-1.4-1.6-2.6-3.4-3.4-5.2c-0.7-1.5-1.1-2.6-1.5-4.4c-0.7,3.2-1.7,5.5-3.4,7.8c-0.9,1.3-2,2.5-3.2,3.6c-0.9,0.8-1.5,1.3-3,2.4
			c-0.4-0.6-0.7-1-1.3-1.4c2.6-1.6,4-2.8,5.6-4.7c1.7-2.1,3-4.4,3.7-7c0.5-1.6,0.6-2.8,0.8-5.2H152.6z"/>
		<path d="M173.1,263.1c-1,0-1.8,0-2.5,0.1v-1.7c0.7,0.1,1.5,0.1,2.5,0.1h16.1c1,0,1.8,0,2.5-0.1v1.7c-0.7-0.1-1.6-0.1-2.5-0.1h-0.5
			v17.1c0,1.6-0.6,1.9-2.9,1.9c-0.8,0-1.9,0-3.2-0.1c0-0.6-0.2-1.1-0.4-1.6c1.4,0.2,2.8,0.3,3.8,0.3c0.9,0,1.1-0.1,1.1-0.7v-16.8
			H173.1z M182.7,274.1c0,0.8,0,1.3,0.1,1.8c-0.5,0-1.3-0.1-2-0.1h-5.7v2.2h-1.7c0.1-0.6,0.1-1.3,0.1-1.9v-7.6c0-0.9,0-1.5-0.1-2.1
			c0.6,0.1,1.2,0.1,2.2,0.1h4.9c1,0,1.6,0,2.3-0.1c-0.1,0.6-0.1,1-0.1,2V274.1z M175.1,274.4h6v-6.6h-6V274.4z"/>
		<path d="M194.1,265.5c0.3,0,0.9,0,1.1,0c0.1,0,0.1,0,0.8,0c0.4-0.6,0.6-1.1,1.1-1.9c0.8-1.6,1-2.1,1.3-3.2l1.7,0.5
			c-0.2,0.3-0.3,0.6-0.5,0.9c-0.2,0.6-1.4,2.6-2,3.6c2.4-0.2,3.3-0.3,5-0.5c-0.6-1.1-0.8-1.4-1.5-2.4l1.1-0.6
			c1.2,1.6,1.9,2.7,3.1,4.8l-1.3,0.7c-0.4-0.7-0.4-0.9-0.7-1.4c-1.8,0.3-5.2,0.7-7.6,0.8c-0.9,0.1-1.1,0.1-1.4,0.2L194.1,265.5z
			 M195.8,270.4c0-0.9,0-1.6-0.1-2.2c0.6,0.1,1.1,0.1,1.9,0.1h4.2c1,0,1.6,0,2.2-0.1c0,0.5-0.1,1.2-0.1,1.6V280c0,1.5-0.4,1.8-3,1.8
			c-0.2,0-0.4,0-0.7,0c0-0.4-0.2-1.1-0.4-1.5c0.6,0.1,1.2,0.1,1.8,0.1c0.6,0,0.8-0.1,0.8-0.5v-3.1h-5.3v3c0,1.2,0,1.8,0.1,2.4h-1.7
			c0.1-0.6,0.1-1.3,0.1-2.4V270.4z M197.2,271.9h5.3v-2.3h-5.3V271.9z M197.2,275.5h5.3v-2.4h-5.3V275.5z M207.7,264.5
			c2.4-0.7,4.9-1.9,6.4-3l1.1,1.3c-0.4,0.2-0.4,0.2-1.3,0.7c-1.8,1-3.6,1.7-6.1,2.5v2.2c0,0.7,0.3,0.7,2.5,0.7c2.2,0,2.9,0,3.2-0.3
			c0.4-0.2,0.5-0.9,0.6-3c0.5,0.3,0.9,0.5,1.4,0.6c-0.2,2-0.4,2.9-0.8,3.4c-0.4,0.5-1.3,0.6-4.4,0.6c-3.4,0-4-0.2-4-1.6v-5.7
			c0-0.9,0-1.5-0.1-2.1h1.8c-0.1,0.6-0.1,1.1-0.1,2.1V264.5z M207.7,275c2.5-0.6,4.8-1.7,6.5-3l1.1,1.2c-1.1,0.6-2.9,1.5-3.7,1.9
			c-1.4,0.6-2.1,0.8-3.8,1.3v2.9c0,0.5,0.2,0.6,0.8,0.7c0.5,0.1,1.1,0.1,2.3,0.1c1.9,0,2.7-0.1,3-0.5c0.3-0.3,0.4-1.4,0.5-3.1
			c0.4,0.2,0.9,0.5,1.4,0.6c-0.2,2.3-0.5,3.2-1,3.8c-0.5,0.5-1.3,0.6-4,0.6c-2.3,0-3-0.1-3.7-0.4c-0.6-0.2-0.8-0.6-0.8-1.4v-6
			c0-1.2,0-1.7-0.1-2.2h1.7c-0.1,0.5-0.1,0.9-0.1,2.1V275z"/>
	</g>
	<g>
		<path d="M61.5,18.9h6.9c1.3,0,2.4,0,3.2-0.1v2.9c-1-0.1-2-0.2-3.2-0.2H53.2c-1.1,0-2.2,0-3.3,0.2v-2.9c0.9,0.1,1.9,0.1,3.3,0.1
			h5.5V3.4c0-1.1,0-1.8-0.2-2.8h3.1c-0.1,0.9-0.2,1.7-0.2,2.8v4.1h5.6c1.1,0,1.9,0,2.8-0.1v2.9c-0.9-0.1-1.8-0.1-2.8-0.1h-5.6V18.9z
			"/>
		<path d="M82.4,13.6c-0.3,0-0.4,0-1.2,0v4.2c0,0.9,0,1.2,0.1,1.9h-2.4v-1h-2.1V21h-2.5c0.1-0.8,0.1-1.6,0.1-2.8V4.1
			c0-0.9,0-1.6-0.1-2.4c0.6,0,1,0.1,2,0.1h2.8c1.1,0,1.6,0,2.1-0.1c0,0.5-0.1,1.1-0.1,2.2v7.3c0.4,0,0.8,0,1.3,0V5.7
			c0-0.9,0-1.4-0.1-2c0.6,0,1.1,0.1,2.1,0.1h2.8v-1c0-1,0-1.7-0.1-2.4h2.8c-0.1,0.8-0.1,0.8-0.1,3.4h3c0.9,0,1.4,0,1.9-0.1
			c0,0.5-0.1,1-0.1,2v5.5c0.8,0,1,0,1.5-0.1v2.6c-0.7-0.1-1.6-0.1-2.6-0.1h-3.3c1.1,2.7,3.3,4.9,6.3,6.3c-0.7,1-1,1.5-1.4,2.6
			c-1.7-1-2.7-1.7-3.8-2.8c-1.2-1.2-2.1-2.5-2.7-3.9c-1.2,3-3.3,5.1-6.7,6.8c-0.6-1.1-0.8-1.5-1.6-2.3c1.8-0.7,3-1.5,4-2.6
			c1.1-1.2,1.8-2.4,2.4-4.1H82.4z M76.8,9h2.1V4.1h-2.1V9z M76.8,16.4h2.1v-5.2h-2.1V16.4z M87,11.3c0.1-1.4,0.2-3,0.2-4.5V6.1h-2.3
			v5.2H87z M92.2,11.3V6.1h-2.4l0,1.7c0,1.2-0.1,2.3-0.2,3.5H92.2z"/>
		<path d="M99.5,3.9c0-0.9,0-1.8-0.1-2.6c0.8,0.1,1.6,0.1,2.7,0.1h11.6c1.1,0,1.9,0,2.6-0.1c-0.1,0.9-0.1,1.6-0.1,2.4v15.5
			c0,1.2,0,2,0.1,2.9h-2.9v-1.4h-11.2v1.4h-2.9c0.1-0.8,0.1-1.8,0.1-2.9V3.9z M102.2,9.6h11.2V4h-11.2V9.6z M102.2,18.3h11.2v-6.1
			h-11.2V18.3z"/>
		<path d="M123.4,20.8c-1.9,0-2.3,0-3.1,0.1c0.1-1.4,0.3-2.2,0.6-3.1c0.6-1.8,1.7-3.3,3.3-4.7c0.8-0.7,1.6-1.3,4-2.9
			c2.2-1.5,2.9-2.3,2.9-3.5c0-1.6-1.3-2.6-3.3-2.6c-1.4,0-2.4,0.5-3,1.4c-0.4,0.6-0.6,1.1-0.7,2.2l-3.4-0.4c0.3-1.8,0.8-2.8,1.7-3.8
			c1.2-1.4,3.1-2.1,5.5-2.1c4.2,0,6.8,2,6.8,5.3c0,1.6-0.5,2.7-1.7,3.8c-0.7,0.6-0.9,0.8-4,3c-1.1,0.7-2.3,1.8-2.9,2.4
			c-0.7,0.8-1,1.2-1.4,2.2h6.7c1.5,0,2.7-0.1,3.5-0.2v3.2c-1.1-0.1-2.1-0.1-3.6-0.1H123.4z"/>
		<path d="M138.8,3.9c0-0.9,0-1.8-0.1-2.6c0.8,0.1,1.6,0.1,2.7,0.1H153c1.1,0,1.9,0,2.6-0.1c-0.1,0.9-0.1,1.6-0.1,2.4v15.5
			c0,1.2,0,2,0.1,2.9h-2.9v-1.4h-11.2v1.4h-2.9c0.1-0.8,0.1-1.8,0.1-2.9V3.9z M141.5,9.6h11.2V4h-11.2V9.6z M141.5,18.3h11.2v-6.1
			h-11.2V18.3z"/>
		<path d="M165.7,3.4c-0.6-1-1-1.5-1.9-2.6l2.6-0.7c1.2,1.6,1.5,2,2.2,3.4h3.2c1-1.1,1.5-2,2.1-3.4l2.7,0.7c-0.6,1-1.3,1.9-1.9,2.6
			h3.7c1.2,0,1.9,0,2.6-0.1v2.6c-0.7-0.1-1.3-0.1-2.6-0.1h-16.3c-1.2,0-1.8,0-2.6,0.1V3.2c0.9,0.1,1.3,0.1,2.6,0.1H165.7z
			 M163.4,19.8c0,1.2,0,1.9,0.1,2.6h-2.8c0.1-0.8,0.1-1.5,0.1-2.7V9.3c0-1.2,0-1.6-0.1-2.2c0.7,0.1,1.3,0.1,2.3,0.1h4.7
			c1.2,0,1.6,0,2.1-0.1c0,0.6-0.1,1.1-0.1,2.4v10.3c0,1.8-0.5,2.3-2.8,2.3c-0.4,0-0.6,0-1.5,0c-0.2-1.1-0.2-1.4-0.6-2.4
			c0.8,0.1,1.2,0.1,1.7,0.1c0.6,0,0.7-0.1,0.7-0.5v-2h-3.9V19.8z M167.3,11.1V9.5h-3.9v1.7H167.3z M167.3,15.1v-1.7h-3.9v1.7H167.3z
			 M174.7,7.5c-0.1,0.7-0.1,1.1-0.1,2.3V15c0,1.5,0,1.9,0.1,2.6H172c0.1-0.7,0.1-1.1,0.1-2.6V9.8c0-1.1,0-1.5-0.1-2.3H174.7z
			 M179.8,6.9c-0.1,0.7-0.1,1.3-0.1,2.5v10.1c0,1.1-0.2,1.7-0.6,2.1c-0.5,0.5-1.2,0.6-2.7,0.6c-0.6,0-1.1,0-2.6-0.1
			c-0.1-1-0.3-1.6-0.7-2.5c1.3,0.2,2.2,0.3,2.9,0.3c1,0,1.1-0.1,1.1-0.8V9.4c0-1.3,0-1.8-0.1-2.5H179.8z"/>
	</g>
	<g>
		<path d="M484.5,18.9h6.9c1.3,0,2.4,0,3.2-0.1v2.9c-1-0.1-2-0.2-3.2-0.2h-15.2c-1.1,0-2.2,0-3.3,0.2v-2.9c0.9,0.1,1.9,0.1,3.3,0.1
			h5.5V3.4c0-1.1,0-1.8-0.2-2.8h3.1c-0.1,0.9-0.2,1.7-0.2,2.8v4.1h5.6c1.1,0,1.9,0,2.8-0.1v2.9c-0.9-0.1-1.8-0.1-2.8-0.1h-5.6V18.9z
			"/>
		<path d="M505.4,13.6c-0.3,0-0.4,0-1.2,0v4.2c0,0.9,0,1.2,0.1,1.9h-2.4v-1h-2.1V21h-2.5c0.1-0.8,0.1-1.6,0.1-2.8V4.1
			c0-0.9,0-1.6-0.1-2.4c0.6,0,1,0.1,2,0.1h2.8c1.1,0,1.6,0,2.1-0.1c0,0.5-0.1,1.1-0.1,2.2v7.3c0.4,0,0.8,0,1.3,0V5.7
			c0-0.9,0-1.4-0.1-2c0.6,0,1.1,0.1,2.1,0.1h2.8v-1c0-1,0-1.7-0.1-2.4h2.8c-0.1,0.8-0.1,0.8-0.1,3.4h3c0.9,0,1.4,0,1.9-0.1
			c0,0.5-0.1,1-0.1,2v5.5c0.8,0,1,0,1.5-0.1v2.6c-0.7-0.1-1.6-0.1-2.6-0.1h-3.3c1.1,2.7,3.3,4.9,6.3,6.3c-0.7,1-1,1.5-1.4,2.6
			c-1.7-1-2.7-1.7-3.8-2.8c-1.2-1.2-2.1-2.5-2.7-3.9c-1.2,3-3.3,5.1-6.7,6.8c-0.6-1.1-0.8-1.5-1.6-2.3c1.8-0.7,3-1.5,4-2.6
			c1.1-1.2,1.8-2.4,2.4-4.1H505.4z M499.8,9h2.1V4.1h-2.1V9z M499.8,16.4h2.1v-5.2h-2.1V16.4z M510,11.3c0.1-1.4,0.2-3,0.2-4.5V6.1
			h-2.3v5.2H510z M515.2,11.3V6.1h-2.4l0,1.7c0,1.2-0.1,2.3-0.2,3.5H515.2z"/>
		<path d="M522.5,3.9c0-0.9,0-1.8-0.1-2.6c0.8,0.1,1.6,0.1,2.7,0.1h11.6c1.1,0,1.9,0,2.6-0.1c-0.1,0.9-0.1,1.6-0.1,2.4v15.5
			c0,1.2,0,2,0.1,2.9h-2.9v-1.4h-11.2v1.4h-2.9c0.1-0.8,0.1-1.8,0.1-2.9V3.9z M525.2,9.6h11.2V4h-11.2V9.6z M525.2,18.3h11.2v-6.1
			h-11.2V18.3z"/>
		<path d="M552.2,2.7c0-1,0-1.7-0.1-2.4h3c-0.1,0.6-0.1,1.3-0.1,2.4v6.4h6.1c0.8,0,1.3,0,1.9-0.1c-0.1,0.6-0.1,1.2-0.1,2v8.9
			c0,1.2,0,2,0.1,2.7h-2.8v-1.2h-13.8c-1.1,0-1.9,0-2.6,0.1v-2.7c0.7,0.1,1.3,0.1,2.5,0.1h14v-2.6H547c-1.1,0-1.7,0-2.3,0.1v-2.7
			c0.6,0.1,1.2,0.1,2.3,0.1h13.2v-2.3h-13.8c-1.1,0-1.8,0-2.5,0.1V9c0.8,0.1,1.4,0.1,2.5,0.1h5.8V2.7z M546.3,1.4
			c1.8,2.3,2.8,3.8,3.7,5.9l-2.4,1.4c-1.1-2.4-2.1-4-3.7-6L546.3,1.4z M563.1,2.5c-1.4,2.9-2.2,4.2-3.7,6.2l-2.2-1.4
			c1.6-2,2.4-3.4,3.4-6L563.1,2.5z"/>
		<path d="M567.8,3.9c0-0.9,0-1.8-0.1-2.6c0.8,0.1,1.6,0.1,2.7,0.1H582c1.1,0,1.9,0,2.6-0.1c-0.1,0.9-0.1,1.6-0.1,2.4v15.5
			c0,1.2,0,2,0.1,2.9h-2.9v-1.4h-11.2v1.4h-2.9c0.1-0.8,0.1-1.8,0.1-2.9V3.9z M570.5,9.6h11.2V4h-11.2V9.6z M570.5,18.3h11.2v-6.1
			h-11.2V18.3z"/>
	</g>
	<g>
		<g>
			<g>
				<g>
					<path style="&st3;" d="M558.5,140.7l-2-0.2l5.3-44l-16.6-10.4c-7.1,2.9-14.9,2.9-21.9,0.1l-16.4,10.2l5.3,44l-2,0.2l-5.4-45.2
						l18.4-11.4l0.5,0.2c6.8,2.8,14.4,2.8,21.3-0.1l0.5-0.2L564,95.5L558.5,140.7z"/>
					<path style="&st3;" d="M534.1,72.7c-7.7,0-14-6.3-14-14c0-7.7,6.3-14,14-14s14,6.3,14,14C548,66.4,541.8,72.7,534.1,72.7z
						 M534.1,46.8c-6.6,0-12,5.4-12,12s5.4,12,12,12s12-5.4,12-12S540.7,46.8,534.1,46.8z"/>
				</g>
			</g>
			<g>
				<path style="&st3;" d="M572.2,152.9h-6.8v-2h4.8V85.2c0-10.9-6.7-18.5-16.3-18.5h-1.6v-2h1.6c10.6,0,18.3,8.6,18.3,20.5V152.9z"
					/>
				<rect x="528.3" y="150.9" style="&st3;" width="12.2" height="2"/>
				<path style="&st3;" d="M504,152.9h-9V82.7c0-10,8.1-18.1,18.1-18.1h1.7v2h-1.7c-8.9,0-16.1,7.2-16.1,16.1v68.1h7V152.9z"/>
				<path style="&st3;" d="M507.1,174.9h-10.6c-3.9,0-7.1-3.2-7.1-7.1V158c0-3.9,3.2-7.1,7.1-7.1h7.5v2h-7.5c-2.8,0-5.1,2.3-5.1,5.1
					v9.8c0,2.8,2.3,5.1,5.1,5.1h10.6V174.9z"/>
				<rect x="527" y="172.9" style="&st3;" width="15.2" height="2"/>
				<path style="&st3;" d="M570.8,174.9h-9.1v-2h9.1c2.8,0,5.1-2.3,5.1-5.1V158c0-2.8-2.3-5.1-5.1-5.1h-5.4v-2h5.4
					c3.9,0,7.1,3.2,7.1,7.1v9.8C577.9,171.7,574.7,174.9,570.8,174.9z"/>
				<rect x="527" y="150.9" style="&st3;" width="15.2" height="2"/>
				<path style="&st3;" d="M524.3,204.1h-10.4l-8.9-64.5h19.2V204.1z M515.6,202.1h6.6v-60.5h-14.9L515.6,202.1z"/>
				<path style="&st3;" d="M524.3,204.1h-10.4l-8.9-64.5h19.2V204.1z M515.6,202.1h6.6v-60.5h-14.9L515.6,202.1z"/>
				<path style="&st3;" d="M554.8,204.1h-10.4v-64.5h19.2L554.8,204.1z M546.4,202.1h6.6l8.3-60.5h-14.9V202.1z"/>
			</g>
		</g>
		<g>
			<path style="&st3;" d="M481,153.3h-6.8v-2h4.8V85.6c0-10.9-6.7-18.5-16.3-18.5h-40.8c-8.9,0-16.1,7.2-16.1,16.1v68.1h7v2h-9V83.1
				c0-10,8.1-18.1,18.1-18.1h40.8c10.6,0,18.3,8.6,18.3,20.5V153.3z"/>
			<path style="&st3;" d="M479.5,175.3h-74.3c-3.9,0-7.1-3.2-7.1-7.1v-9.8c0-3.9,3.2-7.1,7.1-7.1h74.3c3.9,0,7.1,3.2,7.1,7.1v9.8
				C486.7,172.1,483.5,175.3,479.5,175.3z M405.3,153.3c-2.8,0-5.1,2.3-5.1,5.1v9.8c0,2.8,2.3,5.1,5.1,5.1h74.3
				c2.8,0,5.1-2.3,5.1-5.1v-9.8c0-2.8-2.3-5.1-5.1-5.1H405.3z"/>
		</g>
		<g>
			<path style="&st3;" d="M662.9,153.3h-6.8v-2h4.8V85.6c0-10.9-6.7-18.5-16.3-18.5h-40.8c-8.9,0-16.1,7.2-16.1,16.1v68.1h7v2h-9
				V83.1c0-10,8.1-18.1,18.1-18.1h40.8c10.6,0,18.3,8.6,18.3,20.5V153.3z"/>
			<path style="&st3;" d="M661.5,175.3h-74.3c-3.9,0-7.1-3.2-7.1-7.1v-9.8c0-3.9,3.2-7.1,7.1-7.1h74.3c3.9,0,7.1,3.2,7.1,7.1v9.8
				C668.6,172.1,665.4,175.3,661.5,175.3z M587.2,153.3c-2.8,0-5.1,2.3-5.1,5.1v9.8c0,2.8,2.3,5.1,5.1,5.1h74.3
				c2.8,0,5.1-2.3,5.1-5.1v-9.8c0-2.8-2.3-5.1-5.1-5.1H587.2z"/>
		</g>
	</g>
	<g>
		<circle style="&st2;" cx="270.9" cy="124.5" r="5"/>
		<circle style="&st2;" cx="300.9" cy="124.5" r="5"/>
		<circle style="&st2;" cx="330.9" cy="124.5" r="5"/>
		<circle style="&st2;" cx="360.9" cy="124.5" r="5"/>
	</g>
</g>
</svg>
