<?xml version="1.0" encoding="utf-8"?>
<!-- Generator: Adobe Illustrator 22.1.0, SVG Export Plug-In . SVG Version: 6.00 Build 0)  -->
<!DOCTYPE svg PUBLIC "-//W3C//DTD SVG 1.1//EN" "http://www.w3.org/Graphics/SVG/1.1/DTD/svg11.dtd" [
	<!ENTITY st0 "fill:#0071D0;">
]>
<svg version="1.1" id="レイヤー_1" xmlns="http://www.w3.org/2000/svg" xmlns:xlink="http://www.w3.org/1999/xlink" x="0px"
	 y="0px" viewBox="0 0 160 160" style="enable-background:new 0 0 160 160;" xml:space="preserve">
<g>
	<path style="&st0;" d="M80,4c41.9,0,76,34.1,76,76s-34.1,76-76,76S4,121.9,4,80S38.1,4,80,4 M80,0C35.8,0,0,35.8,0,80
		s35.8,80,80,80s80-35.8,80-80S124.2,0,80,0L80,0z"/>
	<g>
		<path style="&st0;" d="M51.6,47.9c-0.3,0.5-0.4,0.7-0.7,1.5c-1.6,3.7-2.3,5.1-3.5,7c2.1,1.7,3.6,3.2,5.5,5.2L51.5,63
			c-1.3-1.6-2.8-3.2-5.2-5.2c-2.5,3.5-5.4,6-9.6,8.4c-0.4-0.7-0.6-0.9-1.2-1.4c3.8-1.9,6.9-4.5,9.6-8c-2.2-1.8-4.4-3.2-6.5-4.3
			l1.2-1.3c2.4,1.4,3.6,2.2,6.2,4.2c1.1-1.8,2-3.5,2.8-5.6c0.6-1.5,0.7-1.8,0.8-2.5L51.6,47.9z"/>
		<path style="&st0;" d="M64.6,47.2c-0.1,0.6-0.1,0.9-0.1,2v6.5c0,1.2,0,1.4,0.1,2h-2c0.1-0.6,0.1-1.1,0.1-2v-6.4c0-1,0-1.4-0.1-2
			H64.6z M75.2,47.2c-0.1,0.6-0.1,0.9-0.1,2.1v2.8c0,3.8-0.2,5.9-0.6,7.3c-0.7,2.3-2.2,4-4.6,5.3c-1.2,0.7-2.3,1.1-4.4,1.7
			c-0.3-0.7-0.4-0.9-1-1.7c2.2-0.5,3.3-0.9,4.6-1.6c2.2-1.3,3.4-2.8,3.8-5.1c0.3-1.4,0.3-2.5,0.3-6.1v-2.7c0-1.2,0-1.6-0.1-2.1H75.2
			z"/>
		<path style="&st0;" d="M86.9,52.6c1,1.7,1.5,2.8,2.4,5.3l-1.6,0.6c-0.6-2.1-1.2-3.7-2.3-5.4L86.9,52.6z M100.5,52.4
			c-0.1,0.4-0.1,0.4-0.5,1.9c-0.4,1.7-1.2,3.9-2.1,5.4c-1.7,2.9-4.2,5.1-7.9,6.9c-0.4-0.6-0.6-0.8-1.1-1.3c3.7-1.7,6-3.5,7.6-6.3
			c0.9-1.5,1.6-3.3,2-5.2c0.2-0.8,0.3-1.3,0.3-1.6v-0.1c0-0.1,0-0.1,0-0.1L100.5,52.4z M91.8,51.6c1.3,2.3,1.7,3.2,2.3,5.2l-1.6,0.6
			c-0.4-1.7-1.2-3.5-2.2-5.3L91.8,51.6z"/>
		<path style="&st0;" d="M112,66.5c0.1-0.6,0.1-1.2,0.1-2.5V49.1c0-1.3,0-1.8-0.1-2.4h2.1c-0.1,0.6-0.1,1.1-0.1,2.5v4.5
			c3.7,1.3,6.5,2.6,10.7,5.1l-1,1.8c-2.3-1.6-5.6-3.4-9-4.8c-0.4-0.1-0.5-0.2-0.7-0.4l0,0c0.1,0.5,0.1,0.8,0.1,1.4V64
			c0,1.3,0,1.9,0.1,2.5H112z"/>
		<path style="&st0;" d="M75.4,113.2c-2.5,0-3,0-4.1,0.2c0.2-1.8,0.4-2.9,0.8-4.1c0.9-2.3,2.3-4.4,4.4-6.3c1.1-1,2.1-1.7,5.3-3.9
			c2.9-2,3.8-3.1,3.8-4.7c0-2.2-1.7-3.5-4.4-3.5c-1.9,0-3.3,0.6-4.1,1.9c-0.5,0.8-0.8,1.5-1,2.9l-4.6-0.5c0.4-2.4,1-3.7,2.2-5.1
			c1.6-1.9,4.1-2.8,7.3-2.8c5.6,0,9.1,2.7,9.1,7.1c0,2.1-0.7,3.6-2.3,5.1c-0.9,0.8-1.2,1.1-5.4,3.9c-1.4,1-3,2.3-3.8,3.2
			c-1,1-1.3,1.7-1.8,2.9h9c2,0,3.6-0.1,4.7-0.3v4.2c-1.5-0.1-2.8-0.2-4.8-0.2H75.4z"/>
	</g>
</g>
</svg>
