<?xml version="1.0" encoding="utf-8"?>
<!-- Generator: Adobe Illustrator 22.1.0, SVG Export Plug-In . SVG Version: 6.00 Build 0)  -->
<!DOCTYPE svg PUBLIC "-//W3C//DTD SVG 1.1//EN" "http://www.w3.org/Graphics/SVG/1.1/DTD/svg11.dtd" [
	<!ENTITY st0 "fill:#FFFFFF;">
	<!ENTITY st1 "fill:#0071D0;">
	<!ENTITY st2 "fill:#717272;">
]>
<svg version="1.1" id="レイヤー_1" xmlns="http://www.w3.org/2000/svg" xmlns:xlink="http://www.w3.org/1999/xlink" x="0px"
	 y="0px" viewBox="0 0 670 1045.1" style="enable-background:new 0 0 670 1045.1;" xml:space="preserve">
<g>
	<g>
		<path style="&st0;" d="M666,860H4c-2.2,0-4-1.8-4-4V744c0-2.2,1.8-4,4-4h662c2.2,0,4,1.8,4,4v112C670,858.2,668.2,860,666,860z"/>
		<g>
			<path style="&st1;" d="M42.7,801.2c0.1,0.9,0.2,1.3,0.6,1.8c0.6,0.8,1.6,1.2,2.9,1.2c2,0,3.2-0.9,3.2-2.4c0-0.8-0.4-1.5-1-1.8
				c-0.6-0.3-0.7-0.3-3.5-1c-1.5-0.3-2.3-0.7-3-1.2c-1-0.8-1.5-1.9-1.5-3.2c0-2.8,2.2-4.6,5.7-4.6c2.3,0,4,0.7,5,2
				c0.5,0.7,0.7,1.3,1,2.3l-2.9,0.3c-0.1-0.7-0.3-1-0.6-1.4c-0.5-0.6-1.4-1-2.5-1c-1.7,0-2.9,0.9-2.9,2.2c0,0.8,0.4,1.4,1.4,1.8
				c0.4,0.2,0.6,0.2,2.8,0.7c1.6,0.3,2.5,0.7,3.3,1.2c1.1,0.8,1.7,1.9,1.7,3.4c0,1.4-0.4,2.6-1.3,3.4c-1.1,1-2.6,1.5-4.8,1.5
				c-1.6,0-3.2-0.4-4.2-1c-0.8-0.5-1.4-1.3-1.8-2.3c-0.2-0.5-0.3-0.8-0.4-1.7L42.7,801.2z"/>
			<path style="&st1;" d="M58.7,791.6c-0.1,0.7-0.1,1.6-0.1,2.5v0.6h0.8c0.9,0,1.4,0,2-0.1v2.4c-0.7-0.1-1-0.1-2-0.1h-0.9v6.2
				c0,1,0.4,1.3,1.3,1.3c0.5,0,0.8-0.1,1.5-0.4l0.4,2.1c-0.9,0.3-1.5,0.4-2.5,0.4c-2.3,0-3.2-0.8-3.2-2.9v-6.7h-0.8
				c-0.7,0-1.1,0-1.8,0.1v-2.4c0.6,0.1,1,0.1,1.8,0.1h0.7v-0.6c0-0.9-0.1-1.7-0.1-2.5H58.7z"/>
			<path style="&st1;" d="M65.2,801.1c0.1,1.1,0.3,1.7,0.7,2.2c0.6,0.7,1.5,1.1,2.5,1.1c1,0,1.8-0.4,2.4-1c0.2-0.3,0.4-0.5,0.6-1
				l2.4,0.8c-0.5,1-0.7,1.3-1.2,1.8c-1,1-2.4,1.5-4.1,1.5c-3.5,0-5.8-2.4-5.8-6.1c0-3.7,2.2-6.1,5.6-6.1c2.3,0,4.2,1.2,5,3.2
				c0.4,1,0.5,1.7,0.6,3c0,0,0,0.1,0,0.6H65.2z M71.3,799.1c-0.1-0.9-0.4-1.4-0.9-1.9c-0.5-0.5-1.2-0.8-2.2-0.8c-1.6,0-2.7,1-3,2.7
				H71.3z"/>
			<path style="&st1;" d="M78.5,795.7c0,0.2,0,0.4,0,0.7c1.1-1.4,2.3-2,4.1-2c1.6,0,2.9,0.5,3.8,1.4c1.1,1.1,1.6,2.6,1.6,4.6
				c0,3.7-2,5.9-5.4,5.9c-1.8,0-3.1-0.6-4-1.9c0,0.2,0,0.2,0,0.6c0,0.1,0,0.5,0,0.9v1.5c0,1.2,0,1.8,0.1,2.7h-2.8
				c0.1-0.9,0.1-1.6,0.1-2.6v-10.1c0-1.2,0-1.8-0.1-2.7h2.7V795.7z M82.1,796.6c-2,0-3.5,1.6-3.5,3.8c0,2.3,1.5,3.9,3.6,3.9
				c2,0,3.2-1.5,3.2-3.8S84.1,796.6,82.1,796.6z"/>
			<path style="&st1;" d="M99.4,802.1c0.2,0.6,0.3,0.8,0.6,1.2c0.6,0.7,1.4,1,2.5,1c2,0,3.3-1.3,3.3-3.3c0-2-1.2-3.2-3.1-3.2
				c-1,0-1.9,0.3-2.5,0.9c-0.3,0.3-0.4,0.5-0.6,0.9l-2.5-0.2c0.2-1.4,0.2-1.5,0.3-2.1l0.5-5c0-0.4,0.1-1,0.1-2
				c0.6,0,1.1,0.1,2.1,0.1h4.9c1.4,0,1.9,0,2.8-0.2v2.5c-0.9-0.1-1.7-0.2-2.8-0.2h-4.7l-0.3,3.5c0,0.2-0.1,0.4-0.1,0.8
				c1-0.8,2-1.2,3.4-1.2c1.6,0,2.9,0.5,3.9,1.5c1,1,1.4,2.2,1.4,3.8c0,3.5-2.3,5.7-6,5.7c-2,0-3.5-0.6-4.6-1.7
				c-0.5-0.6-0.8-1.1-1.3-2.2L99.4,802.1z"/>
		</g>
		<g>
			<path d="M292.3,808.3c-0.9,3-1.6,4.4-3,6.5c-1.1-1-1.7-1.4-2.6-1.9c1.5-2,2.2-3.4,2.9-6L292.3,808.3z M290.1,806.9
				c-1.1,0-1.7,0-2.3,0.1c0.1-0.9,0.1-2.2,0.1-3.4v-13.9c0-1.4,0-2.1-0.1-3.2c0.7,0.1,1.5,0.1,2.7,0.1h3.8c1.2,0,1.9,0,2.5-0.1
				c-0.1,0.7-0.1,1.3-0.1,2.9v14.6c0,1.9,0,2.3,0.1,3c-0.7-0.1-1.2-0.1-2.2-0.1H290.1z M290.8,792.4h3v-2.9h-3V792.4z M290.8,798h3
				v-2.8h-3V798z M290.8,803.9h3v-3.1h-3V803.9z M295.2,807c0.7,2.2,1.4,3.6,2.7,5.3c-0.8,0.4-1.3,0.7-2.5,1.8
				c-1.2-2-1.8-3.4-2.7-5.8L295.2,807z M300.1,798c-1.2,0-1.8,0-2.6,0.2v-2.8c0.8,0.1,1.4,0.2,2.6,0.2h1.5v-1.5h-0.9
				c-0.9,0-1.7,0-2.2,0.1v-2.6c0.7,0.1,0.7,0.1,2.2,0.1h0.9v-1.4h-1.4c-1,0-1.6,0-2.4,0.1v-2.7c0.7,0.1,1.3,0.2,2.5,0.2h1.3
				c0-1.2,0-1.6-0.2-2.2h3.5c-0.2,0.6-0.2,1-0.2,2.2h3.7c0-1.4,0-1.6-0.2-2.2h3.5c-0.1,0.6-0.2,1.2-0.2,2.2h1.9c1.1,0,1.7,0,2.3-0.2
				v2.7c-0.8-0.1-1.3-0.1-2.3-0.1h-2v1.4h1.4c0.9,0,1.6,0,2.2-0.1v2.6c-0.6-0.1-1.3-0.1-2.2-0.1h-1.3v1.5h2.1c1.3,0,1.9,0,2.6-0.2
				v2.8c-0.7-0.1-1.3-0.2-2.6-0.2H308v1.4h3.7c1.3,0,2.1,0,3-0.1c-0.1,0.4-0.1,1.7-0.1,2.7v5.1c0.8,0,1.2-0.1,1.7-0.2v2.8
				c-0.6-0.1-0.8-0.1-1.7-0.1v2.2c0,2.4-0.7,3-3.6,3c-0.9,0-1.7,0-2.9-0.1c-0.2-1.6-0.2-1.9-0.5-2.8c1.1,0.2,2,0.2,2.7,0.2
				c1.1,0,1.3-0.1,1.3-0.7v-1.7h-9.5v1.4c0,2.2,0,2.8,0.1,3.9h-3.4c0.1-1.2,0.2-1.9,0.2-3.9v-1.4c-0.7,0-1.2,0-1.8,0.2v-2.9
				c0.6,0.1,1,0.1,1.8,0.2v-4.8c0-1.3,0-2-0.1-2.9c0.8,0.1,1.6,0.1,3,0.1h3.2V798H300.1z M305,801.8h-3.1v1.5h3.1V801.8z M305,805.5
				h-3.1v1.5h3.1V805.5z M304.7,791.6h3.7v-1.4h-3.7V791.6z M304.7,795.4h3.7v-1.5h-3.7V795.4z M311.5,803.3v-1.5H308v1.5H311.5z
				 M311.5,807v-1.5H308v1.5H311.5z"/>
			<path d="M327.5,790.3c-0.9,0-1.8,0.1-3.1,0.2v-3.8c0.9,0.1,1.6,0.2,3,0.2h5.1c1.3,0,2.2,0,2.9-0.2c-0.1,0.9-0.1,1.2-0.1,2
				c0,4.5,1.2,8.8,3.4,12.7c1.3,2.2,2.9,4.2,5.1,6.1c1.6,1.5,2.6,2.2,4.7,3.5c-1.2,1.2-1.8,2-2.7,3.6c-3.2-2.2-5.6-4.6-7.8-7.5
				c-1.2-1.6-1.9-2.8-2.8-4.7c-0.8-1.8-1.1-2.6-1.6-4.5c-1.2,4.1-2.4,6.8-4.6,9.7c-2,2.7-4.4,4.9-7.9,7.2c-0.7-1.4-1.4-2.4-2.6-3.4
				c2.7-1.6,4.3-2.8,6.4-5c2.5-2.6,4.4-6,5.5-9.5c0.6-2.2,0.9-3.9,1.1-6.5H327.5z"/>
			<path d="M375.1,803.9c-0.8,0.8-1.5,1.8-2.1,3c-3.3-2.2-6.1-5.1-7.7-8.1c-0.4,1.2-0.9,2.1-1.5,3c-1.5,2.3-3.2,3.8-6.1,5.7
				c-0.4-0.9-1.2-1.8-2-2.7v6.2c0,2,0,2.9,0.2,3.8h-3.9c0.2-1.1,0.2-2.3,0.2-3.9v-18.2c0-1.3,0-2.2-0.1-3.1c1.2,0.1,2,0.2,3.7,0.2
				h7.8c0-0.7,0-1.2,0-1.7c0-1.3-0.1-2-0.2-2.8h4c-0.1,0.6-0.2,0.9-0.2,1.6c0,0.4,0,0.4-0.1,1.8c0,0.7,0,0.7-0.1,1.2h8.2
				c1.8,0,2.6,0,3.6-0.2c-0.1,0.9-0.1,1.8-0.1,3.1V811c0,1.3-0.1,1.8-0.5,2.3c-0.7,0.9-1.9,1.2-4.9,1.2c-0.9,0-1.8,0-3.1-0.1
				c-0.2-1.6-0.4-2.4-1-3.6c1.6,0.2,2.9,0.4,4.2,0.4c1.6,0,1.7-0.1,1.7-1V803.9z M355.6,804.4c2.6-1.5,4.1-2.9,5.3-4.8
				c1.2-1.8,1.9-3.9,2.3-6.7h-7.6V804.4z M366.7,792.9c-0.1,0.8-0.1,1-0.2,1.5c0.9,2,2.2,3.8,3.6,5.3c1.4,1.4,2.8,2.5,5,3.7v-10.6
				H366.7z"/>
			<path d="M387.7,805.8c-1.2,0.6-1.8,1-3.4,1.8c-0.5-1.3-0.8-2-1.7-3.1c2.8-1.2,5.2-2.4,7.2-3.7c1.4-0.9,2.9-2.1,4.3-3.5
				c0.7-0.7,1.1-1.1,1.6-1.9h3.3c1.3,2,3.5,3.9,6.3,5.6c2.1,1.2,4.4,2.2,7,3.1c-0.8,1.2-1,1.6-1.6,3.4c-1.5-0.7-1.9-0.8-3.6-1.8v6
				c0,1.3,0,2.2,0.2,3.2h-3.6v-1.4h-12.5v1.4h-3.6c0.1-1,0.2-1.9,0.2-3.2V805.8z M395.2,787.2c0-0.8,0-1.3-0.2-2h3.9
				c-0.2,0.7-0.2,1.2-0.2,2v0.4h8.9c1.3,0,2.4,0,3.6-0.1c-0.1,0.7-0.1,1.5-0.1,2.3v2.4c0,1,0,1.6,0.1,2.4h-3.5v-3.7h-20.8v3.7h-3.5
				c0.1-0.8,0.2-1.4,0.2-2.4v-2.4c0-0.8-0.1-1.6-0.1-2.3c1.2,0.1,2.2,0.1,3.5,0.1h8.2V787.2z M395,792.9c-1.7,1.9-2.6,2.8-4.4,4.2
				c-1.6,1.2-2.5,1.8-4.5,2.8c-0.8-1.2-1.2-1.7-2.3-2.7c1.9-0.8,2.8-1.3,4.2-2.1c1.7-1.1,2.6-2,4.3-3.8L395,792.9z M391.1,810.3
				h12.5v-4.1h-12.5V810.3z M402.7,803.1c-2.5-1.8-3.6-2.8-5.3-4.9c-1.7,2-3.6,3.6-5.5,4.9H402.7z M402,791.1
				c3.2,3.1,5.1,4.3,9.1,5.7c-0.8,1.1-1,1.5-1.7,3c-4.5-1.9-6.2-3.1-10-6.9L402,791.1z"/>
			<path d="M424.8,810.2c0,1.3,0,1.9,0.1,2.5H422v-1.4h-2.3v3h-3.2c0.1-1,0.2-2,0.2-3.3v-6.6c0-0.6,0-1.6,0.1-2.5
				c-0.6,1.5-0.9,1.9-1.7,2.9c-0.3-1.8-0.6-2.7-1.2-4c1.6-1.9,2.6-3.9,3.6-6.7c0.5-1.5,0.8-2.7,1-4.6h-0.7c-1.2,0-1.8,0-2.7,0.2
				v-3.5c0.9,0.1,1.9,0.2,3.1,0.2h3.7c1.3,0,2.1-0.1,3.1-0.2v3.4c-0.7-0.1-1.2-0.1-1.9-0.1h-1.2c-0.5,2.7-0.9,4.3-1.9,7h3.1
				c0.8,0,1.3,0,2-0.1c-0.1,0.7-0.1,1.4-0.1,2.4v0.7c2.5-2.2,4.2-4.7,5.7-8.4h-1.9v3.3h-3.2c0.1-0.7,0.1-1.3,0.1-2.1v-2.7
				c0-0.6,0-0.8-0.1-1.6c0.7,0.1,0.9,0.1,2.3,0.1h3.8c0.4-1.3,0.5-2,0.7-3.1l3.6,0.4c-0.1,0.2-0.4,1.1-0.8,2.7h5.8
				c1.2,0,2,0,2.8-0.2c-0.1,0.6-0.1,1.2-0.1,2.4v1.9c0,0.9,0,1.4,0.1,2.1h-3.4v-3.1H434c-0.7,1.7-1.2,2.7-2.2,4.5h3.1
				c0.5-1,1-2.2,1.3-3.5l3.1,0.7c-0.4,1.2-0.7,1.9-1.2,2.8h2.3c1.4,0,1.9,0,2.7-0.1v3.1c-0.8-0.1-1.7-0.1-2.6-0.1h-3v2.3h2.4
				c1.4,0,2,0,2.7-0.1v2.9c-0.9-0.1-1.6-0.1-2.7-0.1h-2.4v2.3h2.4c1.4,0,2,0,2.7-0.1v2.9c-0.9-0.1-1.5-0.1-2.7-0.1h-2.4v2.3h3.1
				c1.5,0,2.2,0,3-0.2v3.2c-1.1-0.1-2-0.2-3.1-0.2h-10v1.4h-3.4c0.1-1.1,0.2-1.9,0.2-3.6v-8c0-1.2,0.1-2,0.1-2.2
				c-0.4,0.6-0.8,1.1-1.4,1.8c-0.3-0.7-0.6-1.2-1.2-2.1V810.2z M419.7,808.2h2.3v-8.5h-2.3V808.2z M434.4,800.8v-2.3h-3.9v2.3H434.4
				z M430.6,805.7h3.9v-2.3h-3.9V805.7z M430.6,810.7h3.9v-2.3h-3.9V810.7z"/>
			<path d="M446.7,790.8c0.7,0.1,1.4,0.2,2.6,0.2h6.1c1.3,0,1.9,0,2.6-0.1v3.3c-0.8-0.1-1.2-0.1-2.4-0.1h-6.3c-1.1,0-1.7,0-2.6,0.1
				V790.8z M447.7,786.3c0.8,0.1,1.3,0.2,2.6,0.2h4.3c1.2,0,1.8,0,2.6-0.2v3.2c-0.9-0.1-1.5-0.1-2.6-0.1h-4.3c-1.1,0-1.8,0-2.6,0.1
				V786.3z M457,812c0,1.2,0,1.9,0.1,2.5h-3v-1.1h-3.2v1.6h-3.2c0.1-1.1,0.2-2.1,0.2-3.1V807c0-1,0-1.6-0.1-2.5
				c0.7,0.1,1.3,0.1,2.5,0.1h4.7c1.2,0,1.7,0,2.2-0.1c-0.1,0.5-0.1,1.1-0.1,2.3v4c1.2-2.3,1.7-4,2-7.4l2.8,0.6
				c-0.5,4-0.9,5.5-2.1,8.8l-2.6-1.5V812z M447.8,795.6c0.6,0.1,1,0.1,2,0.1h5.3c1,0,1.5,0,2-0.1v3c-0.7-0.1-1.1-0.1-2-0.1h-5.3
				c-1,0-1.5,0-2,0.1V795.6z M447.8,800c0.6,0.1,1,0.1,2,0.1h5.2c1.1,0,1.5,0,2-0.1v3c-0.5-0.1-1.1-0.1-2-0.1h-5.2
				c-0.9,0-1.3,0-2,0.1V800z M450.8,810.5h3.3v-3.2h-3.3V810.5z M459.9,791.1c1.8,0.6,2.4,0.8,3.6,1.3c0.3-1,0.4-1.4,0.5-2.6h-2.1
				c-1.7,0-2.5,0-3.4,0.2v-3.4c0.9,0.1,2.2,0.2,3.5,0.2h10.2c1.3,0,2.2,0,3-0.1c-0.1,0.5-0.1,0.5-0.2,2.8c-0.1,3.2-0.5,6.5-0.9,8
				c-0.6,2.5-1.5,3.2-4.1,3.2c-0.9,0-1.6,0-2.5-0.1c-0.2-1.4-0.3-1.9-0.8-3.2l0.2,0.1c-0.8-0.5-1.1-0.7-1.8-1.1
				c-1.5,2.4-3.1,3.9-5.9,5.6c-0.7-1.1-1.2-1.7-2.2-2.6c2.7-1.2,4.1-2.5,5.4-4.4c-1.3-0.6-2-0.8-3.8-1.5L459.9,791.1z M465.4,810.5
				c0,0.7,0.2,0.8,1.4,0.8c1.8,0,2.2-0.1,2.5-0.6c0.2-0.4,0.3-1.7,0.4-3.5c1.1,0.5,1.8,0.8,3,1c-0.4,5.5-0.9,6.1-5.5,6.1
				c-3.9,0-4.7-0.4-4.7-2.4v-6.6c0-0.8-0.1-1.5-0.2-2.4h3.4c-0.1,0.6-0.2,1.1-0.2,2V810.5z M465.7,799.1c2.9,2.3,3,2.4,5,4.4
				l-2.4,2.1c-1.4-2-2.7-3.2-4.8-4.7L465.7,799.1z M467.2,789.8c-0.3,1.8-0.4,2.5-0.9,3.9c0.9,0.5,1.3,0.7,2.7,1.4l-1.4,2.4
				c0.6,0.1,1.2,0.1,1.8,0.1c1,0,1.3-0.3,1.6-1.4c0.3-1.2,0.5-3.1,0.6-6.4H467.2z M473.5,803.2c1.5,2.4,2.4,4.3,3.5,7.5l-2.7,1.7
				c-1-3.6-1.7-5-3.4-7.7L473.5,803.2z"/>
		</g>
		<g>
			<g>
				<path style="&st2;" d="M204.3,818.2c-3.5,0-7-1.1-9.9-3.5c-3.3-2.6-5.4-6.4-5.8-10.6c-0.5-4.2,0.7-8.3,3.4-11.6
					c2.6-3.3,6.4-5.4,10.6-5.8c4.2-0.5,8.3,0.7,11.6,3.4l0,0c6.8,5.5,7.9,15.4,2.4,22.2C213.5,816.2,208.9,818.2,204.3,818.2z
					 M204.3,789c-0.5,0-1,0-1.5,0.1c-3.6,0.4-6.8,2.2-9,5c-4.6,5.8-3.7,14.3,2.1,18.9c5.8,4.6,14.3,3.7,18.9-2.1
					c4.6-5.8,3.7-14.3-2.1-18.9l0,0C210.3,790,207.4,789,204.3,789z"/>
				<path style="&st2;" d="M196.9,796.5L195,795c2-2.5,4.8-4,8-4.4c3.2-0.4,6.3,0.6,8.8,2.5l-1.5,1.8
					C206.2,791.7,200.2,792.3,196.9,796.5z"/>
				
					<rect x="220" y="808.4" transform="matrix(0.6258 -0.78 0.78 0.6258 -553.9756 479.1037)" style="&st2;" width="4.7" height="16.9"/>
			</g>
			<path style="&st2;" d="M224.2,833.2h-63.8v-66.4h63.8V833.2z M162.7,830.9h59.1v-61.7h-59.1V830.9z"/>
		</g>
	</g>
	<g>
		<path style="&st0;" d="M666,675H4c-2.2,0-4-1.8-4-4V559c0-2.2,1.8-4,4-4h662c2.2,0,4,1.8,4,4v112C670,673.2,668.2,675,666,675z"/>
		<g>
			<path style="&st1;" d="M42.7,616.2c0.1,0.9,0.2,1.3,0.6,1.8c0.6,0.8,1.6,1.2,2.9,1.2c2,0,3.2-0.9,3.2-2.4c0-0.8-0.4-1.5-1-1.8
				c-0.6-0.3-0.7-0.3-3.5-1c-1.5-0.3-2.3-0.7-3-1.2c-1-0.8-1.5-1.9-1.5-3.2c0-2.8,2.2-4.6,5.7-4.6c2.3,0,4,0.7,5,2
				c0.5,0.7,0.7,1.3,1,2.3l-2.9,0.3c-0.1-0.7-0.3-1-0.6-1.4c-0.5-0.6-1.4-1-2.5-1c-1.7,0-2.9,0.9-2.9,2.2c0,0.8,0.4,1.4,1.4,1.8
				c0.4,0.2,0.6,0.2,2.8,0.7c1.6,0.3,2.5,0.7,3.3,1.2c1.1,0.8,1.7,1.9,1.7,3.4c0,1.4-0.4,2.6-1.3,3.4c-1.1,1-2.6,1.5-4.8,1.5
				c-1.6,0-3.2-0.4-4.2-1c-0.8-0.5-1.4-1.3-1.8-2.3c-0.2-0.5-0.3-0.8-0.4-1.7L42.7,616.2z"/>
			<path style="&st1;" d="M58.7,606.6c-0.1,0.7-0.1,1.6-0.1,2.5v0.6h0.8c0.9,0,1.4,0,2-0.1v2.4c-0.7-0.1-1-0.1-2-0.1h-0.9v6.2
				c0,1,0.4,1.3,1.3,1.3c0.5,0,0.8-0.1,1.5-0.4l0.4,2.1c-0.9,0.3-1.5,0.4-2.5,0.4c-2.3,0-3.2-0.8-3.2-2.9v-6.7h-0.8
				c-0.7,0-1.1,0-1.8,0.1v-2.4c0.6,0.1,1,0.1,1.8,0.1h0.7v-0.6c0-0.9-0.1-1.7-0.1-2.5H58.7z"/>
			<path style="&st1;" d="M65.2,616.1c0.1,1.1,0.3,1.7,0.7,2.2c0.6,0.7,1.5,1.1,2.5,1.1c1,0,1.8-0.4,2.4-1c0.2-0.3,0.4-0.5,0.6-1
				l2.4,0.8c-0.5,1-0.7,1.3-1.2,1.8c-1,1-2.4,1.5-4.1,1.5c-3.5,0-5.8-2.4-5.8-6.1c0-3.7,2.2-6.1,5.6-6.1c2.3,0,4.2,1.2,5,3.2
				c0.4,1,0.5,1.7,0.6,3c0,0,0,0.1,0,0.6H65.2z M71.3,614.1c-0.1-0.9-0.4-1.4-0.9-1.9c-0.5-0.5-1.2-0.8-2.2-0.8c-1.6,0-2.7,1-3,2.7
				H71.3z"/>
			<path style="&st1;" d="M78.5,610.7c0,0.2,0,0.4,0,0.7c1.1-1.4,2.3-2,4.1-2c1.6,0,2.9,0.5,3.8,1.4c1.1,1.1,1.6,2.6,1.6,4.6
				c0,3.7-2,5.9-5.4,5.9c-1.8,0-3.1-0.6-4-1.9c0,0.2,0,0.2,0,0.6c0,0.1,0,0.5,0,0.9v1.5c0,1.2,0,1.8,0.1,2.7h-2.8
				c0.1-0.9,0.1-1.6,0.1-2.6v-10.1c0-1.2,0-1.8-0.1-2.7h2.7V610.7z M82.1,611.5c-2,0-3.5,1.6-3.5,3.8c0,2.3,1.5,3.9,3.6,3.9
				c2,0,3.2-1.5,3.2-3.8S84.1,611.5,82.1,611.5z"/>
			<path style="&st1;" d="M109.2,617.6c-0.7-0.1-1.2-0.1-2-0.1h-0.7v1.4c0,1,0,1.5,0.2,2.3h-2.8c0.1-0.7,0.2-1.3,0.2-2.3v-1.4h-5.5
				c-1.2,0-1.8,0-2.5,0.1v-2.5c0.7-0.7,0.9-1,1.6-1.8l4.7-5.8c0.9-1.1,1.2-1.5,1.7-2.2h2.7c-0.1,1.2-0.1,1.9-0.1,3.4v6.6h0.7
				c0.8,0,1.3,0,2-0.1V617.6z M104,611.1c0-0.9,0-1.6,0.1-2.4c-0.4,0.6-0.6,0.9-1.4,1.8l-3.8,4.8h5.1V611.1z"/>
		</g>
		<g>
			<path d="M292.3,623.2c-0.9,3-1.6,4.4-3,6.5c-1.1-1-1.7-1.4-2.6-1.9c1.5-2,2.2-3.4,2.9-6L292.3,623.2z M290.1,621.7
				c-1.1,0-1.7,0-2.3,0.1c0.1-0.9,0.1-2.2,0.1-3.4v-13.9c0-1.4,0-2.1-0.1-3.2c0.7,0.1,1.5,0.1,2.7,0.1h3.8c1.2,0,1.9,0,2.5-0.1
				c-0.1,0.7-0.1,1.3-0.1,2.9v14.6c0,1.9,0,2.3,0.1,3c-0.7-0.1-1.2-0.1-2.2-0.1H290.1z M290.8,607.3h3v-2.9h-3V607.3z M290.8,612.8
				h3V610h-3V612.8z M290.8,618.8h3v-3.1h-3V618.8z M295.2,621.9c0.7,2.2,1.4,3.6,2.7,5.3c-0.8,0.4-1.3,0.7-2.5,1.8
				c-1.2-2-1.8-3.4-2.7-5.8L295.2,621.9z M300.1,612.8c-1.2,0-1.8,0-2.6,0.2v-2.8c0.8,0.1,1.4,0.2,2.6,0.2h1.5v-1.5h-0.9
				c-0.9,0-1.7,0-2.2,0.1v-2.6c0.7,0.1,0.7,0.1,2.2,0.1h0.9v-1.4h-1.4c-1,0-1.6,0-2.4,0.1v-2.7c0.7,0.1,1.3,0.2,2.5,0.2h1.3
				c0-1.2,0-1.6-0.2-2.2h3.5c-0.2,0.6-0.2,1-0.2,2.2h3.7c0-1.4,0-1.6-0.2-2.2h3.5c-0.1,0.6-0.2,1.2-0.2,2.2h1.9c1.1,0,1.7,0,2.3-0.2
				v2.7c-0.8-0.1-1.3-0.1-2.3-0.1h-2v1.4h1.4c0.9,0,1.6,0,2.2-0.1v2.6c-0.6-0.1-1.3-0.1-2.2-0.1h-1.3v1.5h2.1c1.3,0,1.9,0,2.6-0.2
				v2.8c-0.7-0.1-1.3-0.2-2.6-0.2H308v1.4h3.7c1.3,0,2.1,0,3-0.1c-0.1,0.4-0.1,1.7-0.1,2.7v5.1c0.8,0,1.2-0.1,1.7-0.2v2.8
				c-0.6-0.1-0.8-0.1-1.7-0.1v2.2c0,2.4-0.7,3-3.6,3c-0.9,0-1.7,0-2.9-0.1c-0.2-1.6-0.2-1.9-0.5-2.8c1.1,0.2,2,0.2,2.7,0.2
				c1.1,0,1.3-0.1,1.3-0.7v-1.7h-9.5v1.4c0,2.2,0,2.8,0.1,3.9h-3.4c0.1-1.2,0.2-1.9,0.2-3.9v-1.4c-0.7,0-1.2,0-1.8,0.2v-2.9
				c0.6,0.1,1,0.1,1.8,0.2v-4.8c0-1.3,0-2-0.1-2.9c0.8,0.1,1.6,0.1,3,0.1h3.2v-1.4H300.1z M305,616.6h-3.1v1.5h3.1V616.6z
				 M305,620.4h-3.1v1.5h3.1V620.4z M304.7,606.5h3.7v-1.4h-3.7V606.5z M304.7,610.3h3.7v-1.5h-3.7V610.3z M311.5,618.2v-1.5H308
				v1.5H311.5z M311.5,621.9v-1.5H308v1.5H311.5z"/>
			<path d="M327.5,605.2c-0.9,0-1.8,0.1-3.1,0.2v-3.8c0.9,0.1,1.6,0.2,3,0.2h5.1c1.3,0,2.2,0,2.9-0.2c-0.1,0.9-0.1,1.2-0.1,2
				c0,4.5,1.2,8.8,3.4,12.7c1.3,2.2,2.9,4.2,5.1,6.1c1.6,1.5,2.6,2.2,4.7,3.5c-1.2,1.2-1.8,2-2.7,3.6c-3.2-2.2-5.6-4.6-7.8-7.5
				c-1.2-1.6-1.9-2.8-2.8-4.7c-0.8-1.8-1.1-2.6-1.6-4.5c-1.2,4.1-2.4,6.8-4.6,9.7c-2,2.7-4.4,4.9-7.9,7.2c-0.7-1.4-1.4-2.4-2.6-3.4
				c2.7-1.6,4.3-2.8,6.4-5c2.5-2.6,4.4-6,5.5-9.5c0.6-2.2,0.9-3.9,1.1-6.5H327.5z"/>
			<path d="M355,612.5c-1.6,0-2.7,0.1-3.8,0.2v-3.5c0.9,0.1,2.1,0.2,3.9,0.2h7.3v-2.8h-4.8c-1.7,0-2.7,0-3.6,0.1v-3.4
				c0.8,0.1,2.1,0.2,3.8,0.2h4.7V603c0-1.2-0.1-2-0.2-2.8h3.9c-0.2,0.8-0.2,1.5-0.2,2.8v0.5h2.3c1.6,0,2.7-0.1,3.6-0.2v2.8
				c1.7-1.8,3-3.6,3.7-4.9l3.2,2.1c-0.2,0.2-0.7,0.8-1.4,1.6c-1.3,1.5-2.7,2.9-4.4,4.4h3.3c1.7,0,2.6-0.1,3.6-0.2v3.5
				c-1.1-0.1-2.3-0.2-4-0.2h-6.9c-1.2,0.9-2,1.4-3.5,2.3c0.7,0,1.8,0,2.6,0h4.7c1.5,0,2.4,0,3.4-0.1c-0.1,0.9-0.1,1.7-0.1,3.5v7.9
				c0,1.7,0.1,2.8,0.2,3.6h-3.7v-1.4h-11.6v1.4h-3.7c0.1-1.1,0.2-2.2,0.2-3.6v-5c0-0.5,0-1.2,0-1.8c-2,1-2.6,1.2-5.1,2.2
				c-0.5-1.3-1-2-1.9-3.2c4.9-1.4,9-3.3,13.2-5.9H355z M360.9,620h11.6v-2.4h-11.6V620z M360.9,625.3h11.6v-2.5h-11.6V625.3z
				 M368.1,609.3c1.2-0.9,2-1.7,3.1-2.7c-0.9-0.1-1.4-0.1-2.7-0.1h-2.6v2.8H368.1z"/>
			<path d="M382.2,614.8c0.8-2.8,1-4.8,1.1-8.4l2.5,0.6c-0.1,3.5-0.4,6.1-1,8.9L382.2,614.8z M389.8,625.8c0,1.7,0.1,2.8,0.2,4h-3.7
				c0.2-1.1,0.2-2.5,0.2-4.1v-22.1c0-1.4-0.1-2.3-0.2-3.4h3.7c-0.2,1.1-0.2,1.9-0.2,3.4v2.7l1.9-0.7c0.8,1.6,0.9,1.8,1.6,4.2
				l-0.9,0.4c0.8,0.1,1.4,0.1,2.7,0.1h4.7v-1.3h-3.6c-1.2,0-1.8,0-2.7,0.1v-2.8c0.8,0.1,1.4,0.1,2.7,0.1h3.6v-1.2h-4.1
				c-1.7,0-2.3,0-3.2,0.2v-3.1c0.9,0.2,1.6,0.2,3.3,0.2h4c0-1,0-1.4-0.2-2.2h3.7c-0.2,0.8-0.2,1.2-0.2,2.2h4.9c1.8,0,2.4,0,3.3-0.2
				v3.1c-0.9-0.1-1.7-0.2-3.3-0.2h-5v1.2h4.5c1.4,0,1.9,0,2.7-0.1v2.8c-0.8-0.1-1.4-0.1-2.7-0.1h-4.4v1.3h5.6c1.5,0,2.3,0,3.2-0.2
				v3.1c-1-0.1-1.9-0.2-3.2-0.2h-13.6c-1.6,0-2.3,0-3.2,0.2v-2.8l-1,0.4c-0.3-1.3-0.6-2.3-1.1-3.6V625.8z M396.7,626.1
				c0,1.6,0.1,2.7,0.2,3.6h-3.7c0.1-1.1,0.2-1.8,0.2-3.6v-9.2c0-1.2,0-1.8-0.1-2.7c0.8,0.1,1.4,0.1,2.6,0.1h11.3
				c1.4,0,2.2,0,2.9-0.1c-0.1,0.8-0.1,1.7-0.1,3.3v9c0,2.4-0.9,3.1-4.1,3.1c-0.7,0-1.3,0-2.9-0.1c-0.2-1.4-0.3-1.9-0.7-3.1
				c1.3,0.2,2.3,0.3,3.1,0.3c1,0,1.2-0.1,1.2-0.8v-1.1h-9.8V626.1z M406.5,618.2v-1.3h-9.8v1.3H406.5z M406.5,622.1v-1.3h-9.8v1.3
				H406.5z"/>
			<path d="M426.2,608.7c1.3,0,1.9,0,2.8-0.2v3.4c-0.6-0.1-1-0.1-1.8-0.1c-0.4,1.5-0.5,2.1-1.1,3.6h0.4c1.2,0,1.8,0,2.5-0.2v3.4
				c-0.9-0.1-1.5-0.1-2.8-0.1h-2.5v2.6h2.2c1.2,0,1.9,0,2.7-0.1v3.4c-0.8-0.1-1.5-0.1-2.7-0.1h-2.2v2.3c0,1.1,0.1,2.2,0.2,3.3h-3.5
				c0.1-1.1,0.2-2,0.2-3.3v-2.3h-2.3c-1.2,0-1.8,0-2.7,0.1v-3.4c0.8,0.1,1.4,0.1,2.7,0.1h2.3v-2.6h-2.8c-1.2,0-1.9,0-2.8,0.1v-3.4
				c0.8,0.1,1.3,0.2,2.8,0.2h0.4c-0.2-1.3-0.4-2.1-0.8-3.6c-1.1,0-1.6,0-2.3,0.1v-3.4c0.8,0.1,1.5,0.2,2.8,0.2h2.9v-2.5h-2.2
				c-1.2,0-1.8,0-2.7,0.1V603c0.8,0.1,1.4,0.1,2.7,0.1h2.2v-0.6c0-0.9-0.1-2-0.2-2.4h3.5c-0.1,0.7-0.1,1.4-0.1,2.4v0.6h1.9
				c1.3,0,1.9,0,2.7-0.1v3.3c-0.8-0.1-1.5-0.1-2.7-0.1h-1.9v2.5H426.2z M423.2,615.4c0.4-1.1,0.7-2.2,1-3.6h-3.8
				c0.4,1.5,0.6,2.1,0.8,3.6H423.2z M443.5,613.1c-0.2,0.4-0.2,0.6-0.4,1.4c-0.7,2.9-1.6,5.8-2.7,7.9c1.2,1.5,2.3,2.4,4.4,3.7
				c-1,1.5-1.3,2.1-1.9,3.4c-1.9-1.5-2.9-2.5-4.4-4.2c-1.1,1.6-2.2,2.7-3.8,4.1c-0.6-1.1-1.1-1.8-1.8-2.8c0,1.3,0.1,1.9,0.2,3h-3.6
				c0.2-1.3,0.2-2.1,0.2-3.8v-21.4c0-1.2-0.1-2.4-0.2-3.3c0.9,0.1,1.8,0.2,3,0.2h7.9c1.4,0,2.4-0.1,3-0.2c-0.1,0.9-0.1,1.3-0.2,2.1
				c-0.4,5.9-0.8,6.6-4.4,6.6c-0.9,0-1.4,0-2.9-0.2c-0.2-1.4-0.3-2-0.7-3c1.3,0.2,2.6,0.4,3.3,0.4c1,0,1.2-0.3,1.3-2.7h-7v7h6
				c1.5,0,2.4,0,3-0.1L443.5,613.1z M433,626.3c1.5-1.2,2.5-2.2,3.6-3.7c-1.4-2.3-2-4-3-8.1H433V626.3z M436.4,614.5
				c0.5,2.2,1,3.5,1.9,5.1c0.7-1.5,1.1-2.8,1.6-5.1H436.4z"/>
			<path d="M455.5,605.2c-0.9,0-1.8,0.1-3.1,0.2v-3.8c0.9,0.1,1.6,0.2,3,0.2h5.1c1.3,0,2.2,0,2.9-0.2c-0.1,0.9-0.1,1.2-0.1,2
				c0,4.5,1.2,8.8,3.4,12.7c1.3,2.2,2.9,4.2,5.1,6.1c1.6,1.5,2.6,2.2,4.7,3.5c-1.2,1.2-1.8,2-2.7,3.6c-3.2-2.2-5.6-4.6-7.8-7.5
				c-1.2-1.6-1.9-2.8-2.8-4.7c-0.8-1.8-1.1-2.6-1.6-4.5c-1.2,4.1-2.4,6.8-4.6,9.7c-2,2.7-4.4,4.9-7.9,7.2c-0.7-1.4-1.4-2.4-2.6-3.4
				c2.7-1.6,4.3-2.8,6.4-5c2.5-2.6,4.4-6,5.5-9.5c0.6-2.2,0.9-3.9,1.1-6.5H455.5z"/>
			<path d="M501.2,606.6c1.9,0,3,0,4.1-0.2c-0.1,1.2-0.1,1.2-0.2,4.8c-0.1,4.4-0.4,9.8-0.7,11.9c-0.4,2.9-0.9,4.1-1.9,4.8
				c-0.8,0.6-2,0.9-3.8,0.9c-1.5,0-2.9-0.1-4.9-0.4c-0.2-1.6-0.4-2.6-0.9-3.9c2,0.4,3.9,0.6,5.5,0.6c1.5,0,2-0.6,2.3-2.7
				c0.4-2.4,0.7-7.4,0.7-12.5h-8.7c-0.5,4.7-1.4,8-2.9,10.7c-1.9,3.4-4.8,6-9.2,8.5c-0.7-1.3-1.5-2.4-2.7-3.3c4.4-1.9,7.3-4.5,9-8
				c1-2,1.6-4.4,2-7.9h-5.6c-1.6,0-2.9,0.1-4,0.2v-3.8c1.2,0.2,2.2,0.2,4.1,0.2h5.7c0.1-1.3,0.1-1.6,0.1-3.3c0-1.5-0.1-2.5-0.2-3.1
				h4.3c-0.2,0.8-0.2,0.8-0.4,6.4H501.2z"/>
		</g>
		<g>
			<g>
				
					<rect x="216.4" y="598" transform="matrix(0.8632 0.5049 -0.5049 0.8632 340.3138 -27.4726)" style="&st2;" width="8.8" height="32.5"/>
				<polygon style="&st2;" points="207.5,628.3 206,639.6 215.1,632.8 				"/>
			</g>
			<rect x="173.2" y="590.3" style="&st2;" width="49.8" height="1.9"/>
			
				<rect x="193.1" y="583.7" transform="matrix(7.646373e-03 -1 1 7.646373e-03 -411.9286 793.9664)" style="&st2;" width="1.9" height="41.7"/>
			
				<rect x="189.6" y="600.2" transform="matrix(4.617329e-03 -1 1 4.617329e-03 -427.8864 805.2177)" style="&st2;" width="1.9" height="34.7"/>
			<rect x="173.2" y="629.6" style="&st2;" width="29.4" height="1.9"/>
			<rect x="157.9" y="590.3" style="&st2;" width="5.7" height="1.9"/>
			<rect x="157.9" y="603.4" style="&st2;" width="5.7" height="1.9"/>
			<rect x="157.9" y="616.5" style="&st2;" width="5.7" height="1.9"/>
			<rect x="157.9" y="629.6" style="&st2;" width="5.7" height="1.9"/>
		</g>
	</g>
	<g>
		<path style="&st0;" d="M666,490H4c-2.2,0-4-1.8-4-4V374c0-2.2,1.8-4,4-4h662c2.2,0,4,1.8,4,4v112C670,488.2,668.2,490,666,490z"/>
		<g>
			<path style="&st1;" d="M42.7,431.2c0.1,0.9,0.2,1.3,0.6,1.8c0.6,0.8,1.6,1.2,2.9,1.2c2,0,3.2-0.9,3.2-2.4c0-0.8-0.4-1.5-1-1.8
				c-0.6-0.3-0.7-0.3-3.5-1c-1.5-0.3-2.3-0.7-3-1.2c-1-0.8-1.5-1.9-1.5-3.2c0-2.8,2.2-4.6,5.7-4.6c2.3,0,4,0.7,5,2
				c0.5,0.7,0.7,1.3,1,2.3l-2.9,0.3c-0.1-0.7-0.3-1-0.6-1.4c-0.5-0.6-1.4-1-2.5-1c-1.7,0-2.9,0.9-2.9,2.2c0,0.8,0.4,1.4,1.4,1.8
				c0.4,0.2,0.6,0.2,2.8,0.7c1.6,0.3,2.5,0.7,3.3,1.2c1.1,0.8,1.7,1.9,1.7,3.4c0,1.4-0.4,2.6-1.3,3.4c-1.1,1-2.6,1.5-4.8,1.5
				c-1.6,0-3.2-0.4-4.2-1c-0.8-0.5-1.4-1.3-1.8-2.3c-0.2-0.5-0.3-0.8-0.4-1.7L42.7,431.2z"/>
			<path style="&st1;" d="M58.7,421.6c-0.1,0.7-0.1,1.6-0.1,2.5v0.6h0.8c0.9,0,1.4,0,2-0.1v2.4c-0.7-0.1-1-0.1-2-0.1h-0.9v6.2
				c0,1,0.4,1.3,1.3,1.3c0.5,0,0.8-0.1,1.5-0.4l0.4,2.1c-0.9,0.3-1.5,0.4-2.5,0.4c-2.3,0-3.2-0.8-3.2-2.9v-6.7h-0.8
				c-0.7,0-1.1,0-1.8,0.1v-2.4c0.6,0.1,1,0.1,1.8,0.1h0.7v-0.6c0-0.9-0.1-1.7-0.1-2.5H58.7z"/>
			<path style="&st1;" d="M65.2,431.1c0.1,1.1,0.3,1.7,0.7,2.2c0.6,0.7,1.5,1.1,2.5,1.1c1,0,1.8-0.4,2.4-1c0.2-0.3,0.4-0.5,0.6-1
				l2.4,0.8c-0.5,1-0.7,1.3-1.2,1.8c-1,1-2.4,1.5-4.1,1.5c-3.5,0-5.8-2.4-5.8-6.1c0-3.7,2.2-6.1,5.6-6.1c2.3,0,4.2,1.2,5,3.2
				c0.4,1,0.5,1.7,0.6,3c0,0,0,0.1,0,0.6H65.2z M71.3,429.1c-0.1-0.9-0.4-1.4-0.9-1.9c-0.5-0.5-1.2-0.8-2.2-0.8c-1.6,0-2.7,1-3,2.7
				H71.3z"/>
			<path style="&st1;" d="M78.5,425.7c0,0.2,0,0.4,0,0.7c1.1-1.4,2.3-2,4.1-2c1.6,0,2.9,0.5,3.8,1.4c1.1,1.1,1.6,2.6,1.6,4.6
				c0,3.7-2,5.9-5.4,5.9c-1.8,0-3.1-0.6-4-1.9c0,0.2,0,0.2,0,0.6c0,0.1,0,0.5,0,0.9v1.5c0,1.2,0,1.8,0.1,2.7h-2.8
				c0.1-0.9,0.1-1.6,0.1-2.6v-10.1c0-1.2,0-1.8-0.1-2.7h2.7V425.7z M82.1,426.6c-2,0-3.5,1.6-3.5,3.8c0,2.3,1.5,3.9,3.6,3.9
				c2,0,3.2-1.5,3.2-3.8S84.1,426.6,82.1,426.6z"/>
			<path style="&st1;" d="M99.1,431.8c0.3,0.9,0.4,1.2,0.9,1.6c0.7,0.5,1.5,0.8,2.4,0.8c2,0,3.2-1,3.2-2.6c0-0.9-0.4-1.7-1.1-2.1
				c-0.5-0.3-1.4-0.5-2.3-0.5s-1.5,0-2.1,0.1v-2.5c0.6,0.1,1.1,0.1,1.9,0.1c2,0,3.2-0.9,3.2-2.5c0-1.4-0.9-2.2-2.6-2.2
				c-1,0-1.7,0.2-2.2,0.6c-0.4,0.4-0.6,0.7-0.8,1.5l-2.9-0.5c0.5-1.5,1-2.2,1.9-2.9c1-0.7,2.3-1.1,3.9-1.1c3.3,0,5.5,1.7,5.5,4.3
				c0,1.2-0.5,2.3-1.4,2.9c-0.4,0.3-0.9,0.5-1.9,0.8c1.4,0.2,2.2,0.6,2.9,1.3c0.7,0.7,1,1.6,1,2.8c0,1.1-0.5,2.2-1.2,2.9
				c-1.1,1.1-2.8,1.6-4.9,1.6c-2.3,0-3.9-0.6-5.1-1.9c-0.5-0.6-0.8-1.1-1.1-2.2L99.1,431.8z"/>
		</g>
		<g>
			<path d="M295.5,426.4c0.7-1,1.1-1.7,1.6-2.8h-4.5c-1.6,0-2.5,0-3.5,0.2v-3.4c0.9,0.2,1.8,0.2,3.5,0.2h0.4
				c-0.6-1.2-1.2-2.2-2.3-3.6l3.3-1c1,1.4,1.8,2.9,2.6,4.6h1.7c0.5-1.6,1-4.2,1-5.2c0-0.1,0-0.1,0-0.3l3.8,0.4
				c-0.1,0.4-0.3,1.1-0.4,1.8c-0.2,0.9-0.5,2.1-0.9,3.2h3.2c1.4-1.8,2-2.8,2.9-4.7l3.6,1c-1.6,2.5-1.8,2.8-2.6,3.7h1.5
				c1.8,0,2.6,0,3.6-0.2v3.4c-1.1-0.1-2-0.2-3.6-0.2h-4.6c0.7,1.4,0.9,1.8,1.5,2.8h5c1.9,0,2.7,0,3.6-0.2v3.4c-1-0.1-2-0.2-3.6-0.2
				h-2.5c2,2,3.9,3.2,7,4.4c-1,1.2-1.3,1.7-2,3.4c-2.2-1.2-3.1-1.8-4.9-3.3c-0.2,4.4-0.5,7-1.1,8.4c-0.6,1.6-1.7,2-4.8,2
				c-0.7,0-1.4,0-2.7-0.1c-0.2-1.7-0.3-2.3-0.8-3.5c1.6,0.3,2.8,0.4,3.7,0.4c0.8,0,1.3-0.2,1.4-0.7c0.3-0.9,0.5-2.2,0.6-5.3h-5.2
				c-0.6,2.6-1.2,4.1-2.7,5.7c-1.8,2-4.2,3.3-7.6,4.2c-0.6-1.4-1.1-2.2-2-3.2c2-0.4,2.9-0.7,4-1.3c1.9-0.9,3.1-2,3.9-3.4
				c0.3-0.6,0.4-1,0.7-2h-1c-1.5,0-2.4,0.1-3.4,0.2v-1.6c-1.6,1.3-2.6,2-4.7,3.2c-0.5-1.2-1-1.9-2.2-2.9c3.3-1.5,4.8-2.6,6.8-4.5
				h-2.4c-1.7,0-2.6,0-3.6,0.2v-3.4c0.9,0.2,1.8,0.2,3.6,0.2H295.5z M297.3,429.5c-0.8,1.1-1.4,1.8-2.4,2.7c0.4,0,0.6,0,1.1,0h10.6
				c0.6,0,0.8,0,1.4,0c-0.9-0.9-1.5-1.6-2.3-2.7H297.3z M303.7,426.4c-0.5-1.1-0.7-1.4-1.3-2.8h-1.8c-0.4,1-0.8,1.8-1.4,2.8H303.7z"
				/>
			<path d="M328.7,426.8c-0.6-0.1-1.2-0.1-2-0.1h-0.5c1.1,2.3,1.8,3.3,3,4.5c-0.7,1-1.2,1.9-1.5,3c-0.7-1.1-1.2-1.9-1.8-3.5
				c0.1,0.8,0.1,1,0.1,1.9c0,0.3,0,0.6,0,1c0,0.5,0,0.9,0,1.2v6.3c0,1.8,0,2.7,0.2,3.8h-3.5c0.1-1.2,0.2-2.2,0.2-3.8V436
				c0-1.5,0-1.5,0.1-2.4c0-0.8,0-1.2,0.1-2c-0.7,2.5-1.8,4.7-3.3,6.9c-0.4-1.4-0.9-2.3-1.6-3.3c1.4-1.8,2.2-3.1,3.2-5.2
				c0.6-1.2,1.1-2.5,1.3-3.4h-1.3c-0.9,0-1.6,0-2.3,0.2v-3.4c0.8,0.1,1.5,0.2,2.4,0.2h1.6V420c-0.9,0.2-1.5,0.3-3.1,0.6
				c-0.4-1.2-0.6-1.9-1.2-3c2.7-0.3,5.5-0.9,7.8-1.9c0.6-0.3,0.8-0.4,1.2-0.6l1.7,2.8c-0.2,0.1-0.9,0.3-1.7,0.6
				c-0.3,0.1-0.6,0.2-1.6,0.5v4.4h0.7c0.7,0,1.2,0,1.7-0.1v-2.9c0.8,0.1,1.7,0.2,3,0.2h4.8v-1.3c-1.7,0.1-2.9,0.1-5.7,0.2
				c-0.3-1.1-0.7-1.9-1.2-2.7c1.2,0,2.1,0,2.6,0c5.2,0,11.1-0.7,13.2-1.5l2.1,2.8c-0.2,0-0.2,0-1,0.2c-1.7,0.4-4.1,0.7-6.9,0.9v1.5
				h5.4c1.3,0,2.3-0.1,3.2-0.2v3c-0.8-0.1-1.7-0.1-3-0.1h-5.7v1.3h4.1c1.5,0,2.2,0,3.1-0.1c-0.1,0.8-0.1,1.3-0.1,2.7v5.1
				c0,1.5,0,2.1,0.1,3c-0.8-0.1-1.4-0.1-2.8-0.1h-4.4v1.5h4.4c1.6,0,2.4,0,3.2-0.2v3c-1.1-0.1-2-0.1-3.2-0.1h-4.4v1.6h5.3
				c1.4,0,2.6-0.1,3.5-0.2v3.1c-0.9-0.1-2-0.2-3.6-0.2h-13.2c-1.6,0-2.7,0.1-3.6,0.2V441c0.7,0.1,2,0.1,3.5,0.1h5v-1.6H332
				c-1.5,0-2.2,0-3.1,0.1v-2.9c0.9,0.1,1.5,0.1,3.2,0.1h4.1v-1.5h-4c-1.4,0-2,0-2.7,0.1c0.1-0.8,0.1-1.5,0.1-3v-5c0-1.4,0-2-0.1-2.8
				c0.8,0.1,1.5,0.1,3,0.1h3.7v-1.3h-4.7c-1,0-2.1,0-2.8,0.1V426.8z M332.5,427.3v1.6h3.6v-1.6H332.5z M332.5,431.2v1.6h3.6v-1.6
				H332.5z M343.3,428.9v-1.6h-4v1.6H343.3z M343.3,432.7v-1.6h-4v1.6H343.3z"/>
			<path d="M358,437.9c1,1.8,2,2.5,4,2.8c-0.4-0.6-1.2-1.5-2.1-2.2c2.2-0.7,3.6-1.4,4.8-2.5h-3.6c-1.2,0-1.7,0-2.5,0.2v-2.9
				c0.7,0.1,1.2,0.2,2.5,0.2h2.4v-2h-0.7c-1.6,0-2.2,0-3,0.1v-2.8c0.8,0.1,1.3,0.1,3,0.1h0.7c0-0.8-0.1-1.1-0.1-1.6h3.5
				c-0.1,0.5-0.1,0.9-0.1,1.6h4.3c0-0.8-0.1-1.1-0.1-1.6h3.5c-0.1,0.5-0.1,0.9-0.2,1.6h1.7c1.6,0,2.2,0,3-0.1v2.8
				c-0.8-0.1-1.4-0.1-3-0.1h-1.7v2h2.5c1.7,0,2.3,0,3.1-0.1v2.9c-0.8-0.1-1.4-0.1-3.1-0.1h-3.4c1.7,1.1,3.2,1.6,6,2.2
				c-0.8,0.8-1.3,1.5-1.9,2.4c0.9-0.1,0.9-0.1,3.3-0.4c-0.6,1.5-0.7,1.9-1,3.7c-2.8,0.1-6.9,0.2-11,0.2c-5,0-6.8-0.2-8.4-0.7
				c-1.6-0.5-2.8-1.4-3.9-2.9c-1.3,1.2-1.8,1.7-3.1,2.7c-0.6,0.5-0.9,0.7-1.4,1.2l-1.6-3.6c1.2-0.5,2.5-1.4,4.4-3.1v-6.9H353
				c-0.9,0-1.3,0-2.1,0.2v-3.5c0.8,0.1,1.4,0.2,2.6,0.2h2.3c1.1,0,1.6,0,2.4-0.1c-0.1,1-0.1,1.5-0.1,3.5V437.9z M353.5,415.8
				c2.3,2.1,3.4,3.2,4.9,5.1l-2.7,2.6c-1.7-2.3-2.5-3.3-4.8-5.3L353.5,415.8z M368.2,420.7c0,0.8,0,1.3,0.1,1.7
				c-0.8-0.1-1.3-0.1-2-0.1h-4.1v1c0,0.7,0.1,0.7,1.4,0.7c2.5,0,2.5,0,2.6-1.5c0.8,0.5,1.6,0.8,2.6,1c-0.2,1.8-0.5,2.4-1.4,2.7
				c-0.6,0.2-1.6,0.3-4.2,0.3c-3.3,0-3.9-0.3-3.9-2v-2.7c0-0.9,0-1.3-0.1-1.9c0.6,0.1,1.1,0.1,2.2,0.1h3.8v-1.3h-3.7
				c-1.3,0-1.8,0-2.6,0.1V416c0.7,0.1,1.6,0.1,2.6,0.1h4c1.5,0,2.2,0,2.8-0.1c-0.1,0.5-0.1,0.7-0.1,1.8V420.7z M367.8,437.3
				c-2.3,2-3.2,2.6-5.2,3.5c1.5,0.2,3.4,0.2,5.5,0.2c2.3,0,5.2-0.1,8.1-0.3c-2.4-0.8-4.2-1.9-6-3.4l2-1.3h-6.3L367.8,437.3z
				 M366.7,433.4h4.4v-2h-4.4V433.4z M378.9,420.7c0,0.8,0,1.3,0.1,1.7c-0.8-0.1-1.3-0.1-2-0.1h-4.1v1c0,0.4,0,0.5,0.3,0.6
				c0.2,0.1,0.7,0.1,1.5,0.1c2.3,0,2.4,0,2.4-1.6c1,0.5,1.6,0.8,2.8,1.1c-0.3,1.8-0.5,2.3-1.2,2.6c-0.6,0.3-1.9,0.4-4.4,0.4
				c-2.2,0-3-0.1-3.5-0.3c-0.7-0.3-0.9-0.8-0.9-1.8V422c0-1.3,0-1.3-0.1-1.4c0-0.4,0-0.4,0-0.7c0.6,0.1,1.1,0.1,2.2,0.1h3.8v-1.3
				h-3.6c-1.3,0-1.8,0-2.6,0.1V416c0.7,0.1,1.6,0.1,2.6,0.1h3.9c1.5,0,2.2,0,2.8-0.1c-0.1,0.4-0.1,0.8-0.1,1.8V420.7z"/>
			<path d="M385.7,424.4c-0.7,0-1.4,0-2.6,0.2v-3.4c0.8,0.2,1.5,0.2,2.6,0.2h1.4v-2.7c0-1.5,0-2.3-0.2-3.2h3.7
				c-0.2,0.9-0.2,1.7-0.2,3.2v2.7h1.3c0.8,0,1.4,0,2.1-0.2v3.4c-0.7-0.1-1.4-0.1-2.1-0.1h-1.3v4.9c1-0.3,1.4-0.5,3.3-1.2v3.1
				c-1.5,0.6-2,0.8-3.3,1.2v9.1c0,1.2-0.3,2-1.1,2.5c-0.6,0.4-1.6,0.6-3.4,0.6c-0.7,0-1.2,0-2.3-0.1c-0.2-1.5-0.3-2.1-0.7-3.4
				c1.4,0.2,2.2,0.2,3.2,0.2c0.8,0,1-0.2,1-1v-6.8l-2.6,0.8c-0.4,0.1-0.5,0.2-1,0.4l-0.7-3.6c1.2-0.1,1.8-0.3,4.3-1v-6H385.7z
				 M398.5,429.7c-0.4,7.2-1.8,11.1-5.1,15c-1.1-1.3-1.6-1.9-2.7-2.8c1.6-1.7,2.7-3.4,3.4-5.5c0.9-2.7,1.2-6.6,1.2-14.7
				c0-2.6,0-3.7-0.1-5.1c1,0.1,1.9,0.1,3.6,0.1h8.4c1.7,0,2.5,0,3.4-0.1c-0.1,1-0.1,1.7-0.1,3.4v6.3c0,1.9,0,2.5,0.1,3.4
				c-0.9-0.1-1.7-0.1-2.8-0.1h-2.3c0.3,2.7,0.7,4.2,1.4,5.7c1.2,2.5,2.4,3.8,5.4,6.1c-1.1,1.2-1.7,2-2.5,3.4c-3-2.6-4.5-4.7-5.8-7.7
				c-0.9-2-1.3-4-1.7-7.5H398.5z M407,426.4v-6.5h-8.4v2c0,1.2,0,1.5-0.1,4.5H407z"/>
		</g>
		<g>
			<g>
				<g>
					<path style="&st2;" d="M228.7,421.4v30.8h-56.5v-19.4l3.6-3.6l2.9-2.9h-4.1h-2.5v-4.9H228.7 M230.4,419.8h-59.8v8.3h4.1
						l-4.1,4.1v21.7h59.8V419.8L230.4,419.8z"/>
				</g>
				<g>
					<g>
						<rect x="185.4" y="445.9" style="&st2;" width="1.7" height="5.3"/>
					</g>
					<g>
						<rect x="185.4" y="438.1" style="&st2;" width="1.7" height="5.3"/>
					</g>
					<g>
						<rect x="185.4" y="430.3" style="&st2;" width="1.7" height="5.3"/>
					</g>
					<g>
						<rect x="185.4" y="422.4" style="&st2;" width="1.7" height="5.3"/>
					</g>
				</g>
			</g>
			<g>
				<g>
					<polygon style="&st2;" points="165.7,438.1 160.4,438.1 160.4,419 163.3,416 160.4,416 160.4,406.1 221.9,406.1 221.9,414 
						220.2,414 220.2,407.8 162.1,407.8 162.1,414.4 167.4,414.4 162.1,419.7 162.1,436.4 165.7,436.4 					"/>
				</g>
			</g>
		</g>
	</g>
	<g>
		<path style="&st0;" d="M666,305H4c-2.2,0-4-1.8-4-4V189c0-2.2,1.8-4,4-4h662c2.2,0,4,1.8,4,4v112C670,303.2,668.2,305,666,305z"/>
		<g>
			<path style="&st1;" d="M42.7,246.2c0.1,0.9,0.2,1.3,0.6,1.8c0.6,0.8,1.6,1.2,2.9,1.2c2,0,3.2-0.9,3.2-2.4c0-0.8-0.4-1.5-1-1.8
				c-0.6-0.3-0.7-0.3-3.5-1c-1.5-0.3-2.3-0.7-3-1.2c-1-0.8-1.5-1.9-1.5-3.2c0-2.8,2.2-4.6,5.7-4.6c2.3,0,4,0.7,5,2
				c0.5,0.7,0.7,1.3,1,2.3l-2.9,0.3c-0.1-0.7-0.3-1-0.6-1.4c-0.5-0.6-1.4-1-2.5-1c-1.7,0-2.9,0.9-2.9,2.2c0,0.8,0.4,1.4,1.4,1.8
				c0.4,0.2,0.6,0.2,2.8,0.7c1.6,0.3,2.5,0.7,3.3,1.2c1.1,0.8,1.7,1.9,1.7,3.4c0,1.4-0.4,2.6-1.3,3.4c-1.1,1-2.6,1.5-4.8,1.5
				c-1.6,0-3.2-0.4-4.2-1c-0.8-0.5-1.4-1.3-1.8-2.3c-0.2-0.5-0.3-0.8-0.4-1.7L42.7,246.2z"/>
			<path style="&st1;" d="M58.7,236.6c-0.1,0.7-0.1,1.6-0.1,2.5v0.6h0.8c0.9,0,1.4,0,2-0.1v2.4c-0.7-0.1-1-0.1-2-0.1h-0.9v6.2
				c0,1,0.4,1.3,1.3,1.3c0.5,0,0.8-0.1,1.5-0.4l0.4,2.1c-0.9,0.3-1.5,0.4-2.5,0.4c-2.3,0-3.2-0.8-3.2-2.9v-6.7h-0.8
				c-0.7,0-1.1,0-1.8,0.1v-2.4c0.6,0.1,1,0.1,1.8,0.1h0.7v-0.6c0-0.9-0.1-1.7-0.1-2.5H58.7z"/>
			<path style="&st1;" d="M65.2,246.1c0.1,1.1,0.3,1.7,0.7,2.2c0.6,0.7,1.5,1.1,2.5,1.1c1,0,1.8-0.4,2.4-1c0.2-0.3,0.4-0.5,0.6-1
				l2.4,0.8c-0.5,1-0.7,1.3-1.2,1.8c-1,1-2.4,1.5-4.1,1.5c-3.5,0-5.8-2.4-5.8-6.1c0-3.7,2.2-6.1,5.6-6.1c2.3,0,4.2,1.2,5,3.2
				c0.4,1,0.5,1.7,0.6,3c0,0,0,0.1,0,0.6H65.2z M71.3,244.1c-0.1-0.9-0.4-1.4-0.9-1.9c-0.5-0.5-1.2-0.8-2.2-0.8c-1.6,0-2.7,1-3,2.7
				H71.3z"/>
			<path style="&st1;" d="M78.5,240.7c0,0.2,0,0.4,0,0.7c1.1-1.4,2.3-2,4.1-2c1.6,0,2.9,0.5,3.8,1.4c1.1,1.1,1.6,2.6,1.6,4.6
				c0,3.7-2,5.9-5.4,5.9c-1.8,0-3.1-0.6-4-1.9c0,0.2,0,0.2,0,0.6c0,0.1,0,0.5,0,0.9v1.5c0,1.2,0,1.8,0.1,2.7h-2.8
				c0.1-0.9,0.1-1.6,0.1-2.6v-10.1c0-1.2,0-1.8-0.1-2.7h2.7V240.7z M82.1,241.6c-2,0-3.5,1.6-3.5,3.8c0,2.3,1.5,3.9,3.6,3.9
				c2,0,3.2-1.5,3.2-3.8C85.4,243,84.1,241.6,82.1,241.6z"/>
			<path style="&st1;" d="M99.1,251.2c-1.6,0-1.9,0-2.6,0.1c0.1-1.1,0.3-1.8,0.5-2.6c0.5-1.5,1.4-2.7,2.7-3.9
				c0.7-0.6,1.3-1.1,3.3-2.4c1.8-1.3,2.4-1.9,2.4-2.9c0-1.4-1.1-2.2-2.8-2.2c-1.2,0-2,0.4-2.5,1.2c-0.3,0.5-0.5,0.9-0.6,1.8
				l-2.9-0.3c0.3-1.5,0.6-2.3,1.4-3.2c1-1.2,2.6-1.8,4.6-1.8c3.5,0,5.7,1.7,5.7,4.4c0,1.3-0.4,2.3-1.4,3.2c-0.6,0.5-0.8,0.7-3.4,2.5
				c-0.9,0.6-1.9,1.5-2.4,2c-0.6,0.6-0.8,1-1.1,1.8h5.6c1.3,0,2.3-0.1,2.9-0.2v2.6c-0.9-0.1-1.7-0.1-3-0.1H99.1z"/>
		</g>
		<g>
			<path d="M301.8,245.2c-0.7,0.9-1.1,1.6-1.7,2.8c-1.3-1.4-2.1-2.4-2.9-3.8c-0.7,1.5-1.7,3-2.8,4.4c-1-1.1-1.2-1.3-2-1.9
				c-0.1,2.3-0.5,4.8-1,7c-0.5,2.4-1.1,3.9-2.2,5.8c-0.8-1.1-1.6-1.9-2.8-2.9c2.1-3.4,2.8-8.3,2.8-19.1c0-0.7,0-1.2,0-1.7
				c0-1.4-0.1-2.1-0.2-3c1.3,0.1,2.5,0.2,3.8,0.2h7.8V232c0-0.7,0-1.2-0.2-1.8h3.8c-0.1,0.6-0.2,1.1-0.2,1.9v0.9h8
				c1.4,0,2.8-0.1,3.8-0.2v3.6c-0.8-0.1-2-0.2-3.4-0.2h-20c0,4.5-0.1,6.7-0.2,9.8c1.3-1.5,2-2.5,2.6-4.2c0.6-1.6,0.9-3.1,1.1-4.8
				l3.2,0.4c-0.4,1.9-0.7,2.9-0.9,3.7C299.2,242.7,299.9,243.5,301.8,245.2V240c0-1.8,0-2.4-0.2-3.2h3.7c-0.1,0.8-0.2,1.3-0.2,3.2v6
				c1.3-1.5,2.1-2.8,2.8-4.8c0.7-1.8,0.9-2.9,1-4.3l3.4,0.4c-0.2,0.7-0.2,0.7-0.6,2.3c-0.2,0.6-0.3,0.9-0.4,1.6
				c1.3,2.1,2.4,3.1,4.7,4.4c-0.8,0.9-1.3,1.8-1.9,2.9c-1.8-1.5-2.8-2.5-4-4.3c-0.8,1.7-1.4,2.6-2.8,4.3c-0.7-0.8-1.4-1.3-2.2-1.9
				v2.8h6.2c1.5,0,2.1,0,3-0.2v3.3c-0.8-0.1-1.4-0.2-3-0.2h-6.2v3.3h7.8c1.4,0,2.3,0,3.1-0.2v3.5c-1.1-0.1-2.4-0.2-3.7-0.2h-17.1
				c-1.3,0-2.6,0.1-3.7,0.2v-3.5c0.9,0.1,1.4,0.1,3.1,0.1h7.1v-3.3h-5.4c-1.7,0-2,0-2.9,0.1v-3.3c0.8,0.1,1.3,0.2,2.9,0.2h5.4V245.2
				z"/>
			<path d="M324.4,240.8c0,0.9,0,1.6,0,2c-0.1,4.9-0.4,8.3-1.2,11.2c-0.6,2.4-1.1,3.7-2.2,5.5c-0.9-1.2-1.6-1.8-2.8-2.8
				c0.8-1.3,1.1-2,1.6-3.8c0.9-3.2,1.3-8.3,1.3-16.3c0-2,0-2.9-0.1-4.3c1.2,0.1,2.4,0.2,3.9,0.2h7.5V232c0-0.7-0.1-1.2-0.2-1.8h3.8
				c-0.1,0.5-0.2,1-0.2,1.9v0.5h8c1.7,0,2.8-0.1,3.8-0.2v3.4c-0.8-0.1-1.7-0.1-3.3-0.1h-2.4v2.2h2.7c1.6,0,2.3,0,3.1-0.2v3.2
				c-0.9-0.1-1.7-0.1-3.1-0.1h-2.6v3.2c0,0.7,0,1.3,0.1,1.9c-0.6-0.1-1.1-0.1-2.1-0.1h-2.9v2.1h5.8c1.5,0,2.3,0,3-0.1
				c-0.1,0.8-0.1,1.3-0.1,2.7v5.1c0,2.1-1,2.8-4.6,2.8c-0.4,0-0.7,0-1.5,0c-0.2-1.5-0.3-1.8-0.8-3.2c1,0.1,1.7,0.2,2.3,0.2
				c1.2,0,1.3-0.1,1.3-0.9v-3.5h-5.3v5.3c0,1.7,0.1,2.8,0.2,3.7h-3.7c0.1-0.9,0.2-2,0.2-3.7v-5.3h-4.6v3.9c0,2,0,2.8,0.1,3.5h-3.6
				c0.1-0.9,0.2-1.8,0.2-3.5v-4.4c0-1,0-1.8-0.1-2.6c0.8,0.1,1.6,0.1,2.9,0.1h5.1v-2.1H331c-1,0-1.4,0-2,0.1
				c0.1-0.7,0.1-1.2,0.1-1.9v-3.2H324.4z M329,237.8v-2.2h-4.5v2.2H329z M338.7,237.8v-2.2h-6.3v2.2H338.7z M332.4,243h6.3v-2.2
				h-6.3V243z"/>
			<path d="M358,252.9c1,1.8,2,2.5,4,2.8c-0.4-0.6-1.2-1.5-2.1-2.2c2.2-0.7,3.6-1.4,4.8-2.5h-3.6c-1.2,0-1.7,0-2.5,0.2v-2.9
				c0.7,0.1,1.2,0.2,2.5,0.2h2.4v-2h-0.7c-1.6,0-2.2,0-3,0.1v-2.8c0.8,0.1,1.3,0.1,3,0.1h0.7c0-0.8-0.1-1.1-0.1-1.6h3.5
				c-0.1,0.5-0.1,0.9-0.1,1.6h4.3c0-0.8-0.1-1.1-0.1-1.6h3.5c-0.1,0.5-0.1,0.9-0.2,1.6h1.7c1.6,0,2.2,0,3-0.1v2.8
				c-0.8-0.1-1.4-0.1-3-0.1h-1.7v2h2.5c1.7,0,2.3,0,3.1-0.1v2.9c-0.8-0.1-1.4-0.1-3.1-0.1h-3.4c1.7,1.1,3.2,1.6,6,2.2
				c-0.8,0.8-1.3,1.5-1.9,2.4c0.9-0.1,0.9-0.1,3.3-0.4c-0.6,1.5-0.7,1.9-1,3.7c-2.8,0.1-6.9,0.2-11,0.2c-5,0-6.8-0.2-8.4-0.7
				c-1.6-0.5-2.8-1.4-3.9-2.9c-1.3,1.2-1.8,1.7-3.1,2.7c-0.6,0.5-0.9,0.7-1.4,1.2l-1.6-3.6c1.2-0.5,2.5-1.4,4.4-3.1v-6.9H353
				c-0.9,0-1.3,0-2.1,0.2v-3.5c0.8,0.1,1.4,0.2,2.6,0.2h2.3c1.1,0,1.6,0,2.4-0.1c-0.1,1-0.1,1.5-0.1,3.5V252.9z M353.5,230.7
				c2.3,2.1,3.4,3.2,4.9,5.1l-2.7,2.6c-1.7-2.3-2.5-3.3-4.8-5.3L353.5,230.7z M368.2,235.7c0,0.8,0,1.3,0.1,1.7
				c-0.8-0.1-1.3-0.1-2-0.1h-4.1v1c0,0.7,0.1,0.7,1.4,0.7c2.5,0,2.5,0,2.6-1.5c0.8,0.5,1.6,0.8,2.6,1c-0.2,1.8-0.5,2.4-1.4,2.7
				c-0.6,0.2-1.6,0.3-4.2,0.3c-3.3,0-3.9-0.3-3.9-2v-2.7c0-0.9,0-1.3-0.1-1.9c0.6,0.1,1.1,0.1,2.2,0.1h3.8v-1.3h-3.7
				c-1.3,0-1.8,0-2.6,0.1V231c0.7,0.1,1.6,0.1,2.6,0.1h4c1.5,0,2.2,0,2.8-0.1c-0.1,0.5-0.1,0.7-0.1,1.8V235.7z M367.8,252.3
				c-2.3,2-3.2,2.6-5.2,3.5c1.5,0.2,3.4,0.2,5.5,0.2c2.3,0,5.2-0.1,8.1-0.3c-2.4-0.8-4.2-1.9-6-3.4l2-1.3h-6.3L367.8,252.3z
				 M366.7,248.4h4.4v-2h-4.4V248.4z M378.9,235.7c0,0.8,0,1.3,0.1,1.7c-0.8-0.1-1.3-0.1-2-0.1h-4.1v1c0,0.4,0,0.5,0.3,0.6
				c0.2,0.1,0.7,0.1,1.5,0.1c2.3,0,2.4,0,2.4-1.6c1,0.5,1.6,0.8,2.8,1.1c-0.3,1.8-0.5,2.3-1.2,2.6c-0.6,0.3-1.9,0.4-4.4,0.4
				c-2.2,0-3-0.1-3.5-0.3c-0.7-0.3-0.9-0.8-0.9-1.8V237c0-1.3,0-1.3-0.1-1.4c0-0.4,0-0.4,0-0.7c0.6,0.1,1.1,0.1,2.2,0.1h3.8v-1.3
				h-3.6c-1.3,0-1.8,0-2.6,0.1V231c0.7,0.1,1.6,0.1,2.6,0.1h3.9c1.5,0,2.2,0,2.8-0.1c-0.1,0.4-0.1,0.8-0.1,1.8V235.7z"/>
			<path d="M385.7,239.4c-0.7,0-1.4,0-2.6,0.2v-3.4c0.8,0.2,1.5,0.2,2.6,0.2h1.4v-2.7c0-1.5,0-2.3-0.2-3.2h3.7
				c-0.2,0.9-0.2,1.7-0.2,3.2v2.7h1.3c0.8,0,1.4,0,2.1-0.2v3.4c-0.7-0.1-1.4-0.1-2.1-0.1h-1.3v4.9c1-0.3,1.4-0.5,3.3-1.2v3.1
				c-1.5,0.6-2,0.8-3.3,1.2v9.1c0,1.2-0.3,2-1.1,2.5c-0.6,0.4-1.6,0.6-3.4,0.6c-0.7,0-1.2,0-2.3-0.1c-0.2-1.5-0.3-2.1-0.7-3.4
				c1.4,0.2,2.2,0.2,3.2,0.2c0.8,0,1-0.2,1-1v-6.8l-2.6,0.8c-0.4,0.1-0.5,0.2-1,0.4l-0.7-3.6c1.2-0.1,1.8-0.3,4.3-1v-6H385.7z
				 M398.5,244.6c-0.4,7.2-1.8,11.1-5.1,15c-1.1-1.3-1.6-1.9-2.7-2.8c1.6-1.7,2.7-3.4,3.4-5.5c0.9-2.7,1.2-6.6,1.2-14.7
				c0-2.6,0-3.7-0.1-5.1c1,0.1,1.9,0.1,3.6,0.1h8.4c1.7,0,2.5,0,3.4-0.1c-0.1,1-0.1,1.7-0.1,3.4v6.3c0,1.9,0,2.5,0.1,3.4
				c-0.9-0.1-1.7-0.1-2.8-0.1h-2.3c0.3,2.7,0.7,4.2,1.4,5.7c1.2,2.5,2.4,3.8,5.4,6.1c-1.1,1.2-1.7,2-2.5,3.4c-3-2.6-4.5-4.7-5.8-7.7
				c-0.9-2-1.3-4-1.7-7.5H398.5z M407,241.4v-6.5h-8.4v2c0,1.2,0,1.5-0.1,4.5H407z"/>
		</g>
		<g>
			<path style="&st2;" d="M210.2,210.5c5.4,0,9.8,4.4,9.8,9.8v43.6h-49.2v-43.6c0-5.4,4.4-9.8,9.8-9.8H210.2 M210.2,208.5h-29.6
				c-6.5,0-11.8,5.3-11.8,11.8v45.6h53.2v-45.6C221.9,213.8,216.7,208.5,210.2,208.5L210.2,208.5z"/>
			<path style="&st2;" d="M168.8,247.1v1.9h-6.4v-1.9H168.8 M170.7,245.1h-10.4v5.8h10.4V245.1L170.7,245.1z"/>
			<path style="&st2;" d="M228.4,247.1v1.9H222v-1.9H228.4 M230.4,245.1H220v5.8h10.4V245.1L230.4,245.1z"/>
			<path style="&st2;" d="M224,266.1c1.1,0,2,0.9,2,2v9.6c0,1.1-0.9,2-2,2h-57.5c-1.1,0-2-0.9-2-2V268c0-1.1,0.9-2,2-2H224
				 M224,264.1h-57.5c-2.2,0-3.9,1.8-3.9,3.9v9.6c0,2.2,1.8,3.9,3.9,3.9H224c2.2,0,3.9-1.8,3.9-3.9V268
				C228,265.9,226.2,264.1,224,264.1L224,264.1z"/>
			<g>
				<path style="&st2;" d="M168.8,251.1v12.8h-0.9c-1.2,0-2.2,0.3-3.2,0.8v-13.6H168.8 M170.8,249.1h-8.1v21.9
					c0-2.8,2.3-5.2,5.2-5.2h2.9V249.1L170.8,249.1z"/>
				<path style="&st2;" d="M226.1,251.1v13.6c-1-0.5-2.1-0.8-3.2-0.8h-0.9v-12.8H226.1 M228,249.1H220v16.8h2.9
					c2.8,0,5.2,2.3,5.2,5.2V249.1L228,249.1z"/>
			</g>
		</g>
	</g>
	<g>
		<path style="&st0;" d="M666,120H4c-2.2,0-4-1.8-4-4V4c0-2.2,1.8-4,4-4h662c2.2,0,4,1.8,4,4v112C670,118.2,668.2,120,666,120z"/>
		<g>
			<path style="&st1;" d="M42.7,61.2c0.1,0.9,0.2,1.3,0.6,1.8c0.6,0.8,1.6,1.2,2.9,1.2c2,0,3.2-0.9,3.2-2.4c0-0.8-0.4-1.5-1-1.8
				c-0.6-0.3-0.7-0.3-3.5-1c-1.5-0.3-2.3-0.7-3-1.2c-1-0.8-1.5-1.9-1.5-3.2c0-2.8,2.2-4.6,5.7-4.6c2.3,0,4,0.7,5,2
				c0.5,0.7,0.7,1.3,1,2.3l-2.9,0.3c-0.1-0.7-0.3-1-0.6-1.4c-0.5-0.6-1.4-1-2.5-1c-1.7,0-2.9,0.9-2.9,2.2c0,0.8,0.4,1.4,1.4,1.8
				c0.4,0.2,0.6,0.2,2.8,0.7c1.6,0.3,2.5,0.7,3.3,1.2c1.1,0.8,1.7,1.9,1.7,3.4c0,1.4-0.4,2.6-1.3,3.4c-1.1,1-2.6,1.5-4.8,1.5
				c-1.6,0-3.2-0.4-4.2-1c-0.8-0.5-1.4-1.3-1.8-2.3c-0.2-0.5-0.3-0.8-0.4-1.7L42.7,61.2z"/>
			<path style="&st1;" d="M58.7,51.6c-0.1,0.7-0.1,1.6-0.1,2.5v0.6h0.8c0.9,0,1.4,0,2-0.1v2.4c-0.7-0.1-1-0.1-2-0.1h-0.9V63
				c0,1,0.4,1.3,1.3,1.3c0.5,0,0.8-0.1,1.5-0.4l0.4,2.1c-0.9,0.3-1.5,0.4-2.5,0.4c-2.3,0-3.2-0.8-3.2-2.9v-6.7h-0.8
				c-0.7,0-1.1,0-1.8,0.1v-2.4c0.6,0.1,1,0.1,1.8,0.1h0.7v-0.6c0-0.9-0.1-1.7-0.1-2.5H58.7z"/>
			<path style="&st1;" d="M65.2,61.1c0.1,1.1,0.3,1.7,0.7,2.2c0.6,0.7,1.5,1.1,2.5,1.1c1,0,1.8-0.4,2.4-1c0.2-0.3,0.4-0.5,0.6-1
				l2.4,0.8c-0.5,1-0.7,1.3-1.2,1.8c-1,1-2.4,1.5-4.1,1.5c-3.5,0-5.8-2.4-5.8-6.1c0-3.7,2.2-6.1,5.6-6.1c2.3,0,4.2,1.2,5,3.2
				c0.4,1,0.5,1.7,0.6,3c0,0,0,0.1,0,0.6H65.2z M71.3,59.1c-0.1-0.9-0.4-1.4-0.9-1.9c-0.5-0.5-1.2-0.8-2.2-0.8c-1.6,0-2.7,1-3,2.7
				H71.3z"/>
			<path style="&st1;" d="M78.5,55.7c0,0.2,0,0.4,0,0.7c1.1-1.4,2.3-2,4.1-2c1.6,0,2.9,0.5,3.8,1.4c1.1,1.1,1.6,2.6,1.6,4.6
				c0,3.7-2,5.9-5.4,5.9c-1.8,0-3.1-0.6-4-1.9c0,0.2,0,0.2,0,0.6c0,0.1,0,0.5,0,0.9v1.5c0,1.2,0,1.8,0.1,2.7h-2.8
				c0.1-0.9,0.1-1.6,0.1-2.6V57.4c0-1.2,0-1.8-0.1-2.7h2.7V55.7z M82.1,56.6c-2,0-3.5,1.6-3.5,3.8c0,2.3,1.5,3.9,3.6,3.9
				c2,0,3.2-1.5,3.2-3.8S84.1,56.6,82.1,56.6z"/>
			<path style="&st1;" d="M101.4,66.2c0.1-0.8,0.2-1.6,0.2-2.6v-11h-1c-0.7,0-1.3,0-2.1,0.1v-2.5c0.6,0.1,1.1,0.1,2,0.1h1.8
				c1,0,1.3,0,2-0.1c-0.1,1.2-0.2,2.1-0.2,3.3v10.1c0,1.1,0,1.8,0.2,2.6H101.4z"/>
		</g>
		<g>
			<path d="M297.1,46.3c-0.4,0.8-0.4,1-0.7,1.8c-0.5,1.4-0.5,1.4-2.2,5.1v17.7c0,1.5,0.1,2.8,0.2,4h-3.8c0.2-1.2,0.2-2.3,0.2-4v-9.1
				c0-0.8,0-1,0.1-3.6c-1.1,1.5-1.9,2.5-3.1,3.7c-0.4-1.5-0.9-2.4-1.7-3.7c2.4-2.1,4.4-5.2,6.1-8.8c0.7-1.7,1.2-3,1.3-4.2
				L297.1,46.3z M302.3,53.1c-1.4,2.8-3.1,5.3-5.2,7.8c-0.8-1.3-1.2-1.9-2.3-3c2.4-2.5,4-4.9,5.4-8.2c0.8-1.9,1.3-3.5,1.4-4.6
				l3.6,1.1c-0.3,0.8-0.4,1.1-0.6,1.7c-0.5,1.3-0.5,1.4-0.8,2.1h8.7c1.6,0,2.6-0.1,3.5-0.2v3.5c-0.9-0.1-2-0.2-3.5-0.2h-6.1v4.1h5.2
				c1.3,0,2.2-0.1,3.2-0.2v3.5c-1-0.1-2-0.2-3.2-0.2h-5.2v4.1h5.2c1.4,0,2.2,0,3.2-0.2v3.5c-1.1-0.1-2-0.2-3.2-0.2h-5.2v3.7
				c0,1.9,0.1,2.9,0.2,3.8h-3.9c0.2-0.9,0.2-1.9,0.2-3.8v-18H302.3z"/>
			<path d="M319.6,63.2c0-1.2,0-2.1-0.1-3.1c1,0.1,1.8,0.1,3.1,0.1h7c0.9,0,1.6,0,2.4-0.1c-0.1,0.7-0.1,1.2-0.1,2.8v8.5
				c0,1.3,0,2.2,0.1,2.9h-3.5v-1.2H323v1.7h-3.6c0.1-0.9,0.2-1.8,0.2-3.5V63.2z M323,70.2h5.6v-6.8H323V70.2z M323.9,49.1
				c0-1.2,0-2-0.1-2.8c1,0.1,1.9,0.2,3.6,0.2h12.1c1.8,0,2.8,0,3.6-0.2c-0.1,0.8-0.1,1.6-0.1,2.8V55c0,1.3,0,2.1,0.1,3
				c-1-0.1-1.6-0.1-3.3-0.1h-12.7c-1.7,0-2.4,0-3.3,0.1c0.1-0.9,0.1-1.8,0.1-2.9V49.1z M327.3,54.8h12.2v-5.1h-12.2V54.8z
				 M344.5,60.3c1.3,0,2,0,2.8-0.1c-0.1,0.9-0.1,1.8-0.1,3.1v8.3c0,1.7,0,2.6,0.2,3.4h-3.6v-1.7h-6.1v1.7h-3.4
				c0.1-0.9,0.1-1.5,0.1-2.8v-9.2c0-1.4,0-2-0.1-2.6c0.7,0.1,1.4,0.1,2.4,0.1H344.5z M337.7,70.2h6.1v-6.8h-6.1V70.2z"/>
			<path d="M353,49.3c1.3,0.3,3.4,0.4,7.4,0.4c0.9-1.9,1.2-2.9,1.3-4l4.2,0.4c-0.2,0.3-0.2,0.3-1.3,2.9c-0.2,0.4-0.2,0.4-0.3,0.6
				c0.3,0,0.3,0,2-0.1c3.7-0.2,6.6-0.6,8.4-1.1l0.2,3.6c-0.9,0.1-0.9,0.1-2.5,0.3c-2.3,0.3-6.4,0.5-9.6,0.6
				c-0.9,1.8-1.8,3.1-2.9,4.3l0,0.1c0.2-0.2,0.2-0.2,0.6-0.5c1.2-0.9,2.9-1.4,4.5-1.4c2.5,0,4.1,1.2,4.6,3.4
				c2.5-0.9,4.1-1.5,4.9-1.7c1.7-0.6,1.9-0.6,2.4-1l1.5,3.7c-0.9,0.1-1.9,0.4-3.6,0.9c-0.4,0.1-2,0.7-4.8,1.6v0.4c0,0.8,0,0.8,0,1.3
				c0,0.3,0,0.9,0,1.3c0,0.5,0,0.8,0,1.1c0,0.7,0,1.2,0.1,1.7l-3.7,0.1c0.1-0.6,0.2-2.2,0.2-3.7c0-0.4,0-0.4,0-0.8
				c-1.6,0.7-2.4,1.2-3.1,1.7c-1.1,0.8-1.7,1.7-1.7,2.6c0,1.7,1.5,2.3,5.4,2.3c3.8,0,7.1-0.5,9.4-1.3l0.3,4.1c-0.5,0-0.7,0-1.5,0.1
				c-2.3,0.4-5.4,0.6-8.2,0.6c-3.4,0-5.5-0.4-7.1-1.3c-1.5-0.8-2.3-2.4-2.3-4.1c0-1.3,0.4-2.3,1.4-3.6c1.4-1.8,3.3-3,6.9-4.5
				c-0.2-1.2-0.8-1.7-2-1.7c-1.9,0-4.1,1.1-6.6,3.3c-1.3,1.1-2.1,1.9-2.8,2.9l-2.9-2.9c0.8-0.6,1.8-1.5,2.9-2.8
				c1.2-1.5,3.2-4.3,3.8-5.5c0.1-0.3,0.1-0.3,0.3-0.4c-0.1,0-0.5,0-0.5,0c-0.5,0-3.3-0.1-4-0.1c-0.6,0-0.6,0-0.9,0
				c-0.1,0-0.3,0-0.5,0L353,49.3z"/>
			<path d="M390,68c1,1.8,2,2.5,4,2.8c-0.4-0.6-1.2-1.5-2.1-2.2c2.2-0.7,3.6-1.4,4.8-2.5h-3.6c-1.2,0-1.7,0-2.5,0.2v-2.9
				c0.7,0.1,1.2,0.2,2.5,0.2h2.4v-2h-0.7c-1.6,0-2.2,0-3,0.1v-2.8c0.8,0.1,1.3,0.1,3,0.1h0.7c0-0.8-0.1-1.1-0.1-1.6h3.5
				c-0.1,0.5-0.1,0.9-0.1,1.6h4.3c0-0.8-0.1-1.1-0.1-1.6h3.5c-0.1,0.5-0.1,0.9-0.2,1.6h1.7c1.6,0,2.2,0,3-0.1v2.8
				c-0.8-0.1-1.4-0.1-3-0.1h-1.7v2h2.5c1.7,0,2.3,0,3.1-0.1v2.9c-0.8-0.1-1.4-0.1-3.1-0.1h-3.4c1.7,1.1,3.2,1.6,6,2.2
				c-0.8,0.8-1.3,1.5-1.9,2.4c0.9-0.1,0.9-0.1,3.3-0.4c-0.6,1.5-0.7,1.9-1,3.7c-2.8,0.1-6.9,0.2-11,0.2c-5,0-6.8-0.2-8.4-0.7
				c-1.6-0.5-2.8-1.4-3.9-2.9c-1.3,1.2-1.8,1.7-3.1,2.7c-0.6,0.5-0.9,0.7-1.4,1.2l-1.6-3.6c1.2-0.5,2.5-1.4,4.4-3.1v-6.9H385
				c-0.9,0-1.3,0-2.1,0.2v-3.5c0.8,0.1,1.4,0.2,2.6,0.2h2.3c1.1,0,1.6,0,2.4-0.1c-0.1,1-0.1,1.5-0.1,3.5V68z M385.5,45.9
				c2.3,2.1,3.4,3.2,4.9,5.1l-2.7,2.6c-1.7-2.3-2.5-3.3-4.8-5.3L385.5,45.9z M400.2,50.9c0,0.8,0,1.3,0.1,1.7
				c-0.8-0.1-1.3-0.1-2-0.1h-4.1v1c0,0.7,0.1,0.7,1.4,0.7c2.5,0,2.5,0,2.6-1.5c0.8,0.5,1.6,0.8,2.6,1c-0.2,1.8-0.5,2.4-1.4,2.7
				c-0.6,0.2-1.6,0.3-4.2,0.3c-3.3,0-3.9-0.3-3.9-2V52c0-0.9,0-1.3-0.1-1.9c0.6,0.1,1.1,0.1,2.2,0.1h3.8v-1.3h-3.7
				c-1.3,0-1.8,0-2.6,0.1v-2.8c0.7,0.1,1.6,0.1,2.6,0.1h4c1.5,0,2.2,0,2.8-0.1c-0.1,0.5-0.1,0.7-0.1,1.8V50.9z M399.8,67.4
				c-2.3,2-3.2,2.6-5.2,3.5c1.5,0.2,3.4,0.2,5.5,0.2c2.3,0,5.2-0.1,8.1-0.3c-2.4-0.8-4.2-1.9-6-3.4l2-1.3h-6.3L399.8,67.4z
				 M398.7,63.5h4.4v-2h-4.4V63.5z M410.9,50.9c0,0.8,0,1.3,0.1,1.7c-0.8-0.1-1.3-0.1-2-0.1h-4.1v1c0,0.4,0,0.5,0.3,0.6
				c0.2,0.1,0.7,0.1,1.5,0.1c2.3,0,2.4,0,2.4-1.6c1,0.5,1.6,0.8,2.8,1.1c-0.3,1.8-0.5,2.3-1.2,2.6c-0.6,0.3-1.9,0.4-4.4,0.4
				c-2.2,0-3-0.1-3.5-0.3c-0.7-0.3-0.9-0.8-0.9-1.8v-2.5c0-1.3,0-1.3-0.1-1.4c0-0.4,0-0.4,0-0.7c0.6,0.1,1.1,0.1,2.2,0.1h3.8v-1.3
				h-3.6c-1.3,0-1.8,0-2.6,0.1v-2.8c0.7,0.1,1.6,0.1,2.6,0.1h3.9c1.5,0,2.2,0,2.8-0.1c-0.1,0.4-0.1,0.8-0.1,1.8V50.9z"/>
			<path d="M417.7,54.5c-0.7,0-1.4,0-2.6,0.2v-3.4c0.8,0.2,1.5,0.2,2.6,0.2h1.4v-2.7c0-1.5,0-2.3-0.2-3.2h3.7
				c-0.2,0.9-0.2,1.7-0.2,3.2v2.7h1.3c0.8,0,1.4,0,2.1-0.2v3.4c-0.7-0.1-1.4-0.1-2.1-0.1h-1.3v4.9c1-0.3,1.4-0.5,3.3-1.2v3.1
				c-1.5,0.6-2,0.8-3.3,1.2v9.1c0,1.2-0.3,2-1.1,2.5c-0.6,0.4-1.6,0.6-3.4,0.6c-0.7,0-1.2,0-2.3-0.1c-0.2-1.5-0.3-2.1-0.7-3.4
				c1.4,0.2,2.2,0.2,3.2,0.2c0.8,0,1-0.2,1-1v-6.8l-2.6,0.8c-0.4,0.1-0.5,0.2-1,0.4l-0.7-3.6c1.2-0.1,1.8-0.3,4.3-1v-6H417.7z
				 M430.5,59.8c-0.4,7.2-1.8,11.1-5.1,15c-1.1-1.3-1.6-1.9-2.7-2.8c1.6-1.7,2.7-3.4,3.4-5.5c0.9-2.7,1.2-6.6,1.2-14.7
				c0-2.6,0-3.7-0.1-5.1c1,0.1,1.9,0.1,3.6,0.1h8.4c1.7,0,2.5,0,3.4-0.1c-0.1,1-0.1,1.7-0.1,3.4v6.3c0,1.9,0,2.5,0.1,3.4
				c-0.9-0.1-1.7-0.1-2.8-0.1h-2.3c0.3,2.7,0.7,4.2,1.4,5.7c1.2,2.5,2.4,3.8,5.4,6.1c-1.1,1.2-1.7,2-2.5,3.4c-3-2.6-4.5-4.7-5.8-7.7
				c-0.9-2-1.3-4-1.7-7.5H430.5z M439,56.6v-6.5h-8.4v2c0,1.2,0,1.5-0.1,4.5H439z"/>
		</g>
		<g>
			<path style="&st2;" d="M190.6,24.1v31.2h-43.2V24.1H190.6 M192.6,22.1h-47.2v35.2h47.2V22.1L192.6,22.1z"/>
			<path style="&st2;" d="M243.1,24.1v31.2h-43.2V24.1H243.1 M245.1,22.1h-47.2v35.2h47.2V22.1L245.1,22.1z"/>
			<path style="&st2;" d="M190.6,64.7v31.2h-43.2V64.7H190.6 M192.6,62.7h-47.2v35.2h47.2V62.7L192.6,62.7z"/>
			<g>
				<ellipse style="&st2;" cx="168.5" cy="37.2" rx="2.6" ry="2.7"/>
			</g>
			<path style="&st2;" d="M173.8,48.8v-0.5c0-3.9-2.4-7.1-5.3-7.1c-2.9,0-5.3,3.2-5.3,7.1v0.5H173.8z"/>
			<polygon style="&st2;" points="221.8,33.9 223.6,37.5 227.6,38.1 224.7,41 225.4,45 221.8,43.1 218.2,45 218.8,41 215.9,38.1 
				220,37.5 			"/>
			<g>
				<path style="&st2;" d="M169.4,78.8c0.4-1.2,1.3-1.8,2.4-1.8c1.3,0,2.3,1.1,2.3,2.4c0,1.6-0.9,2.7-1.7,3.8
					c-0.8,1-2.5,2.8-2.9,3.2h0c-0.4-0.4-2.1-2.2-2.9-3.2c-0.9-1.1-1.7-2.2-1.7-3.8c0-1.3,1-2.4,2.3-2.4
					C168.1,77,169,77.6,169.4,78.8L169.4,78.8z"/>
			</g>
			<path style="&st2;" d="M243.4,64.7v31.2h-43.2V64.7H243.4 M245.4,62.7h-47.2v35.2h47.2V62.7L245.4,62.7z"/>
			<path style="&st2;" d="M224.8,82c0,1.7-1.4,3.1-3.1,3.1c-1.7,0-3.1-1.4-3.1-3.1c0-1.7,3.1-7,3.1-7S224.8,80.3,224.8,82z"/>
		</g>
	</g>
	<g>
		<path style="&st0;" d="M666,1045.1H4c-2.2,0-4-1.8-4-4v-112c0-2.2,1.8-4,4-4h662c2.2,0,4,1.8,4,4v112
			C670,1043.3,668.2,1045.1,666,1045.1z"/>
		<g>
			<path style="&st1;" d="M42.7,986.3c0.1,0.9,0.2,1.3,0.6,1.8c0.6,0.8,1.6,1.2,2.9,1.2c2,0,3.2-0.9,3.2-2.4c0-0.8-0.4-1.5-1-1.8
				c-0.6-0.3-0.7-0.3-3.5-1c-1.5-0.3-2.3-0.7-3-1.2c-1-0.8-1.5-1.9-1.5-3.2c0-2.8,2.2-4.6,5.7-4.6c2.3,0,4,0.7,5,2
				c0.5,0.7,0.7,1.3,1,2.3l-2.9,0.3c-0.1-0.7-0.3-1-0.6-1.4c-0.5-0.6-1.4-1-2.5-1c-1.7,0-2.9,0.9-2.9,2.2c0,0.8,0.4,1.4,1.4,1.8
				c0.4,0.2,0.6,0.2,2.8,0.7c1.6,0.3,2.5,0.7,3.3,1.2c1.1,0.8,1.7,1.9,1.7,3.4c0,1.4-0.4,2.6-1.3,3.4c-1.1,1-2.6,1.5-4.8,1.5
				c-1.6,0-3.2-0.4-4.2-1c-0.8-0.5-1.4-1.3-1.8-2.3c-0.2-0.5-0.3-0.8-0.4-1.7L42.7,986.3z"/>
			<path style="&st1;" d="M58.7,976.7c-0.1,0.7-0.1,1.6-0.1,2.5v0.6h0.8c0.9,0,1.4,0,2-0.1v2.4c-0.7-0.1-1-0.1-2-0.1h-0.9v6.2
				c0,1,0.4,1.3,1.3,1.3c0.5,0,0.8-0.1,1.5-0.4l0.4,2.1c-0.9,0.3-1.5,0.4-2.5,0.4c-2.3,0-3.2-0.8-3.2-2.9v-6.7h-0.8
				c-0.7,0-1.1,0-1.8,0.1v-2.4c0.6,0.1,1,0.1,1.8,0.1h0.7v-0.6c0-0.9-0.1-1.7-0.1-2.5H58.7z"/>
			<path style="&st1;" d="M65.2,986.2c0.1,1.1,0.3,1.7,0.7,2.2c0.6,0.7,1.5,1.1,2.5,1.1c1,0,1.8-0.4,2.4-1c0.2-0.3,0.4-0.5,0.6-1
				l2.4,0.8c-0.5,1-0.7,1.3-1.2,1.8c-1,1-2.4,1.5-4.1,1.5c-3.5,0-5.8-2.4-5.8-6.1c0-3.7,2.2-6.1,5.6-6.1c2.3,0,4.2,1.2,5,3.2
				c0.4,1,0.5,1.7,0.6,3c0,0,0,0.1,0,0.6H65.2z M71.3,984.2c-0.1-0.9-0.4-1.4-0.9-1.9c-0.5-0.5-1.2-0.8-2.2-0.8c-1.6,0-2.7,1-3,2.7
				H71.3z"/>
			<path style="&st1;" d="M78.5,980.8c0,0.2,0,0.4,0,0.7c1.1-1.4,2.3-2,4.1-2c1.6,0,2.9,0.5,3.8,1.4c1.1,1.1,1.6,2.6,1.6,4.6
				c0,3.7-2,5.9-5.4,5.9c-1.8,0-3.1-0.6-4-1.9c0,0.2,0,0.2,0,0.6c0,0.1,0,0.5,0,0.9v1.5c0,1.2,0,1.8,0.1,2.7h-2.8
				c0.1-0.9,0.1-1.6,0.1-2.6v-10.1c0-1.2,0-1.8-0.1-2.7h2.7V980.8z M82.1,981.6c-2,0-3.5,1.6-3.5,3.8c0,2.3,1.5,3.9,3.6,3.9
				c2,0,3.2-1.5,3.2-3.8S84.1,981.6,82.1,981.6z"/>
			<path style="&st1;" d="M105.7,979.2c-0.5-1.5-1.3-2-2.7-2c-1.4,0-2.5,0.7-3.1,2.1c-0.5,1-0.7,2-0.8,3.5c1.1-1.5,2.3-2,4.3-2
				c2,0,3.8,0.9,4.6,2.4c0.5,0.8,0.7,1.8,0.7,3c0,3.2-2.4,5.4-5.8,5.4c-1.6,0-3.1-0.5-4.1-1.3c-1.5-1.3-2.3-3.7-2.3-6.7
				c0-2.5,0.6-4.8,1.6-6.2c1.2-1.6,2.8-2.4,4.9-2.4c1.7,0,3.1,0.5,4.1,1.5c0.5,0.5,0.8,1,1.3,2L105.7,979.2z M99.5,986.2
				c0,1.8,1.4,3.2,3.4,3.2c1.2,0,2.2-0.5,2.7-1.4c0.3-0.5,0.5-1.1,0.5-1.8c0-2-1.2-3.1-3.2-3.1C100.9,983,99.5,984.4,99.5,986.2z"/>
		</g>
		<g>
			<path d="M292.3,993.3c-0.9,3-1.6,4.4-3,6.5c-1.1-1-1.7-1.4-2.6-1.9c1.5-2,2.2-3.4,2.9-6L292.3,993.3z M290.1,991.8
				c-1.1,0-1.7,0-2.3,0.1c0.1-0.9,0.1-2.2,0.1-3.4v-13.9c0-1.4,0-2.1-0.1-3.2c0.7,0.1,1.5,0.1,2.7,0.1h3.8c1.2,0,1.9,0,2.5-0.1
				c-0.1,0.7-0.1,1.3-0.1,2.9v14.6c0,1.9,0,2.3,0.1,3c-0.7-0.1-1.2-0.1-2.2-0.1H290.1z M290.8,977.4h3v-2.9h-3V977.4z M290.8,982.9
				h3v-2.8h-3V982.9z M290.8,988.8h3v-3.1h-3V988.8z M295.2,992c0.7,2.2,1.4,3.6,2.7,5.3c-0.8,0.4-1.3,0.7-2.5,1.8
				c-1.2-2-1.8-3.4-2.7-5.8L295.2,992z M300.1,982.9c-1.2,0-1.8,0-2.6,0.2v-2.8c0.8,0.1,1.4,0.2,2.6,0.2h1.5v-1.5h-0.9
				c-0.9,0-1.7,0-2.2,0.1v-2.6c0.7,0.1,0.7,0.1,2.2,0.1h0.9v-1.4h-1.4c-1,0-1.6,0-2.4,0.1v-2.7c0.7,0.1,1.3,0.2,2.5,0.2h1.3
				c0-1.2,0-1.6-0.2-2.2h3.5c-0.2,0.6-0.2,1-0.2,2.2h3.7c0-1.4,0-1.6-0.2-2.2h3.5c-0.1,0.6-0.2,1.2-0.2,2.2h1.9c1.1,0,1.7,0,2.3-0.2
				v2.7c-0.8-0.1-1.3-0.1-2.3-0.1h-2v1.4h1.4c0.9,0,1.6,0,2.2-0.1v2.6c-0.6-0.1-1.3-0.1-2.2-0.1h-1.3v1.5h2.1c1.3,0,1.9,0,2.6-0.2
				v2.8c-0.7-0.1-1.3-0.2-2.6-0.2H308v1.4h3.7c1.3,0,2.1,0,3-0.1c-0.1,0.4-0.1,1.7-0.1,2.7v5.1c0.8,0,1.2-0.1,1.7-0.2v2.8
				c-0.6-0.1-0.8-0.1-1.7-0.1v2.2c0,2.4-0.7,3-3.6,3c-0.9,0-1.7,0-2.9-0.1c-0.2-1.6-0.2-1.9-0.5-2.8c1.1,0.2,2,0.2,2.7,0.2
				c1.1,0,1.3-0.1,1.3-0.7v-1.7h-9.5v1.4c0,2.2,0,2.8,0.1,3.9h-3.4c0.1-1.2,0.2-1.9,0.2-3.9v-1.4c-0.7,0-1.2,0-1.8,0.2v-2.9
				c0.6,0.1,1,0.1,1.8,0.2v-4.8c0-1.3,0-2-0.1-2.9c0.8,0.1,1.6,0.1,3,0.1h3.2v-1.4H300.1z M305,986.7h-3.1v1.5h3.1V986.7z
				 M305,990.4h-3.1v1.5h3.1V990.4z M304.7,976.6h3.7v-1.4h-3.7V976.6z M304.7,980.4h3.7v-1.5h-3.7V980.4z M311.5,988.2v-1.5H308
				v1.5H311.5z M311.5,992v-1.5H308v1.5H311.5z"/>
			<path d="M327.5,975.3c-0.9,0-1.8,0.1-3.1,0.2v-3.8c0.9,0.1,1.6,0.2,3,0.2h5.1c1.3,0,2.2,0,2.9-0.2c-0.1,0.9-0.1,1.2-0.1,2
				c0,4.5,1.2,8.8,3.4,12.7c1.3,2.2,2.9,4.2,5.1,6.1c1.6,1.5,2.6,2.2,4.7,3.5c-1.2,1.2-1.8,2-2.7,3.6c-3.2-2.2-5.6-4.6-7.8-7.5
				c-1.2-1.6-1.9-2.8-2.8-4.7c-0.8-1.8-1.1-2.6-1.6-4.5c-1.2,4.1-2.4,6.8-4.6,9.7c-2,2.7-4.4,4.9-7.9,7.2c-0.7-1.4-1.4-2.4-2.6-3.4
				c2.7-1.6,4.3-2.8,6.4-5c2.5-2.6,4.4-6,5.5-9.5c0.6-2.2,0.9-3.9,1.1-6.5H327.5z"/>
			<path d="M355,987.7c-1.6,0-2.5,0.1-3.4,0.2v-3.5c0.9,0.2,1.8,0.2,3.4,0.2h21c1.6,0,2.5,0,3.4-0.2v3.5c-1-0.1-1.9-0.2-3.4-0.2H370
				v7.3c0,0.8,0.4,0.9,3.1,0.9c2.4,0,3.1-0.2,3.3-0.9c0.2-0.4,0.3-1.6,0.3-2.7c0-0.1,0-0.3,0-0.5c1.4,0.6,2,0.8,3.3,1
				c-0.1,3.2-0.5,4.6-1.5,5.4c-0.9,0.8-2.2,1-6.3,1c-4.8,0-5.7-0.4-5.7-2.8v-8.7H363c-0.3,3-0.6,4.3-1.6,6.1
				c-1.6,2.8-3.6,4.2-8.8,6.1c-0.5-1.2-1.1-2.2-2-3.3c2.7-0.8,3.6-1.2,4.9-1.9c2.1-1.2,3.4-3,3.8-5.3c0.1-0.5,0.1-0.8,0.2-1.7H355z
				 M363.3,972.6c0-0.9-0.1-1.7-0.2-2.3h3.9c-0.1,0.6-0.2,1.4-0.2,2.3v0.8h8.9c1.6,0,2.5,0,3.6-0.1c-0.1,0.7-0.1,1.3-0.1,2.4v2.6
				c0,1,0,1.8,0.1,2.5h-3.5v-4.3H355v4.3h-3.5c0.1-0.7,0.2-1.4,0.2-2.5v-2.6c0-1.1,0-1.7-0.1-2.4c1,0.1,1.9,0.1,3.5,0.1h8.3V972.6z
				 M356.1,978.8c0.9,0.1,1.6,0.2,3,0.2h12.5c1.4,0,2.2,0,3.1-0.2v3.4c-0.9-0.1-1.7-0.2-3.1-0.2h-12.5c-1.4,0-2.2,0-3,0.2V978.8z"/>
			<path d="M387.4,975.1c-1.8,0-3,0.1-4.4,0.2v-3.8c1.2,0.1,2.5,0.2,4.4,0.2h16.4c1.7,0,2.8-0.1,3.5-0.2l2.2,2.5
				c-0.6,0.6-0.7,0.7-1.3,1.2c-3.6,3.5-6,5.3-10.2,7.9v13c0,2.3-1.2,3.1-4.7,3.1c-1.2,0-1.6,0-4.5-0.2c-0.2-1.5-0.4-2.4-0.9-3.8
				c2.1,0.4,3.6,0.5,5,0.5c1.1,0,1.4-0.2,1.4-0.8v-12c0-1.3-0.1-2.3-0.2-3.2h2.8c2.5-1.4,4.2-2.6,6.5-4.7H387.4z"/>
		</g>
		<g>
			<path style="&st2;" d="M195.4,1010.1c-13.8,0-25-11.2-25-25s11.2-25,25-25s25,11.2,25,25S209.2,1010.1,195.4,1010.1z M195.4,962
				c-12.7,0-23.1,10.4-23.1,23.1s10.4,23.1,23.1,23.1s23.1-10.4,23.1-23.1S208.1,962,195.4,962z"/>
			<polygon style="&st2;" points="189.9,994.7 182.6,987.8 185.2,985 189.9,989.5 205.5,975.3 208.1,978.1 			"/>
		</g>
	</g>
	<polygon style="&st1;" points="360,140 335,165 310,140 	"/>
	<polygon style="&st1;" points="360,325 335,350 310,325 	"/>
	<polygon style="&st1;" points="360,510 335,535 310,510 	"/>
	<polygon style="&st1;" points="360,695 335,720 310,695 	"/>
	<polygon style="&st1;" points="360,880.1 335,905.1 310,880.1 	"/>
</g>
</svg>
