<?xml version="1.0" encoding="utf-8"?>
<!-- Generator: Adobe Illustrator 14.0.0, SVG Export Plug-In . SVG Version: 6.00 Build 43363)  -->
<!DOCTYPE svg PUBLIC "-//W3C//DTD SVG 1.1//EN" "http://www.w3.org/Graphics/SVG/1.1/DTD/svg11.dtd">
<svg version="1.1" id="レイヤー_1" xmlns="http://www.w3.org/2000/svg" xmlns:xlink="http://www.w3.org/1999/xlink" x="0px"
	 y="0px" width="612px" height="104.944px" viewBox="0 343.528 612 104.944" enable-background="new 0 343.528 612 104.944"
	 xml:space="preserve">
<g id="レイヤー_1_1_">
	<g>
		<path fill="#FFFFFF" d="M83.955,448.472H3.498c-1.924,0-3.498-1.573-3.498-3.498v-97.948c0-1.924,1.574-3.498,3.498-3.498h80.457
			c1.924,0,3.498,1.574,3.498,3.498v97.948C87.453,446.898,85.879,448.472,83.955,448.472z"/>
		<g>
			<path fill="#717272" d="M41.279,374.486v18.278H16.267v-18.278H41.279 M42.153,373.612H15.392v20.027h26.761V373.612
				L42.153,373.612z"/>
			<path fill="#717272" d="M71.012,374.486v18.278H46v-18.278H71.012 M71.887,373.612H45.126v20.027h26.761V373.612L71.887,373.612z
				"/>
			<path fill="#717272" d="M41.279,397.486v18.278H16.267v-18.278H41.279 M42.153,396.612H15.392v20.026h26.761V396.612
				L42.153,396.612z"/>
			<g>
				<ellipse fill="#717272" cx="28.51" cy="382.095" rx="1.486" ry="1.574"/>
			</g>
			<path fill="#717272" d="M31.484,388.741v-0.35c0-2.187-1.313-4.023-2.974-4.023c-1.662,0-2.974,1.836-2.974,4.023v0.35H31.484z"
				/>
			<polygon fill="#717272" points="58.681,380.258 59.731,382.357 62.004,382.707 60.343,384.281 60.693,386.555 58.681,385.505 
				56.67,386.555 57.02,384.281 55.358,382.707 57.632,382.357 			"/>
			<g>
				<path fill="#717272" d="M29.034,405.707c0.175-0.699,0.787-1.049,1.399-1.049c0.699,0,1.312,0.611,1.312,1.312
					c0,0.874-0.524,1.574-0.962,2.099c-0.438,0.612-1.399,1.574-1.661,1.837l0,0c-0.263-0.263-1.225-1.225-1.662-1.837
					c-0.524-0.611-0.962-1.225-0.962-2.099c0-0.787,0.612-1.312,1.312-1.312C28.247,404.745,28.773,405.008,29.034,405.707
					L29.034,405.707z"/>
			</g>
			<path fill="#717272" d="M71.187,397.486v18.278H46.175v-18.278H71.187 M72.062,396.612H45.301v20.026h26.761V396.612
				L72.062,396.612z"/>
			<path fill="#717272" d="M60.43,407.544c0,0.962-0.786,1.749-1.749,1.749c-0.962,0-1.749-0.787-1.749-1.749
				s1.749-3.936,1.749-3.936S60.43,406.582,60.43,407.544z"/>
		</g>
		<g>
			<path fill="#0071D0" d="M27.111,359.444c0,0.438,0.088,0.7,0.263,0.962c0.262,0.438,0.874,0.612,1.574,0.612
				c1.049,0,1.661-0.438,1.661-1.224c0-0.438-0.175-0.787-0.524-0.962c-0.35-0.175-0.35-0.175-1.837-0.524
				c-0.787-0.175-1.225-0.35-1.574-0.612c-0.524-0.437-0.787-0.962-0.787-1.662c0-1.487,1.137-2.361,2.974-2.361
				c1.225,0,2.099,0.35,2.624,1.049c0.262,0.35,0.35,0.7,0.524,1.225l-1.486,0.175c-0.088-0.35-0.176-0.524-0.351-0.787
				c-0.262-0.35-0.699-0.524-1.312-0.524c-0.874,0-1.574,0.437-1.574,1.137c0,0.438,0.263,0.787,0.7,0.962
				c0.262,0.087,0.35,0.087,1.486,0.35c0.787,0.175,1.312,0.35,1.749,0.612c0.612,0.438,0.874,1.05,0.874,1.837
				c0,0.787-0.262,1.312-0.699,1.749c-0.524,0.524-1.399,0.787-2.536,0.787c-0.874,0-1.661-0.175-2.187-0.525
				c-0.438-0.262-0.699-0.7-0.962-1.225c-0.087-0.262-0.175-0.437-0.175-0.875L27.111,359.444z"/>
			<path fill="#0071D0" d="M35.506,354.372c0,0.35-0.088,0.787-0.088,1.312v0.35h0.438c0.525,0,0.7,0,1.05-0.087v1.224
				c-0.35-0.087-0.524-0.087-1.05-0.087h-0.438v3.236c0,0.525,0.176,0.7,0.7,0.7c0.263,0,0.438-0.087,0.787-0.262l0.175,1.137
				c-0.438,0.175-0.787,0.262-1.312,0.262c-1.225,0-1.662-0.437-1.662-1.574v-3.498h-0.438c-0.35,0-0.611,0-0.962,0.087v-1.224
				c0.263,0.087,0.525,0.087,0.962,0.087h0.438v-0.35c0-0.438,0-0.875-0.087-1.312H35.506z"/>
			<path fill="#0071D0" d="M38.917,359.357c0.087,0.612,0.175,0.875,0.35,1.137c0.262,0.35,0.787,0.612,1.312,0.612
				s0.962-0.175,1.225-0.525c0.087-0.175,0.175-0.262,0.262-0.524l1.225,0.437c-0.262,0.525-0.35,0.7-0.612,0.962
				c-0.524,0.524-1.312,0.787-2.186,0.787c-1.837,0-3.062-1.225-3.062-3.236c0-1.924,1.137-3.236,2.974-3.236
				c1.225,0,2.187,0.612,2.624,1.662c0.175,0.524,0.262,0.875,0.262,1.574c0,0,0,0.087,0,0.262h-4.372V359.357z M42.153,358.308
				c-0.088-0.438-0.175-0.787-0.438-1.05c-0.262-0.262-0.612-0.437-1.137-0.437c-0.787,0-1.399,0.525-1.574,1.399h3.148V358.308z"/>
			<path fill="#0071D0" d="M45.913,356.559c0,0.087,0,0.262,0,0.35c0.612-0.7,1.225-1.049,2.099-1.049
				c0.875,0,1.486,0.262,2.012,0.7c0.524,0.524,0.787,1.312,0.787,2.449c0,1.924-1.05,3.061-2.887,3.061
				c-0.962,0-1.573-0.35-2.099-1.049c0,0.087,0,0.087,0,0.35c0,0.088,0,0.263,0,0.438v0.787c0,0.612,0,0.962,0.088,1.399h-1.487
				c0.088-0.525,0.088-0.875,0.088-1.399v-5.247c0-0.612,0-0.962-0.088-1.399h1.399v0.612H45.913z M47.837,356.996
				c-1.05,0-1.837,0.875-1.837,2.012c0,1.224,0.787,2.011,1.837,2.011s1.661-0.787,1.661-2.011
				C49.498,357.783,48.887,356.996,47.837,356.996z"/>
			<path fill="#0071D0" d="M57.982,362.068c0.088-0.437,0.088-0.787,0.088-1.399v-5.772h-0.525c-0.35,0-0.699,0-1.049,0.087v-1.312
				c0.35,0.087,0.524,0.087,1.049,0.087h0.962c0.525,0,0.7,0,1.05-0.087c-0.088,0.612-0.088,1.137-0.088,1.749v5.335
				c0,0.524,0,0.962,0.088,1.399h-1.574V362.068z"/>
		</g>
		<g>
			<path d="M21.689,426.871c-0.088,0.263-0.175,0.35-0.263,0.612c-0.175,0.438-0.175,0.438-0.699,1.661v5.772
				c0,0.524,0,0.874,0.087,1.312h-1.225c0.088-0.438,0.088-0.787,0.088-1.312v-2.974c0-0.263,0-0.35,0-1.225
				c-0.35,0.525-0.612,0.787-1.05,1.225c-0.175-0.524-0.262-0.787-0.524-1.225c0.787-0.699,1.486-1.661,2.012-2.886
				c0.262-0.524,0.35-0.962,0.438-1.399L21.689,426.871z M23.35,429.145c-0.438,0.962-1.049,1.749-1.749,2.536
				c-0.262-0.437-0.438-0.611-0.787-0.962c0.787-0.787,1.313-1.574,1.749-2.711c0.263-0.612,0.438-1.137,0.438-1.486l1.225,0.35
				c-0.088,0.263-0.175,0.35-0.175,0.524c-0.175,0.438-0.175,0.438-0.263,0.7h2.886c0.525,0,0.875,0,1.137-0.088v1.225
				c-0.262,0-0.699-0.088-1.137-0.088h-2.011v1.313h1.749c0.437,0,0.699,0,1.049-0.088v1.137c-0.35,0-0.612-0.087-1.049-0.087
				h-1.662v1.312h1.749c0.438,0,0.7,0,1.05-0.088v1.138c-0.35,0-0.612-0.088-1.05-0.088h-1.749v1.225c0,0.612,0,0.962,0.088,1.225
				h-1.313c0.088-0.263,0.088-0.612,0.088-1.225v-5.947H23.35V429.145z"/>
			<path d="M29.034,432.468c0-0.35,0-0.699,0-1.049c0.35,0,0.612,0,1.05,0h2.273c0.263,0,0.524,0,0.787,0c0,0.262,0,0.35,0,0.874
				v2.799c0,0.438,0,0.699,0,0.962h-1.137v-0.35h-1.837v0.524h-1.137c0-0.263,0.088-0.612,0.088-1.137v-2.624H29.034z
				 M30.171,434.742h1.837v-2.187h-1.837V434.742z M30.434,427.833c0-0.35,0-0.699,0-0.962c0.35,0,0.612,0.088,1.225,0.088h3.936
				c0.611,0,0.962,0,1.224-0.088c0,0.263,0,0.524,0,0.962v1.924c0,0.438,0,0.7,0,0.962c-0.35,0-0.524,0-1.049,0h-4.285
				c-0.525,0-0.787,0-1.05,0c0-0.262,0-0.612,0-0.962V427.833z M31.571,429.67h4.023v-1.662h-4.023V429.67z M37.168,431.506
				c0.437,0,0.699,0,0.962,0c0,0.263,0,0.612,0,1.05v2.711c0,0.524,0,0.875,0.087,1.137H37.08v-0.524h-2.099v0.524h-1.137
				c0-0.262,0-0.524,0-0.962v-3.061c0-0.438,0-0.612,0-0.875c0.262,0,0.437,0,0.787,0H37.168z M34.982,434.742h2.011v-2.187h-2.011
				V434.742z"/>
			<path d="M39.704,427.921c0.437,0.087,1.137,0.175,2.448,0.175c0.263-0.612,0.35-0.962,0.438-1.313l1.399,0.176
				c-0.088,0.087-0.088,0.087-0.438,0.962c-0.088,0.087-0.088,0.175-0.088,0.175c0.088,0,0.088,0,0.7,0
				c1.224-0.088,2.187-0.175,2.711-0.35l0.087,1.224c-0.262,0-0.262,0-0.787,0.088c-0.787,0.087-2.099,0.175-3.147,0.175
				c-0.263,0.612-0.612,1.05-0.963,1.399l0,0c0.088-0.088,0.088-0.088,0.176-0.175c0.35-0.263,0.962-0.438,1.486-0.438
				c0.787,0,1.312,0.35,1.486,1.137c0.787-0.263,1.313-0.524,1.574-0.524c0.525-0.175,0.612-0.175,0.787-0.35l0.525,1.224
				c-0.263,0-0.612,0.088-1.138,0.263c-0.175,0-0.699,0.263-1.574,0.524v0.088c0,0.262,0,0.262,0,0.438c0,0.087,0,0.262,0,0.437
				s0,0.263,0,0.351c0,0.262,0,0.35,0,0.524h-1.224c0-0.175,0.087-0.7,0.087-1.225c0-0.175,0-0.175,0-0.263
				c-0.524,0.263-0.787,0.351-1.049,0.525c-0.351,0.262-0.525,0.524-0.525,0.874c0,0.525,0.525,0.787,1.749,0.787
				c1.225,0,2.361-0.175,3.062-0.437l0.087,1.312c-0.175,0-0.262,0-0.524,0c-0.787,0.087-1.749,0.175-2.711,0.175
				c-1.137,0-1.837-0.088-2.361-0.438c-0.524-0.263-0.787-0.787-0.787-1.312c0-0.438,0.088-0.787,0.438-1.137
				c0.437-0.612,1.049-0.962,2.273-1.487c-0.087-0.35-0.263-0.524-0.612-0.524c-0.612,0-1.312,0.35-2.187,1.05
				c-0.437,0.35-0.699,0.611-0.874,0.962l-0.962-0.962c0.262-0.176,0.612-0.525,0.962-0.962c0.438-0.525,1.05-1.399,1.225-1.837
				c0-0.088,0-0.088,0.087-0.175h-0.175c-0.175,0-1.05,0-1.312,0c-0.175,0-0.175,0-0.263,0c0,0-0.087,0-0.175,0L39.704,427.921z"/>
			<path d="M51.423,434.042c0.35,0.612,0.699,0.787,1.312,0.962c-0.088-0.175-0.35-0.524-0.7-0.699
				c0.7-0.263,1.138-0.438,1.574-0.787h-1.137c-0.35,0-0.524,0-0.787,0.088v-0.963c0.263,0,0.438,0.088,0.787,0.088h0.787v-0.612
				h-0.262c-0.525,0-0.7,0-0.963,0v-0.962c0.263,0,0.438,0,0.963,0h0.262c0-0.263,0-0.35,0-0.524h1.137c0,0.175,0,0.262,0,0.524
				h1.399c0-0.263,0-0.35,0-0.524h1.05c0,0.175,0,0.262-0.088,0.524h0.525c0.524,0,0.699,0,0.962,0v0.962c-0.263,0-0.438,0-0.962,0
				h-0.525v0.612h0.787c0.525,0,0.787,0,1.05,0v0.962c-0.263,0-0.438,0-1.05,0h-1.137c0.524,0.35,1.05,0.524,1.924,0.7
				c-0.262,0.262-0.438,0.524-0.612,0.787c0.263,0,0.263,0,1.05-0.088c-0.175,0.524-0.263,0.612-0.35,1.225
				c-0.962,0-2.274,0.087-3.586,0.087c-1.661,0-2.273-0.087-2.799-0.262c-0.524-0.176-0.874-0.438-1.312-0.962
				c-0.438,0.437-0.612,0.524-1.049,0.874c-0.176,0.175-0.263,0.263-0.438,0.35l-0.525-1.224c0.438-0.176,0.787-0.438,1.487-1.05
				v-2.274h-0.524c-0.263,0-0.438,0-0.7,0.088v-1.137c0.263,0,0.438,0.087,0.875,0.087h0.874c0.35,0,0.524,0,0.787,0
				c0,0.351,0,0.525,0,1.138v2.011H51.423z M50.024,426.783c0.787,0.7,1.137,1.05,1.574,1.662l-0.875,0.874
				c-0.524-0.786-0.787-1.049-1.574-1.749L50.024,426.783z M54.746,428.445c0,0.263,0,0.438,0,0.524c-0.263,0-0.438,0-0.7,0h-1.312
				v0.263c0,0.263,0,0.263,0.438,0.263c0.787,0,0.787,0,0.874-0.525c0.263,0.175,0.524,0.263,0.875,0.351
				c-0.088,0.611-0.175,0.786-0.438,0.874c-0.175,0.088-0.524,0.088-1.399,0.088c-1.05,0-1.312-0.088-1.312-0.7v-0.874
				c0-0.263,0-0.438,0-0.612c0.175,0,0.35,0,0.699,0h1.225v-0.438h-1.225c-0.438,0-0.612,0-0.874,0v-0.962c0.262,0,0.524,0,0.874,0
				h1.313c0.524,0,0.699,0,0.962,0c0,0.175,0,0.263,0,0.612V428.445z M54.658,433.867c-0.787,0.7-1.05,0.875-1.749,1.137
				c0.524,0.088,1.137,0.088,1.837,0.088c0.787,0,1.661,0,2.623-0.088c-0.787-0.262-1.399-0.611-2.012-1.137l0.612-0.438h-2.099
				L54.658,433.867z M54.309,432.556h1.399v-0.612h-1.399V432.556z M58.244,428.445c0,0.263,0,0.438,0,0.524c-0.263,0-0.438,0-0.7,0
				h-1.312v0.263c0,0.175,0,0.175,0.088,0.175c0.087,0,0.262,0,0.524,0c0.787,0,0.787,0,0.787-0.524
				c0.35,0.175,0.524,0.262,0.962,0.35c-0.088,0.612-0.175,0.787-0.35,0.874c-0.175,0.088-0.612,0.088-1.487,0.088
				c-0.699,0-0.962,0-1.137-0.088c-0.263-0.087-0.263-0.262-0.263-0.611v-0.787c0-0.438,0-0.438,0-0.438c0-0.088,0-0.088,0-0.263
				c0.176,0,0.351,0,0.7,0h1.225v-0.438h-1.138c-0.437,0-0.611,0-0.874,0v-0.962c0.263,0,0.524,0,0.874,0h1.313
				c0.524,0,0.699,0,0.962,0c0,0.175,0,0.263,0,0.612v1.225H58.244z"/>
			<path d="M60.518,429.582c-0.263,0-0.438,0-0.874,0.088v-1.137c0.262,0.087,0.524,0.087,0.874,0.087h0.438v-0.874
				c0-0.525,0-0.787-0.088-1.05h1.225c0,0.263,0,0.524,0,1.05v0.874h0.438c0.262,0,0.438,0,0.699-0.087v1.137
				c-0.262,0-0.438,0-0.699,0h-0.438v1.574c0.35-0.088,0.438-0.175,1.05-0.351v1.05c-0.525,0.175-0.612,0.263-1.05,0.438v2.974
				c0,0.437-0.088,0.611-0.35,0.787c-0.175,0.175-0.525,0.175-1.137,0.175c-0.263,0-0.438,0-0.787,0
				c-0.088-0.525-0.088-0.7-0.263-1.137c0.438,0.087,0.699,0.087,1.05,0.087c0.262,0,0.35-0.087,0.35-0.35v-2.187l-0.875,0.263
				c-0.175,0-0.175,0.087-0.35,0.087l-0.263-1.137c0.438,0,0.612-0.088,1.399-0.35v-1.924h-0.35V429.582z M64.716,431.331
				c-0.176,2.361-0.612,3.673-1.662,4.897c-0.35-0.438-0.524-0.612-0.874-0.874c0.524-0.525,0.874-1.138,1.137-1.837
				c0.262-0.875,0.437-2.187,0.437-4.81c0-0.875,0-1.225,0-1.662c0.351,0,0.612,0,1.225,0h2.799c0.524,0,0.787,0,1.137,0
				c0,0.35,0,0.524,0,1.137v2.1c0,0.611,0,0.787,0,1.137c-0.263,0-0.524,0-0.874,0h-0.787c0.087,0.874,0.262,1.399,0.437,1.836
				c0.351,0.787,0.787,1.225,1.749,2.012c-0.35,0.35-0.524,0.699-0.787,1.137c-0.962-0.874-1.486-1.574-1.924-2.536
				c-0.262-0.612-0.437-1.312-0.524-2.448h-1.486V431.331z M67.514,430.282v-2.1h-2.711v0.7c0,0.35,0,0.524,0,1.486h2.711V430.282z"
				/>
		</g>
	</g>
	<g>
		<path fill="#FFFFFF" d="M188.812,448.472h-80.457c-1.924,0-3.498-1.573-3.498-3.498v-97.948c0-1.924,1.574-3.498,3.498-3.498
			h80.457c1.925,0,3.499,1.574,3.499,3.498v97.948C192.311,446.898,190.737,448.472,188.812,448.472z"/>
		<g>
			<path fill="#0071D0" d="M131.967,359.444c0,0.438,0.088,0.7,0.263,0.962c0.263,0.438,0.875,0.612,1.574,0.612
				c1.05,0,1.661-0.438,1.661-1.224c0-0.438-0.175-0.787-0.524-0.962c-0.35-0.175-0.35-0.175-1.836-0.524
				c-0.787-0.175-1.225-0.35-1.574-0.612c-0.525-0.437-0.787-0.962-0.787-1.662c0-1.487,1.137-2.361,2.973-2.361
				c1.225,0,2.1,0.35,2.624,1.049c0.263,0.35,0.35,0.7,0.524,1.225l-1.486,0.175c-0.088-0.35-0.175-0.524-0.35-0.787
				c-0.263-0.35-0.7-0.524-1.313-0.524c-0.874,0-1.574,0.437-1.574,1.137c0,0.438,0.263,0.787,0.7,0.962
				c0.263,0.087,0.35,0.087,1.486,0.35c0.787,0.175,1.313,0.35,1.749,0.612c0.612,0.438,0.875,1.05,0.875,1.837
				c0,0.787-0.263,1.312-0.7,1.749c-0.524,0.524-1.398,0.787-2.536,0.787c-0.874,0-1.661-0.175-2.186-0.525
				c-0.438-0.262-0.7-0.7-0.962-1.225c-0.088-0.262-0.176-0.437-0.176-0.875L131.967,359.444z"/>
			<path fill="#0071D0" d="M140.363,354.372c0,0.35-0.087,0.787-0.087,1.312v0.35h0.438c0.524,0,0.699,0,1.049-0.087v1.224
				c-0.35-0.087-0.524-0.087-1.049-0.087h-0.438v3.236c0,0.525,0.175,0.7,0.699,0.7c0.263,0,0.438-0.087,0.787-0.262l0.175,1.137
				c-0.437,0.175-0.787,0.262-1.312,0.262c-1.225,0-1.661-0.437-1.661-1.574v-3.498h-0.438c-0.35,0-0.612,0-0.962,0.087v-1.224
				c0.262,0.087,0.524,0.087,0.962,0.087h0.35v-0.35c0-0.438,0-0.875-0.088-1.312H140.363z"/>
			<path fill="#0071D0" d="M143.774,359.357c0.088,0.612,0.175,0.875,0.35,1.137c0.263,0.35,0.787,0.612,1.312,0.612
				c0.525,0,0.963-0.175,1.225-0.525c0.088-0.175,0.175-0.262,0.263-0.524l1.225,0.437c-0.263,0.525-0.351,0.7-0.612,0.962
				c-0.525,0.524-1.313,0.787-2.187,0.787c-1.837,0-3.061-1.225-3.061-3.236c0-1.924,1.137-3.236,2.973-3.236
				c1.225,0,2.187,0.612,2.624,1.662c0.175,0.524,0.263,0.875,0.263,1.574c0,0,0,0.087,0,0.262h-4.373V359.357z M146.922,358.308
				c-0.088-0.438-0.175-0.787-0.438-1.05c-0.263-0.262-0.612-0.437-1.137-0.437c-0.787,0-1.399,0.525-1.574,1.399h3.148V358.308z"/>
			<path fill="#0071D0" d="M150.77,356.559c0,0.087,0,0.262,0,0.35c0.612-0.7,1.225-1.049,2.099-1.049
				c0.875,0,1.487,0.262,2.012,0.7c0.524,0.524,0.787,1.312,0.787,2.449c0,1.924-1.05,3.061-2.886,3.061
				c-0.962,0-1.574-0.35-2.099-1.049c0,0.087,0,0.087,0,0.35c0,0.088,0,0.263,0,0.438v0.787c0,0.612,0,0.962,0.087,1.399h-1.486
				c0.087-0.525,0.087-0.875,0.087-1.399v-5.247c0-0.612,0-0.962-0.087-1.399h1.399v0.612H150.77z M152.607,356.996
				c-1.05,0-1.837,0.875-1.837,2.012c0,1.224,0.787,2.011,1.837,2.011c1.049,0,1.661-0.787,1.661-2.011
				C154.356,357.783,153.743,356.996,152.607,356.996z"/>
			<path fill="#0071D0" d="M161.527,362.068c-0.787,0-0.962,0-1.312,0.087c0.087-0.612,0.175-0.962,0.262-1.312
				c0.263-0.787,0.787-1.399,1.399-2.099c0.351-0.35,0.7-0.524,1.749-1.312c0.962-0.7,1.225-1.049,1.225-1.574
				c0-0.7-0.524-1.137-1.486-1.137c-0.612,0-1.05,0.175-1.313,0.612c-0.175,0.263-0.262,0.525-0.35,0.962l-1.486-0.175
				c0.175-0.787,0.35-1.224,0.699-1.662c0.525-0.612,1.313-0.962,2.361-0.962c1.837,0,2.974,0.875,2.974,2.361
				c0,0.7-0.263,1.224-0.787,1.662c-0.263,0.262-0.438,0.35-1.749,1.312c-0.438,0.35-0.962,0.787-1.225,1.05
				c-0.35,0.35-0.438,0.524-0.612,0.962h2.974c0.7,0,1.225,0,1.574-0.087v1.399c-0.524,0-0.874-0.087-1.574-0.087H161.527z"/>
		</g>
		<g>
			<path d="M132.929,431.506c-0.262,0.263-0.35,0.525-0.524,0.962c-0.438-0.437-0.699-0.787-0.962-1.224
				c-0.263,0.524-0.524,0.962-0.962,1.398c-0.35-0.35-0.438-0.437-0.699-0.611c0,0.787-0.176,1.574-0.351,2.273
				c-0.175,0.787-0.35,1.312-0.699,1.924c-0.263-0.35-0.524-0.612-0.875-0.962c0.7-1.137,0.962-2.711,0.962-6.297
				c0-0.262,0-0.437,0-0.524c0-0.438,0-0.699-0.087-0.962c0.438,0,0.787,0.087,1.225,0.087h2.536v-0.262
				c0-0.263,0-0.438-0.088-0.612h1.225c0,0.175-0.088,0.35-0.088,0.612v0.175h2.624c0.438,0,0.962,0,1.225-0.088v1.138
				c-0.263,0-0.7-0.088-1.138-0.088h-6.559c0,1.486,0,2.187-0.088,3.235c0.438-0.524,0.612-0.787,0.875-1.398
				c0.175-0.525,0.263-1.05,0.35-1.574l1.05,0.087c-0.175,0.612-0.263,0.962-0.263,1.225
				C132.055,430.719,132.318,430.981,132.929,431.506v-1.661c0-0.612,0-0.787-0.087-1.05h1.225c0,0.263-0.088,0.438-0.088,1.05
				v1.924c0.438-0.524,0.699-0.875,0.962-1.574c0.263-0.612,0.263-0.962,0.35-1.399l1.138,0.088
				c-0.088,0.262-0.088,0.262-0.176,0.787c-0.087,0.175-0.087,0.262-0.175,0.524c0.438,0.699,0.787,1.05,1.574,1.486
				c-0.262,0.263-0.437,0.612-0.612,0.962c-0.611-0.524-0.874-0.787-1.312-1.398c-0.263,0.524-0.438,0.874-0.874,1.398
				c-0.263-0.262-0.438-0.437-0.7-0.611v0.962h2.012c0.524,0,0.699,0,0.962-0.088v1.05c-0.263,0-0.438-0.088-0.962-0.088h-2.012
				v1.05h2.536c0.438,0,0.787,0,1.05-0.088v1.137c-0.35,0-0.787-0.087-1.225-0.087h-5.597c-0.438,0-0.875,0-1.225,0.087v-1.137
				c0.263,0,0.438,0,1.05,0h2.361v-1.049h-1.749c-0.525,0-0.7,0-0.963,0v-1.05c0.263,0,0.438,0.088,0.963,0.088h1.749v-1.313
				H132.929z"/>
			<path d="M140.363,430.106c0,0.263,0,0.525,0,0.7c0,1.574-0.175,2.711-0.35,3.673c-0.175,0.787-0.35,1.225-0.699,1.837
				c-0.263-0.351-0.525-0.612-0.875-0.875c0.263-0.438,0.35-0.699,0.525-1.225c0.262-1.049,0.437-2.711,0.437-5.334
				c0-0.612,0-0.962,0-1.399c0.351,0,0.787,0.087,1.313,0.087h2.448v-0.175c0-0.262,0-0.437-0.087-0.612h1.224
				c0,0.176-0.087,0.351-0.087,0.612v0.175h2.623c0.525,0,0.962,0,1.225-0.087v1.137c-0.263,0-0.524,0-1.05,0h-0.787v0.7h0.875
				c0.524,0,0.787,0,1.05-0.088v0.874c-0.263,0-0.525,0-1.05,0h-0.875v1.05c0,0.263,0,0.438,0,0.612c-0.175,0-0.35,0-0.699,0h-0.962
				v0.699h1.924c0.524,0,0.787,0,0.962,0c0,0.263,0,0.438,0,0.875v1.661c0,0.7-0.35,0.875-1.486,0.875c-0.088,0-0.263,0-0.525,0
				c-0.087-0.524-0.087-0.612-0.262-1.05c0.35,0,0.524,0.088,0.787,0.088c0.35,0,0.438,0,0.438-0.263v-1.137h-1.75v1.749
				c0,0.524,0,0.962,0.088,1.225h-1.225c0-0.263,0.088-0.7,0.088-1.225v-1.749h-1.487v1.312c0,0.7,0,0.875,0,1.137H140.8
				c0-0.262,0.088-0.611,0.088-1.137v-1.486c0-0.35,0-0.612,0-0.875c0.262,0,0.524,0,0.962,0h1.661v-0.699h-0.962
				c-0.35,0-0.438,0-0.699,0c0-0.263,0-0.35,0-0.612v-1.05H140.363z M141.85,429.145v-0.787h-1.487v0.7h1.487V429.145z
				 M144.998,429.145v-0.787h-2.1v0.7h2.1V429.145z M142.987,430.807h2.099v-0.7h-2.099V430.807z"/>
			<path d="M151.382,434.042c0.35,0.612,0.699,0.787,1.312,0.962c-0.087-0.175-0.35-0.524-0.699-0.699
				c0.699-0.263,1.137-0.438,1.574-0.787h-1.225c-0.35,0-0.524,0-0.787,0.088v-0.963c0.263,0,0.438,0.088,0.787,0.088h0.787v-0.612
				h-0.263c-0.524,0-0.699,0-0.962,0v-0.962c0.263,0,0.438,0,0.962,0h0.263c0-0.263,0-0.35,0-0.524h1.137c0,0.175,0,0.262,0,0.524
				h1.399c0-0.263,0-0.35,0-0.524h1.137c0,0.175,0,0.262-0.087,0.524h0.524c0.524,0,0.699,0,0.962,0v0.962c-0.263,0-0.438,0-0.962,0
				h-0.524v0.612h0.787c0.524,0,0.787,0,1.049,0v0.962c-0.262,0-0.437,0-1.049,0h-1.137c0.524,0.35,1.049,0.524,1.924,0.7
				c-0.263,0.262-0.438,0.524-0.612,0.787c0.262,0,0.262,0,1.049-0.088c-0.175,0.524-0.262,0.612-0.35,1.225
				c-0.962,0-2.273,0.087-3.585,0.087c-1.662,0-2.274-0.087-2.799-0.262c-0.524-0.176-0.875-0.438-1.312-0.962
				c-0.438,0.437-0.612,0.524-1.05,0.874c-0.175,0.175-0.263,0.263-0.438,0.35l-0.524-1.224c0.438-0.176,0.787-0.438,1.486-1.05
				v-2.274h-0.524c-0.263,0-0.438,0-0.699,0.088v-1.137c0.262,0,0.437,0.087,0.874,0.087h0.787c0.35,0,0.524,0,0.787,0
				c0,0.351,0,0.525,0,1.138V434.042L151.382,434.042z M149.896,426.783c0.787,0.7,1.137,1.05,1.574,1.662l-0.875,0.874
				c-0.524-0.786-0.787-1.049-1.574-1.749L149.896,426.783z M154.705,428.445c0,0.263,0,0.438,0,0.524c-0.263,0-0.438,0-0.699,0
				h-1.313v0.263c0,0.263,0,0.263,0.438,0.263c0.787,0,0.787,0,0.875-0.525c0.262,0.175,0.524,0.263,0.874,0.351
				c-0.087,0.611-0.175,0.786-0.438,0.874c-0.175,0.088-0.524,0.088-1.398,0.088c-1.05,0-1.313-0.088-1.313-0.7v-0.874
				c0-0.263,0-0.438,0-0.612c0.175,0,0.35,0,0.7,0h1.224v-0.438h-1.224c-0.438,0-0.612,0-0.875,0v-0.962c0.263,0,0.524,0,0.875,0
				h1.312c0.524,0,0.699,0,0.962,0c0,0.175,0,0.263,0,0.612V428.445z M154.617,433.867c-0.786,0.7-1.049,0.875-1.749,1.137
				c0.525,0.088,1.138,0.088,1.837,0.088c0.787,0,1.662,0,2.624-0.088c-0.787-0.262-1.399-0.611-2.012-1.137l0.612-0.438h-2.012
				L154.617,433.867z M154.181,432.556h1.399v-0.612h-1.399V432.556z M158.203,428.445c0,0.263,0,0.438,0,0.524
				c-0.263,0-0.438,0-0.699,0h-1.313v0.263c0,0.175,0,0.175,0.088,0.175s0.263,0,0.524,0c0.787,0,0.787,0,0.787-0.524
				c0.35,0.175,0.525,0.262,0.962,0.35c-0.087,0.612-0.175,0.787-0.35,0.874c-0.175,0.088-0.612,0.088-1.486,0.088
				c-0.7,0-0.962,0-1.137-0.088c-0.263-0.087-0.263-0.262-0.263-0.611v-0.787c0-0.438,0-0.438,0-0.438c0-0.088,0-0.088,0-0.263
				c0.175,0,0.35,0,0.699,0h1.225v-0.438h-1.137c-0.438,0-0.612,0-0.875,0v-0.962c0.263,0,0.525,0,0.875,0h1.312
				c0.524,0,0.7,0,0.962,0c0,0.175,0,0.263,0,0.612v1.225H158.203z"/>
			<path d="M160.477,429.582c-0.262,0-0.437,0-0.874,0.088v-1.137c0.263,0.087,0.524,0.087,0.874,0.087h0.438v-0.874
				c0-0.525,0-0.787-0.087-1.05h1.224c-0.087,0.263-0.087,0.524-0.087,1.05v0.874h0.438c0.262,0,0.437,0,0.699-0.087v1.137
				c-0.263,0-0.438,0-0.699,0h-0.438v1.574c0.35-0.088,0.438-0.175,1.049-0.351v1.05c-0.524,0.175-0.611,0.263-1.049,0.438v2.974
				c0,0.437-0.088,0.611-0.35,0.787c-0.175,0.175-0.525,0.175-1.138,0.175c-0.262,0-0.437,0-0.786,0
				c-0.088-0.525-0.088-0.7-0.263-1.137c0.438,0.087,0.699,0.087,1.049,0.087c0.263,0,0.351-0.087,0.351-0.35v-2.187l-0.875,0.263
				c-0.175,0-0.175,0.087-0.35,0.087l-0.263-1.137c0.438,0,0.612-0.088,1.399-0.35v-1.924h-0.263V429.582z M164.675,431.331
				c-0.175,2.361-0.612,3.673-1.661,4.897c-0.351-0.438-0.525-0.612-0.875-0.874c0.524-0.525,0.875-1.138,1.137-1.837
				c0.263-0.875,0.438-2.187,0.438-4.81c0-0.875,0-1.225,0-1.662c0.35,0,0.612,0,1.225,0h2.798c0.525,0,0.787,0,1.138,0
				c0,0.35,0,0.524,0,1.137v2.1c0,0.611,0,0.787,0,1.137c-0.263,0-0.525,0-0.875,0h-0.787c0.088,0.874,0.263,1.399,0.438,1.836
				c0.35,0.787,0.787,1.225,1.749,2.012c-0.35,0.35-0.524,0.699-0.787,1.137c-0.962-0.874-1.487-1.574-1.924-2.536
				c-0.263-0.612-0.438-1.312-0.525-2.448h-1.486V431.331z M167.474,430.282v-2.1h-2.711v0.7c0,0.35,0,0.524,0,1.486h2.711V430.282z
				"/>
		</g>
		<g>
			<path fill="#717272" d="M153.656,374.574c5.335,0,9.62,4.285,9.62,9.62v22.3h-29.472v-22.3c0-5.335,4.285-9.62,9.62-9.62H153.656
				 M153.656,373.699h-10.231c-5.772,0-10.495,4.723-10.495,10.495v23.175h31.134v-23.175
				C164.151,378.422,159.428,373.699,153.656,373.699L153.656,373.699z"/>
			<path fill="#717272" d="M132.929,396v1.749h-4.109V396H132.929 M133.804,395.125h-5.859v3.498h5.859V395.125L133.804,395.125z"/>
			<path fill="#717272" d="M168.173,396v1.749h-4.11V396H168.173 M169.048,395.125h-5.859v3.498h5.859V395.125L169.048,395.125z"/>
			<path fill="#717272" d="M164.151,407.193c1.486,0,2.623,1.138,2.623,2.625v3.234c0,1.487-1.137,2.625-2.623,2.625h-31.309
				c-1.486,0-2.624-1.138-2.624-2.625v-3.234c0-1.487,1.138-2.625,2.624-2.625H164.151 M164.151,406.319h-31.309
				c-1.924,0-3.498,1.574-3.498,3.499v3.234c0,1.925,1.574,3.499,3.498,3.499h31.309c1.924,0,3.498-1.574,3.498-3.499v-3.234
				C167.649,407.894,166.074,406.319,164.151,406.319L164.151,406.319z"/>
			<g>
				<path fill="#717272" d="M132.929,398.623v7.871h-0.524c-0.787,0-1.574,0.263-2.187,0.612v-8.483H132.929 M133.804,397.749
					h-4.373v12.681c0-1.662,1.399-3.061,3.062-3.061h1.399v-9.62H133.804z"/>
				<path fill="#717272" d="M166.862,398.623v8.57c-0.612-0.437-1.399-0.611-2.187-0.611h-0.524v-7.871h2.711 M167.736,397.749
					h-4.46v9.62h1.399c1.661,0,3.061,1.398,3.061,3.061V397.749L167.736,397.749z"/>
			</g>
		</g>
	</g>
	<g>
		<path fill="#FFFFFF" d="M293.669,448.472h-80.457c-1.925,0-3.498-1.573-3.498-3.498v-97.948c0-1.924,1.573-3.498,3.498-3.498
			h80.457c1.924,0,3.498,1.574,3.498,3.498v97.948C297.167,446.898,295.681,448.472,293.669,448.472z"/>
		<g>
			<path fill="#0071D0" d="M236.911,359.444c0,0.438,0.088,0.7,0.263,0.962c0.263,0.438,0.874,0.612,1.574,0.612
				c1.05,0,1.661-0.438,1.661-1.224c0-0.438-0.175-0.787-0.524-0.962c-0.35-0.175-0.35-0.175-1.837-0.524
				c-0.787-0.175-1.224-0.35-1.573-0.612c-0.525-0.437-0.787-0.962-0.787-1.662c0-1.487,1.137-2.361,2.973-2.361
				c1.225,0,2.1,0.35,2.624,1.049c0.263,0.35,0.35,0.7,0.524,1.225l-1.486,0.175c-0.088-0.35-0.175-0.524-0.35-0.787
				c-0.263-0.35-0.7-0.524-1.313-0.524c-0.874,0-1.574,0.437-1.574,1.137c0,0.438,0.263,0.787,0.7,0.962
				c0.262,0.087,0.35,0.087,1.486,0.35c0.787,0.175,1.313,0.35,1.749,0.612c0.612,0.438,0.875,1.05,0.875,1.837
				c0,0.787-0.263,1.312-0.7,1.749c-0.524,0.524-1.398,0.787-2.536,0.787c-0.874,0-1.661-0.175-2.186-0.525
				c-0.438-0.262-0.7-0.7-0.963-1.225c-0.087-0.262-0.175-0.437-0.175-0.875L236.911,359.444z"/>
			<path fill="#0071D0" d="M245.22,354.372c0,0.35-0.088,0.787-0.088,1.312v0.35h0.438c0.524,0,0.699,0,1.05-0.087v1.224
				c-0.351-0.087-0.525-0.087-1.05-0.087h-0.438v3.236c0,0.525,0.175,0.7,0.7,0.7c0.262,0,0.437-0.087,0.787-0.262l0.175,1.137
				c-0.438,0.175-0.787,0.262-1.313,0.262c-1.224,0-1.661-0.437-1.661-1.574v-3.498h-0.438c-0.35,0-0.612,0-0.962,0.087v-1.224
				c0.263,0.087,0.524,0.087,0.962,0.087h0.35v-0.35c0-0.438,0-0.875-0.087-1.312H245.22z"/>
			<path fill="#0071D0" d="M248.718,359.357c0.087,0.612,0.175,0.875,0.35,1.137c0.263,0.35,0.787,0.612,1.312,0.612
				c0.525,0,0.962-0.175,1.225-0.525c0.088-0.175,0.175-0.262,0.263-0.524l1.224,0.437c-0.262,0.525-0.35,0.7-0.611,0.962
				c-0.525,0.524-1.313,0.787-2.187,0.787c-1.837,0-3.062-1.225-3.062-3.236c0-1.924,1.138-3.236,2.974-3.236
				c1.225,0,2.187,0.612,2.624,1.662c0.175,0.524,0.262,0.875,0.262,1.574c0,0,0,0.087,0,0.262h-4.372V359.357z M251.866,358.308
				c-0.088-0.438-0.175-0.787-0.438-1.05c-0.263-0.262-0.612-0.437-1.137-0.437c-0.787,0-1.399,0.525-1.574,1.399h3.148V358.308z"/>
			<path fill="#0071D0" d="M255.714,356.559c0,0.087,0,0.262,0,0.35c0.612-0.7,1.225-1.049,2.099-1.049
				c0.875,0,1.487,0.262,2.012,0.7c0.524,0.524,0.787,1.312,0.787,2.449c0,1.924-1.05,3.061-2.886,3.061
				c-0.962,0-1.574-0.35-2.099-1.049c0,0.087,0,0.087,0,0.35c0,0.088,0,0.263,0,0.438v0.787c0,0.612,0,0.962,0.087,1.399h-1.486
				c0.087-0.525,0.087-0.875,0.087-1.399v-5.247c0-0.612,0-0.962-0.087-1.399h1.399v0.612H255.714z M257.551,356.996
				c-1.05,0-1.837,0.875-1.837,2.012c0,1.224,0.787,2.011,1.837,2.011c1.049,0,1.661-0.787,1.661-2.011
				C259.3,357.783,258.6,356.996,257.551,356.996z"/>
			<path fill="#0071D0" d="M266.471,359.794c0.175,0.524,0.263,0.612,0.524,0.875c0.351,0.262,0.787,0.437,1.313,0.437
				c1.049,0,1.661-0.525,1.661-1.399c0-0.524-0.175-0.875-0.612-1.137c-0.262-0.175-0.787-0.262-1.224-0.262
				c-0.438,0-0.787,0-1.138,0.087v-1.312c0.351,0,0.525,0.087,1.05,0.087c1.05,0,1.662-0.524,1.662-1.312
				c0-0.7-0.525-1.137-1.399-1.137c-0.525,0-0.875,0.088-1.138,0.35c-0.175,0.175-0.35,0.35-0.437,0.787l-1.487-0.262
				c0.263-0.787,0.525-1.137,0.962-1.487c0.525-0.35,1.225-0.612,2.1-0.612c1.749,0,2.886,0.875,2.886,2.274
				c0,0.612-0.263,1.224-0.7,1.574c-0.262,0.175-0.437,0.262-1.049,0.437c0.787,0.087,1.137,0.262,1.486,0.7
				c0.35,0.35,0.525,0.787,0.525,1.487c0,0.524-0.263,1.137-0.612,1.574c-0.612,0.524-1.487,0.875-2.624,0.875
				c-1.225,0-2.099-0.35-2.623-0.962c-0.263-0.263-0.438-0.525-0.612-1.137L266.471,359.794z"/>
		</g>
		<g>
			<path d="M235.775,430.282c0.263-0.351,0.35-0.525,0.524-0.963h-1.486c-0.524,0-0.787,0-1.137,0.088v-1.137
				c0.263,0.087,0.612,0.087,1.137,0.087h0.175c-0.175-0.35-0.438-0.699-0.787-1.137l1.05-0.35c0.35,0.438,0.612,0.962,0.874,1.486
				h0.525c0.175-0.524,0.35-1.398,0.35-1.749c0,0,0,0,0-0.087l1.225,0.175c0,0.175-0.088,0.35-0.175,0.612
				c-0.088,0.262-0.176,0.699-0.263,1.049h1.05c0.437-0.611,0.699-0.962,0.962-1.574l1.224,0.351
				c-0.524,0.787-0.612,0.874-0.874,1.224h0.524c0.612,0,0.875,0,1.137-0.087v1.137c-0.35,0-0.699-0.088-1.137-0.088h-1.486
				c0.262,0.438,0.262,0.612,0.524,0.963h1.662c0.611,0,0.874,0,1.224-0.088v1.137c-0.35,0-0.699-0.087-1.224-0.087h-0.875
				c0.699,0.699,1.312,1.049,2.273,1.398c-0.35,0.351-0.437,0.525-0.699,1.138c-0.699-0.438-1.05-0.612-1.574-1.05
				c-0.088,1.399-0.175,2.273-0.35,2.711c-0.175,0.524-0.525,0.7-1.574,0.7c-0.263,0-0.438,0-0.875,0
				c-0.087-0.525-0.087-0.787-0.262-1.138c0.524,0.088,0.874,0.088,1.224,0.088c0.263,0,0.438-0.088,0.438-0.263
				c0.088-0.262,0.175-0.699,0.175-1.749h-1.661c-0.175,0.875-0.438,1.313-0.875,1.837c-0.612,0.612-1.399,1.049-2.448,1.399
				c-0.175-0.438-0.35-0.7-0.612-1.05c0.612-0.175,0.962-0.263,1.312-0.438c0.612-0.262,1.05-0.612,1.313-1.137
				c0.087-0.175,0.175-0.35,0.262-0.612h-0.438c-0.524,0-0.787,0-1.137,0.088v-0.525c-0.524,0.438-0.874,0.7-1.574,1.05
				c-0.175-0.35-0.35-0.612-0.699-0.962c1.049-0.524,1.574-0.875,2.187-1.486h-0.787c-0.525,0-0.875,0-1.137,0.087v-1.137
				c0.262,0.088,0.611,0.088,1.137,0.088H235.775L235.775,430.282z M236.387,431.244c-0.263,0.35-0.438,0.611-0.787,0.874
				c0.175,0,0.175,0,0.35,0h3.498c0.175,0,0.263,0,0.438,0c-0.263-0.263-0.524-0.524-0.787-0.874H236.387z M238.486,430.282
				c-0.175-0.351-0.262-0.438-0.437-0.963h-0.612c-0.175,0.351-0.263,0.612-0.438,0.963H238.486z"/>
			<path d="M246.706,430.369c-0.175,0-0.35,0-0.699,0h-0.175c0.35,0.787,0.612,1.05,0.962,1.486
				c-0.263,0.351-0.35,0.612-0.525,0.963c-0.262-0.351-0.35-0.612-0.611-1.138c0,0.263,0,0.351,0,0.612c0,0.088,0,0.175,0,0.35
				c0,0.176,0,0.263,0,0.351v2.099c0,0.612,0,0.874,0.087,1.225h-1.137c0-0.351,0.088-0.7,0.088-1.225v-1.662
				c0-0.524,0-0.524,0-0.787c0-0.262,0-0.35,0-0.699c-0.263,0.787-0.612,1.574-1.05,2.273c-0.175-0.437-0.263-0.787-0.524-1.049
				c0.437-0.612,0.699-1.05,1.049-1.749c0.175-0.438,0.35-0.787,0.438-1.137h-0.438c-0.262,0-0.524,0-0.787,0.087v-1.137
				c0.263,0,0.525,0.087,0.787,0.087h0.525v-1.224c-0.263,0.087-0.525,0.087-1.05,0.175c-0.088-0.438-0.175-0.612-0.438-0.962
				c0.875-0.088,1.837-0.263,2.536-0.612c0.175-0.088,0.263-0.088,0.35-0.175l0.525,0.962c-0.088,0-0.263,0.087-0.525,0.175
				c-0.087,0-0.175,0.088-0.524,0.175v1.486h0.263c0.262,0,0.35,0,0.524,0v-0.962c0.263,0,0.524,0.088,0.962,0.088h1.574v-0.438
				c-0.524,0-0.962,0-1.837,0.088c-0.087-0.35-0.262-0.612-0.35-0.875c0.438,0,0.7,0,0.875,0c1.661,0,3.673-0.262,4.372-0.524
				l0.7,0.874c-0.088,0-0.088,0-0.35,0.088c-0.525,0.088-1.313,0.263-2.274,0.263v0.524h1.749c0.438,0,0.787,0,1.05-0.088v0.962
				c-0.263,0-0.524,0-0.962,0h-1.749v0.438h1.312c0.524,0,0.699,0,1.05,0c0,0.263,0,0.438,0,0.875v1.661c0,0.525,0,0.7,0,0.962
				c-0.263,0-0.438,0-0.875,0h-1.486v0.525h1.399c0.524,0,0.787,0,1.049-0.088v0.962c-0.35,0-0.699,0-1.049,0h-1.399v0.525h1.749
				c0.438,0,0.874,0,1.137-0.088v1.05c-0.263,0-0.699-0.088-1.225-0.088h-4.285c-0.524,0-0.874,0-1.137,0.088v-1.05
				c0.263,0,0.612,0,1.137,0h1.662v-0.524h-1.399c-0.525,0-0.7,0-1.05,0v-0.962c0.263,0,0.524,0,1.05,0h1.312v-0.525h-1.312
				c-0.438,0-0.7,0-0.875,0c0-0.262,0-0.524,0-0.962v-1.661c0-0.438,0-0.7,0-0.875c0.263,0,0.525,0,0.962,0h1.225v-0.438h-1.574
				c-0.35,0-0.699,0-0.874,0v1.225H246.706z M247.931,430.544v0.525h1.225v-0.525H247.931z M247.931,431.855v0.525h1.225v-0.525
				H247.931z M251.517,431.069v-0.525h-1.399v0.525H251.517z M251.517,432.381v-0.525h-1.399v0.525H251.517z"/>
			<path d="M256.326,434.042c0.35,0.612,0.699,0.787,1.312,0.962c-0.087-0.175-0.35-0.524-0.699-0.699
				c0.699-0.263,1.137-0.438,1.574-0.787h-1.225c-0.35,0-0.524,0-0.787,0.088v-0.963c0.263,0,0.438,0.088,0.787,0.088h0.787v-0.612
				h-0.263c-0.524,0-0.699,0-0.962,0v-0.962c0.263,0,0.438,0,0.962,0h0.263c0-0.263,0-0.35,0-0.524h1.137c0,0.175,0,0.262,0,0.524
				h1.399c0-0.263,0-0.35,0-0.524h1.137c0,0.175,0,0.262-0.087,0.524h0.524c0.524,0,0.699,0,0.962,0v0.962c-0.263,0-0.438,0-0.962,0
				h-0.524v0.612h0.787c0.524,0,0.787,0,1.049,0v0.962c-0.262,0-0.438,0-1.049,0h-1.138c0.525,0.35,1.05,0.524,1.925,0.7
				c-0.263,0.262-0.438,0.524-0.612,0.787c0.262,0,0.262,0,1.049-0.088c-0.175,0.524-0.262,0.612-0.35,1.225
				c-0.962,0-2.273,0.087-3.585,0.087c-1.662,0-2.274-0.087-2.799-0.262c-0.525-0.176-0.875-0.438-1.312-0.962
				c-0.438,0.437-0.612,0.524-1.05,0.874c-0.175,0.175-0.263,0.263-0.438,0.35l-0.524-1.224c0.438-0.176,0.787-0.438,1.486-1.05
				v-2.274h-0.524c-0.263,0-0.438,0-0.7,0.088v-1.137c0.263,0,0.438,0.087,0.875,0.087h0.787c0.35,0,0.524,0,0.787,0
				c0,0.351,0,0.525,0,1.138V434.042L256.326,434.042z M254.84,426.783c0.787,0.7,1.137,1.05,1.573,1.662l-0.874,0.874
				c-0.524-0.786-0.787-1.049-1.574-1.749L254.84,426.783z M259.65,428.445c0,0.263,0,0.438,0,0.524c-0.263,0-0.438,0-0.699,0
				h-1.313v0.263c0,0.263,0,0.263,0.438,0.263c0.787,0,0.787,0,0.875-0.525c0.262,0.175,0.524,0.263,0.874,0.351
				c-0.087,0.611-0.175,0.786-0.438,0.874c-0.175,0.088-0.524,0.088-1.399,0.088c-1.049,0-1.312-0.088-1.312-0.7v-0.874
				c0-0.263,0-0.438,0-0.612c0.175,0,0.35,0,0.7,0h1.224v-0.438h-1.224c-0.438,0-0.612,0-0.875,0v-0.962c0.263,0,0.524,0,0.875,0
				h1.312c0.524,0,0.699,0,0.962,0c0,0.175,0,0.263,0,0.612V428.445z M259.475,433.867c-0.787,0.7-1.05,0.875-1.749,1.137
				c0.524,0.088,1.137,0.088,1.836,0.088c0.787,0,1.662,0,2.624-0.088c-0.787-0.262-1.399-0.611-2.012-1.137l0.612-0.438h-1.924
				L259.475,433.867z M259.125,432.556h1.398v-0.612h-1.398V432.556z M263.148,428.445c0,0.263,0,0.438,0,0.524
				c-0.263,0-0.438,0-0.699,0h-1.313v0.263c0,0.175,0,0.175,0.088,0.175c0.087,0,0.263,0,0.524,0c0.787,0,0.787,0,0.787-0.524
				c0.35,0.175,0.525,0.262,0.962,0.35c-0.087,0.612-0.175,0.787-0.35,0.874c-0.175,0.088-0.612,0.088-1.486,0.088
				c-0.7,0-0.962,0-1.138-0.088c-0.262-0.087-0.262-0.262-0.262-0.611v-0.787c0-0.438,0-0.438,0-0.438c0-0.088,0-0.088,0-0.263
				c0.175,0,0.35,0,0.699,0h1.225v-0.438h-1.137c-0.438,0-0.612,0-0.875,0v-0.962c0.263,0,0.525,0,0.875,0h1.312
				c0.524,0,0.7,0,0.962,0c0,0.175,0,0.263,0,0.612v1.225H263.148z"/>
			<path d="M265.421,429.582c-0.262,0-0.437,0-0.874,0.088v-1.137c0.263,0.087,0.524,0.087,0.874,0.087h0.438v-0.874
				c0-0.525,0-0.787-0.087-1.05h1.224c-0.087,0.263-0.087,0.524-0.087,1.05v0.874h0.438c0.262,0,0.437,0,0.699-0.087v1.137
				c-0.263,0-0.438,0-0.699,0h-0.438v1.574c0.35-0.088,0.438-0.175,1.049-0.351v1.05c-0.524,0.175-0.611,0.263-1.049,0.438v2.974
				c0,0.437-0.088,0.611-0.35,0.787c-0.176,0.175-0.525,0.175-1.138,0.175c-0.262,0-0.437,0-0.787,0
				c-0.087-0.525-0.087-0.7-0.262-1.137c0.438,0.087,0.699,0.087,1.049,0.087c0.263,0,0.351-0.087,0.351-0.35v-2.187l-0.875,0.263
				c-0.175,0-0.175,0.087-0.35,0.087l-0.263-1.137c0.438,0,0.612-0.088,1.399-0.35v-1.924h-0.263V429.582z M269.531,431.331
				c-0.175,2.361-0.611,3.673-1.661,4.897c-0.35-0.438-0.524-0.612-0.875-0.874c0.525-0.525,0.875-1.138,1.138-1.837
				c0.262-0.875,0.437-2.187,0.437-4.81c0-0.875,0-1.225,0-1.662c0.351,0,0.612,0,1.225,0h2.799c0.524,0,0.787,0,1.137,0
				c0,0.35,0,0.524,0,1.137v2.1c0,0.611,0,0.787,0,1.137c-0.263,0-0.524,0-0.875,0h-0.787c0.088,0.874,0.263,1.399,0.438,1.836
				c0.35,0.787,0.787,1.225,1.749,2.012c-0.35,0.35-0.524,0.699-0.787,1.137c-0.962-0.874-1.486-1.574-1.924-2.536
				c-0.263-0.612-0.438-1.312-0.524-2.448h-1.487V431.331z M272.33,430.282v-2.1h-2.711v0.7c0,0.35,0,0.524,0,1.486h2.711V430.282z"
				/>
		</g>
		<g>
			<g>
				<g>
					<path fill="#717272" d="M270.581,392.239v15.917h-29.297v-9.97l1.924-1.924l1.487-1.487h-2.1h-1.312v-2.536H270.581
						 M271.456,391.365h-31.047v4.286h2.187l-2.187,2.186v11.282h31.047V391.365L271.456,391.365z"/>
				</g>
				<g>
					<g>
						<rect x="248.106" y="404.92" fill="#717272" width="0.875" height="2.799"/>
					</g>
					<g>
						<rect x="248.106" y="400.897" fill="#717272" width="0.875" height="2.798"/>
					</g>
					<g>
						<rect x="248.106" y="396.787" fill="#717272" width="0.875" height="2.799"/>
					</g>
					<g>
						<rect x="248.106" y="392.764" fill="#717272" width="0.875" height="2.798"/>
					</g>
				</g>
			</g>
			<g>
				<g>
					<polygon fill="#717272" points="237.873,400.897 235.075,400.897 235.075,390.928 236.65,389.441 235.075,389.441 
						235.075,384.281 266.995,384.281 266.995,388.392 266.121,388.392 266.121,385.156 235.949,385.156 235.949,388.566 
						238.748,388.566 235.949,391.365 235.949,400.023 237.873,400.023 					"/>
				</g>
			</g>
		</g>
	</g>
	<g>
		<path fill="#FFFFFF" d="M398.7,448.472h-80.457c-1.924,0-3.498-1.573-3.498-3.498v-97.948c0-1.924,1.574-3.498,3.498-3.498H398.7
			c1.924,0,3.498,1.574,3.498,3.498v97.948C402.198,446.898,400.624,448.472,398.7,448.472z"/>
		<g>
			<path fill="#0071D0" d="M341.856,359.444c0,0.438,0.088,0.7,0.263,0.962c0.262,0.438,0.874,0.612,1.574,0.612
				c1.049,0,1.661-0.438,1.661-1.224c0-0.438-0.175-0.787-0.524-0.962c-0.35-0.175-0.35-0.175-1.837-0.524
				c-0.787-0.175-1.225-0.35-1.574-0.612c-0.524-0.437-0.787-0.962-0.787-1.662c0-1.487,1.137-2.361,2.974-2.361
				c1.225,0,2.099,0.35,2.624,1.049c0.262,0.35,0.35,0.7,0.524,1.225l-1.486,0.175c-0.088-0.35-0.176-0.524-0.351-0.787
				c-0.262-0.35-0.699-0.524-1.312-0.524c-0.874,0-1.574,0.437-1.574,1.137c0,0.438,0.263,0.787,0.7,0.962
				c0.262,0.087,0.35,0.087,1.486,0.35c0.787,0.175,1.312,0.35,1.749,0.612c0.612,0.438,0.874,1.05,0.874,1.837
				c0,0.787-0.262,1.312-0.699,1.749c-0.524,0.524-1.399,0.787-2.536,0.787c-0.874,0-1.661-0.175-2.187-0.525
				c-0.438-0.262-0.699-0.7-0.962-1.225c-0.087-0.262-0.175-0.437-0.175-0.875L341.856,359.444z"/>
			<path fill="#0071D0" d="M350.251,354.372c0,0.35-0.087,0.787-0.087,1.312v0.35h0.437c0.525,0,0.7,0,1.05-0.087v1.224
				c-0.35-0.087-0.524-0.087-1.05-0.087h-0.437v3.236c0,0.525,0.175,0.7,0.699,0.7c0.263,0,0.438-0.087,0.787-0.262l0.175,1.137
				c-0.438,0.175-0.787,0.262-1.312,0.262c-1.225,0-1.662-0.437-1.662-1.574v-3.498h-0.438c-0.35,0-0.611,0-0.962,0.087v-1.224
				c0.263,0.087,0.525,0.087,0.962,0.087h0.351v-0.35c0-0.438,0-0.875-0.088-1.312H350.251z"/>
			<path fill="#0071D0" d="M353.662,359.357c0.087,0.612,0.175,0.875,0.35,1.137c0.262,0.35,0.787,0.612,1.312,0.612
				s0.962-0.175,1.225-0.525c0.087-0.175,0.175-0.262,0.262-0.524l1.225,0.437c-0.262,0.525-0.35,0.7-0.612,0.962
				c-0.524,0.524-1.312,0.787-2.186,0.787c-1.837,0-3.062-1.225-3.062-3.236c0-1.924,1.137-3.236,2.974-3.236
				c1.225,0,2.187,0.612,2.623,1.662c0.176,0.524,0.263,0.875,0.263,1.574c0,0,0,0.087,0,0.262h-4.372V359.357z M356.898,358.308
				c-0.087-0.438-0.175-0.787-0.438-1.05c-0.262-0.262-0.612-0.437-1.137-0.437c-0.787,0-1.399,0.525-1.574,1.399h3.148V358.308z"/>
			<path fill="#0071D0" d="M360.658,356.559c0,0.087,0,0.262,0,0.35c0.612-0.7,1.225-1.049,2.099-1.049
				c0.875,0,1.486,0.262,2.012,0.7c0.524,0.524,0.787,1.312,0.787,2.449c0,1.924-1.05,3.061-2.887,3.061
				c-0.962,0-1.573-0.35-2.099-1.049c0,0.087,0,0.087,0,0.35c0,0.088,0,0.263,0,0.438v0.787c0,0.612,0,0.962,0.088,1.399h-1.487
				c0.088-0.525,0.088-0.875,0.088-1.399v-5.247c0-0.612,0-0.962-0.088-1.399h1.399v0.612H360.658z M362.582,356.996
				c-1.05,0-1.837,0.875-1.837,2.012c0,1.224,0.787,2.011,1.837,2.011s1.661-0.787,1.661-2.011
				C364.243,357.783,363.632,356.996,362.582,356.996z"/>
			<path fill="#0071D0" d="M376.749,360.144c-0.35-0.087-0.611-0.087-1.049-0.087h-0.35v0.787c0,0.524,0,0.787,0.087,1.224h-1.486
				c0.087-0.35,0.087-0.7,0.087-1.224v-0.7h-2.886c-0.612,0-0.962,0-1.312,0v-1.312c0.35-0.35,0.438-0.524,0.874-0.962l2.449-3.061
				c0.438-0.525,0.612-0.787,0.874-1.137h1.399c-0.087,0.612-0.087,0.962-0.087,1.749v3.411h0.35c0.438,0,0.699,0,1.049-0.087
				V360.144z M374.038,356.733c0-0.525,0-0.787,0.088-1.225c-0.175,0.263-0.35,0.438-0.7,0.962l-2.011,2.536h2.711v-2.274H374.038z"
				/>
		</g>
		<g>
			<g>
				<path d="M324.19,434.13c-0.262,0.962-0.524,1.486-0.962,2.099c-0.35-0.35-0.524-0.438-0.874-0.612
					c0.524-0.612,0.699-1.137,0.962-1.924L324.19,434.13z M323.49,433.692c-0.35,0-0.524,0-0.787,0c0-0.263,0-0.699,0-1.137v-4.548
					c0-0.438,0-0.699,0-1.049c0.263,0,0.524,0,0.875,0h1.224c0.351,0,0.612,0,0.787,0c0,0.262,0,0.437,0,0.962v4.81
					c0,0.612,0,0.787,0,0.962c-0.262,0-0.35,0-0.699,0H323.49z M323.753,428.97h0.962v-0.962h-0.962V428.97z M323.753,430.807h0.962
					v-0.962h-0.962V430.807z M323.753,432.73h0.962v-1.05h-0.962V432.73z M325.153,433.692c0.262,0.7,0.437,1.137,0.874,1.749
					c-0.263,0.088-0.438,0.263-0.787,0.612c-0.35-0.699-0.612-1.137-0.874-1.924L325.153,433.692z M326.726,430.719
					c-0.35,0-0.611,0-0.874,0.088v-0.962c0.263,0,0.438,0.087,0.874,0.087h0.525v-0.524h-0.263c-0.263,0-0.524,0-0.699,0v-0.874
					c0.262,0,0.262,0,0.699,0h0.263v-0.438h-0.438c-0.35,0-0.524,0-0.787,0v-0.875c0.263,0,0.438,0.088,0.787,0.088h0.438
					c0-0.438,0-0.525-0.088-0.7h1.137c-0.087,0.175-0.087,0.351-0.087,0.7h1.225c0-0.438,0-0.525-0.088-0.7h1.137
					c0,0.175-0.087,0.438-0.087,0.7h0.612c0.35,0,0.524,0,0.786-0.088v0.875c-0.262,0-0.437,0-0.786,0H330.4v0.438h0.437
					c0.263,0,0.525,0,0.7,0v0.874c-0.175,0-0.438,0-0.7,0H330.4v0.524h0.699c0.438,0,0.612,0,0.875-0.087v0.962
					c-0.263,0-0.438-0.088-0.875-0.088h-1.837v0.438h1.225c0.438,0,0.7,0,0.962,0c0,0.175,0,0.524,0,0.875v1.661
					c0.263,0,0.35,0,0.525-0.087v0.962c-0.176,0-0.263,0-0.525,0v0.699c0,0.787-0.262,0.962-1.137,0.962c-0.263,0-0.524,0-0.962,0
					c-0.088-0.524-0.088-0.612-0.175-0.962c0.35,0.088,0.612,0.088,0.874,0.088c0.351,0,0.438,0,0.438-0.263v-0.524h-3.148v0.437
					c0,0.7,0,0.962,0,1.313h-1.137c0-0.351,0.088-0.612,0.088-1.313v-0.437c-0.263,0-0.351,0-0.612,0.087v-0.962
					c0.175,0,0.35,0,0.612,0.088v-1.574c0-0.438,0-0.7,0-0.962c0.262,0,0.524,0,0.962,0h1.049v-0.438h-1.574V430.719z
					 M328.388,432.031h-1.05v0.524h1.05V432.031z M328.388,433.255h-1.05v0.525h1.05V433.255z M328.3,428.708h1.225v-0.438H328.3
					V428.708z M328.3,429.932h1.225v-0.524H328.3V429.932z M330.487,432.468v-0.524h-1.137v0.524H330.487z M330.487,433.692v-0.524
					h-1.137v0.524H330.487z"/>
				<path d="M335.734,428.271c-0.262,0-0.612,0-1.049,0.087v-1.224c0.262,0,0.524,0.087,0.962,0.087h1.661
					c0.438,0,0.7,0,0.962-0.087c0,0.262,0,0.437,0,0.699c0,1.486,0.351,2.886,1.138,4.198c0.437,0.699,0.962,1.398,1.661,2.011
					c0.524,0.525,0.875,0.7,1.574,1.138c-0.438,0.35-0.612,0.699-0.875,1.224c-1.049-0.699-1.836-1.486-2.536-2.448
					c-0.35-0.525-0.611-0.875-0.962-1.574c-0.262-0.612-0.35-0.875-0.524-1.487c-0.35,1.313-0.787,2.274-1.486,3.148
					c-0.7,0.875-1.487,1.574-2.624,2.361c-0.263-0.438-0.438-0.787-0.875-1.137c0.875-0.524,1.399-0.874,2.1-1.661
					c0.787-0.875,1.486-2.012,1.836-3.062c0.175-0.699,0.263-1.312,0.351-2.099h-1.313V428.271z"/>
				<path d="M344.741,430.632c-0.524,0-0.874,0-1.224,0.087v-1.137c0.262,0,0.699,0.088,1.312,0.088h2.361v-0.875h-1.574
					c-0.524,0-0.875,0-1.225,0v-1.137c0.263,0,0.7,0.088,1.225,0.088h1.574v-0.263c0-0.438,0-0.612-0.088-0.962h1.312
					c-0.087,0.262-0.087,0.524-0.087,0.962v0.175h0.787c0.524,0,0.874,0,1.137-0.088v0.875c0.524-0.612,0.962-1.137,1.225-1.574
					l1.049,0.699c-0.087,0.088-0.262,0.263-0.437,0.525c-0.438,0.524-0.875,0.962-1.399,1.486h1.049c0.525,0,0.875,0,1.225-0.087
					v1.137c-0.35,0-0.787-0.088-1.312-0.088h-2.273c-0.438,0.263-0.7,0.438-1.138,0.787c0.263,0,0.612,0,0.875,0h1.574
					c0.524,0,0.787,0,1.137,0c0,0.263,0,0.524,0,1.137v2.624c0,0.524,0,0.874,0.088,1.225h-1.225v-0.438h-3.849v0.438h-1.398
					c0-0.351,0.087-0.7,0.087-1.225v-1.662c0-0.175,0-0.437,0-0.611c-0.612,0.35-0.874,0.437-1.661,0.699
					c-0.175-0.438-0.35-0.699-0.612-1.05c1.574-0.437,2.974-1.049,4.285-1.924h-2.799V430.632z M346.665,433.168h3.761v-0.787
					h-3.761V433.168z M346.665,434.829h3.761v-0.787h-3.761V434.829z M349.027,429.582c0.351-0.263,0.7-0.524,1.05-0.874
					c-0.263,0-0.438,0-0.875,0h-0.874v0.874H349.027z"/>
				<path d="M353.662,431.419c0.262-0.962,0.35-1.574,0.35-2.799l0.787,0.175c0,1.137-0.088,2.012-0.35,2.886L353.662,431.419z
					 M356.198,435.004c0,0.525,0,0.875,0.087,1.313h-1.225c0.088-0.351,0.088-0.787,0.088-1.313v-7.258c0-0.438,0-0.787-0.088-1.138
					h1.225c-0.087,0.351-0.087,0.612-0.087,1.138v0.874l0.612-0.263c0.262,0.525,0.262,0.612,0.524,1.399l-0.263,0.088
					c0.263,0,0.438,0,0.875,0h1.574v-0.438h-1.225c-0.438,0-0.612,0-0.875,0v-0.962c0.263,0,0.438,0,0.875,0h1.225v-0.35h-1.313
					c-0.524,0-0.787,0-1.049,0.087v-1.049c0.262,0.087,0.524,0.087,1.049,0.087h1.313c0-0.35,0-0.438-0.088-0.699h1.225
					c-0.088,0.262-0.088,0.35-0.088,0.699h1.574c0.612,0,0.787,0,1.05-0.087v1.049c-0.263,0-0.525-0.087-1.05-0.087h-1.661v0.35
					h1.486c0.438,0,0.612,0,0.875,0v0.962c-0.263,0-0.438,0-0.875,0h-1.486v0.438h1.836c0.525,0,0.787,0,1.05-0.088v1.05
					c-0.35,0-0.612-0.088-1.05-0.088h-4.46c-0.524,0-0.787,0-1.05,0.088v-0.962l-0.35,0.175c-0.087-0.438-0.175-0.787-0.35-1.137
					v6.121H356.198z M358.472,435.092c0,0.524,0,0.874,0.088,1.225h-1.225c0-0.351,0.087-0.612,0.087-1.225v-3.061
					c0-0.438,0-0.612,0-0.875c0.263,0,0.438,0,0.875,0h3.673c0.438,0,0.7,0,0.962,0c0,0.263,0,0.524,0,1.05v2.974
					c0,0.786-0.262,1.049-1.312,1.049c-0.263,0-0.438,0-0.962,0c-0.088-0.438-0.088-0.612-0.263-1.049
					c0.438,0.087,0.787,0.087,1.05,0.087c0.35,0,0.438,0,0.438-0.263v-0.35h-3.236v0.438H358.472z M361.707,432.556v-0.438h-3.235
					v0.438H361.707z M361.707,433.78v-0.438h-3.235v0.438H361.707z"/>
				<path d="M368.092,429.407c0.438,0,0.612,0,0.874-0.088v1.138c-0.175,0-0.35,0-0.612,0c-0.087,0.524-0.175,0.699-0.35,1.137
					h0.088c0.35,0,0.612,0,0.787-0.088v1.137c-0.263,0-0.525,0-0.875,0h-0.699v0.875h0.699c0.438,0,0.612,0,0.875,0v1.137
					c-0.263,0-0.525,0-0.875,0h-0.699v0.787c0,0.35,0,0.7,0.087,1.05h-1.137c0-0.35,0.088-0.7,0.088-1.05v-0.962h-0.787
					c-0.438,0-0.612,0-0.875,0v-1.137c0.263,0,0.438,0,0.875,0h0.787v-0.875h-0.962c-0.438,0-0.612,0-0.875,0v-1.137
					c0.263,0,0.438,0.088,0.875,0.088h0.087c-0.087-0.438-0.087-0.7-0.262-1.137c-0.351,0-0.525,0-0.787,0v-1.138
					c0.262,0,0.524,0.088,0.874,0.088h0.962v-0.787h-0.699c-0.35,0-0.612,0-0.875,0v-1.05c0.263,0,0.438,0,0.875,0h0.699v-0.175
					c0-0.262,0-0.612-0.087-0.787h1.137c0,0.263,0,0.438,0,0.787v0.175h0.612c0.437,0,0.612,0,0.874,0v1.05
					c-0.262,0-0.524,0-0.874,0h-0.612v0.787h0.787V429.407z M367.13,431.594c0.175-0.35,0.262-0.7,0.35-1.137h-1.225
					c0.175,0.524,0.175,0.699,0.263,1.137H367.13z M373.777,430.807c-0.088,0.175-0.088,0.175-0.088,0.438
					c-0.263,0.962-0.524,1.924-0.874,2.623c0.437,0.525,0.787,0.787,1.486,1.225c-0.35,0.524-0.438,0.699-0.612,1.137
					c-0.612-0.524-0.962-0.787-1.399-1.399c-0.35,0.525-0.699,0.875-1.224,1.313c-0.176-0.351-0.351-0.612-0.612-0.875
					c0,0.438,0,0.612,0.087,0.962h-1.225c0.088-0.438,0.088-0.699,0.088-1.225v-6.996c0-0.35,0-0.787-0.088-1.049
					c0.263,0,0.612,0.087,0.963,0.087h2.623c0.438,0,0.787,0,0.962-0.087c0,0.262,0,0.437-0.087,0.699
					c-0.088,1.924-0.263,2.187-1.399,2.187c-0.263,0-0.438,0-0.962-0.088c-0.088-0.437-0.088-0.612-0.263-0.962
					c0.438,0.088,0.875,0.088,1.05,0.088c0.35,0,0.35-0.088,0.437-0.875h-2.273v2.274h2.012c0.524,0,0.787,0,0.962,0
					L373.777,430.807z M370.365,435.18c0.524-0.351,0.787-0.7,1.137-1.225c-0.437-0.787-0.699-1.313-0.962-2.624h-0.175V435.18
					L370.365,435.18z M371.415,431.331c0.175,0.7,0.35,1.137,0.612,1.662c0.262-0.525,0.35-0.875,0.524-1.662H371.415z"/>
				<path d="M377.711,428.271c-0.262,0-0.611,0-1.049,0.087v-1.224c0.263,0,0.524,0.087,0.962,0.087h1.661
					c0.438,0,0.7,0,0.963-0.087c0,0.262,0,0.437,0,0.699c0,1.486,0.35,2.886,1.137,4.198c0.437,0.699,0.962,1.398,1.661,2.011
					c0.524,0.525,0.875,0.7,1.574,1.138c-0.438,0.35-0.612,0.699-0.874,1.224c-1.05-0.699-1.837-1.486-2.536-2.448
					c-0.351-0.525-0.612-0.875-0.962-1.574c-0.263-0.612-0.351-0.875-0.525-1.487c-0.35,1.313-0.787,2.274-1.486,3.148
					c-0.7,0.875-1.487,1.574-2.624,2.361c-0.262-0.438-0.438-0.787-0.874-1.137c0.874-0.524,1.399-0.874,2.099-1.661
					c0.787-0.875,1.486-2.012,1.837-3.062c0.175-0.699,0.262-1.312,0.35-2.099h-1.313V428.271z"/>
				<path d="M392.754,428.708c0.611,0,0.962,0,1.312-0.088c0,0.438,0,0.438-0.088,1.574c0,1.399-0.175,3.235-0.262,3.936
					c-0.175,0.962-0.263,1.312-0.612,1.574c-0.263,0.175-0.7,0.262-1.225,0.262s-0.962,0-1.574-0.087
					c-0.087-0.524-0.175-0.875-0.263-1.312c0.7,0.175,1.313,0.175,1.837,0.175s0.612-0.175,0.787-0.875
					c0.175-0.787,0.263-2.448,0.263-4.11h-2.799c-0.175,1.574-0.438,2.624-0.962,3.498c-0.612,1.138-1.574,2.012-3.061,2.799
					c-0.263-0.438-0.525-0.787-0.875-1.05c1.399-0.611,2.361-1.486,2.974-2.623c0.35-0.612,0.524-1.487,0.699-2.624h-1.836
					c-0.525,0-0.962,0-1.313,0.088v-1.225c0.351,0.088,0.7,0.088,1.313,0.088h1.836c0-0.438,0-0.525,0-1.05s0-0.787-0.087-1.05
					h1.398c-0.087,0.263-0.087,0.263-0.087,2.1H392.754z"/>
			</g>
		</g>
		<g>
			<g>
				
					<rect x="369.211" y="387.72" transform="matrix(-0.8631 -0.505 0.505 -0.8631 492.1235 925.4483)" fill="#717272" width="4.547" height="16.616"/>
				<polygon fill="#717272" points="364.681,403.172 363.894,408.943 368.53,405.445 				"/>
			</g>
			<rect x="347.191" y="383.844" fill="#717272" width="25.448" height="0.875"/>
			
				<rect x="357.358" y="380.372" transform="matrix(-0.0067 1 -1 -0.0067 751.2256 35.8739)" fill="#717272" width="0.875" height="21.339"/>
			<rect x="347.16" y="397.197" fill="#717272" width="17.666" height="0.875"/>
			<rect x="347.191" y="403.871" fill="#717272" width="14.954" height="0.874"/>
			<rect x="339.32" y="383.844" fill="#717272" width="2.974" height="0.875"/>
			<rect x="339.32" y="390.49" fill="#717272" width="2.974" height="0.875"/>
			<rect x="339.32" y="397.225" fill="#717272" width="2.974" height="0.874"/>
			<rect x="339.32" y="403.871" fill="#717272" width="2.974" height="0.874"/>
		</g>
	</g>
	<g>
		<path fill="#FFFFFF" d="M503.82,448.472h-80.457c-1.924,0-3.498-1.573-3.498-3.498v-97.948c0-1.924,1.574-3.498,3.498-3.498
			h80.457c1.924,0,3.498,1.574,3.498,3.498v97.948C507.318,446.898,505.743,448.472,503.82,448.472z"/>
		<g>
			<path fill="#0071D0" d="M446.975,359.444c0,0.438,0.088,0.7,0.263,0.962c0.262,0.438,0.874,0.612,1.574,0.612
				c1.049,0,1.661-0.438,1.661-1.224c0-0.438-0.175-0.787-0.524-0.962c-0.35-0.175-0.35-0.175-1.837-0.524
				c-0.787-0.175-1.224-0.35-1.574-0.612c-0.524-0.437-0.787-0.962-0.787-1.662c0-1.487,1.138-2.361,2.974-2.361
				c1.225,0,2.099,0.35,2.624,1.049c0.262,0.35,0.35,0.7,0.524,1.225l-1.486,0.175c-0.088-0.35-0.175-0.524-0.351-0.787
				c-0.262-0.35-0.699-0.524-1.312-0.524c-0.874,0-1.574,0.437-1.574,1.137c0,0.438,0.263,0.787,0.7,0.962
				c0.262,0.087,0.35,0.087,1.486,0.35c0.787,0.175,1.312,0.35,1.749,0.612c0.612,0.438,0.875,1.05,0.875,1.837
				c0,0.787-0.263,1.312-0.7,1.749c-0.524,0.524-1.399,0.787-2.536,0.787c-0.874,0-1.661-0.175-2.187-0.525
				c-0.437-0.262-0.699-0.7-0.962-1.225c-0.087-0.262-0.175-0.437-0.175-0.875L446.975,359.444z"/>
			<path fill="#0071D0" d="M455.37,354.372c0,0.35-0.087,0.787-0.087,1.312v0.35h0.437c0.525,0,0.7,0,1.05-0.087v1.224
				c-0.35-0.087-0.524-0.087-1.05-0.087h-0.437v3.236c0,0.525,0.175,0.7,0.699,0.7c0.263,0,0.438-0.087,0.787-0.262l0.175,1.137
				c-0.438,0.175-0.787,0.262-1.312,0.262c-1.225,0-1.662-0.437-1.662-1.574v-3.498h-0.437c-0.351,0-0.612,0-0.963,0.087v-1.224
				c0.263,0.087,0.525,0.087,0.963,0.087h0.35v-0.35c0-0.438,0-0.875-0.088-1.312H455.37z"/>
			<path fill="#0071D0" d="M458.781,359.357c0.087,0.612,0.175,0.875,0.35,1.137c0.262,0.35,0.787,0.612,1.312,0.612
				s0.962-0.175,1.225-0.525c0.087-0.175,0.175-0.262,0.263-0.524l1.224,0.437c-0.262,0.525-0.35,0.7-0.612,0.962
				c-0.524,0.524-1.312,0.787-2.186,0.787c-1.837,0-3.062-1.225-3.062-3.236c0-1.924,1.137-3.236,2.974-3.236
				c1.225,0,2.187,0.612,2.624,1.662c0.175,0.524,0.262,0.875,0.262,1.574c0,0,0,0.087,0,0.262h-4.372V359.357z M461.93,358.308
				c-0.088-0.438-0.176-0.787-0.438-1.05c-0.263-0.262-0.612-0.437-1.137-0.437c-0.787,0-1.399,0.525-1.574,1.399h3.148V358.308z"/>
			<path fill="#0071D0" d="M465.778,356.559c0,0.087,0,0.262,0,0.35c0.612-0.7,1.225-1.049,2.099-1.049
				c0.875,0,1.487,0.262,2.012,0.7c0.524,0.524,0.787,1.312,0.787,2.449c0,1.924-1.05,3.061-2.886,3.061
				c-0.963,0-1.574-0.35-2.1-1.049c0,0.087,0,0.087,0,0.35c0,0.088,0,0.263,0,0.438v0.787c0,0.612,0,0.962,0.088,1.399h-1.399
				c0.088-0.525,0.088-0.875,0.088-1.399v-5.247c0-0.612,0-0.962-0.088-1.399h1.399V356.559z M467.614,356.996
				c-1.049,0-1.836,0.875-1.836,2.012c0,1.224,0.787,2.011,1.836,2.011c1.05,0,1.662-0.787,1.662-2.011
				C469.364,357.783,468.751,356.996,467.614,356.996z"/>
			<path fill="#0071D0" d="M476.709,359.882c0.087,0.262,0.175,0.437,0.35,0.612c0.263,0.35,0.699,0.525,1.312,0.525
				c1.05,0,1.749-0.7,1.749-1.749s-0.611-1.662-1.661-1.662c-0.524,0-0.962,0.175-1.312,0.525c-0.175,0.175-0.263,0.262-0.351,0.437
				l-1.312-0.087c0.088-0.787,0.088-0.787,0.175-1.049l0.263-2.624c0-0.175,0-0.525,0-1.05c0.35,0,0.524,0,1.137,0h2.624
				c0.699,0,0.962,0,1.486-0.087v1.225c-0.438-0.087-0.874-0.087-1.486-0.087h-2.449l-0.175,1.836c0,0.087,0,0.262-0.087,0.437
				c0.524-0.437,1.049-0.612,1.836-0.612c0.875,0,1.574,0.262,2.012,0.787c0.524,0.525,0.787,1.137,0.787,2.012
				c0,1.836-1.225,2.974-3.148,2.974c-1.05,0-1.837-0.263-2.361-0.875c-0.263-0.262-0.438-0.524-0.699-1.137L476.709,359.882z"/>
		</g>
		<g>
			<g>
				<path d="M429.309,434.13c-0.262,0.962-0.524,1.486-0.962,2.099c-0.35-0.35-0.524-0.438-0.874-0.612
					c0.524-0.612,0.699-1.137,0.962-1.924L429.309,434.13z M428.61,433.692c-0.35,0-0.524,0-0.787,0c0-0.263,0-0.699,0-1.137v-4.548
					c0-0.438,0-0.699,0-1.049c0.263,0,0.524,0,0.875,0h1.224c0.351,0,0.612,0,0.787,0c0,0.262,0,0.437,0,0.962v4.81
					c0,0.612,0,0.787,0,0.962c-0.262,0-0.35,0-0.699,0H428.61z M428.784,428.97h0.962v-0.962h-0.962V428.97z M428.784,430.807h0.962
					v-0.962h-0.962V430.807z M428.784,432.73h0.962v-1.05h-0.962V432.73z M430.272,433.692c0.262,0.7,0.437,1.137,0.874,1.749
					c-0.263,0.088-0.438,0.263-0.787,0.612c-0.35-0.699-0.612-1.137-0.874-1.924L430.272,433.692z M431.845,430.719
					c-0.35,0-0.611,0-0.874,0.088v-0.962c0.263,0,0.438,0.087,0.874,0.087h0.525v-0.524h-0.35c-0.263,0-0.525,0-0.7,0v-0.874
					c0.263,0,0.263,0,0.7,0h0.262v-0.438h-0.438c-0.35,0-0.524,0-0.786,0v-0.875c0.262,0,0.437,0.088,0.786,0.088h0.438
					c0-0.438,0-0.525-0.087-0.7h1.137c-0.088,0.175-0.088,0.351-0.088,0.7h1.225c0-0.438,0-0.525-0.088-0.7h1.138
					c0,0.175-0.088,0.438-0.088,0.7h0.612c0.35,0,0.524,0,0.787-0.088v0.875c-0.263,0-0.438,0-0.787,0h-0.612v0.438h0.438
					c0.263,0,0.524,0,0.699,0v0.874c-0.175,0-0.437,0-0.699,0h-0.438v0.524h0.7c0.437,0,0.611,0,0.874-0.087v0.962
					c-0.263,0-0.438-0.088-0.874-0.088h-1.837v0.438h1.225c0.437,0,0.699,0,0.962,0c0,0.175,0,0.524,0,0.875v1.661
					c0.262,0,0.35,0,0.524-0.087v0.962c-0.175,0-0.263,0-0.524,0v0.699c0,0.787-0.263,0.962-1.137,0.962c-0.263,0-0.525,0-0.963,0
					c-0.087-0.524-0.087-0.612-0.175-0.962c0.351,0.088,0.612,0.088,0.875,0.088c0.35,0,0.438,0,0.438-0.263v-0.524h-3.148v0.437
					c0,0.7,0,0.962,0,1.313h-1.137c0-0.351,0.087-0.612,0.087-1.313v-0.437c-0.263,0-0.35,0-0.612,0.087v-0.962
					c0.175,0,0.35,0,0.612,0.088v-1.574c0-0.438,0-0.7,0-0.962c0.263,0,0.524,0,0.962,0h1.05v-0.438h-1.487V430.719z
					 M433.419,432.031h-1.049v0.524h1.049V432.031z M433.419,433.255h-1.049v0.525h1.049V433.255z M433.332,428.708h1.225v-0.438
					h-1.225V428.708z M433.332,429.932h1.225v-0.524h-1.225V429.932z M435.606,432.468v-0.524h-1.137v0.524H435.606z
					 M435.606,433.692v-0.524h-1.137v0.524H435.606z"/>
				<path d="M440.853,428.271c-0.262,0-0.612,0-1.049,0.087v-1.224c0.262,0,0.524,0.087,0.962,0.087h1.661
					c0.438,0,0.7,0,0.962-0.087c0,0.262,0,0.437,0,0.699c0,1.486,0.351,2.886,1.138,4.198c0.437,0.699,0.962,1.398,1.661,2.011
					c0.524,0.525,0.875,0.7,1.574,1.138c-0.438,0.35-0.612,0.699-0.875,1.224c-1.049-0.699-1.836-1.486-2.536-2.448
					c-0.35-0.525-0.611-0.875-0.962-1.574c-0.262-0.612-0.35-0.875-0.524-1.487c-0.35,1.313-0.787,2.274-1.486,3.148
					c-0.7,0.875-1.487,1.574-2.624,2.361c-0.263-0.438-0.438-0.787-0.874-1.137c0.874-0.524,1.398-0.874,2.099-1.661
					c0.787-0.875,1.486-2.012,1.836-3.062c0.176-0.699,0.263-1.312,0.351-2.099h-1.313V428.271z"/>
				<path d="M449.861,430.632c-0.524,0-0.874,0-1.224,0.087v-1.137c0.262,0,0.699,0.088,1.312,0.088h2.361v-0.875h-1.574
					c-0.524,0-0.875,0-1.225,0v-1.137c0.263,0,0.7,0.088,1.225,0.088h1.574v-0.263c0-0.438,0-0.612-0.088-0.962h1.313
					c-0.088,0.262-0.088,0.524-0.088,0.962v0.175h0.787c0.524,0,0.874,0,1.137-0.088v0.875c0.524-0.612,0.962-1.137,1.225-1.574
					l1.05,0.699c-0.088,0.088-0.263,0.263-0.438,0.525c-0.438,0.524-0.875,0.962-1.399,1.486h1.05c0.524,0,0.874,0,1.224-0.087
					v1.137c-0.35,0-0.787-0.088-1.312-0.088h-2.273c-0.438,0.263-0.7,0.438-1.137,0.787c0.262,0,0.611,0,0.874,0h1.574
					c0.524,0,0.787,0,1.137,0c0,0.263,0,0.524,0,1.137v2.624c0,0.524,0,0.874,0.088,1.225h-1.225v-0.438h-3.848v0.438h-1.225
					c0-0.351,0.087-0.7,0.087-1.225v-1.662c0-0.175,0-0.437,0-0.611c-0.611,0.35-0.874,0.437-1.661,0.699
					c-0.175-0.438-0.35-0.699-0.612-1.05c1.574-0.437,2.974-1.049,4.285-1.924h-2.974V430.632z M451.784,433.168h3.761v-0.787
					h-3.761V433.168z M451.784,434.829h3.761v-0.787h-3.761V434.829z M454.146,429.582c0.351-0.263,0.7-0.524,1.05-0.874
					c-0.263,0-0.438,0-0.875,0h-0.874v0.874H454.146z"/>
				<path d="M458.781,431.419c0.262-0.962,0.35-1.574,0.35-2.799l0.787,0.175c0,1.137-0.088,2.012-0.35,2.886L458.781,431.419z
					 M461.23,435.004c0,0.525,0,0.875,0.088,1.313h-1.225c0.087-0.351,0.087-0.787,0.087-1.313v-7.258c0-0.438,0-0.787-0.087-1.138
					h1.225c-0.088,0.351-0.088,0.612-0.088,1.138v0.874l0.612-0.263c0.263,0.525,0.263,0.612,0.524,1.399l-0.262,0.088
					c0.262,0,0.437,0,0.874,0h1.574v-0.438h-1.225c-0.437,0-0.612,0-0.874,0v-0.962c0.262,0,0.438,0,0.874,0h1.225v-0.35h-1.312
					c-0.524,0-0.787,0-1.05,0.087v-1.049c0.263,0.087,0.524,0.087,1.05,0.087h1.312c0-0.35,0-0.438-0.087-0.699h1.224
					c-0.087,0.262-0.087,0.35-0.087,0.699h1.574c0.612,0,0.787,0,1.049-0.087v1.049c-0.262,0-0.524-0.087-1.049-0.087h-1.662v0.35
					h1.487c0.437,0,0.611,0,0.874,0v0.962c-0.263,0-0.438,0-0.874,0h-1.487v0.438h1.837c0.524,0,0.787,0,1.049-0.088v1.05
					c-0.35,0-0.611-0.088-1.049-0.088h-4.46c-0.525,0-0.787,0-1.05,0.088v-0.962l-0.35,0.175c-0.088-0.438-0.175-0.787-0.35-1.137
					v6.121H461.23z M463.503,435.092c0,0.524,0,0.874,0.088,1.225h-1.225c0-0.351,0.088-0.612,0.088-1.225v-3.061
					c0-0.438,0-0.612,0-0.875c0.262,0,0.438,0,0.874,0h3.674c0.437,0,0.699,0,0.962,0c0,0.263,0,0.524,0,1.05v2.974
					c0,0.786-0.263,1.049-1.313,1.049c-0.262,0-0.437,0-0.962,0c-0.087-0.438-0.087-0.612-0.262-1.049
					c0.437,0.087,0.787,0.087,1.049,0.087c0.35,0,0.438,0,0.438-0.263v-0.35h-3.411V435.092z M466.74,432.556v-0.438h-3.236v0.438
					H466.74z M466.74,433.78v-0.438h-3.236v0.438H466.74z"/>
				<path d="M473.211,429.407c0.438,0,0.612,0,0.874-0.088v1.138c-0.175,0-0.35,0-0.612,0c-0.087,0.524-0.175,0.699-0.35,1.137
					h0.088c0.35,0,0.612,0,0.787-0.088v1.137c-0.263,0-0.525,0-0.875,0h-0.787v0.875h0.7c0.437,0,0.611,0,0.874,0v1.137
					c-0.263,0-0.524,0-0.874,0h-0.7v0.787c0,0.35,0,0.7,0.088,1.05h-1.137c0-0.35,0.087-0.7,0.087-1.05v-0.962h-0.787
					c-0.438,0-0.612,0-0.874,0v-1.137c0.262,0,0.437,0,0.874,0h0.787v-0.875h-0.962c-0.438,0-0.612,0-0.875,0v-1.137
					c0.263,0,0.438,0.088,0.875,0.088h0.088c-0.088-0.438-0.088-0.7-0.263-1.137c-0.35,0-0.524,0-0.787,0v-1.138
					c0.263,0,0.524,0.088,0.874,0.088h0.963v-0.787h-0.7c-0.35,0-0.612,0-0.874,0v-1.05c0.262,0,0.437,0,0.874,0h0.7v-0.175
					c0-0.262,0-0.612-0.088-0.787h1.137c0,0.263,0,0.438,0,0.787v0.175h0.612c0.438,0,0.612,0,0.875,0v1.05
					c-0.263,0-0.525,0-0.875,0h-0.612v0.787h0.875V429.407z M472.249,431.594c0.175-0.35,0.262-0.7,0.35-1.137h-1.225
					c0.175,0.524,0.175,0.699,0.263,1.137H472.249z M478.896,430.807c-0.088,0.175-0.088,0.175-0.088,0.438
					c-0.263,0.962-0.524,1.924-0.874,2.623c0.437,0.525,0.787,0.787,1.486,1.225c-0.35,0.524-0.438,0.699-0.612,1.137
					c-0.612-0.524-0.962-0.787-1.399-1.399c-0.35,0.525-0.699,0.875-1.224,1.313c-0.176-0.351-0.351-0.612-0.612-0.875
					c0,0.438,0,0.612,0.087,0.962h-1.225c0.088-0.438,0.088-0.699,0.088-1.225v-6.996c0-0.35,0-0.787-0.088-1.049
					c0.263,0,0.612,0.087,0.963,0.087h2.623c0.438,0,0.787,0,0.962-0.087c0,0.262,0,0.437-0.087,0.699
					c-0.088,1.924-0.263,2.187-1.399,2.187c-0.263,0-0.438,0-0.962-0.088c-0.088-0.437-0.088-0.612-0.263-0.962
					c0.438,0.088,0.875,0.088,1.05,0.088c0.35,0,0.35-0.088,0.437-0.875h-2.273v2.274h2.012c0.524,0,0.787,0,0.962,0
					L478.896,430.807z M475.398,435.18c0.524-0.351,0.787-0.7,1.137-1.225c-0.438-0.787-0.7-1.313-0.962-2.624h-0.175V435.18z
					 M476.534,431.331c0.175,0.7,0.35,1.137,0.612,1.662c0.262-0.525,0.35-0.875,0.524-1.662H476.534z"/>
				<path d="M482.831,428.271c-0.263,0-0.612,0-1.05,0.087v-1.224c0.263,0,0.524,0.087,0.962,0.087h1.661c0.438,0,0.7,0,0.963-0.087
					c0,0.262,0,0.437,0,0.699c0,1.486,0.35,2.886,1.137,4.198c0.437,0.699,0.962,1.398,1.661,2.011
					c0.524,0.525,0.875,0.7,1.574,1.138c-0.438,0.35-0.612,0.699-0.874,1.224c-1.05-0.699-1.837-1.486-2.536-2.448
					c-0.351-0.525-0.612-0.875-0.962-1.574c-0.263-0.612-0.351-0.875-0.525-1.487c-0.35,1.313-0.787,2.274-1.486,3.148
					c-0.7,0.875-1.487,1.574-2.624,2.361c-0.262-0.438-0.437-0.787-0.874-1.137c0.874-0.524,1.399-0.874,2.099-1.661
					c0.787-0.875,1.486-2.012,1.837-3.062c0.175-0.699,0.262-1.312,0.35-2.099h-1.312V428.271z"/>
				<path d="M497.785,428.708c0.612,0,0.962,0,1.312-0.088c0,0.438,0,0.438-0.087,1.574c0,1.399-0.175,3.235-0.263,3.936
					c-0.175,0.962-0.263,1.312-0.612,1.574c-0.262,0.175-0.699,0.262-1.224,0.262c-0.525,0-0.963,0-1.574-0.087
					c-0.088-0.524-0.176-0.875-0.263-1.312c0.699,0.175,1.312,0.175,1.837,0.175c0.524,0,0.611-0.175,0.786-0.875
					c0.176-0.787,0.263-2.448,0.263-4.11h-2.799c-0.175,1.574-0.437,2.624-0.962,3.498c-0.611,1.138-1.574,2.012-3.061,2.799
					c-0.263-0.438-0.524-0.787-0.874-1.05c1.398-0.611,2.36-1.486,2.973-2.623c0.351-0.612,0.525-1.487,0.7-2.624h-1.837
					c-0.524,0-0.962,0-1.312,0.088v-1.225c0.35,0.088,0.699,0.088,1.312,0.088h1.837c0-0.438,0-0.525,0-1.05s0-0.787-0.088-1.05
					h1.399c-0.087,0.263-0.087,0.263-0.087,2.1H497.785z"/>
			</g>
		</g>
		<g>
			<g>
				<path fill="#717272" d="M468.751,405.183c-1.574,0-3.236-0.524-4.548-1.574c-3.148-2.536-3.673-7.171-1.137-10.319
					s7.171-3.673,10.319-1.137s3.673,7.171,1.137,10.32C473.036,404.309,470.85,405.183,468.751,405.183z M468.751,391.453
					c-1.925,0-3.761,0.787-5.072,2.449c-2.187,2.798-1.749,6.821,0.962,9.095c2.798,2.187,6.821,1.749,9.095-0.962
					c2.273-2.798,1.749-6.821-0.962-9.095C471.637,391.89,470.15,391.453,468.751,391.453z"/>
				<path fill="#717272" d="M465.165,394.951l-0.699-0.525c1.924-2.361,5.334-2.711,7.695-0.875l-0.524,0.7
					C469.625,392.677,466.74,393.026,465.165,394.951z"/>
				
					<rect x="475.933" y="400.706" transform="matrix(-0.6259 0.7799 -0.7799 -0.6259 1091.5649 285.7526)" fill="#717272" width="2.624" height="7.958"/>
			</g>
			<path fill="#717272" d="M478.458,410.168h-29.821v-31.046h29.821V410.168z M449.511,409.293h28.072v-29.297h-28.072V409.293z"/>
		</g>
	</g>
	<g>
		<path fill="#FFFFFF" d="M608.501,448.472h-80.457c-1.924,0-3.498-1.573-3.498-3.498v-97.948c0-1.924,1.574-3.498,3.498-3.498
			h80.457c1.925,0,3.499,1.574,3.499,3.498v97.948C612,446.898,610.426,448.472,608.501,448.472z"/>
		<g>
			<path fill="#0071D0" d="M551.744,359.444c0,0.438,0.087,0.7,0.263,0.962c0.262,0.438,0.874,0.612,1.573,0.612
				c1.05,0,1.662-0.438,1.662-1.224c0-0.438-0.175-0.787-0.524-0.962c-0.351-0.175-0.351-0.175-1.837-0.524
				c-0.787-0.175-1.225-0.35-1.574-0.612c-0.524-0.437-0.787-0.962-0.787-1.662c0-1.487,1.137-2.361,2.974-2.361
				c1.225,0,2.099,0.35,2.624,1.049c0.262,0.35,0.35,0.7,0.524,1.225l-1.487,0.175c-0.087-0.35-0.175-0.524-0.35-0.787
				c-0.262-0.35-0.699-0.524-1.312-0.524c-0.875,0-1.574,0.437-1.574,1.137c0,0.438,0.263,0.787,0.699,0.962
				c0.263,0.087,0.351,0.087,1.487,0.35c0.787,0.175,1.312,0.35,1.749,0.612c0.612,0.438,0.874,1.05,0.874,1.837
				c0,0.787-0.262,1.312-0.699,1.749c-0.524,0.524-1.399,0.787-2.536,0.787c-0.875,0-1.662-0.175-2.187-0.525
				c-0.438-0.262-0.699-0.7-0.962-1.225c-0.087-0.262-0.175-0.437-0.175-0.875L551.744,359.444z"/>
			<path fill="#0071D0" d="M560.052,354.372c0,0.35-0.087,0.787-0.087,1.312v0.35h0.438c0.524,0,0.699,0,1.049-0.087v1.224
				c-0.35-0.087-0.524-0.087-1.049-0.087h-0.438v3.236c0,0.525,0.175,0.7,0.699,0.7c0.263,0,0.438-0.087,0.787-0.262l0.175,1.137
				c-0.437,0.175-0.787,0.262-1.312,0.262c-1.225,0-1.661-0.437-1.661-1.574v-3.498h-0.438c-0.35,0-0.612,0-0.962,0.087v-1.224
				c0.262,0.087,0.524,0.087,0.962,0.087h0.35v-0.35c0-0.438,0-0.875-0.087-1.312H560.052z"/>
			<path fill="#0071D0" d="M563.551,359.357c0.087,0.612,0.175,0.875,0.35,1.137c0.262,0.35,0.787,0.612,1.312,0.612
				s0.962-0.175,1.225-0.525c0.087-0.175,0.175-0.262,0.262-0.524l1.225,0.437c-0.263,0.525-0.35,0.7-0.612,0.962
				c-0.524,0.524-1.312,0.787-2.186,0.787c-1.837,0-3.062-1.225-3.062-3.236c0-1.924,1.137-3.236,2.974-3.236
				c1.225,0,2.187,0.612,2.623,1.662c0.176,0.524,0.263,0.875,0.263,1.574c0,0,0,0.087,0,0.262h-4.372V359.357z M566.698,358.308
				c-0.087-0.438-0.175-0.787-0.437-1.05c-0.263-0.262-0.612-0.437-1.138-0.437c-0.787,0-1.398,0.525-1.573,1.399h3.147V358.308z"/>
			<path fill="#0071D0" d="M570.547,356.559c0,0.087,0,0.262,0,0.35c0.612-0.7,1.224-1.049,2.099-1.049
				c0.874,0,1.486,0.262,2.012,0.7c0.524,0.524,0.787,1.312,0.787,2.449c0,1.924-1.05,3.061-2.887,3.061
				c-0.962,0-1.573-0.35-2.099-1.049c0,0.087,0,0.087,0,0.35c0,0.088,0,0.263,0,0.438v0.787c0,0.612,0,0.962,0.088,1.399h-1.487
				c0.088-0.525,0.088-0.875,0.088-1.399v-5.247c0-0.612,0-0.962-0.088-1.399h1.399v0.612H570.547z M572.383,356.996
				c-1.049,0-1.836,0.875-1.836,2.012c0,1.224,0.787,2.011,1.836,2.011c1.05,0,1.662-0.787,1.662-2.011
				C574.132,357.783,573.433,356.996,572.383,356.996z"/>
			<path fill="#0071D0" d="M584.802,355.771c-0.263-0.787-0.7-1.05-1.399-1.05s-1.312,0.35-1.662,1.05
				c-0.262,0.524-0.35,1.049-0.437,1.836c0.524-0.787,1.224-1.049,2.273-1.049s2.012,0.437,2.448,1.224
				c0.263,0.438,0.351,0.962,0.351,1.574c0,1.662-1.225,2.798-3.062,2.798c-0.874,0-1.574-0.262-2.099-0.699
				c-0.787-0.7-1.225-1.924-1.225-3.499c0-1.312,0.351-2.536,0.875-3.236c0.612-0.875,1.486-1.224,2.536-1.224
				c0.874,0,1.661,0.262,2.187,0.787c0.262,0.262,0.437,0.525,0.699,1.049L584.802,355.771z M581.479,359.357
				c0,0.962,0.787,1.662,1.749,1.662c0.612,0,1.137-0.262,1.399-0.7c0.175-0.262,0.262-0.612,0.262-0.962
				c0-1.049-0.612-1.662-1.661-1.662C582.266,357.695,581.479,358.395,581.479,359.357z"/>
		</g>
		<g>
			<g>
				<path d="M549.995,434.13c-0.263,0.962-0.524,1.486-0.962,2.099c-0.35-0.35-0.525-0.438-0.875-0.612
					c0.525-0.612,0.7-1.137,0.962-1.924L549.995,434.13z M549.295,433.692c-0.35,0-0.524,0-0.787,0c0-0.263,0-0.699,0-1.137v-4.548
					c0-0.438,0-0.699,0-1.049c0.263,0,0.525,0,0.875,0h1.225c0.35,0,0.612,0,0.787,0c0,0.262,0,0.437,0,0.962v4.81
					c0,0.612,0,0.787,0,0.962c-0.263,0-0.351,0-0.7,0H549.295z M549.558,428.97h0.962v-0.962h-0.962V428.97z M549.558,430.807h0.962
					v-0.962h-0.962V430.807z M549.558,432.73h0.962v-1.05h-0.962V432.73z M550.957,433.692c0.263,0.7,0.438,1.137,0.874,1.749
					c-0.262,0.088-0.437,0.263-0.787,0.612c-0.35-0.699-0.611-1.137-0.874-1.924L550.957,433.692z M552.618,430.719
					c-0.35,0-0.611,0-0.874,0.088v-0.962c0.263,0,0.438,0.087,0.874,0.087h0.525v-0.524h-0.263c-0.263,0-0.524,0-0.699,0v-0.874
					c0.262,0,0.262,0,0.699,0h0.263v-0.438h-0.438c-0.35,0-0.524,0-0.787,0v-0.875c0.263,0,0.438,0.088,0.787,0.088h0.438
					c0-0.438,0-0.525-0.088-0.7h1.137c-0.087,0.175-0.087,0.351-0.087,0.7h1.225c0-0.438,0-0.525-0.088-0.7h1.137
					c0,0.175-0.087,0.438-0.087,0.7h0.612c0.35,0,0.524,0,0.787-0.088v0.875c-0.263,0-0.438,0-0.787,0h-0.612v0.438h0.437
					c0.263,0,0.525,0,0.7,0v0.874c-0.175,0-0.438,0-0.7,0h-0.437v0.524h0.699c0.438,0,0.612,0,0.875-0.087v0.962
					c-0.263,0-0.438-0.088-0.875-0.088h-1.836v0.438h1.224c0.438,0,0.7,0,0.962,0c0,0.175,0,0.524,0,0.875v1.661
					c0.263,0,0.351,0,0.525-0.087v0.962c-0.175,0-0.263,0-0.525,0v0.699c0,0.787-0.262,0.962-1.137,0.962c-0.263,0-0.524,0-0.962,0
					c-0.087-0.524-0.087-0.612-0.175-0.962c0.35,0.088,0.612,0.088,0.874,0.088c0.351,0,0.438,0,0.438-0.263v-0.524h-3.148v0.437
					c0,0.7,0,0.962,0,1.313h-1.137c0-0.351,0.088-0.612,0.088-1.313v-0.437c-0.263,0-0.35,0-0.612,0.087v-0.962
					c0.175,0,0.35,0,0.612,0.088v-1.574c0-0.438,0-0.7,0-0.962c0.262,0,0.524,0,0.962,0h1.05v-0.438h-1.575V430.719z
					 M554.193,432.031h-1.049v0.524h1.049V432.031z M554.193,433.255h-1.049v0.525h1.049V433.255z M554.106,428.708h1.225v-0.438
					h-1.225V428.708z M554.106,429.932h1.225v-0.524h-1.225V429.932z M556.292,432.468v-0.524h-1.138v0.524H556.292z
					 M556.292,433.692v-0.524h-1.138v0.524H556.292z"/>
				<path d="M561.539,428.271c-0.263,0-0.612,0-1.05,0.087v-1.224c0.263,0,0.524,0.087,0.962,0.087h1.662
					c0.437,0,0.699,0,0.962-0.087c0,0.262,0,0.437,0,0.699c0,1.486,0.35,2.886,1.137,4.198c0.438,0.699,0.962,1.398,1.661,2.011
					c0.525,0.525,0.875,0.7,1.574,1.138c-0.437,0.35-0.611,0.699-0.874,1.224c-1.05-0.699-1.837-1.486-2.536-2.448
					c-0.35-0.525-0.612-0.875-0.962-1.574c-0.263-0.612-0.351-0.875-0.525-1.487c-0.35,1.313-0.787,2.274-1.486,3.148
					c-0.699,0.875-1.486,1.574-2.624,2.361c-0.262-0.438-0.437-0.787-0.874-1.137c0.874-0.524,1.399-0.874,2.099-1.661
					c0.787-0.875,1.487-2.012,1.837-3.062c0.175-0.699,0.262-1.312,0.35-2.099h-1.312V428.271z"/>
				<path d="M570.634,432.293c-0.524,0-0.787,0-1.137,0.088v-1.137c0.263,0.087,0.612,0.087,1.137,0.087h6.909
					c0.524,0,0.787,0,1.137-0.087v1.137c-0.35,0-0.612-0.088-1.137-0.088h-1.924v2.361c0,0.263,0.175,0.263,1.049,0.263
					c0.787,0,1.05-0.088,1.05-0.263c0.088-0.175,0.088-0.524,0.088-0.874c0,0,0-0.088,0-0.175c0.437,0.175,0.611,0.262,1.049,0.35
					c0,1.049-0.175,1.486-0.524,1.749c-0.263,0.262-0.699,0.35-2.099,0.35c-1.574,0-1.837-0.175-1.837-0.874v-2.799h-1.137
					c-0.088,0.962-0.175,1.399-0.524,2.012c-0.525,0.874-1.225,1.398-2.887,2.011c-0.175-0.438-0.35-0.699-0.612-1.049
					c0.875-0.263,1.225-0.351,1.574-0.612c0.7-0.35,1.138-0.962,1.225-1.749c0-0.175,0-0.263,0.088-0.525h-1.487V432.293z
					 M573.345,427.396c0-0.262,0-0.524-0.087-0.787h1.312c0,0.175-0.087,0.438-0.087,0.787v0.263h2.886c0.524,0,0.787,0,1.137,0
					c0,0.263,0,0.438,0,0.787v0.875c0,0.35,0,0.611,0,0.786h-1.137v-1.398h-6.821v1.398h-1.137c0-0.262,0.087-0.437,0.087-0.786
					v-0.875c0-0.35,0-0.524,0-0.787c0.35,0,0.612,0,1.137,0h2.711V427.396z M570.984,429.407c0.263,0,0.525,0.088,0.962,0.088h4.111
					c0.437,0,0.699,0,1.049-0.088v1.137c-0.262,0-0.524-0.087-1.049-0.087h-4.111c-0.437,0-0.699,0-0.962,0.087V429.407z"/>
				<path d="M581.216,428.183c-0.612,0-0.962,0-1.399,0.088v-1.225c0.438,0,0.787,0.088,1.399,0.088h5.335
					c0.524,0,0.874,0,1.137-0.088l0.699,0.787c-0.175,0.175-0.262,0.263-0.437,0.438c-1.138,1.137-1.925,1.749-3.323,2.623v4.286
					c0,0.786-0.351,1.049-1.574,1.049c-0.438,0-0.525,0-1.487-0.087c-0.087-0.525-0.175-0.787-0.262-1.225
					c0.699,0.087,1.137,0.175,1.661,0.175c0.35,0,0.438-0.088,0.438-0.263v-3.936c0-0.437,0-0.787-0.088-1.049h0.962
					c0.787-0.438,1.399-0.875,2.1-1.574h-5.16V428.183z"/>
			</g>
		</g>
		<g>
			<path fill="#717272" d="M568.273,409.293c-8.046,0-14.604-6.559-14.604-14.605c0-8.045,6.559-14.604,14.604-14.604
				s14.605,6.559,14.605,14.604C582.878,402.734,576.319,409.293,568.273,409.293z M568.273,380.958
				c-7.521,0-13.729,6.122-13.729,13.73c0,7.521,6.121,13.73,13.729,13.73c7.521,0,13.73-6.121,13.73-13.73
				C582.003,387.167,575.881,380.958,568.273,380.958z"/>
			<polygon fill="#717272" points="565.124,400.023 561.014,396.087 562.152,394.863 565.124,397.662 574.483,389.091 
				575.619,390.403 			"/>
		</g>
	</g>
	<polygon fill="#0071D0" points="87.453,382.882 100.572,396 87.453,409.118 	"/>
	<polygon fill="#0071D0" points="192.311,382.882 205.428,396 192.311,409.118 	"/>
	<polygon fill="#0071D0" points="297.254,382.882 310.372,396 297.254,409.118 	"/>
	<polygon fill="#0071D0" points="402.198,382.882 415.317,396 402.198,409.118 	"/>
	<polygon fill="#0071D0" points="507.143,382.882 520.261,396 507.143,409.118 	"/>
</g>
</svg>
