<?xml version="1.0" encoding="utf-8"?>
<!-- Generator: Adobe Illustrator 22.1.0, SVG Export Plug-In . SVG Version: 6.00 Build 0)  -->
<!DOCTYPE svg PUBLIC "-//W3C//DTD SVG 1.1//EN" "http://www.w3.org/Graphics/SVG/1.1/DTD/svg11.dtd" [
	<!ENTITY st0 "fill:#717272;">
	<!ENTITY st1 "fill:#008AE8;">
	<!ENTITY st2 "fill:#FFFFFF;">
]>
<svg version="1.1" id="レイヤー_1" xmlns="http://www.w3.org/2000/svg" xmlns:xlink="http://www.w3.org/1999/xlink" x="0px"
	 y="0px" viewBox="0 0 669.8 140" style="enable-background:new 0 0 669.8 140;" xml:space="preserve">
<rect x="148.3" y="69" style="&st0;" width="20" height="2"/>
<rect x="324.9" y="69" style="&st0;" width="20" height="2"/>
<rect x="501.5" y="69" style="&st0;" width="20" height="2"/>
<g>
	<circle style="&st1;" cx="70" cy="70" r="70"/>
	<g>
		<path style="&st2;" d="M68.8,47c0.1-0.8,0.2-1.6,0.2-2.7V32.7h-1c-0.8,0-1.4,0-2.2,0.1v-2.7c0.7,0.1,1.1,0.1,2.1,0.1h1.9
			c1.1,0,1.4,0,2.1-0.1c-0.1,1.2-0.2,2.2-0.2,3.5v10.6c0,1.1,0,1.9,0.2,2.7H68.8z"/>
		<path style="&st2;" d="M29.6,69.9c0-0.1,0-1.2,0.1-1.5c-0.4,0.9-1.1,1.8-2.1,2.9c-1.2,1.3-2.7,2.6-4.1,3.7c-0.8,0.6-1.5,1-3.1,1.9
			c-0.5-1-0.8-1.4-1.7-2.2c2.5-1.1,4.5-2.5,6.6-4.6c1.1-1.1,2.1-2.4,2.8-3.5h-5.8c-1.6,0-1.8,0-2.6,0.1v-2.6
			c0.8,0.1,1.2,0.1,2.6,0.1h7.3l0-1.7c0-1.1,0-1.1-0.1-1.9h2.8c-0.1,0.5-0.1,0.9-0.1,1.8v0.1l0,1.7h2.1c1.4,0,1.7,0,2.5-0.1v2.5
			c-0.6-0.1-1.1-0.1-2.4-0.1h-2.2l0.1,9.7c0,1,0.1,1.8,0.1,2.4h-2.9c0.1-0.6,0.1-1.2,0.1-2c0-0.1,0-0.2,0-0.4l-0.1-6.3V69.9z"/>
		<path style="&st2;" d="M41,75.3c1.8-0.1,4.3-0.7,6.2-1.6c2.6-1.1,4.6-2.8,6.2-5.1c0.9-1.3,1.5-2.5,2.1-4.2c0.8,1,1.2,1.3,2.2,2.1
			c-1.8,3.8-3.8,6.3-6.7,8.2c-2.1,1.4-4.7,2.5-8,3.1c-0.8,0.2-0.9,0.2-1.4,0.4L41,75.3z M42.8,62.2c2.5,1.6,3.8,2.5,5.4,4.1
			l-1.8,2.3c-1.7-1.8-3.4-3.2-5.4-4.3L42.8,62.2z"/>
		<path style="&st2;" d="M78.2,67.7C78,68,77.9,68.3,77.7,69c-1.1,3.1-2.7,5.4-4.9,7.1c-1.5,1.2-2.9,1.9-5.5,2.9
			c-0.5-1-0.7-1.4-1.6-2.4c2.6-0.7,4.2-1.4,5.8-2.8c1.6-1.3,2.5-2.6,3.4-4.9H64.6c-1.4,0-1.9,0-2.7,0.1v-2.6
			c0.8,0.1,1.3,0.1,2.7,0.1h10c1.3,0,1.7,0,2.4-0.2L78.2,67.7z M63.7,61.3c0.7,0.1,1.1,0.1,2.5,0.1h7.3c1.3,0,1.8,0,2.5-0.1v2.6
			c-0.7-0.1-1.1-0.1-2.4-0.1h-7.4c-1.4,0-1.8,0-2.4,0.1V61.3z"/>
		<path style="&st2;" d="M99,62.4c-0.4,0.3-0.5,0.4-0.8,0.7c-1.6,1.6-3.1,3-5,4.3v9c0,1.2,0,1.8,0.1,2.3h-2.9c0.1-0.6,0.1-1,0.1-2.3
			v-7.4c-2.5,1.5-3.6,2-7.5,3.4c-0.4-1.1-0.7-1.4-1.4-2.4c4.2-1.1,7.7-2.9,11-5.5c1.9-1.4,3.3-2.9,3.9-3.9L99,62.4z"/>
		<path style="&st2;" d="M104,75.3c1.8-0.1,4.3-0.7,6.2-1.6c2.6-1.1,4.6-2.8,6.2-5.1c0.9-1.3,1.5-2.5,2.1-4.2c0.8,1,1.2,1.3,2.2,2.1
			c-1.8,3.8-3.8,6.3-6.7,8.2c-2.1,1.4-4.7,2.5-8,3.1c-0.8,0.2-0.9,0.2-1.4,0.4L104,75.3z M105.8,62.2c2.5,1.6,3.8,2.5,5.4,4.1
			l-1.8,2.3c-1.7-1.8-3.4-3.2-5.4-4.3L105.8,62.2z"/>
		<path style="&st2;" d="M53.5,102.2c-0.6,2-1,2.9-2,4.3c-0.7-0.6-1.1-0.9-1.7-1.2c1-1.3,1.4-2.2,1.9-3.9L53.5,102.2z M52.1,101.3
			c-0.7,0-1.1,0-1.5,0.1c0-0.6,0.1-1.5,0.1-2.2V90c0-0.9,0-1.4-0.1-2.1c0.5,0,1,0.1,1.7,0.1h2.5c0.8,0,1.2,0,1.7-0.1
			c0,0.5-0.1,0.8-0.1,1.9v9.6c0,1.2,0,1.5,0.1,2c-0.5,0-0.8-0.1-1.4-0.1H52.1z M52.6,91.8h2v-1.9h-2V91.8z M52.6,95.4h2v-1.8h-2
			V95.4z M52.6,99.3h2v-2.1h-2V99.3z M55.4,101.4c0.5,1.4,0.9,2.4,1.8,3.5c-0.5,0.2-0.9,0.5-1.7,1.2c-0.8-1.3-1.2-2.2-1.7-3.8
			L55.4,101.4z M58.6,95.4c-0.8,0-1.2,0-1.7,0.1v-1.9c0.5,0.1,0.9,0.1,1.7,0.1h1v-1H59c-0.6,0-1.1,0-1.5,0.1v-1.7
			c0.5,0.1,0.5,0.1,1.5,0.1h0.6v-0.9h-0.9c-0.7,0-1.1,0-1.6,0.1v-1.8c0.5,0.1,0.9,0.1,1.6,0.1h0.9c0-0.8,0-1.1-0.1-1.5h2.3
			c-0.1,0.4-0.1,0.7-0.1,1.5h2.4c0-0.9,0-1.1-0.1-1.5h2.3c-0.1,0.4-0.1,0.8-0.1,1.5h1.3c0.7,0,1.1,0,1.5-0.1v1.8
			c-0.5-0.1-0.9-0.1-1.5-0.1h-1.3v0.9H67c0.6,0,1,0,1.4-0.1v1.7c-0.4-0.1-0.9-0.1-1.5-0.1h-0.9v1h1.4c0.9,0,1.3,0,1.7-0.1v1.9
			c-0.5-0.1-0.9-0.1-1.7-0.1h-3.7v0.9h2.4c0.8,0,1.4,0,2-0.1c0,0.3-0.1,1.1-0.1,1.8v3.4c0.5,0,0.8,0,1.1-0.1v1.9
			c-0.4-0.1-0.5-0.1-1.1-0.1v1.4c0,1.6-0.5,2-2.4,2c-0.6,0-1.1,0-1.9,0c-0.1-1-0.1-1.3-0.4-1.9c0.7,0.1,1.3,0.1,1.7,0.1
			c0.7,0,0.9-0.1,0.9-0.5v-1.1h-6.3v0.9c0,1.5,0,1.8,0.1,2.6h-2.2c0.1-0.8,0.1-1.3,0.1-2.6v-0.9c-0.5,0-0.8,0-1.2,0.1v-1.9
			c0.4,0.1,0.7,0.1,1.2,0.1v-3.2c0-0.9,0-1.3-0.1-1.9c0.5,0,1,0.1,2,0.1h2.1v-0.9H58.6z M61.8,97.9h-2v1h2V97.9z M61.8,100.4h-2v1h2
			V100.4z M61.7,91.3h2.4v-0.9h-2.4V91.3z M61.7,93.8h2.4v-1h-2.4V93.8z M66.1,98.9v-1h-2.3v1H66.1z M66.1,101.4v-1h-2.3v1H66.1z"/>
		<path style="&st2;" d="M76.6,90.4c-0.6,0-1.2,0-2,0.1V88c0.6,0.1,1.1,0.1,2,0.1h3.3c0.9,0,1.4,0,1.9-0.1c-0.1,0.6-0.1,0.8-0.1,1.3
			c0,3,0.8,5.8,2.2,8.3c0.9,1.5,1.9,2.7,3.4,4c1.1,1,1.7,1.4,3.1,2.3c-0.8,0.8-1.2,1.3-1.8,2.4c-2.1-1.5-3.7-3-5.1-4.9
			c-0.8-1-1.2-1.8-1.8-3.1c-0.5-1.2-0.7-1.7-1.1-3c-0.8,2.7-1.6,4.5-3,6.3c-1.3,1.7-2.9,3.2-5.2,4.7c-0.4-0.9-0.9-1.6-1.7-2.2
			c1.8-1,2.8-1.8,4.2-3.3c1.6-1.7,2.9-3.9,3.6-6.2c0.4-1.4,0.6-2.5,0.7-4.2H76.6z"/>
	</g>
</g>
<g>
	<circle style="&st1;" cx="246.6" cy="70" r="70"/>
	<g>
		<path style="&st2;" d="M243,47c-1.6,0-2,0-2.7,0.1c0.1-1.2,0.3-1.9,0.5-2.7c0.6-1.5,1.5-2.9,2.9-4.1c0.7-0.7,1.4-1.1,3.5-2.5
			c1.9-1.3,2.5-2,2.5-3.1c0-1.4-1.1-2.3-2.9-2.3c-1.2,0-2.1,0.4-2.7,1.2c-0.4,0.5-0.5,1-0.7,1.9l-3-0.4c0.3-1.6,0.7-2.5,1.4-3.4
			c1-1.2,2.7-1.9,4.8-1.9c3.7,0,5.9,1.8,5.9,4.6c0,1.4-0.5,2.4-1.5,3.4c-0.6,0.5-0.8,0.7-3.5,2.6c-0.9,0.7-2,1.5-2.5,2.1
			c-0.6,0.7-0.9,1.1-1.2,1.9h5.9c1.3,0,2.4-0.1,3.1-0.2v2.8c-1-0.1-1.8-0.1-3.2-0.1H243z"/>
		<path style="&st2;" d="M212.2,70.6c-1.3,1.1-1.9,2-1.9,2.9c0,1.4,1.5,2,5.1,2c2.5,0,5.2-0.4,6.6-0.9l0.2,2.9c-0.4,0-0.4,0-0.9,0.1
			c-2.5,0.4-3.9,0.5-5.7,0.5c-2.3,0-4.1-0.2-5.2-0.7c-1.8-0.7-2.7-1.9-2.7-3.5c0-1.6,0.8-3,2.7-4.6L212.2,70.6z M209,62
			c1.6,0.4,3.5,0.5,6.3,0.5c2.7,0,4.2-0.1,5.5-0.4l0.1,2.4c-1.3,0.5-3.8,2.2-5.6,3.5l-1.8-1.4c1.3-0.8,1.6-1,2.1-1.3
			c0.2-0.1,0.3-0.2,0.5-0.3c0.2-0.1,0.2-0.1,0.5-0.3c-0.9,0.1-1.8,0.2-3.1,0.2c-1.1,0-2.8-0.1-3.8-0.3c-0.3,0-0.4,0-0.5,0
			c0,0-0.1,0-0.3,0L209,62z M220,66.6c0.9,1,1.5,1.8,2.2,3.1l-1.5,0.8c-0.7-1.3-1.3-2.1-2.2-3.1L220,66.6z M223.3,69.2
			c-0.6-1.2-1.3-2.1-2.1-3l1.4-0.7c0.9,1,1.5,1.8,2.2,3L223.3,69.2z"/>
		<path style="&st2;" d="M233.7,62.7c0.5-0.9,0.8-1.8,1-2.8l2.6,0.3c-0.4,1-0.7,1.7-1.1,2.5h4.9c1.2,0,1.8,0,2.6-0.1
			c-0.1,0.7-0.1,1.3-0.1,2.6V77c0,1.2,0,1.8,0.1,2.4h-2.4v-1.1h-10.4v1.1h-2.4c0.1-0.5,0.1-1.4,0.1-2.4V65.2c0-1.3,0-1.8-0.1-2.6
			c0.8,0.1,1.3,0.1,2.6,0.1H233.7z M230.9,67.2h10.4v-2.4h-10.4V67.2z M230.9,71.6h10.4v-2.4h-10.4V71.6z M230.9,76.2h10.4v-2.5
			h-10.4V76.2z"/>
		<path style="&st2;" d="M254.7,68.7c-2.6,0.4-2.6,0.4-5.1,0.8c-0.4-1-0.5-1.4-1-2.1c2.7-0.1,5.9-0.6,8.6-1.2
			c2.2-0.5,3.5-0.9,4.5-1.5l2,1.9c-0.6,0.1-0.8,0.2-1.6,0.4c-2.4,0.7-3.6,1-5,1.3v2.2l7.2-0.8c0.9-0.1,1.7-0.2,2.3-0.4l0.2,2.4
			c-0.2,0-0.3,0-0.4,0c-0.4,0-1.4,0.1-1.9,0.1l-7.4,0.8v3.5c0,0.5,0.1,0.7,0.6,0.8c0.4,0.1,1.4,0.1,2.6,0.1c2,0,3-0.1,3.4-0.4
			c0.4-0.3,0.5-0.8,0.5-2.8c1,0.5,1.2,0.6,2.3,0.8c-0.1,1.6-0.2,2.1-0.5,2.7c-0.4,0.9-0.9,1.3-1.9,1.6c-0.7,0.2-1.8,0.3-4.3,0.3
			c-4.4,0-5.2-0.3-5.2-2.4v-3.9l-4.6,0.5c-1,0.1-1.6,0.2-2.3,0.4l-0.2-2.4c0.2,0,0.3,0,0.4,0c0.4,0,1.3-0.1,1.9-0.1l4.8-0.5V68.7z
			 M255.7,61.4c0-0.5,0-0.8-0.1-1.2h2.6c-0.1,0.4-0.1,0.8-0.1,1.2V62h5.8c1.1,0,1.6,0,2.3-0.1c-0.1,0.4-0.1,0.8-0.1,1.6v1.6
			c0,0.6,0,1.1,0.1,1.6h-2.3v-2.5h-13.6v2.5H248c0.1-0.5,0.1-0.9,0.1-1.6v-1.6c0-0.7,0-1.1-0.1-1.6c0.7,0.1,1.3,0.1,2.3,0.1h5.4
			V61.4z"/>
		<path style="&st2;" d="M269.2,63.1c0.5,0,0.7,0,0.8,0c0.4,0,0.4,0,3.5-0.2c1.5-0.1,5.1-0.3,10.7-0.5c1.7-0.1,1.8-0.1,2.2-0.2
			l0.1,2.7c-0.2,0-0.2,0-0.4,0c-1.3,0-2.8,0.4-4.2,1.1c-2.7,1.4-4.2,3.5-4.2,5.6c0,1.6,1,2.9,2.8,3.4c1,0.3,2.4,0.5,3.1,0.5
			c0,0,0.2,0,0.4,0l-0.4,2.9c-0.3-0.1-0.3-0.1-0.7-0.1c-2.3-0.3-3.6-0.7-4.9-1.4c-1.9-1.1-3-2.9-3-5.1c0-1.8,0.7-3.5,2-4.9
			c0.8-0.9,1.6-1.4,2.9-2.1c-1.7,0.3-3,0.4-7.1,0.7c-1.9,0.1-2.8,0.3-3.5,0.4L269.2,63.1z M283.6,67.2c0.9,1,1.5,1.8,2.2,3.1
			l-1.5,0.8c-0.7-1.3-1.3-2.1-2.2-3.1L283.6,67.2z M286.9,69.7c-0.6-1.2-1.3-2.1-2.1-3l1.4-0.7c0.9,1,1.5,1.8,2.2,3L286.9,69.7z"/>
		<path style="&st2;" d="M229.5,103.4c0,0.7,0,1,0,1.6h-2.5c0.1-0.6,0.1-1.3,0.1-2.5V91.2c0-1,0-1.3-0.1-1.7
			c3.1-0.4,5.9-1.2,7.1-2.1l1.5,2.1c-0.4,0.1-0.4,0.2-0.8,0.3c-1.5,0.6-3.4,1.2-5.4,1.6v3.3h3.7c0.9,0,1.3,0,1.8-0.1v2.3
			c-0.5-0.1-1-0.1-1.8-0.1h-3.7v4.3h3.8c0.8,0,1.3,0,1.8-0.1v2.3c-0.5-0.1-1-0.1-1.8-0.1h-3.8V103.4z M243.2,88.3
			c0.8,0,1.4,0,1.9-0.1c-0.1,0.6-0.1,1.1-0.1,1.9v11.2c0,1.2-0.2,1.7-0.7,2.1c-0.3,0.2-1,0.4-1.8,0.4c-0.7,0-1.3,0-2-0.1
			c0-0.8-0.2-1.5-0.5-2.4c0.9,0.1,1.4,0.1,2,0.1s0.7-0.1,0.7-0.6V90.5h-4.1v13.4c0,1.1,0,2.1,0.1,2.6h-2.5c0.1-0.6,0.1-1.5,0.1-2.7
			V90c0-0.8,0-1.2-0.1-1.7c0.5,0.1,1.1,0.1,2,0.1H243.2z"/>
		<path style="&st2;" d="M250.9,93.9c-0.3,3.9-0.3,4.9-0.7,6.7c-0.4,2-0.8,3.5-1.7,5.1c-0.5-1-0.9-1.5-1.5-2.3
			c0.7-1.3,1-2.2,1.2-3.7c0.4-2.1,0.6-4.8,0.6-8.4c0-2,0-2.8-0.1-3.5c0.8,0.1,1.3,0.1,2.4,0.1h5.6c0.9,0,1.5,0,2.2-0.1
			c-0.1,0.5-0.1,0.9-0.1,1.8v2.5c0,0.9,0,1.3,0.1,1.8c-0.6-0.1-1.2-0.1-1.9-0.1h-1v2h1.5c0.7,0,1.1,0,1.6-0.1c0,0.4-0.1,0.8-0.1,1.7
			v5.2c0,1.4-0.4,1.8-2.1,1.8c-0.1,0-0.3,0-0.5,0c0-0.8-0.1-1.2-0.3-1.9c0.3,0.1,0.4,0.1,0.6,0.1c0.2,0,0.3-0.1,0.3-0.3v-4.5H256
			v6.2c0,1.2,0,1.8,0.1,2.4h-2.3c0.1-0.7,0.1-1.4,0.1-2.4v-6.3h-1.1v4.8c0,1,0,1.5,0.1,2h-2.1c0.1-0.7,0.1-1.3,0.1-2.1v-4.9
			c0-1,0-1.3,0-1.8c0.5,0.1,0.9,0.1,1.6,0.1h1.4v-2H250.9z M251,91.9h5.7V90H251V91.9z M262.4,88.7c-0.1,0.6-0.1,1.1-0.1,2.2v8.4
			c0,1.3,0,1.7,0.1,2.2h-2.3c0.1-0.6,0.1-1.1,0.1-2.2v-8.3c0-1,0-1.6-0.1-2.2H262.4z M266.2,87.3c-0.1,0.6-0.1,1.2-0.1,2.5v14
			c0,2-0.6,2.4-2.9,2.4c-0.4,0-1.2,0-2-0.1c-0.1-0.9-0.3-1.4-0.6-2.2c0.7,0.1,1.8,0.2,2.5,0.2c0.7,0,0.9-0.1,0.9-0.7V89.9
			c0-1.2,0-1.8-0.1-2.6H266.2z"/>
	</g>
</g>
<g>
	<circle style="&st1;" cx="423.2" cy="70" r="70"/>
	<g>
		<path style="&st2;" d="M419.6,42.6c0.3,1,0.5,1.3,1,1.7c0.7,0.5,1.5,0.8,2.5,0.8c2.1,0,3.4-1.1,3.4-2.7c0-1-0.4-1.8-1.2-2.2
			c-0.5-0.3-1.5-0.5-2.4-0.5s-1.5,0-2.2,0.1v-2.6c0.7,0.1,1.1,0.1,2,0.1c2.1,0,3.3-1,3.3-2.6c0-1.4-1-2.3-2.8-2.3
			c-1,0-1.8,0.2-2.3,0.7c-0.4,0.4-0.6,0.8-0.9,1.6l-3-0.5c0.5-1.6,1-2.3,2-3c1.1-0.8,2.4-1.2,4.1-1.2c3.5,0,5.8,1.8,5.8,4.5
			c0,1.3-0.5,2.4-1.4,3.1c-0.5,0.4-0.9,0.5-2,0.8c1.5,0.2,2.3,0.6,3,1.4c0.7,0.8,1,1.7,1,2.9c0,1.1-0.5,2.3-1.3,3.1
			c-1.2,1.1-2.9,1.7-5.2,1.7c-2.5,0-4.1-0.6-5.3-2c-0.5-0.6-0.8-1.1-1.2-2.3L419.6,42.6z"/>
		<path style="&st2;" d="M399.3,70.6c-1.3,1.1-1.9,2-1.9,2.9c0,1.4,1.5,2,5.1,2c2.5,0,5.2-0.4,6.6-0.9l0.2,2.9c-0.4,0-0.4,0-0.9,0.1
			c-2.5,0.4-3.9,0.5-5.7,0.5c-2.3,0-4.1-0.2-5.2-0.7c-1.8-0.7-2.7-1.9-2.7-3.5c0-1.6,0.8-3,2.7-4.6L399.3,70.6z M396.1,62
			c1.6,0.4,3.5,0.5,6.3,0.5c2.7,0,4.2-0.1,5.5-0.4l0.1,2.4c-1.3,0.5-3.8,2.2-5.6,3.5l-1.8-1.4c1.3-0.8,1.6-1,2.1-1.3
			c0.2-0.1,0.3-0.2,0.5-0.3c0.2-0.1,0.2-0.1,0.5-0.3c-0.9,0.1-1.8,0.2-3.1,0.2c-1.1,0-2.8-0.1-3.8-0.3c-0.3,0-0.4,0-0.5,0
			c0,0-0.1,0-0.3,0L396.1,62z M407.1,66.6c0.9,1,1.5,1.8,2.2,3.1l-1.5,0.8c-0.7-1.3-1.3-2.1-2.2-3.1L407.1,66.6z M410.4,69.2
			c-0.6-1.2-1.3-2.1-2.1-3l1.4-0.7c0.9,1,1.5,1.8,2.2,3L410.4,69.2z"/>
		<path style="&st2;" d="M416.2,71.1c-1,0-1.7,0-2.5,0.1v-2.4c0.7,0.1,1.3,0.1,2.4,0.1h1.8c-0.5-1.4-0.9-2.3-1.6-3.5l2-0.9
			c0.7,1.2,0.9,1.7,1.7,3.7l-1.7,0.7h3.4v-4.6h-4.7c-1,0-1.6,0-2.3,0.1v-2.4c0.7,0.1,1.4,0.1,2.5,0.1h4.6v-0.6c0-0.7,0-1.1-0.1-1.6
			h2.5c-0.1,0.5-0.1,0.9-0.1,1.6v0.6h5c1.2,0,1.9,0,2.5-0.1v2.4c-0.6-0.1-1.3-0.1-2.4-0.1h-5.1V69h1.4c0.9-1.5,1.6-2.8,2.1-4.2
			l2.2,0.7c-0.5,1.3-1,2.1-1.8,3.5h2.2c1.3,0,1.8,0,2.4-0.1v2.4c-0.7-0.1-1.4-0.1-2.5-0.1h-4.6c1.8,2.5,4.1,4.1,7.5,5.5
			c-0.6,0.8-1,1.3-1.4,2.2c-2.1-1.1-3.4-1.9-4.8-3.2c-1.1-1-1.8-1.8-2.8-3.2c0.1,1.1,0.1,1.6,0.1,2v3c0,0.8,0,1.5,0.1,2.1h-2.6
			c0.1-0.7,0.1-1.3,0.1-2.1v-2.9c0-0.7,0-1,0.1-2c-1,1.6-2,2.7-3.5,3.9c-1.2,0.9-2.2,1.7-3.5,2.4c-0.5-0.9-0.8-1.4-1.4-2.1
			c1.9-0.9,3.5-1.9,5.1-3.4c0.6-0.6,1.1-1.2,1.9-2.2H416.2z"/>
		<path style="&st2;" d="M443,73c-0.9,0.8-1.3,1.1-2.6,1.8c-0.3-0.5-0.4-0.6-0.8-1.1c-1.2,0.7-2.2,1.3-4.2,2.2c0,0-0.1,0.1-0.3,0.2
			c0,0-0.1,0-0.2,0.1l-0.5-2.5c0.6-0.1,1.3-0.4,2.4-0.8v-5.6h-0.6c-0.6,0-1.1,0-1.6,0.1v-2.2c0.5,0.1,1,0.1,1.7,0.1h0.6v-2.6
			c0-1.1,0-1.7-0.1-2.3h2.4c-0.1,0.7-0.1,1.2-0.1,2.4v2.6h0.4c0.7,0,1.1,0,1.5-0.1v2.2c-0.5-0.1-0.9-0.1-1.5-0.1H439v4.5
			c0.6-0.3,0.7-0.4,1.4-0.8v1.4c1.2-0.7,1.9-1.3,2.5-2.1h-0.5c-0.9,0-1.4,0-2,0.1v-2.1c0.5,0.1,1,0.1,2,0.1h9.2c1,0,1.7,0,2.2-0.1
			v2.1c-0.6-0.1-1.3-0.1-2.2-0.1h-6.4c-0.2,0.3-0.3,0.5-0.6,0.9h6.7c1,0,1.4,0,2-0.1c0,0.3-0.1,0.6-0.1,1.2
			c-0.1,2.6-0.4,4.8-0.9,5.7c-0.4,1-1.1,1.2-2.9,1.2c-0.6,0-0.9,0-1.8-0.1c-0.1-0.8-0.3-1.3-0.6-1.9c-1.1,1-2,1.6-3.5,2.3
			c-0.5-0.7-0.8-1.1-1.5-1.6c1.8-0.8,2.7-1.3,3.8-2.3c0.9-0.7,1.5-1.6,2.2-2.8H447c-1.3,2-3.1,3.4-5.8,4.6c-0.4-0.7-0.7-1-1.3-1.6
			c2.4-0.9,3.8-1.7,4.9-3H443z M443.7,67.6c-0.8,0-1.5,0-1.9,0.1c0.1-0.6,0.1-1.2,0.1-2v-3.1c0-0.9,0-1.3-0.1-1.9
			c0.7,0.1,1.1,0.1,2.1,0.1h6.1c1.1,0,1.6,0,2.2-0.1c-0.1,0.6-0.1,1-0.1,2.1v2.9c0,0.9,0,1.5,0.1,2c-0.4,0-1.1-0.1-1.9-0.1H443.7z
			 M444,63.5h5.9v-0.9H444V63.5z M444,65.9h5.9v-0.9H444V65.9z M450.4,73c-0.8,1.8-1.6,2.9-2.9,4.1c0.9,0.1,1.6,0.2,2.2,0.2
			c0.8,0,1-0.2,1.2-1.1c0.1-0.7,0.3-1.7,0.4-3.2H450.4z"/>
	</g>
</g>
<g>
	<circle style="&st1;" cx="599.8" cy="70" r="70"/>
	<g>
		<path style="&st2;" d="M606.8,43.3c-0.8-0.1-1.2-0.1-2.1-0.1h-0.8v1.5c0,1.1,0,1.6,0.2,2.4h-3c0.1-0.7,0.2-1.4,0.2-2.4v-1.4h-5.8
			c-1.2,0-1.9,0-2.6,0.1v-2.6c0.7-0.8,0.9-1,1.7-1.9l5-6.1c0.9-1.1,1.3-1.6,1.7-2.3h2.8c-0.1,1.2-0.1,2-0.1,3.5v6.9h0.7
			c0.8,0,1.3,0,2.1-0.1V43.3z M601.3,36.4c0-1,0-1.7,0.1-2.5c-0.4,0.6-0.7,0.9-1.4,1.9l-4,5h5.4V36.4z"/>
		<path style="&st2;" d="M575.8,70.6c-1.3,1.1-1.9,2-1.9,2.9c0,1.4,1.5,2,5.1,2c2.5,0,5.2-0.4,6.6-0.9l0.2,2.9c-0.4,0-0.4,0-0.9,0.1
			c-2.5,0.4-3.9,0.5-5.7,0.5c-2.3,0-4.1-0.2-5.2-0.7c-1.8-0.7-2.7-1.9-2.7-3.5c0-1.6,0.8-3,2.7-4.6L575.8,70.6z M572.7,62
			c1.6,0.4,3.5,0.5,6.3,0.5c2.7,0,4.2-0.1,5.5-0.4l0.1,2.4c-1.3,0.5-3.8,2.2-5.6,3.5l-1.8-1.4c1.3-0.8,1.6-1,2.1-1.3
			c0.2-0.1,0.3-0.2,0.5-0.3c0.2-0.1,0.2-0.1,0.5-0.3c-0.9,0.1-1.8,0.2-3.1,0.2c-1.1,0-2.8-0.1-3.8-0.3c-0.3,0-0.4,0-0.5,0
			c0,0-0.1,0-0.3,0L572.7,62z M583.7,66.6c0.9,1,1.5,1.8,2.2,3.1l-1.5,0.8c-0.7-1.3-1.3-2.1-2.2-3.1L583.7,66.6z M587,69.2
			c-0.6-1.2-1.3-2.1-2.1-3l1.4-0.7c0.9,1,1.5,1.8,2.2,3L587,69.2z"/>
		<path style="&st2;" d="M595.9,63.4c-0.6,0-1.2,0-2,0.1V61c0.6,0.1,1,0.1,2,0.1h3.3c0.9,0,1.4,0,1.9-0.1c-0.1,0.6-0.1,0.8-0.1,1.3
			c0,3,0.8,5.8,2.2,8.3c0.9,1.5,1.9,2.7,3.4,4c1.1,1,1.7,1.4,3.1,2.3c-0.8,0.8-1.2,1.3-1.8,2.4c-2.1-1.5-3.7-3-5.1-4.9
			c-0.8-1-1.2-1.8-1.8-3.1c-0.5-1.2-0.7-1.7-1.1-3c-0.8,2.7-1.6,4.5-3,6.3c-1.3,1.7-2.9,3.2-5.2,4.7c-0.4-0.9-0.9-1.6-1.7-2.2
			c1.8-1,2.8-1.8,4.2-3.3c1.6-1.7,2.9-3.9,3.6-6.2c0.4-1.4,0.6-2.5,0.7-4.2H595.9z"/>
		<path style="&st2;" d="M619.6,73c-0.9,0.8-1.3,1.1-2.6,1.8c-0.3-0.5-0.4-0.6-0.8-1.1c-1.2,0.7-2.2,1.3-4.2,2.2
			c0,0-0.1,0.1-0.3,0.2c0,0-0.1,0-0.2,0.1l-0.5-2.5c0.6-0.1,1.3-0.4,2.4-0.8v-5.6h-0.6c-0.6,0-1.1,0-1.6,0.1v-2.2
			c0.5,0.1,1,0.1,1.7,0.1h0.6v-2.6c0-1.1,0-1.7-0.1-2.3h2.4c-0.1,0.7-0.1,1.2-0.1,2.4v2.6h0.4c0.7,0,1.1,0,1.5-0.1v2.2
			c-0.5-0.1-0.9-0.1-1.5-0.1h-0.4v4.5c0.6-0.3,0.7-0.4,1.4-0.8v1.4c1.2-0.7,1.9-1.3,2.5-2.1h-0.5c-0.9,0-1.4,0-2,0.1v-2.1
			c0.5,0.1,1,0.1,2,0.1h9.2c1,0,1.7,0,2.2-0.1v2.1c-0.6-0.1-1.3-0.1-2.2-0.1h-6.4c-0.2,0.3-0.3,0.5-0.6,0.9h6.7c1,0,1.4,0,2-0.1
			c0,0.3-0.1,0.6-0.1,1.2c-0.1,2.6-0.4,4.8-0.9,5.7c-0.4,1-1.1,1.2-2.9,1.2c-0.6,0-0.9,0-1.8-0.1c-0.1-0.8-0.3-1.3-0.6-1.9
			c-1.1,1-2,1.6-3.5,2.3c-0.5-0.7-0.8-1.1-1.5-1.6c1.8-0.8,2.7-1.3,3.8-2.3c0.9-0.7,1.5-1.6,2.2-2.8h-1.3c-1.3,2-3.1,3.4-5.8,4.6
			c-0.4-0.7-0.7-1-1.3-1.6c2.4-0.9,3.8-1.7,4.9-3H619.6z M620.3,67.6c-0.8,0-1.5,0-1.9,0.1c0.1-0.6,0.1-1.2,0.1-2v-3.1
			c0-0.9,0-1.3-0.1-1.9c0.7,0.1,1.1,0.1,2.1,0.1h6.1c1.1,0,1.6,0,2.2-0.1c-0.1,0.6-0.1,1-0.1,2.1v2.9c0,0.9,0,1.5,0.1,2
			c-0.4,0-1.1-0.1-1.9-0.1H620.3z M620.6,63.5h5.9v-0.9h-5.9V63.5z M620.6,65.9h5.9v-0.9h-5.9V65.9z M627,73
			c-0.8,1.8-1.6,2.9-2.9,4.1c0.9,0.1,1.6,0.2,2.2,0.2c0.8,0,1-0.2,1.2-1.1c0.1-0.7,0.3-1.7,0.4-3.2H627z"/>
	</g>
</g>
</svg>
