<?xml version="1.0" encoding="utf-8"?>
<!-- Generator: Adobe Illustrator 22.1.0, SVG Export Plug-In . SVG Version: 6.00 Build 0)  -->
<!DOCTYPE svg PUBLIC "-//W3C//DTD SVG 1.1//EN" "http://www.w3.org/Graphics/SVG/1.1/DTD/svg11.dtd" [
	<!ENTITY st0 "fill-rule:evenodd;clip-rule:evenodd;fill:#FFFFFF;">
	<!ENTITY st1 "fill-rule:evenodd;clip-rule:evenodd;fill:#009844;">
	<!ENTITY st2 "fill:#009844;">
]>
<svg version="1.1" id="レイヤー_1" xmlns="http://www.w3.org/2000/svg" xmlns:xlink="http://www.w3.org/1999/xlink" x="0px"
	 y="0px" viewBox="0 0 50 31.7" style="enable-background:new 0 0 50 31.7;" xml:space="preserve">
<g id="R18_x2B__カラー">
	<g id="R15_x2B__カラー">
		<g id="PG12_カラー">
			<g id="G__カラー">
				<g>
					<path style="&st0;" d="M49.5,15.8c0-8-5.8-14.8-13.1-15.3c0,0-0.4,0-0.6,0l0,0l0,0c-6.2-0.1-15.6-0.2-21.7,0.1l0,0l0,0l0,0
						c-0.2,0-0.6,0-0.6,0C6.2,1.1,0.5,7.9,0.5,16c0,8.3,6.1,15.1,13.7,15.3l0,0l0,0c6.2,0.1,15.6,0.2,21.7-0.1l0,0l0,0l0,0
						C43.5,30.9,49.5,24.1,49.5,15.8z"/>
					<g>
						<g>
							<path style="&st1;" d="M50,15.8c0-8.2-5.9-15.1-13.4-15.6c0,0-0.4,0-0.6,0l0,0l0,0C29.8,0,20.2-0.1,13.9,0.2l0,0l0,0l0,0
								c-0.2,0-0.6,0-0.6,0C5.8,0.8,0,7.8,0,16c0,8.5,6.3,15.4,13.9,15.7l0,0l0,0c6.3,0.1,15.9,0.2,22.2-0.1l0,0l0,0l0,0
								C43.8,31.2,50,24.2,50,15.8z M13.8,1.7c1.5-0.2,20.3-0.3,22.3-0.1C43,1.9,48.5,8.1,48.5,15.8c0,1.2-0.1,2.3-0.4,3.3L1.9,19.3
								c-0.2-1.1-0.4-2.2-0.4-3.3C1.5,8.3,6.9,2.1,13.8,1.7z M36.2,30L36.2,30L36.2,30c-0.5,0.1-2.7,0.2-5.6,0.2
								c-6.2,0.1-15.4,0.1-16.8-0.1C8.5,29.9,4,26,2.3,20.7l45.5-0.2C46.1,25.9,41.6,29.7,36.2,30z"/>
							<path style="&st2;" d="M31.6,24l0,0.5l2.3,0l0-0.5c0.2,0.2,0.5,0.3,0.7,0.5l0.5-0.7c-0.8-0.3-1.6-0.9-2-1.6l-0.7,0
								c-0.3,0.7-1.1,1.2-1.8,1.5c0.2-0.5,0.3-1,0.4-1.5l-0.6,0c-0.2,0.9-0.6,1.9-1.5,2.7l0.5,0.8c0.2-0.2,0.3-0.3,0.4-0.5l0,3.2
								l0.7,0l0-4.3c0-0.1,0.1-0.2,0.1-0.3l0.4,0.6C31.1,24.4,31.3,24.2,31.6,24 M32.6,22.6l0.1,0c0.2,0.4,0.5,0.8,0.8,1.1l-1.7,0
								C32.2,23.5,32.5,23.1,32.6,22.6 M30.9,28.5l0.6,0l0-1.3l0.5,0l0,1.3l0.5,0l0-1.3l0.5,0l0,1.3l0.5,0l0-1.3l0.5,0l0,0.3
								c0,0.3,0,0.5-0.4,0.5l0.3,0.6c0.4-0.1,0.7-0.3,0.7-1.1l0-2.6l-3.7,0L30.9,28.5z M33.5,25.7l0.5,0l0,0.7l-0.5,0L33.5,25.7z
								 M32.5,25.7l0.5,0l0,0.7l-0.5,0L32.5,25.7z M31.4,25.7l0.5,0l0,0.7l-0.5,0L31.4,25.7z"/>
							<path style="&st2;" d="M19.7,26.3l1.4,0l0-0.8l-0.5,0l0-2.5l-1.2,0l0-0.6l-0.7,0l0,0.6l-1.2,0l0,2.5l-0.5,0l0-2.9l-1.8,0
								l0,5.8l1.8,0l0-0.4l0.5,0.6c0.9-0.5,1.3-1.3,1.5-2.2l0.1,0c0.2,0.9,0.6,1.7,1.5,2.2l0.6-0.8C20.6,27.6,19.8,27.1,19.7,26.3
								 M16.5,25l-0.6,0l0-1.6l0.6,0L16.5,25z M15.9,25.8l0.6,0l0,1.9l-0.6,0L15.9,25.8z M20,25.4l-0.6,0l0-1.8l0.6,0L20,25.4z
								 M18.1,23.7l0.6,0l0,1.8l-0.6,0L18.1,23.7z M17.1,27.8l0-1.5l1.4,0C18.4,27.1,17.7,27.5,17.1,27.8"/>
							<path style="&st2;" d="M29.7,15.4l0-5.6l-4.5,0l0,1.9l2.4,0l0,2.5c-0.8,0.5-1.6,0.7-2.7,0.7c-1.2,0-2.1-0.3-2.7-1.1
								c-0.7-0.8-1.1-2-1.1-3.6c0-1.6,0.4-2.8,1.1-3.6c0.6-0.6,1.5-1,2.4-1c0.9,0,1.5,0.1,2,0.5c0.3,0.2,0.7,0.6,1,1.4l1.8-0.9
								c-0.2-0.7-0.6-1.2-1-1.6c-0.9-0.8-2.2-1.3-3.6-1.3c-1.4,0-2.5,0.3-3.5,0.9c-1.6,1.1-2.5,3-2.5,5.5c0,2,0.5,3.6,1.5,4.8
								c1,1.2,2.5,1.8,4.5,1.8c0.8,0,1.6-0.1,2.3-0.3C28,16.3,28.6,16,29.7,15.4L29.7,15.4z"/>
						</g>
					</g>
				</g>
			</g>
		</g>
	</g>
</g>
</svg>
