<?xml version="1.0" encoding="utf-8"?>
<!-- Generator: Adobe Illustrator 22.1.0, SVG Export Plug-In . SVG Version: 6.00 Build 0)  -->
<!DOCTYPE svg PUBLIC "-//W3C//DTD SVG 1.1//EN" "http://www.w3.org/Graphics/SVG/1.1/DTD/svg11.dtd" [
	<!ENTITY st0 "fill-rule:evenodd;clip-rule:evenodd;fill:#FFFFFF;">
	<!ENTITY st1 "fill-rule:evenodd;clip-rule:evenodd;fill:#009FE8;">
	<!ENTITY st2 "fill:#009FE8;">
]>
<svg version="1.1" id="レイヤー_1" xmlns="http://www.w3.org/2000/svg" xmlns:xlink="http://www.w3.org/1999/xlink" x="0px"
	 y="0px" viewBox="0 0 50 31.7" style="enable-background:new 0 0 50 31.7;" xml:space="preserve">
<g id="R18_x2B__カラー">
	<g id="R15_x2B__カラー">
		<g id="PG12_カラー">
			<path style="&st0;" d="M49.5,15.9c0-8.1-5.7-14.8-13.1-15.4c0,0-0.4,0-0.6,0v0h0c-6.2-0.1-15.5-0.2-21.7,0v0h0v0
				c-0.2,0-0.6,0-0.6,0c-7.3,0.6-13,7.3-13,15.4c0,8.3,6.1,15.1,13.6,15.4v0h0c6.2,0.1,15.6,0.2,21.7,0v0h0v0
				C43.4,31,49.5,24.2,49.5,15.9z"/>
			<g>
				<g>
					<path style="&st1;" d="M50,15.9c0-8.2-5.8-15.1-13.3-15.7c0,0-0.4,0-0.6,0v0h0c-6.3-0.1-15.9-0.2-22.2,0l0,0h0v0
						c-0.2,0-0.6,0-0.6,0C5.8,0.8,0,7.7,0,15.9c0,8.5,6.2,15.4,13.9,15.7v0h0c6.3,0.1,15.9,0.2,22.2,0v0h0l0,0
						C43.8,31.3,50,24.3,50,15.9z M13.8,1.7c1.5-0.2,20.3-0.2,22.3,0C43.1,2,48.5,8.2,48.5,15.9c0,1.1-0.1,2.3-0.4,3.3H1.9
						c-0.2-1.1-0.4-2.2-0.4-3.3C1.5,8.2,6.9,2,13.8,1.7z M36.2,30.1L36.2,30.1L36.2,30.1c-0.5,0.1-2.7,0.1-5.6,0.2
						c-6.2,0.1-15.4,0-16.8-0.2c-5.4-0.3-9.9-4.1-11.6-9.4h45.5C46.1,25.9,41.6,29.8,36.2,30.1z"/>
					<path style="&st2;" d="M31.4,24.1v0.5h2.3v-0.5c0.2,0.2,0.5,0.3,0.7,0.5l0.5-0.7c-0.8-0.3-1.6-0.9-2-1.6h-0.7
						c-0.3,0.7-1.1,1.2-1.9,1.5c0.2-0.5,0.3-1,0.4-1.5h-0.6c-0.2,0.9-0.6,1.9-1.6,2.7l0.5,0.8c0.2-0.2,0.3-0.3,0.4-0.5v3.2h0.7v-4.3
						c0-0.1,0.1-0.2,0.1-0.3l0.4,0.6C30.9,24.4,31.2,24.3,31.4,24.1 M32.5,22.7h0.1c0.2,0.4,0.5,0.8,0.8,1.1h-1.7
						C32,23.5,32.3,23.1,32.5,22.7 M30.7,28.5h0.6v-1.3h0.5v1.3h0.5v-1.3h0.5v1.3h0.5v-1.3h0.5v0.3c0,0.3,0,0.5-0.4,0.5l0.3,0.6
						c0.4-0.1,0.7-0.3,0.7-1.1V25h-3.7V28.5z M33.3,25.8h0.5v0.7h-0.5V25.8z M32.3,25.8h0.5v0.7h-0.5V25.8z M31.3,25.8h0.5v0.7h-0.5
						V25.8z"/>
					<path style="&st2;" d="M19.5,26.3h1.4v-0.8h-0.5v-2.5h-1.2v-0.6h-0.7v0.6h-1.2v2.5h-0.5v-2.9h-1.8v5.8h1.8v-0.4l0.5,0.6
						c0.9-0.5,1.3-1.3,1.5-2.2h0.1c0.2,0.9,0.6,1.7,1.5,2.2l0.6-0.8C20.4,27.6,19.6,27.1,19.5,26.3 M16.3,25h-0.6v-1.7h0.6V25z
						 M15.7,25.8h0.6v1.9h-0.6V25.8z M19.8,25.4h-0.6v-1.8h0.6V25.4z M18,23.7h0.6v1.8H18V23.7z M16.9,27.8v-1.5h1.4
						C18.2,27.1,17.5,27.5,16.9,27.8"/>
					<path style="&st2;" d="M20.2,5.8c-1.2,0.9-1.9,2.7-1.9,4.9c0,1.7,0.4,3.3,1.1,4.3c0.7,1,1.9,1.6,3.3,1.6c0.6,0,1.2-0.1,1.7-0.3
						c0.6-0.2,1-0.4,1.9-0.9v-5h-3.5V12h1.8v2.1v0c-0.6,0.4-1.1,0.6-1.9,0.6c-0.9,0-1.5-0.3-2-0.9c-0.5-0.7-0.8-1.8-0.8-3.2
						c0-1.4,0.3-2.5,0.9-3.2c0.4-0.5,1.1-0.8,1.7-0.8c0.7,0,1.1,0.1,1.4,0.4c0.3,0.2,0.6,0.6,0.8,1.2l0,0.1l1.4-0.8l0,0
						c-0.1-0.5-0.4-0.9-0.7-1.4C24.8,5.4,23.8,5,22.8,5C21.7,5,20.9,5.2,20.2,5.8"/>
					<polygon style="&st2;" points="29,5.2 29,6.9 30.5,6.9 30.5,16.5 32.4,16.5 32.4,5.2 					"/>
					<path style="&st2;" d="M17.2,8.8c0-0.4-0.1-1.4-0.6-2.2c0,0-0.8-1.4-2.9-1.4h-4v11.3h1.8v-3.7l2.3,0c2.1,0,2.8-1.4,2.8-1.4
						c0.6-1,0.6-2.3,0.6-2.3C17.1,9,17.2,8.9,17.2,8.8z M13.7,11h-2.3v-4h2.3c0,0,1.6,0,1.6,2C15.3,11,13.7,11,13.7,11z"/>
					<path style="&st2;" d="M34.3,16.5c0.3,0,7.4,0,7.4,0v-1.7l-5.2,0c0.3-1.5,2.1-2.7,2.1-2.7c1.5-1,2.1-1.7,2.1-1.7
						c1.1-1.2,0.9-2.7,0.9-2.7c-0.3-1.7-1.8-2.3-1.8-2.3C37.5,4.3,35,5,34,7.7c0.2,0.1,1.6,0.8,1.6,0.8c1-2.8,3.4-1.6,3.4-1.6
						c1,0.5,0.7,1.6,0.7,1.6c-0.1,0.8-1.4,1.6-1.4,1.6c-1.6,1.1-2.4,2.1-2.4,2.1C34.8,13.4,34.4,14.8,34.3,16.5z"/>
				</g>
			</g>
		</g>
	</g>
</g>
</svg>
