<?xml version="1.0" encoding="utf-8"?>
<!-- Generator: Adobe Illustrator 22.1.0, SVG Export Plug-In . SVG Version: 6.00 Build 0)  -->
<!DOCTYPE svg PUBLIC "-//W3C//DTD SVG 1.1//EN" "http://www.w3.org/Graphics/SVG/1.1/DTD/svg11.dtd" [
	<!ENTITY st0 "fill:#FFFFFF;">
	<!ENTITY st1 "fill:#E50012;">
]>
<svg version="1.1" id="レイヤー_1" xmlns="http://www.w3.org/2000/svg" xmlns:xlink="http://www.w3.org/1999/xlink" x="0px"
	 y="0px" viewBox="0 0 50 35.1" style="enable-background:new 0 0 50 35.1;" xml:space="preserve">
<g id="R18_x2B__カラー">
	<g>
		<path style="&st0;" d="M45.6,0H4.4C2,0,0,2,0,4.4v26.4c0,2.4,2,4.4,4.4,4.4h41.3c2.4,0,4.4-2,4.4-4.4V4.4C50,2,48,0,45.6,0z"/>
		<g>
			<g>
				<path style="&st1;" d="M32.3,26.7v0.6h2.5v-0.6c0.2,0.2,0.5,0.4,0.7,0.5l0.6-0.8c-0.9-0.3-1.8-1-2.2-1.8h-0.7
					c-0.4,0.7-1.2,1.4-2,1.7c0.2-0.5,0.3-1.1,0.4-1.7h-0.7c-0.2,1-0.6,2.1-1.7,3l0.6,0.9c0.2-0.2,0.3-0.4,0.5-0.5v3.5h0.7v-4.7
					c0-0.1,0.1-0.2,0.1-0.3l0.5,0.7C31.8,27.1,32,26.9,32.3,26.7 M33.5,25.2h0.1c0.2,0.5,0.5,0.9,0.9,1.3h-1.9
					C32.9,26.1,33.3,25.6,33.5,25.2 M31.5,31.6h0.6v-1.4h0.6v1.4h0.6v-1.4h0.6v1.4h0.6v-1.4H35v0.3c0,0.3-0.1,0.5-0.5,0.6l0.4,0.6
					c0.4-0.1,0.7-0.3,0.7-1.2v-2.8h-4.1V31.6z M34.4,28.6H35v0.8h-0.6V28.6z M33.3,28.6h0.6v0.8h-0.6V28.6z M32.1,28.6h0.6v0.8h-0.6
					V28.6z"/>
				<path style="&st1;" d="M19.1,29.2h1.5v-0.9h-0.5v-2.8h-1.3v-0.7h-0.7v0.7h-1.3v2.8h-0.5v-3.2h-2v6.5h2v-0.4l0.5,0.6
					c1-0.6,1.5-1.5,1.6-2.4h0.1c0.2,1,0.7,1.9,1.6,2.4l0.7-0.8C20.1,30.6,19.3,30.1,19.1,29.2 M15.6,27.7h-0.7v-1.8h0.7V27.7z
					 M14.9,28.6h0.7v2.1h-0.7V28.6z M19.5,28.2h-0.7v-2h0.7V28.2z M17.4,26.3h0.7v2h-0.7V26.3z M16.3,30.8v-1.7h1.5
					C17.7,30,17,30.5,16.3,30.8"/>
				<path style="&st1;" d="M45.6,0H4.4C2,0,0,2,0,4.4v26.4c0,2.4,2,4.4,4.4,4.4h41.3c2.4,0,4.4-2,4.4-4.4V4.4C50,2,48,0,45.6,0z
					 M4.4,1.7h41.3c1.5,0,2.7,1.2,2.7,2.7v17.2H1.7V4.4C1.7,2.9,2.9,1.7,4.4,1.7z M45.6,33.4H4.4c-1.5,0-2.7-1.2-2.7-2.7v-7.7h46.6
					v7.7C48.3,32.2,47.1,33.4,45.6,33.4z"/>
				<path style="&st1;" d="M33.3,11.9c-0.4-0.4-0.8-0.6-1.1-0.8c1.1-0.4,1.7-1.4,1.7-3c0-0.6-0.1-1.2-0.4-1.7
					c-0.7-1.2-1.9-1.8-3.7-1.8c-2.6,0-4.1,1.3-4.1,3.5c0,0.9,0.3,1.7,0.8,2.2c0,0,0.1,0.1,0.1,0.1c0.3,0.3,0.5,0.6,0.8,0.7
					c-0.4,0.2-0.7,0.3-1,0.6c-0.8,0.7-1.2,1.6-1.2,2.8c0,1,0.3,1.9,0.9,2.5c0.9,0.9,1.9,1.3,3.7,1.3c1.5,0,2.6-0.3,3.5-1
					c0.8-0.7,1.2-1.6,1.2-2.9C34.4,13.4,34,12.5,33.3,11.9 M29.8,6.4c1.3,0,2.1,0.7,2.1,1.9c0,1.1-0.6,1.8-1.7,1.9c0,0-0.1,0-0.1,0
					l-0.1,0c0,0,0,0,0,0l0,0c-0.1,0-0.2,0-0.3,0c-1.3-0.1-2-0.8-2-2C27.7,7.1,28.4,6.4,29.8,6.4 M29.7,16.6c-1.6,0-2.5-0.7-2.5-2.1
					c0-1,0.5-1.7,1.5-2c0.6-0.2,1.1-0.2,1.8-0.1c1.1,0.2,1.8,0.9,1.8,2C32.3,15.9,31.4,16.6,29.7,16.6"/>
				<polygon style="&st1;" points="18.8,5.3 18.8,7.2 20.4,7.2 20.4,17.9 22.5,17.9 22.5,5.3 				"/>
				<polygon style="&st1;" points="45.7,10.4 41.8,10.4 41.8,6.6 39.9,6.6 39.9,10.4 36,10.4 36,12.4 39.9,12.4 39.9,16.5 
					41.8,16.5 41.8,12.4 45.7,12.4 				"/>
				<path style="&st1;" d="M15,13.4c-0.6-1.2-1.2-1.5-1.2-1.5c1.6-0.4,2.1-1.9,2.1-1.9c0.5-1.4,0.1-2.6,0.1-2.6
					c-0.4-1.4-1.7-2-1.7-2C13.3,5,11.7,5,11.7,5v0L7,5v12.9h2.2v-5.3h1.7c1.5,0,1.8,1,1.8,1s0.7,1.2,1.6,4.3h2.7
					C16,15.4,15,13.4,15,13.4z M13,10.3c-0.5,0.2-1.2,0.2-1.2,0.2l0,0H9.2V6.8h2.7v0c1,0,1.4,0.3,1.4,0.3c0.5,0.3,0.6,0.7,0.6,0.7
					c0.3,0.8,0,1.7,0,1.7C13.6,10.1,13,10.3,13,10.3z"/>
			</g>
		</g>
	</g>
</g>
</svg>
