<?xml version="1.0" encoding="utf-8"?>
<!-- Generator: Adobe Illustrator 22.1.0, SVG Export Plug-In . SVG Version: 6.00 Build 0)  -->
<!DOCTYPE svg PUBLIC "-//W3C//DTD SVG 1.1//EN" "http://www.w3.org/Graphics/SVG/1.1/DTD/svg11.dtd" [
	<!ENTITY st0 "fill:#FFFFFF;">
	<!ENTITY st1 "fill:#03AF7A;">
]>
<svg version="1.1" id="レイヤー_1" xmlns="http://www.w3.org/2000/svg" xmlns:xlink="http://www.w3.org/1999/xlink" x="0px"
	 y="0px" viewBox="0 0 60 32.5" style="enable-background:new 0 0 60 32.5;" xml:space="preserve">
<g>
	<path style="&st0;" d="M54.7,0H5.3C2.4,0,0,2.4,0,5.3v22c0,2.9,2.4,5.3,5.3,5.3h49.4c2.9,0,5.3-2.4,5.3-5.3v-22
		C60,2.4,57.6,0,54.7,0z"/>
	<g>
		<path style="&st1;" d="M54.5,1.7H5.5c-2.1,0-3.9,1.7-3.9,3.9V27c0,2.1,1.7,3.9,3.9,3.9h48.9c2.1,0,3.9-1.7,3.9-3.9V5.5
			C58.3,3.4,56.6,1.7,54.5,1.7z M56.6,27c0,1.2-0.9,2.1-2.1,2.1H30.9V3.4h23.6c1.2,0,2.1,0.9,2.1,2.1V27z"/>
		<path style="&st0;" d="M11.8,12.9c-0.6,0-1.1,0.5-1.1,1.1c0,0.6,0.5,1.1,1.1,1.1c0.6,0,1.1-0.5,1.1-1.1
			C12.9,13.4,12.4,12.9,11.8,12.9"/>
		<path style="&st0;" d="M28.3,13.8c0-0.3-0.3-0.5-0.6-0.5h-8.4v-1.5c0-0.3-0.3-0.6-0.6-0.6H9.1c-0.3,0-0.6,0.3-0.6,0.6v1.9H7.7
			c1-5.1,5-8.7,9.7-8.7c2.8,0,5.3,1.3,7.2,3.6c0.2,0.3,0.6,0.3,0.8,0.1c0.3-0.2,0.3-0.6,0.1-0.8c-2.1-2.5-5.1-4-8.1-4
			c-5.5,0-10.2,4.6-11,10.6C5.7,15.3,4,18,3.8,18.8c-0.1,0.3,0,0.5,0.1,0.7C4.3,20,5,20.1,5.9,20.1c0.3,0,0.7,0.1,1,0.1
			c1.5,5.1,5.7,8.4,10.5,8.4c6.1,0,11.1-5.6,11.1-12.5C28.5,15.4,28.4,14.6,28.3,13.8 M9.7,12.4h8.4v3.3H9.7V12.4z M17.4,27.5
			c-2.4,0-4.7-1-6.5-2.7c1.4-0.1,3.5-0.7,4.5-2.9c0.1-0.3,0-0.6-0.3-0.8c-0.3-0.1-0.6,0-0.8,0.3c-1.1,2.4-3.9,2.3-4.5,2.3
			c-0.9-1.1-1.5-2.5-2-4c0-0.1-0.1-0.3-0.3-0.4C7.2,19.1,6.6,19,6,19c-0.3,0-0.7-0.1-1-0.1c0.4-1,2-3.4,2.3-3.7
			c0.1-0.1,0.1-0.2,0.2-0.3c0.1,0,0.1,0,0.2,0h0.8v1.4c0,0.3,0.3,0.6,0.6,0.6h9.6c0.3,0,0.6-0.3,0.6-0.6v-1.8h7.9
			c0.1,0.6,0.1,1.1,0.1,1.7C27.3,22.5,22.8,27.5,17.4,27.5"/>
		<g>
			<g>
				<path style="&st1;" d="M54.5,13.1c-0.3,0.3-0.6,0.4-1,0.4c-0.4,0-0.8-0.1-1-0.4c-0.2-0.2-0.4-0.6-0.4-1v-1c0-0.1,0-0.1,0-0.2
					l-0.2,0H35.5l-0.2,0c0,0,0,0.1,0,0.2v0.8c0,0.4-0.1,0.7-0.3,1c-0.3,0.3-0.6,0.4-1.1,0.4c-0.5,0-0.8-0.1-1-0.4
					c-0.3-0.3-0.4-0.6-0.4-0.9V9.7c0-0.7,0.1-1.3,0.4-1.6c0.3-0.4,0.7-0.5,1.3-0.5h7.9V6.4c0-0.3,0.1-0.6,0.3-0.9
					C42.7,5.2,43.1,5,43.7,5c0.6,0,1,0.2,1.2,0.5c0.2,0.3,0.3,0.6,0.3,0.9v1.2H53c0.6,0,1.1,0.2,1.4,0.6c0.3,0.4,0.5,0.9,0.5,1.7
					v2.3C54.8,12.6,54.7,12.9,54.5,13.1z"/>
			</g>
			<g>
				<path style="&st1;" d="M54.6,21c-0.3,0.3-0.7,0.5-1.2,0.5h-5c0.3,0.7,0.4,1.5,0.4,2.4c-0.1,1-0.4,1.8-1.1,2.4
					c-0.7,0.7-2.1,1.1-4,1.1c-1.7,0.1-3.5-0.1-5.3-0.6c-0.7-0.2-1.1-0.5-1.3-1.1c-0.2-0.8,0-1.5,0.7-2.2c0.4-0.4,1.1-0.4,1.9-0.2
					c1.4,0.5,2.6,0.7,3.7,0.7c0.4,0,0.8-0.1,1-0.2c0.3-0.2,0.4-0.4,0.4-0.8c0-0.5-0.2-1-0.5-1.6h-9.9c-0.5,0-1-0.2-1.2-0.5
					c-0.3-0.3-0.4-0.7-0.4-1.1c0-0.5,0.2-0.9,0.4-1.2c0.3-0.3,0.7-0.4,1.2-0.4h7.1c0-0.2-0.1-0.3-0.1-0.5c0-0.6,0.3-1,0.9-1.3
					c0.6-0.3,1.4-0.6,2.4-0.9c0.1,0,0.1,0,0.1-0.1c0,0-0.1,0-0.1,0h-6.5c-0.6,0-1-0.1-1.4-0.4c-0.3-0.2-0.5-0.6-0.5-1.2
					c0-0.5,0.2-0.9,0.5-1.2c0.3-0.2,0.8-0.3,1.3-0.3h10.1c1.3,0,2.2,0.3,2.6,1c0.6,1,0.3,1.9-0.9,2.7c-0.8,0.6-2,1.1-3.5,1.8
					C46.2,17.9,46,18,46,18.1c0,0,0.1,0.1,0.2,0.2h7.2c0.5,0,0.9,0.1,1.2,0.4c0.3,0.3,0.4,0.7,0.4,1.2C55,20.3,54.9,20.7,54.6,21z"
					/>
			</g>
		</g>
	</g>
</g>
</svg>
