<?xml version="1.0" encoding="utf-8"?>
<!-- Generator: Adobe Illustrator 22.1.0, SVG Export Plug-In . SVG Version: 6.00 Build 0)  -->
<!DOCTYPE svg PUBLIC "-//W3C//DTD SVG 1.1//EN" "http://www.w3.org/Graphics/SVG/1.1/DTD/svg11.dtd" [
	<!ENTITY st0 "fill:#FFFFFF;">
	<!ENTITY st1 "fill:#006FBC;">
]>
<svg version="1.1" id="レイヤー_1" xmlns="http://www.w3.org/2000/svg" xmlns:xlink="http://www.w3.org/1999/xlink" x="0px"
	 y="0px" viewBox="0 0 60 32.5" style="enable-background:new 0 0 60 32.5;" xml:space="preserve">
<g>
	<path style="&st0;" d="M54.7,0H5.3C2.4,0,0,2.4,0,5.3v22c0,2.9,2.4,5.3,5.3,5.3h49.4c2.9,0,5.3-2.4,5.3-5.3v-22
		C60,2.4,57.6,0,54.7,0z"/>
	<g>
		<path style="&st1;" d="M54.5,1.7H5.5c-2.1,0-3.9,1.7-3.9,3.9V27c0,2.1,1.7,3.9,3.9,3.9h48.9c2.1,0,3.9-1.7,3.9-3.9V5.5
			C58.3,3.4,56.6,1.7,54.5,1.7z M56.6,27c0,1.2-0.9,2.1-2.1,2.1H30.9V3.4h23.6c1.2,0,2.1,0.9,2.1,2.1V27z"/>
		<path style="&st0;" d="M25,23.3c-0.2-0.2-0.6-0.2-0.8,0.1c-1.8,2.3-4.4,3.7-7.2,3.7c-2.4,0-4.6-1-6.3-2.6c1.3-0.1,3.4-0.7,4.4-2.8
			c0.1-0.3,0-0.6-0.3-0.8c-0.3-0.1-0.6,0-0.8,0.3c-1.1,2.3-3.8,2.2-4.3,2.2c-0.8-1.1-1.5-2.4-1.9-3.8c0-0.1-0.1-0.3-0.3-0.3
			c-0.4-0.2-1-0.3-1.6-0.4c-0.3,0-0.7-0.1-0.9-0.1c0.4-0.9,1.9-3.3,2.2-3.6c0.1-0.1,0.2-0.2,0.2-0.4c0.6-5.4,4.7-9.5,9.5-9.5
			c3.1,0,6,1.7,7.8,4.5c0.2,0.3,0.5,0.3,0.8,0.2c0.3-0.2,0.3-0.5,0.2-0.8c-2-3.2-5.3-5.1-8.8-5.1c-5.3,0-9.9,4.4-10.6,10.3
			c-0.7,0.8-2.3,3.4-2.5,4.2c-0.1,0.3,0,0.5,0.1,0.7c0.3,0.5,1,0.5,1.9,0.6c0.3,0,0.7,0.1,1,0.1c1.5,4.9,5.5,8.2,10.2,8.2
			c3.1,0,6-1.5,8.1-4.1C25.3,23.8,25.3,23.5,25,23.3"/>
		<path style="&st0;" d="M24.1,10.8c5.6,2,9.1,8.8-0.5,9.2l-0.1-0.5c4.6-0.1,5.4-3.7-0.5-6.2v8.1c0,1.4-0.8,2.3-2.4,3.1
			c-1.3,0.7-3.8,0.1-2.9-1.8c1-1.9,3.4-2.3,4.3-2.3V13v-2.7C21.9,10.3,22.7,10.3,24.1,10.8z"/>
		<path style="&st0;" d="M14.8,14c0,0.7-0.7,1.3-1.5,1.3c-0.9,0-1.5-0.6-1.5-1.3c0-0.3-0.2-0.5-0.5-0.5c-0.3,0-0.5,0.2-0.5,0.5
			c0,1.2,1.1,2.2,2.5,2.2c1.4,0,2.5-1,2.5-2.2c0-0.3-0.2-0.5-0.5-0.5C15,13.5,14.8,13.7,14.8,14"/>
		<path style="&st1;" d="M34.6,15.1c-1.8,0-1.8-3.3,0-3.3H38c-0.2-0.5-0.4-1-0.6-1.5h-1.8c-1.9,0-1.9-3.3,0-3.3h6.2V6.9
			c0-2.5,3.8-2.5,3.8,0V7H52c1.8,0,1.8,3.3,0,3.3h-1.9c-0.1,0.5-0.3,1-0.5,1.5h3.4c1.8,0,1.8,3.3,0,3.3H34.6z M50.3,27.1h-13
			c-1.5,0-2.2-0.8-2.2-2.2v-6.4c0-1.5,0.7-2.2,2.2-2.2h13c1.5,0,2.2,0.7,2.2,2.2v6.4C52.5,26.3,51.8,27.1,50.3,27.1 M49,19H38.6v1.8
			H49V19z M49,22.7H38.6v1.7H49V22.7z M41.1,10.3c0.2,0.4,0.3,1,0.5,1.5h4.3c0.2-0.5,0.4-1,0.5-1.5H41.1z"/>
	</g>
</g>
</svg>
