<?xml version="1.0" encoding="utf-8"?>
<!-- Generator: Adobe Illustrator 22.1.0, SVG Export Plug-In . SVG Version: 6.00 Build 0)  -->
<!DOCTYPE svg PUBLIC "-//W3C//DTD SVG 1.1//EN" "http://www.w3.org/Graphics/SVG/1.1/DTD/svg11.dtd" [
	<!ENTITY st0 "fill:#C7C7C7;">
	<!ENTITY st1 "fill:#0071D0;">
	<!ENTITY st2 "fill:#FFFFFF;">
]>
<svg version="1.1" id="レイヤー_1" xmlns="http://www.w3.org/2000/svg" xmlns:xlink="http://www.w3.org/1999/xlink" x="0px"
	 y="0px" viewBox="0 0 1145.4 182.8" style="enable-background:new 0 0 1145.4 182.8;" xml:space="preserve">
<g>
	<g>
		<path style="&st0;" d="M357.8,182.8H0V0h357.8V182.8z M2.8,180H355V2.8H2.8V180z"/>
		<g>
			<path d="M120.3,40.1c-0.7,0-1.4,0-2,0.1v-1.5c-0.4,0.4-0.6,0.6-1.3,1.1c-0.5-1.6-0.8-2.1-1.4-3.1c1.1-0.8,2.2-1.8,3.1-3
				c0.9-1.1,1.3-1.9,2-3.6h3.4c0.9,2,1.6,3,3.3,4.5v-1.7c0-1.1,0-1.5-0.1-2.2c0.7,0.1,1.3,0.1,2.5,0.1h3.9c1.1,0,2-0.1,2.8-0.2v3.1
				c-0.7-0.1-1.2-0.1-2.2-0.1v1.7c1.1,0,1.2,0,1.7-0.1c-0.1,0.5-0.1,0.8-0.1,1.7v1.1c1.5-2.3,2.7-5.5,2.8-8.1l3.2,0.7
				c-0.2,0.7-0.2,0.7-0.6,2c-0.1,0.4-0.2,0.5-0.4,1.3h1.9c1.2,0,1.9,0,2.7-0.2V37c-0.9-0.1-1.6-0.2-2.6-0.2h-3
				c-0.5,1.3-0.9,2-1.8,3.5c-0.7-0.9-1.4-1.4-2.3-1.9v1.2c0,0.9,0,1.3,0.1,1.8c-0.6,0-0.9-0.1-1.7-0.1v2c1.2,0,1.6,0,2.2-0.1V46
				c-0.6-0.1-1.1-0.1-2.2-0.1h-4.7c-1.1,0-1.6,0-2.3,0.1c0.1-0.7,0.1-1.2,0.1-2.3v-8.2c-0.6,0.9-0.9,1.2-1.4,2v2.7
				c-0.7-0.1-1.3-0.1-2-0.1h-0.5v2.3h0.4c1.3,0,2,0,2.6-0.1v3.2c-0.6-0.1-1.3-0.1-2.6-0.1h-0.4v8.4c1.3-0.4,1.7-0.4,3.3-0.9l0.1,2.2
				c0.4,0.1,0.8,0.1,1.3,0.1h0.3v-5.4c0-1.2,0-1.7-0.1-2.5c0.7,0.1,1.4,0.1,2.7,0.1h10.4c1.3,0,1.9,0,2.7-0.1
				c-0.1,0.7-0.1,1.4-0.1,2.5v5.4h0.5c0.5,0,0.9,0,1.3-0.1v3.4c-1.1-0.1-2.3-0.2-3.6-0.2h-11.9c-1.3,0-2.5,0.1-3.5,0.2v-2.6
				c-3.2,1-3.2,1-6.6,1.9c-1.9,0.5-2.5,0.6-3.2,0.9l-0.5-3.4c0.7,0,2.1-0.3,4.3-0.7v-9.1h-1.2c-1.1,0-2.2,0.1-3,0.2v-3.3
				c0.8,0.1,1.9,0.2,3,0.2h1.2v-2.3H120.3z M117.6,53.6c-0.2-2.3-0.6-4-1.2-6.1l2.5-0.8c0.7,2.5,1,4.2,1.2,6.1L117.6,53.6z
				 M124.2,37.4c0.7,0,1.1,0,1.5,0c-1.3-1.2-2-2.3-3.2-4.4c-0.8,1.6-1.6,2.9-2.9,4.5c0.3,0,0.4,0,0.7,0H124.2z M124.1,51.7
				c0.5-2.1,0.7-2.8,0.8-5.2l2.3,0.5c-0.2,2-0.4,2.7-1,5.2L124.1,51.7z M132,35.1v-1.7h-1.8v1.7H132z M133.4,39.1v-1.7h-3.1v1.7
				H133.4z M130.3,41.4v2h1.8v-2H130.3z M131.3,55.2h1.6v-4.9h-1.6V55.2z M135.4,55.2h1.5v-4.9h-1.5V55.2z M137.7,41.2
				c0.6,0.1,1.1,0.1,2.1,0.1h2.6c1.3,0,1.9,0,2.6-0.1v3.3c-0.7-0.1-1.5-0.1-2.5-0.1h-2.6c-1,0-1.7,0-2.2,0.1V41.2z M139.5,55.2h1.6
				v-4.9h-1.6V55.2z"/>
			<path d="M155.3,54.7c-1.4,0-2.3,0-3.4,0.1c0.1-0.8,0.1-1.8,0.1-3.3v-5.1c0-1.3,0-2.2-0.1-3.2c1,0.1,1.6,0.1,3.6,0.1h14.9
				c1.8,0,2.6,0,3.6-0.1c-0.1,1-0.1,1.8-0.1,3.2v5.1c0,1.8,0,2.7,0.1,3.3c-1-0.1-1.9-0.1-3.1-0.1h-1.8c2.4,1.1,4.6,1.6,8.6,2
				c-0.7,0.9-1.2,1.8-1.6,2.9c-2.5-0.3-3.6-0.5-5.5-1.2c-2-0.6-3-1-5.1-2.1l1.7-1.6h-8.7l1.9,1.6c-3.6,1.7-5.8,2.3-10.3,2.9
				c-0.5-1.2-0.9-1.9-1.9-3c3.8-0.2,6.6-0.7,8.6-1.5H155.3z M161,31.7c0-0.9,0-1.6-0.2-2.3h3.8c-0.1,0.7-0.2,1.4-0.2,2.3v1.2h3.4
				c0.9-1.2,1.3-1.9,2-3.3l3.2,1.2c-0.8,1.2-1.1,1.5-1.6,2.1h2.2c1.3,0,2.4,0,3.1-0.1c-0.1,1-0.1,1.7-0.1,2.9v1.7
				c0,0.8,0,1.4,0.1,2.1h-3.3v-3.9h-21.2v3.9H149c0.1-0.8,0.1-1.4,0.1-2.2v-1.8c0-1.1,0-1.7-0.1-2.7c1,0.1,1.8,0.1,3.3,0.1h2
				c-0.5-0.8-0.8-1.1-1.7-2l3.1-1.1c0.9,1,1.2,1.5,2.1,3.1h3.2V31.7z M171.6,40.3c0,0.8,0,1.3,0.1,2.1c-0.9-0.1-1.4-0.1-2.9-0.1
				h-11.8c-1.1,0-1.9,0-2.9,0.1c0.1-0.7,0.1-1.2,0.1-2v-2c0-1,0-1.5-0.1-2c1,0.1,1.8,0.1,3.1,0.1h11.5c1.2,0,2.2,0,3.1-0.1
				c-0.1,0.7-0.1,1.2-0.1,2V40.3z M155.3,46.5h15.1v-1h-15.1V46.5z M155.3,49.5h15.1v-1.1h-15.1V49.5z M155.3,52.5h15.1v-1.1h-15.1
				V52.5z M157.3,38.7v1.5h11.1v-1.5H157.3z"/>
			<path d="M192.6,50.4c-0.2,0.4-0.2,0.6-0.4,1.1c-1.3-1.5-2.2-2.8-3.2-4.5c0.2,2.2,0.2,2.6,0.2,3.6v5.3c0,1.5,0,2.4,0.2,3.3h-3.7
				c0.2-1,0.2-2,0.2-3.4v-4.1c0-1.3,0.1-2.8,0.1-3.8c-1.4,3.5-2.5,5.3-4.2,7.2c-0.4-1.2-0.9-2.4-1.6-3.3c1.3-1.4,2.4-2.8,3.5-4.7
				c0.7-1.2,0.8-1.5,1.7-3.6h-1.7c-1.4,0-2.1,0-2.9,0.2v-3.4c0.7,0.1,1.4,0.2,2.9,0.2h2.1v-7.6c0-1.4,0-2.4-0.2-3.1h3.6
				c-0.1,0.8-0.2,1.6-0.2,3.1v7.6h1.5c1.2,0,1.8,0,2.5-0.1v3.3c-0.8-0.1-1.4-0.1-2.5-0.1h-1.2c1.2,2,2.4,3.5,4.1,4.9
				c-0.4,0.8-0.6,1.1-0.9,1.8c0.7,0,1.9-0.2,2.9-0.4l7.5-1.7V33.3c0-1.9,0-2.7-0.2-3.7h3.9c-0.2,1.1-0.2,1.9-0.2,3.7v13.9
				c1.3-0.3,1.9-0.5,2.7-0.8l0.7,3.6c-0.9,0.1-1.8,0.3-3.1,0.6l-0.3,0.1v4.7c0,1.8,0,2.8,0.2,3.8H203c0.2-1.1,0.2-1.9,0.2-3.8v-3.9
				l-6.8,1.5c-1.4,0.3-2.3,0.6-3,0.8L192.6,50.4z M183.4,31.4c1,2.8,1.5,4.5,2,6.9l-2.7,1.2c-0.5-2.9-1.1-4.9-2-6.8L183.4,31.4z
				 M194.4,32.5c-0.8,2.9-1.2,4.1-2.6,6.9l-2.3-1.2c1-2.1,1.6-3.8,2.2-6.9L194.4,32.5z M196,39.7c2.5,1.7,3.9,2.9,5.6,4.7l-2.2,2.6
				c-2.2-2.4-3.3-3.4-5.6-4.9L196,39.7z M197,31.7c2.8,1.9,3.8,2.8,5.6,4.7l-2.2,2.7c-2.4-2.5-2.5-2.7-5.7-4.9L197,31.7z"/>
			<path d="M222,41.3c-1.3,0-2.2,0-3.1,0.2V40c-1.8,1.1-3.1,1.8-5.2,2.6c-0.8-1.7-1-2.1-1.9-3.3c6-2.1,10.8-5.5,13.1-9.4h4
				c1.3,1.9,2.7,3.3,4.9,4.9c2.6,2,5,3.2,8.5,4.3c-0.8,1.2-1.2,2.2-1.7,3.5c-2.5-1.1-3.6-1.6-5.6-2.8v1.6c-0.9-0.1-1.8-0.2-3.1-0.2
				h-3.3v3.1h8.1c1.7,0,2.7-0.1,3.5-0.2v3.6c-0.9-0.1-2-0.2-3.5-0.2h-8.1v7.2h8.7c1.6,0,2.7-0.1,3.8-0.2v3.7
				c-1.2-0.2-2.5-0.2-3.8-0.2h-20.2c-1.5,0-2.6,0.1-4,0.2v-3.7c1.2,0.1,2.3,0.2,4,0.2h8v-7.2h-7.6c-1.4,0-2.5,0.1-3.5,0.2v-3.6
				c0.9,0.1,1.9,0.2,3.5,0.2h7.6v-3.1H222z M219.7,47.9c1.1,1.9,1.7,3.1,2.6,5.3l-3.2,1.3c-0.7-2-1.5-3.7-2.5-5.3L219.7,47.9z
				 M221.9,38.3l9.9,0c0.3,0,0.3,0,0.8,0c-2.5-1.8-4.1-3.3-5.8-5.4c-1.6,2.2-2.9,3.5-5.6,5.4H221.9z M237.2,49.2
				c-0.4,0.7-0.4,0.7-1.6,3.1c-0.1,0.2-0.2,0.4-1.3,2.3l-3-1.1c1-1.6,1.8-3.3,2.5-5.5L237.2,49.2z"/>
			<path d="M68,99.2c-2.1-2.4-3-3.8-3.9-6c-0.9-2.2-1.3-4.5-1.3-6.9c0-2.4,0.4-4.6,1.3-6.9c0.9-2.3,1.8-3.6,3.9-6h2.5
				c-2.4,2.4-3.3,3.6-4.3,5.8c-1,2.2-1.5,4.6-1.5,7.1s0.5,4.9,1.5,7.1c1,2.2,1.9,3.4,4.3,5.8H68z"/>
			<path d="M84.7,75.3c-0.3,0.5-0.5,1.1-0.8,2c-2,6.7-3.9,12.1-5.8,16.4c3.7-0.3,10.3-1.1,13.6-1.8c-1.5-2.9-2.9-5.3-4.3-7.3l1.7-1
				c2.2,3.1,5,8.1,7,12.7l-2,1.1c-0.6-1.6-1-2.5-1.7-3.8c-4.7,0.9-10.3,1.7-17.2,2.3c-1.1,0.1-1.8,0.2-2.4,0.3l-0.3-2.3
				c0.6,0,0.6,0,0.8,0c0.2,0,1.7-0.1,2.4-0.1c1.7-3.9,2.9-6.9,4.2-11.1c1.4-4.2,2-6.5,2.2-8.1L84.7,75.3z"/>
			<path d="M103.4,84.5c4.4-0.8,11.3-3.5,13.1-5.4l1.4,1.9c-0.4,0.2-0.6,0.3-1.2,0.6c-4.2,2.3-8.7,3.9-13.4,4.7v4.1l0,0.2
				c0,0.1,0,0.2,0,0.3c0,2,0.1,2.6,0.6,3.1c0.4,0.4,1,0.6,2.1,0.7c0.9,0.1,2.2,0.2,3.3,0.2c1.7,0,4.2-0.2,6.4-0.4
				c1.2-0.1,1.7-0.3,2.8-0.6l0.2,2.2c-0.4,0-0.5,0-0.9,0.1l-0.4,0l-1.3,0.1c-1.8,0.2-5.5,0.4-7.4,0.4c-3.3,0-5.2-0.3-6.1-1.1
				c-0.7-0.6-1-1.4-1.1-2.7c0-0.4-0.1-1-0.1-2.2V77.9c0-1.2,0-1.7-0.1-2.3h2.3c-0.1,0.7-0.1,1.1-0.1,2.4V84.5z M117.4,74.1
				c1.3,1.5,2,2.7,2.9,4.3l-1.4,0.8c-0.7-1.5-2-3.6-2.9-4.5L117.4,74.1z M120.6,72.6c1.3,1.5,2,2.6,2.9,4.4l-1.4,0.8
				c-0.6-1.3-1.8-3.1-2.9-4.4L120.6,72.6z"/>
			<path d="M145.1,76.6c-0.3,0.1-0.3,0.1-0.9,0.3c-2,0.7-3.9,1.3-6.2,1.7c0,2.7-0.1,4.5-0.1,5.6h6.7c1.6,0,2,0,2.9-0.2v2.1
				c-1-0.1-1.5-0.1-2.9-0.1h-6.9c-0.2,2.6-0.8,4.4-1.8,6.2c-1.5,2.4-3.6,4.2-7,5.9c-0.5-0.8-0.8-1.1-1.5-1.7
				c3.1-1.2,5.2-2.7,6.6-4.8c1-1.5,1.5-3.1,1.7-5.5h-7.9c-1.4,0-1.9,0-2.9,0.1V84c0.9,0.2,1.3,0.2,2.9,0.2h8C136,83,136,81.4,136,79
				c-1.8,0.4-4.2,0.6-8.3,0.8c-0.2-0.7-0.3-1-0.7-1.9c0.8,0.1,1.2,0.1,1.6,0.1c3.6,0,8.2-0.7,11.8-1.8c1.6-0.5,2.3-0.8,3.2-1.3
				L145.1,76.6z"/>
			<path d="M166.4,81.6c-0.3,4.1-0.6,5.8-1.5,7.9c-1,2.3-2.6,4.3-4.8,5.9c-1.2,0.9-2.3,1.5-4.3,2.5c-0.4-0.9-0.6-1.2-1.4-1.8
				c2.4-0.9,4.2-2,5.9-3.6c2.6-2.5,3.8-5.6,4-10.8h-7.7c-1.6,2.5-2.9,4.1-4.9,5.9c-0.5-0.6-0.8-0.8-1.7-1.3c2.6-2,4.4-4.4,6-7.7
				c0.8-1.8,1.2-2.8,1.4-3.9l2.1,0.7c-0.3,0.5-0.3,0.6-0.7,1.5c-0.6,1.5-1.1,2.5-1.5,3.1c0.4,0,0.4,0,13,0c1.8,0,2.3,0,3.4-0.2v2
				c-0.8-0.1-0.8-0.1-3.5-0.1H166.4z"/>
			<path d="M181.6,80.2c-1.4,0-2.2,0-3,0.1v-1.8c0.8,0.1,1.5,0.2,3,0.2h1.1c-0.6-1.3-1.2-2.2-2.3-3.6l1.7-0.7c1,1.5,1.8,2.8,2.5,4.3
				h2.1c0.6-1.7,1-3.9,1-5c0-0.1,0-0.1,0-0.3l2,0.2c-0.1,0.3-0.2,0.8-0.4,1.4c-0.5,2-0.6,2.4-1,3.6h3.9c1.4-1.7,2.2-2.8,2.9-4.3
				l1.8,0.7c-1.2,1.8-1.8,2.6-2.7,3.7h2.3c1.6,0,2.3,0,3.1-0.2v1.8c-0.9-0.1-1.6-0.1-3.1-0.1h-5c1,1.8,1.3,2.4,2.2,3.6h4.5
				c1.6,0,2.3,0,3.1-0.2v1.9c-0.9-0.1-1.8-0.2-3.1-0.2h-3.1c2.1,2.1,4.1,3.4,6.9,4.6c-0.6,0.6-0.8,0.9-1.2,1.7
				c-3.4-1.9-5.6-3.6-7.9-6.3h-8.3c-1.9,2.4-4.2,4.3-7.5,6.2c-0.3-0.6-0.6-1-1.2-1.5c3-1.4,4.8-2.7,6.7-4.7h-3c-1.5,0-2.3,0.1-3,0.2
				v-1.9c0.7,0.1,1.5,0.2,3,0.2h4.3c0.9-1.1,1.5-2.2,2.1-3.6H181.6z M184.8,90.3c-1.3,0-2.2,0.1-2.9,0.2v-1.8
				c0.7,0.1,1.5,0.1,2.7,0.1h8.3c1.3,0,2.3,0,2.9-0.1c-0.1,0.5-0.1,0.6-0.1,2c-0.2,3.4-0.5,5.7-1,6.6c-0.4,0.8-1.1,1.1-2.6,1.1
				c-1,0-2.2-0.1-3.5-0.2c-0.1-0.8-0.1-1.2-0.4-1.8c1.7,0.3,2.8,0.3,3.8,0.3c0.9,0,1.2-0.3,1.4-1.1c0.3-1.4,0.4-2.5,0.5-5.2h-5.9
				c-0.6,2.5-1.2,3.8-2.5,5.2c-1.5,1.6-3.3,2.7-6.2,3.6c-0.4-0.8-0.6-1.1-1.2-1.6c2.7-0.8,4.5-1.7,5.9-3c1.2-1.1,1.6-1.9,2.2-4.3
				H184.8z M187.9,80.2c-0.6,1.4-1.1,2.4-1.9,3.6h6c-0.8-1.1-1.1-1.7-2-3.6H187.9z"/>
			<path d="M210.6,77.6c-1.7,0.4-2.6,0.6-4.7,1c-0.2-0.6-0.4-1-0.8-1.6c3.4-0.4,5.7-1,8.9-2.1c1-0.3,1.3-0.5,1.8-0.8l1.3,1.5
				c-0.4,0.2-0.4,0.2-1.1,0.4c-1.3,0.5-2.3,0.8-3.7,1.2v4.4h2.7c1,0,1.7,0,2.4-0.1v1.8c-0.7-0.1-1.4-0.1-2.5-0.1h-2.6
				c0.5,1.2,0.7,1.6,1.3,2.5c0.9,1.3,1.8,2.2,3.5,3.7c-0.5,0.5-0.7,0.9-1,1.5c-2.1-2.2-2.9-3.3-4-5.5c0.1,1.6,0.1,3.5,0.1,4.7v5.8
				c0,1.7,0,2.6,0.2,3.4h-2.1c0.1-1,0.2-1.9,0.2-3.4v-5.5c0-1.6,0-2.4,0.1-4.8c-1.3,3.5-2.7,5.8-5.2,8.5c-0.4-0.7-0.7-1.1-1.1-1.6
				c1.7-1.6,2.7-2.9,3.8-4.7c0.9-1.5,1.7-3.3,2.2-4.7h-2.7c-1.1,0-1.9,0.1-2.6,0.2v-1.9c0.6,0.1,1.3,0.2,2.7,0.2h2.9V77.6z
				 M221.5,75.7c-0.1,0.9-0.1,1.6-0.1,3.2v10.8c0,1.9,0,2.5,0.1,3.2h-2.1c0.1-0.8,0.1-1.4,0.1-3.2V78.9c0-1.6-0.1-2.3-0.2-3.2H221.5
				z M228.4,74.1c-0.1,0.9-0.2,2-0.2,3.5V96c0,2-0.7,2.5-3.3,2.5c-0.8,0-2,0-2.9-0.1c-0.1-0.7-0.3-1.1-0.6-1.8
				c1.5,0.2,2.7,0.3,3.6,0.3c1.1,0,1.3-0.1,1.3-0.8V77.6c0-1.6-0.1-2.6-0.2-3.5H228.4z"/>
			<path d="M245.6,95c0,1.5,0,2.4,0.1,3.1h-2c0.1-0.7,0.1-1.6,0.1-3.1v-5.3h-7.7c-0.4,4.2-1.1,6.5-3,9.2c-0.6-0.6-0.9-0.8-1.6-1.2
				c1.2-1.6,1.8-2.8,2.3-4.7c0.6-2.6,0.9-6.7,0.9-13.6c0-2.8,0-3.4-0.1-4.6c0.8,0.1,1.7,0.1,3.1,0.1h15.1c1.4,0,2.2,0,3-0.1
				c-0.1,0.8-0.1,1.5-0.1,2.7v18.8c0,1.8-0.6,2.2-3.4,2.2c-0.9,0-2.3-0.1-3.5-0.1c-0.1-0.6-0.2-1.1-0.4-1.8c1.6,0.2,3,0.3,4,0.3
				c1.2,0,1.5-0.1,1.5-0.8v-6.3h-8.2V95z M236.5,83.1c0,0.8,0,1.5,0,1.8c0,1.7,0,1.8-0.1,3.1h7.6v-5H236.5z M243.9,76.6h-7.4v3.3
				l0,1.6h7.4V76.6z M253.8,81.5v-4.9h-8.2v4.9H253.8z M245.6,88.1h8.2v-5h-8.2V88.1z"/>
			<path d="M260.9,77.9c0-1.2,0-2-0.1-2.7c0.6,0.1,0.6,0.1,2.6,0.1h2.1c1.4,0,1.9,0,2.5-0.1c-0.1,0.7-0.1,1.1-0.1,2.7v15.3
				c0,1.3,0,2.1,0.1,2.7h-1.7v-1.4h-3.7v2.3h-1.8c0.1-0.8,0.2-1.8,0.2-3V77.9z M262.6,83.9h3.7v-6.9h-3.7V83.9z M262.6,93.1h3.7
				v-7.7h-3.7V93.1z M272.4,78.6c-1,0-2,0.1-2.7,0.1v-1.8c0.7,0.1,1.5,0.2,2.7,0.2h3v-0.9c0-0.9-0.1-1.5-0.2-2.3h2.1
				c-0.1,0.7-0.2,1.3-0.2,2.3v0.9h4c1.1,0,1.9-0.1,2.7-0.2v1.8c-0.7-0.1-1.6-0.1-2.7-0.1h-4v3.6h5c1.2,0,2.1-0.1,2.8-0.2V84
				c-0.8-0.1-1.6-0.2-2.7-0.2h-0.9v3.3h0.9c1.2,0,2-0.1,2.7-0.2v1.9c-0.8-0.1-1.6-0.2-2.7-0.2h-0.9v7.8c0,1.8-0.6,2.2-3.2,2.2
				c-0.4,0-0.9,0-2.5-0.1c-0.1-0.7-0.2-1.2-0.4-1.8c1.1,0.2,2.4,0.3,3.2,0.3c1.1,0,1.3-0.1,1.3-0.7v-7.7h-7.9c-1,0-2,0.1-2.8,0.2
				v-1.9c0.7,0.1,1.5,0.2,2.8,0.2h7.9v-3.3h-7.9c-1.1,0-2,0.1-2.8,0.2v-1.9c0.7,0.1,1.6,0.2,2.8,0.2h3.7v-3.6H272.4z M274.5,95.4
				c-1.5-2.1-2.2-3.1-3.9-4.7l1.4-1c1.7,1.6,2.6,2.6,4,4.6L274.5,95.4z"/>
			<path d="M287.3,99.2c2.4-2.4,3.3-3.6,4.3-5.8c1-2.2,1.5-4.6,1.5-7.1s-0.5-4.9-1.5-7.1c-1-2.2-1.9-3.4-4.3-5.8h2.5
				c2.1,2.4,3,3.8,3.9,6c0.9,2.2,1.3,4.5,1.3,6.9c0,2.4-0.4,4.6-1.3,6.9c-0.9,2.3-1.8,3.6-3.9,6H287.3z"/>
		</g>
		<g>
			<path d="M165.1,144.8c0.2-1.2,0.3-2.5,0.3-4.1v-2.2h-4.8c-1.4,0-2.3,0.1-3.4,0.3v-3.6c1.1,0.2,1.9,0.3,3.4,0.3h4.8v-1l-1.1-1.6
				h-3.7c-1.5,0-2.3,0.1-3.4,0.3v-3.6c1.1,0.2,1.9,0.3,3.4,0.3h1.8l-4.4-7c-0.9-1.4-1.8-2.7-2.2-3.3h5.5c0.3,0.9,0.6,1.6,1.5,3.1
				l4.7,8.1l4.7-8.1c0.9-1.5,1.3-2.3,1.5-3.2h5.5c-0.4,0.5-1.7,2.4-2.3,3.3l-4.4,7h1.8c1.4,0,2.3-0.1,3.4-0.3v3.6
				c-1.1-0.2-2-0.3-3.4-0.3h-3.7l-1.1,1.7v0.9h4.7c1.4,0,2.2-0.1,3.4-0.3v3.6c-1.1-0.2-2-0.3-3.4-0.3h-4.7v2.2
				c0,1.8,0.1,2.8,0.3,4.1H165.1z"/>
			<path d="M184.4,142.7c-1-1-1.7-2.1-2.1-3.2c-0.8-2.3-1.2-4.8-1.2-7.4c0-3.4,0.8-6.9,2-8.9c1.7-2.9,4.6-4.4,8.2-4.4
				c2.7,0,5.1,0.9,6.8,2.6c1,1,1.7,2.1,2.1,3.2c0.8,2.2,1.2,4.8,1.2,7.4c0,3.9-0.9,7.4-2.4,9.5c-1.8,2.5-4.4,3.8-7.8,3.8
				C188.4,145.3,186.1,144.4,184.4,142.7z M194.6,140.3c1.4-1.5,2.2-4.5,2.2-8.2c0-3.7-0.8-6.6-2.2-8.2c-0.8-0.9-2-1.3-3.5-1.3
				c-1.5,0-2.7,0.5-3.6,1.6c-1.4,1.7-2.1,4.3-2.1,7.8c0,3.4,0.6,6.1,1.6,7.6c1,1.4,2.3,2.1,4.1,2.1
				C192.6,141.6,193.8,141.1,194.6,140.3z"/>
		</g>
	</g>
	<g>
		<path style="&st0;" d="M828.8,182.8H471V0h357.8V182.8z M473.8,180H826V2.8H473.8V180z"/>
		<g>
			<path d="M567.5,61.9c0.4,1.5,0.7,2,1.5,2.6c1.1,0.8,2.3,1.2,3.9,1.2c3.2,0,5.2-1.6,5.2-4.2c0-1.5-0.6-2.7-1.8-3.4
				c-0.8-0.4-2.3-0.8-3.7-0.8c-1.4,0-2.3,0-3.4,0.2v-4c1,0.1,1.7,0.2,3.1,0.2c3.2,0,5.1-1.5,5.1-3.9c0-2.2-1.5-3.5-4.2-3.5
				c-1.6,0-2.7,0.4-3.5,1c-0.6,0.6-1,1.2-1.3,2.5l-4.6-0.8c0.8-2.4,1.5-3.5,3-4.6c1.6-1.2,3.7-1.8,6.3-1.8c5.3,0,8.8,2.7,8.8,6.8
				c0,1.9-0.8,3.7-2.2,4.7c-0.7,0.5-1.4,0.8-3.1,1.2c2.3,0.4,3.5,0.9,4.6,2.1c1.1,1.2,1.5,2.5,1.5,4.4c0,1.7-0.7,3.5-1.9,4.7
				c-1.8,1.7-4.4,2.6-7.9,2.6c-3.7,0-6.3-1-8.1-3c-0.8-0.9-1.2-1.7-1.8-3.6L567.5,61.9z"/>
			<path d="M586.9,47.4c0-1.8-0.1-2.8-0.3-4.2c1.3,0.1,2,0.1,4.1,0.1h5.8c4,0,6.6,0.8,8.6,2.8c2.3,2.2,3.6,5.5,3.6,9.7
				c0,4.4-1.3,7.8-3.8,10.2c-2,1.9-4.6,2.8-8.4,2.8h-5.8c-2,0-2.8,0-4.1,0.1c0.2-1.3,0.3-2.3,0.3-4.2V47.4z M596.3,65
				c2.6,0,4.3-0.6,5.7-2c1.5-1.6,2.3-4.1,2.3-7.1c0-3-0.7-5.3-2.2-6.8c-1.3-1.4-3-1.9-5.8-1.9h-5.1V65H596.3z"/>
			<path d="M615.6,52.1c-0.7,0-1.4,0-2,0.1v-1.5c-0.4,0.4-0.6,0.6-1.3,1.1c-0.5-1.6-0.8-2.1-1.4-3.1c1.1-0.8,2.2-1.8,3.1-3
				c0.9-1.1,1.3-1.9,2-3.6h3.4c0.9,2,1.6,3,3.3,4.5v-1.7c0-1.1,0-1.5-0.1-2.2c0.7,0.1,1.3,0.1,2.5,0.1h3.9c1.1,0,2-0.1,2.8-0.2v3.1
				c-0.7-0.1-1.2-0.1-2.2-0.1v1.7c1.1,0,1.2,0,1.7-0.1c-0.1,0.5-0.1,0.8-0.1,1.7v1.1c1.5-2.3,2.7-5.5,2.8-8.1l3.2,0.7
				c-0.2,0.7-0.2,0.7-0.6,2c-0.1,0.4-0.2,0.5-0.4,1.3h1.9c1.2,0,1.9,0,2.7-0.2V49c-0.9-0.1-1.6-0.2-2.6-0.2h-3
				c-0.5,1.3-0.9,2-1.8,3.5c-0.7-0.9-1.4-1.4-2.3-1.9v1.2c0,0.9,0,1.3,0.1,1.8c-0.6,0-0.9-0.1-1.7-0.1v2c1.2,0,1.6,0,2.2-0.1V58
				c-0.6-0.1-1.1-0.1-2.2-0.1H625c-1.1,0-1.6,0-2.3,0.1c0.1-0.7,0.1-1.2,0.1-2.3v-8.2c-0.6,0.9-0.9,1.2-1.4,2v2.7
				c-0.7-0.1-1.3-0.1-2-0.1h-0.5v2.3h0.4c1.3,0,2,0,2.6-0.1v3.2c-0.6-0.1-1.3-0.1-2.6-0.1h-0.4v8.4c1.3-0.4,1.7-0.4,3.3-0.9l0.1,2.2
				c0.4,0.1,0.8,0.1,1.3,0.1h0.3v-5.4c0-1.2,0-1.7-0.1-2.5c0.7,0.1,1.4,0.1,2.7,0.1h10.4c1.3,0,1.9,0,2.7-0.1
				c-0.1,0.7-0.1,1.4-0.1,2.5v5.4h0.5c0.5,0,0.9,0,1.3-0.1v3.4c-1.1-0.1-2.3-0.2-3.6-0.2h-11.9c-1.3,0-2.5,0.1-3.5,0.2v-2.6
				c-3.2,1-3.2,1-6.6,1.9c-1.9,0.5-2.5,0.6-3.2,0.9l-0.5-3.4c0.7,0,2.1-0.3,4.3-0.7v-9.1h-1.2c-1.1,0-2.2,0.1-3,0.2v-3.3
				c0.8,0.1,1.9,0.2,3,0.2h1.2v-2.3H615.6z M612.9,65.6c-0.2-2.3-0.6-4-1.2-6.1l2.5-0.8c0.7,2.5,1,4.2,1.2,6.1L612.9,65.6z
				 M619.5,49.4c0.7,0,1.1,0,1.5,0c-1.3-1.2-2-2.3-3.2-4.4c-0.8,1.6-1.6,2.9-2.9,4.5c0.3,0,0.4,0,0.7,0H619.5z M619.3,63.7
				c0.5-2.1,0.7-2.8,0.8-5.2l2.3,0.5c-0.2,2-0.4,2.7-1,5.2L619.3,63.7z M627.3,47.1v-1.7h-1.8v1.7H627.3z M628.7,51.1v-1.7h-3.1v1.7
				H628.7z M625.6,53.4v2h1.8v-2H625.6z M626.5,67.2h1.6v-4.9h-1.6V67.2z M630.7,67.2h1.5v-4.9h-1.5V67.2z M633,53.2
				c0.6,0.1,1.1,0.1,2.1,0.1h2.6c1.3,0,1.9,0,2.6-0.1v3.3c-0.7-0.1-1.5-0.1-2.5-0.1h-2.6c-1,0-1.7,0-2.2,0.1V53.2z M634.8,67.2h1.6
				v-4.9h-1.6V67.2z"/>
			<path d="M650.5,66.7c-1.4,0-2.3,0-3.4,0.1c0.1-0.8,0.1-1.8,0.1-3.3v-5.1c0-1.3,0-2.2-0.1-3.2c1,0.1,1.6,0.1,3.6,0.1h14.9
				c1.8,0,2.6,0,3.6-0.1c-0.1,1-0.1,1.8-0.1,3.2v5.1c0,1.8,0,2.7,0.1,3.3c-1-0.1-1.9-0.1-3.1-0.1h-1.8c2.4,1.1,4.6,1.6,8.6,2
				c-0.7,0.9-1.2,1.8-1.6,2.9c-2.5-0.3-3.6-0.5-5.5-1.2c-2-0.6-3-1-5.1-2.1l1.7-1.6h-8.7l1.9,1.6c-3.6,1.7-5.8,2.3-10.3,2.9
				c-0.5-1.2-0.9-1.9-1.9-3c3.8-0.2,6.6-0.7,8.6-1.5H650.5z M656.2,43.7c0-0.9,0-1.6-0.2-2.3h3.8c-0.1,0.7-0.2,1.4-0.2,2.3v1.2h3.4
				c0.9-1.2,1.3-1.9,2-3.3l3.2,1.2c-0.8,1.2-1.1,1.5-1.6,2.1h2.2c1.3,0,2.4,0,3.1-0.1c-0.1,1-0.1,1.7-0.1,2.9v1.7
				c0,0.8,0,1.4,0.1,2.1h-3.3v-3.9h-21.2v3.9h-3.3c0.1-0.8,0.1-1.4,0.1-2.2v-1.8c0-1.1,0-1.7-0.1-2.7c1,0.1,1.8,0.1,3.3,0.1h2
				c-0.5-0.8-0.8-1.1-1.7-2l3.1-1.1c0.9,1,1.2,1.5,2.1,3.1h3.2V43.7z M666.9,52.3c0,0.8,0,1.3,0.1,2.1c-0.9-0.1-1.4-0.1-2.9-0.1
				h-11.8c-1.1,0-1.9,0-2.9,0.1c0.1-0.7,0.1-1.2,0.1-2v-2c0-1,0-1.5-0.1-2c1,0.1,1.8,0.1,3.1,0.1h11.5c1.2,0,2.2,0,3.1-0.1
				c-0.1,0.7-0.1,1.2-0.1,2V52.3z M650.6,58.5h15.1v-1h-15.1V58.5z M650.6,61.5h15.1v-1.1h-15.1V61.5z M650.6,64.5h15.1v-1.1h-15.1
				V64.5z M652.6,50.7v1.5h11.1v-1.5H652.6z"/>
			<path d="M687.9,62.4c-0.2,0.4-0.2,0.6-0.4,1.1c-1.3-1.5-2.2-2.8-3.2-4.5c0.2,2.2,0.2,2.6,0.2,3.6v5.3c0,1.5,0,2.4,0.2,3.3H681
				c0.2-1,0.2-2,0.2-3.4v-4.1c0-1.3,0.1-2.8,0.1-3.8c-1.4,3.5-2.5,5.3-4.2,7.2c-0.4-1.2-0.9-2.4-1.6-3.3c1.3-1.4,2.4-2.8,3.5-4.7
				c0.7-1.2,0.8-1.5,1.7-3.6h-1.7c-1.4,0-2.1,0-2.9,0.2v-3.4c0.7,0.1,1.4,0.2,2.9,0.2h2.1v-7.6c0-1.4,0-2.4-0.2-3.1h3.6
				c-0.1,0.8-0.2,1.6-0.2,3.1v7.6h1.5c1.2,0,1.8,0,2.5-0.1v3.3c-0.8-0.1-1.4-0.1-2.5-0.1h-1.2c1.2,2,2.4,3.5,4.1,4.9
				c-0.4,0.8-0.6,1.1-0.9,1.8c0.7,0,1.9-0.2,2.9-0.4l7.5-1.7V45.3c0-1.9,0-2.7-0.2-3.7h3.9c-0.2,1.1-0.2,1.9-0.2,3.7v13.9
				c1.3-0.3,1.9-0.5,2.7-0.8l0.7,3.6c-0.9,0.1-1.8,0.3-3.1,0.6l-0.3,0.1v4.7c0,1.8,0,2.8,0.2,3.8h-3.9c0.2-1.1,0.2-1.9,0.2-3.8v-3.9
				l-6.8,1.5c-1.4,0.3-2.3,0.6-3,0.8L687.9,62.4z M678.7,43.4c1,2.8,1.5,4.5,2,6.9l-2.7,1.2c-0.5-2.9-1.1-4.9-2-6.8L678.7,43.4z
				 M689.7,44.5c-0.8,2.9-1.2,4.1-2.6,6.9l-2.3-1.2c1-2.1,1.6-3.8,2.2-6.9L689.7,44.5z M691.3,51.7c2.5,1.7,3.9,2.9,5.6,4.7
				l-2.2,2.6c-2.2-2.4-3.3-3.4-5.6-4.9L691.3,51.7z M692.2,43.7c2.8,1.9,3.8,2.8,5.6,4.7l-2.2,2.7c-2.4-2.5-2.5-2.7-5.7-4.9
				L692.2,43.7z"/>
			<path d="M717.3,53.3c-1.3,0-2.2,0-3.1,0.2V52c-1.8,1.1-3.1,1.8-5.2,2.6c-0.8-1.7-1-2.1-1.9-3.3c6-2.1,10.8-5.5,13.1-9.4h4
				c1.3,1.9,2.7,3.3,4.9,4.9c2.6,2,5,3.2,8.5,4.3c-0.8,1.2-1.2,2.2-1.7,3.5c-2.5-1.1-3.6-1.6-5.6-2.8v1.6c-0.9-0.1-1.8-0.2-3.1-0.2
				h-3.3v3.1h8.1c1.7,0,2.7-0.1,3.5-0.2v3.6c-0.9-0.1-2-0.2-3.5-0.2h-8.1v7.2h8.7c1.6,0,2.7-0.1,3.8-0.2v3.7
				c-1.2-0.2-2.5-0.2-3.8-0.2h-20.2c-1.5,0-2.6,0.1-4,0.2v-3.7c1.2,0.1,2.3,0.2,4,0.2h8v-7.2h-7.6c-1.4,0-2.5,0.1-3.5,0.2v-3.6
				c0.9,0.1,1.9,0.2,3.5,0.2h7.6v-3.1H717.3z M715,59.9c1.1,1.9,1.7,3.1,2.6,5.3l-3.2,1.3c-0.7-2-1.5-3.7-2.5-5.3L715,59.9z
				 M717.2,50.3l9.9,0c0.3,0,0.3,0,0.8,0c-2.5-1.8-4.1-3.3-5.8-5.4c-1.6,2.2-2.9,3.5-5.6,5.4H717.2z M732.5,61.2
				c-0.4,0.7-0.4,0.7-1.6,3.1c-0.1,0.2-0.2,0.4-1.3,2.3l-3-1.1c1-1.6,1.8-3.3,2.5-5.5L732.5,61.2z"/>
		</g>
		<g>
			<path d="M597.6,156.8c0.2-1.2,0.3-2.5,0.3-4.1v-2.2h-4.8c-1.4,0-2.3,0.1-3.4,0.3v-3.6c1.1,0.2,1.9,0.3,3.4,0.3h4.8v-1l-1.1-1.6
				h-3.7c-1.5,0-2.3,0.1-3.4,0.3v-3.6c1.1,0.2,1.9,0.3,3.4,0.3h1.8l-4.4-7c-0.9-1.4-1.8-2.7-2.2-3.3h5.5c0.3,0.9,0.6,1.6,1.5,3.1
				l4.7,8.1l4.7-8.1c0.9-1.5,1.3-2.3,1.5-3.2h5.5c-0.4,0.5-1.7,2.4-2.3,3.3l-4.4,7h1.8c1.4,0,2.3-0.1,3.4-0.3v3.6
				c-1.1-0.2-2-0.3-3.4-0.3h-3.7l-1.1,1.7v0.9h4.7c1.4,0,2.2-0.1,3.4-0.3v3.6c-1.1-0.2-2-0.3-3.4-0.3h-4.7v2.2
				c0,1.8,0.1,2.8,0.3,4.1H597.6z"/>
			<path d="M634.3,151.1c-1.2-0.2-1.9-0.2-3.2-0.2H630v2.3c0,1.6,0.1,2.5,0.3,3.6h-4.5c0.2-1.1,0.3-2.1,0.3-3.7v-2.2h-8.9
				c-1.9,0-2.9,0-4,0.1v-3.9c1.1-1.2,1.4-1.6,2.6-2.9l7.6-9.3c1.4-1.7,1.9-2.4,2.7-3.5h4.3c-0.2,1.9-0.2,3-0.2,5.4v10.5h1.1
				c1.3,0,2-0.1,3.2-0.2V151.1z M626,140.7c0-1.5,0-2.5,0.2-3.8c-0.6,0.9-1,1.4-2.2,2.8l-6.1,7.6h8.2V140.7z"/>
			<path d="M639.7,154.7c-1-1-1.7-2.1-2.1-3.2c-0.8-2.3-1.2-4.8-1.2-7.4c0-3.4,0.8-6.9,2-8.9c1.7-2.9,4.6-4.4,8.2-4.4
				c2.7,0,5.1,0.9,6.8,2.6c1,1,1.7,2.1,2.1,3.2c0.8,2.2,1.2,4.8,1.2,7.4c0,3.9-0.9,7.4-2.4,9.5c-1.8,2.5-4.4,3.8-7.8,3.8
				C643.7,157.3,641.4,156.4,639.7,154.7z M649.9,152.3c1.4-1.5,2.2-4.5,2.2-8.2c0-3.7-0.8-6.6-2.2-8.2c-0.8-0.9-2-1.3-3.5-1.3
				c-1.5,0-2.7,0.5-3.6,1.6c-1.4,1.7-2.1,4.3-2.1,7.8c0,3.4,0.6,6.1,1.6,7.6c1,1.4,2.3,2.1,4.1,2.1
				C647.9,153.6,649.1,153.1,649.9,152.3z"/>
			<path d="M662.5,154.7c-1-1-1.7-2.1-2.1-3.2c-0.8-2.3-1.2-4.8-1.2-7.4c0-3.4,0.8-6.9,2-8.9c1.7-2.9,4.6-4.4,8.2-4.4
				c2.7,0,5.1,0.9,6.8,2.6c1,1,1.7,2.1,2.1,3.2c0.8,2.2,1.2,4.8,1.2,7.4c0,3.9-0.9,7.4-2.4,9.5c-1.8,2.5-4.4,3.8-7.8,3.8
				C666.5,157.3,664.2,156.4,662.5,154.7z M672.7,152.3c1.4-1.5,2.2-4.5,2.2-8.2c0-3.7-0.8-6.6-2.2-8.2c-0.8-0.9-2-1.3-3.5-1.3
				c-1.5,0-2.7,0.5-3.6,1.6c-1.4,1.7-2.1,4.3-2.1,7.8c0,3.4,0.6,6.1,1.6,7.6c1,1.4,2.3,2.1,4.1,2.1
				C670.7,153.6,671.9,153.1,672.7,152.3z"/>
		</g>
	</g>
	<g>
		<path style="&st1;" d="M414.4,63.4c-15.5,0-28,12.6-28,28s12.6,28,28,28c15.5,0,28-12.6,28-28S429.9,63.4,414.4,63.4z"/>
		<polygon style="&st2;" points="426.5,93.8 416.8,93.8 416.8,103.5 412,103.5 412,93.8 402.3,93.8 402.3,89 412,89 412,79.3 
			416.8,79.3 416.8,89 426.5,89 		"/>
	</g>
	<polygon style="&st1;" points="877.8,53.8 915.4,91.4 877.8,129 	"/>
	<g>
		<path d="M956,50.7c0.8,0.1,1.3,0.2,2.6,0.2h2.5c1,0,1.7,0,2.4-0.2c-0.1,1-0.1,1.8-0.1,3.5v6.7c0.4,1,0.9,1.5,1.8,2
			c1.3,0.9,3.3,1.2,7.4,1.2c6.2,0,10-0.2,13.3-0.5c-0.6,1.5-0.7,2.2-1,3.6c-3.6,0.1-6.7,0.1-10.3,0.1c-4.7,0-7.1-0.2-8.8-0.8
			c-1.6-0.5-2.8-1.4-4.1-3c-1.3,1.3-2.3,2.2-3.6,3.1c-0.5,0.4-1,0.8-1.2,1l-1.5-3.6c1.1-0.4,3-1.7,4.7-3.2v-6.7h-1.8
			c-0.9,0-1.4,0-2.2,0.2V50.7z M958.5,38.9c2.5,2.2,3.5,3.3,5.5,5.9l-2.7,2.6c-2-2.8-3.1-4.1-5.3-6.1L958.5,38.9z M971.3,41.5
			c0.7-1,1.2-2.1,1.7-3.3l3.7,0.5c-0.6,1.1-1,1.8-1.6,2.7h5.2c1,0,1.7,0,2.3-0.1c-0.1,0.7-0.1,1.4-0.1,2.2V48c0,1.1,0,1.8,0.1,2.4
			c-0.8,0-1.3-0.1-2.3-0.1h-10.8v2.3h11.7c1.2,0,1.6,0,2.2-0.1c-0.1,0.7-0.1,1.3-0.1,2.4v4.8c0,0.8,0,1.5,0.1,2.2
			c-0.7-0.1-1.3-0.1-2.2-0.1h-12.9c-0.9,0-1.6,0-2.3,0.1c0.1-0.7,0.1-1.4,0.1-2.2V43.6c0-0.7-0.1-1.4-0.1-2.2
			c0.8,0.1,1.6,0.1,2.5,0.1H971.3z M969.5,47.4h9.7v-2.9h-9.7V47.4z M969.5,58.8h10.5v-3.3h-10.5V58.8z"/>
		<path d="M999.3,44c1.7,0,2.6,0,3.6-0.1c-0.1,1.1-0.1,1.2-0.2,5.2c-0.1,6.7-0.4,11.5-1,14.2c-0.6,2.8-1.5,3.6-4.1,3.6
			c-0.8,0-2-0.1-3.4-0.2c-0.1-1.6-0.2-2-0.6-3.4c1.2,0.2,2.4,0.4,3.1,0.4c0.9,0,1.2-0.2,1.5-1.3c0.4-1.2,0.6-4,0.8-7.6
			c0.1-2.8,0.1-2.8,0.2-7.5h-3.1c-0.3,4.3-0.7,7.4-1.6,10.6c-1,3.7-2.4,6.6-4.9,9.8c-0.9-1.4-1.6-2.3-2.6-3.3c2-2.4,3.3-4.7,4.3-8
			c0.8-2.7,1.2-5.3,1.5-9.2h-1.6c-1.4,0-2.3,0.1-3.2,0.2v-3.7c0.9,0.1,1.9,0.2,3.5,0.2h1.4c0-0.9,0-1,0-2.7c0-1.3-0.1-2-0.2-2.8h3.8
			c-0.1,0.7-0.2,1.1-0.2,2.1c0,0.6,0,0.6-0.1,3.4H999.3z M1008.2,67.2h-3.6c0.1-1,0.2-2.2,0.2-3.7V45.1c0-1.5,0-2.3-0.2-3.4
			c0.9,0.1,1.7,0.2,2.9,0.2h6.1c1.3,0,2,0,2.9-0.2c-0.1,1.1-0.2,1.9-0.2,3.4v18.3c0,1.5,0.1,2.5,0.2,3.6h-3.6v-2.3h-4.7V67.2z
			 M1008.2,61.5h4.7V45.1h-4.7V61.5z"/>
		<path d="M1032.2,59.3c-0.2,0.4-0.2,0.6-0.4,1.1c-1.3-1.5-2.2-2.8-3.2-4.5c0.2,2.2,0.2,2.6,0.2,3.6v5.3c0,1.5,0,2.4,0.2,3.3h-3.7
			c0.2-1,0.2-2,0.2-3.4v-4.1c0-1.3,0.1-2.8,0.1-3.8c-1.4,3.5-2.5,5.3-4.2,7.2c-0.4-1.2-0.9-2.4-1.6-3.3c1.3-1.4,2.4-2.8,3.5-4.7
			c0.7-1.2,0.8-1.5,1.7-3.6h-1.7c-1.4,0-2.1,0-2.9,0.2v-3.4c0.7,0.1,1.4,0.2,2.9,0.2h2.1v-7.6c0-1.4,0-2.4-0.2-3.1h3.6
			c-0.1,0.8-0.2,1.6-0.2,3.1v7.6h1.5c1.2,0,1.8,0,2.5-0.1v3.3c-0.8-0.1-1.4-0.1-2.5-0.1h-1.2c1.2,2,2.4,3.5,4.1,4.9
			c-0.4,0.8-0.6,1.1-0.9,1.8c0.7,0,1.9-0.2,2.9-0.4l7.5-1.7V42.3c0-1.9,0-2.7-0.2-3.7h3.9c-0.2,1.1-0.2,1.9-0.2,3.7v13.9
			c1.3-0.3,1.9-0.5,2.7-0.8l0.7,3.6c-0.9,0.1-1.8,0.3-3.1,0.6l-0.3,0.1v4.7c0,1.8,0,2.8,0.2,3.8h-3.9c0.2-1.1,0.2-1.9,0.2-3.8v-3.9
			l-6.8,1.5c-1.4,0.3-2.3,0.6-3,0.8L1032.2,59.3z M1023,40.3c1,2.8,1.5,4.5,2,6.9l-2.7,1.2c-0.5-2.9-1.1-4.9-2-6.8L1023,40.3z
			 M1034,41.4c-0.8,2.9-1.2,4.1-2.6,6.9l-2.3-1.2c1-2.1,1.6-3.8,2.2-6.9L1034,41.4z M1035.6,48.7c2.5,1.7,3.9,2.9,5.6,4.7L1039,56
			c-2.2-2.4-3.3-3.4-5.6-4.9L1035.6,48.7z M1036.6,40.7c2.8,1.9,3.8,2.8,5.6,4.7l-2.2,2.7c-2.4-2.5-2.5-2.7-5.7-4.9L1036.6,40.7z"/>
		<path d="M1061.6,50.3c-1.3,0-2.2,0-3.1,0.2v-1.5c-1.8,1.1-3.1,1.8-5.2,2.6c-0.8-1.7-1-2.1-1.9-3.3c6-2.1,10.8-5.5,13.1-9.4h4
			c1.3,1.9,2.7,3.3,4.9,4.9c2.6,2,5,3.2,8.5,4.3c-0.8,1.2-1.2,2.2-1.7,3.5c-2.5-1.1-3.6-1.6-5.6-2.8v1.6c-0.9-0.1-1.8-0.2-3.1-0.2
			h-3.3v3.1h8.1c1.7,0,2.7-0.1,3.5-0.2v3.6c-0.9-0.1-2-0.2-3.5-0.2h-8.1v7.2h8.7c1.6,0,2.7-0.1,3.8-0.2v3.7
			c-1.2-0.2-2.5-0.2-3.8-0.2h-20.2c-1.5,0-2.6,0.1-4,0.2v-3.7c1.2,0.1,2.3,0.2,4,0.2h8v-7.2h-7.6c-1.4,0-2.5,0.1-3.5,0.2v-3.6
			c0.9,0.1,1.9,0.2,3.5,0.2h7.6v-3.1H1061.6z M1059.3,56.9c1.1,1.9,1.7,3.1,2.6,5.3l-3.2,1.3c-0.7-2-1.5-3.7-2.5-5.3L1059.3,56.9z
			 M1061.5,47.3l9.9,0c0.3,0,0.3,0,0.8,0c-2.5-1.8-4.1-3.3-5.8-5.4c-1.6,2.2-2.9,3.5-5.6,5.4H1061.5z M1076.8,58.2
			c-0.4,0.7-0.4,0.7-1.6,3.1c-0.1,0.2-0.2,0.4-1.3,2.3l-3-1.1c1-1.6,1.8-3.3,2.5-5.5L1076.8,58.2z"/>
		<path d="M1090.3,49.1c-2.1,1.3-2.9,1.7-5.1,2.7c-0.5-1.3-0.9-2-1.9-3.3c3-1.2,5.7-2.7,8.2-4.6c2.2-1.8,3.7-3.4,5-5.3h3.8
			c1.4,2,2.8,3.5,5.4,5.4c2.5,1.9,4.9,3.2,8.2,4.4c-0.8,1.3-1.2,2-1.8,3.5c-2.3-1-3.3-1.5-5.2-2.8v2.2c-0.8-0.1-1.6-0.1-2.9-0.1
			H1093c-1,0-1.9,0-2.8,0.1V49.1z M1087.7,67.8c0.1-1,0.2-2,0.2-3.4V57c0-1.3-0.1-2.2-0.2-3.2c0.7,0.1,1.5,0.1,2.8,0.1h16
			c1.3,0,2,0,2.8-0.1c-0.1,0.9-0.2,1.8-0.2,3.2v7.5c0,1.5,0,2.4,0.2,3.4h-3.8v-1.6h-14v1.6H1087.7z M1091.5,63.1h14v-6h-14V63.1z
			 M1103.9,47.9c0.4,0,0.5,0,1.1,0c-2.8-2-4.6-3.7-6.6-6.2c-1.9,2.8-3.3,4.1-6.3,6.2c0.4,0,0.5,0,0.9,0H1103.9z"/>
		<path d="M1116.2,43.9c0.8,0.1,1.5,0.2,2.7,0.2h8.2c1.2,0,2,0,2.7-0.2v3.2c-0.7-0.1-1.4-0.1-2.7-0.1h-8.3c-1.1,0-1.8,0-2.7,0.2
			V43.9z M1117.5,39.4c0.8,0.1,1.4,0.2,2.8,0.2h5.5c1.3,0,1.9,0,2.7-0.2v3.1c-0.9-0.1-1.5-0.1-2.7-0.1h-5.5c-1.2,0-2,0-2.8,0.1V39.4
			z M1120.9,68.1h-3.4c0.1-0.9,0.2-1.8,0.2-3.1v-4.8c0-1,0-1.6-0.1-2.5c0.6,0.1,1.1,0.1,2.2,0.1h6.9c1,0,1.5,0,2.1-0.1
			c-0.1,0.7-0.1,1.3-0.1,2.5v4.7c0,1.2,0,2,0.2,2.8h-3.4v-1h-4.4V68.1z M1117.6,48.5c0.7,0.1,1.1,0.1,2.1,0.1h6.8c1.1,0,1.4,0,2-0.1
			v3c-0.7-0.1-1-0.1-2-0.1h-6.8c-1.1,0-1.4,0-2.1,0.1V48.5z M1117.6,53.1c0.6,0.1,1,0.1,2.1,0.1h6.8c1.1,0,1.4,0,2-0.1v3
			c-0.6-0.1-1.1-0.1-2.1-0.1h-6.8c-1,0-1.4,0-2.1,0.1V53.1z M1120.9,63.8h4.5v-3.1h-4.5V63.8z M1135.7,42.5c0-1.8,0-2.6-0.2-3.8h4
			c-0.2,1.1-0.2,2.1-0.2,3.8v5.8h2.3c1.7,0,2.8-0.1,3.9-0.2v3.7c-1.2-0.1-2.4-0.2-3.9-0.2h-2.2v11.7c0,2.2,0.1,3.5,0.2,4.8h-4
			c0.2-1.3,0.2-2.5,0.2-4.8V51.5h-2c-1.4,0-2.8,0.1-3.9,0.2v-3.7c1,0.1,2.2,0.2,3.9,0.2h2V42.5z"/>
		<path style="&st1;" d="M993.4,137.8c0.2-1.9,0.4-4,0.4-6.4V128h-7.5c-2.2,0-3.6,0.1-5.3,0.4v-5.7c1.8,0.3,3,0.4,5.3,0.4h7.5v-1.5
			l-1.6-2.6h-5.8c-2.3,0-3.5,0.1-5.2,0.4v-5.7c1.7,0.3,3,0.4,5.2,0.4h2.8l-7-11c-1.5-2.2-2.8-4.2-3.5-5.2h8.6c0.5,1.5,1,2.5,2.4,4.9
			l7.4,12.7l7.4-12.7c1.4-2.4,2-3.6,2.4-5h8.7c-0.7,0.8-2.7,3.7-3.6,5.2l-6.9,11h2.8c2.2,0,3.6-0.1,5.2-0.4v5.7
			c-1.7-0.3-3-0.4-5.2-0.4h-5.9l-1.7,2.6v1.5h7.4c2.2,0,3.5-0.1,5.3-0.4v5.7c-1.7-0.3-3.1-0.4-5.3-0.4h-7.4v3.4
			c0,2.9,0.1,4.4,0.4,6.4H993.4z"/>
		<path style="&st1;" d="M1050.7,128.9c-1.9-0.2-2.9-0.3-5-0.3h-1.8v3.5c0,2.6,0.1,3.9,0.4,5.7h-7.1c0.3-1.8,0.4-3.3,0.4-5.8v-3.5
			h-13.9c-3,0-4.5,0-6.2,0.2v-6.2c1.7-1.9,2.2-2.5,4-4.6l11.9-14.5c2.2-2.7,3-3.7,4.2-5.5h6.8c-0.3,2.9-0.4,4.7-0.4,8.5v16.4h1.8
			c2,0,3.2-0.1,5.1-0.4V128.9z M1037.6,112.6c0-2.4,0-4,0.2-6c-1,1.5-1.6,2.3-3.4,4.5l-9.6,11.9h12.8V112.6z"/>
		<path style="&st1;" d="M1059.1,134.6c-1.5-1.5-2.6-3.2-3.3-5c-1.3-3.6-2-7.5-2-11.5c0-5.3,1.2-10.8,3.1-13.9c2.7-4.5,7.2-7,12.8-7
			c4.3,0,7.9,1.4,10.6,4c1.5,1.5,2.7,3.2,3.3,5c1.3,3.5,1.9,7.5,1.9,11.6c0,6.2-1.3,11.6-3.7,14.8c-2.8,3.9-7,5.9-12.2,5.9
			C1065.4,138.6,1061.8,137.2,1059.1,134.6z M1075.1,130.7c2.2-2.4,3.5-7,3.5-12.9c0-5.8-1.2-10.4-3.5-12.8
			c-1.2-1.3-3.2-2.1-5.5-2.1c-2.4,0-4.2,0.8-5.6,2.5c-2.2,2.6-3.3,6.7-3.3,12.2c0,5.2,1,9.6,2.5,11.9c1.6,2.2,3.7,3.2,6.4,3.2
			C1071.9,132.8,1073.8,132.1,1075.1,130.7z"/>
		<path style="&st1;" d="M1094.7,134.6c-1.5-1.5-2.6-3.2-3.3-5c-1.3-3.6-2-7.5-2-11.5c0-5.3,1.2-10.8,3.1-13.9c2.7-4.5,7.2-7,12.8-7
			c4.3,0,7.9,1.4,10.6,4c1.5,1.5,2.7,3.2,3.3,5c1.3,3.5,1.9,7.5,1.9,11.6c0,6.2-1.3,11.6-3.7,14.8c-2.8,3.9-7,5.9-12.2,5.9
			C1101,138.6,1097.4,137.2,1094.7,134.6z M1110.7,130.7c2.2-2.4,3.5-7,3.5-12.9c0-5.8-1.2-10.4-3.5-12.8c-1.2-1.3-3.2-2.1-5.5-2.1
			c-2.4,0-4.2,0.8-5.6,2.5c-2.2,2.6-3.3,6.7-3.3,12.2c0,5.2,1,9.6,2.5,11.9c1.6,2.2,3.7,3.2,6.4,3.2
			C1107.5,132.8,1109.4,132.1,1110.7,130.7z"/>
	</g>
</g>
</svg>
