<?xml version="1.0" encoding="utf-8"?>
<!-- Generator: Adobe Illustrator 27.3.1, SVG Export Plug-In . SVG Version: 6.00 Build 0)  -->
<svg version="1.1" id="レイヤー_1" xmlns="http://www.w3.org/2000/svg" xmlns:xlink="http://www.w3.org/1999/xlink" x="0px"
	 y="0px" viewBox="0 0 1203.9 182.8" style="enable-background:new 0 0 1203.9 182.8;" xml:space="preserve">
<style type="text/css">
	.st0{fill:none;stroke:#C7C7C7;stroke-width:2.818;stroke-miterlimit:10;}
	.st1{enable-background:new    ;}
	.st2{fill:#0071D0;}
	.st3{fill:#FFFFFF;}
</style>
<g>
	<rect x="1.4" y="1.4" class="st0" width="355" height="180"/>
	<g class="st1">
		<path d="M120.3,38c-0.7,0-1.4,0-2,0.1v-1.5c-0.4,0.4-0.6,0.6-1.3,1.1c-0.5-1.6-0.8-2.1-1.4-3.1c1.1-0.8,2.2-1.8,3.1-3
			c0.9-1.1,1.3-1.9,2-3.6h3.4c0.9,2,1.6,3,3.3,4.5v-1.7c0-1.1,0-1.5-0.1-2.2c0.7,0.1,1.3,0.1,2.5,0.1h3.9c1.1,0,2-0.1,2.8-0.2v3.1
			c-0.7-0.1-1.2-0.1-2.2-0.1V33c1.1,0,1.2,0,1.7-0.1c-0.1,0.5-0.1,0.8-0.1,1.7v1.1c1.5-2.3,2.7-5.5,2.8-8.1l3.2,0.7
			c-0.2,0.7-0.2,0.7-0.6,2c-0.1,0.4-0.2,0.5-0.4,1.3h1.9c1.2,0,1.9,0,2.7-0.2v3.4c-0.9-0.1-1.6-0.2-2.6-0.2h-3
			c-0.5,1.3-0.9,2-1.8,3.5c-0.7-0.9-1.4-1.4-2.3-1.9v1.2c0,0.9,0,1.3,0.1,1.8c-0.6,0-0.9-0.1-1.7-0.1v2c1.2,0,1.6,0,2.2-0.1v2.8
			c-0.6-0.1-1.1-0.1-2.2-0.1h-4.7c-1.1,0-1.6,0-2.3,0.1c0.1-0.7,0.1-1.2,0.1-2.3v-8.2c-0.6,0.9-0.9,1.2-1.4,2V38
			c-0.7-0.1-1.3-0.1-2-0.1h-0.5v2.3h0.4c1.3,0,2,0,2.6-0.1v3.2c-0.6-0.1-1.3-0.1-2.6-0.1h-0.4v8.4c1.3-0.4,1.7-0.4,3.3-0.9l0.1,2.2
			c0.4,0.1,0.8,0.1,1.3,0.1h0.3v-5.4c0-1.2,0-1.7-0.1-2.5c0.7,0.1,1.4,0.1,2.7,0.1h10.4c1.3,0,1.9,0,2.7-0.1
			c-0.1,0.7-0.1,1.4-0.1,2.5V53h0.5c0.5,0,0.9,0,1.3-0.1v3.4c-1.1-0.1-2.3-0.2-3.6-0.2h-11.9c-1.3,0-2.5,0.1-3.5,0.2v-2.6
			c-3.2,1-3.2,1-6.6,1.9c-1.9,0.5-2.5,0.6-3.2,0.9l-0.5-3.4c0.7,0,2.1-0.3,4.3-0.7v-9.1h-1.2c-1.1,0-2.2,0.1-3,0.2v-3.3
			c0.8,0.1,1.9,0.2,3,0.2h1.2V38H120.3z M117.6,51.5c-0.2-2.3-0.6-4-1.2-6.1l2.5-0.8c0.7,2.5,1,4.2,1.2,6.1L117.6,51.5z M124.2,35.2
			c0.7,0,1.1,0,1.5,0c-1.3-1.2-2-2.3-3.2-4.4c-0.8,1.6-1.6,2.9-2.9,4.5c0.3,0,0.4,0,0.7,0h3.9V35.2z M124.1,49.6
			c0.5-2.1,0.7-2.8,0.8-5.2l2.3,0.5c-0.2,2-0.4,2.7-1,5.2L124.1,49.6z M132,33v-1.7h-1.8V33H132z M133.4,37v-1.7h-3.1V37H133.4z
			 M130.3,39.2v2h1.8v-2H130.3z M131.3,53h1.6v-4.9h-1.6V53z M135.4,53h1.5v-4.9h-1.5V53z M137.7,39.1c0.6,0.1,1.1,0.1,2.1,0.1h2.6
			c1.3,0,1.9,0,2.6-0.1v3.3c-0.7-0.1-1.5-0.1-2.5-0.1h-2.6c-1,0-1.7,0-2.2,0.1L137.7,39.1L137.7,39.1z M139.5,53h1.6v-4.9h-1.6V53z"
			/>
		<path d="M155.3,52.6c-1.4,0-2.3,0-3.4,0.1c0.1-0.8,0.1-1.8,0.1-3.3v-5.1c0-1.3,0-2.2-0.1-3.2c1,0.1,1.6,0.1,3.6,0.1h14.9
			c1.8,0,2.6,0,3.6-0.1c-0.1,1-0.1,1.8-0.1,3.2v5.1c0,1.8,0,2.7,0.1,3.3c-1-0.1-1.9-0.1-3.1-0.1h-1.8c2.4,1.1,4.6,1.6,8.6,2
			c-0.7,0.9-1.2,1.8-1.6,2.9c-2.5-0.3-3.6-0.5-5.5-1.2c-2-0.6-3-1-5.1-2.1l1.7-1.6h-8.7l1.9,1.6c-3.6,1.7-5.8,2.3-10.3,2.9
			c-0.5-1.2-0.9-1.9-1.9-3c3.8-0.2,6.6-0.7,8.6-1.5C156.8,52.6,155.3,52.6,155.3,52.6z M161,29.6c0-0.9,0-1.6-0.2-2.3h3.8
			c-0.1,0.7-0.2,1.4-0.2,2.3v1.2h3.4c0.9-1.2,1.3-1.9,2-3.3l3.2,1.2c-0.8,1.2-1.1,1.5-1.6,2.1h2.2c1.3,0,2.4,0,3.1-0.1
			c-0.1,1-0.1,1.7-0.1,2.9v1.7c0,0.8,0,1.4,0.1,2.1h-3.3v-3.9h-21.2v3.9H149c0.1-0.8,0.1-1.4,0.1-2.2v-1.8c0-1.1,0-1.7-0.1-2.7
			c1,0.1,1.8,0.1,3.3,0.1h2c-0.5-0.8-0.8-1.1-1.7-2l3.1-1.1c0.9,1,1.2,1.5,2.1,3.1h3.2L161,29.6L161,29.6z M171.6,38.2
			c0,0.8,0,1.3,0.1,2.1c-0.9-0.1-1.4-0.1-2.9-0.1H157c-1.1,0-1.9,0-2.9,0.1c0.1-0.7,0.1-1.2,0.1-2v-2c0-1,0-1.5-0.1-2
			c1,0.1,1.8,0.1,3.1,0.1h11.5c1.2,0,2.2,0,3.1-0.1c-0.1,0.7-0.1,1.2-0.1,2v1.9H171.6z M155.3,44.4h15.1v-1h-15.1V44.4z M155.3,47.3
			h15.1v-1.1h-15.1V47.3z M155.3,50.4h15.1v-1.1h-15.1V50.4z M157.3,36.6V38h11.1v-1.5L157.3,36.6L157.3,36.6z"/>
		<path d="M192.6,48.2c-0.2,0.4-0.2,0.6-0.4,1.1c-1.3-1.5-2.2-2.8-3.2-4.5c0.2,2.2,0.2,2.6,0.2,3.6v5.3c0,1.5,0,2.4,0.2,3.3h-3.7
			c0.2-1,0.2-2,0.2-3.4v-4.1c0-1.3,0.1-2.8,0.1-3.8c-1.4,3.5-2.5,5.3-4.2,7.2c-0.4-1.2-0.9-2.4-1.6-3.3c1.3-1.4,2.4-2.8,3.5-4.7
			c0.7-1.2,0.8-1.5,1.7-3.6h-1.7c-1.4,0-2.1,0-2.9,0.2V38c0.7,0.1,1.4,0.2,2.9,0.2h2.1v-7.6c0-1.4,0-2.4-0.2-3.1h3.6
			c-0.1,0.8-0.2,1.6-0.2,3.1v7.6h1.5c1.2,0,1.8,0,2.5-0.1v3.3c-0.8-0.1-1.4-0.1-2.5-0.1h-1.2c1.2,2,2.4,3.5,4.1,4.9
			c-0.4,0.8-0.6,1.1-0.9,1.8c0.7,0,1.9-0.2,2.9-0.4l7.5-1.7V31.2c0-1.9,0-2.7-0.2-3.7h3.9c-0.2,1.1-0.2,1.9-0.2,3.7v13.9
			c1.3-0.3,1.9-0.5,2.7-0.8l0.7,3.6c-0.9,0.1-1.8,0.3-3.1,0.6l-0.3,0.1v4.7c0,1.8,0,2.8,0.2,3.8H203c0.2-1.1,0.2-1.9,0.2-3.8v-3.9
			l-6.8,1.5c-1.4,0.3-2.3,0.6-3,0.8L192.6,48.2z M183.4,29.2c1,2.8,1.5,4.5,2,6.9l-2.7,1.2c-0.5-2.9-1.1-4.9-2-6.8L183.4,29.2z
			 M194.4,30.3c-0.8,2.9-1.2,4.1-2.6,6.9l-2.3-1.2c1-2.1,1.6-3.8,2.2-6.9L194.4,30.3z M196,37.6c2.5,1.7,3.9,2.9,5.6,4.7l-2.2,2.6
			c-2.2-2.4-3.3-3.4-5.6-4.9L196,37.6z M197,29.6c2.8,1.9,3.8,2.8,5.6,4.7l-2.2,2.7c-2.4-2.5-2.5-2.7-5.7-4.9L197,29.6z"/>
		<path d="M222,39.2c-1.3,0-2.2,0-3.1,0.2v-1.5c-1.8,1.1-3.1,1.8-5.2,2.6c-0.8-1.7-1-2.1-1.9-3.3c6-2.1,10.8-5.5,13.1-9.4h4
			c1.3,1.9,2.7,3.3,4.9,4.9c2.6,2,5,3.2,8.5,4.3c-0.8,1.2-1.2,2.2-1.7,3.5c-2.5-1.1-3.6-1.6-5.6-2.8v1.6c-0.9-0.1-1.8-0.2-3.1-0.2
			h-3.3v3.1h8.1c1.7,0,2.7-0.1,3.5-0.2v3.6c-0.9-0.1-2-0.2-3.5-0.2h-8.1v7.2h8.7c1.6,0,2.7-0.1,3.8-0.2v3.7
			c-1.2-0.2-2.5-0.2-3.8-0.2h-20.2c-1.5,0-2.6,0.1-4,0.2v-3.7c1.2,0.1,2.3,0.2,4,0.2h8v-7.2h-7.6c-1.4,0-2.5,0.1-3.5,0.2V42
			c0.9,0.1,1.9,0.2,3.5,0.2h7.6v-3.1H222V39.2z M219.7,45.8c1.1,1.9,1.7,3.1,2.6,5.3l-3.2,1.3c-0.7-2-1.5-3.7-2.5-5.3L219.7,45.8z
			 M221.9,36.2h9.9c0.3,0,0.3,0,0.8,0c-2.5-1.8-4.1-3.3-5.8-5.4c-1.6,2.2-2.9,3.5-5.6,5.4H221.9z M237.2,47.1
			c-0.4,0.7-0.4,0.7-1.6,3.1c-0.1,0.2-0.2,0.4-1.3,2.3l-3-1.1c1-1.6,1.8-3.3,2.5-5.5L237.2,47.1z"/>
	</g>
	<g class="st1">
		<path d="M52.9,97.8c-1.6-2.2-2.3-3.5-3.1-5.5c-1-2.6-1.5-5-1.5-7.7c0-2.6,0.4-5,1.4-7.5c0.8-2,1.5-3.3,3.1-5.5h3.9
			c-2,2.5-2.8,3.7-3.6,5.6c-1,2.3-1.5,4.7-1.5,7.4c0,2.8,0.5,5.3,1.5,7.7c0.8,1.8,1.6,3.1,3.6,5.6L52.9,97.8L52.9,97.8z"/>
	</g>
	<g class="st1">
		<path d="M84.7,73.4c-0.3,0.6-0.3,0.7-0.7,2c-2.1,7-3.8,11.6-5.5,16c4.4-0.3,9.2-0.9,11.6-1.4c-0.3-0.7-0.6-1.3-1.3-2.5
			c-1.2-2.3-1.7-3.1-2.7-4.5l3.2-1.2c2.6,3.8,5.1,8.5,6.8,13l-3.4,1.8c-0.4-1.1-0.4-1.1-1.3-3.5c-0.4,0.1-0.4,0.1-1,0.2
			c-2.8,0.6-7.5,1.2-15.8,2c-1.6,0.1-2,0.2-2.5,0.3l-0.5-3.8c0.4,0,0.4,0,0.7,0c0.6,0,1.2,0,2.4-0.1c1.5-3.5,2.6-6.7,4.1-11.3
			c1.3-4.1,1.8-6.1,2-7.8L84.7,73.4z"/>
	</g>
	<g class="st1">
		<path d="M102.6,81.9c4.2-0.8,10.4-3.3,12.2-5l2.2,3.2c-0.2,0.1-1,0.5-2.5,1.2c-3.8,1.8-7.7,3.1-12,3.9v3.7c0,0.1,0,0.3,0,0.4
			c0,1.6,0.1,2.3,0.5,2.7c0.5,0.5,2.1,0.7,4.8,0.7c1.9,0,4.5-0.2,6.5-0.4c1.3-0.2,2-0.3,3.2-0.7l0.2,3.7c-0.6,0-0.7,0-3.7,0.3
			c-1.7,0.2-5.2,0.3-6.9,0.3c-3.5,0-5.5-0.4-6.6-1.2c-0.8-0.6-1.2-1.5-1.4-2.9c-0.1-0.5-0.1-1-0.1-2.6v-13c0-1.4,0-1.9-0.1-2.6h3.8
			c-0.1,0.7-0.1,1.2-0.1,2.6V81.9z M115.9,72.3c1.1,1.3,1.9,2.4,2.8,4.3l-2,0.9c-0.9-1.8-1.6-2.9-2.8-4.3L115.9,72.3z M120.1,75.9
			c-0.8-1.5-1.6-2.9-2.7-4.2l1.9-0.9c1.2,1.4,2,2.5,2.7,4.1L120.1,75.9z"/>
	</g>
	<g class="st1">
		<path d="M145.2,75.4c-0.3,0.1-0.3,0.1-2.4,0.8c-1.6,0.5-2.5,0.7-4.7,1.1c0,3.8,0,3.8-0.1,4.7h5.9c1.9,0,2.4,0,3.4-0.2v3.4
			c-1-0.1-1.6-0.1-3.4-0.1h-6.2c-0.3,2.6-0.9,4.5-1.9,6.1s-2.6,3.2-4.6,4.5c-0.8,0.5-1.3,0.8-2.6,1.4c-0.8-1.4-1.3-2-2.4-3
			c2-0.7,3.1-1.3,4.3-2.4c1.7-1.3,2.7-2.9,3.2-4.8c0.1-0.5,0.2-1,0.3-1.9h-6.9c-1.8,0-2.3,0-3.4,0.1v-3.4c1,0.2,1.5,0.2,3.4,0.2h7.2
			c0.1-1.2,0.1-2.3,0.1-4.2c-2.3,0.3-3.1,0.4-7.8,0.6c-0.3-1.3-0.4-1.7-1-3c0.9,0.1,1.3,0.1,1.7,0.1c3.8,0,8.5-0.6,12-1.6
			c1.6-0.5,2.4-0.8,3.4-1.3L145.2,75.4z"/>
	</g>
	<g class="st1">
		<path d="M166.6,80.5c0,0.3,0,0.3-0.1,0.7c-0.4,4.8-1.4,7.7-3.6,10.4c-1.8,2.1-3.8,3.5-7.3,5.1c-0.7-1.4-1.1-2-2.3-3.1
			c2.4-0.8,4-1.8,5.7-3.2c2.5-2.3,3.7-5.2,4-9.9h-6.7c-1.6,2.6-2.6,3.8-4.6,5.7c-1.1-1.1-1.5-1.5-2.9-2.2c2.6-2.1,4.4-4.5,5.9-7.7
			c0.8-1.7,1.2-2.8,1.4-4l3.6,0.9c-0.2,0.4-0.2,0.4-1.1,2.4c-0.2,0.5-0.5,1.1-0.8,1.8c0.8,0,0.8,0,12.2,0c2,0,2.4,0,3.5-0.2v3.4
			c-0.7-0.1-0.7-0.1-1.7-0.1c-0.4,0-1,0-1.8,0L166.6,80.5L166.6,80.5z"/>
	</g>
	<g class="st1">
		<path d="M184,81.5c0.6-0.9,0.9-1.5,1.4-2.5h-3.9c-1.4,0-2.2,0-3.1,0.1v-3c0.8,0.1,1.6,0.2,3.1,0.2h0.4c-0.5-1-1.1-1.9-2-3.1
			l2.9-0.9c0.9,1.3,1.6,2.5,2.2,4h1.5c0.4-1.4,0.9-3.6,0.9-4.6c0-0.1,0-0.1,0-0.2l3.4,0.4c-0.1,0.4-0.2,1-0.4,1.6
			c-0.2,0.8-0.5,1.8-0.8,2.8h2.8c1.2-1.5,1.8-2.5,2.5-4.1l3.2,0.9c-1.4,2.2-1.6,2.4-2.3,3.2h1.3c1.6,0,2.3,0,3.1-0.2v3
			c-0.9-0.1-1.8-0.1-3.1-0.1H193c0.6,1.2,0.8,1.5,1.3,2.5h4.4c1.7,0,2.3,0,3.2-0.2v3c-0.9-0.1-1.8-0.1-3.2-0.1h-2.2
			c1.8,1.8,3.4,2.8,6.2,3.8c-0.9,1-1.2,1.5-1.8,3c-2-1.1-2.7-1.6-4.3-2.9c-0.2,3.8-0.5,6.1-0.9,7.3c-0.5,1.4-1.5,1.8-4.2,1.8
			c-0.6,0-1.2,0-2.4-0.1c-0.2-1.5-0.3-2-0.7-3c1.4,0.2,2.4,0.3,3.3,0.3c0.7,0,1.1-0.2,1.2-0.6c0.3-0.8,0.4-1.9,0.6-4.6H189
			c-0.5,2.3-1.1,3.6-2.4,5c-1.6,1.7-3.7,2.9-6.6,3.6c-0.5-1.3-0.9-1.9-1.7-2.8c1.7-0.4,2.5-0.6,3.5-1.1c1.7-0.8,2.7-1.7,3.4-3
			c0.3-0.5,0.4-0.8,0.6-1.7H185c-1.3,0-2.1,0.1-3,0.2V88c-1.4,1.2-2.3,1.8-4.1,2.8c-0.4-1-0.9-1.7-1.9-2.5c2.9-1.3,4.2-2.2,5.9-4
			h-2.1c-1.5,0-2.2,0-3.1,0.1v-3c0.8,0.1,1.6,0.2,3.1,0.2h4.2V81.5z M185.5,84.1c-0.7,0.9-1.3,1.5-2.1,2.4c0.4,0,0.5,0,0.9,0h9.2
			c0.5,0,0.7,0,1.2,0c-0.8-0.8-1.3-1.4-2-2.4H185.5z M191.2,81.5c-0.5-0.9-0.6-1.3-1.1-2.5h-1.5c-0.4,0.9-0.7,1.5-1.2,2.5H191.2z"/>
	</g>
	<g class="st1">
		<path d="M209.9,76.5c-1.8,0.4-2.4,0.4-4.1,0.7c-0.2-1-0.5-1.6-1-2.7c4.6-0.5,9-1.6,10.8-2.7l1.8,2.6c-2,0.7-3.3,1.1-4.5,1.4v3.6
			h2.2c1,0,1.7,0,2.4-0.1v3.1c-0.7-0.1-1.4-0.1-2.4-0.1h-2c1.1,2,2.4,3.6,4.5,5.2c-0.6,0.8-1.1,1.8-1.5,2.7
			c-1.7-1.7-2.3-2.5-3.3-4.5c0.1,1,0.1,2.1,0.1,3.5v4.9c0,1.8,0,2.6,0.2,3.6h-3.3c0.1-1,0.2-2,0.2-3.6v-4.7c0-1.1,0.1-2.4,0.1-3.4
			c-0.8,2-1.2,2.8-1.9,3.9c-0.8,1.2-1.4,2-2.4,3.1c-0.6-1.3-1-2.1-1.6-2.9c1.2-1.1,2.1-2.2,3.1-3.8c0.7-1.2,1.8-3.2,2.2-4.2h-2
			c-1.1,0-1.8,0.1-2.6,0.2v-3.1c0.7,0.1,1.4,0.2,2.6,0.2h2.5v-2.9H209.9z M222.3,73.8c-0.1,0.9-0.2,1.7-0.2,3.4v10.6
			c0,1.8,0,2.5,0.1,3.3h-3.3c0.1-0.8,0.1-1.4,0.1-3.3V77.2c0-1.6,0-2.4-0.2-3.4C218.8,73.8,222.3,73.8,222.3,73.8z M228.9,72.2
			c-0.1,1.1-0.2,2.2-0.2,3.8v18c0,1.5-0.4,2.3-1.3,2.8c-0.7,0.4-1.6,0.5-3.9,0.5c-0.7,0-1.1,0-2.1-0.1c-0.2-1.3-0.4-1.9-1-3.1
			c1.6,0.2,2.7,0.3,3.7,0.3c1.2,0,1.4-0.1,1.4-0.8V76c0-1.4-0.1-2.6-0.2-3.8H228.9z"/>
	</g>
	<g class="st1">
		<path d="M236.6,88.8c-0.4,3.7-1.2,6.4-2.9,8.8c-1.2-1.1-1.6-1.4-2.7-2.2c1-1.5,1.7-2.9,2-4.7c0.3-1.3,0.5-2.8,0.6-4.3
			c0.1-2.4,0.3-6.3,0.3-9.6c0-2,0-2.9-0.1-4.1c1,0.1,1.7,0.1,3.2,0.1h15.7c1.6,0,2.4,0,3.2-0.1c-0.1,1-0.1,1.7-0.1,3.2v18.4
			c0,2.3-0.8,2.9-4,2.9c-0.9,0-2.3-0.1-3.1-0.1c-0.1-1.1-0.3-1.7-0.8-2.9c1.4,0.1,2.6,0.2,3.5,0.2c1.1,0,1.4-0.1,1.4-0.7v-4.9H246
			v4.6c0,1.6,0,2.5,0.1,3.3h-3.3c0.1-0.8,0.2-1.7,0.2-3.3v-4.6C243,88.8,236.6,88.8,236.6,88.8z M243,82.2h-6.2c0,0.8,0,1.4,0,1.8
			c0,1.3,0,1.5,0,2.1h6.2V82.2z M243,75.8h-6.1v2.9v0.8h6.1V75.8z M252.7,79.4v-3.7H246v3.7H252.7z M252.7,86v-3.8H246V86H252.7z"/>
	</g>
	<g class="st1">
		<path d="M260.5,76.1c0-1.3,0-2-0.1-2.8c0.6,0.1,1.1,0.1,2.5,0.1h3.4c1.3,0,1.8,0,2.4-0.1c-0.1,0.6-0.1,1.1-0.1,2.8v16
			c0,1.5,0,2.1,0.1,2.8h-2.9v-1.4h-2.5v2.4h-2.9c0.1-0.9,0.2-1.8,0.2-3.3V76.1H260.5z M263.3,81.9h2.5V76h-2.5V81.9z M263.3,90.7
			h2.5v-6.3h-2.5V90.7z M272.9,77.5c-2.3,0.1-2.3,0.1-3,0.1v-3c0.8,0.1,1.7,0.2,2.9,0.2h2.5V74c0-0.8-0.1-1.4-0.2-2.1h3.2
			c-0.1,0.6-0.1,1.2-0.1,2.1v0.8h3.1c1.2,0,2.1-0.1,2.9-0.2v3c-0.8-0.1-1.6-0.1-2.9-0.1h-3.1v2.7h3.9c1.3,0,2.4-0.1,3.1-0.2v3
			c-0.8-0.1-1.5-0.1-2.7-0.1H282v2.4h0.4c1.3,0,2.1,0,2.8-0.1v3.1c-0.8-0.1-1.5-0.2-2.8-0.2H282v6.3c0,1.6-0.3,2.3-1.1,2.7
			c-0.7,0.3-1.7,0.4-3.1,0.4c-0.3,0-0.3,0-2.2,0c-0.1-1.2-0.3-2-0.7-2.9c0.7,0.1,2.2,0.2,3.1,0.2s1-0.1,1-0.8v-6h-6.7
			c-1,0-2.1,0.1-3,0.2V85c0.7,0.1,1.6,0.1,3.1,0.1h6.6v-2.4h-6.6c-1.2,0-2.2,0.1-3.1,0.1v-3c0.7,0.1,1.8,0.2,3.1,0.2h2.9v-2.7h-2.4
			V77.5z M274,94.4c-1.1-1.9-2.2-3.2-3.6-4.6l2.4-1.6c1.4,1.2,2.5,2.5,3.7,4.3L274,94.4z"/>
	</g>
	<g class="st1">
		<path d="M287,97.8c2-2.5,2.8-3.7,3.6-5.6c1-2.3,1.5-4.8,1.5-7.7c0-2.8-0.4-5.1-1.4-7.4c-0.8-1.8-1.6-3.1-3.6-5.6h3.9
			c1.6,2.2,2.2,3.4,3.1,5.5c1,2.5,1.4,4.8,1.4,7.5s-0.5,5.2-1.5,7.7c-0.8,2-1.5,3.3-3.1,5.5L287,97.8L287,97.8z"/>
	</g>
	<g class="st1">
		<path d="M165.1,149.8c0.2-1.2,0.3-2.5,0.3-4.1v-2.2h-4.8c-1.4,0-2.3,0.1-3.4,0.3v-3.6c1.1,0.2,1.9,0.3,3.4,0.3h4.8v-1l-1.1-1.6
			h-3.7c-1.5,0-2.3,0.1-3.4,0.3v-3.6c1.1,0.2,1.9,0.3,3.4,0.3h1.8l-4.4-7c-0.9-1.4-1.8-2.7-2.2-3.3h5.5c0.3,0.9,0.6,1.6,1.5,3.1
			l4.7,8.1l4.7-8.1c0.9-1.5,1.3-2.3,1.5-3.2h5.5c-0.4,0.5-1.7,2.4-2.3,3.3l-4.4,7h1.8c1.4,0,2.3-0.1,3.4-0.3v3.6
			c-1.1-0.2-2-0.3-3.4-0.3h-3.7l-1.1,1.7v0.9h4.7c1.4,0,2.2-0.1,3.4-0.3v3.6c-1.1-0.2-2-0.3-3.4-0.3h-4.7v2.2c0,1.8,0.1,2.8,0.3,4.1
			h-4.7V149.8z"/>
		<path d="M184.4,147.8c-1-1-1.7-2.1-2.1-3.2c-0.8-2.3-1.2-4.8-1.2-7.4c0-3.4,0.8-6.9,2-8.9c1.7-2.9,4.6-4.4,8.2-4.4
			c2.7,0,5.1,0.9,6.8,2.6c1,1,1.7,2.1,2.1,3.2c0.8,2.2,1.2,4.8,1.2,7.4c0,3.9-0.9,7.4-2.4,9.5c-1.8,2.5-4.4,3.8-7.8,3.8
			C188.4,150.3,186.1,149.4,184.4,147.8z M194.6,145.3c1.4-1.5,2.2-4.5,2.2-8.2s-0.8-6.6-2.2-8.2c-0.8-0.9-2-1.3-3.5-1.3
			s-2.7,0.5-3.6,1.6c-1.4,1.7-2.1,4.3-2.1,7.8c0,3.4,0.6,6.1,1.6,7.6c1,1.4,2.3,2.1,4.1,2.1C192.6,146.6,193.8,146.2,194.6,145.3z"
			/>
	</g>
</g>
<g>
	<rect x="470" y="1.4" class="st0" width="355" height="180"/>
	<g class="st1">
		<path d="M569.1,41.1c-1.2-0.2-1.9-0.2-3.2-0.2h-1.2v2.3c0,1.6,0.1,2.5,0.3,3.6h-4.5c0.2-1.1,0.3-2.1,0.3-3.7v-2.2h-8.9
			c-1.9,0-2.9,0-4,0.1v-3.9c1.1-1.2,1.4-1.6,2.6-2.9l7.6-9.3c1.4-1.7,1.9-2.4,2.7-3.5h4.3c-0.2,1.9-0.2,3-0.2,5.4v10.5h1.1
			c1.3,0,2-0.1,3.2-0.2L569.1,41.1L569.1,41.1z M560.8,30.7c0-1.5,0-2.5,0.2-3.8c-0.6,0.9-1,1.4-2.2,2.8l-6.1,7.6h8.2v-6.6H560.8z"
			/>
	</g>
	<g class="st1">
		<path d="M572.4,25.4c0-1.8-0.1-2.8-0.3-4.2c1.3,0.1,2,0.1,4.1,0.1h5.8c4,0,6.6,0.8,8.6,2.8c2.3,2.2,3.6,5.5,3.6,9.7
			c0,4.4-1.3,7.8-3.8,10.2c-2,1.9-4.6,2.8-8.4,2.8h-5.8c-2,0-2.8,0-4.1,0.1c0.2-1.3,0.3-2.3,0.3-4.2L572.4,25.4L572.4,25.4z
			 M581.8,43.1c2.6,0,4.3-0.6,5.7-2c1.5-1.6,2.3-4.1,2.3-7.1s-0.7-5.3-2.2-6.8c-1.3-1.4-3-1.9-5.8-1.9h-5.1v17.9h5.1V43.1z"/>
	</g>
	<g class="st1">
		<path d="M613.7,46.8c-0.6-1.2-1.3-2.3-2.1-3.6l-4.5-6.8l-4.5,6.8c-0.8,1.2-1.6,2.5-2.1,3.6h-5.8c1.9-2.4,2.3-3,3-3.9l6.8-9.5
			l-5.9-8.3c-0.9-1.2-1.8-2.5-2.8-3.7h5.7c0.4,1,1.2,2.3,2,3.6l3.6,5.4l3.6-5.4c1.2-1.9,1.6-2.5,2-3.6h5.7c-0.9,1.1-1.8,2.3-2.8,3.7
			l-5.9,8.3l6.8,9.5c0.7,1.1,1.5,2,3.1,4L613.7,46.8L613.7,46.8z"/>
		<path d="M625.4,30.1c-0.7,0-1.4,0-2,0.1v-1.5c-0.4,0.4-0.6,0.6-1.3,1.1c-0.5-1.6-0.8-2.1-1.4-3.1c1.1-0.8,2.2-1.8,3.1-3
			c0.9-1.1,1.3-1.9,2-3.6h3.4c0.9,2,1.6,3,3.3,4.5v-1.7c0-1.1,0-1.5-0.1-2.2c0.7,0.1,1.3,0.1,2.5,0.1h3.9c1.1,0,2-0.1,2.8-0.2v3.1
			c-0.7-0.1-1.2-0.1-2.2-0.1v1.7c1.1,0,1.2,0,1.7-0.1c-0.1,0.5-0.1,0.8-0.1,1.7V28c1.5-2.3,2.7-5.5,2.8-8.1l3.2,0.7
			c-0.2,0.7-0.2,0.7-0.6,2c-0.1,0.4-0.2,0.5-0.4,1.3h1.9c1.2,0,1.9,0,2.7-0.2V27c-0.9-0.1-1.6-0.2-2.6-0.2h-3
			c-0.5,1.3-0.9,2-1.8,3.5c-0.7-0.9-1.4-1.4-2.3-1.9v1.2c0,0.9,0,1.3,0.1,1.8c-0.6,0-0.9-0.1-1.7-0.1v2c1.2,0,1.6,0,2.2-0.1V36
			c-0.6-0.1-1.1-0.1-2.2-0.1h-4.7c-1.1,0-1.6,0-2.3,0.1c0.1-0.7,0.1-1.2,0.1-2.3v-8.2c-0.6,0.9-0.9,1.2-1.4,2v2.7
			c-0.7-0.1-1.3-0.1-2-0.1h-0.5v2.3h0.4c1.3,0,2,0,2.6-0.1v3.2c-0.6-0.1-1.3-0.1-2.6-0.1h-0.4v8.4c1.3-0.4,1.7-0.4,3.3-0.9l0.1,2.2
			c0.4,0.1,0.8,0.1,1.3,0.1h0.3v-5.4c0-1.2,0-1.7-0.1-2.5c0.7,0.1,1.4,0.1,2.7,0.1h10.4c1.3,0,1.9,0,2.7-0.1
			c-0.1,0.7-0.1,1.4-0.1,2.5v5.4h0.5c0.5,0,0.9,0,1.3-0.1v3.4c-1.1-0.1-2.3-0.2-3.6-0.2h-11.9c-1.3,0-2.5,0.1-3.5,0.2v-2.6
			c-3.2,1-3.2,1-6.6,1.9c-1.9,0.5-2.5,0.6-3.2,0.9l-0.5-3.4c0.7,0,2.1-0.3,4.3-0.7v-9.1h-1.2c-1.1,0-2.2,0.1-3,0.2v-3.3
			c0.8,0.1,1.9,0.2,3,0.2h1.2v-2.3h-0.5V30.1z M622.8,43.6c-0.2-2.3-0.6-4-1.2-6.1l2.5-0.8c0.7,2.5,1,4.2,1.2,6.1L622.8,43.6z
			 M629.4,27.4c0.7,0,1.1,0,1.5,0c-1.3-1.2-2-2.3-3.2-4.4c-0.8,1.6-1.6,2.9-2.9,4.5c0.3,0,0.4,0,0.7,0h3.9V27.4z M629.2,41.7
			c0.5-2.1,0.7-2.8,0.8-5.2l2.3,0.5c-0.2,2-0.4,2.7-1,5.2L629.2,41.7z M637.2,25.1v-1.7h-1.8v1.7H637.2z M638.5,29.1v-1.7h-3.1v1.7
			H638.5z M635.4,31.4v2h1.8v-2C637.2,31.4,635.4,31.4,635.4,31.4z M636.4,45.2h1.6v-4.9h-1.6V45.2z M640.6,45.2h1.5v-4.9h-1.5V45.2
			z M642.8,31.2c0.6,0.1,1.1,0.1,2.1,0.1h2.6c1.3,0,1.9,0,2.6-0.1v3.3c-0.7-0.1-1.5-0.1-2.5-0.1H645c-1,0-1.7,0-2.2,0.1L642.8,31.2
			L642.8,31.2z M644.6,45.2h1.6v-4.9h-1.6V45.2z"/>
		<path d="M660.4,44.7c-1.4,0-2.3,0-3.4,0.1c0.1-0.8,0.1-1.8,0.1-3.3v-5.1c0-1.3,0-2.2-0.1-3.2c1,0.1,1.6,0.1,3.6,0.1h14.9
			c1.8,0,2.6,0,3.6-0.1c-0.1,1-0.1,1.8-0.1,3.2v5.1c0,1.8,0,2.7,0.1,3.3c-1-0.1-1.9-0.1-3.1-0.1h-1.8c2.4,1.1,4.6,1.6,8.6,2
			c-0.7,0.9-1.2,1.8-1.6,2.9c-2.5-0.3-3.6-0.5-5.5-1.2c-2-0.6-3-1-5.1-2.1l1.7-1.6h-8.7l1.9,1.6c-3.6,1.7-5.8,2.3-10.3,2.9
			c-0.5-1.2-0.9-1.9-1.9-3c3.8-0.2,6.6-0.7,8.6-1.5C661.9,44.7,660.4,44.7,660.4,44.7z M666.1,21.7c0-0.9,0-1.6-0.2-2.3h3.8
			c-0.1,0.7-0.2,1.4-0.2,2.3v1.2h3.4c0.9-1.2,1.3-1.9,2-3.3l3.2,1.2c-0.8,1.2-1.1,1.5-1.6,2.1h2.2c1.3,0,2.4,0,3.1-0.1
			c-0.1,1-0.1,1.7-0.1,2.9v1.7c0,0.8,0,1.4,0.1,2.1h-3.3v-3.9h-21.2v3.9H654c0.1-0.8,0.1-1.4,0.1-2.2v-1.8c0-1.1,0-1.7-0.1-2.7
			c1,0.1,1.8,0.1,3.3,0.1h2c-0.5-0.8-0.8-1.1-1.7-2l3.1-1.1c0.9,1,1.2,1.5,2.1,3.1h3.2v-1.2H666.1z M676.7,30.4c0,0.8,0,1.3,0.1,2.1
			c-0.9-0.1-1.4-0.1-2.9-0.1h-11.8c-1.1,0-1.9,0-2.9,0.1c0.1-0.7,0.1-1.2,0.1-2v-2c0-1,0-1.5-0.1-2c1,0.1,1.8,0.1,3.1,0.1h11.5
			c1.2,0,2.2,0,3.1-0.1c-0.1,0.7-0.1,1.2-0.1,2L676.7,30.4L676.7,30.4z M660.4,36.5h15.1v-1h-15.1V36.5z M660.4,39.5h15.1v-1.1
			h-15.1V39.5z M660.4,42.5h15.1v-1.1h-15.1V42.5z M662.4,28.7v1.5h11.1v-1.5H662.4z"/>
		<path d="M697.8,40.4c-0.2,0.4-0.2,0.6-0.4,1.1c-1.3-1.5-2.2-2.8-3.2-4.5c0.2,2.2,0.2,2.6,0.2,3.6v5.3c0,1.5,0,2.4,0.2,3.3h-3.7
			c0.2-1,0.2-2,0.2-3.4v-4.1c0-1.3,0.1-2.8,0.1-3.8c-1.4,3.5-2.5,5.3-4.2,7.2c-0.4-1.2-0.9-2.4-1.6-3.3c1.3-1.4,2.4-2.8,3.5-4.7
			c0.7-1.2,0.8-1.5,1.7-3.6h-1.7c-1.4,0-2.1,0-2.9,0.2v-3.4c0.7,0.1,1.4,0.2,2.9,0.2h2.1v-7.6c0-1.4,0-2.4-0.2-3.1h3.6
			c-0.1,0.8-0.2,1.6-0.2,3.1v7.6h1.5c1.2,0,1.8,0,2.5-0.1v3.3c-0.8-0.1-1.4-0.1-2.5-0.1h-1.2c1.2,2,2.4,3.5,4.1,4.9
			c-0.4,0.8-0.6,1.1-0.9,1.8c0.7,0,1.9-0.2,2.9-0.4l7.5-1.7V23.3c0-1.9,0-2.7-0.2-3.7h3.9c-0.2,1.1-0.2,1.9-0.2,3.7v13.9
			c1.3-0.3,1.9-0.5,2.7-0.8L715,40c-0.9,0.1-1.8,0.3-3.1,0.6l-0.3,0.1v4.7c0,1.8,0,2.8,0.2,3.8h-3.9c0.2-1.1,0.2-1.9,0.2-3.8v-3.9
			l-6.8,1.5c-1.4,0.3-2.3,0.6-3,0.8L697.8,40.4z M688.5,21.4c1,2.8,1.5,4.5,2,6.9l-2.7,1.2c-0.5-2.9-1.1-4.9-2-6.8L688.5,21.4z
			 M699.5,22.5c-0.8,2.9-1.2,4.1-2.6,6.9l-2.3-1.2c1-2.1,1.6-3.8,2.2-6.9L699.5,22.5z M701.1,29.7c2.5,1.7,3.9,2.9,5.6,4.7l-2.2,2.6
			c-2.2-2.4-3.3-3.4-5.6-4.9L701.1,29.7z M702.1,21.7c2.8,1.9,3.8,2.8,5.6,4.7l-2.2,2.7c-2.4-2.5-2.5-2.7-5.7-4.9L702.1,21.7z"/>
		<path d="M727.1,31.3c-1.3,0-2.2,0-3.1,0.2V30c-1.8,1.1-3.1,1.8-5.2,2.6c-0.8-1.7-1-2.1-1.9-3.3c6-2.1,10.8-5.5,13.1-9.4h4
			c1.3,1.9,2.7,3.3,4.9,4.9c2.6,2,5,3.2,8.5,4.3c-0.8,1.2-1.2,2.2-1.7,3.5c-2.5-1.1-3.6-1.6-5.6-2.8v1.6c-0.9-0.1-1.8-0.2-3.1-0.2
			h-3.3v3.1h8.1c1.7,0,2.7-0.1,3.5-0.2v3.6c-0.9-0.1-2-0.2-3.5-0.2h-8.1v7.2h8.7c1.6,0,2.7-0.1,3.8-0.2v3.7
			c-1.2-0.2-2.5-0.2-3.8-0.2H722c-1.5,0-2.6,0.1-4,0.2v-3.7c1.2,0.1,2.3,0.2,4,0.2h8v-7.2h-7.6c-1.4,0-2.5,0.1-3.5,0.2v-3.6
			c0.9,0.1,1.9,0.2,3.5,0.2h7.6v-3.1h-2.9V31.3z M724.8,37.9c1.1,1.9,1.7,3.1,2.6,5.3l-3.2,1.3c-0.7-2-1.5-3.7-2.5-5.3L724.8,37.9z
			 M727,28.3h9.9c0.3,0,0.3,0,0.8,0c-2.5-1.8-4.1-3.3-5.8-5.4c-1.6,2.2-2.9,3.5-5.6,5.4H727z M742.3,39.2c-0.4,0.7-0.4,0.7-1.6,3.1
			c-0.1,0.2-0.2,0.4-1.3,2.3l-3-1.1c1-1.6,1.8-3.3,2.5-5.5L742.3,39.2z"/>
	</g>
	<g>
		<path d="M593.7,87c0.2-1.2,0.3-2.6,0.3-4.1v-2.2h-4.8c-1.4,0-2.3,0.1-3.4,0.3v-3.6c1.1,0.2,1.9,0.3,3.4,0.3h4.8v-1l-1.1-1.6h-3.7
			c-1.5,0-2.3,0.1-3.4,0.3v-3.6c1.1,0.2,1.9,0.3,3.4,0.3h1.8l-4.4-7c-0.9-1.4-1.8-2.7-2.2-3.3h5.5c0.3,0.9,0.6,1.6,1.5,3.1l4.7,8.1
			l4.7-8.1c0.9-1.5,1.3-2.3,1.5-3.2h5.5c-0.4,0.5-1.7,2.4-2.3,3.3l-4.4,7h1.8c1.4,0,2.3-0.1,3.4-0.3v3.6c-1.1-0.2-2-0.3-3.4-0.3
			h-3.7l-1.1,1.7v0.9h4.7c1.4,0,2.2-0.1,3.4-0.3V81c-1.1-0.2-2-0.3-3.4-0.3h-4.7v2.2c0,1.8,0.1,2.8,0.3,4.1H593.7z"/>
		<path d="M619.6,86.8c0.2-1.2,0.3-2.5,0.3-4.2V65h-1.5c-1.2,0-2.1,0.1-3.3,0.2v-4.1c1,0.2,1.7,0.2,3.2,0.2h2.9c1.6,0,2.1,0,3.3-0.2
			c-0.2,1.9-0.3,3.4-0.3,5.3v16.2c0,1.7,0.1,2.8,0.3,4.2H619.6z"/>
		<path d="M639.6,86.8c0,2.8-0.7,3.8-3.3,4.8l-1.2-1.7c2-0.5,2.4-1.1,2.4-3.1h-2.7v-4.7h4.7V86.8z"/>
		<path d="M651.1,86.8c0.2-1.2,0.3-2.5,0.3-4.2V65h-1.5c-1.2,0-2.1,0.1-3.3,0.2v-4.1c1,0.2,1.7,0.2,3.2,0.2h2.9c1.6,0,2.1,0,3.3-0.2
			c-0.2,1.9-0.3,3.4-0.3,5.3v16.2c0,1.7,0.1,2.8,0.3,4.2H651.1z"/>
		<path d="M669,84.7c-1-1-1.7-2.1-2.1-3.2c-0.8-2.3-1.2-4.8-1.2-7.4c0-3.4,0.8-6.9,2-8.9c1.7-2.9,4.6-4.4,8.2-4.4
			c2.7,0,5.1,0.9,6.8,2.6c1,1,1.7,2.1,2.1,3.2c0.8,2.2,1.2,4.8,1.2,7.4c0,3.9-0.9,7.4-2.4,9.5c-1.8,2.5-4.4,3.8-7.8,3.8
			C673,87.3,670.7,86.4,669,84.7z M679.2,82.3c1.4-1.5,2.2-4.5,2.2-8.2c0-3.7-0.8-6.6-2.2-8.2c-0.8-0.9-2-1.3-3.5-1.3
			c-1.5,0-2.7,0.5-3.6,1.6c-1.4,1.7-2.1,4.3-2.1,7.8c0,3.4,0.6,6.1,1.6,7.6c1,1.4,2.3,2.1,4.1,2.1C677.1,83.6,678.4,83.1,679.2,82.3
			z"/>
		<path d="M691.8,84.7c-1-1-1.7-2.1-2.1-3.2c-0.8-2.3-1.2-4.8-1.2-7.4c0-3.4,0.8-6.9,2-8.9c1.7-2.9,4.6-4.4,8.2-4.4
			c2.7,0,5.1,0.9,6.8,2.6c1,1,1.7,2.1,2.1,3.2c0.8,2.2,1.2,4.8,1.2,7.4c0,3.9-0.9,7.4-2.4,9.5c-1.8,2.5-4.4,3.8-7.8,3.8
			C695.8,87.3,693.5,86.4,691.8,84.7z M702,82.3c1.4-1.5,2.2-4.5,2.2-8.2c0-3.7-0.8-6.6-2.2-8.2c-0.8-0.9-2-1.3-3.5-1.3
			c-1.5,0-2.7,0.5-3.6,1.6c-1.4,1.7-2.1,4.3-2.1,7.8c0,3.4,0.6,6.1,1.6,7.6c1,1.4,2.3,2.1,4.1,2.1C699.9,83.6,701.2,83.1,702,82.3z"
			/>
	</g>
</g>
<g>
	<path class="st2" d="M414.4,63.4c-15.5,0-28,12.6-28,28s12.6,28,28,28c15.5,0,28-12.6,28-28S429.9,63.4,414.4,63.4z"/>
	<polygon class="st3" points="426.5,93.8 416.8,93.8 416.8,103.5 412,103.5 412,93.8 402.3,93.8 402.3,89 412,89 412,79.3 
		416.8,79.3 416.8,89 426.5,89 	"/>
</g>
<polygon class="st2" points="877.8,53.8 915.4,91.4 877.8,129 "/>
<g class="st1">
	<path d="M973.5,25.6c0.8,0.1,1.3,0.2,2.6,0.2h2.5c1,0,1.7,0,2.4-0.2c-0.1,1-0.1,1.8-0.1,3.5v6.7c0.4,1,0.9,1.5,1.8,2
		c1.3,0.9,3.3,1.2,7.4,1.2c6.2,0,10-0.2,13.3-0.5c-0.6,1.5-0.7,2.2-1,3.6c-3.6,0.1-6.7,0.1-10.3,0.1c-4.7,0-7.1-0.2-8.8-0.8
		c-1.6-0.5-2.8-1.4-4.1-3c-1.3,1.3-2.3,2.2-3.6,3.1c-0.5,0.4-1,0.8-1.2,1l-1.5-3.6c1.1-0.4,3-1.7,4.7-3.2V29h-1.8
		c-0.9,0-1.4,0-2.2,0.2v-3.6H973.5z M976,13.8c2.5,2.2,3.5,3.3,5.5,5.9l-2.7,2.6c-2-2.8-3.1-4.1-5.3-6.1L976,13.8z M988.8,16.4
		c0.7-1,1.2-2.1,1.7-3.3l3.7,0.5c-0.6,1.1-1,1.8-1.6,2.7h5.2c1,0,1.7,0,2.3-0.1c-0.1,0.7-0.1,1.4-0.1,2.2v4.4c0,1.1,0,1.8,0.1,2.4
		c-0.8,0-1.3-0.1-2.3-0.1H987v2.3h11.7c1.2,0,1.6,0,2.2-0.1c-0.1,0.7-0.1,1.3-0.1,2.4v4.8c0,0.8,0,1.5,0.1,2.2
		c-0.7-0.1-1.3-0.1-2.2-0.1h-12.9c-0.9,0-1.6,0-2.3,0.1c0.1-0.7,0.1-1.4,0.1-2.2v-16c0-0.7-0.1-1.4-0.1-2.2c0.8,0.1,1.6,0.1,2.5,0.1
		H988.8z M987,22.3h9.7v-2.9H987V22.3z M987,33.7h10.5v-3.3H987V33.7z"/>
	<path d="M1016.8,18.9c1.7,0,2.6,0,3.6-0.1c-0.1,1.1-0.1,1.2-0.2,5.2c-0.1,6.7-0.4,11.5-1,14.2c-0.6,2.8-1.5,3.6-4.1,3.6
		c-0.8,0-2-0.1-3.4-0.2c-0.1-1.6-0.2-2-0.6-3.4c1.2,0.2,2.4,0.4,3.1,0.4c0.9,0,1.2-0.2,1.5-1.3c0.4-1.2,0.6-4,0.8-7.6
		c0.1-2.8,0.1-2.8,0.2-7.5h-3.1c-0.3,4.3-0.7,7.4-1.6,10.6c-1,3.7-2.4,6.6-4.9,9.8c-0.9-1.4-1.6-2.3-2.6-3.3c2-2.4,3.3-4.7,4.3-8
		c0.8-2.7,1.2-5.3,1.5-9.2h-1.6c-1.4,0-2.3,0.1-3.2,0.2v-3.7c0.9,0.1,1.9,0.2,3.5,0.2h1.4c0-0.9,0-1,0-2.7c0-1.3-0.1-2-0.2-2.8h3.8
		c-0.1,0.7-0.2,1.1-0.2,2.1c0,0.6,0,0.6-0.1,3.4h3.1V18.9z M1025.7,42h-3.6c0.1-1,0.2-2.2,0.2-3.7V20c0-1.5,0-2.3-0.2-3.4
		c0.9,0.1,1.7,0.2,2.9,0.2h6.1c1.3,0,2,0,2.9-0.2c-0.1,1.1-0.2,1.9-0.2,3.4v18.3c0,1.5,0.1,2.5,0.2,3.6h-3.6v-2.3h-4.7L1025.7,42
		L1025.7,42z M1025.7,36.4h4.7V20h-4.7V36.4z"/>
	<path d="M1049.7,34.2c-0.2,0.4-0.2,0.6-0.4,1.1c-1.3-1.5-2.2-2.8-3.2-4.5c0.2,2.2,0.2,2.6,0.2,3.6v5.3c0,1.5,0,2.4,0.2,3.3h-3.7
		c0.2-1,0.2-2,0.2-3.4v-4.1c0-1.3,0.1-2.8,0.1-3.8c-1.4,3.5-2.5,5.3-4.2,7.2c-0.4-1.2-0.9-2.4-1.6-3.3c1.3-1.4,2.4-2.8,3.5-4.7
		c0.7-1.2,0.8-1.5,1.7-3.6h-1.7c-1.4,0-2.1,0-2.9,0.2V24c0.7,0.1,1.4,0.2,2.9,0.2h2.1v-7.6c0-1.4,0-2.4-0.2-3.1h3.6
		c-0.1,0.8-0.2,1.6-0.2,3.1v7.6h1.5c1.2,0,1.8,0,2.5-0.1v3.3c-0.8-0.1-1.4-0.1-2.5-0.1h-1.2c1.2,2,2.4,3.5,4.1,4.9
		c-0.4,0.8-0.6,1.1-0.9,1.8c0.7,0,1.9-0.2,2.9-0.4l7.5-1.7V17.2c0-1.9,0-2.7-0.2-3.7h3.9c-0.2,1.1-0.2,1.9-0.2,3.7V31
		c1.3-0.3,1.9-0.5,2.7-0.8l0.7,3.6c-0.9,0.1-1.8,0.3-3.1,0.6l-0.3,0.1v4.7c0,1.8,0,2.8,0.2,3.8h-3.9c0.2-1.1,0.2-1.9,0.2-3.8v-3.9
		l-6.8,1.5c-1.4,0.3-2.3,0.6-3,0.8L1049.7,34.2z M1040.5,15.2c1,2.8,1.5,4.5,2,6.9l-2.7,1.2c-0.5-2.9-1.1-4.9-2-6.8L1040.5,15.2z
		 M1051.4,16.3c-0.8,2.9-1.2,4.1-2.6,6.9l-2.3-1.2c1-2.1,1.6-3.8,2.2-6.9L1051.4,16.3z M1053,23.6c2.5,1.7,3.9,2.9,5.6,4.7l-2.2,2.6
		c-2.2-2.4-3.3-3.4-5.6-4.9L1053,23.6z M1054,15.6c2.8,1.9,3.8,2.8,5.6,4.7l-2.2,2.7c-2.4-2.5-2.5-2.7-5.7-4.9L1054,15.6z"/>
	<path d="M1079.1,25.2c-1.3,0-2.2,0-3.1,0.2v-1.5c-1.8,1.1-3.1,1.8-5.2,2.6c-0.8-1.7-1-2.1-1.9-3.3c6-2.1,10.8-5.5,13.1-9.4h4
		c1.3,1.9,2.7,3.3,4.9,4.9c2.6,2,5,3.2,8.5,4.3c-0.8,1.2-1.2,2.2-1.7,3.5c-2.5-1.1-3.6-1.6-5.6-2.8v1.6c-0.9-0.1-1.8-0.2-3.1-0.2
		h-3.3v3.1h8.1c1.7,0,2.7-0.1,3.5-0.2v3.6c-0.9-0.1-2-0.2-3.5-0.2h-8.1v7.2h8.7c1.6,0,2.7-0.1,3.8-0.2v3.7c-1.2-0.2-2.5-0.2-3.8-0.2
		H1074c-1.5,0-2.6,0.1-4,0.2v-3.7c1.2,0.1,2.3,0.2,4,0.2h8v-7.2h-7.6c-1.4,0-2.5,0.1-3.5,0.2V28c0.9,0.1,1.9,0.2,3.5,0.2h7.6v-3.1
		L1079.1,25.2L1079.1,25.2z M1076.8,31.7c1.1,1.9,1.7,3.1,2.6,5.3l-3.2,1.3c-0.7-2-1.5-3.7-2.5-5.3L1076.8,31.7z M1079,22.2h9.9
		c0.3,0,0.3,0,0.8,0c-2.5-1.8-4.1-3.3-5.8-5.4c-1.6,2.2-2.9,3.5-5.6,5.4H1079z M1094.3,33c-0.4,0.7-0.4,0.7-1.6,3.1
		c-0.1,0.2-0.2,0.4-1.3,2.3l-3-1.1c1-1.6,1.8-3.3,2.5-5.5L1094.3,33z"/>
	<path d="M1107.8,24c-2.1,1.3-2.9,1.7-5.1,2.7c-0.5-1.3-0.9-2-1.9-3.3c3-1.2,5.7-2.7,8.2-4.6c2.2-1.8,3.7-3.4,5-5.3h3.8
		c1.4,2,2.8,3.5,5.4,5.4c2.5,1.9,4.9,3.2,8.2,4.4c-0.8,1.3-1.2,2-1.8,3.5c-2.3-1-3.3-1.5-5.2-2.8v2.2c-0.8-0.1-1.6-0.1-2.9-0.1
		h-10.9c-1,0-1.9,0-2.8,0.1L1107.8,24L1107.8,24z M1105.2,42.7c0.1-1,0.2-2,0.2-3.4v-7.5c0-1.3-0.1-2.2-0.2-3.2
		c0.7,0.1,1.5,0.1,2.8,0.1h16c1.3,0,2,0,2.8-0.1c-0.1,0.9-0.2,1.8-0.2,3.2v7.5c0,1.5,0,2.4,0.2,3.4h-3.8v-1.6h-14v1.6H1105.2z
		 M1109,37.9h14v-6h-14V37.9z M1121.4,22.7c0.4,0,0.5,0,1.1,0c-2.8-2-4.6-3.7-6.6-6.2c-1.9,2.8-3.3,4.1-6.3,6.2c0.4,0,0.5,0,0.9,0
		H1121.4z"/>
	<path d="M1133.7,18.7c0.8,0.1,1.5,0.2,2.7,0.2h8.2c1.2,0,2,0,2.7-0.2V22c-0.7-0.1-1.4-0.1-2.7-0.1h-8.3c-1.1,0-1.8,0-2.7,0.2v-3.4
		H1133.7z M1135,14.3c0.8,0.1,1.4,0.2,2.8,0.2h5.5c1.3,0,1.9,0,2.7-0.2v3.1c-0.9-0.1-1.5-0.1-2.7-0.1h-5.5c-1.2,0-2,0-2.8,0.1V14.3z
		 M1138.4,42.9h-3.4c0.1-0.9,0.2-1.8,0.2-3.1V35c0-1,0-1.6-0.1-2.5c0.6,0.1,1.1,0.1,2.2,0.1h6.9c1,0,1.5,0,2.1-0.1
		c-0.1,0.7-0.1,1.3-0.1,2.5v4.7c0,1.2,0,2,0.2,2.8h-3.4v-1h-4.4v1.4H1138.4z M1135.1,23.4c0.7,0.1,1.1,0.1,2.1,0.1h6.8
		c1.1,0,1.4,0,2-0.1v3c-0.7-0.1-1-0.1-2-0.1h-6.8c-1.1,0-1.4,0-2.1,0.1V23.4z M1135.1,27.9c0.6,0.1,1,0.1,2.1,0.1h6.8
		c1.1,0,1.4,0,2-0.1v3c-0.6-0.1-1.1-0.1-2.1-0.1h-6.8c-1,0-1.4,0-2.1,0.1L1135.1,27.9L1135.1,27.9z M1138.4,38.6h4.5v-3.1h-4.5V38.6
		z M1153.2,17.3c0-1.8,0-2.6-0.2-3.8h4c-0.2,1.1-0.2,2.1-0.2,3.8v5.8h2.3c1.7,0,2.8-0.1,3.9-0.2v3.7c-1.2-0.1-2.4-0.2-3.9-0.2h-2.2
		v11.7c0,2.2,0.1,3.5,0.2,4.8h-4c0.2-1.3,0.2-2.5,0.2-4.8V26.4h-2c-1.4,0-2.8,0.1-3.9,0.2v-3.7c1,0.1,2.2,0.2,3.9,0.2h2v-5.8H1153.2
		z"/>
</g>
<g class="st1">
	<path d="M945.7,108.7l0.6,0.7l-7.1,7.1l7.1,7.1l-0.6,0.7l-7.1-7l-7.1,7l-0.7-0.7l7.1-7.1l-7.1-7.1l0.7-0.7l7.1,7.1L945.7,108.7z
		 M934.4,116.5c0,0.9-0.7,1.5-1.5,1.5s-1.5-0.7-1.5-1.5s0.7-1.5,1.5-1.5C933.7,114.9,934.4,115.6,934.4,116.5z M940.1,122.3
		c0,0.8-0.7,1.5-1.5,1.5s-1.5-0.7-1.5-1.5s0.7-1.5,1.4-1.5c0,0,0,0,0.1,0l0,0l0,0C939.4,120.8,940.1,121.4,940.1,122.3z
		 M940.1,110.7c0,0.9-0.7,1.5-1.5,1.5s-1.5-0.7-1.5-1.5s0.7-1.5,1.5-1.5C939.4,109.2,940.1,109.8,940.1,110.7z M945.8,116.5
		c0,0.8-0.7,1.5-1.5,1.5s-1.5-0.7-1.5-1.5s0.7-1.5,1.5-1.5S945.8,115.6,945.8,116.5z"/>
	<path d="M964.1,111.7c-0.2,0.3-0.3,0.5-0.5,1.2c-1.2,3.6-2.1,5.3-4,7.6c-1.8,2-4.2,3.8-7.1,5.1c-0.5-0.9-0.9-1.4-1.7-2.1
		c5.2-2,8.6-5.6,10.2-10.8l-6,0.1c-1.1,1.8-3,3.9-4.7,5.1c-0.6-0.8-0.9-1.1-1.9-1.7c2.2-1.4,3.8-3.2,5.2-5.8c0.6-1.1,1-2,1-2.7
		l2.7,0.6c-0.1,0.2-0.2,0.2-0.3,0.6c-0.2,0.4-0.3,0.8-0.5,1.2c-0.1,0.2-0.1,0.2-0.1,0.3l-0.2,0.3c0.2,0,0.6,0,1,0l4.4-0.1
		c0.5,0,0.9,0,1,0c-0.5-1-0.8-1.6-1.5-2.5l1.5-0.5c0.8,1,1.2,1.8,1.8,3.2l-0.9,0.3L964.1,111.7z M965.4,110.2
		c-0.5-1.2-1.1-2.2-1.7-3.1l1.4-0.5c0.8,1.1,1.3,1.9,1.8,3L965.4,110.2z"/>
	<path d="M983.7,114.4c-0.2,0.4-0.3,0.6-0.6,1.3c-1,2.9-2.6,5.2-4.6,6.8c-1.4,1.1-2.7,1.8-5.2,2.7c-0.4-1-0.7-1.3-1.6-2.3
		c2.4-0.6,4-1.4,5.6-2.6c1.5-1.2,2.3-2.5,3.2-4.7h-9.7c-1.3,0-1.8,0-2.6,0.1v-2.4c0.8,0.1,1.2,0.1,2.6,0.1h9.5c1.2,0,1.6,0,2.3-0.2
		L983.7,114.4z M969.9,108.4c0.7,0.1,1.1,0.1,2.3,0.1h7c1.3,0,1.7,0,2.3-0.1v2.5c-0.6-0.1-1-0.1-2.3-0.1h-7.1c-1.3,0-1.7,0-2.3,0.1
		L969.9,108.4L969.9,108.4z"/>
	<path d="M986.2,121.7c1.7-0.1,4.1-0.7,5.9-1.5c2.5-1.1,4.4-2.6,5.9-4.9c0.9-1.3,1.4-2.4,2-4c0.8,0.9,1.1,1.2,2.1,2
		c-1.7,3.7-3.6,6-6.3,7.8c-2,1.4-4.5,2.3-7.6,3c-0.8,0.2-0.9,0.2-1.3,0.3L986.2,121.7z M987.9,109.3c2.4,1.5,3.6,2.4,5.2,3.9
		l-1.7,2.2c-1.6-1.7-3.2-3-5.1-4.1L987.9,109.3z"/>
	<path d="M1006.3,125c0.1-0.6,0.1-1.1,0.1-2.2V110c0-1.2,0-1.6-0.1-2h2.7c-0.1,0.5-0.1,0.9-0.1,2.1v3.7c2.3,0.8,5.9,2.4,9.1,4.2
		l-1.4,2.4c-1.4-1-4.2-2.5-7.1-3.8c-0.5-0.2-0.5-0.2-0.7-0.3c0.1,0.6,0.1,0.9,0.1,1.4v5.3c0,1.1,0,1.6,0.1,2.2h-2.7V125z
		 M1014.5,108.9c0.9,0.9,1.4,1.7,2.1,2.9l-1.4,0.7c-0.7-1.2-1.2-2-2.1-3L1014.5,108.9z M1017.6,111.3c-0.6-1.1-1.3-2-2-2.9l1.3-0.7
		c0.9,0.9,1.5,1.7,2.1,2.8L1017.6,111.3z"/>
	<path d="M1022.7,113c2.1,0.8,3.6,1.6,5.3,2.7l-1.2,2.3c-1.6-1.2-3.4-2.1-5.4-2.9L1022.7,113z M1021.8,122c1.5,0,3.7-0.5,5.8-1.3
		c2.5-1,4.2-2.3,5.8-4.4c1.1-1.4,1.7-2.6,2.3-4.4c0.8,0.9,1.1,1.1,2.1,1.8c-0.9,2.2-1.8,3.6-3,5.1c-2.5,2.9-5.9,4.7-10.9,5.7
		c-0.7,0.1-1,0.2-1.4,0.3L1021.8,122z M1024.3,108.2c2.1,0.8,3.6,1.6,5.3,2.6l-1.3,2.2c-1.8-1.2-3.6-2.2-5.3-2.8L1024.3,108.2z"/>
	<path d="M1046.4,125.4c0.1-0.5,0.1-1.1,0.1-1.8v-4.2c0-0.1,0-0.5,0-1c-0.2,0.2-0.3,0.2-0.6,0.4c-1.5,0.8-3.2,1.5-5.6,2.2
		c-0.4-1-0.6-1.3-1.2-2.2c2-0.4,3.5-0.9,5.6-1.9c2.3-1.1,4.5-2.5,6.2-4.2c-0.2,0-0.2,0-0.4,0c-0.1,0-0.1,0-7.3,0.1
		c-1.2,0-1.4,0-2.1,0.1v-2.4c0.5,0.1,1.3,0.2,2.1,0.2h3.3V109c0-0.7,0-1-0.1-1.4h2.7c-0.1,0.4-0.1,0.7-0.1,1.4v1.7h3.4
		c0.6,0,1-0.1,1.4-0.2l1.2,1.4c-0.3,0.3-0.4,0.3-0.9,0.9c-1.1,1.3-2.2,2.2-4.1,3.7c2.4,0.8,4.6,1.7,7,3.1l-1.3,2.1
		c-2-1.3-3.6-2.1-6.1-3.2c-0.3-0.1-0.3-0.1-0.5-0.2c0,0.2,0,0.8,0,1v4.4c0,0.9,0,1.2,0.1,1.8h-2.8V125.4z"/>
	<path d="M1062.4,114.5c1.1,0.9,1.7,1.4,2.5,2.2c1.1,1.1,1.1,1.1,1.2,1.2c1-0.9,1.9-1.7,2.6-2.5c0.9-1,2-2.5,2.4-3.3
		c0.1-0.1,0.1-0.1,0.1-0.2s0-0.1,0-0.1c-0.2,0-0.5,0-0.9,0h-7.3c-0.7,0-1.3,0-2.3,0c-1.6,0-1.8,0-2.6,0.1v-2.5
		c0.8,0.1,1.2,0.1,2.6,0.1h11.1c0.9,0,1.2,0,1.7-0.2l1.4,1.6c-0.3,0.3-0.4,0.5-0.9,1.2c-1.9,3.1-4,5.5-6.5,7.6
		c0.8,1,1.6,1.9,2.6,3.3l-2.1,1.7c-1.1-1.8-2.2-3.2-3.9-5c-1.5-1.7-2.5-2.7-4-3.9L1062.4,114.5z"/>
	<path d="M1087.8,111.8v-0.9v-0.6c0-1.3,0-1.8-0.1-2.2h2.6c-0.1,0.5-0.1,0.6-0.1,1.3c0,1.2,0,1.2,0,2.4h1.3c1.4,0,1.8,0,2.6-0.1v2.4
		c-0.7-0.1-1.2-0.1-2.6-0.1h-1.3c0,2.4,0,2.5-0.1,3.3c-0.3,2.6-1.1,4.3-2.9,5.7c-1.1,0.9-2.1,1.4-3.9,2.1c-0.4-0.9-0.6-1.2-1.5-2.1
		c1.9-0.6,2.9-1.1,3.8-1.9c1.4-1.2,1.9-2.5,2.1-4.8c0-0.5,0-0.9,0.1-2.3h-5.2v3c0,0.8,0,1.2,0.1,1.7h-2.6c0.1-0.4,0.1-1,0.1-1.7v-3
		h-1.2c-1.3,0-1.9,0-2.6,0.1v-2.4c0.8,0.1,1.2,0.1,2.6,0.1h1.2v-2c0-0.8,0-1.3-0.1-1.8h2.6c-0.1,0.7-0.1,0.7-0.1,1.7v2.1
		C1082.6,111.8,1087.8,111.8,1087.8,111.8z"/>
	<path d="M1096.1,121.7c1.7-0.1,4.1-0.7,5.9-1.5c2.5-1.1,4.4-2.6,5.9-4.9c0.9-1.3,1.4-2.4,2-4c0.8,0.9,1.1,1.2,2.1,2
		c-1.7,3.7-3.6,6-6.3,7.8c-2,1.4-4.5,2.3-7.6,3c-0.8,0.2-0.9,0.2-1.3,0.3L1096.1,121.7z M1097.8,109.3c2.4,1.5,3.6,2.4,5.2,3.9
		l-1.7,2.2c-1.6-1.7-3.2-3-5.1-4.1L1097.8,109.3z"/>
	<path d="M1115.6,113c2.1,0.8,3.6,1.6,5.3,2.7l-1.2,2.3c-1.6-1.2-3.4-2.1-5.4-2.9L1115.6,113z M1114.7,122c1.5,0,3.7-0.5,5.8-1.3
		c2.5-1,4.2-2.3,5.8-4.4c1.1-1.4,1.7-2.6,2.3-4.4c0.8,0.9,1.1,1.1,2.1,1.8c-0.9,2.2-1.8,3.6-3,5.1c-2.5,2.9-5.9,4.7-10.9,5.7
		c-0.7,0.1-1,0.2-1.4,0.3L1114.7,122z M1117.2,108.2c2.1,0.8,3.6,1.6,5.3,2.6l-1.3,2.2c-1.8-1.2-3.6-2.2-5.3-2.8L1117.2,108.2z"/>
	<path d="M1136.2,112.8c-0.2-0.9-0.2-1.1-0.4-1.5l2.4-0.4c0,0.4,0.1,0.8,0.2,1.5l0.3,1.5l6-1c0.6-0.1,0.9-0.2,1.3-0.3l1.4,1.3
		c-0.2,0.3-0.3,0.5-0.5,1c-0.9,2.2-2,3.7-3.9,5.2c-0.7-0.8-1-1-1.9-1.4c1.5-0.9,2.6-2.1,3.4-3.6c-0.2,0.1-0.2,0.1-0.7,0.1l-4.7,0.8
		l1.4,7.4c0.2,1.1,0.2,1.1,0.4,1.6l-2.5,0.4c0-0.5,0-1-0.2-1.6l-1.4-7.5l-1.7,0.3c-0.7,0.1-1.2,0.2-1.8,0.4l-0.4-2.3
		c0.6,0,1.1-0.1,1.9-0.2l1.7-0.3L1136.2,112.8z"/>
	<path d="M1165.9,109.4c-0.3,0.3-0.4,0.4-0.7,0.7c-1.5,1.6-3,2.9-4.7,4.1v8.5c0,1.1,0,1.7,0.1,2.2h-2.8c0.1-0.6,0.1-1,0.1-2.2v-7
		c-2.3,1.4-3.5,1.9-7.1,3.2c-0.4-1-0.6-1.4-1.3-2.3c4-1.1,7.3-2.7,10.5-5.2c1.8-1.4,3.1-2.8,3.7-3.7L1165.9,109.4z"/>
	<path d="M1168.5,121.7c1.7-0.1,4.1-0.7,5.9-1.5c2.5-1.1,4.4-2.6,5.9-4.9c0.9-1.3,1.4-2.4,2-4c0.8,0.9,1.1,1.2,2.1,2
		c-1.7,3.7-3.6,6-6.3,7.8c-2,1.4-4.5,2.3-7.6,3c-0.8,0.2-0.9,0.2-1.3,0.3L1168.5,121.7z M1170.2,109.3c2.4,1.5,3.6,2.4,5.2,3.9
		l-1.7,2.2c-1.6-1.7-3.2-3-5.1-4.1L1170.2,109.3z"/>
	<path d="M1187.8,124.8c0-0.2,0-0.3-0.1-0.8c-0.4-2.3-0.5-4.3-0.5-6.4c0-1.8,0.1-3.6,0.4-5.3c0.1-0.6,0.1-0.6,0.5-2.9
		c0.1-0.7,0.2-1.3,0.2-1.5c0,0,0,0,0-0.1l2.7,0.3c-0.8,1.7-1.6,6.6-1.6,10c0,0.7,0,0.7,0,1c0,0.1,0,0.1,0,0.3c0,0.2,0,0.2,0,0.4l0,0
		c0.1-0.2,0.1-0.2,0.2-0.6c0-0.1,0.1-0.4,0.2-0.7c0.2-0.4,0.2-0.4,0.4-0.9c0-0.1,0.1-0.1,0.2-0.6l1.7,0.7c-1.2,2.3-2,4.8-2,6.1
		c0,0.1,0,0.2,0,0.5L1187.8,124.8z M1192.3,111.7c0.9,0.2,2,0.3,3.6,0.3c0.7,0,1.1,0,1.8,0c0-1.2,0-2.2,0-3c0-0.4,0-0.7-0.1-1
		l2.5-0.1c-0.1,0.6-0.1,1.5-0.1,2.9c0,0.2,0,0.5,0,0.9c1-0.1,1.9-0.3,2.7-0.5c0.1,0,0.1,0,0.4-0.2h0.2l0.1,2.3c-0.2,0-0.2,0-0.6,0.1
		c-0.7,0.1-1.7,0.3-2.8,0.4c0,0.2,0,0.2,0,0.4c0,1.1,0,1.2,0.2,4.5c1.4,0.7,1.9,1,3.1,1.8c0.3,0.2,0.4,0.2,0.6,0.3l-1,2.4
		c-0.3-0.4-0.9-0.9-1.5-1.3c-0.7-0.4-1.1-0.7-1.3-0.8c0,0.1,0,0.2,0,0.3c0,0.4-0.1,0.8-0.2,1.1c-0.5,1.2-1.9,1.9-3.8,1.9
		c-2.6,0-4.2-1.2-4.2-3.3c0-1.9,1.7-3.3,4.1-3.3c0.7,0,1.2,0.1,1.8,0.3c-0.1-0.5-0.1-1.5-0.2-4.3c-0.8,0-1.3,0-1.8,0
		c-0.7,0-1.5,0-2.5-0.1c-0.3,0-0.5,0-0.6,0c-0.2,0-0.3,0-0.3,0c-0.1,0-0.2,0-0.2,0h-0.1L1192.3,111.7z M1196.3,120.1
		c-1.3,0-2.1,0.5-2.1,1.3c0,0.7,0.7,1.2,1.8,1.2c0.7,0,1.3-0.2,1.6-0.6c0.2-0.2,0.3-0.5,0.3-1.1c0-0.2,0-0.5,0-0.5
		C1197.3,120.2,1196.9,120.1,1196.3,120.1z"/>
	<g>
		<path class="st2" d="M1005.5,167.2c0.2-1.5,0.3-3,0.3-4.9v-2.6h-5.7c-1.7,0-2.7,0.1-4,0.3v-4.3c1.3,0.2,2.2,0.3,4,0.3h5.7v-1.1
			l-1.3-1.9h-4.4c-1.7,0-2.7,0.1-4,0.3v-4.3c1.3,0.2,2.2,0.3,4,0.3h2.1l-5.3-8.4c-1.1-1.7-2.1-3.2-2.7-3.9h6.5
			c0.3,1.1,0.8,1.9,1.8,3.7l5.6,9.7l5.6-9.6c1.1-1.8,1.5-2.7,1.8-3.8h6.6c-0.5,0.6-2,2.8-2.7,3.9l-5.2,8.4h2.1c1.7,0,2.7-0.1,4-0.3
			v4.3c-1.3-0.2-2.3-0.3-4-0.3h-4.4l-1.3,2v1.1h5.6c1.7,0,2.7-0.1,4-0.3v4.3c-1.3-0.2-2.3-0.3-4-0.3h-5.6v2.6c0,2.2,0.1,3.4,0.3,4.9
			H1005.5z"/>
		<path class="st2" d="M1036.3,167c0.2-1.5,0.3-3,0.3-4.9v-20.9h-1.8c-1.4,0-2.5,0.1-3.9,0.2v-4.8c1.2,0.2,2,0.2,3.8,0.2h3.5
			c1.9,0,2.5,0,3.9-0.2c-0.2,2.2-0.3,4-0.3,6.3V162c0,2,0.1,3.4,0.3,4.9H1036.3z"/>
		<path class="st2" d="M1060,167c0,3.3-0.8,4.5-3.9,5.7l-1.4-2c2.3-0.6,2.8-1.3,2.9-3.7h-3.2v-5.5h5.6V167z"/>
		<path class="st2" d="M1069.3,167c-3,0-3.6,0-4.9,0.2c0.2-2.2,0.5-3.5,1-4.9c1-2.8,2.7-5.2,5.2-7.4c1.3-1.2,2.5-2.1,6.3-4.6
			c3.5-2.4,4.6-3.6,4.6-5.6c0-2.6-2-4.2-5.2-4.2c-2.2,0-3.9,0.8-4.8,2.2c-0.6,0.9-0.9,1.7-1.2,3.5l-5.4-0.6c0.5-2.9,1.2-4.4,2.6-6.1
			c1.9-2.2,4.9-3.4,8.7-3.4c6.6,0,10.8,3.2,10.8,8.4c0,2.5-0.8,4.3-2.7,6.1c-1.1,1-1.4,1.3-6.4,4.7c-1.7,1.2-3.6,2.8-4.5,3.8
			c-1.1,1.2-1.6,2-2.2,3.4h10.6c2.4,0,4.3-0.1,5.5-0.3v5c-1.8-0.2-3.3-0.2-5.7-0.2H1069.3z"/>
		<path class="st2" d="M1094.9,164.5c-1.1-1.1-2-2.5-2.5-3.8c-1-2.7-1.5-5.7-1.5-8.7c0-4,0.9-8.2,2.3-10.5c2.1-3.4,5.5-5.3,9.7-5.3
			c3.2,0,6,1.1,8,3.1c1.1,1.1,2,2.5,2.5,3.8c1,2.7,1.5,5.7,1.5,8.8c0,4.7-1,8.8-2.8,11.2c-2.1,3-5.3,4.5-9.2,4.5
			C1099.6,167.6,1096.9,166.5,1094.9,164.5z M1107,161.6c1.7-1.8,2.7-5.3,2.7-9.8c0-4.4-1-7.9-2.7-9.7c-0.9-1-2.4-1.6-4.1-1.6
			c-1.8,0-3.2,0.6-4.3,1.9c-1.7,2-2.5,5.1-2.5,9.2c0,4,0.7,7.3,1.9,9c1.2,1.7,2.8,2.5,4.9,2.5C1104.6,163.2,1106.1,162.6,1107,161.6
			z"/>
		<path class="st2" d="M1122,164.5c-1.1-1.1-2-2.5-2.5-3.8c-1-2.7-1.5-5.7-1.5-8.7c0-4,0.9-8.2,2.3-10.5c2.1-3.4,5.5-5.3,9.7-5.3
			c3.2,0,6,1.1,8,3.1c1.1,1.1,2,2.5,2.5,3.8c1,2.7,1.5,5.7,1.5,8.8c0,4.7-1,8.8-2.8,11.2c-2.1,3-5.3,4.5-9.2,4.5
			C1126.7,167.6,1124,166.5,1122,164.5z M1134.1,161.6c1.7-1.8,2.7-5.3,2.7-9.8c0-4.4-1-7.9-2.7-9.7c-0.9-1-2.4-1.6-4.1-1.6
			c-1.8,0-3.2,0.6-4.3,1.9c-1.7,2-2.5,5.1-2.5,9.2c0,4,0.7,7.3,1.9,9c1.2,1.7,2.8,2.5,4.9,2.5
			C1131.6,163.2,1133.1,162.6,1134.1,161.6z"/>
	</g>
</g>
<g class="st1">
	<path d="M511.3,106.2l0.7,0.7l-7.9,7.9l7.9,7.9l-0.7,0.7l-7.9-7.8l-7.8,7.8l-0.7-0.7l7.9-7.9l-7.9-7.9l0.7-0.7l7.8,7.9L511.3,106.2
		z M498.8,114.8c0,1-0.8,1.7-1.7,1.7c-0.9,0-1.7-0.8-1.7-1.7c0-0.9,0.8-1.7,1.7-1.7C498,113.1,498.8,113.8,498.8,114.8z
		 M505.1,121.2c0,0.9-0.8,1.7-1.7,1.7c-0.9,0-1.7-0.8-1.7-1.7c0-0.8,0.8-1.7,1.5-1.7c0,0,0,0,0.1,0l0,0l0,0
		C504.4,119.5,505.1,120.3,505.1,121.2z M505.1,108.4c0,1-0.8,1.7-1.7,1.7c-0.9,0-1.7-0.8-1.7-1.7c0-0.9,0.8-1.7,1.7-1.7
		C504.4,106.7,505.1,107.5,505.1,108.4z M511.4,114.8c0,0.9-0.8,1.7-1.7,1.7c-0.9,0-1.7-0.8-1.7-1.7s0.8-1.7,1.7-1.7
		C510.7,113.1,511.4,113.9,511.4,114.8z"/>
	<path d="M531.7,109.5c-0.2,0.3-0.3,0.6-0.6,1.3c-1.3,3.9-2.4,5.9-4.4,8.4c-2,2.3-4.7,4.2-7.9,5.6c-0.6-1-1-1.5-1.9-2.3
		c5.8-2.2,9.5-6.2,11.3-11.9l-6.7,0.1c-1.2,2-3.3,4.3-5.2,5.7c-0.7-0.9-1-1.2-2.1-1.9c2.4-1.6,4.2-3.6,5.7-6.4
		c0.7-1.2,1.1-2.2,1.1-2.9l3,0.6c-0.2,0.2-0.2,0.2-0.4,0.7c-0.2,0.4-0.4,0.8-0.6,1.3c-0.1,0.2-0.1,0.2-0.2,0.3l-0.2,0.3
		c0.3,0,0.6,0,1.1,0l4.8-0.1c0.6,0,1,0,1.2,0c-0.5-1.1-0.9-1.8-1.6-2.8l1.6-0.6c0.9,1.2,1.4,2,2,3.5l-1,0.4L531.7,109.5z
		 M533.1,107.9c-0.5-1.3-1.2-2.4-1.9-3.4l1.6-0.6c0.9,1.2,1.4,2.1,1.9,3.4L533.1,107.9z"/>
	<path d="M553.3,112.5c-0.2,0.4-0.4,0.7-0.6,1.4c-1.2,3.3-2.8,5.7-5.1,7.5c-1.6,1.2-3,2-5.8,3c-0.5-1.1-0.8-1.5-1.7-2.6
		c2.7-0.7,4.4-1.5,6.2-2.9c1.6-1.4,2.6-2.7,3.6-5.2H539c-1.5,0-2,0-2.8,0.1v-2.7c0.8,0.1,1.3,0.2,2.9,0.2h10.5c1.4,0,1.8,0,2.5-0.2
		L553.3,112.5z M538.1,105.8c0.7,0.1,1.2,0.2,2.6,0.2h7.7c1.4,0,1.9,0,2.6-0.2v2.7c-0.7-0.1-1.1-0.1-2.5-0.1h-7.8
		c-1.4,0-1.9,0-2.5,0.1L538.1,105.8L538.1,105.8z"/>
	<path d="M556.1,120.6c1.9-0.1,4.5-0.8,6.6-1.6c2.8-1.2,4.8-2.9,6.6-5.4c1-1.4,1.6-2.6,2.3-4.4c0.9,1,1.2,1.4,2.3,2.2
		c-1.9,4.1-4,6.7-7,8.7c-2.3,1.5-5,2.6-8.4,3.3c-0.9,0.2-1,0.2-1.5,0.4L556.1,120.6z M558,106.8c2.6,1.6,4,2.7,5.7,4.3l-1.9,2.4
		c-1.8-1.9-3.6-3.3-5.6-4.5L558,106.8z"/>
	<path d="M578.3,124.2c0.1-0.6,0.1-1.2,0.1-2.5v-14.2c0-1.3,0-1.7-0.1-2.3h3c-0.1,0.6-0.1,1-0.1,2.3v4.1c2.6,0.8,6.6,2.7,10,4.7
		l-1.5,2.6c-1.5-1.1-4.7-2.8-7.8-4.2c-0.5-0.2-0.6-0.3-0.8-0.4c0.1,0.6,0.1,1,0.1,1.5v5.8c0,1.2,0,1.8,0.1,2.5L578.3,124.2
		L578.3,124.2z M587.4,106.4c1,1,1.6,1.9,2.3,3.3l-1.5,0.8c-0.7-1.4-1.4-2.2-2.3-3.3L587.4,106.4z M590.9,109.1
		c-0.7-1.2-1.4-2.3-2.3-3.2l1.5-0.8c1,1,1.6,1.9,2.3,3.1L590.9,109.1z"/>
	<path d="M596.5,111c2.3,0.9,4,1.8,5.9,3l-1.4,2.5c-1.8-1.3-3.7-2.4-6-3.3L596.5,111z M595.5,120.9c1.7,0,4.1-0.6,6.4-1.4
		c2.7-1.1,4.6-2.5,6.4-4.9c1.2-1.6,1.9-2.9,2.6-4.9c0.9,1,1.2,1.2,2.3,2c-1,2.5-1.9,4-3.3,5.6c-2.8,3.2-6.6,5.2-12,6.3
		c-0.8,0.2-1.1,0.2-1.5,0.4L595.5,120.9z M598.2,105.6c2.3,0.9,4,1.7,5.9,2.9l-1.4,2.4c-2-1.3-4-2.4-5.9-3.1L598.2,105.6z"/>
	<path d="M622.7,124.6c0.1-0.6,0.1-1.2,0.1-2V118c0-0.2,0-0.5,0-1.1c-0.2,0.2-0.4,0.3-0.7,0.4c-1.7,0.9-3.5,1.6-6.2,2.5
		c-0.4-1.1-0.6-1.4-1.3-2.4c2.2-0.5,3.9-1,6.2-2.1c2.6-1.2,5-2.8,6.9-4.7c-0.2,0-0.2,0-0.5,0c-0.1,0-0.1,0-8.1,0.1
		c-1.3,0-1.5,0-2.3,0.1v-2.7c0.6,0.1,1.4,0.2,2.4,0.2h3.7v-1.8c0-0.8,0-1.1-0.1-1.6h3c-0.1,0.4-0.1,0.8-0.1,1.5v1.8h3.7
		c0.7,0,1.1-0.1,1.5-0.2l1.3,1.5c-0.4,0.3-0.4,0.3-1,1c-1.2,1.4-2.4,2.5-4.5,4.1c2.7,0.8,5.1,1.9,7.7,3.5l-1.5,2.3
		c-2.3-1.5-4-2.4-6.7-3.5c-0.3-0.1-0.3-0.1-0.6-0.2c0,0.3,0,0.9,0,1.1v4.9c0,1,0,1.3,0.1,2h-3V124.6z"/>
	<path d="M640.4,112.6c1.2,1,1.8,1.6,2.7,2.5c1.2,1.2,1.2,1.2,1.4,1.4c1.2-1,2.1-1.9,2.9-2.8c1-1.1,2.2-2.7,2.7-3.6
		c0.1-0.1,0.1-0.1,0.1-0.2s0-0.1,0-0.1c-0.2,0-0.6,0-1,0h-8.1c-0.8,0-1.4,0-2.5,0c-1.8,0-2,0-2.8,0.1v-2.8c0.9,0.1,1.4,0.2,2.9,0.2
		H651c1,0,1.3,0,1.8-0.2l1.5,1.7c-0.3,0.4-0.5,0.5-1,1.3c-2.1,3.4-4.4,6.1-7.1,8.4c0.9,1.1,1.8,2.1,2.9,3.7L647,124
		c-1.2-2-2.4-3.5-4.3-5.6c-1.7-1.9-2.8-3-4.4-4.3L640.4,112.6z"/>
	<path d="M668.5,109.6v-1v-0.7c0-1.5,0-1.9-0.1-2.5h2.9c-0.1,0.5-0.1,0.6-0.1,1.5c0,1.4,0,1.4,0,2.7h1.4c1.6,0,2,0,2.9-0.2v2.7
		c-0.8-0.1-1.4-0.1-2.8-0.1h-1.5c0,2.7,0,2.8-0.2,3.7c-0.3,2.8-1.3,4.7-3.2,6.4c-1.2,1-2.3,1.6-4.3,2.3c-0.4-1-0.7-1.4-1.7-2.3
		c2.1-0.6,3.2-1.2,4.2-2.1c1.5-1.3,2.1-2.8,2.3-5.3c0-0.5,0-1,0.1-2.6h-5.7v3.3c0,0.9,0,1.3,0.1,1.9H660c0.1-0.5,0.1-1.1,0.1-1.9
		V112h-1.4c-1.5,0-2.1,0-2.8,0.1v-2.7c0.9,0.1,1.3,0.2,2.9,0.2h1.3v-2.2c0-0.9,0-1.4-0.1-2h2.9c-0.1,0.7-0.1,0.8-0.1,1.9v2.3
		C662.8,109.6,668.5,109.6,668.5,109.6z"/>
	<path d="M677.7,120.6c1.9-0.1,4.5-0.8,6.6-1.6c2.8-1.2,4.8-2.9,6.6-5.4c1-1.4,1.6-2.6,2.3-4.4c0.9,1,1.2,1.4,2.3,2.2
		c-1.9,4.1-4,6.7-7,8.7c-2.3,1.5-5,2.6-8.4,3.3c-0.9,0.2-1,0.2-1.5,0.4L677.7,120.6z M679.6,106.8c2.6,1.6,4,2.7,5.7,4.3l-1.9,2.4
		c-1.8-1.9-3.6-3.3-5.6-4.5L679.6,106.8z"/>
	<path d="M699.3,111c2.3,0.9,4,1.8,5.9,3l-1.4,2.5c-1.8-1.3-3.7-2.4-6-3.3L699.3,111z M698.3,120.9c1.7,0,4.1-0.6,6.4-1.4
		c2.7-1.1,4.6-2.5,6.4-4.9c1.2-1.6,1.9-2.9,2.6-4.9c0.9,1,1.2,1.2,2.3,2c-1,2.5-1.9,4-3.3,5.6c-2.8,3.2-6.6,5.2-12,6.3
		c-0.8,0.2-1.1,0.2-1.5,0.4L698.3,120.9z M701,105.6c2.3,0.9,4,1.7,5.9,2.9l-1.4,2.4c-2-1.3-4-2.4-5.9-3.1L701,105.6z"/>
	<path d="M722.1,110.7c-0.2-1-0.2-1.2-0.4-1.7l2.6-0.4c0,0.4,0.1,0.9,0.2,1.7l0.3,1.7l6.6-1.1c0.6-0.1,1-0.2,1.5-0.4l1.5,1.4
		c-0.2,0.3-0.3,0.5-0.6,1.1c-1,2.5-2.2,4.1-4.4,5.8c-0.8-0.8-1.1-1.1-2.1-1.6c1.6-1,2.9-2.3,3.8-4c-0.3,0.1-0.3,0.1-0.8,0.2
		l-5.2,0.9l1.6,8.2c0.2,1.2,0.2,1.2,0.4,1.8l-2.8,0.5c0-0.6,0-1.1-0.2-1.8l-1.5-8.3l-1.9,0.3c-0.8,0.1-1.3,0.3-1.9,0.5l-0.5-2.5
		c0.7,0,1.3-0.1,2.1-0.2l1.8-0.3L722.1,110.7z"/>
	<path d="M754.9,107c-0.4,0.3-0.5,0.4-0.8,0.8c-1.7,1.7-3.3,3.2-5.2,4.6v9.4c0,1.2,0,1.9,0.1,2.5h-3.1c0.1-0.6,0.1-1.1,0.1-2.4v-7.8
		c-2.6,1.5-3.8,2.1-7.9,3.6c-0.5-1.2-0.7-1.5-1.5-2.5c4.4-1.2,8.1-3,11.6-5.8c2-1.5,3.5-3.1,4.1-4.1L754.9,107z"/>
	<path d="M757.8,120.6c1.9-0.1,4.5-0.8,6.6-1.6c2.8-1.2,4.8-2.9,6.6-5.4c1-1.4,1.6-2.6,2.3-4.4c0.9,1,1.2,1.4,2.3,2.2
		c-1.9,4.1-4,6.7-7,8.7c-2.3,1.5-5,2.6-8.4,3.3c-0.9,0.2-1,0.2-1.5,0.4L757.8,120.6z M759.7,106.8c2.6,1.6,4,2.7,5.7,4.3l-1.9,2.4
		c-1.8-1.9-3.6-3.3-5.6-4.5L759.7,106.8z"/>
	<path d="M779.1,124c0-0.2,0-0.4-0.1-0.9c-0.4-2.6-0.6-4.7-0.6-7c0-2,0.1-3.9,0.4-5.9c0.1-0.7,0.1-0.7,0.6-3.2
		c0.2-0.8,0.2-1.4,0.2-1.6c0,0,0,0,0-0.1l3,0.3c-0.9,1.9-1.7,7.3-1.8,11.1c0,0.8,0,0.8,0,1.2c0,0.2,0,0.2,0,0.4c0,0.2,0,0.2,0,0.5
		l0,0c0.1-0.2,0.1-0.2,0.3-0.6c0-0.2,0.2-0.4,0.3-0.8c0.2-0.5,0.2-0.5,0.4-1c0-0.1,0.1-0.1,0.3-0.7l1.8,0.8
		c-1.3,2.6-2.2,5.3-2.2,6.8c0,0.2,0,0.2,0,0.6L779.1,124z M784.1,109.5c1,0.3,2.2,0.4,4,0.4c0.8,0,1.3,0,2,0c0-1.3,0-2.4,0-3.3
		c0-0.5,0-0.8-0.1-1.1l2.8-0.1c-0.1,0.6-0.2,1.7-0.2,3.3c0,0.2,0,0.6,0,1c1.2-0.1,2.1-0.3,3-0.5c0.1,0,0.1,0,0.5-0.2h0.2l0.1,2.5
		c-0.2,0-0.2,0-0.6,0.1c-0.8,0.2-1.9,0.4-3.1,0.5c0,0.2,0,0.2,0,0.5c0,1.2,0,1.3,0.2,5c1.6,0.8,2.1,1.1,3.5,2
		c0.3,0.2,0.4,0.3,0.6,0.4l-1.1,2.7c-0.4-0.4-1-1-1.7-1.4c-0.8-0.5-1.3-0.8-1.4-0.9c0,0.1,0,0.2,0,0.3c0,0.5-0.1,0.9-0.2,1.2
		c-0.5,1.3-2.1,2.1-4.2,2.1c-2.9,0-4.7-1.4-4.7-3.6c0-2.1,1.9-3.7,4.6-3.7c0.8,0,1.4,0.1,2,0.3c-0.1-0.6-0.1-1.6-0.2-4.7
		c-0.9,0-1.4,0-2,0c-0.8,0-1.7,0-2.7-0.1c-0.3,0-0.6,0-0.7,0c-0.2,0-0.3,0-0.4,0c-0.1,0-0.2,0-0.2,0H784L784.1,109.5z M788.6,118.8
		c-1.4,0-2.3,0.6-2.3,1.5c0,0.8,0.8,1.4,2,1.4c0.8,0,1.5-0.2,1.8-0.7c0.2-0.3,0.3-0.6,0.3-1.2c0-0.2,0-0.6,0-0.6
		C789.7,118.9,789.3,118.8,788.6,118.8z"/>
	<g>
		<path d="M591.1,161.6c0.2-1.2,0.3-2.6,0.3-4.1v-2.2h-4.8c-1.4,0-2.3,0.1-3.4,0.3v-3.6c1.1,0.2,1.9,0.3,3.4,0.3h4.8v-1l-1.1-1.6
			h-3.7c-1.5,0-2.3,0.1-3.4,0.3v-3.6c1.1,0.2,1.9,0.3,3.4,0.3h1.8l-4.4-7c-0.9-1.4-1.8-2.7-2.2-3.3h5.5c0.3,0.9,0.6,1.6,1.5,3.1
			l4.7,8.1l4.7-8.1c0.9-1.5,1.3-2.3,1.5-3.2h5.5c-0.4,0.5-1.7,2.4-2.3,3.3l-4.4,7h1.8c1.4,0,2.3-0.1,3.4-0.3v3.6
			c-1.1-0.2-2-0.3-3.4-0.3h-3.7l-1.1,1.7v0.9h4.7c1.4,0,2.2-0.1,3.4-0.3v3.6c-1.1-0.2-2-0.3-3.4-0.3h-4.7v2.2c0,1.8,0.1,2.8,0.3,4.1
			H591.1z"/>
		<path d="M617,161.4c0.2-1.2,0.3-2.5,0.3-4.2v-17.6h-1.5c-1.2,0-2.1,0.1-3.3,0.2v-4.1c1,0.2,1.7,0.2,3.2,0.2h2.9
			c1.6,0,2.1,0,3.3-0.2c-0.2,1.9-0.3,3.4-0.3,5.3v16.2c0,1.7,0.1,2.8,0.3,4.2H617z"/>
		<path d="M636.9,161.4c0,2.8-0.7,3.8-3.3,4.8l-1.2-1.7c2-0.5,2.4-1.1,2.4-3.1h-2.7v-4.7h4.7V161.4z"/>
		<path d="M644.7,161.4c-2.5,0-3,0-4.1,0.2c0.2-1.8,0.4-2.9,0.8-4.1c0.9-2.3,2.3-4.4,4.4-6.3c1.1-1,2.1-1.7,5.3-3.9
			c2.9-2,3.8-3.1,3.8-4.7c0-2.2-1.7-3.5-4.4-3.5c-1.9,0-3.3,0.6-4.1,1.9c-0.5,0.8-0.8,1.5-1,2.9l-4.6-0.5c0.4-2.4,1-3.7,2.2-5.1
			c1.6-1.9,4.1-2.8,7.3-2.8c5.6,0,9.1,2.7,9.1,7.1c0,2.1-0.7,3.6-2.3,5.1c-0.9,0.8-1.2,1.1-5.4,3.9c-1.4,1-3,2.3-3.8,3.2
			c-1,1-1.3,1.7-1.8,2.9h9c2,0,3.6-0.1,4.7-0.3v4.2c-1.5-0.1-2.8-0.2-4.8-0.2H644.7z"/>
		<path d="M666.3,159.3c-1-1-1.7-2.1-2.1-3.2c-0.8-2.3-1.2-4.8-1.2-7.4c0-3.4,0.8-6.9,2-8.9c1.7-2.9,4.6-4.4,8.2-4.4
			c2.7,0,5.1,0.9,6.8,2.6c1,1,1.7,2.1,2.1,3.2c0.8,2.2,1.2,4.8,1.2,7.4c0,3.9-0.9,7.4-2.4,9.5c-1.8,2.5-4.4,3.8-7.8,3.8
			C670.3,161.9,668,161,666.3,159.3z M676.5,156.8c1.4-1.5,2.2-4.5,2.2-8.2c0-3.7-0.8-6.6-2.2-8.2c-0.8-0.9-2-1.3-3.5-1.3
			c-1.5,0-2.7,0.5-3.6,1.6c-1.4,1.7-2.1,4.3-2.1,7.8c0,3.4,0.6,6.1,1.6,7.6c1,1.4,2.3,2.1,4.1,2.1
			C674.5,158.2,675.7,157.7,676.5,156.8z"/>
		<path d="M689.1,159.3c-1-1-1.7-2.1-2.1-3.2c-0.8-2.3-1.2-4.8-1.2-7.4c0-3.4,0.8-6.9,2-8.9c1.7-2.9,4.6-4.4,8.2-4.4
			c2.7,0,5.1,0.9,6.8,2.6c1,1,1.7,2.1,2.1,3.2c0.8,2.2,1.2,4.8,1.2,7.4c0,3.9-0.9,7.4-2.4,9.5c-1.8,2.5-4.4,3.8-7.8,3.8
			C693.1,161.9,690.8,161,689.1,159.3z M699.3,156.8c1.4-1.5,2.2-4.5,2.2-8.2c0-3.7-0.8-6.6-2.2-8.2c-0.8-0.9-2-1.3-3.5-1.3
			c-1.5,0-2.7,0.5-3.6,1.6c-1.4,1.7-2.1,4.3-2.1,7.8c0,3.4,0.6,6.1,1.6,7.6c1,1.4,2.3,2.1,4.1,2.1
			C697.3,158.2,698.5,157.7,699.3,156.8z"/>
	</g>
</g>
<g>
	<path class="st2" d="M997.6,90.7c0.2-1.6,0.3-3.4,0.3-5.4v-2.9h-6.3c-1.9,0-3,0.1-4.4,0.3V78c1.5,0.3,2.5,0.3,4.4,0.3h6.3V77
		l-1.4-2.1h-4.9c-1.9,0-3,0.1-4.4,0.3v-4.8c1.4,0.3,2.5,0.3,4.4,0.3h2.4l-5.8-9.2c-1.2-1.9-2.3-3.5-2.9-4.3h7.2
		c0.4,1.2,0.8,2.1,2,4.1l6.2,10.7l6.2-10.6c1.2-2,1.7-3,2-4.2h7.3c-0.5,0.7-2.2,3.1-3,4.3l-5.8,9.2h2.4c1.9,0,3-0.1,4.4-0.3v4.8
		c-1.4-0.3-2.6-0.3-4.4-0.3h-4.9l-1.4,2.2v1.2h6.2c1.9,0,2.9-0.1,4.4-0.3v4.8c-1.4-0.3-2.6-0.3-4.4-0.3h-6.2v2.9
		c0,2.4,0.1,3.7,0.3,5.4H997.6z"/>
	<path class="st2" d="M1031.6,90.4c0.3-1.6,0.3-3.3,0.3-5.5V61.8h-2c-1.6,0-2.8,0.1-4.3,0.3v-5.3c1.3,0.2,2.2,0.3,4.2,0.3h3.9
		c2.1,0,2.8,0,4.3-0.2c-0.3,2.5-0.3,4.4-0.3,6.9V85c0,2.2,0.1,3.7,0.3,5.5H1031.6z"/>
	<path class="st2" d="M1057.8,90.4c0,3.6-0.9,5-4.3,6.3l-1.5-2.2c2.6-0.7,3.2-1.5,3.2-4.1h-3.5v-6.1h6.2V90.4z"/>
	<path class="st2" d="M1072.9,90.4c0.3-1.6,0.3-3.3,0.3-5.5V61.8h-2c-1.6,0-2.8,0.1-4.3,0.3v-5.3c1.3,0.2,2.2,0.3,4.2,0.3h3.9
		c2.1,0,2.8,0,4.3-0.2c-0.3,2.5-0.3,4.4-0.3,6.9V85c0,2.2,0.1,3.7,0.3,5.5H1072.9z"/>
	<path class="st2" d="M1096.4,87.7c-1.3-1.3-2.2-2.7-2.8-4.2c-1.1-3-1.6-6.3-1.6-9.7c0-4.5,1-9.1,2.6-11.6c2.3-3.8,6-5.8,10.7-5.8
		c3.6,0,6.6,1.2,8.9,3.4c1.3,1.3,2.2,2.7,2.8,4.2c1.1,2.9,1.6,6.3,1.6,9.7c0,5.2-1.1,9.7-3.1,12.4c-2.4,3.3-5.8,5-10.2,5
		C1101.6,91.1,1098.6,89.9,1096.4,87.7z M1109.8,84.5c1.9-2,2.9-5.9,2.9-10.8c0-4.9-1-8.7-2.9-10.8c-1-1.1-2.7-1.8-4.6-1.8
		c-2,0-3.5,0.7-4.7,2.1c-1.8,2.2-2.8,5.6-2.8,10.2c0,4.4,0.8,8.1,2.1,10c1.3,1.8,3.1,2.7,5.4,2.7
		C1107.1,86.2,1108.7,85.6,1109.8,84.5z"/>
	<path class="st2" d="M1126.3,87.7c-1.3-1.3-2.2-2.7-2.8-4.2c-1.1-3-1.6-6.3-1.6-9.7c0-4.5,1-9.1,2.6-11.6c2.3-3.8,6-5.8,10.7-5.8
		c3.6,0,6.6,1.2,8.9,3.4c1.3,1.3,2.2,2.7,2.8,4.2c1.1,2.9,1.6,6.3,1.6,9.7c0,5.2-1.1,9.7-3.1,12.4c-2.4,3.3-5.8,5-10.2,5
		C1131.5,91.1,1128.5,89.9,1126.3,87.7z M1139.7,84.5c1.9-2,2.9-5.9,2.9-10.8c0-4.9-1-8.7-2.9-10.8c-1-1.1-2.7-1.8-4.6-1.8
		c-2,0-3.5,0.7-4.7,2.1c-1.8,2.2-2.8,5.6-2.8,10.2c0,4.4,0.8,8.1,2.1,10c1.3,1.8,3.1,2.7,5.4,2.7C1137,86.2,1138.6,85.6,1139.7,84.5
		z"/>
</g>
</svg>
