<?xml version="1.0" encoding="utf-8"?>
<!-- Generator: Adobe Illustrator 22.1.0, SVG Export Plug-In . SVG Version: 6.00 Build 0)  -->
<!DOCTYPE svg PUBLIC "-//W3C//DTD SVG 1.1//EN" "http://www.w3.org/Graphics/SVG/1.1/DTD/svg11.dtd" [
	<!ENTITY st0 "fill-rule:evenodd;clip-rule:evenodd;fill:#5B3D1B;">
	<!ENTITY st1 "fill-rule:evenodd;clip-rule:evenodd;fill:#CA2C1C;">
	<!ENTITY st2 "fill-rule:evenodd;clip-rule:evenodd;fill:url(#SVGID_1_);">
	<!ENTITY st3 "fill-rule:evenodd;clip-rule:evenodd;fill:#E7CF33;">
	<!ENTITY st4 "fill-rule:evenodd;clip-rule:evenodd;fill:url(#SVGID_2_);">
	<!ENTITY st5 "fill:#270706;">
	<!ENTITY st6 "fill:#CA2C1C;">
]>
<svg version="1.1" id="編集モード" xmlns="http://www.w3.org/2000/svg" xmlns:xlink="http://www.w3.org/1999/xlink" x="0px"
	 y="0px" viewBox="0 0 300 65" style="enable-background:new 0 0 300 65;" xml:space="preserve">
<g>
	<g>
		<g>
			<path style="&st0;" d="M25.9,34.3c9.2-2.2,17.4-4.9,21.1-4.8c4.1,0.1,15,13,14.9,14L62,56.6c-5.4,1.3-24.1,5.9-32.6,7.8
				c-2.5,0.6-3.4,0.8-4.6,0.4L1.3,53.6c-1.5-3.8-2.1-10.7,0.2-11.7C4.7,40.4,15.5,36.8,25.9,34.3z"/>
			<path style="&st0;" d="M62.8,4.1c-1.7-2.2-5.4-3.6-8.2-4C54,0,53.3,0,52.5,0c-3.4,0-8.3,0.7-13.5,2c-1,0.2-1.9,0.5-2.8,0.7
				c-5.4,1.3-8.9,2.1-11.7,4.5c-0.1,0.1-0.3,0.3-0.5,0.4c-2.2,1.8-5.5,4.6-5.1,14.8c0.2,5.9,0.2,16.7,0.2,24.8
				c-2.7-0.9-5.3-1.9-7.7-2.9c-3.8-1.5-6.8-2.8-8.6-2.8c-0.6,0-1,0.1-1.4,0.4c-2.6,1.8-1.3,7.6-0.3,9.2c1.2,1.8,17.4,9.2,22.4,11.4
				c0.7,0.3,1.6,0.4,2.7,0.4c3.5,0,9.1-1.3,15-2.7c2-0.5,4.2-1,6.2-1.4l1.9-0.4c7.9-1.7,14.1-3,14.1-8l0-0.9l0,0v-0.6
				c0-1.4,0.1-4.6,0.1-8c0-3.9,0-8.1,0-10.1V7.2C63.7,6.1,63.5,5.1,62.8,4.1z"/>
			<g>
				<g>
					<path style="&st1;" d="M54.5,0.9c-3.2-0.4-9.1,0.4-15.3,1.9c-7.1,1.7-11.1,2.4-14.2,5c-2.1,1.8-5.7,3.9-5.3,14.6
						C20,28.5,20,40,20,48.2c-8.2-2.6-16.2-7-18-5.7c-2,1.4-1.1,6.6-0.1,8.1C3,52.4,23.9,61.7,23.9,61.7c3.3,1.4,13.9-1.7,23.5-3.8
						c8.7-1.9,15.4-3,15.4-7.6l0-1.5l0,0c0-2.9,0.1-14.2,0.1-18.1L63,7.1C63,3.4,57.9,1.3,54.5,0.9z"/>
				</g>
			</g>
			<linearGradient id="SVGID_1_" gradientUnits="userSpaceOnUse" x1="39.7708" y1="33.4024" x2="40.9062" y2="0.889">
				<stop  offset="0.5399" style="stop-color:#CA2C1C"/>
				<stop  offset="1" style="stop-color:#DAA37D"/>
			</linearGradient>
			<path style="&st2;" d="M24.8,32.9c0,0-0.1,0-0.1,0c-1.3-0.3-3.8-2.3-3.8-5.5l0,0c0,0,0-2.1-0.2-5.1c-0.3-9.6,2.8-12.2,4.8-13.9
				C25.7,8.3,25.8,8.2,26,8c2.6-2.2,5.8-3,11-4.2c0.8-0.2,1.7-0.4,2.7-0.6c4.9-1.2,9.5-1.9,12.7-1.9c0.7,0,1.4,0,1.9,0.1
				c2.8,0.5,4.6,1.2,5.7,2.1c1,0.8-1.4,0.7-4.2,0.9c-4.2,0.4-7.9,0.8-12.9,2.1c-1,0.2-1.8,0.4-2.7,0.6c-5,1.2-8.1,1.9-10.4,3.9
				c-0.1,0.1-0.3,0.3-0.5,0.4l-0.3,0.2c-1.9,1.5-3.8,3.1-3.8,12.5c0,0.7,0,1.4,0,2c0,1.5,0,3.2,0,6.1c0,0.2-0.1,0.3-0.2,0.4
				C25,32.8,24.9,32.9,24.8,32.9z"/>
			<path style="&st0;" d="M27,63.6c-0.8,0-1.4-0.6-1.4-1.5V28.2c0-0.9,0.6-1.6,1.4-1.8l35.8-8.5c0.1,0,0.2,0,0.4,0
				c0.8,0,1.4,0.6,1.4,1.5v33.9c0,0.9-0.6,1.7-1.4,1.8l-35.8,8.5C27.2,63.6,27.1,63.6,27,63.6z"/>
			<path style="&st3;" d="M27.1,27.1L63,18.6c0.4-0.1,0.8,0.2,0.8,0.7v33.9c0,0.5-0.4,1-0.8,1.1l-35.8,8.5c-0.4,0.1-0.8-0.2-0.8-0.7
				V28.2C26.3,27.7,26.7,27.2,27.1,27.1z"/>
			<linearGradient id="SVGID_2_" gradientUnits="userSpaceOnUse" x1="43.5168" y1="48.6658" x2="48.6453" y2="16.2856">
				<stop  offset="0.3006" style="stop-color:#EFE792"/>
				<stop  offset="0.8712" style="stop-color:#F5F2C8"/>
			</linearGradient>
			<path style="&st4;" d="M27.1,27.1L63,18.6c0.4-0.1,0.8,0.2,0.8,0.7v30.6c-10.6,2.5-37.4-5-37.4-8.3V28.2
				C26.3,27.7,26.7,27.2,27.1,27.1z"/>
			<path style="&st0;" d="M22.8,40.2c-4.2-1.3-19.7-6-20.4-6.9c0,0-1.3-3-0.3-5c0.9-1,4.2-1.8,6.2-1.8c0,0,7.8,1.8,11.7,3
				c-0.7,1.6,2.8,4.4,3.9,4.6c0,1.5,0,3.3,0,5.6C23.8,39.9,23.5,40.4,22.8,40.2z"/>
			<path style="&st1;" d="M22.2,35c-8.8-2.7-18.9-5.7-19.4-6.2c-0.2-0.2,0.1-0.4,0.5-0.7c1.6-0.6,3.2-1,5-1.1
				c0.8,0.2,7.2,1.8,10.8,2.8c0.4,2.5,2.7,3.9,3.9,4.5C23.6,34.6,22.7,35.1,22.2,35z"/>
		</g>
		<polygon style="&st5;" points="29.7,45 37.1,40.4 39.6,46.8 59.8,19.8 66.4,24.2 37.6,54.2 		"/>
	</g>
	<g>
		<g>
			<g>
				<path style="&st1;" d="M116.2,50.2H98.2l10.6-28.9H93.4l-9.3,25.6c-3.5,9.5,5,9.4,5,9.4h33.8c0,0,8.6,0,8.7-9.4l0.2-13.6h-15.4
					L116.2,50.2z M181.8,30.7l-26.5-0.1l1.9-9.5h-16.5l-5,25.7c-1.8,9.4,6.8,9.4,6.8,9.4H177c1.5,0,3-1.4,3.3-3.1
					c0.4-1.7-0.7-3-2.1-3h-26.6l2.5-13.3h26.6c1.5,0,3-1.4,3.3-3.1C184.2,32,183.3,30.7,181.8,30.7z M232.2,35.4h-12.5l3.1-8.1h11
					c1.5,0,3-1.4,3.3-3.1c0.4-1.6-0.7-3-2.1-3h-42.4c-1.5,0-3,1.4-3.3,3c-0.3,1.7,0.7,3.1,2.2,3.1h15.9l-3.1,8.1H189
					c-1.5,0-3,1.4-3.3,3.1c-0.3,1.7,0.7,3.1,2.2,3.1H202l-5.5,14.6h15.3l5.6-14.6H231c1.5,0,3-1.4,3.4-3.1
					C234.6,36.8,233.7,35.4,232.2,35.4z M285.1,24.4h-26.6l1.7-4.6h-15.4L235,46h15.4l5.9-15.4h9.9l-9.8,25.7l15.3-0.1l9.8-25.6h2.5
					c1.5,0,3-1.4,3.3-3.1C287.6,25.9,286.6,24.4,285.1,24.4z M184.8,16.8h-3.3c-0.9,0-1.8,0.7-1.9,1.5l-1.7,7.7
					c-0.2,0.8,0.4,1.5,1.3,1.5h3.3c0.9,0,1.8-0.6,1.9-1.5l1.7-7.7C186.3,17.4,185.7,16.8,184.8,16.8z M168.7,27.4h3.3
					c0.9,0,1.8-0.6,1.9-1.5l1.7-7.7c0.2-0.8-0.4-1.4-1.3-1.4H171c-0.9,0-1.8,0.7-1.9,1.4l-1.7,7.7C167.2,26.7,167.8,27.4,168.7,27.4
					z"/>
			</g>
		</g>
		<g>
			<path style="&st6;" d="M298.8,25.8c-0.8,0.8-1.8,1.2-2.9,1.2s-2.1-0.4-2.9-1.2c-0.8-0.8-1.2-1.8-1.2-2.9c0-1.1,0.4-2.1,1.2-2.9
				c0.8-0.8,1.8-1.3,2.9-1.3s2.1,0.4,2.9,1.3c0.8,0.8,1.2,1.8,1.2,2.9C300,24,299.6,25,298.8,25.8z M298.4,20.3
				c-0.7-0.7-1.6-1.1-2.6-1.1c-1,0-1.8,0.4-2.6,1.1c-0.7,0.7-1.1,1.6-1.1,2.6c0,1,0.4,1.8,1.1,2.6c0.7,0.7,1.6,1.1,2.6,1.1
				c1,0,1.8-0.4,2.6-1.1c0.7-0.7,1.1-1.6,1.1-2.6C299.5,21.9,299.1,21.1,298.4,20.3z M293.8,20h2.6c0.4,0,0.8,0.1,1.1,0.4
				c0.3,0.4,0.4,0.8,0.4,1.2c0,0.5-0.2,0.9-0.4,1.3c-0.2,0.1-0.4,0.2-0.7,0.3l1.1,2.4h-0.8l-1-2.3h-1.8v2.4h-0.7V20z M294.5,20.6
				v2.1h1.9c0.2,0,0.4-0.1,0.6-0.3c0.2-0.2,0.3-0.5,0.3-0.8c0-0.2-0.1-0.5-0.3-0.7c-0.1-0.2-0.3-0.3-0.6-0.3H294.5z"/>
		</g>
	</g>
</g>
</svg>
