<?xml version="1.0" encoding="utf-8"?>
<!-- Generator: Adobe Illustrator 24.2.1, SVG Export Plug-In . SVG Version: 6.00 Build 0)  -->
<svg version="1.1" id="レイヤー_1" xmlns="http://www.w3.org/2000/svg" xmlns:xlink="http://www.w3.org/1999/xlink" x="0px"
	 y="0px" width="768.9px" height="147.1px" viewBox="0 0 768.9 147.1" style="enable-background:new 0 0 768.9 147.1;"
	 xml:space="preserve">
<style type="text/css">
	.st0{fill-rule:evenodd;clip-rule:evenodd;fill:#E61F10;}
	.st1{fill:#E61F10;}
	.st2{fill:none;stroke:#E61F10;stroke-width:1.1576;stroke-miterlimit:10;}
	.st3{fill:#FCCF00;}
</style>
<g>
	<g>
		<path class="st0" d="M284.7,113.7H236l28.7-78.4H223l-25.4,69.6c-9.6,25.9,13.7,25.6,13.7,25.6H303c0,0,23.4,0,23.6-25.6L327,68
			h-41.7L284.7,113.7z M463,60.8l-72.1-0.2l5.3-25.8h-44.9l-13.7,69.7c-4.9,25.6,18.4,25.6,18.4,25.6h93.9c4.1,0,8.1-3.9,8.9-8.5
			c1-4.5-1.8-8.3-5.7-8.3H381l6.8-36h72.1c4,0,8.1-3.9,9-8.4C469.7,64.5,467.1,60.8,463,60.8 M599.9,73.7h-34l8.3-22h29.9
			c4.1,0,8.2-3.9,9-8.6c1-4.5-1.8-8.3-5.7-8.3H492.3c-4.1,0-8.2,3.7-9,8.3c-0.8,4.6,1.8,8.6,5.9,8.6h43.3l-8.3,22h-41.5
			c-4,0-8.1,3.7-9,8.4c-0.8,4.5,1.8,8.4,5.9,8.4h38.4l-15,39.7h41.6l15.2-39.7h37c4.1,0,8.2-3.9,9.2-8.4
			C606.6,77.4,604,73.7,599.9,73.7 M743.8,43.8h-72.2l4.6-12.4h-41.7l-27,71.2h41.7l15.9-41.9h26.9l-26.5,69.7l41.6-0.1l26.6-69.6
			h6.7c4.1,0,8.2-3.7,9-8.4C750.5,47.7,747.9,43.8,743.8,43.8 M471.2,23h-8.9c-2.4,0-4.8,1.8-5.3,3.9l-4.5,20.9
			c-0.5,2.2,1.1,3.9,3.5,3.9h8.9c2.4,0,4.8-1.8,5.3-3.9l4.5-20.9C475.2,24.8,473.6,23,471.2,23 M427.4,51.8h8.9
			c2.4,0,4.8-1.8,5.3-3.9l4.5-20.9c0.5-2.2-1.1-3.9-3.6-3.9h-8.9c-2.4,0-4.8,1.8-5.3,3.9l-4.5,20.9
			C423.3,50.1,424.9,51.8,427.4,51.8"/>
		<path class="st1" d="M764.1,45.8h-1.2l-0.8-2.3c-0.1-0.2-0.2-0.4-0.3-0.5c-0.1-0.2-0.3-0.3-0.4-0.4c-0.2-0.1-0.3-0.2-0.5-0.3
			c-0.2-0.1-0.4-0.1-0.6-0.1h-2.1v3.7h-1.1v-8.6h3.8c0.2,0,0.5,0,0.7,0c0.2,0,0.4,0,0.6,0.1c0.2,0,0.4,0.1,0.5,0.2
			c0.2,0.1,0.3,0.2,0.5,0.3c0.1,0.1,0.2,0.2,0.4,0.4c0.1,0.1,0.2,0.3,0.2,0.5c0.1,0.2,0.1,0.3,0.2,0.5c0,0.2,0.1,0.3,0.1,0.5
			c0,0.3,0,0.6-0.1,0.8c-0.1,0.2-0.2,0.5-0.4,0.7c-0.2,0.2-0.4,0.4-0.6,0.5c-0.2,0.1-0.5,0.2-0.8,0.3c0.3,0.1,0.6,0.3,0.8,0.5
			c0.2,0.3,0.4,0.6,0.6,1L764.1,45.8z M758.1,41.1h2.6c0.4,0,0.7,0,0.9-0.1c0.3-0.1,0.5-0.1,0.6-0.3c0.2-0.1,0.3-0.3,0.4-0.5
			c0.1-0.2,0.1-0.4,0.1-0.7c0-0.5-0.1-0.9-0.5-1.1c-0.3-0.2-0.8-0.4-1.4-0.4h-2.7V41.1z"/>
		<path class="st2" d="M768.3,41.5c0,4.3-3.5,7.7-7.7,7.7c-4.3,0-7.8-3.5-7.8-7.7c0-4.3,3.5-7.7,7.8-7.7
			C764.8,33.8,768.3,37.2,768.3,41.5z"/>
	</g>
	<g>
		<path class="st1" d="M53.9,85.9V9.1c0-2.4-2.9-3.5-4.5-1.9L2.1,54.5C0.8,55.9,0,57.7,0,59.6v80.2c0,4,3.2,7.2,7.2,7.2h80.2
			c1.9,0,3.8-0.8,5.1-2.1l47.3-47.3c1.7-1.7,0.5-4.5-1.9-4.5H61.2C57.2,93.2,53.9,89.9,53.9,85.9"/>
		<path class="st3" d="M96.4,70.7L96.4,70.7c-1.9,0-3.8-0.8-5.1-2.1L72.7,50c-2.7-2.7-3.2-7.1-0.8-10c2.8-3.4,7.8-3.6,10.8-0.6
			L93,49.7c1.9,1.9,5,1.9,6.9,0L146,2.3c2.7-2.7,7.1-3.2,10-0.8c3.4,2.8,3.6,7.8,0.6,10.8l-55,56.3C100.2,69.9,98.3,70.7,96.4,70.7"
			/>
	</g>
</g>
</svg>
