<?xml version="1.0" encoding="utf-8"?>
<!-- Generator: Adobe Illustrator 23.0.4, SVG Export Plug-In . SVG Version: 6.00 Build 0)  -->
<svg version="1.1" id="レイヤー_1" xmlns="http://www.w3.org/2000/svg" xmlns:xlink="http://www.w3.org/1999/xlink" x="0px"
	 y="0px" width="1147.6px" height="182.8px" viewBox="0 0 1147.6 182.8" style="enable-background:new 0 0 1147.6 182.8;"
	 xml:space="preserve">
<style type="text/css">
	.st0{fill:none;stroke:#C7C7C7;stroke-width:2.818;stroke-miterlimit:10;}
	.st1{enable-background:new    ;}
	.st2{fill:#0071D0;}
	.st3{fill:#FFFFFF;}
</style>
<g>
	<rect x="1.4" y="1.4" class="st0" width="355" height="180"/>
	<g class="st1">
		<path d="M120.3,38c-0.7,0-1.4,0-2,0.1v-1.5c-0.4,0.4-0.6,0.6-1.3,1.1c-0.5-1.6-0.8-2.1-1.4-3.1c1.1-0.8,2.2-1.8,3.1-3
			c0.9-1.1,1.3-1.9,2-3.6h3.4c0.9,2,1.6,3,3.3,4.5v-1.7c0-1.1,0-1.5-0.1-2.2c0.7,0.1,1.3,0.1,2.5,0.1h3.9c1.1,0,2-0.1,2.8-0.2v3.1
			c-0.7-0.1-1.2-0.1-2.2-0.1V33c1.1,0,1.2,0,1.7-0.1c-0.1,0.5-0.1,0.8-0.1,1.7v1.1c1.5-2.3,2.7-5.5,2.8-8.1l3.2,0.7
			c-0.2,0.7-0.2,0.7-0.6,2c-0.1,0.4-0.2,0.5-0.4,1.3h1.9c1.2,0,1.9,0,2.7-0.2v3.4c-0.9-0.1-1.6-0.2-2.6-0.2h-3
			c-0.5,1.3-0.9,2-1.8,3.5c-0.7-0.9-1.4-1.4-2.3-1.9v1.2c0,0.9,0,1.3,0.1,1.8c-0.6,0-0.9-0.1-1.7-0.1v2c1.2,0,1.6,0,2.2-0.1v2.8
			c-0.6-0.1-1.1-0.1-2.2-0.1h-4.7c-1.1,0-1.6,0-2.3,0.1c0.1-0.7,0.1-1.2,0.1-2.3v-8.2c-0.6,0.9-0.9,1.2-1.4,2v2.7
			c-0.7-0.1-1.3-0.1-2-0.1h-0.5v2.3h0.4c1.3,0,2,0,2.6-0.1v3.2c-0.6-0.1-1.3-0.1-2.6-0.1h-0.4v8.4c1.3-0.4,1.7-0.4,3.3-0.9l0.1,2.2
			c0.4,0.1,0.8,0.1,1.3,0.1h0.3v-5.4c0-1.2,0-1.7-0.1-2.5c0.7,0.1,1.4,0.1,2.7,0.1h10.4c1.3,0,1.9,0,2.7-0.1
			c-0.1,0.7-0.1,1.4-0.1,2.5V53h0.5c0.5,0,0.9,0,1.3-0.1v3.4c-1.1-0.1-2.3-0.2-3.6-0.2h-11.9c-1.3,0-2.5,0.1-3.5,0.2v-2.6
			c-3.2,1-3.2,1-6.6,1.9c-1.9,0.5-2.5,0.6-3.2,0.9l-0.5-3.4c0.7,0,2.1-0.3,4.3-0.7v-9.1h-1.2c-1.1,0-2.2,0.1-3,0.2v-3.3
			c0.8,0.1,1.9,0.2,3,0.2h1.2V38H120.3z M117.6,51.5c-0.2-2.3-0.6-4-1.2-6.1l2.5-0.8c0.7,2.5,1,4.2,1.2,6.1L117.6,51.5z M124.2,35.2
			c0.7,0,1.1,0,1.5,0c-1.3-1.2-2-2.3-3.2-4.4c-0.8,1.6-1.6,2.9-2.9,4.5c0.3,0,0.4,0,0.7,0H124.2z M124.1,49.6
			c0.5-2.1,0.7-2.8,0.8-5.2l2.3,0.5c-0.2,2-0.4,2.7-1,5.2L124.1,49.6z M132,33v-1.7h-1.8V33H132z M133.4,37v-1.7h-3.1V37H133.4z
			 M130.3,39.2v2h1.8v-2H130.3z M131.3,53h1.6v-4.9h-1.6V53z M135.4,53h1.5v-4.9h-1.5V53z M137.7,39.1c0.6,0.1,1.1,0.1,2.1,0.1h2.6
			c1.3,0,1.9,0,2.6-0.1v3.3c-0.7-0.1-1.5-0.1-2.5-0.1h-2.6c-1,0-1.7,0-2.2,0.1V39.1z M139.5,53h1.6v-4.9h-1.6V53z"/>
		<path d="M155.3,52.5c-1.4,0-2.3,0-3.4,0.1c0.1-0.8,0.1-1.8,0.1-3.3v-5.1c0-1.3,0-2.2-0.1-3.2c1,0.1,1.6,0.1,3.6,0.1h14.9
			c1.8,0,2.6,0,3.6-0.1c-0.1,1-0.1,1.8-0.1,3.2v5.1c0,1.8,0,2.7,0.1,3.3c-1-0.1-1.9-0.1-3.1-0.1h-1.8c2.4,1.1,4.6,1.6,8.6,2
			c-0.7,0.9-1.2,1.8-1.6,2.9c-2.5-0.3-3.6-0.5-5.5-1.2c-2-0.6-3-1-5.1-2.1l1.7-1.6h-8.7l1.9,1.6c-3.6,1.7-5.8,2.3-10.3,2.9
			c-0.5-1.2-0.9-1.9-1.9-3c3.8-0.2,6.6-0.7,8.6-1.5H155.3z M161,29.6c0-0.9,0-1.6-0.2-2.3h3.8c-0.1,0.7-0.2,1.4-0.2,2.3v1.2h3.4
			c0.9-1.2,1.3-1.9,2-3.3l3.2,1.2c-0.8,1.2-1.1,1.5-1.6,2.1h2.2c1.3,0,2.4,0,3.1-0.1c-0.1,1-0.1,1.7-0.1,2.9v1.7
			c0,0.8,0,1.4,0.1,2.1h-3.3v-3.9h-21.2v3.9H149c0.1-0.8,0.1-1.4,0.1-2.2v-1.8c0-1.1,0-1.7-0.1-2.7c1,0.1,1.8,0.1,3.3,0.1h2
			c-0.5-0.8-0.8-1.1-1.7-2l3.1-1.1c0.9,1,1.2,1.5,2.1,3.1h3.2V29.6z M171.6,38.2c0,0.8,0,1.3,0.1,2.1c-0.9-0.1-1.4-0.1-2.9-0.1
			h-11.8c-1.1,0-1.9,0-2.9,0.1c0.1-0.7,0.1-1.2,0.1-2v-2c0-1,0-1.5-0.1-2c1,0.1,1.8,0.1,3.1,0.1h11.5c1.2,0,2.2,0,3.1-0.1
			c-0.1,0.7-0.1,1.2-0.1,2V38.2z M155.3,44.4h15.1v-1h-15.1V44.4z M155.3,47.3h15.1v-1.1h-15.1V47.3z M155.3,50.4h15.1v-1.1h-15.1
			V50.4z M157.3,36.5V38h11.1v-1.5H157.3z"/>
		<path d="M192.6,48.2c-0.2,0.4-0.2,0.6-0.4,1.1c-1.3-1.5-2.2-2.8-3.2-4.5c0.2,2.2,0.2,2.6,0.2,3.6v5.3c0,1.5,0,2.4,0.2,3.3h-3.7
			c0.2-1,0.2-2,0.2-3.4v-4.1c0-1.3,0.1-2.8,0.1-3.8c-1.4,3.5-2.5,5.3-4.2,7.2c-0.4-1.2-0.9-2.4-1.6-3.3c1.3-1.4,2.4-2.8,3.5-4.7
			c0.7-1.2,0.8-1.5,1.7-3.6h-1.7c-1.4,0-2.1,0-2.9,0.2V38c0.7,0.1,1.4,0.2,2.9,0.2h2.1v-7.6c0-1.4,0-2.4-0.2-3.1h3.6
			c-0.1,0.8-0.2,1.6-0.2,3.1v7.6h1.5c1.2,0,1.8,0,2.5-0.1v3.3c-0.8-0.1-1.4-0.1-2.5-0.1h-1.2c1.2,2,2.4,3.5,4.1,4.9
			c-0.4,0.8-0.6,1.1-0.9,1.8c0.7,0,1.9-0.2,2.9-0.4l7.5-1.7V31.2c0-1.9,0-2.7-0.2-3.7h3.9c-0.2,1.1-0.2,1.9-0.2,3.7v13.9
			c1.3-0.3,1.9-0.5,2.7-0.8l0.7,3.6c-0.9,0.1-1.8,0.3-3.1,0.6l-0.3,0.1v4.7c0,1.8,0,2.8,0.2,3.8H203c0.2-1.1,0.2-1.9,0.2-3.8v-3.9
			l-6.8,1.5c-1.4,0.3-2.3,0.6-3,0.8L192.6,48.2z M183.4,29.2c1,2.8,1.5,4.5,2,6.9l-2.7,1.2c-0.5-2.9-1.1-4.9-2-6.8L183.4,29.2z
			 M194.4,30.3c-0.8,2.9-1.2,4.1-2.6,6.9l-2.3-1.2c1-2.1,1.6-3.8,2.2-6.9L194.4,30.3z M196,37.6c2.5,1.7,3.9,2.9,5.6,4.7l-2.2,2.6
			c-2.2-2.4-3.3-3.4-5.6-4.9L196,37.6z M197,29.6c2.8,1.9,3.8,2.8,5.6,4.7l-2.2,2.7c-2.4-2.5-2.5-2.7-5.7-4.9L197,29.6z"/>
		<path d="M222,39.2c-1.3,0-2.2,0-3.1,0.2v-1.5c-1.8,1.1-3.1,1.8-5.2,2.6c-0.8-1.7-1-2.1-1.9-3.3c6-2.1,10.8-5.5,13.1-9.4h4
			c1.3,1.9,2.7,3.3,4.9,4.9c2.6,2,5,3.2,8.5,4.3c-0.8,1.2-1.2,2.2-1.7,3.5c-2.5-1.1-3.6-1.6-5.6-2.8v1.6c-0.9-0.1-1.8-0.2-3.1-0.2
			h-3.3v3.1h8.1c1.7,0,2.7-0.1,3.5-0.2v3.6c-0.9-0.1-2-0.2-3.5-0.2h-8.1v7.2h8.7c1.6,0,2.7-0.1,3.8-0.2v3.7
			c-1.2-0.2-2.5-0.2-3.8-0.2h-20.2c-1.5,0-2.6,0.1-4,0.2v-3.7c1.2,0.1,2.3,0.2,4,0.2h8v-7.2h-7.6c-1.4,0-2.5,0.1-3.5,0.2v-3.6
			c0.9,0.1,1.9,0.2,3.5,0.2h7.6v-3.1H222z M219.7,45.8c1.1,1.9,1.7,3.1,2.6,5.3l-3.2,1.3c-0.7-2-1.5-3.7-2.5-5.3L219.7,45.8z
			 M221.9,36.2l9.9,0c0.3,0,0.3,0,0.8,0c-2.5-1.8-4.1-3.3-5.8-5.4c-1.6,2.2-2.9,3.5-5.6,5.4H221.9z M237.2,47.1
			c-0.4,0.7-0.4,0.7-1.6,3.1c-0.1,0.2-0.2,0.4-1.3,2.3l-3-1.1c1-1.6,1.8-3.3,2.5-5.5L237.2,47.1z"/>
	</g>
	<g class="st1">
		<path d="M52.9,97.8c-1.6-2.2-2.3-3.5-3.1-5.5c-1-2.6-1.5-5-1.5-7.7c0-2.6,0.4-5,1.4-7.5c0.8-2,1.5-3.3,3.1-5.5h3.9
			c-2,2.5-2.8,3.7-3.6,5.6c-1,2.3-1.5,4.7-1.5,7.4c0,2.8,0.5,5.3,1.5,7.7c0.8,1.8,1.6,3.1,3.6,5.6H52.9z"/>
	</g>
	<g class="st1">
		<path d="M84.7,73.4c-0.3,0.6-0.3,0.7-0.7,2c-2.1,7-3.8,11.6-5.5,16c4.4-0.3,9.2-0.9,11.6-1.4c-0.3-0.7-0.6-1.3-1.3-2.5
			c-1.2-2.3-1.7-3.1-2.7-4.5l3.2-1.2c2.6,3.8,5.1,8.5,6.8,13l-3.4,1.8c-0.4-1.1-0.4-1.1-1.3-3.5c-0.4,0.1-0.4,0.1-1,0.2
			c-2.8,0.6-7.5,1.2-15.8,2c-1.6,0.1-2,0.2-2.5,0.3l-0.5-3.8c0.4,0,0.4,0,0.7,0c0.6,0,1.2,0,2.4-0.1c1.5-3.5,2.6-6.7,4.1-11.3
			c1.3-4.1,1.8-6.1,2-7.8L84.7,73.4z"/>
	</g>
	<g class="st1">
		<path d="M102.6,81.9c4.2-0.8,10.4-3.3,12.2-5L117,80c-0.2,0.1-1,0.5-2.5,1.2c-3.8,1.8-7.7,3.1-12,3.9v3.7c0,0.1,0,0.3,0,0.4
			c0,1.6,0.1,2.3,0.5,2.7c0.5,0.5,2.1,0.7,4.8,0.7c1.9,0,4.5-0.2,6.5-0.4c1.3-0.2,2-0.3,3.2-0.7l0.2,3.7c-0.6,0-0.7,0-3.7,0.3
			c-1.7,0.2-5.2,0.3-6.9,0.3c-3.5,0-5.5-0.4-6.6-1.2c-0.8-0.6-1.2-1.5-1.4-2.9c-0.1-0.5-0.1-1-0.1-2.6l0-13c0-1.4,0-1.9-0.1-2.6h3.8
			c-0.1,0.7-0.1,1.2-0.1,2.6V81.9z M115.9,72.3c1.1,1.3,1.9,2.4,2.8,4.3l-2,0.9c-0.9-1.8-1.6-2.9-2.8-4.3L115.9,72.3z M120.1,75.9
			c-0.8-1.5-1.6-2.9-2.7-4.2l1.9-0.9c1.2,1.4,2,2.5,2.7,4.1L120.1,75.9z"/>
	</g>
	<g class="st1">
		<path d="M145.2,75.4c-0.3,0.1-0.3,0.1-2.4,0.8c-1.6,0.5-2.5,0.7-4.7,1.1c0,3.8,0,3.8-0.1,4.7h5.9c1.9,0,2.4,0,3.4-0.2v3.4
			c-1-0.1-1.6-0.1-3.4-0.1h-6.2c-0.3,2.6-0.9,4.5-1.9,6.1c-1,1.6-2.6,3.2-4.6,4.5c-0.8,0.5-1.3,0.8-2.6,1.4c-0.8-1.4-1.3-2-2.4-3
			c2-0.7,3.1-1.3,4.3-2.4c1.7-1.3,2.7-2.9,3.2-4.8c0.1-0.5,0.2-1,0.3-1.9h-6.9c-1.8,0-2.3,0-3.4,0.1v-3.4c1,0.2,1.5,0.2,3.4,0.2h7.2
			c0.1-1.2,0.1-2.3,0.1-4.2c-2.3,0.3-3.1,0.4-7.8,0.6c-0.3-1.3-0.4-1.7-1-3c0.9,0.1,1.3,0.1,1.7,0.1c3.8,0,8.5-0.6,12-1.6
			c1.6-0.5,2.4-0.8,3.4-1.3L145.2,75.4z"/>
	</g>
	<g class="st1">
		<path d="M166.6,80.5c0,0.3,0,0.3-0.1,0.7c-0.4,4.8-1.4,7.7-3.6,10.4c-1.8,2.1-3.8,3.5-7.3,5.1c-0.7-1.4-1.1-2-2.3-3.1
			c2.4-0.8,4-1.8,5.7-3.2c2.5-2.3,3.7-5.2,4-9.9h-6.7c-1.6,2.6-2.6,3.8-4.6,5.7c-1.1-1.1-1.5-1.5-2.9-2.2c2.6-2.1,4.4-4.5,5.9-7.7
			c0.8-1.7,1.2-2.8,1.4-4l3.6,0.9c-0.2,0.4-0.2,0.4-1.1,2.4c-0.2,0.5-0.5,1.1-0.8,1.8c0.8,0,0.8,0,12.2,0c2,0,2.4,0,3.5-0.2v3.4
			c-0.7-0.1-0.7-0.1-1.7-0.1c-0.4,0-1,0-1.8,0H166.6z"/>
	</g>
	<g class="st1">
		<path d="M184,81.4c0.6-0.9,0.9-1.5,1.4-2.5h-3.9c-1.4,0-2.2,0-3.1,0.1v-3c0.8,0.1,1.6,0.2,3.1,0.2h0.4c-0.5-1-1.1-1.9-2-3.1
			l2.9-0.9c0.9,1.3,1.6,2.5,2.2,4h1.5c0.4-1.4,0.9-3.6,0.9-4.6c0-0.1,0-0.1,0-0.2l3.4,0.4c-0.1,0.4-0.2,1-0.4,1.6
			c-0.2,0.8-0.5,1.8-0.8,2.8h2.8c1.2-1.5,1.8-2.5,2.5-4.1l3.2,0.9c-1.4,2.2-1.6,2.4-2.3,3.2h1.3c1.6,0,2.3,0,3.1-0.2v3
			c-0.9-0.1-1.8-0.1-3.1-0.1h-4.1c0.6,1.2,0.8,1.5,1.3,2.5h4.4c1.7,0,2.3,0,3.2-0.2v3c-0.9-0.1-1.8-0.1-3.2-0.1h-2.2
			c1.8,1.8,3.4,2.8,6.2,3.8c-0.9,1-1.2,1.5-1.8,3c-2-1.1-2.7-1.6-4.3-2.9c-0.2,3.8-0.5,6.1-0.9,7.3c-0.5,1.4-1.5,1.8-4.2,1.8
			c-0.6,0-1.2,0-2.4-0.1c-0.2-1.5-0.3-2-0.7-3c1.4,0.2,2.4,0.3,3.3,0.3c0.7,0,1.1-0.2,1.2-0.6c0.3-0.8,0.4-1.9,0.6-4.6h-4.5
			c-0.5,2.3-1.1,3.6-2.4,5c-1.6,1.7-3.7,2.9-6.6,3.6c-0.5-1.3-0.9-1.9-1.7-2.8c1.7-0.4,2.5-0.6,3.5-1.1c1.7-0.8,2.7-1.7,3.4-3
			c0.3-0.5,0.4-0.8,0.6-1.7h-0.8c-1.3,0-2.1,0.1-3,0.2v-1.4c-1.4,1.2-2.3,1.8-4.1,2.8c-0.4-1-0.9-1.7-1.9-2.5c2.9-1.3,4.2-2.2,5.9-4
			h-2.1c-1.5,0-2.2,0-3.1,0.1v-3c0.8,0.1,1.6,0.2,3.1,0.2H184z M185.5,84.1c-0.7,0.9-1.3,1.5-2.1,2.4c0.4,0,0.5,0,0.9,0h9.2
			c0.5,0,0.7,0,1.2,0c-0.8-0.8-1.3-1.4-2-2.4H185.5z M191.2,81.4c-0.5-0.9-0.6-1.3-1.1-2.5h-1.5c-0.4,0.9-0.7,1.5-1.2,2.5H191.2z"/>
	</g>
	<g class="st1">
		<path d="M209.9,76.5c-1.8,0.4-2.4,0.4-4.1,0.7c-0.2-1-0.5-1.6-1-2.7c4.6-0.5,9-1.6,10.8-2.7l1.8,2.6c-2,0.7-3.3,1.1-4.5,1.4v3.6
			h2.2c1,0,1.7,0,2.4-0.1v3.1c-0.7-0.1-1.4-0.1-2.4-0.1h-2c1.1,2,2.4,3.6,4.5,5.2c-0.6,0.8-1.1,1.8-1.5,2.7
			c-1.7-1.7-2.3-2.5-3.3-4.5c0.1,1,0.1,2.1,0.1,3.5v4.9c0,1.8,0,2.6,0.2,3.6h-3.3c0.1-1,0.2-2,0.2-3.6v-4.7c0-1.1,0.1-2.4,0.1-3.4
			c-0.8,2-1.2,2.8-1.9,3.9c-0.8,1.2-1.4,2-2.4,3.1c-0.6-1.3-1-2.1-1.6-2.9c1.2-1.1,2.1-2.2,3.1-3.8c0.7-1.2,1.8-3.2,2.2-4.2h-2
			c-1.1,0-1.8,0.1-2.6,0.2v-3.1c0.7,0.1,1.4,0.2,2.6,0.2h2.5V76.5z M222.3,73.8c-0.1,0.9-0.2,1.7-0.2,3.4v10.6c0,1.8,0,2.5,0.1,3.3
			h-3.3c0.1-0.8,0.1-1.4,0.1-3.3V77.2c0-1.6,0-2.4-0.2-3.4H222.3z M228.9,72.2c-0.1,1.1-0.2,2.2-0.2,3.8v18c0,1.5-0.4,2.3-1.3,2.8
			c-0.7,0.4-1.6,0.5-3.9,0.5c-0.7,0-1.1,0-2.1-0.1c-0.2-1.3-0.4-1.9-1-3.1c1.6,0.2,2.7,0.3,3.7,0.3c1.2,0,1.4-0.1,1.4-0.8V76
			c0-1.4-0.1-2.6-0.2-3.8H228.9z"/>
	</g>
	<g class="st1">
		<path d="M236.6,88.8c-0.4,3.7-1.2,6.4-2.9,8.8c-1.2-1.1-1.6-1.4-2.7-2.2c1-1.5,1.7-2.9,2-4.7c0.3-1.3,0.5-2.8,0.6-4.3
			c0.1-2.4,0.3-6.3,0.3-9.6c0-2,0-2.9-0.1-4.1c1,0.1,1.7,0.1,3.2,0.1h15.7c1.6,0,2.4,0,3.2-0.1c-0.1,1-0.1,1.7-0.1,3.2v18.4
			c0,2.3-0.8,2.9-4,2.9c-0.9,0-2.3-0.1-3.1-0.1c-0.1-1.1-0.3-1.7-0.8-2.9c1.4,0.1,2.6,0.2,3.5,0.2c1.1,0,1.4-0.1,1.4-0.7v-4.9H246
			v4.6c0,1.6,0,2.5,0.1,3.3h-3.3c0.1-0.8,0.2-1.7,0.2-3.3v-4.6H236.6z M243,82.2h-6.2c0,0.8,0,1.4,0,1.8c0,1.3,0,1.5,0,2.1h6.2V82.2
			z M243,75.8h-6.1v2.9l0,0.8h6.1V75.8z M252.7,79.4v-3.7H246v3.7H252.7z M252.7,86v-3.8H246V86H252.7z"/>
	</g>
	<g class="st1">
		<path d="M260.4,76.1c0-1.3,0-2-0.1-2.8c0.6,0.1,1.1,0.1,2.5,0.1h3.4c1.3,0,1.8,0,2.4-0.1c-0.1,0.6-0.1,1.1-0.1,2.8v16
			c0,1.5,0,2.1,0.1,2.8h-2.9v-1.4h-2.5v2.4h-2.9c0.1-0.9,0.2-1.8,0.2-3.3V76.1z M263.2,81.8h2.5V76h-2.5V81.8z M263.2,90.7h2.5v-6.3
			h-2.5V90.7z M272.9,77.5c-2.3,0.1-2.3,0.1-3,0.1v-3c0.8,0.1,1.7,0.2,2.9,0.2h2.5v-0.8c0-0.8-0.1-1.4-0.2-2.1h3.2
			c-0.1,0.6-0.1,1.2-0.1,2.1v0.8h3.1c1.2,0,2.1-0.1,2.9-0.2v3c-0.8-0.1-1.6-0.1-2.9-0.1h-3.1v2.7h3.9c1.3,0,2.4-0.1,3.1-0.2v3
			c-0.8-0.1-1.5-0.1-2.7-0.1h-0.5v2.4h0.4c1.3,0,2.1,0,2.8-0.1v3.1c-0.8-0.1-1.5-0.2-2.8-0.2h-0.4v6.3c0,1.6-0.3,2.3-1.1,2.7
			c-0.7,0.3-1.7,0.4-3.1,0.4c-0.3,0-0.3,0-2.2,0c-0.1-1.2-0.3-2-0.7-2.9c0.7,0.1,2.2,0.2,3.1,0.2c0.9,0,1-0.1,1-0.8v-6h-6.7
			c-1,0-2.1,0.1-3,0.2V85c0.7,0.1,1.6,0.1,3.1,0.1h6.6v-2.4h-6.6c-1.2,0-2.2,0.1-3.1,0.1v-3c0.7,0.1,1.8,0.2,3.1,0.2h2.9v-2.7H272.9
			z M274,94.4c-1.1-1.9-2.2-3.2-3.6-4.6l2.4-1.6c1.4,1.2,2.5,2.5,3.7,4.3L274,94.4z"/>
	</g>
	<g class="st1">
		<path d="M287,97.8c2-2.5,2.8-3.7,3.6-5.6c1-2.3,1.5-4.8,1.5-7.7c0-2.8-0.4-5.1-1.4-7.4c-0.8-1.8-1.6-3.1-3.6-5.6h3.9
			c1.6,2.2,2.2,3.4,3.1,5.5c1,2.5,1.4,4.8,1.4,7.5c0,2.7-0.5,5.2-1.5,7.7c-0.8,2-1.5,3.3-3.1,5.5H287z"/>
	</g>
	<g class="st1">
		<path d="M165.1,149.8c0.2-1.2,0.3-2.5,0.3-4.1v-2.2h-4.8c-1.4,0-2.3,0.1-3.4,0.3v-3.6c1.1,0.2,1.9,0.3,3.4,0.3h4.8v-1l-1.1-1.6
			h-3.7c-1.5,0-2.3,0.1-3.4,0.3v-3.6c1.1,0.2,1.9,0.3,3.4,0.3h1.8l-4.4-7c-0.9-1.4-1.8-2.7-2.2-3.3h5.5c0.3,0.9,0.6,1.6,1.5,3.1
			l4.7,8.1l4.7-8.1c0.9-1.5,1.3-2.3,1.5-3.2h5.5c-0.4,0.5-1.7,2.4-2.3,3.3l-4.4,7h1.8c1.4,0,2.3-0.1,3.4-0.3v3.6
			c-1.1-0.2-2-0.3-3.4-0.3h-3.7l-1.1,1.7v0.9h4.7c1.4,0,2.2-0.1,3.4-0.3v3.6c-1.1-0.2-2-0.3-3.4-0.3h-4.7v2.2c0,1.8,0.1,2.8,0.3,4.1
			H165.1z"/>
		<path d="M184.4,147.7c-1-1-1.7-2.1-2.1-3.2c-0.8-2.3-1.2-4.8-1.2-7.4c0-3.4,0.8-6.9,2-8.9c1.7-2.9,4.6-4.4,8.2-4.4
			c2.7,0,5.1,0.9,6.8,2.6c1,1,1.7,2.1,2.1,3.2c0.8,2.2,1.2,4.8,1.2,7.4c0,3.9-0.9,7.4-2.4,9.5c-1.8,2.5-4.4,3.8-7.8,3.8
			C188.4,150.3,186.1,149.4,184.4,147.7z M194.6,145.3c1.4-1.5,2.2-4.5,2.2-8.2c0-3.7-0.8-6.6-2.2-8.2c-0.8-0.9-2-1.3-3.5-1.3
			c-1.5,0-2.7,0.5-3.6,1.6c-1.4,1.7-2.1,4.3-2.1,7.8c0,3.4,0.6,6.1,1.6,7.6c1,1.4,2.3,2.1,4.1,2.1
			C192.6,146.6,193.8,146.1,194.6,145.3z"/>
	</g>
</g>
<g>
	<rect x="470" y="1.4" class="st0" width="355" height="180"/>
	<g class="st1">
		<path d="M569.1,43.1c-1.2-0.2-1.9-0.2-3.2-0.2h-1.2v2.3c0,1.6,0.1,2.5,0.3,3.6h-4.5c0.2-1.1,0.3-2.1,0.3-3.7v-2.2h-8.9
			c-1.9,0-2.9,0-4,0.1v-3.9c1.1-1.2,1.4-1.6,2.6-2.9l7.6-9.3c1.4-1.7,1.9-2.4,2.7-3.5h4.3c-0.2,1.9-0.2,3-0.2,5.4v10.5h1.1
			c1.3,0,2-0.1,3.2-0.2V43.1z M560.7,32.7c0-1.5,0-2.5,0.2-3.8c-0.6,0.9-1,1.4-2.2,2.8l-6.1,7.6h8.2V32.7z"/>
	</g>
	<g class="st1">
		<path d="M572.4,27.4c0-1.8-0.1-2.8-0.3-4.2c1.3,0.1,2,0.1,4.1,0.1h5.8c4,0,6.6,0.8,8.6,2.8c2.3,2.2,3.6,5.5,3.6,9.7
			c0,4.4-1.3,7.8-3.8,10.2c-2,1.9-4.6,2.8-8.4,2.8h-5.8c-2,0-2.8,0-4.1,0.1c0.2-1.3,0.3-2.3,0.3-4.2V27.4z M581.8,45
			c2.6,0,4.3-0.6,5.7-2c1.5-1.6,2.3-4.1,2.3-7.1c0-3-0.7-5.3-2.2-6.8c-1.3-1.4-3-1.9-5.8-1.9h-5.1V45H581.8z"/>
	</g>
	<g class="st1">
		<path d="M613.7,48.8c-0.6-1.2-1.3-2.3-2.1-3.6l-4.5-6.8l-4.5,6.8c-0.8,1.2-1.6,2.5-2.1,3.6h-5.8c1.9-2.4,2.3-3,3-3.9l6.8-9.5
			l-5.9-8.3c-0.9-1.2-1.8-2.5-2.8-3.7h5.7c0.4,1,1.2,2.3,2,3.6l3.6,5.4l3.6-5.4c1.2-1.9,1.6-2.5,2-3.6h5.7c-0.9,1.1-1.8,2.3-2.8,3.7
			l-5.9,8.3l6.8,9.5c0.7,1.1,1.5,2,3.1,4H613.7z"/>
		<path d="M625.4,32.1c-0.7,0-1.4,0-2,0.1v-1.5c-0.4,0.4-0.6,0.6-1.3,1.1c-0.5-1.6-0.8-2.1-1.4-3.1c1.1-0.8,2.2-1.8,3.1-3
			c0.9-1.1,1.3-1.9,2-3.6h3.4c0.9,2,1.6,3,3.3,4.5v-1.7c0-1.1,0-1.5-0.1-2.2c0.7,0.1,1.3,0.1,2.5,0.1h3.9c1.1,0,2-0.1,2.8-0.2v3.1
			c-0.7-0.1-1.2-0.1-2.2-0.1v1.7c1.1,0,1.2,0,1.7-0.1c-0.1,0.5-0.1,0.8-0.1,1.7v1.1c1.5-2.3,2.7-5.5,2.8-8.1l3.2,0.7
			c-0.2,0.7-0.2,0.7-0.6,2c-0.1,0.4-0.2,0.5-0.4,1.3h1.9c1.2,0,1.9,0,2.7-0.2V29c-0.9-0.1-1.6-0.2-2.6-0.2h-3
			c-0.5,1.3-0.9,2-1.8,3.5c-0.7-0.9-1.4-1.4-2.3-1.9v1.2c0,0.9,0,1.3,0.1,1.8c-0.6,0-0.9-0.1-1.7-0.1v2c1.2,0,1.6,0,2.2-0.1V38
			c-0.6-0.1-1.1-0.1-2.2-0.1h-4.7c-1.1,0-1.6,0-2.3,0.1c0.1-0.7,0.1-1.2,0.1-2.3v-8.2c-0.6,0.9-0.9,1.2-1.4,2v2.7
			c-0.7-0.1-1.3-0.1-2-0.1h-0.5v2.3h0.4c1.3,0,2,0,2.6-0.1v3.2c-0.6-0.1-1.3-0.1-2.6-0.1h-0.4v8.4c1.3-0.4,1.7-0.4,3.3-0.9l0.1,2.2
			c0.4,0.1,0.8,0.1,1.3,0.1h0.3v-5.4c0-1.2,0-1.7-0.1-2.5c0.7,0.1,1.4,0.1,2.7,0.1h10.4c1.3,0,1.9,0,2.7-0.1
			c-0.1,0.7-0.1,1.4-0.1,2.5v5.4h0.5c0.5,0,0.9,0,1.3-0.1v3.4c-1.1-0.1-2.3-0.2-3.6-0.2h-11.9c-1.3,0-2.5,0.1-3.5,0.2v-2.6
			c-3.2,1-3.2,1-6.6,1.9c-1.9,0.5-2.5,0.6-3.2,0.9l-0.5-3.4c0.7,0,2.1-0.3,4.3-0.7v-9.1h-1.2c-1.1,0-2.2,0.1-3,0.2v-3.3
			c0.8,0.1,1.9,0.2,3,0.2h1.2v-2.3H625.4z M622.8,45.6c-0.2-2.3-0.6-4-1.2-6.1l2.5-0.8c0.7,2.5,1,4.2,1.2,6.1L622.8,45.6z
			 M629.3,29.4c0.7,0,1.1,0,1.5,0c-1.3-1.2-2-2.3-3.2-4.4c-0.8,1.6-1.6,2.9-2.9,4.5c0.3,0,0.4,0,0.7,0H629.3z M629.2,43.7
			c0.5-2.1,0.7-2.8,0.8-5.2l2.3,0.5c-0.2,2-0.4,2.7-1,5.2L629.2,43.7z M637.2,27.1v-1.7h-1.8v1.7H637.2z M638.5,31.1v-1.7h-3.1v1.7
			H638.5z M635.4,33.4v2h1.8v-2H635.4z M636.4,47.2h1.6v-4.9h-1.6V47.2z M640.5,47.2h1.5v-4.9h-1.5V47.2z M642.8,33.2
			c0.6,0.1,1.1,0.1,2.1,0.1h2.6c1.3,0,1.9,0,2.6-0.1v3.3c-0.7-0.1-1.5-0.1-2.5-0.1h-2.6c-1,0-1.7,0-2.2,0.1V33.2z M644.6,47.2h1.6
			v-4.9h-1.6V47.2z"/>
		<path d="M660.4,46.7c-1.4,0-2.3,0-3.4,0.1c0.1-0.8,0.1-1.8,0.1-3.3v-5.1c0-1.3,0-2.2-0.1-3.2c1,0.1,1.6,0.1,3.6,0.1h14.9
			c1.8,0,2.6,0,3.6-0.1c-0.1,1-0.1,1.8-0.1,3.2v5.1c0,1.8,0,2.7,0.1,3.3c-1-0.1-1.9-0.1-3.1-0.1H674c2.4,1.1,4.6,1.6,8.6,2
			c-0.7,0.9-1.2,1.8-1.6,2.9c-2.5-0.3-3.6-0.5-5.5-1.2c-2-0.6-3-1-5.1-2.1l1.7-1.6h-8.7l1.9,1.6c-3.6,1.7-5.8,2.3-10.3,2.9
			c-0.5-1.2-0.9-1.9-1.9-3c3.8-0.2,6.6-0.7,8.6-1.5H660.4z M666.1,23.7c0-0.9,0-1.6-0.2-2.3h3.8c-0.1,0.7-0.2,1.4-0.2,2.3v1.2h3.4
			c0.9-1.2,1.3-1.9,2-3.3l3.2,1.2c-0.8,1.2-1.1,1.5-1.6,2.1h2.2c1.3,0,2.4,0,3.1-0.1c-0.1,1-0.1,1.7-0.1,2.9v1.7
			c0,0.8,0,1.4,0.1,2.1h-3.3v-3.9h-21.2v3.9h-3.3c0.1-0.8,0.1-1.4,0.1-2.2v-1.8c0-1.1,0-1.7-0.1-2.7c1,0.1,1.8,0.1,3.3,0.1h2
			c-0.5-0.8-0.8-1.1-1.7-2l3.1-1.1c0.9,1,1.2,1.5,2.1,3.1h3.2V23.7z M676.7,32.3c0,0.8,0,1.3,0.1,2.1c-0.9-0.1-1.4-0.1-2.9-0.1
			h-11.8c-1.1,0-1.9,0-2.9,0.1c0.1-0.7,0.1-1.2,0.1-2v-2c0-1,0-1.5-0.1-2c1,0.1,1.8,0.1,3.1,0.1h11.5c1.2,0,2.2,0,3.1-0.1
			c-0.1,0.7-0.1,1.2-0.1,2V32.3z M660.4,38.5h15.1v-1h-15.1V38.5z M660.4,41.5h15.1v-1.1h-15.1V41.5z M660.4,44.5h15.1v-1.1h-15.1
			V44.5z M662.4,30.7v1.5h11.1v-1.5H662.4z"/>
		<path d="M697.8,42.4c-0.2,0.4-0.2,0.6-0.4,1.1c-1.3-1.5-2.2-2.8-3.2-4.5c0.2,2.2,0.2,2.6,0.2,3.6v5.3c0,1.5,0,2.4,0.2,3.3h-3.7
			c0.2-1,0.2-2,0.2-3.4v-4.1c0-1.3,0.1-2.8,0.1-3.8c-1.4,3.5-2.5,5.3-4.2,7.2c-0.4-1.2-0.9-2.4-1.6-3.3c1.3-1.4,2.4-2.8,3.5-4.7
			c0.7-1.2,0.8-1.5,1.7-3.6h-1.7c-1.4,0-2.1,0-2.9,0.2v-3.4c0.7,0.1,1.4,0.2,2.9,0.2h2.1v-7.6c0-1.4,0-2.4-0.2-3.1h3.6
			c-0.1,0.8-0.2,1.6-0.2,3.1v7.6h1.5c1.2,0,1.8,0,2.5-0.1v3.3c-0.8-0.1-1.4-0.1-2.5-0.1h-1.2c1.2,2,2.4,3.5,4.1,4.9
			c-0.4,0.8-0.6,1.1-0.9,1.8c0.7,0,1.9-0.2,2.9-0.4l7.5-1.7V25.3c0-1.9,0-2.7-0.2-3.7h3.9c-0.2,1.1-0.2,1.9-0.2,3.7v13.9
			c1.3-0.3,1.9-0.5,2.7-0.8l0.7,3.6c-0.9,0.1-1.8,0.3-3.1,0.6l-0.3,0.1v4.7c0,1.8,0,2.8,0.2,3.8h-3.9c0.2-1.1,0.2-1.9,0.2-3.8v-3.9
			l-6.8,1.5c-1.4,0.3-2.3,0.6-3,0.8L697.8,42.4z M688.5,23.4c1,2.8,1.5,4.5,2,6.9l-2.7,1.2c-0.5-2.9-1.1-4.9-2-6.8L688.5,23.4z
			 M699.5,24.5c-0.8,2.9-1.2,4.1-2.6,6.9l-2.3-1.2c1-2.1,1.6-3.8,2.2-6.9L699.5,24.5z M701.1,31.7c2.5,1.7,3.9,2.9,5.6,4.7l-2.2,2.6
			c-2.2-2.4-3.3-3.4-5.6-4.9L701.1,31.7z M702.1,23.7c2.8,1.9,3.8,2.8,5.6,4.7l-2.2,2.7c-2.4-2.5-2.5-2.7-5.7-4.9L702.1,23.7z"/>
		<path d="M727.1,33.3c-1.3,0-2.2,0-3.1,0.2V32c-1.8,1.1-3.1,1.8-5.2,2.6c-0.8-1.7-1-2.1-1.9-3.3c6-2.1,10.8-5.5,13.1-9.4h4
			c1.3,1.9,2.7,3.3,4.9,4.9c2.6,2,5,3.2,8.5,4.3c-0.8,1.2-1.2,2.2-1.7,3.5c-2.5-1.1-3.6-1.6-5.6-2.8v1.6c-0.9-0.1-1.8-0.2-3.1-0.2
			h-3.3v3.1h8.1c1.7,0,2.7-0.1,3.5-0.2v3.6c-0.9-0.1-2-0.2-3.5-0.2h-8.1v7.2h8.7c1.6,0,2.7-0.1,3.8-0.2v3.7
			c-1.2-0.2-2.5-0.2-3.8-0.2H722c-1.5,0-2.6,0.1-4,0.2v-3.7c1.2,0.1,2.3,0.2,4,0.2h8v-7.2h-7.6c-1.4,0-2.5,0.1-3.5,0.2v-3.6
			c0.9,0.1,1.9,0.2,3.5,0.2h7.6v-3.1H727.1z M724.8,39.9c1.1,1.9,1.7,3.1,2.6,5.3l-3.2,1.3c-0.7-2-1.5-3.7-2.5-5.3L724.8,39.9z
			 M727,30.3l9.9,0c0.3,0,0.3,0,0.8,0c-2.5-1.8-4.1-3.3-5.8-5.4c-1.6,2.2-2.9,3.5-5.6,5.4H727z M742.3,41.2
			c-0.4,0.7-0.4,0.7-1.6,3.1c-0.1,0.2-0.2,0.4-1.3,2.3l-3-1.1c1-1.6,1.8-3.3,2.5-5.5L742.3,41.2z"/>
	</g>
	<g class="st1">
		<path d="M595.3,91.8c0.2-1.2,0.3-2.5,0.3-4.1v-2.2h-4.8c-1.4,0-2.3,0.1-3.4,0.3v-3.6c1.1,0.2,1.9,0.3,3.4,0.3h4.8v-1l-1.1-1.6
			h-3.7c-1.5,0-2.3,0.1-3.4,0.3v-3.6c1.1,0.2,1.9,0.3,3.4,0.3h1.8l-4.4-7c-0.9-1.4-1.8-2.7-2.2-3.3h5.5c0.3,0.9,0.6,1.6,1.5,3.1
			l4.7,8.1l4.7-8.1c0.9-1.5,1.3-2.3,1.5-3.2h5.5c-0.4,0.5-1.7,2.4-2.3,3.3l-4.4,7h1.8c1.4,0,2.3-0.1,3.4-0.3v3.6
			c-1.1-0.2-2-0.3-3.4-0.3h-3.7l-1.1,1.7v0.9h4.7c1.4,0,2.2-0.1,3.4-0.3v3.6c-1.1-0.2-2-0.3-3.4-0.3h-4.7v2.2c0,1.8,0.1,2.8,0.3,4.1
			H595.3z"/>
		<path d="M619.4,91.8c0.2-1.2,0.3-2.5,0.3-4.2V70h-1.5c-1.2,0-2.1,0.1-3.3,0.2v-4.1c1,0.2,1.7,0.2,3.2,0.2h2.9c1.6,0,2.1,0,3.3-0.2
			c-0.2,1.9-0.3,3.4-0.3,5.3v16.2c0,1.7,0.1,2.8,0.3,4.2H619.4z"/>
		<path d="M639.4,91.8c0,2.8-0.7,3.8-3.3,4.8l-1.2-1.7c2-0.5,2.4-1.1,2.4-3.1h-2.7v-4.7h4.7V91.8z"/>
		<path d="M646,89.7c-1-1-1.7-2.1-2.1-3.2c-0.8-2.3-1.2-4.8-1.2-7.4c0-3.4,0.8-6.9,2-8.9c1.7-2.9,4.6-4.4,8.2-4.4
			c2.7,0,5.1,0.9,6.8,2.6c1,1,1.7,2.1,2.1,3.2c0.8,2.2,1.2,4.8,1.2,7.4c0,3.9-0.9,7.4-2.4,9.5c-1.8,2.5-4.4,3.8-7.8,3.8
			C650,92.3,647.7,91.4,646,89.7z M656.2,87.3c1.4-1.5,2.2-4.5,2.2-8.2c0-3.7-0.8-6.6-2.2-8.2c-0.8-0.9-2-1.3-3.5-1.3
			c-1.5,0-2.7,0.5-3.6,1.6c-1.4,1.7-2.1,4.3-2.1,7.8c0,3.4,0.6,6.1,1.6,7.6c1,1.4,2.3,2.1,4.1,2.1C654.2,88.6,655.4,88.1,656.2,87.3
			z"/>
		<path d="M668.8,89.7c-1-1-1.7-2.1-2.1-3.2c-0.8-2.3-1.2-4.8-1.2-7.4c0-3.4,0.8-6.9,2-8.9c1.7-2.9,4.6-4.4,8.2-4.4
			c2.7,0,5.1,0.9,6.8,2.6c1,1,1.7,2.1,2.1,3.2c0.8,2.2,1.2,4.8,1.2,7.4c0,3.9-0.9,7.4-2.4,9.5c-1.8,2.5-4.4,3.8-7.8,3.8
			C672.8,92.3,670.5,91.4,668.8,89.7z M679,87.3c1.4-1.5,2.2-4.5,2.2-8.2c0-3.7-0.8-6.6-2.2-8.2c-0.8-0.9-2-1.3-3.5-1.3
			c-1.5,0-2.7,0.5-3.6,1.6c-1.4,1.7-2.1,4.3-2.1,7.8c0,3.4,0.6,6.1,1.6,7.6c1,1.4,2.3,2.1,4.1,2.1C676.9,88.6,678.2,88.1,679,87.3z"
			/>
		<path d="M691.6,89.7c-1-1-1.7-2.1-2.1-3.2c-0.8-2.3-1.2-4.8-1.2-7.4c0-3.4,0.8-6.9,2-8.9c1.7-2.9,4.6-4.4,8.2-4.4
			c2.7,0,5.1,0.9,6.8,2.6c1,1,1.7,2.1,2.1,3.2c0.8,2.2,1.2,4.8,1.2,7.4c0,3.9-0.9,7.4-2.4,9.5c-1.8,2.5-4.4,3.8-7.8,3.8
			C695.6,92.3,693.3,91.4,691.6,89.7z M701.8,87.3c1.4-1.5,2.2-4.5,2.2-8.2c0-3.7-0.8-6.6-2.2-8.2c-0.8-0.9-2-1.3-3.5-1.3
			c-1.5,0-2.7,0.5-3.6,1.6c-1.4,1.7-2.1,4.3-2.1,7.8c0,3.4,0.6,6.1,1.6,7.6c1,1.4,2.3,2.1,4.1,2.1C699.7,88.6,701,88.1,701.8,87.3z"
			/>
	</g>
</g>
<g>
	<path class="st2" d="M414.4,63.4c-15.5,0-28,12.6-28,28s12.6,28,28,28c15.5,0,28-12.6,28-28S429.9,63.4,414.4,63.4z"/>
	<polygon class="st3" points="426.5,93.8 416.8,93.8 416.8,103.5 412,103.5 412,93.8 402.3,93.8 402.3,89 412,89 412,79.3 
		416.8,79.3 416.8,89 426.5,89 	"/>
</g>
<polygon class="st2" points="877.8,53.8 915.4,91.4 877.8,129 "/>
<g class="st1">
	<path d="M956,48.6c0.8,0.1,1.3,0.2,2.6,0.2h2.5c1,0,1.7,0,2.4-0.2c-0.1,1-0.1,1.8-0.1,3.5v6.7c0.4,1,0.9,1.5,1.8,2
		c1.3,0.9,3.3,1.2,7.4,1.2c6.2,0,10-0.2,13.3-0.5c-0.6,1.5-0.7,2.2-1,3.6c-3.6,0.1-6.7,0.1-10.3,0.1c-4.7,0-7.1-0.2-8.8-0.8
		c-1.6-0.5-2.8-1.4-4.1-3c-1.3,1.3-2.3,2.2-3.6,3.1c-0.5,0.4-1,0.8-1.2,1l-1.5-3.6c1.1-0.4,3-1.7,4.7-3.2v-6.7h-1.8
		c-0.9,0-1.4,0-2.2,0.2V48.6z M958.5,36.8c2.5,2.2,3.5,3.3,5.5,5.9l-2.7,2.6c-2-2.8-3.1-4.1-5.3-6.1L958.5,36.8z M971.3,39.4
		c0.7-1,1.2-2.1,1.7-3.3l3.7,0.5c-0.6,1.1-1,1.8-1.6,2.7h5.2c1,0,1.7,0,2.3-0.1c-0.1,0.7-0.1,1.4-0.1,2.2v4.4c0,1.1,0,1.8,0.1,2.4
		c-0.8,0-1.3-0.1-2.3-0.1h-10.8v2.3h11.7c1.2,0,1.6,0,2.2-0.1c-0.1,0.7-0.1,1.3-0.1,2.4v4.8c0,0.8,0,1.5,0.1,2.2
		c-0.7-0.1-1.3-0.1-2.2-0.1h-12.9c-0.9,0-1.6,0-2.3,0.1c0.1-0.7,0.1-1.4,0.1-2.2V41.5c0-0.7-0.1-1.4-0.1-2.2
		c0.8,0.1,1.6,0.1,2.5,0.1H971.3z M969.5,45.3h9.7v-2.9h-9.7V45.3z M969.5,56.7h10.5v-3.3h-10.5V56.7z"/>
	<path d="M999.3,41.9c1.7,0,2.6,0,3.6-0.1c-0.1,1.1-0.1,1.2-0.2,5.2c-0.1,6.7-0.4,11.5-1,14.2c-0.6,2.8-1.5,3.6-4.1,3.6
		c-0.8,0-2-0.1-3.4-0.2c-0.1-1.6-0.2-2-0.6-3.4c1.2,0.2,2.4,0.4,3.1,0.4c0.9,0,1.2-0.2,1.5-1.3c0.4-1.2,0.6-4,0.8-7.6
		c0.1-2.8,0.1-2.8,0.2-7.5h-3.1c-0.3,4.3-0.7,7.4-1.6,10.6c-1,3.7-2.4,6.6-4.9,9.8c-0.9-1.4-1.6-2.3-2.6-3.3c2-2.4,3.3-4.7,4.3-8
		c0.8-2.7,1.2-5.3,1.5-9.2h-1.6c-1.4,0-2.3,0.1-3.2,0.2v-3.7c0.9,0.1,1.9,0.2,3.5,0.2h1.4c0-0.9,0-1,0-2.7c0-1.3-0.1-2-0.2-2.8h3.8
		c-0.1,0.7-0.2,1.1-0.2,2.1c0,0.6,0,0.6-0.1,3.4H999.3z M1008.2,65h-3.6c0.1-1,0.2-2.2,0.2-3.7V43c0-1.5,0-2.3-0.2-3.4
		c0.9,0.1,1.7,0.2,2.9,0.2h6.1c1.3,0,2,0,2.9-0.2c-0.1,1.1-0.2,1.9-0.2,3.4v18.3c0,1.5,0.1,2.5,0.2,3.6h-3.6v-2.3h-4.7V65z
		 M1008.2,59.4h4.7V43h-4.7V59.4z"/>
	<path d="M1032.2,57.2c-0.2,0.4-0.2,0.6-0.4,1.1c-1.3-1.5-2.2-2.8-3.2-4.5c0.2,2.2,0.2,2.6,0.2,3.6v5.3c0,1.5,0,2.4,0.2,3.3h-3.7
		c0.2-1,0.2-2,0.2-3.4v-4.1c0-1.3,0.1-2.8,0.1-3.8c-1.4,3.5-2.5,5.3-4.2,7.2c-0.4-1.2-0.9-2.4-1.6-3.3c1.3-1.4,2.4-2.8,3.5-4.7
		c0.7-1.2,0.8-1.5,1.7-3.6h-1.7c-1.4,0-2.1,0-2.9,0.2V47c0.7,0.1,1.4,0.2,2.9,0.2h2.1v-7.6c0-1.4,0-2.4-0.2-3.1h3.6
		c-0.1,0.8-0.2,1.6-0.2,3.1v7.6h1.5c1.2,0,1.8,0,2.5-0.1v3.3c-0.8-0.1-1.4-0.1-2.5-0.1h-1.2c1.2,2,2.4,3.5,4.1,4.9
		c-0.4,0.8-0.6,1.1-0.9,1.8c0.7,0,1.9-0.2,2.9-0.4l7.5-1.7V40.2c0-1.9,0-2.7-0.2-3.7h3.9c-0.2,1.1-0.2,1.9-0.2,3.7V54
		c1.3-0.3,1.9-0.5,2.7-0.8l0.7,3.6c-0.9,0.1-1.8,0.3-3.1,0.6l-0.3,0.1v4.7c0,1.8,0,2.8,0.2,3.8h-3.9c0.2-1.1,0.2-1.9,0.2-3.8v-3.9
		l-6.8,1.5c-1.4,0.3-2.3,0.6-3,0.8L1032.2,57.2z M1023,38.2c1,2.8,1.5,4.5,2,6.9l-2.7,1.2c-0.5-2.9-1.1-4.9-2-6.8L1023,38.2z
		 M1034,39.3c-0.8,2.9-1.2,4.1-2.6,6.9l-2.3-1.2c1-2.1,1.6-3.8,2.2-6.9L1034,39.3z M1035.6,46.6c2.5,1.7,3.9,2.9,5.6,4.7l-2.2,2.6
		c-2.2-2.4-3.3-3.4-5.6-4.9L1035.6,46.6z M1036.6,38.6c2.8,1.9,3.8,2.8,5.6,4.7l-2.2,2.7c-2.4-2.5-2.5-2.7-5.7-4.9L1036.6,38.6z"/>
	<path d="M1061.6,48.2c-1.3,0-2.2,0-3.1,0.2v-1.5c-1.8,1.1-3.1,1.8-5.2,2.6c-0.8-1.7-1-2.1-1.9-3.3c6-2.1,10.8-5.5,13.1-9.4h4
		c1.3,1.9,2.7,3.3,4.9,4.9c2.6,2,5,3.2,8.5,4.3c-0.8,1.2-1.2,2.2-1.7,3.5c-2.5-1.1-3.6-1.6-5.6-2.8v1.6c-0.9-0.1-1.8-0.2-3.1-0.2
		h-3.3v3.1h8.1c1.7,0,2.7-0.1,3.5-0.2v3.6c-0.9-0.1-2-0.2-3.5-0.2h-8.1v7.2h8.7c1.6,0,2.7-0.1,3.8-0.2v3.7c-1.2-0.2-2.5-0.2-3.8-0.2
		h-20.2c-1.5,0-2.6,0.1-4,0.2v-3.7c1.2,0.1,2.3,0.2,4,0.2h8v-7.2h-7.6c-1.4,0-2.5,0.1-3.5,0.2v-3.6c0.9,0.1,1.9,0.2,3.5,0.2h7.6
		v-3.1H1061.6z M1059.3,54.7c1.1,1.9,1.7,3.1,2.6,5.3l-3.2,1.3c-0.7-2-1.5-3.7-2.5-5.3L1059.3,54.7z M1061.5,45.1l9.9,0
		c0.3,0,0.3,0,0.8,0c-2.5-1.8-4.1-3.3-5.8-5.4c-1.6,2.2-2.9,3.5-5.6,5.4H1061.5z M1076.8,56c-0.4,0.7-0.4,0.7-1.6,3.1
		c-0.1,0.2-0.2,0.4-1.3,2.3l-3-1.1c1-1.6,1.8-3.3,2.5-5.5L1076.8,56z"/>
	<path d="M1090.3,47c-2.1,1.3-2.9,1.7-5.1,2.7c-0.5-1.3-0.9-2-1.9-3.3c3-1.2,5.7-2.7,8.2-4.6c2.2-1.8,3.7-3.4,5-5.3h3.8
		c1.4,2,2.8,3.5,5.4,5.4c2.5,1.9,4.9,3.2,8.2,4.4c-0.8,1.3-1.2,2-1.8,3.5c-2.3-1-3.3-1.5-5.2-2.8v2.2c-0.8-0.1-1.6-0.1-2.9-0.1H1093
		c-1,0-1.9,0-2.8,0.1V47z M1087.7,65.7c0.1-1,0.2-2,0.2-3.4v-7.5c0-1.3-0.1-2.2-0.2-3.2c0.7,0.1,1.5,0.1,2.8,0.1h16
		c1.3,0,2,0,2.8-0.1c-0.1,0.9-0.2,1.8-0.2,3.2v7.5c0,1.5,0,2.4,0.2,3.4h-3.8v-1.6h-14v1.6H1087.7z M1091.5,60.9h14v-6h-14V60.9z
		 M1103.9,45.7c0.4,0,0.5,0,1.1,0c-2.8-2-4.6-3.7-6.6-6.2c-1.9,2.8-3.3,4.1-6.3,6.2c0.4,0,0.5,0,0.9,0H1103.9z"/>
	<path d="M1116.2,41.7c0.8,0.1,1.5,0.2,2.7,0.2h8.2c1.2,0,2,0,2.7-0.2V45c-0.7-0.1-1.4-0.1-2.7-0.1h-8.3c-1.1,0-1.8,0-2.7,0.2V41.7z
		 M1117.5,37.3c0.8,0.1,1.4,0.2,2.8,0.2h5.5c1.3,0,1.9,0,2.7-0.2v3.1c-0.9-0.1-1.5-0.1-2.7-0.1h-5.5c-1.2,0-2,0-2.8,0.1V37.3z
		 M1120.9,65.9h-3.4c0.1-0.9,0.2-1.8,0.2-3.1V58c0-1,0-1.6-0.1-2.5c0.6,0.1,1.1,0.1,2.2,0.1h6.9c1,0,1.5,0,2.1-0.1
		c-0.1,0.7-0.1,1.3-0.1,2.5v4.7c0,1.2,0,2,0.2,2.8h-3.4v-1h-4.4V65.9z M1117.6,46.4c0.7,0.1,1.1,0.1,2.1,0.1h6.8c1.1,0,1.4,0,2-0.1
		v3c-0.7-0.1-1-0.1-2-0.1h-6.8c-1.1,0-1.4,0-2.1,0.1V46.4z M1117.6,50.9c0.6,0.1,1,0.1,2.1,0.1h6.8c1.1,0,1.4,0,2-0.1v3
		c-0.6-0.1-1.1-0.1-2.1-0.1h-6.8c-1,0-1.4,0-2.1,0.1V50.9z M1120.9,61.6h4.5v-3.1h-4.5V61.6z M1135.7,40.3c0-1.8,0-2.6-0.2-3.8h4
		c-0.2,1.1-0.2,2.1-0.2,3.8v5.8h2.3c1.7,0,2.8-0.1,3.9-0.2v3.7c-1.2-0.1-2.4-0.2-3.9-0.2h-2.2v11.7c0,2.2,0.1,3.5,0.2,4.8h-4
		c0.2-1.3,0.2-2.5,0.2-4.8V49.4h-2c-1.4,0-2.8,0.1-3.9,0.2v-3.7c1,0.1,2.2,0.2,3.9,0.2h2V40.3z"/>
</g>
<g class="st1">
	<path class="st2" d="M968.9,137.8c0.2-1.9,0.4-4,0.4-6.4V128h-7.6c-2.2,0-3.5,0.1-5.2,0.4v-5.7c1.8,0.3,3,0.4,5.2,0.4h7.6v-1.5
		l-1.7-2.6h-5.8c-2.3,0-3.6,0.1-5.2,0.4v-5.7c1.6,0.3,3,0.4,5.2,0.4h2.8l-7-11c-1.5-2.2-2.8-4.2-3.5-5.2h8.6c0.5,1.5,1,2.5,2.4,4.9
		l7.4,12.7l7.4-12.7c1.4-2.4,2-3.6,2.4-5h8.7c-0.7,0.8-2.7,3.7-3.6,5.2l-6.9,11h2.8c2.3,0,3.6-0.1,5.3-0.4v5.7
		c-1.7-0.3-3.1-0.4-5.3-0.4h-5.8l-1.7,2.6v1.5h7.4c2.2,0,3.5-0.1,5.2-0.4v5.7c-1.7-0.3-3-0.4-5.2-0.4h-7.4v3.4
		c0,2.9,0.1,4.4,0.4,6.4H968.9z"/>
	<path class="st2" d="M1006.6,137.8c0.3-1.9,0.4-3.9,0.4-6.5v-27.6h-2.4c-1.8,0-3.3,0.1-5.1,0.3v-6.3c1.5,0.2,2.6,0.3,5,0.3h4.6
		c2.5,0,3.3,0,5.1-0.2c-0.3,3-0.4,5.2-0.4,8.2v25.3c0,2.7,0.1,4.5,0.4,6.5H1006.6z"/>
	<path class="st2" d="M1037.8,137.8c0,4.3-1.1,5.9-5.2,7.5l-1.8-2.7c3-0.8,3.8-1.8,3.8-4.9h-4.2v-7.3h7.4V137.8z"/>
	<path class="st2" d="M1048.1,134.5c-1.5-1.5-2.6-3.2-3.3-5c-1.3-3.6-2-7.5-2-11.5c0-5.3,1.2-10.8,3.1-13.9c2.7-4.5,7.2-7,12.8-7
		c4.3,0,7.9,1.4,10.6,4c1.5,1.5,2.7,3.2,3.3,5c1.3,3.5,1.9,7.5,1.9,11.6c0,6.2-1.3,11.6-3.7,14.8c-2.8,3.9-7,5.9-12.2,5.9
		C1054.4,138.6,1050.8,137.2,1048.1,134.5z M1064.1,130.7c2.2-2.4,3.5-7,3.5-12.9c0-5.8-1.2-10.4-3.5-12.8c-1.2-1.3-3.2-2.1-5.5-2.1
		c-2.4,0-4.2,0.8-5.6,2.5c-2.2,2.6-3.3,6.7-3.3,12.2c0,5.2,1,9.6,2.5,11.9c1.6,2.2,3.7,3.2,6.4,3.2
		C1060.9,132.8,1062.8,132,1064.1,130.7z"/>
	<path class="st2" d="M1083.7,134.5c-1.5-1.5-2.6-3.2-3.3-5c-1.3-3.6-2-7.5-2-11.5c0-5.3,1.2-10.8,3.1-13.9c2.7-4.5,7.2-7,12.8-7
		c4.3,0,7.9,1.4,10.6,4c1.5,1.5,2.7,3.2,3.3,5c1.3,3.5,1.9,7.5,1.9,11.6c0,6.2-1.3,11.6-3.7,14.8c-2.8,3.9-7,5.9-12.2,5.9
		C1090,138.6,1086.4,137.2,1083.7,134.5z M1099.7,130.7c2.2-2.4,3.5-7,3.5-12.9c0-5.8-1.2-10.4-3.5-12.8c-1.2-1.3-3.2-2.1-5.5-2.1
		c-2.4,0-4.2,0.8-5.6,2.5c-2.2,2.6-3.3,6.7-3.3,12.2c0,5.2,1,9.6,2.5,11.9c1.6,2.2,3.7,3.2,6.4,3.2
		C1096.5,132.8,1098.4,132,1099.7,130.7z"/>
	<path class="st2" d="M1119.3,134.5c-1.5-1.5-2.6-3.2-3.3-5c-1.3-3.6-2-7.5-2-11.5c0-5.3,1.2-10.8,3.1-13.9c2.7-4.5,7.2-7,12.8-7
		c4.3,0,7.9,1.4,10.6,4c1.5,1.5,2.7,3.2,3.3,5c1.3,3.5,2,7.5,2,11.6c0,6.2-1.4,11.6-3.7,14.8c-2.8,3.9-7,5.9-12.2,5.9
		C1125.6,138.6,1122,137.2,1119.3,134.5z M1135.3,130.7c2.2-2.4,3.5-7,3.5-12.9c0-5.8-1.2-10.4-3.5-12.8c-1.2-1.3-3.2-2.1-5.5-2.1
		c-2.4,0-4.2,0.8-5.6,2.5c-2.2,2.6-3.3,6.7-3.3,12.2c0,5.2,1,9.6,2.5,11.9c1.6,2.2,3.7,3.2,6.4,3.2
		C1132.1,132.8,1134,132,1135.3,130.7z"/>
</g>
<g class="st1">
	<path d="M526.2,114.4l0.6,0.7l-7.1,7.1l7.1,7.1l-0.6,0.7l-7.1-7l-7.1,7l-0.7-0.7l7.1-7.1l-7.1-7.1l0.7-0.7l7.1,7.1L526.2,114.4z
		 M514.8,122.2c0,0.9-0.7,1.5-1.5,1.5c-0.8,0-1.5-0.7-1.5-1.5c0-0.8,0.7-1.5,1.5-1.5C514.2,120.7,514.8,121.3,514.8,122.2z
		 M520.6,128c0,0.8-0.7,1.5-1.5,1.5c-0.8,0-1.5-0.7-1.5-1.5c0-0.8,0.7-1.5,1.4-1.5c0,0,0,0,0.1,0c0,0,0,0,0,0c0,0,0,0,0,0
		C519.9,126.5,520.6,127.2,520.6,128z M520.6,116.4c0,0.9-0.7,1.5-1.5,1.5c-0.8,0-1.5-0.7-1.5-1.5c0-0.8,0.7-1.5,1.5-1.5
		C519.9,114.9,520.6,115.5,520.6,116.4z M526.3,122.2c0,0.8-0.7,1.5-1.5,1.5c-0.8,0-1.5-0.7-1.5-1.5s0.7-1.5,1.5-1.5
		C525.6,120.7,526.3,121.4,526.3,122.2z"/>
	<path d="M544.6,117.4c-0.2,0.3-0.3,0.5-0.5,1.2c-1.2,3.6-2.1,5.3-4,7.6c-1.8,2-4.2,3.8-7.1,5.1c-0.5-0.9-0.9-1.4-1.7-2.1
		c5.2-2,8.6-5.6,10.2-10.8l-6,0.1c-1.1,1.8-3,3.9-4.7,5.1c-0.6-0.8-0.9-1.1-1.9-1.7c2.2-1.4,3.8-3.2,5.2-5.8c0.6-1.1,1-2,1-2.7
		l2.7,0.6c-0.1,0.2-0.2,0.2-0.3,0.6c-0.2,0.4-0.3,0.8-0.5,1.2c-0.1,0.2-0.1,0.2-0.1,0.3l-0.2,0.3c0.2,0,0.6,0,1,0l4.4-0.1
		c0.5,0,0.9,0,1,0c-0.5-1-0.8-1.6-1.5-2.5l1.5-0.5c0.8,1,1.2,1.8,1.8,3.2l-0.9,0.3L544.6,117.4z M545.9,115.9
		c-0.5-1.2-1.1-2.2-1.7-3.1l1.4-0.5c0.8,1.1,1.3,1.9,1.8,3L545.9,115.9z"/>
	<path d="M564.2,120.1c-0.2,0.4-0.3,0.6-0.6,1.3c-1,2.9-2.6,5.2-4.6,6.8c-1.4,1.1-2.7,1.8-5.2,2.7c-0.4-1-0.7-1.3-1.6-2.3
		c2.4-0.6,4-1.4,5.6-2.6c1.5-1.2,2.3-2.5,3.2-4.7h-9.7c-1.3,0-1.8,0-2.6,0.1v-2.4c0.8,0.1,1.2,0.1,2.6,0.1h9.5c1.2,0,1.6,0,2.3-0.2
		L564.2,120.1z M550.3,114.1c0.7,0.1,1.1,0.1,2.3,0.1h7c1.3,0,1.7,0,2.3-0.1v2.5c-0.6-0.1-1-0.1-2.3-0.1h-7.1c-1.3,0-1.7,0-2.3,0.1
		V114.1z"/>
	<path d="M566.7,127.4c1.7-0.1,4.1-0.7,5.9-1.5c2.5-1.1,4.4-2.6,5.9-4.9c0.9-1.3,1.4-2.4,2-4c0.8,0.9,1.1,1.2,2.1,2
		c-1.7,3.7-3.6,6-6.3,7.8c-2,1.4-4.5,2.3-7.6,3c-0.8,0.2-0.9,0.2-1.3,0.3L566.7,127.4z M568.4,115c2.4,1.5,3.6,2.4,5.2,3.9l-1.7,2.2
		c-1.6-1.7-3.2-3-5.1-4.1L568.4,115z"/>
	<path d="M586.7,130.7c0.1-0.6,0.1-1.1,0.1-2.2v-12.8c0-1.2,0-1.6-0.1-2h2.7c-0.1,0.5-0.1,0.9-0.1,2.1v3.7c2.3,0.8,5.9,2.4,9.1,4.2
		l-1.4,2.4c-1.4-1-4.2-2.5-7.1-3.8c-0.5-0.2-0.5-0.2-0.7-0.3c0.1,0.6,0.1,0.9,0.1,1.4v5.3c0,1.1,0,1.6,0.1,2.2H586.7z M595,114.6
		c0.9,0.9,1.4,1.7,2.1,2.9l-1.4,0.7c-0.7-1.2-1.2-2-2.1-3L595,114.6z M598.1,117c-0.6-1.1-1.3-2-2-2.9l1.3-0.7
		c0.9,0.9,1.5,1.7,2.1,2.8L598.1,117z"/>
	<path d="M603.2,118.8c2.1,0.8,3.6,1.6,5.3,2.7l-1.2,2.3c-1.6-1.2-3.4-2.1-5.4-2.9L603.2,118.8z M602.3,127.7c1.5,0,3.7-0.5,5.8-1.3
		c2.5-1,4.2-2.3,5.8-4.4c1.1-1.4,1.7-2.6,2.3-4.4c0.8,0.9,1.1,1.1,2.1,1.8c-0.9,2.2-1.8,3.6-3,5.1c-2.5,2.9-5.9,4.7-10.9,5.7
		c-0.7,0.1-1,0.2-1.4,0.3L602.3,127.7z M604.7,113.9c2.1,0.8,3.6,1.6,5.3,2.6l-1.3,2.2c-1.8-1.2-3.6-2.2-5.3-2.8L604.7,113.9z"/>
	<path d="M626.8,131.1c0.1-0.5,0.1-1.1,0.1-1.8v-4.2c0-0.1,0-0.5,0-1c-0.2,0.2-0.3,0.2-0.6,0.4c-1.5,0.8-3.2,1.5-5.6,2.2
		c-0.4-1-0.6-1.3-1.2-2.2c2-0.4,3.5-0.9,5.6-1.9c2.3-1.1,4.5-2.5,6.2-4.2c-0.2,0-0.2,0-0.4,0c-0.1,0-0.1,0-7.3,0.1
		c-1.2,0-1.4,0-2.1,0.1v-2.4c0.5,0.1,1.3,0.2,2.1,0.2h3.3v-1.6c0-0.7,0-1-0.1-1.4h2.7c-0.1,0.4-0.1,0.7-0.1,1.4v1.7h3.4
		c0.6,0,1-0.1,1.4-0.2l1.2,1.4c-0.3,0.3-0.4,0.3-0.9,0.9c-1.1,1.3-2.2,2.2-4.1,3.7c2.4,0.8,4.6,1.7,7,3.1l-1.3,2.1
		c-2-1.3-3.6-2.1-6.1-3.2c-0.3-0.1-0.3-0.1-0.5-0.2c0,0.2,0,0.8,0,1v4.4c0,0.9,0,1.2,0.1,1.8H626.8z"/>
	<path d="M642.9,120.2c1.1,0.9,1.7,1.4,2.5,2.2c1.1,1.1,1.1,1.1,1.2,1.2c1-0.9,1.9-1.7,2.6-2.5c0.9-1,2-2.5,2.4-3.3
		c0.1-0.1,0.1-0.1,0.1-0.2c0-0.1,0-0.1,0-0.1c-0.2,0-0.5,0-0.9,0h-7.3c-0.7,0-1.3,0-2.3,0c-1.6,0-1.8,0-2.6,0.1v-2.5
		c0.8,0.1,1.2,0.1,2.6,0.1l11.1,0c0.9,0,1.2,0,1.7-0.2l1.4,1.6c-0.3,0.3-0.4,0.5-0.9,1.2c-1.9,3.1-4,5.5-6.5,7.6
		c0.8,1,1.6,1.9,2.6,3.3l-2.1,1.7c-1.1-1.8-2.2-3.2-3.9-5c-1.5-1.7-2.5-2.7-4-3.9L642.9,120.2z"/>
	<path d="M668.3,117.5l0-0.9v-0.6c0-1.3,0-1.8-0.1-2.2h2.6c-0.1,0.5-0.1,0.6-0.1,1.3c0,1.2,0,1.2,0,2.4h1.3c1.4,0,1.8,0,2.6-0.1v2.4
		c-0.7-0.1-1.2-0.1-2.6-0.1h-1.3c0,2.4,0,2.5-0.1,3.3c-0.3,2.6-1.1,4.3-2.9,5.7c-1.1,0.9-2.1,1.4-3.9,2.1c-0.4-0.9-0.6-1.2-1.5-2.1
		c1.9-0.6,2.9-1.1,3.8-1.9c1.4-1.2,1.9-2.5,2.1-4.8c0-0.5,0-0.9,0.1-2.3h-5.2v3c0,0.8,0,1.2,0.1,1.7h-2.6c0.1-0.4,0.1-1,0.1-1.7v-3
		h-1.2c-1.3,0-1.9,0-2.6,0.1v-2.4c0.8,0.1,1.2,0.1,2.6,0.1h1.2v-2c0-0.8,0-1.3-0.1-1.8h2.6c-0.1,0.7-0.1,0.7-0.1,1.7v2.1H668.3z"/>
	<path d="M676.6,127.4c1.7-0.1,4.1-0.7,5.9-1.5c2.5-1.1,4.4-2.6,5.9-4.9c0.9-1.3,1.4-2.4,2-4c0.8,0.9,1.1,1.2,2.1,2
		c-1.7,3.7-3.6,6-6.3,7.8c-2,1.4-4.5,2.3-7.6,3c-0.8,0.2-0.9,0.2-1.3,0.3L676.6,127.4z M678.3,115c2.4,1.5,3.6,2.4,5.2,3.9l-1.7,2.2
		c-1.6-1.7-3.2-3-5.1-4.1L678.3,115z"/>
	<path d="M696.1,118.8c2.1,0.8,3.6,1.6,5.3,2.7l-1.2,2.3c-1.6-1.2-3.4-2.1-5.4-2.9L696.1,118.8z M695.2,127.7c1.5,0,3.7-0.5,5.8-1.3
		c2.5-1,4.2-2.3,5.8-4.4c1.1-1.4,1.7-2.6,2.3-4.4c0.8,0.9,1.1,1.1,2.1,1.8c-0.9,2.2-1.8,3.6-3,5.1c-2.5,2.9-5.9,4.7-10.9,5.7
		c-0.7,0.1-1,0.2-1.4,0.3L695.2,127.7z M697.6,113.9c2.1,0.8,3.6,1.6,5.3,2.6l-1.3,2.2c-1.8-1.2-3.6-2.2-5.3-2.8L697.6,113.9z"/>
	<path d="M716.7,118.5c-0.2-0.9-0.2-1.1-0.4-1.5l2.4-0.4c0,0.4,0.1,0.8,0.2,1.5l0.3,1.5l6-1c0.6-0.1,0.9-0.2,1.3-0.3l1.4,1.3
		c-0.2,0.3-0.3,0.5-0.5,1c-0.9,2.2-2,3.7-3.9,5.2c-0.7-0.8-1-1-1.9-1.4c1.5-0.9,2.6-2.1,3.4-3.6c-0.2,0.1-0.2,0.1-0.7,0.1l-4.7,0.8
		l1.4,7.4c0.2,1.1,0.2,1.1,0.4,1.6l-2.5,0.4c0-0.5,0-1-0.2-1.6l-1.4-7.5l-1.7,0.3c-0.7,0.1-1.2,0.2-1.8,0.4l-0.4-2.3
		c0.6,0,1.1-0.1,1.9-0.2l1.7-0.3L716.7,118.5z"/>
	<path d="M746.4,115.1c-0.3,0.3-0.4,0.4-0.7,0.7c-1.5,1.6-3,2.9-4.7,4.1v8.5c0,1.1,0,1.7,0.1,2.2h-2.8c0.1-0.6,0.1-1,0.1-2.2v-7
		c-2.3,1.4-3.5,1.9-7.1,3.2c-0.4-1-0.6-1.4-1.3-2.3c4-1.1,7.3-2.7,10.5-5.2c1.8-1.4,3.1-2.8,3.7-3.7L746.4,115.1z"/>
	<path d="M749,127.4c1.7-0.1,4.1-0.7,5.9-1.5c2.5-1.1,4.4-2.6,5.9-4.9c0.9-1.3,1.4-2.4,2-4c0.8,0.9,1.1,1.2,2.1,2
		c-1.7,3.7-3.6,6-6.3,7.8c-2,1.4-4.5,2.3-7.6,3c-0.8,0.2-0.9,0.2-1.3,0.3L749,127.4z M750.7,115c2.4,1.5,3.6,2.4,5.2,3.9l-1.7,2.2
		c-1.6-1.7-3.2-3-5.1-4.1L750.7,115z"/>
	<path d="M768.2,130.5c0-0.2,0-0.3-0.1-0.8c-0.4-2.3-0.5-4.3-0.5-6.4c0-1.8,0.1-3.6,0.4-5.3c0.1-0.6,0.1-0.6,0.5-2.9
		c0.1-0.7,0.2-1.3,0.2-1.5c0,0,0,0,0-0.1l2.7,0.3c-0.8,1.7-1.6,6.6-1.6,10c0,0.7,0,0.7,0,1c0,0.1,0,0.1,0,0.3c0,0.2,0,0.2,0,0.4h0
		c0.1-0.2,0.1-0.2,0.2-0.6c0-0.1,0.1-0.4,0.2-0.7c0.2-0.4,0.2-0.4,0.4-0.9c0-0.1,0.1-0.1,0.2-0.6l1.7,0.7c-1.2,2.3-2,4.8-2,6.1
		c0,0.1,0,0.2,0,0.5L768.2,130.5z M772.8,117.4c0.9,0.2,2,0.3,3.6,0.3c0.7,0,1.1,0,1.8,0c0-1.2,0-2.2,0-3c0-0.4,0-0.7-0.1-1l2.5-0.1
		c-0.1,0.6-0.1,1.5-0.1,2.9c0,0.2,0,0.5,0,0.9c1-0.1,1.9-0.3,2.7-0.5c0.1,0,0.1,0,0.4-0.2l0.2,0l0.1,2.3c-0.2,0-0.2,0-0.6,0.1
		c-0.7,0.1-1.7,0.3-2.8,0.4c0,0.2,0,0.2,0,0.4c0,1.1,0,1.2,0.2,4.5c1.4,0.7,1.9,1,3.1,1.8c0.3,0.2,0.4,0.2,0.6,0.3l-1,2.4
		c-0.3-0.4-0.9-0.9-1.5-1.3c-0.7-0.4-1.1-0.7-1.3-0.8c0,0.1,0,0.2,0,0.3c0,0.4-0.1,0.8-0.2,1.1c-0.5,1.2-1.9,1.9-3.8,1.9
		c-2.6,0-4.2-1.2-4.2-3.3c0-1.9,1.7-3.3,4.1-3.3c0.7,0,1.2,0.1,1.8,0.3c-0.1-0.5-0.1-1.5-0.2-4.3c-0.8,0-1.3,0-1.8,0
		c-0.7,0-1.5,0-2.5-0.1c-0.3,0-0.5,0-0.6,0c-0.2,0-0.3,0-0.3,0c-0.1,0-0.2,0-0.2,0c0,0-0.1,0-0.1,0L772.8,117.4z M776.8,125.8
		c-1.3,0-2.1,0.5-2.1,1.3c0,0.7,0.7,1.2,1.8,1.2c0.7,0,1.3-0.2,1.6-0.6c0.2-0.2,0.3-0.5,0.3-1.1c0-0.2,0-0.5,0-0.5
		C777.8,125.9,777.4,125.8,776.8,125.8z"/>
	<path d="M601.8,164.1c0.1-1.1,0.2-2.2,0.2-3.6v-1.9h-4.2c-1.3,0-2,0.1-2.9,0.2v-3.2c1,0.2,1.7,0.2,2.9,0.2h4.2v-0.8l-0.9-1.4h-3.2
		c-1.3,0-2,0.1-2.9,0.2v-3.2c0.9,0.2,1.7,0.2,2.9,0.2h1.6l-3.9-6.2c-0.8-1.3-1.5-2.4-2-2.9h4.8c0.3,0.8,0.6,1.4,1.3,2.7l4.1,7.1
		l4.1-7.1c0.8-1.3,1.1-2,1.3-2.8h4.8c-0.4,0.5-1.5,2.1-2,2.9l-3.9,6.2h1.6c1.3,0,2-0.1,2.9-0.2v3.2c-1-0.2-1.7-0.2-2.9-0.2h-3.3
		l-0.9,1.5v0.8h4.1c1.3,0,2-0.1,2.9-0.2v3.2c-1-0.2-1.7-0.2-2.9-0.2h-4.1v1.9c0,1.6,0.1,2.5,0.2,3.6H601.8z"/>
	<path d="M622.9,164.1c0.2-1.1,0.2-2.2,0.2-3.6v-15.4h-1.3c-1,0-1.8,0.1-2.9,0.2v-3.6c0.9,0.1,1.5,0.2,2.8,0.2h2.6
		c1.4,0,1.8,0,2.9-0.1c-0.2,1.7-0.2,2.9-0.2,4.6v14.2c0,1.5,0.1,2.5,0.2,3.6H622.9z"/>
	<path d="M640.4,164.1c0,2.4-0.6,3.3-2.9,4.2l-1-1.5c1.7-0.5,2.1-1,2.1-2.7h-2.4V160h4.1V164.1z"/>
	<path d="M650.4,164.1c0.2-1.1,0.2-2.2,0.2-3.6v-15.4h-1.3c-1,0-1.8,0.1-2.9,0.2v-3.6c0.9,0.1,1.5,0.2,2.8,0.2h2.6
		c1.4,0,1.8,0,2.9-0.1c-0.2,1.7-0.2,2.9-0.2,4.6v14.2c0,1.5,0.1,2.5,0.2,3.6H650.4z"/>
	<path d="M666.1,162.3c-0.8-0.8-1.5-1.8-1.8-2.8c-0.7-2-1.1-4.2-1.1-6.4c0-3,0.7-6,1.7-7.8c1.5-2.5,4-3.9,7.1-3.9
		c2.4,0,4.4,0.8,5.9,2.3c0.8,0.8,1.5,1.8,1.8,2.8c0.7,2,1.1,4.2,1.1,6.5c0,3.4-0.8,6.5-2.1,8.3c-1.6,2.2-3.9,3.3-6.8,3.3
		C669.6,164.6,667.6,163.8,666.1,162.3z M675,160.2c1.3-1.3,2-3.9,2-7.2c0-3.2-0.7-5.8-2-7.2c-0.7-0.8-1.8-1.2-3.1-1.2
		c-1.3,0-2.3,0.4-3.1,1.4c-1.2,1.5-1.8,3.8-1.8,6.8c0,2.9,0.5,5.4,1.4,6.7c0.9,1.2,2,1.8,3.6,1.8C673.3,161.3,674.3,160.9,675,160.2
		z"/>
	<path d="M686.1,162.3c-0.8-0.8-1.5-1.8-1.8-2.8c-0.7-2-1.1-4.2-1.1-6.4c0-3,0.7-6,1.7-7.8c1.5-2.5,4-3.9,7.1-3.9
		c2.4,0,4.4,0.8,5.9,2.3c0.8,0.8,1.5,1.8,1.8,2.8c0.7,2,1.1,4.2,1.1,6.5c0,3.4-0.8,6.5-2.1,8.3c-1.6,2.2-3.9,3.3-6.8,3.3
		C689.6,164.6,687.5,163.8,686.1,162.3z M695,160.2c1.3-1.3,2-3.9,2-7.2c0-3.2-0.7-5.8-2-7.2c-0.7-0.8-1.8-1.2-3.1-1.2
		c-1.3,0-2.3,0.4-3.1,1.4c-1.2,1.5-1.8,3.8-1.8,6.8c0,2.9,0.5,5.4,1.4,6.7c0.9,1.2,2,1.8,3.6,1.8C693.2,161.3,694.3,160.9,695,160.2
		z"/>
</g>
</svg>
