<?xml version="1.0" encoding="utf-8"?>
<!-- Generator: Adobe Illustrator 22.1.0, SVG Export Plug-In . SVG Version: 6.00 Build 0)  -->
<!DOCTYPE svg PUBLIC "-//W3C//DTD SVG 1.1//EN" "http://www.w3.org/Graphics/SVG/1.1/DTD/svg11.dtd" [
	<!ENTITY st0 "fill:#C8C7C7;">
	<!ENTITY st1 "fill:#040000;">
	<!ENTITY st2 "fill:#1C6BB5;">
	<!ENTITY st3 "fill:#FFFFFF;">
]>
<svg version="1.1" id="レイヤー_1" xmlns="http://www.w3.org/2000/svg" xmlns:xlink="http://www.w3.org/1999/xlink" x="0px"
	 y="0px" viewBox="0 0 713 371.9" style="enable-background:new 0 0 713 371.9;" xml:space="preserve">
<g>
	<g>
		<path style="&st0;" d="M358,207H0V0h358V207z M3,204h352V3H3V204z"/>
		<g>
			<path style="&st1;" d="M120.4,64.2c-0.7,0-1.4,0-2,0.1v-1.5c-0.4,0.4-0.6,0.6-1.3,1.1c-0.5-1.6-0.8-2.1-1.4-3.1
				c1.1-0.8,2.2-1.8,3.1-3c0.9-1.1,1.3-1.9,2-3.6h3.4c0.9,2,1.6,3,3.3,4.5v-1.7c0-1.1,0-1.5-0.1-2.2c0.7,0.1,1.3,0.1,2.5,0.1h3.9
				c1.1,0,2-0.1,2.8-0.2v3.1c-0.7-0.1-1.2-0.1-2.2-0.1v1.7c1.1,0,1.2,0,1.7-0.1c-0.1,0.5-0.1,0.8-0.1,1.7v1.1
				c1.5-2.3,2.7-5.5,2.8-8.1l3.2,0.7c-0.2,0.7-0.2,0.7-0.6,2c-0.1,0.4-0.2,0.5-0.4,1.3h1.9c1.2,0,1.9,0,2.7-0.2V61
				c-0.9-0.1-1.6-0.2-2.6-0.2h-3c-0.5,1.3-0.9,2-1.8,3.5c-0.7-0.9-1.4-1.4-2.3-1.9v1.2c0,0.9,0,1.3,0.1,1.8c-0.6,0-0.9-0.1-1.7-0.1
				v2c1.2,0,1.6,0,2.2-0.1v2.8c-0.6-0.1-1.1-0.1-2.2-0.1h-4.7c-1.1,0-1.6,0-2.3,0.1c0.1-0.7,0.1-1.2,0.1-2.3v-8.2
				c-0.6,0.9-0.9,1.2-1.4,2v2.7c-0.7-0.1-1.3-0.1-2-0.1h-0.5v2.3h0.4c1.3,0,2,0,2.6-0.1v3.2c-0.6-0.1-1.3-0.1-2.6-0.1h-0.4v8.4
				c1.3-0.4,1.7-0.4,3.3-0.9l0.1,2.2c0.4,0.1,0.8,0.1,1.3,0.1h0.3v-5.4c0-1.2,0-1.7-0.1-2.5c0.7,0.1,1.4,0.1,2.7,0.1h10.4
				c1.3,0,1.9,0,2.7-0.1c-0.1,0.7-0.1,1.4-0.1,2.5v5.4h0.5c0.5,0,0.9,0,1.3-0.1v3.4c-1.1-0.1-2.3-0.2-3.6-0.2h-11.9
				c-1.3,0-2.5,0.1-3.5,0.2v-2.6c-3.2,1-3.2,1-6.6,1.9c-1.9,0.5-2.5,0.6-3.2,0.9l-0.5-3.4c0.7,0,2.1-0.3,4.3-0.7v-9.1h-1.2
				c-1.1,0-2.2,0.1-3,0.2v-3.3c0.8,0.1,1.9,0.2,3,0.2h1.2v-2.3H120.4z M117.7,77.7c-0.2-2.3-0.6-4-1.2-6.1l2.5-0.8
				c0.7,2.5,1,4.2,1.2,6.1L117.7,77.7z M124.3,61.5c0.7,0,1.1,0,1.5,0c-1.3-1.2-2-2.3-3.2-4.4c-0.8,1.6-1.6,2.9-2.9,4.5
				c0.3,0,0.4,0,0.7,0H124.3z M124.2,75.8c0.5-2.1,0.7-2.8,0.8-5.2l2.3,0.5c-0.2,2-0.4,2.7-1,5.2L124.2,75.8z M132.1,59.2v-1.7h-1.8
				v1.7H132.1z M133.5,63.2v-1.7h-3.1v1.7H133.5z M130.4,65.5v2h1.8v-2H130.4z M131.4,79.2h1.6v-4.9h-1.6V79.2z M135.5,79.2h1.5
				v-4.9h-1.5V79.2z M137.8,65.3c0.6,0.1,1.1,0.1,2.1,0.1h2.6c1.3,0,1.9,0,2.6-0.1v3.3c-0.7-0.1-1.5-0.1-2.5-0.1H140
				c-1,0-1.7,0-2.2,0.1V65.3z M139.6,79.2h1.6v-4.9h-1.6V79.2z"/>
			<path style="&st1;" d="M155.4,78.8c-1.4,0-2.3,0-3.4,0.1c0.1-0.8,0.1-1.8,0.1-3.3v-5.1c0-1.3,0-2.2-0.1-3.2
				c1,0.1,1.6,0.1,3.6,0.1h14.9c1.8,0,2.6,0,3.6-0.1c-0.1,1-0.1,1.8-0.1,3.2v5.1c0,1.8,0,2.7,0.1,3.3c-1-0.1-1.9-0.1-3.1-0.1H169
				c2.4,1.1,4.6,1.6,8.6,2c-0.7,0.9-1.2,1.8-1.6,2.9c-2.5-0.3-3.6-0.5-5.5-1.2c-2-0.6-3-1-5.1-2.1l1.7-1.6h-8.7l1.9,1.6
				c-3.6,1.7-5.8,2.3-10.3,2.9c-0.5-1.2-0.9-1.9-1.9-3c3.8-0.2,6.6-0.7,8.6-1.5H155.4z M161,55.8c0-0.9,0-1.6-0.2-2.3h3.8
				c-0.1,0.7-0.2,1.4-0.2,2.3v1.2h3.4c0.9-1.2,1.3-1.9,2-3.3l3.2,1.2c-0.8,1.2-1.1,1.5-1.6,2.1h2.2c1.3,0,2.4,0,3.1-0.1
				c-0.1,1-0.1,1.7-0.1,2.9v1.7c0,0.8,0,1.4,0.1,2.1h-3.3v-3.9h-21.2v3.9H149c0.1-0.8,0.1-1.4,0.1-2.2v-1.8c0-1.1,0-1.7-0.1-2.7
				c1,0.1,1.8,0.1,3.3,0.1h2c-0.5-0.8-0.8-1.1-1.7-2l3.1-1.1c0.9,1,1.2,1.5,2.1,3.1h3.2V55.8z M171.7,64.4c0,0.8,0,1.3,0.1,2.1
				c-0.9-0.1-1.4-0.1-2.9-0.1H157c-1.1,0-1.9,0-2.9,0.1c0.1-0.7,0.1-1.2,0.1-2v-2c0-1,0-1.5-0.1-2c1,0.1,1.8,0.1,3.1,0.1h11.5
				c1.2,0,2.2,0,3.1-0.1c-0.1,0.7-0.1,1.2-0.1,2V64.4z M155.4,70.6h15.1v-1h-15.1V70.6z M155.4,73.6h15.1v-1.1h-15.1V73.6z
				 M155.4,76.6h15.1v-1.1h-15.1V76.6z M157.4,62.8v1.5h11.1v-1.5H157.4z"/>
			<path style="&st1;" d="M192.7,74.5c-0.2,0.4-0.2,0.6-0.4,1.1c-1.3-1.5-2.2-2.8-3.2-4.5c0.2,2.2,0.2,2.6,0.2,3.6V80
				c0,1.5,0,2.4,0.2,3.3h-3.7c0.2-1,0.2-2,0.2-3.4v-4.1c0-1.3,0.1-2.8,0.1-3.8c-1.4,3.5-2.5,5.3-4.2,7.2c-0.4-1.2-0.9-2.4-1.6-3.3
				c1.3-1.4,2.4-2.8,3.5-4.7c0.7-1.2,0.8-1.5,1.7-3.6h-1.7c-1.4,0-2.1,0-2.9,0.2v-3.4c0.7,0.1,1.4,0.2,2.9,0.2h2.1v-7.6
				c0-1.4,0-2.4-0.2-3.1h3.6c-0.1,0.8-0.2,1.6-0.2,3.1v7.6h1.5c1.2,0,1.8,0,2.5-0.1v3.3c-0.8-0.1-1.4-0.1-2.5-0.1h-1.2
				c1.2,2,2.4,3.5,4.1,4.9c-0.4,0.8-0.6,1.1-0.9,1.8c0.7,0,1.9-0.2,2.9-0.4l7.5-1.7V57.4c0-1.9,0-2.7-0.2-3.7h3.9
				c-0.2,1.1-0.2,1.9-0.2,3.7v13.9c1.3-0.3,1.9-0.5,2.7-0.8l0.7,3.6c-0.9,0.1-1.8,0.3-3.1,0.6l-0.3,0.1v4.7c0,1.8,0,2.8,0.2,3.8
				h-3.9c0.2-1.1,0.2-1.9,0.2-3.8v-3.9l-6.8,1.5c-1.4,0.3-2.3,0.6-3,0.8L192.7,74.5z M183.5,55.4c1,2.8,1.5,4.5,2,6.9l-2.7,1.2
				c-0.5-2.9-1.1-4.9-2-6.8L183.5,55.4z M194.5,56.6c-0.8,2.9-1.2,4.1-2.6,6.9l-2.3-1.2c1-2.1,1.6-3.8,2.2-6.9L194.5,56.6z
				 M196.1,63.8c2.5,1.7,3.9,2.9,5.6,4.7l-2.2,2.6c-2.2-2.4-3.3-3.4-5.6-4.9L196.1,63.8z M197,55.8c2.8,1.9,3.8,2.8,5.6,4.7
				l-2.2,2.7c-2.4-2.5-2.5-2.7-5.7-4.9L197,55.8z"/>
			<path style="&st1;" d="M222.1,65.4c-1.3,0-2.2,0-3.1,0.2v-1.5c-1.8,1.1-3.1,1.8-5.2,2.6c-0.8-1.7-1-2.1-1.9-3.3
				c6-2.1,10.8-5.5,13.1-9.4h4c1.3,1.9,2.7,3.3,4.9,4.9c2.6,2,5,3.2,8.5,4.3c-0.8,1.2-1.2,2.2-1.7,3.5c-2.5-1.1-3.6-1.6-5.6-2.8v1.6
				c-0.9-0.1-1.8-0.2-3.1-0.2h-3.3v3.1h8.1c1.7,0,2.7-0.1,3.5-0.2v3.6c-0.9-0.1-2-0.2-3.5-0.2h-8.1v7.2h8.7c1.6,0,2.7-0.1,3.8-0.2
				v3.7c-1.2-0.2-2.5-0.2-3.8-0.2H217c-1.5,0-2.6,0.1-4,0.2v-3.7c1.2,0.1,2.3,0.2,4,0.2h8v-7.2h-7.6c-1.4,0-2.5,0.1-3.5,0.2v-3.6
				c0.9,0.1,1.9,0.2,3.5,0.2h7.6v-3.1H222.1z M219.8,72c1.1,1.9,1.7,3.1,2.6,5.3l-3.2,1.3c-0.7-2-1.5-3.7-2.5-5.3L219.8,72z
				 M222,62.4l9.9,0c0.3,0,0.3,0,0.8,0c-2.5-1.8-4.1-3.3-5.8-5.4c-1.6,2.2-2.9,3.5-5.6,5.4H222z M237.3,73.3
				c-0.4,0.7-0.4,0.7-1.6,3.1c-0.1,0.2-0.2,0.4-1.3,2.3l-3-1.1c1-1.6,1.8-3.3,2.5-5.5L237.3,73.3z"/>
			<path style="&st1;" d="M68.1,123.3c-2.1-2.4-3-3.8-3.9-6c-0.9-2.2-1.3-4.5-1.3-6.9c0-2.4,0.4-4.6,1.3-6.9c0.9-2.3,1.8-3.6,3.9-6
				h2.5c-2.4,2.4-3.3,3.6-4.3,5.8c-1,2.2-1.5,4.6-1.5,7.1s0.5,4.9,1.5,7.1c1,2.2,1.9,3.4,4.3,5.8H68.1z"/>
			<path style="&st1;" d="M84.8,99.3c-0.3,0.5-0.5,1.1-0.8,2c-2,6.7-3.9,12.1-5.8,16.4c3.7-0.3,10.3-1.1,13.6-1.8
				c-1.5-2.9-2.9-5.3-4.3-7.3l1.7-1c2.2,3.1,5,8.1,7,12.7l-2,1.1c-0.6-1.6-1-2.5-1.7-3.8c-4.7,0.9-10.3,1.7-17.2,2.3
				c-1.1,0.1-1.8,0.2-2.4,0.3l-0.3-2.3c0.6,0,0.6,0,0.8,0c0.2,0,1.7-0.1,2.4-0.1c1.7-3.9,2.9-6.9,4.2-11.1c1.4-4.2,2-6.5,2.2-8.1
				L84.8,99.3z"/>
			<path style="&st1;" d="M103.5,108.6c4.4-0.8,11.3-3.5,13.1-5.4l1.4,1.9c-0.4,0.2-0.6,0.3-1.2,0.6c-4.2,2.3-8.7,3.9-13.4,4.7v4.1
				l0,0.2c0,0.1,0,0.2,0,0.3c0,2,0.1,2.6,0.6,3.1c0.4,0.4,1,0.6,2.1,0.7c0.9,0.1,2.2,0.2,3.3,0.2c1.7,0,4.2-0.2,6.4-0.4
				c1.2-0.1,1.7-0.3,2.8-0.6l0.2,2.2c-0.4,0-0.5,0-0.9,0.1l-0.4,0l-1.3,0.1c-1.8,0.2-5.5,0.4-7.4,0.4c-3.3,0-5.2-0.3-6.1-1.1
				c-0.7-0.6-1-1.4-1.1-2.7c0-0.4-0.1-1-0.1-2.2V102c0-1.2,0-1.7-0.1-2.3h2.3c-0.1,0.7-0.1,1.1-0.1,2.4V108.6z M117.5,98.2
				c1.3,1.5,2,2.7,2.9,4.3l-1.4,0.8c-0.7-1.5-2-3.6-2.9-4.5L117.5,98.2z M120.7,96.7c1.3,1.5,2,2.6,2.9,4.4l-1.4,0.8
				c-0.6-1.3-1.8-3.1-2.9-4.4L120.7,96.7z"/>
			<path style="&st1;" d="M145.2,100.7c-0.3,0.1-0.3,0.1-0.9,0.3c-2,0.7-3.9,1.3-6.2,1.7c0,2.7-0.1,4.5-0.1,5.6h6.7
				c1.6,0,2,0,2.9-0.2v2.1c-1-0.1-1.5-0.1-2.9-0.1h-6.9c-0.2,2.6-0.8,4.4-1.8,6.2c-1.5,2.4-3.6,4.2-7,5.9c-0.5-0.8-0.8-1.1-1.5-1.7
				c3.1-1.2,5.2-2.7,6.6-4.8c1-1.5,1.5-3.1,1.7-5.5H128c-1.4,0-1.9,0-2.9,0.1v-2.1c0.9,0.2,1.3,0.2,2.9,0.2h8
				c0.1-1.2,0.1-2.8,0.1-5.3c-1.8,0.4-4.2,0.6-8.3,0.8c-0.2-0.7-0.3-1-0.7-1.9c0.8,0.1,1.2,0.1,1.6,0.1c3.6,0,8.2-0.7,11.8-1.8
				c1.6-0.5,2.3-0.8,3.2-1.3L145.2,100.7z"/>
			<path style="&st1;" d="M166.5,105.6c-0.3,4.1-0.6,5.8-1.5,7.9c-1,2.3-2.6,4.3-4.8,5.9c-1.2,0.9-2.3,1.5-4.3,2.5
				c-0.4-0.9-0.6-1.2-1.4-1.8c2.4-0.9,4.2-2,5.9-3.6c2.6-2.5,3.8-5.6,4-10.8h-7.7c-1.6,2.5-2.9,4.1-4.9,5.9
				c-0.5-0.6-0.8-0.8-1.7-1.3c2.6-2,4.4-4.4,6-7.7c0.8-1.8,1.2-2.8,1.4-3.9l2.1,0.7c-0.3,0.5-0.3,0.6-0.7,1.5
				c-0.6,1.5-1.1,2.5-1.5,3.1c0.4,0,0.4,0,13,0c1.8,0,2.3,0,3.4-0.2v2c-0.8-0.1-0.8-0.1-3.5-0.1H166.5z"/>
			<path style="&st1;" d="M181.7,104.3c-1.4,0-2.2,0-3,0.1v-1.8c0.8,0.1,1.5,0.2,3,0.2h1.1c-0.6-1.3-1.2-2.2-2.3-3.6l1.7-0.7
				c1,1.5,1.8,2.8,2.5,4.3h2.1c0.6-1.7,1-3.9,1-5c0-0.1,0-0.1,0-0.3l2,0.2c-0.1,0.3-0.2,0.8-0.4,1.4c-0.5,2-0.6,2.4-1,3.6h3.9
				c1.4-1.7,2.2-2.8,2.9-4.3l1.8,0.7c-1.2,1.8-1.8,2.6-2.7,3.7h2.3c1.6,0,2.3,0,3.1-0.2v1.8c-0.9-0.1-1.6-0.1-3.1-0.1h-5
				c1,1.8,1.3,2.4,2.2,3.6h4.5c1.6,0,2.3,0,3.1-0.2v1.9c-0.9-0.1-1.8-0.2-3.1-0.2h-3.1c2.1,2.1,4.1,3.4,6.9,4.6
				c-0.6,0.6-0.8,0.9-1.2,1.7c-3.4-1.9-5.6-3.6-7.9-6.3h-8.3c-1.9,2.4-4.2,4.3-7.5,6.2c-0.3-0.6-0.6-1-1.2-1.5
				c3-1.4,4.8-2.7,6.7-4.7h-3c-1.5,0-2.3,0.1-3,0.2v-1.9c0.7,0.1,1.5,0.2,3,0.2h4.3c0.9-1.1,1.5-2.2,2.1-3.6H181.7z M184.9,114.4
				c-1.3,0-2.2,0.1-2.9,0.2v-1.8c0.7,0.1,1.5,0.1,2.7,0.1h8.3c1.3,0,2.3,0,2.9-0.1c-0.1,0.5-0.1,0.6-0.1,2c-0.2,3.4-0.5,5.7-1,6.6
				c-0.4,0.8-1.1,1.1-2.6,1.1c-1,0-2.2-0.1-3.5-0.2c-0.1-0.8-0.1-1.2-0.4-1.8c1.7,0.3,2.8,0.3,3.8,0.3c0.9,0,1.2-0.3,1.4-1.1
				c0.3-1.4,0.4-2.5,0.5-5.2h-5.9c-0.6,2.5-1.2,3.8-2.5,5.2c-1.5,1.6-3.3,2.7-6.2,3.6c-0.4-0.8-0.6-1.1-1.2-1.6
				c2.7-0.8,4.5-1.7,5.9-3c1.2-1.1,1.6-1.9,2.2-4.3H184.9z M188,104.3c-0.6,1.4-1.1,2.4-1.9,3.6h6c-0.8-1.1-1.1-1.7-2-3.6H188z"/>
			<path style="&st1;" d="M210.7,101.6c-1.7,0.4-2.6,0.6-4.7,1c-0.2-0.6-0.4-1-0.8-1.6c3.4-0.4,5.7-1,8.9-2.1c1-0.3,1.3-0.5,1.8-0.8
				l1.3,1.5c-0.4,0.2-0.4,0.2-1.1,0.4c-1.3,0.5-2.3,0.8-3.7,1.2v4.4h2.7c1,0,1.7,0,2.4-0.1v1.8c-0.7-0.1-1.4-0.1-2.5-0.1h-2.6
				c0.5,1.2,0.7,1.6,1.3,2.5c0.9,1.3,1.8,2.2,3.5,3.7c-0.5,0.5-0.7,0.9-1,1.5c-2.1-2.2-2.9-3.3-4-5.5c0.1,1.6,0.1,3.5,0.1,4.7v5.8
				c0,1.7,0,2.6,0.2,3.4h-2.1c0.1-1,0.2-1.9,0.2-3.4v-5.5c0-1.6,0-2.4,0.1-4.8c-1.3,3.5-2.7,5.8-5.2,8.5c-0.4-0.7-0.7-1.1-1.1-1.6
				c1.7-1.6,2.7-2.9,3.8-4.7c0.9-1.5,1.7-3.3,2.2-4.7h-2.7c-1.1,0-1.9,0.1-2.6,0.2v-1.9c0.6,0.1,1.3,0.2,2.7,0.2h2.9V101.6z
				 M221.6,99.8c-0.1,0.9-0.1,1.6-0.1,3.2v10.8c0,1.9,0,2.5,0.1,3.2h-2.1c0.1-0.8,0.1-1.4,0.1-3.2V103c0-1.6-0.1-2.3-0.2-3.2H221.6z
				 M228.5,98.2c-0.1,0.9-0.2,2-0.2,3.5v18.4c0,2-0.7,2.5-3.3,2.5c-0.8,0-2,0-2.9-0.1c-0.1-0.7-0.3-1.1-0.6-1.8
				c1.5,0.2,2.7,0.3,3.6,0.3c1.1,0,1.3-0.1,1.3-0.8v-18.3c0-1.6-0.1-2.6-0.2-3.5H228.5z"/>
			<path style="&st1;" d="M245.7,119.1c0,1.5,0,2.4,0.1,3.1h-2c0.1-0.7,0.1-1.6,0.1-3.1v-5.3h-7.7c-0.4,4.2-1.1,6.5-3,9.2
				c-0.6-0.6-0.9-0.8-1.6-1.2c1.2-1.6,1.8-2.8,2.3-4.7c0.6-2.6,0.9-6.7,0.9-13.6c0-2.8,0-3.4-0.1-4.6c0.8,0.1,1.7,0.1,3.1,0.1h15.1
				c1.4,0,2.2,0,3-0.1c-0.1,0.8-0.1,1.5-0.1,2.7v18.8c0,1.8-0.6,2.2-3.4,2.2c-0.9,0-2.3-0.1-3.5-0.1c-0.1-0.6-0.2-1.1-0.4-1.8
				c1.6,0.2,3,0.3,4,0.3c1.2,0,1.5-0.1,1.5-0.8v-6.3h-8.2V119.1z M236.6,107.2c0,0.8,0,1.5,0,1.8c0,1.7,0,1.8-0.1,3.1h7.6v-5H236.6z
				 M244,100.7h-7.4v3.3l0,1.6h7.4V100.7z M253.9,105.6v-4.9h-8.2v4.9H253.9z M245.7,112.2h8.2v-5h-8.2V112.2z"/>
			<path style="&st1;" d="M261,102c0-1.2,0-2-0.1-2.7c0.6,0.1,0.6,0.1,2.6,0.1h2.1c1.4,0,1.9,0,2.5-0.1c-0.1,0.7-0.1,1.1-0.1,2.7
				v15.3c0,1.3,0,2.1,0.1,2.7h-1.7v-1.4h-3.7v2.3h-1.8c0.1-0.8,0.2-1.8,0.2-3V102z M262.7,107.9h3.7V101h-3.7V107.9z M262.7,117.2
				h3.7v-7.7h-3.7V117.2z M272.5,102.7c-1,0-2,0.1-2.7,0.1V101c0.7,0.1,1.5,0.2,2.7,0.2h3v-0.9c0-0.9-0.1-1.5-0.2-2.3h2.1
				c-0.1,0.7-0.2,1.3-0.2,2.3v0.9h4c1.1,0,1.9-0.1,2.7-0.2v1.8c-0.7-0.1-1.6-0.1-2.7-0.1h-4v3.6h5c1.2,0,2.1-0.1,2.8-0.2v1.9
				c-0.8-0.1-1.6-0.2-2.7-0.2h-0.9v3.3h0.9c1.2,0,2-0.1,2.7-0.2v1.9c-0.8-0.1-1.6-0.2-2.7-0.2h-0.9v7.8c0,1.8-0.6,2.2-3.2,2.2
				c-0.4,0-0.9,0-2.5-0.1c-0.1-0.7-0.2-1.2-0.4-1.8c1.1,0.2,2.4,0.3,3.2,0.3c1.1,0,1.3-0.1,1.3-0.7v-7.7h-7.9c-1,0-2,0.1-2.8,0.2
				V111c0.7,0.1,1.5,0.2,2.8,0.2h7.9v-3.3h-7.9c-1.1,0-2,0.1-2.8,0.2v-1.9c0.7,0.1,1.6,0.2,2.8,0.2h3.7v-3.6H272.5z M274.6,119.5
				c-1.5-2.1-2.2-3.1-3.9-4.7l1.4-1c1.7,1.6,2.6,2.6,4,4.6L274.6,119.5z"/>
			<path style="&st1;" d="M287.4,123.3c2.4-2.4,3.3-3.6,4.3-5.8c1-2.2,1.5-4.6,1.5-7.1s-0.5-4.9-1.5-7.1c-1-2.2-1.9-3.4-4.3-5.8h2.5
				c2.1,2.4,3,3.8,3.9,6c0.9,2.2,1.3,4.5,1.3,6.9c0,2.4-0.4,4.6-1.3,6.9c-0.9,2.3-1.8,3.6-3.9,6H287.4z"/>
		</g>
		<g>
			<path style="&st1;" d="M165.2,168.9c0.2-1.2,0.3-2.5,0.3-4.1v-2.2h-4.8c-1.4,0-2.3,0.1-3.4,0.3v-3.6c1.1,0.2,1.9,0.3,3.4,0.3h4.8
				v-1l-1.1-1.6h-3.7c-1.5,0-2.3,0.1-3.4,0.3v-3.6c1.1,0.2,1.9,0.3,3.4,0.3h1.8l-4.4-7c-0.9-1.4-1.8-2.7-2.2-3.3h5.5
				c0.3,0.9,0.6,1.6,1.5,3.1l4.7,8.1l4.7-8.1c0.9-1.5,1.3-2.3,1.5-3.2h5.5c-0.4,0.5-1.7,2.4-2.3,3.3l-4.4,7h1.8
				c1.4,0,2.3-0.1,3.4-0.3v3.6c-1.1-0.2-2-0.3-3.4-0.3h-3.7l-1.1,1.7v0.9h4.7c1.4,0,2.2-0.1,3.4-0.3v3.6c-1.1-0.2-2-0.3-3.4-0.3
				h-4.7v2.2c0,1.8,0.1,2.8,0.3,4.1H165.2z"/>
			<path style="&st1;" d="M184.5,166.8c-1-1-1.7-2.1-2.1-3.2c-0.8-2.3-1.2-4.8-1.2-7.4c0-3.4,0.8-6.9,2-8.9c1.7-2.9,4.6-4.4,8.2-4.4
				c2.7,0,5.1,0.9,6.8,2.6c1,1,1.7,2.1,2.1,3.2c0.8,2.2,1.2,4.8,1.2,7.4c0,3.9-0.9,7.4-2.4,9.5c-1.8,2.5-4.4,3.8-7.8,3.8
				C188.5,169.4,186.2,168.5,184.5,166.8z M194.7,164.4c1.4-1.5,2.2-4.5,2.2-8.2c0-3.7-0.8-6.6-2.2-8.2c-0.8-0.9-2-1.3-3.5-1.3
				c-1.5,0-2.7,0.5-3.6,1.6c-1.4,1.7-2.1,4.3-2.1,7.8c0,3.4,0.6,6.1,1.6,7.6c1,1.4,2.3,2.1,4.1,2.1
				C192.7,165.7,193.9,165.2,194.7,164.4z"/>
		</g>
	</g>
	<g>
		<path style="&st0;" d="M713,207H355V0h358V207z M358,204h352V3H358V204z"/>
		<g>
			<path style="&st1;" d="M451.6,74c0.4,1.5,0.7,2,1.5,2.6c1.1,0.8,2.3,1.2,3.9,1.2c3.2,0,5.2-1.6,5.2-4.2c0-1.5-0.6-2.7-1.8-3.4
				c-0.8-0.4-2.3-0.8-3.7-0.8c-1.4,0-2.3,0-3.4,0.2v-4c1,0.1,1.7,0.2,3.1,0.2c3.2,0,5.1-1.5,5.1-3.9c0-2.2-1.5-3.5-4.2-3.5
				c-1.6,0-2.7,0.4-3.5,1c-0.6,0.6-1,1.2-1.3,2.5l-4.6-0.8c0.8-2.4,1.5-3.5,3-4.6c1.6-1.2,3.7-1.8,6.3-1.8c5.3,0,8.8,2.7,8.8,6.8
				c0,1.9-0.8,3.7-2.2,4.7c-0.7,0.5-1.4,0.8-3.1,1.2c2.3,0.4,3.5,0.9,4.6,2.1c1.1,1.2,1.5,2.5,1.5,4.4c0,1.7-0.7,3.5-1.9,4.7
				c-1.8,1.7-4.4,2.6-7.9,2.6c-3.7,0-6.3-1-8.1-3c-0.8-0.9-1.2-1.7-1.8-3.6L451.6,74z"/>
			<path style="&st1;" d="M471,59.5c0-1.8-0.1-2.8-0.3-4.2c1.3,0.1,2,0.1,4.1,0.1h5.8c4,0,6.6,0.8,8.6,2.8c2.3,2.2,3.6,5.5,3.6,9.7
				c0,4.4-1.3,7.8-3.8,10.2c-2,1.9-4.6,2.8-8.4,2.8h-5.8c-2,0-2.8,0-4.1,0.1c0.2-1.3,0.3-2.3,0.3-4.2V59.5z M480.4,77.1
				c2.6,0,4.3-0.6,5.7-2c1.5-1.6,2.3-4.1,2.3-7.1c0-3-0.7-5.3-2.2-6.8c-1.3-1.4-3-1.9-5.8-1.9h-5.1v17.9H480.4z"/>
			<path style="&st1;" d="M499.7,64.2c-0.7,0-1.4,0-2,0.1v-1.5c-0.4,0.4-0.6,0.6-1.3,1.1c-0.5-1.6-0.8-2.1-1.4-3.1
				c1.1-0.8,2.2-1.8,3.1-3c0.9-1.1,1.3-1.9,2-3.6h3.4c0.9,2,1.6,3,3.3,4.5v-1.7c0-1.1,0-1.5-0.1-2.2c0.7,0.1,1.3,0.1,2.5,0.1h3.9
				c1.1,0,2-0.1,2.8-0.2v3.1c-0.7-0.1-1.2-0.1-2.2-0.1v1.7c1.1,0,1.2,0,1.7-0.1c-0.1,0.5-0.1,0.8-0.1,1.7v1.1
				c1.5-2.3,2.7-5.5,2.8-8.1l3.2,0.7c-0.2,0.7-0.2,0.7-0.6,2c-0.1,0.4-0.2,0.5-0.4,1.3h1.9c1.2,0,1.9,0,2.7-0.2V61
				c-0.9-0.1-1.6-0.2-2.6-0.2h-3c-0.5,1.3-0.9,2-1.8,3.5c-0.7-0.9-1.4-1.4-2.3-1.9v1.2c0,0.9,0,1.3,0.1,1.8c-0.6,0-0.9-0.1-1.7-0.1
				v2c1.2,0,1.6,0,2.2-0.1v2.8c-0.6-0.1-1.1-0.1-2.2-0.1h-4.7c-1.1,0-1.6,0-2.3,0.1c0.1-0.7,0.1-1.2,0.1-2.3v-8.2
				c-0.6,0.9-0.9,1.2-1.4,2v2.7c-0.7-0.1-1.3-0.1-2-0.1H503v2.3h0.4c1.3,0,2,0,2.6-0.1v3.2c-0.6-0.1-1.3-0.1-2.6-0.1H503v8.4
				c1.3-0.4,1.7-0.4,3.3-0.9l0.1,2.2c0.4,0.1,0.8,0.1,1.3,0.1h0.3v-5.4c0-1.2,0-1.7-0.1-2.5c0.7,0.1,1.4,0.1,2.7,0.1h10.4
				c1.3,0,1.9,0,2.7-0.1c-0.1,0.7-0.1,1.4-0.1,2.5v5.4h0.5c0.5,0,0.9,0,1.3-0.1v3.4c-1.1-0.1-2.3-0.2-3.6-0.2h-11.9
				c-1.3,0-2.5,0.1-3.5,0.2v-2.6c-3.2,1-3.2,1-6.6,1.9c-1.9,0.5-2.5,0.6-3.2,0.9l-0.5-3.4c0.7,0,2.1-0.3,4.3-0.7v-9.1h-1.2
				c-1.1,0-2.2,0.1-3,0.2v-3.3c0.8,0.1,1.9,0.2,3,0.2h1.2v-2.3H499.7z M497,77.7c-0.2-2.3-0.6-4-1.2-6.1l2.5-0.8
				c0.7,2.5,1,4.2,1.2,6.1L497,77.7z M503.6,61.5c0.7,0,1.1,0,1.5,0c-1.3-1.2-2-2.3-3.2-4.4c-0.8,1.6-1.6,2.9-2.9,4.5
				c0.3,0,0.4,0,0.7,0H503.6z M503.4,75.8c0.5-2.1,0.7-2.8,0.8-5.2l2.3,0.5c-0.2,2-0.4,2.7-1,5.2L503.4,75.8z M511.4,59.2v-1.7h-1.8
				v1.7H511.4z M512.8,63.2v-1.7h-3.1v1.7H512.8z M509.6,65.5v2h1.8v-2H509.6z M510.6,79.2h1.6v-4.9h-1.6V79.2z M514.8,79.2h1.5
				v-4.9h-1.5V79.2z M517.1,65.3c0.6,0.1,1.1,0.1,2.1,0.1h2.6c1.3,0,1.9,0,2.6-0.1v3.3c-0.7-0.1-1.5-0.1-2.5-0.1h-2.6
				c-1,0-1.7,0-2.2,0.1V65.3z M518.9,79.2h1.6v-4.9h-1.6V79.2z"/>
			<path style="&st1;" d="M534.6,78.8c-1.4,0-2.3,0-3.4,0.1c0.1-0.8,0.1-1.8,0.1-3.3v-5.1c0-1.3,0-2.2-0.1-3.2
				c1,0.1,1.6,0.1,3.6,0.1h14.9c1.8,0,2.6,0,3.6-0.1c-0.1,1-0.1,1.8-0.1,3.2v5.1c0,1.8,0,2.7,0.1,3.3c-1-0.1-1.9-0.1-3.1-0.1h-1.8
				c2.4,1.1,4.6,1.6,8.6,2c-0.7,0.9-1.2,1.8-1.6,2.9c-2.5-0.3-3.6-0.5-5.5-1.2c-2-0.6-3-1-5.1-2.1l1.7-1.6h-8.7l1.9,1.6
				c-3.6,1.7-5.8,2.3-10.3,2.9c-0.5-1.2-0.9-1.9-1.9-3c3.8-0.2,6.6-0.7,8.6-1.5H534.6z M540.3,55.8c0-0.9,0-1.6-0.2-2.3h3.8
				c-0.1,0.7-0.2,1.4-0.2,2.3v1.2h3.4c0.9-1.2,1.3-1.9,2-3.3l3.2,1.2c-0.8,1.2-1.1,1.5-1.6,2.1h2.2c1.3,0,2.4,0,3.1-0.1
				c-0.1,1-0.1,1.7-0.1,2.9v1.7c0,0.8,0,1.4,0.1,2.1h-3.3v-3.9h-21.2v3.9h-3.3c0.1-0.8,0.1-1.4,0.1-2.2v-1.8c0-1.1,0-1.7-0.1-2.7
				c1,0.1,1.8,0.1,3.3,0.1h2c-0.5-0.8-0.8-1.1-1.7-2l3.1-1.1c0.9,1,1.2,1.5,2.1,3.1h3.2V55.8z M551,64.4c0,0.8,0,1.3,0.1,2.1
				c-0.9-0.1-1.4-0.1-2.9-0.1h-11.8c-1.1,0-1.9,0-2.9,0.1c0.1-0.7,0.1-1.2,0.1-2v-2c0-1,0-1.5-0.1-2c1,0.1,1.8,0.1,3.1,0.1H548
				c1.2,0,2.2,0,3.1-0.1c-0.1,0.7-0.1,1.2-0.1,2V64.4z M534.7,70.6h15.1v-1h-15.1V70.6z M534.7,73.6h15.1v-1.1h-15.1V73.6z
				 M534.7,76.6h15.1v-1.1h-15.1V76.6z M536.7,62.8v1.5h11.1v-1.5H536.7z"/>
			<path style="&st1;" d="M572,74.5c-0.2,0.4-0.2,0.6-0.4,1.1c-1.3-1.5-2.2-2.8-3.2-4.5c0.2,2.2,0.2,2.6,0.2,3.6V80
				c0,1.5,0,2.4,0.2,3.3h-3.7c0.2-1,0.2-2,0.2-3.4v-4.1c0-1.3,0.1-2.8,0.1-3.8c-1.4,3.5-2.5,5.3-4.2,7.2c-0.4-1.2-0.9-2.4-1.6-3.3
				c1.3-1.4,2.4-2.8,3.5-4.7c0.7-1.2,0.8-1.5,1.7-3.6h-1.7c-1.4,0-2.1,0-2.9,0.2v-3.4c0.7,0.1,1.4,0.2,2.9,0.2h2.1v-7.6
				c0-1.4,0-2.4-0.2-3.1h3.6c-0.1,0.8-0.2,1.6-0.2,3.1v7.6h1.5c1.2,0,1.8,0,2.5-0.1v3.3c-0.8-0.1-1.4-0.1-2.5-0.1h-1.2
				c1.2,2,2.4,3.5,4.1,4.9c-0.4,0.8-0.6,1.1-0.9,1.8c0.7,0,1.9-0.2,2.9-0.4l7.5-1.7V57.4c0-1.9,0-2.7-0.2-3.7h3.9
				c-0.2,1.1-0.2,1.9-0.2,3.7v13.9c1.3-0.3,1.9-0.5,2.7-0.8l0.7,3.6c-0.9,0.1-1.8,0.3-3.1,0.6l-0.3,0.1v4.7c0,1.8,0,2.8,0.2,3.8
				h-3.9c0.2-1.1,0.2-1.9,0.2-3.8v-3.9l-6.8,1.5c-1.4,0.3-2.3,0.6-3,0.8L572,74.5z M562.8,55.4c1,2.8,1.5,4.5,2,6.9l-2.7,1.2
				c-0.5-2.9-1.1-4.9-2-6.8L562.8,55.4z M573.7,56.6c-0.8,2.9-1.2,4.1-2.6,6.9l-2.3-1.2c1-2.1,1.6-3.8,2.2-6.9L573.7,56.6z
				 M575.3,63.8c2.5,1.7,3.9,2.9,5.6,4.7l-2.2,2.6c-2.2-2.4-3.3-3.4-5.6-4.9L575.3,63.8z M576.3,55.8c2.8,1.9,3.8,2.8,5.6,4.7
				l-2.2,2.7c-2.4-2.5-2.5-2.7-5.7-4.9L576.3,55.8z"/>
			<path style="&st1;" d="M601.4,65.4c-1.3,0-2.2,0-3.1,0.2v-1.5c-1.8,1.1-3.1,1.8-5.2,2.6c-0.8-1.7-1-2.1-1.9-3.3
				c6-2.1,10.8-5.5,13.1-9.4h4c1.3,1.9,2.7,3.3,4.9,4.9c2.6,2,5,3.2,8.5,4.3c-0.8,1.2-1.2,2.2-1.7,3.5c-2.5-1.1-3.6-1.6-5.6-2.8v1.6
				c-0.9-0.1-1.8-0.2-3.1-0.2h-3.3v3.1h8.1c1.7,0,2.7-0.1,3.5-0.2v3.6c-0.9-0.1-2-0.2-3.5-0.2h-8.1v7.2h8.7c1.6,0,2.7-0.1,3.8-0.2
				v3.7c-1.2-0.2-2.5-0.2-3.8-0.2h-20.2c-1.5,0-2.6,0.1-4,0.2v-3.7c1.2,0.1,2.3,0.2,4,0.2h8v-7.2h-7.6c-1.4,0-2.5,0.1-3.5,0.2v-3.6
				c0.9,0.1,1.9,0.2,3.5,0.2h7.6v-3.1H601.4z M599.1,72c1.1,1.9,1.7,3.1,2.6,5.3l-3.2,1.3c-0.7-2-1.5-3.7-2.5-5.3L599.1,72z
				 M601.3,62.4l9.9,0c0.3,0,0.3,0,0.8,0c-2.5-1.8-4.1-3.3-5.8-5.4c-1.6,2.2-2.9,3.5-5.6,5.4H601.3z M616.6,73.3
				c-0.4,0.7-0.4,0.7-1.6,3.1c-0.1,0.2-0.2,0.4-1.3,2.3l-3-1.1c1-1.6,1.8-3.3,2.5-5.5L616.6,73.3z"/>
		</g>
		<g>
			<path style="&st1;" d="M481.7,168.9c0.2-1.2,0.3-2.5,0.3-4.1v-2.2h-4.8c-1.4,0-2.3,0.1-3.4,0.3v-3.6c1.1,0.2,1.9,0.3,3.4,0.3h4.8
				v-1l-1.1-1.6h-3.7c-1.5,0-2.3,0.1-3.4,0.3v-3.6c1.1,0.2,1.9,0.3,3.4,0.3h1.8l-4.4-7c-0.9-1.4-1.8-2.7-2.2-3.3h5.5
				c0.3,0.9,0.6,1.6,1.5,3.1l4.7,8.1l4.7-8.1c0.9-1.5,1.3-2.3,1.5-3.2h5.5c-0.4,0.5-1.7,2.4-2.3,3.3l-4.4,7h1.8
				c1.4,0,2.3-0.1,3.4-0.3v3.6c-1.1-0.2-2-0.3-3.4-0.3h-3.7l-1.1,1.7v0.9h4.7c1.4,0,2.2-0.1,3.4-0.3v3.6c-1.1-0.2-2-0.3-3.4-0.3
				h-4.7v2.2c0,1.8,0.1,2.8,0.3,4.1H481.7z"/>
			<path style="&st1;" d="M518.4,163.2c-1.2-0.2-1.9-0.2-3.2-0.2H514v2.3c0,1.6,0.1,2.5,0.3,3.6h-4.5c0.2-1.1,0.3-2.1,0.3-3.7V163
				h-8.9c-1.9,0-2.9,0-4,0.1v-3.9c1.1-1.2,1.4-1.6,2.6-2.9l7.6-9.3c1.4-1.7,1.9-2.4,2.7-3.5h4.3c-0.2,1.9-0.2,3-0.2,5.4v10.5h1.1
				c1.3,0,2-0.1,3.2-0.2V163.2z M510,152.8c0-1.5,0-2.5,0.2-3.8c-0.6,0.9-1,1.4-2.2,2.8l-6.1,7.6h8.2V152.8z"/>
			<path style="&st1;" d="M523.8,166.8c-1-1-1.7-2.1-2.1-3.2c-0.8-2.3-1.2-4.8-1.2-7.4c0-3.4,0.8-6.9,2-8.9c1.7-2.9,4.6-4.4,8.2-4.4
				c2.7,0,5.1,0.9,6.8,2.6c1,1,1.7,2.1,2.1,3.2c0.8,2.2,1.2,4.8,1.2,7.4c0,3.9-0.9,7.4-2.4,9.5c-1.8,2.5-4.4,3.8-7.8,3.8
				C527.8,169.4,525.5,168.5,523.8,166.8z M534,164.4c1.4-1.5,2.2-4.5,2.2-8.2c0-3.7-0.8-6.6-2.2-8.2c-0.8-0.9-2-1.3-3.5-1.3
				c-1.5,0-2.7,0.5-3.6,1.6c-1.4,1.7-2.1,4.3-2.1,7.8c0,3.4,0.6,6.1,1.6,7.6c1,1.4,2.3,2.1,4.1,2.1C532,165.7,533.2,165.2,534,164.4
				z"/>
			<path style="&st1;" d="M546.6,166.8c-1-1-1.7-2.1-2.1-3.2c-0.8-2.3-1.2-4.8-1.2-7.4c0-3.4,0.8-6.9,2-8.9c1.7-2.9,4.6-4.4,8.2-4.4
				c2.7,0,5.1,0.9,6.8,2.6c1,1,1.7,2.1,2.1,3.2c0.8,2.2,1.2,4.8,1.2,7.4c0,3.9-0.9,7.4-2.4,9.5c-1.8,2.5-4.4,3.8-7.8,3.8
				C550.6,169.4,548.3,168.5,546.6,166.8z M556.8,164.4c1.4-1.5,2.2-4.5,2.2-8.2c0-3.7-0.8-6.6-2.2-8.2c-0.8-0.9-2-1.3-3.5-1.3
				c-1.5,0-2.7,0.5-3.6,1.6c-1.4,1.7-2.1,4.3-2.1,7.8c0,3.4,0.6,6.1,1.6,7.6c1,1.4,2.3,2.1,4.1,2.1
				C554.8,165.7,556,165.2,556.8,164.4z"/>
		</g>
	</g>
</g>
<g>
	<path style="&st2;" d="M356.5,75.5c-15.5,0-28,12.6-28,28s12.6,28,28,28c15.5,0,28-12.6,28-28S372,75.5,356.5,75.5z"/>
	<polygon style="&st3;" points="368.6,105.9 358.9,105.9 358.9,115.6 354.1,115.6 354.1,105.9 344.4,105.9 344.4,101.1 354.1,101.1 
		354.1,91.4 358.9,91.4 358.9,101.1 368.6,101.1 	"/>
</g>
<polygon style="&st2;" points="394.1,247.1 356.5,284.8 318.9,247.1 "/>
<g>
	<path style="&st1;" d="M184.1,349c0.8,0.1,1.3,0.2,2.6,0.2h2.5c1,0,1.7,0,2.4-0.2c-0.1,1-0.1,1.8-0.1,3.5v6.7c0.4,1,0.9,1.5,1.8,2
		c1.3,0.9,3.3,1.2,7.4,1.2c6.2,0,10-0.2,13.3-0.5c-0.6,1.5-0.7,2.2-1,3.6c-3.6,0.1-6.7,0.1-10.3,0.1c-4.7,0-7.1-0.2-8.8-0.8
		c-1.6-0.5-2.8-1.4-4.1-3c-1.3,1.3-2.3,2.2-3.6,3.1c-0.5,0.4-1,0.8-1.2,1l-1.5-3.6c1.1-0.4,3-1.7,4.7-3.2v-6.7h-1.8
		c-0.9,0-1.4,0-2.2,0.2V349z M186.6,337.2c2.5,2.2,3.5,3.3,5.5,5.9l-2.7,2.6c-2-2.8-3.1-4.1-5.3-6.1L186.6,337.2z M199.4,339.8
		c0.7-1,1.2-2.1,1.7-3.3l3.7,0.5c-0.6,1.1-1,1.8-1.6,2.7h5.2c1,0,1.7,0,2.3-0.1c-0.1,0.7-0.1,1.4-0.1,2.2v4.4c0,1.1,0,1.8,0.1,2.4
		c-0.8,0-1.3-0.1-2.3-0.1h-10.8v2.3h11.7c1.2,0,1.6,0,2.2-0.1c-0.1,0.7-0.1,1.3-0.1,2.4v4.8c0,0.8,0,1.5,0.1,2.2
		c-0.7-0.1-1.3-0.1-2.2-0.1h-12.9c-0.9,0-1.6,0-2.3,0.1c0.1-0.7,0.1-1.4,0.1-2.2v-16.2c0-0.7-0.1-1.4-0.1-2.2
		c0.8,0.1,1.6,0.1,2.5,0.1H199.4z M197.6,345.7h9.7v-2.9h-9.7V345.7z M197.6,357.1h10.5v-3.3h-10.5V357.1z"/>
	<path style="&st1;" d="M227.4,342.3c1.7,0,2.6,0,3.6-0.1c-0.1,1.1-0.1,1.2-0.2,5.2c-0.1,6.7-0.4,11.5-1,14.2
		c-0.6,2.8-1.5,3.6-4.1,3.6c-0.8,0-2-0.1-3.4-0.2c-0.1-1.6-0.2-2-0.6-3.4c1.2,0.2,2.4,0.4,3.1,0.4c0.9,0,1.2-0.2,1.5-1.3
		c0.4-1.2,0.6-4,0.8-7.6c0.1-2.8,0.1-2.8,0.2-7.5h-3.1c-0.3,4.3-0.7,7.4-1.6,10.6c-1,3.7-2.4,6.6-4.9,9.8c-0.9-1.4-1.6-2.3-2.6-3.3
		c2-2.4,3.3-4.7,4.3-8c0.8-2.7,1.2-5.3,1.5-9.2h-1.6c-1.4,0-2.3,0.1-3.2,0.2v-3.7c0.9,0.1,1.9,0.2,3.5,0.2h1.4c0-0.9,0-1,0-2.7
		c0-1.3-0.1-2-0.2-2.8h3.8c-0.1,0.7-0.2,1.1-0.2,2.1c0,0.6,0,0.6-0.1,3.4H227.4z M236.3,365.5h-3.6c0.1-1,0.2-2.2,0.2-3.7v-18.4
		c0-1.5,0-2.3-0.2-3.4c0.9,0.1,1.7,0.2,2.9,0.2h6.1c1.3,0,2,0,2.9-0.2c-0.1,1.1-0.2,1.9-0.2,3.4v18.3c0,1.5,0.1,2.5,0.2,3.6H241V363
		h-4.7V365.5z M236.3,359.8h4.7v-16.4h-4.7V359.8z"/>
	<path style="&st1;" d="M260.3,357.6c-0.2,0.4-0.2,0.6-0.4,1.1c-1.3-1.5-2.2-2.8-3.2-4.5c0.2,2.2,0.2,2.6,0.2,3.6v5.3
		c0,1.5,0,2.4,0.2,3.3h-3.7c0.2-1,0.2-2,0.2-3.4v-4.1c0-1.3,0.1-2.8,0.1-3.8c-1.4,3.5-2.5,5.3-4.2,7.2c-0.4-1.2-0.9-2.4-1.6-3.3
		c1.3-1.4,2.4-2.8,3.5-4.7c0.7-1.2,0.8-1.5,1.7-3.6h-1.7c-1.4,0-2.1,0-2.9,0.2v-3.4c0.7,0.1,1.4,0.2,2.9,0.2h2.1V340
		c0-1.4,0-2.4-0.2-3.1h3.6c-0.1,0.8-0.2,1.6-0.2,3.1v7.6h1.5c1.2,0,1.8,0,2.5-0.1v3.3c-0.8-0.1-1.4-0.1-2.5-0.1h-1.2
		c1.2,2,2.4,3.5,4.1,4.9c-0.4,0.8-0.6,1.1-0.9,1.8c0.7,0,1.9-0.2,2.9-0.4l7.5-1.7v-14.6c0-1.9,0-2.7-0.2-3.7h3.9
		c-0.2,1.1-0.2,1.9-0.2,3.7v13.9c1.3-0.3,1.9-0.5,2.7-0.8l0.7,3.6c-0.9,0.1-1.8,0.3-3.1,0.6l-0.3,0.1v4.7c0,1.8,0,2.8,0.2,3.8h-3.9
		c0.2-1.1,0.2-1.9,0.2-3.8v-3.9l-6.8,1.5c-1.4,0.3-2.3,0.6-3,0.8L260.3,357.6z M251.1,338.6c1,2.8,1.5,4.5,2,6.9l-2.7,1.2
		c-0.5-2.9-1.1-4.9-2-6.8L251.1,338.6z M262.1,339.7c-0.8,2.9-1.2,4.1-2.6,6.9l-2.3-1.2c1-2.1,1.6-3.8,2.2-6.9L262.1,339.7z
		 M263.7,347c2.5,1.7,3.9,2.9,5.6,4.7l-2.2,2.6c-2.2-2.4-3.3-3.4-5.6-4.9L263.7,347z M264.6,339c2.8,1.9,3.8,2.8,5.6,4.7l-2.2,2.7
		c-2.4-2.5-2.5-2.7-5.7-4.9L264.6,339z"/>
	<path style="&st1;" d="M289.7,348.6c-1.3,0-2.2,0-3.1,0.2v-1.5c-1.8,1.1-3.1,1.8-5.2,2.6c-0.8-1.7-1-2.1-1.9-3.3
		c6-2.1,10.8-5.5,13.1-9.4h4c1.3,1.9,2.7,3.3,4.9,4.9c2.6,2,5,3.2,8.5,4.3c-0.8,1.2-1.2,2.2-1.7,3.5c-2.5-1.1-3.6-1.6-5.6-2.8v1.6
		c-0.9-0.1-1.8-0.2-3.1-0.2h-3.3v3.1h8.1c1.7,0,2.7-0.1,3.5-0.2v3.6c-0.9-0.1-2-0.2-3.5-0.2h-8.1v7.2h8.7c1.6,0,2.7-0.1,3.8-0.2v3.7
		c-1.2-0.2-2.5-0.2-3.8-0.2h-20.2c-1.5,0-2.6,0.1-4,0.2v-3.7c1.2,0.1,2.3,0.2,4,0.2h8v-7.2H285c-1.4,0-2.5,0.1-3.5,0.2v-3.6
		c0.9,0.1,1.9,0.2,3.5,0.2h7.6v-3.1H289.7z M287.4,355.1c1.1,1.9,1.7,3.1,2.6,5.3l-3.2,1.3c-0.7-2-1.5-3.7-2.5-5.3L287.4,355.1z
		 M289.6,345.6l9.9,0c0.3,0,0.3,0,0.8,0c-2.5-1.8-4.1-3.3-5.8-5.4c-1.6,2.2-2.9,3.5-5.6,5.4H289.6z M304.9,356.5
		c-0.4,0.7-0.4,0.7-1.6,3.1c-0.1,0.2-0.2,0.4-1.3,2.3l-3-1.1c1-1.6,1.8-3.3,2.5-5.5L304.9,356.5z"/>
	<path style="&st1;" d="M318.4,347.4c-2.1,1.3-2.9,1.7-5.1,2.7c-0.5-1.3-0.9-2-1.9-3.3c3-1.2,5.7-2.7,8.2-4.6c2.2-1.8,3.7-3.4,5-5.3
		h3.8c1.4,2,2.8,3.5,5.4,5.4c2.5,1.9,4.9,3.2,8.2,4.4c-0.8,1.3-1.2,2-1.8,3.5c-2.3-1-3.3-1.5-5.2-2.8v2.2c-0.8-0.1-1.6-0.1-2.9-0.1
		h-10.9c-1,0-1.9,0-2.8,0.1V347.4z M315.8,366.1c0.1-1,0.2-2,0.2-3.4v-7.5c0-1.3-0.1-2.2-0.2-3.2c0.7,0.1,1.5,0.1,2.8,0.1h16
		c1.3,0,2,0,2.8-0.1c-0.1,0.9-0.2,1.8-0.2,3.2v7.5c0,1.5,0,2.4,0.2,3.4h-3.8v-1.6h-14v1.6H315.8z M319.6,361.4h14v-6h-14V361.4z
		 M332,346.2c0.4,0,0.5,0,1.1,0c-2.8-2-4.6-3.7-6.6-6.2c-1.9,2.8-3.3,4.1-6.3,6.2c0.4,0,0.5,0,0.9,0H332z"/>
	<path style="&st1;" d="M344.3,342.2c0.8,0.1,1.5,0.2,2.7,0.2h8.2c1.2,0,2,0,2.7-0.2v3.2c-0.7-0.1-1.4-0.1-2.7-0.1H347
		c-1.1,0-1.8,0-2.7,0.2V342.2z M345.6,337.7c0.8,0.1,1.4,0.2,2.8,0.2h5.5c1.3,0,1.9,0,2.7-0.2v3.1c-0.9-0.1-1.5-0.1-2.7-0.1h-5.5
		c-1.2,0-2,0-2.8,0.1V337.7z M349,366.3h-3.4c0.1-0.9,0.2-1.8,0.2-3.1v-4.8c0-1,0-1.6-0.1-2.5c0.6,0.1,1.1,0.1,2.2,0.1h6.9
		c1,0,1.5,0,2.1-0.1c-0.1,0.7-0.1,1.3-0.1,2.5v4.7c0,1.2,0,2,0.2,2.8h-3.4v-1H349V366.3z M345.7,346.8c0.7,0.1,1.1,0.1,2.1,0.1h6.8
		c1.1,0,1.4,0,2-0.1v3c-0.7-0.1-1-0.1-2-0.1h-6.8c-1.1,0-1.4,0-2.1,0.1V346.8z M345.7,351.4c0.6,0.1,1,0.1,2.1,0.1h6.8
		c1.1,0,1.4,0,2-0.1v3c-0.6-0.1-1.1-0.1-2.1-0.1h-6.8c-1,0-1.4,0-2.1,0.1V351.4z M349,362.1h4.5V359H349V362.1z M363.8,340.8
		c0-1.8,0-2.6-0.2-3.8h4c-0.2,1.1-0.2,2.1-0.2,3.8v5.8h2.3c1.7,0,2.8-0.1,3.9-0.2v3.7c-1.2-0.1-2.4-0.2-3.9-0.2h-2.2v11.7
		c0,2.2,0.1,3.5,0.2,4.8h-4c0.2-1.3,0.2-2.5,0.2-4.8v-11.7h-2c-1.4,0-2.8,0.1-3.9,0.2v-3.7c1,0.1,2.2,0.2,3.9,0.2h2V340.8z"/>
	<path style="&st2;" d="M400.7,371.1c0.2-1.9,0.4-4,0.4-6.4v-3.4h-7.5c-2.2,0-3.6,0.1-5.3,0.4V356c1.8,0.3,3,0.4,5.3,0.4h7.5v-1.5
		l-1.6-2.6h-5.8c-2.3,0-3.5,0.1-5.2,0.4v-5.7c1.7,0.3,3,0.4,5.2,0.4h2.8l-7-11c-1.5-2.2-2.8-4.2-3.5-5.2h8.6c0.5,1.5,1,2.5,2.4,4.9
		l7.4,12.7l7.4-12.7c1.4-2.4,2-3.6,2.4-5h8.7c-0.7,0.8-2.7,3.7-3.6,5.2l-6.9,11h2.8c2.2,0,3.6-0.1,5.2-0.4v5.7
		c-1.7-0.3-3-0.4-5.2-0.4h-5.9l-1.7,2.6v1.5h7.4c2.2,0,3.5-0.1,5.3-0.4v5.7c-1.7-0.3-3.1-0.4-5.3-0.4h-7.4v3.4
		c0,2.9,0.1,4.4,0.4,6.4H400.7z"/>
	<path style="&st2;" d="M458,362.2c-1.9-0.2-2.9-0.3-5-0.3h-1.8v3.5c0,2.6,0.1,3.9,0.4,5.7h-7.1c0.3-1.8,0.4-3.3,0.4-5.8v-3.5h-13.9
		c-3,0-4.5,0-6.2,0.2v-6.2c1.7-1.9,2.2-2.5,4-4.6l11.9-14.5c2.2-2.7,3-3.7,4.2-5.5h6.8c-0.3,2.9-0.4,4.7-0.4,8.5v16.4h1.8
		c2,0,3.2-0.1,5.1-0.4V362.2z M445,345.9c0-2.4,0-4,0.2-6c-1,1.5-1.6,2.3-3.4,4.5l-9.6,11.9H445V345.9z"/>
	<path style="&st2;" d="M466.5,367.9c-1.5-1.5-2.6-3.2-3.3-5c-1.3-3.6-2-7.5-2-11.5c0-5.3,1.2-10.8,3.1-13.9c2.7-4.5,7.2-7,12.8-7
		c4.3,0,7.9,1.4,10.6,4c1.5,1.5,2.7,3.2,3.3,5c1.3,3.5,1.9,7.5,1.9,11.6c0,6.2-1.3,11.6-3.7,14.8c-2.8,3.9-7,5.9-12.2,5.9
		C472.7,371.9,469.1,370.5,466.5,367.9z M482.4,364c2.2-2.4,3.5-7,3.5-12.9c0-5.8-1.2-10.4-3.5-12.8c-1.2-1.3-3.2-2.1-5.5-2.1
		c-2.4,0-4.2,0.8-5.6,2.5c-2.2,2.6-3.3,6.7-3.3,12.2c0,5.2,1,9.6,2.5,11.9c1.6,2.2,3.7,3.2,6.4,3.2
		C479.2,366.1,481.2,365.4,482.4,364z"/>
	<path style="&st2;" d="M502.1,367.9c-1.5-1.5-2.6-3.2-3.3-5c-1.3-3.6-2-7.5-2-11.5c0-5.3,1.2-10.8,3.1-13.9c2.7-4.5,7.2-7,12.8-7
		c4.3,0,7.9,1.4,10.6,4c1.5,1.5,2.7,3.2,3.3,5c1.3,3.5,1.9,7.5,1.9,11.6c0,6.2-1.3,11.6-3.7,14.8c-2.8,3.9-7,5.9-12.2,5.9
		C508.3,371.9,504.7,370.5,502.1,367.9z M518,364c2.2-2.4,3.5-7,3.5-12.9c0-5.8-1.2-10.4-3.5-12.8c-1.2-1.3-3.2-2.1-5.5-2.1
		c-2.4,0-4.2,0.8-5.6,2.5c-2.2,2.6-3.3,6.7-3.3,12.2c0,5.2,1,9.6,2.5,11.9c1.6,2.2,3.7,3.2,6.4,3.2C514.8,366.1,516.8,365.4,518,364
		z"/>
</g>
</svg>
