<?xml version="1.0" encoding="utf-8"?>
<!-- Generator: Adobe Illustrator 23.0.4, SVG Export Plug-In . SVG Version: 6.00 Build 0)  -->
<svg version="1.1" id="レイヤー_1" xmlns="http://www.w3.org/2000/svg" xmlns:xlink="http://www.w3.org/1999/xlink" x="0px"
	 y="0px" width="713px" height="452.4px" viewBox="0 0 713 452.4" style="enable-background:new 0 0 713 452.4;"
	 xml:space="preserve">
<style type="text/css">
	.st0{fill:#C8C7C7;}
	.st1{fill:#040000;}
	.st2{enable-background:new    ;}
	.st3{fill:#1C6BB5;}
	.st4{fill:#FFFFFF;}
</style>
<g>
	<g>
		<path class="st0" d="M358,207H0V0h358V207z M3,204h352V3H3V204z"/>
		<g>
			<path class="st1" d="M120.4,64.2c-0.7,0-1.4,0-2,0.1v-1.5c-0.4,0.4-0.6,0.6-1.3,1.1c-0.5-1.6-0.8-2.1-1.4-3.1
				c1.1-0.8,2.2-1.8,3.1-3c0.9-1.1,1.3-1.9,2-3.6h3.4c0.9,2,1.6,3,3.3,4.5V57c0-1.1,0-1.5-0.1-2.2c0.7,0.1,1.3,0.1,2.5,0.1h3.9
				c1.1,0,2-0.1,2.8-0.2v3.1c-0.7-0.1-1.2-0.1-2.2-0.1v1.7c1.1,0,1.2,0,1.7-0.1c-0.1,0.5-0.1,0.8-0.1,1.7v1.1
				c1.5-2.3,2.7-5.5,2.8-8.1l3.2,0.7c-0.2,0.7-0.2,0.7-0.6,2c-0.1,0.4-0.2,0.5-0.4,1.3h1.9c1.2,0,1.9,0,2.7-0.2V61
				c-0.9-0.1-1.6-0.2-2.6-0.2h-3c-0.5,1.3-0.9,2-1.8,3.5c-0.7-0.9-1.4-1.4-2.3-1.9v1.2c0,0.9,0,1.3,0.1,1.8c-0.6,0-0.9-0.1-1.7-0.1
				v2c1.2,0,1.6,0,2.2-0.1V70c-0.6-0.1-1.1-0.1-2.2-0.1h-4.7c-1.1,0-1.6,0-2.3,0.1c0.1-0.7,0.1-1.2,0.1-2.3v-8.2
				c-0.6,0.9-0.9,1.2-1.4,2v2.7c-0.7-0.1-1.3-0.1-2-0.1h-0.5v2.3h0.4c1.3,0,2,0,2.6-0.1v3.2c-0.6-0.1-1.3-0.1-2.6-0.1h-0.4v8.4
				c1.3-0.4,1.7-0.4,3.3-0.9l0.1,2.2c0.4,0.1,0.8,0.1,1.3,0.1h0.3v-5.4c0-1.2,0-1.7-0.1-2.5c0.7,0.1,1.4,0.1,2.7,0.1h10.4
				c1.3,0,1.9,0,2.7-0.1c-0.1,0.7-0.1,1.4-0.1,2.5v5.4h0.5c0.5,0,0.9,0,1.3-0.1v3.4c-1.1-0.1-2.3-0.2-3.6-0.2h-11.9
				c-1.3,0-2.5,0.1-3.5,0.2v-2.6c-3.2,1-3.2,1-6.6,1.9c-1.9,0.5-2.5,0.6-3.2,0.9l-0.5-3.4c0.7,0,2.1-0.3,4.3-0.7v-9.1h-1.2
				c-1.1,0-2.2,0.1-3,0.2v-3.3c0.8,0.1,1.9,0.2,3,0.2h1.2v-2.3h-0.5V64.2z M117.7,77.7c-0.2-2.3-0.6-4-1.2-6.1l2.5-0.8
				c0.7,2.5,1,4.2,1.2,6.1L117.7,77.7z M124.3,61.5c0.7,0,1.1,0,1.5,0c-1.3-1.2-2-2.3-3.2-4.4c-0.8,1.6-1.6,2.9-2.9,4.5
				c0.3,0,0.4,0,0.7,0L124.3,61.5L124.3,61.5z M124.2,75.8c0.5-2.1,0.7-2.8,0.8-5.2l2.3,0.5c-0.2,2-0.4,2.7-1,5.2L124.2,75.8z
				 M132.1,59.2v-1.7h-1.8v1.7H132.1z M133.5,63.2v-1.7h-3.1v1.7H133.5z M130.4,65.5v2h1.8v-2H130.4z M131.4,79.2h1.6v-4.9h-1.6
				V79.2z M135.5,79.2h1.5v-4.9h-1.5V79.2z M137.8,65.3c0.6,0.1,1.1,0.1,2.1,0.1h2.6c1.3,0,1.9,0,2.6-0.1v3.3
				c-0.7-0.1-1.5-0.1-2.5-0.1H140c-1,0-1.7,0-2.2,0.1V65.3z M139.6,79.2h1.6v-4.9h-1.6V79.2z"/>
			<path class="st1" d="M155.4,78.8c-1.4,0-2.3,0-3.4,0.1c0.1-0.8,0.1-1.8,0.1-3.3v-5.1c0-1.3,0-2.2-0.1-3.2c1,0.1,1.6,0.1,3.6,0.1
				h14.9c1.8,0,2.6,0,3.6-0.1c-0.1,1-0.1,1.8-0.1,3.2v5.1c0,1.8,0,2.7,0.1,3.3c-1-0.1-1.9-0.1-3.1-0.1h-2c2.4,1.1,4.6,1.6,8.6,2
				c-0.7,0.9-1.2,1.8-1.6,2.9c-2.5-0.3-3.6-0.5-5.5-1.2c-2-0.6-3-1-5.1-2.1l1.7-1.6h-8.7l1.9,1.6c-3.6,1.7-5.8,2.3-10.3,2.9
				c-0.5-1.2-0.9-1.9-1.9-3c3.8-0.2,6.6-0.7,8.6-1.5C156.7,78.8,155.4,78.8,155.4,78.8z M161,55.8c0-0.9,0-1.6-0.2-2.3h3.8
				c-0.1,0.7-0.2,1.4-0.2,2.3V57h3.4c0.9-1.2,1.3-1.9,2-3.3l3.2,1.2c-0.8,1.2-1.1,1.5-1.6,2.1h2.2c1.3,0,2.4,0,3.1-0.1
				c-0.1,1-0.1,1.7-0.1,2.9v1.7c0,0.8,0,1.4,0.1,2.1h-3.3v-3.9h-21.2v3.9H149c0.1-0.8,0.1-1.4,0.1-2.2v-1.8c0-1.1,0-1.7-0.1-2.7
				c1,0.1,1.8,0.1,3.3,0.1h2c-0.5-0.8-0.8-1.1-1.7-2l3.1-1.1c0.9,1,1.2,1.5,2.1,3.1h3.2L161,55.8L161,55.8z M171.7,64.4
				c0,0.8,0,1.3,0.1,2.1c-0.9-0.1-1.4-0.1-2.9-0.1H157c-1.1,0-1.9,0-2.9,0.1c0.1-0.7,0.1-1.2,0.1-2v-2c0-1,0-1.5-0.1-2
				c1,0.1,1.8,0.1,3.1,0.1h11.5c1.2,0,2.2,0,3.1-0.1c-0.1,0.7-0.1,1.2-0.1,2L171.7,64.4L171.7,64.4z M155.4,70.6h15.1v-1h-15.1V70.6
				z M155.4,73.6h15.1v-1.1h-15.1V73.6z M155.4,76.6h15.1v-1.1h-15.1V76.6z M157.4,62.8v1.5h11.1v-1.5
				C168.5,62.8,157.4,62.8,157.4,62.8z"/>
			<path class="st1" d="M192.7,74.5c-0.2,0.4-0.2,0.6-0.4,1.1c-1.3-1.5-2.2-2.8-3.2-4.5c0.2,2.2,0.2,2.6,0.2,3.6V80
				c0,1.5,0,2.4,0.2,3.3h-3.7c0.2-1,0.2-2,0.2-3.4v-4.1c0-1.3,0.1-2.8,0.1-3.8c-1.4,3.5-2.5,5.3-4.2,7.2c-0.4-1.2-0.9-2.4-1.6-3.3
				c1.3-1.4,2.4-2.8,3.5-4.7c0.7-1.2,0.8-1.5,1.7-3.6h-1.7c-1.4,0-2.1,0-2.9,0.2v-3.4c0.7,0.1,1.4,0.2,2.9,0.2h2.1V57
				c0-1.4,0-2.4-0.2-3.1h3.6c-0.1,0.8-0.2,1.6-0.2,3.1v7.6h1.5c1.2,0,1.8,0,2.5-0.1v3.3c-0.8-0.1-1.4-0.1-2.5-0.1h-1.2
				c1.2,2,2.4,3.5,4.1,4.9C193.1,73.4,192.9,73.7,192.7,74.5c0.6-0.1,1.8-0.3,2.8-0.5l7.5-1.7V57.4c0-1.9,0-2.7-0.2-3.7h3.9
				c-0.2,1.1-0.2,1.9-0.2,3.7v13.9c1.3-0.3,1.9-0.5,2.7-0.8l0.7,3.6c-0.9,0.1-1.8,0.3-3.1,0.6l-0.3,0.1v4.7c0,1.8,0,2.8,0.2,3.8
				h-3.9c0.2-1.1,0.2-1.9,0.2-3.8v-3.9l-6.8,1.5c-1.4,0.3-2.3,0.6-3,0.8L192.7,74.5z M183.5,55.4c1,2.8,1.5,4.5,2,6.9l-2.7,1.2
				c-0.5-2.9-1.1-4.9-2-6.8L183.5,55.4z M194.5,56.6c-0.8,2.9-1.2,4.1-2.6,6.9l-2.3-1.2c1-2.1,1.6-3.8,2.2-6.9L194.5,56.6z
				 M196.1,63.8c2.5,1.7,3.9,2.9,5.6,4.7l-2.2,2.6c-2.2-2.4-3.3-3.4-5.6-4.9L196.1,63.8z M197,55.8c2.8,1.9,3.8,2.8,5.6,4.7
				l-2.2,2.7c-2.4-2.5-2.5-2.7-5.7-4.9L197,55.8z"/>
			<path class="st1" d="M222.1,65.4c-1.3,0-2.2,0-3.1,0.2v-1.5c-1.8,1.1-3.1,1.8-5.2,2.6c-0.8-1.7-1-2.1-1.9-3.3
				c6-2.1,10.8-5.5,13.1-9.4h4c1.3,1.9,2.7,3.3,4.9,4.9c2.6,2,5,3.2,8.5,4.3c-0.8,1.2-1.2,2.2-1.7,3.5c-2.5-1.1-3.6-1.6-5.6-2.8v1.6
				c-0.9-0.1-1.8-0.2-3.1-0.2h-3.3v3.1h8.1c1.7,0,2.7-0.1,3.5-0.2v3.6c-0.9-0.1-2-0.2-3.5-0.2h-8.1v7.2h8.7c1.6,0,2.7-0.1,3.8-0.2
				v3.7c-1.2-0.2-2.5-0.2-3.8-0.2H217c-1.5,0-2.6,0.1-4,0.2v-3.7c1.2,0.1,2.3,0.2,4,0.2h8v-7.2h-7.6c-1.4,0-2.5,0.1-3.5,0.2v-3.6
				c0.9,0.1,1.9,0.2,3.5,0.2h7.6v-3.1L222.1,65.4L222.1,65.4z M219.8,72c1.1,1.9,1.7,3.1,2.6,5.3l-3.2,1.3c-0.7-2-1.5-3.7-2.5-5.3
				L219.8,72z M222,62.4h9.9c0.3,0,0.3,0,0.8,0c-2.5-1.8-4.1-3.3-5.8-5.4c-1.6,2.2-2.9,3.5-5.6,5.4H222z M237.3,73.3
				c-0.4,0.7-0.4,0.7-1.6,3.1c-0.1,0.2-0.2,0.4-1.3,2.3l-3-1.1c1-1.6,1.8-3.3,2.5-5.5L237.3,73.3z"/>
			<path class="st1" d="M68.1,123.3c-2.1-2.4-3-3.8-3.9-6s-1.3-4.5-1.3-6.9s0.4-4.6,1.3-6.9c0.9-2.3,1.8-3.6,3.9-6h2.5
				c-2.4,2.4-3.3,3.6-4.3,5.8c-1,2.2-1.5,4.6-1.5,7.1s0.5,4.9,1.5,7.1s1.9,3.4,4.3,5.8H68.1z"/>
			<path class="st1" d="M84.8,99.3c-0.3,0.5-0.5,1.1-0.8,2c-2,6.7-3.9,12.1-5.8,16.4c3.7-0.3,10.3-1.1,13.6-1.8
				c-1.5-2.9-2.9-5.3-4.3-7.3l1.7-1c2.2,3.1,5,8.1,7,12.7l-2,1.1c-0.6-1.6-1-2.5-1.7-3.8c-4.7,0.9-10.3,1.7-17.2,2.3
				c-1.1,0.1-1.8,0.2-2.4,0.3l-0.3-2.3c0.6,0,0.6,0,0.8,0c0.2,0,1.7-0.1,2.4-0.1c1.7-3.9,2.9-6.9,4.2-11.1c1.4-4.2,2-6.5,2.2-8.1
				L84.8,99.3z"/>
			<path class="st1" d="M103.5,108.6c4.4-0.8,11.3-3.5,13.1-5.4l1.4,1.9c-0.4,0.2-0.6,0.3-1.2,0.6c-4.2,2.3-8.7,3.9-13.4,4.7v4.1
				v0.2c0,0.1,0,0.2,0,0.3c0,2,0.1,2.6,0.6,3.1c0.4,0.4,1,0.6,2.1,0.7c0.9,0.1,2.2,0.2,3.3,0.2c1.7,0,4.2-0.2,6.4-0.4
				c1.2-0.1,1.7-0.3,2.8-0.6l0.2,2.2c-0.4,0-0.5,0-0.9,0.1h-0.4l-1.3,0.1c-1.8,0.2-5.5,0.4-7.4,0.4c-3.3,0-5.2-0.3-6.1-1.1
				c-0.7-0.6-1-1.4-1.1-2.7c0-0.4-0.1-1-0.1-2.2V102c0-1.2,0-1.7-0.1-2.3h2.3c-0.1,0.7-0.1,1.1-0.1,2.4v6.5H103.5z M117.5,98.2
				c1.3,1.5,2,2.7,2.9,4.3l-1.4,0.8c-0.7-1.5-2-3.6-2.9-4.5L117.5,98.2z M120.7,96.7c1.3,1.5,2,2.6,2.9,4.4l-1.4,0.8
				c-0.6-1.3-1.8-3.1-2.9-4.4L120.7,96.7z"/>
			<path class="st1" d="M145.2,100.7c-0.3,0.1-0.3,0.1-0.9,0.3c-2,0.7-3.9,1.3-6.2,1.7c0,2.7-0.1,4.5-0.1,5.6h6.7c1.6,0,2,0,2.9-0.2
				v2.1c-1-0.1-1.5-0.1-2.9-0.1h-6.9c-0.2,2.6-0.8,4.4-1.8,6.2c-1.5,2.4-3.6,4.2-7,5.9c-0.5-0.8-0.8-1.1-1.5-1.7
				c3.1-1.2,5.2-2.7,6.6-4.8c1-1.5,1.5-3.1,1.7-5.5H128c-1.4,0-1.9,0-2.9,0.1v-2.1c0.9,0.2,1.3,0.2,2.9,0.2h8
				c0.1-1.2,0.1-2.8,0.1-5.3c-1.8,0.4-4.2,0.6-8.3,0.8c-0.2-0.7-0.3-1-0.7-1.9c0.8,0.1,1.2,0.1,1.6,0.1c3.6,0,8.2-0.7,11.8-1.8
				c1.6-0.5,2.3-0.8,3.2-1.3L145.2,100.7z"/>
			<path class="st1" d="M166.5,105.6c-0.3,4.1-0.6,5.8-1.5,7.9c-1,2.3-2.6,4.3-4.8,5.9c-1.2,0.9-2.3,1.5-4.3,2.5
				c-0.4-0.9-0.6-1.2-1.4-1.8c2.4-0.9,4.2-2,5.9-3.6c2.6-2.5,3.8-5.6,4-10.8h-7.7c-1.6,2.5-2.9,4.1-4.9,5.9
				c-0.5-0.6-0.8-0.8-1.7-1.3c2.6-2,4.4-4.4,6-7.7c0.8-1.8,1.2-2.8,1.4-3.9l2.1,0.7c-0.3,0.5-0.3,0.6-0.7,1.5
				c-0.6,1.5-1.1,2.5-1.5,3.1c0.4,0,0.4,0,13,0c1.8,0,2.3,0,3.4-0.2v2c-0.8-0.1-0.8-0.1-3.5-0.1L166.5,105.6L166.5,105.6z"/>
			<path class="st1" d="M181.7,104.3c-1.4,0-2.2,0-3,0.1v-1.8c0.8,0.1,1.5,0.2,3,0.2h1.1c-0.6-1.3-1.2-2.2-2.3-3.6l1.7-0.7
				c1,1.5,1.8,2.8,2.5,4.3h2.1c0.6-1.7,1-3.9,1-5c0-0.1,0-0.1,0-0.3l2,0.2c-0.1,0.3-0.2,0.8-0.4,1.4c-0.5,2-0.6,2.4-1,3.6h3.9
				c1.4-1.7,2.2-2.8,2.9-4.3l1.8,0.7c-1.2,1.8-1.8,2.6-2.7,3.7h2.3c1.6,0,2.3,0,3.1-0.2v1.8c-0.9-0.1-1.6-0.1-3.1-0.1h-5
				c1,1.8,1.3,2.4,2.2,3.6h4.5c1.6,0,2.3,0,3.1-0.2v1.9c-0.9-0.1-1.8-0.2-3.1-0.2h-3.1c2.1,2.1,4.1,3.4,6.9,4.6
				c-0.6,0.6-0.8,0.9-1.2,1.7c-3.4-1.9-5.6-3.6-7.9-6.3h-8.3c-1.9,2.4-4.2,4.3-7.5,6.2c-0.3-0.6-0.6-1-1.2-1.5
				c3-1.4,4.8-2.7,6.7-4.7h-3c-1.5,0-2.3,0.1-3,0.2v-1.9c0.7,0.1,1.5,0.2,3,0.2h4.3c0.9-1.1,1.5-2.2,2.1-3.6L181.7,104.3
				L181.7,104.3z M184.9,114.4c-1.3,0-2.2,0.1-2.9,0.2v-1.8c0.7,0.1,1.5,0.1,2.7,0.1h8.3c1.3,0,2.3,0,2.9-0.1
				c-0.1,0.5-0.1,0.6-0.1,2c-0.2,3.4-0.5,5.7-1,6.6c-0.4,0.8-1.1,1.1-2.6,1.1c-1,0-2.2-0.1-3.5-0.2c-0.1-0.8-0.1-1.2-0.4-1.8
				c1.7,0.3,2.8,0.3,3.8,0.3c0.9,0,1.2-0.3,1.4-1.1c0.3-1.4,0.4-2.5,0.5-5.2h-5.9c-0.6,2.5-1.2,3.8-2.5,5.2
				c-1.5,1.6-3.3,2.7-6.2,3.6c-0.4-0.8-0.6-1.1-1.2-1.6c2.7-0.8,4.5-1.7,5.9-3c1.2-1.1,1.6-1.9,2.2-4.3
				C186.3,114.4,184.9,114.4,184.9,114.4z M188,104.3c-0.6,1.4-1.1,2.4-1.9,3.6h6c-0.8-1.1-1.1-1.7-2-3.6H188z"/>
			<path class="st1" d="M210.7,101.6c-1.7,0.4-2.6,0.6-4.7,1c-0.2-0.6-0.4-1-0.8-1.6c3.4-0.4,5.7-1,8.9-2.1c1-0.3,1.3-0.5,1.8-0.8
				l1.3,1.5c-0.4,0.2-0.4,0.2-1.1,0.4c-1.3,0.5-2.3,0.8-3.7,1.2v4.4h2.7c1,0,1.7,0,2.4-0.1v1.8c-0.7-0.1-1.4-0.1-2.5-0.1h-2.6
				c0.5,1.2,0.7,1.6,1.3,2.5c0.9,1.3,1.8,2.2,3.5,3.7c-0.5,0.5-0.7,0.9-1,1.5c-2.1-2.2-2.9-3.3-4-5.5c0.1,1.6,0.1,3.5,0.1,4.7v5.8
				c0,1.7,0,2.6,0.2,3.4h-2.1c0.1-1,0.2-1.9,0.2-3.4v-5.5c0-1.6,0-2.4,0.1-4.8c-1.3,3.5-2.7,5.8-5.2,8.5c-0.4-0.7-0.7-1.1-1.1-1.6
				c1.7-1.6,2.7-2.9,3.8-4.7c0.9-1.5,1.7-3.3,2.2-4.7h-2.7c-1.1,0-1.9,0.1-2.6,0.2v-1.9c0.6,0.1,1.3,0.2,2.7,0.2h2.9L210.7,101.6
				L210.7,101.6z M221.6,99.8c-0.1,0.9-0.1,1.6-0.1,3.2v10.8c0,1.9,0,2.5,0.1,3.2h-2.1c0.1-0.8,0.1-1.4,0.1-3.2V103
				c0-1.6-0.1-2.3-0.2-3.2H221.6z M228.5,98.2c-0.1,0.9-0.2,2-0.2,3.5v18.4c0,2-0.7,2.5-3.3,2.5c-0.8,0-2,0-2.9-0.1
				c-0.1-0.7-0.3-1.1-0.6-1.8c1.5,0.2,2.7,0.3,3.6,0.3c1.1,0,1.3-0.1,1.3-0.8v-18.3c0-1.6-0.1-2.6-0.2-3.5h2.3V98.2z"/>
			<path class="st1" d="M245.7,119.1c0,1.5,0,2.4,0.1,3.1h-2c0.1-0.7,0.1-1.6,0.1-3.1v-5.3h-7.7c-0.4,4.2-1.1,6.5-3,9.2
				c-0.6-0.6-0.9-0.8-1.6-1.2c1.2-1.6,1.8-2.8,2.3-4.7c0.6-2.6,0.9-6.7,0.9-13.6c0-2.8,0-3.4-0.1-4.6c0.8,0.1,1.7,0.1,3.1,0.1h15.1
				c1.4,0,2.2,0,3-0.1c-0.1,0.8-0.1,1.5-0.1,2.7v18.8c0,1.8-0.6,2.2-3.4,2.2c-0.9,0-2.3-0.1-3.5-0.1c-0.1-0.6-0.2-1.1-0.4-1.8
				c1.6,0.2,3,0.3,4,0.3c1.2,0,1.5-0.1,1.5-0.8v-6.3h-8.2v5.2H245.7z M236.6,107.2c0,0.8,0,1.5,0,1.8c0,1.7,0,1.8-0.1,3.1h7.6v-5
				L236.6,107.2L236.6,107.2z M244,100.7h-7.4v3.3v1.6h7.4V100.7z M253.9,105.6v-4.9h-8.2v4.9H253.9z M245.7,112.2h8.2v-5h-8.2
				V112.2z"/>
			<path class="st1" d="M261,102c0-1.2,0-2-0.1-2.7c0.6,0.1,0.6,0.1,2.6,0.1h2.1c1.4,0,1.9,0,2.5-0.1c-0.1,0.7-0.1,1.1-0.1,2.7v15.3
				c0,1.3,0,2.1,0.1,2.7h-1.7v-1.4h-3.7v2.3h-1.8c0.1-0.8,0.2-1.8,0.2-3V102H261z M262.7,107.9h3.7V101h-3.7V107.9z M262.7,117.2
				h3.7v-7.7h-3.7V117.2z M272.5,102.7c-1,0-2,0.1-2.7,0.1V101c0.7,0.1,1.5,0.2,2.7,0.2h3v-0.9c0-0.9-0.1-1.5-0.2-2.3h2.1
				c-0.1,0.7-0.2,1.3-0.2,2.3v0.9h4c1.1,0,1.9-0.1,2.7-0.2v1.8c-0.7-0.1-1.6-0.1-2.7-0.1h-4v3.6h5c1.2,0,2.1-0.1,2.8-0.2v1.9
				c-0.8-0.1-1.6-0.2-2.7-0.2h-0.9v3.3h0.9c1.2,0,2-0.1,2.7-0.2v1.9c-0.8-0.1-1.6-0.2-2.7-0.2h-0.9v7.8c0,1.8-0.6,2.2-3.2,2.2
				c-0.4,0-0.9,0-2.5-0.1c-0.1-0.7-0.2-1.2-0.4-1.8c1.1,0.2,2.4,0.3,3.2,0.3c1.1,0,1.3-0.1,1.3-0.7v-7.7h-7.9c-1,0-2,0.1-2.8,0.2
				V111c0.7,0.1,1.5,0.2,2.8,0.2h7.9v-3.3h-7.9c-1.1,0-2,0.1-2.8,0.2v-1.9c0.7,0.1,1.6,0.2,2.8,0.2h3.7v-3.6L272.5,102.7
				L272.5,102.7z M274.6,119.5c-1.5-2.1-2.2-3.1-3.9-4.7l1.4-1c1.7,1.6,2.6,2.6,4,4.6L274.6,119.5z"/>
			<path class="st1" d="M287.4,123.3c2.4-2.4,3.3-3.6,4.3-5.8c1-2.2,1.5-4.6,1.5-7.1s-0.5-4.9-1.5-7.1s-1.9-3.4-4.3-5.8h2.5
				c2.1,2.4,3,3.8,3.9,6s1.3,4.5,1.3,6.9s-0.4,4.6-1.3,6.9s-1.8,3.6-3.9,6H287.4z"/>
		</g>
		<g>
			<path class="st1" d="M165.2,168.9c0.2-1.2,0.3-2.5,0.3-4.1v-2.2h-4.8c-1.4,0-2.3,0.1-3.4,0.3v-3.6c1.1,0.2,1.9,0.3,3.4,0.3h4.8
				v-1l-1.1-1.6h-3.7c-1.5,0-2.3,0.1-3.4,0.3v-3.6c1.1,0.2,1.9,0.3,3.4,0.3h1.8l-4.4-7c-0.9-1.4-1.8-2.7-2.2-3.3h5.5
				c0.3,0.9,0.6,1.6,1.5,3.1l4.7,8.1l4.7-8.1c0.9-1.5,1.3-2.3,1.5-3.2h5.5c-0.4,0.5-1.7,2.4-2.3,3.3l-4.4,7h1.8
				c1.4,0,2.3-0.1,3.4-0.3v3.6c-1.1-0.2-2-0.3-3.4-0.3h-3.7l-1.1,1.7v0.9h4.7c1.4,0,2.2-0.1,3.4-0.3v3.6c-1.1-0.2-2-0.3-3.4-0.3
				h-4.7v2.2c0,1.8,0.1,2.8,0.3,4.1h-4.7V168.9z"/>
			<path class="st1" d="M184.5,166.8c-1-1-1.7-2.1-2.1-3.2c-0.8-2.3-1.2-4.8-1.2-7.4c0-3.4,0.8-6.9,2-8.9c1.7-2.9,4.6-4.4,8.2-4.4
				c2.7,0,5.1,0.9,6.8,2.6c1,1,1.7,2.1,2.1,3.2c0.8,2.2,1.2,4.8,1.2,7.4c0,3.9-0.9,7.4-2.4,9.5c-1.8,2.5-4.4,3.8-7.8,3.8
				C188.5,169.4,186.2,168.5,184.5,166.8z M194.7,164.4c1.4-1.5,2.2-4.5,2.2-8.2s-0.8-6.6-2.2-8.2c-0.8-0.9-2-1.3-3.5-1.3
				s-2.7,0.5-3.6,1.6c-1.4,1.7-2.1,4.3-2.1,7.8c0,3.4,0.6,6.1,1.6,7.6c1,1.4,2.3,2.1,4.1,2.1C192.7,165.7,193.9,165.2,194.7,164.4z"
				/>
		</g>
	</g>
	<g>
		<path class="st0" d="M713,207H355V0h358V207z M358,204h352V3H358V204z"/>
		<g>
			<path class="st1" d="M457.4,51.2c-1.2-0.2-1.9-0.2-3.2-0.2H453v2.3c0,1.6,0.1,2.5,0.3,3.6h-4.5c0.2-1.1,0.3-2.1,0.3-3.7V51h-8.9
				c-1.9,0-2.9,0-4,0.1v-3.9c1.1-1.2,1.4-1.6,2.6-2.9l7.6-9.3c1.4-1.7,1.9-2.4,2.7-3.5h4.3c-0.2,1.9-0.2,3-0.2,5.4v10.5h1.1
				c1.3,0,2-0.1,3.2-0.2L457.4,51.2L457.4,51.2z M449,40.8c0-1.5,0-2.5,0.2-3.8c-0.6,0.9-1,1.4-2.2,2.8l-6.1,7.6h8.2v-6.6H449z"/>
			<path class="st1" d="M460.6,35.5c0-1.8-0.1-2.8-0.3-4.2c1.3,0.1,2,0.1,4.1,0.1h5.8c4,0,6.6,0.8,8.6,2.8c2.3,2.2,3.6,5.5,3.6,9.7
				c0,4.4-1.3,7.8-3.8,10.2c-2,1.9-4.6,2.8-8.4,2.8h-5.8c-2,0-2.8,0-4.1,0.1c0.2-1.3,0.3-2.3,0.3-4.2L460.6,35.5L460.6,35.5z
				 M470,53.1c2.6,0,4.3-0.6,5.7-2c1.5-1.6,2.3-4.1,2.3-7.1s-0.7-5.3-2.2-6.8c-1.3-1.4-3-1.9-5.8-1.9h-5.1v17.9L470,53.1L470,53.1z"
				/>
			<path class="st1" d="M501.9,56.9c-0.6-1.2-1.3-2.3-2.1-3.6l-4.5-6.8l-4.5,6.8c-0.8,1.2-1.6,2.5-2.1,3.6h-5.9c1.9-2.4,2.3-3,3-3.9
				l6.8-9.5l-5.9-8.3c-0.9-1.2-1.8-2.5-2.8-3.7h5.7c0.4,1,1.2,2.3,2,3.6l3.6,5.4l3.6-5.4c1.2-1.9,1.6-2.5,2-3.6h5.7
				c-0.9,1.1-1.8,2.3-2.8,3.7l-5.9,8.3l6.8,9.5c0.7,1.1,1.5,2,3.1,4L501.9,56.9L501.9,56.9z"/>
			<path class="st1" d="M513.6,40.2c-0.7,0-1.4,0-2,0.1v-1.5c-0.4,0.4-0.6,0.6-1.3,1.1c-0.5-1.6-0.8-2.1-1.4-3.1
				c1.1-0.8,2.2-1.8,3.1-3c0.9-1.1,1.3-1.9,2-3.6h3.4c0.9,2,1.6,3,3.3,4.5V33c0-1.1,0-1.5-0.1-2.2c0.7,0.1,1.3,0.1,2.5,0.1h3.9
				c1.1,0,2-0.1,2.8-0.2v3.1c-0.7-0.1-1.2-0.1-2.2-0.1v1.7c1.1,0,1.2,0,1.7-0.1c-0.1,0.5-0.1,0.8-0.1,1.7v1.1
				c1.5-2.3,2.7-5.5,2.8-8.1l3.2,0.7c-0.2,0.7-0.2,0.7-0.6,2c-0.1,0.4-0.2,0.5-0.4,1.3h1.9c1.2,0,1.9,0,2.7-0.2V37
				c-0.9-0.1-1.6-0.2-2.6-0.2h-3c-0.5,1.3-0.9,2-1.8,3.5c-0.7-0.9-1.4-1.4-2.3-1.9v1.2c0,0.9,0,1.3,0.1,1.8c-0.6,0-0.9-0.1-1.7-0.1
				v2c1.2,0,1.6,0,2.2-0.1V46c-0.6-0.1-1.1-0.1-2.2-0.1h-4.7c-1.1,0-1.6,0-2.3,0.1c0.1-0.7,0.1-1.2,0.1-2.3v-8.2
				c-0.6,0.9-0.9,1.2-1.4,2v2.7c-0.7-0.1-1.3-0.1-2-0.1h-0.5v2.3h0.4c1.3,0,2,0,2.6-0.1v3.2c-0.6-0.1-1.3-0.1-2.6-0.1h-0.4v8.4
				c1.3-0.4,1.7-0.4,3.3-0.9l0.1,2.2c0.4,0.1,0.8,0.1,1.3,0.1h0.3v-5.4c0-1.2,0-1.7-0.1-2.5c0.7,0.1,1.4,0.1,2.7,0.1h10.5
				c1.3,0,1.9,0,2.7-0.1c-0.1,0.7-0.1,1.4-0.1,2.5v5.4h0.5c0.5,0,0.9,0,1.3-0.1v3.4c-1.1-0.1-2.3-0.2-3.6-0.2h-11.9
				c-1.3,0-2.5,0.1-3.5,0.2v-2.6c-3.2,1-3.2,1-6.6,1.9c-1.9,0.5-2.5,0.6-3.2,0.9l-0.5-3.4c0.7,0,2.1-0.3,4.3-0.7v-9.1H513
				c-1.1,0-2.2,0.1-3,0.2v-3.3c0.8,0.1,1.9,0.2,3,0.2h1.2v-2.3h-0.6V40.2z M511,53.7c-0.2-2.3-0.6-4-1.2-6.1l2.5-0.8
				c0.7,2.5,1,4.2,1.2,6.1L511,53.7z M517.6,37.5c0.7,0,1.1,0,1.5,0c-1.3-1.2-2-2.3-3.2-4.4c-0.8,1.6-1.6,2.9-2.9,4.5
				c0.3,0,0.4,0,0.7,0L517.6,37.5L517.6,37.5z M517.4,51.8c0.5-2.1,0.7-2.8,0.8-5.2l2.3,0.5c-0.2,2-0.4,2.7-1,5.2L517.4,51.8z
				 M525.4,35.2v-1.7h-1.8v1.7H525.4z M526.7,39.2v-1.7h-3.1v1.7H526.7z M523.6,41.5v2h1.8v-2H523.6z M524.6,55.2h1.6v-4.9h-1.6
				V55.2z M528.8,55.2h1.5v-4.9h-1.5V55.2z M531,41.3c0.6,0.1,1.1,0.1,2.1,0.1h2.6c1.3,0,1.9,0,2.6-0.1v3.3
				c-0.7-0.1-1.5-0.1-2.5-0.1h-2.6c-1,0-1.7,0-2.2,0.1L531,41.3L531,41.3z M532.8,55.2h1.6v-4.9h-1.6V55.2z"/>
			<path class="st1" d="M548.6,54.8c-1.4,0-2.3,0-3.4,0.1c0.1-0.8,0.1-1.8,0.1-3.3v-5.1c0-1.3,0-2.2-0.1-3.2c1,0.1,1.6,0.1,3.6,0.1
				h14.9c1.8,0,2.6,0,3.6-0.1c-0.1,1-0.1,1.8-0.1,3.2v5.1c0,1.8,0,2.7,0.1,3.3c-1-0.1-1.9-0.1-3.1-0.1h-1.8c2.4,1.1,4.6,1.6,8.6,2
				c-0.7,0.9-1.2,1.8-1.6,2.9c-2.5-0.3-3.6-0.5-5.5-1.2c-2-0.6-3-1-5.1-2.1l1.7-1.6h-8.7l1.9,1.6c-3.6,1.7-5.8,2.3-10.3,2.9
				c-0.5-1.2-0.9-1.9-1.9-3c3.8-0.2,6.6-0.7,8.6-1.5C550.1,54.8,548.6,54.8,548.6,54.8z M554.3,31.8c0-0.9,0-1.6-0.2-2.3h3.8
				c-0.1,0.7-0.2,1.4-0.2,2.3V33h3.4c0.9-1.2,1.3-1.9,2-3.3l3.2,1.2c-0.8,1.2-1.1,1.5-1.6,2.1h2.2c1.3,0,2.4,0,3.1-0.1
				c-0.1,1-0.1,1.7-0.1,2.9v1.7c0,0.8,0,1.4,0.1,2.1h-3.2v-3.9h-21.2v3.9h-3.3c0.1-0.8,0.1-1.4,0.1-2.2v-1.8c0-1.1,0-1.7-0.1-2.7
				c1,0.1,1.8,0.1,3.3,0.1h2c-0.5-0.8-0.8-1.1-1.7-2l3.1-1.1c0.9,1,1.2,1.5,2.1,3.1h3.2L554.3,31.8L554.3,31.8z M565,40.4
				c0,0.8,0,1.3,0.1,2.1c-0.9-0.1-1.4-0.1-2.9-0.1h-11.8c-1.1,0-1.9,0-2.9,0.1c0.1-0.7,0.1-1.2,0.1-2v-2c0-1,0-1.5-0.1-2
				c1,0.1,1.8,0.1,3.1,0.1h11.5c1.2,0,2.2,0,3.1-0.1c-0.1,0.7-0.1,1.2-0.1,2L565,40.4L565,40.4z M548.6,46.6h15.1v-1h-15.1V46.6z
				 M548.6,49.6h15.1v-1.1h-15.1V49.6z M548.6,52.6h15.1v-1.1h-15.1V52.6z M550.6,38.8v1.5h11.2v-1.5
				C561.8,38.8,550.6,38.8,550.6,38.8z"/>
			<path class="st1" d="M586,50.5c-0.2,0.4-0.2,0.6-0.4,1.1c-1.3-1.5-2.2-2.8-3.2-4.5c0.2,2.2,0.2,2.6,0.2,3.6V56
				c0,1.5,0,2.4,0.2,3.3h-3.7c0.2-1,0.2-2,0.2-3.4v-4.1c0-1.3,0.1-2.8,0.1-3.8c-1.4,3.5-2.5,5.3-4.2,7.2c-0.4-1.2-0.9-2.4-1.6-3.3
				c1.3-1.4,2.4-2.8,3.5-4.7c0.7-1.2,0.8-1.5,1.7-3.6h-1.7c-1.4,0-2.1,0-2.9,0.2v-3.4c0.7,0.1,1.4,0.2,2.9,0.2h2.1V33
				c0-1.4,0-2.4-0.2-3.1h3.6c-0.1,0.8-0.2,1.6-0.2,3.1v7.6h1.5c1.2,0,1.8,0,2.5-0.1v3.3c-0.8-0.1-1.4-0.1-2.5-0.1h-1.2
				c1.2,2,2.4,3.5,4.1,4.9c-0.4,0.8-0.6,1.1-0.9,1.8c0.7,0,1.9-0.2,2.9-0.4l7.5-1.7V33.4c0-1.9,0-2.7-0.2-3.7h3.9
				c-0.2,1.1-0.2,1.9-0.2,3.7v13.9c1.3-0.3,1.9-0.5,2.7-0.8l0.7,3.6c-0.9,0.1-1.8,0.3-3.1,0.6l-0.3,0.1v4.7c0,1.8,0,2.8,0.2,3.8
				h-3.9c0.2-1.1,0.2-1.9,0.2-3.8v-3.9l-6.8,1.5c-1.4,0.3-2.3,0.6-3,0.8L586,50.5z M576.7,31.4c1,2.8,1.5,4.5,2,6.9l-2.7,1.2
				c-0.5-2.9-1.1-4.9-2-6.8L576.7,31.4z M587.7,32.6c-0.8,2.9-1.2,4.1-2.6,6.9l-2.3-1.2c1-2.1,1.6-3.8,2.2-6.9L587.7,32.6z
				 M589.3,39.8c2.5,1.7,3.9,2.9,5.6,4.7l-2.2,2.6c-2.2-2.4-3.3-3.4-5.6-4.9L589.3,39.8z M590.3,31.8c2.8,1.9,3.8,2.8,5.6,4.7
				l-2.2,2.7c-2.4-2.5-2.5-2.7-5.7-4.9L590.3,31.8z"/>
			<path class="st1" d="M615.3,41.4c-1.3,0-2.2,0-3.1,0.2v-1.5c-1.8,1.1-3.1,1.8-5.2,2.6c-0.8-1.7-1-2.1-1.9-3.3
				c6-2.1,10.8-5.5,13.1-9.4h4c1.3,1.9,2.7,3.3,4.9,4.9c2.6,2,5,3.2,8.5,4.3c-0.8,1.2-1.2,2.2-1.7,3.5c-2.5-1.1-3.6-1.6-5.6-2.8v1.6
				c-0.9-0.1-1.8-0.2-3.1-0.2h-3.4v3.1h8.1c1.7,0,2.7-0.1,3.5-0.2v3.6c-0.9-0.1-2-0.2-3.5-0.2h-8.1v7.2h8.7c1.6,0,2.7-0.1,3.8-0.2
				v3.7c-1.2-0.2-2.5-0.2-3.8-0.2h-20.2c-1.5,0-2.6,0.1-4,0.2v-3.7c1.2,0.1,2.3,0.2,4,0.2h8v-7.2h-7.6c-1.4,0-2.5,0.1-3.5,0.2v-3.6
				c0.9,0.1,1.9,0.2,3.5,0.2h7.6v-3.1L615.3,41.4L615.3,41.4z M613.1,48c1.1,1.9,1.7,3.1,2.6,5.3l-3.2,1.3c-0.7-2-1.5-3.7-2.5-5.3
				L613.1,48z M615.2,38.4h9.9c0.3,0,0.3,0,0.8,0c-2.5-1.8-4.1-3.3-5.8-5.4c-1.6,2.2-2.9,3.5-5.6,5.4H615.2z M630.5,49.3
				c-0.4,0.7-0.4,0.7-1.6,3.1c-0.1,0.2-0.2,0.4-1.3,2.3l-3-1.1c1-1.6,1.8-3.3,2.5-5.5L630.5,49.3z"/>
		</g>
		<g>
			<path class="st1" d="M483.9,100.9c0.2-1.2,0.3-2.5,0.3-4.1v-2.2h-4.8c-1.4,0-2.3,0.1-3.4,0.3v-3.6c1.1,0.2,1.9,0.3,3.4,0.3h4.8
				v-1l-1.1-1.6h-3.7c-1.5,0-2.3,0.1-3.4,0.3v-3.6c1.1,0.2,1.9,0.3,3.4,0.3h1.8l-4.4-7c-0.9-1.4-1.8-2.7-2.2-3.3h5.5
				c0.3,0.9,0.6,1.6,1.5,3.1l4.7,8.1l4.7-8.1c0.9-1.5,1.3-2.3,1.5-3.2h5.5c-0.4,0.5-1.7,2.4-2.3,3.3l-4.4,7h1.8
				c1.4,0,2.3-0.1,3.4-0.3v3.6c-1.1-0.2-2-0.3-3.4-0.3h-3.7l-1.1,1.7v0.9h4.7c1.4,0,2.2-0.1,3.4-0.3v3.6c-1.1-0.2-2-0.3-3.4-0.3
				h-4.7v2.2c0,1.8,0.1,2.8,0.3,4.1h-4.7V100.9z"/>
			<path class="st1" d="M508.1,100.9c0.2-1.2,0.3-2.5,0.3-4.2V79.1h-1.5c-1.2,0-2.1,0.1-3.3,0.2v-4.1c1,0.2,1.7,0.2,3.2,0.2h2.9
				c1.6,0,2.1,0,3.3-0.2c-0.2,1.9-0.3,3.4-0.3,5.3v16.2c0,1.7,0.1,2.8,0.3,4.2L508.1,100.9L508.1,100.9z"/>
			<path class="st1" d="M528,100.9c0,2.8-0.7,3.8-3.3,4.8l-1.2-1.7c2-0.5,2.4-1.1,2.4-3.1h-2.7v-4.7h4.7L528,100.9L528,100.9z"/>
			<path class="st1" d="M534.6,98.8c-1-1-1.7-2.1-2.1-3.2c-0.8-2.3-1.2-4.8-1.2-7.4c0-3.4,0.8-6.9,2-8.9c1.7-2.9,4.6-4.4,8.2-4.4
				c2.7,0,5.1,0.9,6.8,2.6c1,1,1.7,2.1,2.1,3.2c0.8,2.2,1.2,4.8,1.2,7.4c0,3.9-0.9,7.4-2.4,9.5c-1.8,2.5-4.4,3.8-7.8,3.8
				C538.6,101.4,536.3,100.5,534.6,98.8z M544.9,96.4c1.4-1.5,2.2-4.5,2.2-8.2s-0.8-6.6-2.2-8.2c-0.8-0.9-2-1.3-3.5-1.3
				s-2.7,0.5-3.6,1.6c-1.4,1.7-2.1,4.3-2.1,7.8c0,3.4,0.6,6.1,1.6,7.6c1,1.4,2.3,2.1,4.1,2.1C542.8,97.7,544.1,97.2,544.9,96.4z"/>
			<path class="st1" d="M557.4,98.8c-1-1-1.7-2.1-2.1-3.2c-0.8-2.3-1.2-4.8-1.2-7.4c0-3.4,0.8-6.9,2-8.9c1.7-2.9,4.6-4.4,8.2-4.4
				c2.7,0,5.1,0.9,6.8,2.6c1,1,1.7,2.1,2.1,3.2c0.8,2.2,1.2,4.8,1.2,7.4c0,3.9-0.9,7.4-2.4,9.5c-1.8,2.5-4.4,3.8-7.8,3.8
				C561.4,101.4,559.1,100.5,557.4,98.8z M567.6,96.4c1.4-1.5,2.2-4.5,2.2-8.2s-0.8-6.6-2.2-8.2c-0.8-0.9-2-1.3-3.5-1.3
				s-2.7,0.5-3.6,1.6c-1.4,1.7-2.1,4.3-2.1,7.8c0,3.4,0.6,6.1,1.6,7.6c1,1.4,2.3,2.1,4.1,2.1C565.6,97.7,566.8,97.2,567.6,96.4z"/>
			<path class="st1" d="M580.2,98.8c-1-1-1.7-2.1-2.1-3.2c-0.8-2.3-1.2-4.8-1.2-7.4c0-3.4,0.8-6.9,2-8.9c1.7-2.9,4.6-4.4,8.2-4.4
				c2.7,0,5.1,0.9,6.8,2.6c1,1,1.7,2.1,2.1,3.2c0.8,2.2,1.2,4.8,1.2,7.4c0,3.9-0.9,7.4-2.4,9.5c-1.8,2.5-4.4,3.8-7.8,3.8
				C584.2,101.4,581.9,100.5,580.2,98.8z M590.4,96.4c1.4-1.5,2.2-4.5,2.2-8.2s-0.8-6.6-2.2-8.2c-0.8-0.9-2-1.3-3.5-1.3
				s-2.7,0.5-3.6,1.6c-1.4,1.7-2.1,4.3-2.1,7.8c0,3.4,0.6,6.1,1.6,7.6c1,1.4,2.3,2.1,4.1,2.1C588.4,97.7,589.6,97.2,590.4,96.4z"/>
		</g>
		<g class="st2">
			<path d="M401.3,128.5l0.7,0.7l-7.9,7.9l7.9,7.9l-0.7,0.7l-7.9-7.8l-7.8,7.8l-0.7-0.7l7.9-7.9l-7.9-7.9l0.7-0.7l7.8,7.9
				L401.3,128.5z M388.8,137.1c0,1-0.8,1.7-1.7,1.7c-0.9,0-1.7-0.8-1.7-1.7c0-0.9,0.8-1.7,1.7-1.7
				C388,135.4,388.8,136.1,388.8,137.1z M395.1,143.5c0,0.9-0.8,1.7-1.7,1.7c-0.9,0-1.7-0.8-1.7-1.7c0-0.8,0.8-1.7,1.5-1.7
				c0,0,0,0,0.1,0c0,0,0,0,0,0c0,0,0,0,0,0C394.4,141.8,395.1,142.6,395.1,143.5z M395.1,130.7c0,1-0.8,1.7-1.7,1.7
				c-0.9,0-1.7-0.8-1.7-1.7c0-0.9,0.8-1.7,1.7-1.7C394.4,129,395.1,129.7,395.1,130.7z M401.4,137.1c0,0.9-0.8,1.7-1.7,1.7
				c-0.9,0-1.7-0.8-1.7-1.7s0.8-1.7,1.7-1.7C400.7,135.4,401.4,136.2,401.4,137.1z"/>
			<path d="M421.7,131.8c-0.2,0.3-0.3,0.6-0.6,1.3c-1.3,3.9-2.4,5.9-4.4,8.4c-2,2.3-4.7,4.2-7.9,5.6c-0.6-1-1-1.5-1.9-2.3
				c5.8-2.2,9.5-6.2,11.3-11.9l-6.7,0.1c-1.2,2-3.3,4.3-5.2,5.7c-0.7-0.9-1-1.2-2.1-1.9c2.4-1.6,4.2-3.6,5.7-6.4
				c0.7-1.2,1.1-2.2,1.1-2.9l3,0.6c-0.2,0.2-0.2,0.2-0.4,0.7c-0.2,0.4-0.4,0.8-0.6,1.3c-0.1,0.2-0.1,0.2-0.2,0.3l-0.2,0.3
				c0.3,0,0.6,0,1.1,0l4.8-0.1c0.6,0,1,0,1.2,0c-0.5-1.1-0.9-1.8-1.6-2.8l1.6-0.6c0.9,1.2,1.4,2,2,3.5l-1,0.4L421.7,131.8z
				 M423.1,130.2c-0.5-1.3-1.2-2.4-1.9-3.4l1.6-0.6c0.9,1.2,1.4,2.1,1.9,3.4L423.1,130.2z"/>
			<path d="M443.3,134.8c-0.2,0.4-0.4,0.7-0.6,1.4c-1.2,3.3-2.8,5.7-5.1,7.5c-1.6,1.2-3,2-5.8,3c-0.5-1.1-0.8-1.5-1.7-2.6
				c2.7-0.7,4.4-1.5,6.2-2.9c1.6-1.4,2.6-2.7,3.6-5.2H429c-1.5,0-2,0-2.8,0.1v-2.7c0.8,0.1,1.3,0.2,2.9,0.2h10.5
				c1.4,0,1.8,0,2.5-0.2L443.3,134.8z M428.1,128.1c0.7,0.1,1.2,0.2,2.6,0.2h7.7c1.4,0,1.9,0,2.6-0.2v2.7c-0.7-0.1-1.1-0.1-2.5-0.1
				h-7.8c-1.4,0-1.9,0-2.5,0.1V128.1z"/>
			<path d="M446.1,142.8c1.9-0.1,4.5-0.8,6.6-1.6c2.8-1.2,4.8-2.9,6.6-5.4c1-1.4,1.6-2.6,2.3-4.4c0.9,1,1.2,1.4,2.3,2.2
				c-1.9,4.1-4,6.7-7,8.7c-2.3,1.5-5,2.6-8.4,3.3c-0.9,0.2-1,0.2-1.5,0.4L446.1,142.8z M448,129.1c2.6,1.6,4,2.7,5.7,4.3l-1.9,2.4
				c-1.8-1.9-3.6-3.3-5.6-4.5L448,129.1z"/>
			<path d="M468.3,146.5c0.1-0.6,0.1-1.2,0.1-2.5v-14.2c0-1.3,0-1.7-0.1-2.3h3c-0.1,0.6-0.1,1-0.1,2.3v4.1c2.6,0.8,6.6,2.7,10,4.7
				l-1.5,2.6c-1.5-1.1-4.7-2.8-7.8-4.2c-0.5-0.2-0.6-0.3-0.8-0.4c0.1,0.6,0.1,1,0.1,1.5v5.8c0,1.2,0,1.8,0.1,2.5H468.3z
				 M477.4,128.7c1,1,1.6,1.9,2.3,3.3l-1.5,0.8c-0.7-1.4-1.4-2.2-2.3-3.3L477.4,128.7z M480.9,131.4c-0.7-1.2-1.4-2.3-2.3-3.2
				l1.5-0.8c1,1,1.6,1.9,2.3,3.1L480.9,131.4z"/>
			<path d="M486.5,133.3c2.3,0.9,4,1.8,5.9,3l-1.4,2.5c-1.8-1.3-3.7-2.4-6-3.3L486.5,133.3z M485.5,143.2c1.7,0,4.1-0.6,6.4-1.4
				c2.7-1.1,4.6-2.5,6.4-4.9c1.2-1.6,1.9-2.9,2.6-4.9c0.9,1,1.2,1.2,2.3,2c-1,2.5-1.9,4-3.3,5.6c-2.8,3.2-6.6,5.2-12,6.3
				c-0.8,0.2-1.1,0.2-1.5,0.4L485.5,143.2z M488.2,127.9c2.3,0.9,4,1.7,5.9,2.9l-1.4,2.4c-2-1.3-4-2.4-5.9-3.1L488.2,127.9z"/>
			<path d="M512.7,146.9c0.1-0.6,0.1-1.2,0.1-2v-4.6c0-0.2,0-0.5,0-1.1c-0.2,0.2-0.4,0.3-0.7,0.4c-1.7,0.9-3.5,1.6-6.2,2.5
				c-0.4-1.1-0.6-1.4-1.3-2.4c2.2-0.5,3.9-1,6.2-2.1c2.6-1.2,5-2.8,6.9-4.7c-0.2,0-0.2,0-0.5,0c-0.1,0-0.1,0-8.1,0.1
				c-1.3,0-1.5,0-2.3,0.1v-2.7c0.6,0.1,1.4,0.2,2.4,0.2h3.7v-1.8c0-0.8,0-1.1-0.1-1.6h3c-0.1,0.4-0.1,0.8-0.1,1.5v1.8h3.7
				c0.7,0,1.1-0.1,1.5-0.2l1.3,1.5c-0.4,0.3-0.4,0.3-1,1c-1.2,1.4-2.4,2.5-4.5,4.1c2.7,0.8,5.1,1.9,7.7,3.5l-1.5,2.3
				c-2.3-1.5-4-2.4-6.7-3.5c-0.3-0.1-0.3-0.1-0.6-0.2c0,0.3,0,0.9,0,1.1v4.9c0,1,0,1.3,0.1,2H512.7z"/>
			<path d="M530.4,134.9c1.2,1,1.8,1.6,2.7,2.5c1.2,1.2,1.2,1.2,1.4,1.4c1.2-1,2.1-1.9,2.9-2.8c1-1.1,2.2-2.7,2.7-3.6
				c0.1-0.1,0.1-0.1,0.1-0.2c0-0.1,0-0.1,0-0.1c-0.2,0-0.6,0-1,0h-8.1c-0.8,0-1.4,0-2.5,0c-1.8,0-2,0-2.8,0.1v-2.8
				c0.9,0.1,1.4,0.2,2.9,0.2l12.3,0c1,0,1.3,0,1.8-0.2l1.5,1.7c-0.3,0.4-0.5,0.5-1,1.3c-2.1,3.4-4.4,6.1-7.1,8.4
				c0.9,1.1,1.8,2.1,2.9,3.7l-2.3,1.9c-1.2-2-2.4-3.5-4.3-5.6c-1.7-1.9-2.8-3-4.4-4.3L530.4,134.9z"/>
			<path d="M558.5,131.9l0-1v-0.7c0-1.5,0-1.9-0.1-2.5h2.9c-0.1,0.5-0.1,0.6-0.1,1.5c0,1.4,0,1.4,0,2.7h1.4c1.6,0,2,0,2.9-0.2v2.7
				c-0.8-0.1-1.4-0.1-2.8-0.1h-1.5c0,2.7,0,2.8-0.2,3.7c-0.3,2.8-1.3,4.7-3.2,6.4c-1.2,1-2.3,1.6-4.3,2.3c-0.4-1-0.7-1.4-1.7-2.3
				c2.1-0.6,3.2-1.2,4.2-2.1c1.5-1.3,2.1-2.8,2.3-5.3c0-0.5,0-1,0.1-2.6h-5.7v3.3c0,0.9,0,1.3,0.1,1.9H550c0.1-0.5,0.1-1.1,0.1-1.9
				v-3.3h-1.4c-1.5,0-2.1,0-2.8,0.1v-2.7c0.9,0.1,1.3,0.2,2.9,0.2h1.3v-2.2c0-0.9,0-1.4-0.1-2h2.9c-0.1,0.7-0.1,0.8-0.1,1.9v2.3
				H558.5z"/>
			<path d="M567.7,142.8c1.9-0.1,4.5-0.8,6.6-1.6c2.8-1.2,4.8-2.9,6.6-5.4c1-1.4,1.6-2.6,2.3-4.4c0.9,1,1.2,1.4,2.3,2.2
				c-1.9,4.1-4,6.7-7,8.7c-2.3,1.5-5,2.6-8.4,3.3c-0.9,0.2-1,0.2-1.5,0.4L567.7,142.8z M569.6,129.1c2.6,1.6,4,2.7,5.7,4.3l-1.9,2.4
				c-1.8-1.9-3.6-3.3-5.6-4.5L569.6,129.1z"/>
			<path d="M589.3,133.3c2.3,0.9,4,1.8,5.9,3l-1.4,2.5c-1.8-1.3-3.7-2.4-6-3.3L589.3,133.3z M588.3,143.2c1.7,0,4.1-0.6,6.4-1.4
				c2.7-1.1,4.6-2.5,6.4-4.9c1.2-1.6,1.9-2.9,2.6-4.9c0.9,1,1.2,1.2,2.3,2c-1,2.5-1.9,4-3.3,5.6c-2.8,3.2-6.6,5.2-12,6.3
				c-0.8,0.2-1.1,0.2-1.5,0.4L588.3,143.2z M591,127.9c2.3,0.9,4,1.7,5.9,2.9l-1.4,2.4c-2-1.3-4-2.4-5.9-3.1L591,127.9z"/>
			<path d="M612.1,133c-0.2-1-0.2-1.2-0.4-1.7l2.6-0.4c0,0.4,0.1,0.9,0.2,1.7l0.3,1.7l6.6-1.1c0.6-0.1,1-0.2,1.5-0.4l1.5,1.4
				c-0.2,0.3-0.3,0.5-0.6,1.1c-1,2.5-2.2,4.1-4.4,5.8c-0.8-0.8-1.1-1.1-2.1-1.6c1.6-1,2.9-2.3,3.8-4c-0.3,0.1-0.3,0.1-0.8,0.2
				l-5.2,0.9l1.6,8.2c0.2,1.2,0.2,1.2,0.4,1.8l-2.8,0.5c0-0.6,0-1.1-0.2-1.8l-1.5-8.3l-1.9,0.3c-0.8,0.1-1.3,0.3-1.9,0.5l-0.5-2.5
				c0.7,0,1.3-0.1,2.1-0.2l1.8-0.3L612.1,133z"/>
			<path d="M644.9,129.3c-0.4,0.3-0.5,0.4-0.8,0.8c-1.7,1.7-3.3,3.2-5.2,4.6v9.4c0,1.2,0,1.9,0.1,2.5h-3.1c0.1-0.6,0.1-1.1,0.1-2.4
				v-7.8c-2.6,1.5-3.8,2.1-7.9,3.6c-0.5-1.2-0.7-1.5-1.5-2.5c4.4-1.2,8.1-3,11.6-5.8c2-1.5,3.5-3.1,4.1-4.1L644.9,129.3z"/>
			<path d="M647.8,142.8c1.9-0.1,4.5-0.8,6.6-1.6c2.8-1.2,4.8-2.9,6.6-5.4c1-1.4,1.6-2.6,2.3-4.4c0.9,1,1.2,1.4,2.3,2.2
				c-1.9,4.1-4,6.7-7,8.7c-2.3,1.5-5,2.6-8.4,3.3c-0.9,0.2-1,0.2-1.5,0.4L647.8,142.8z M649.7,129.1c2.6,1.6,4,2.7,5.7,4.3l-1.9,2.4
				c-1.8-1.9-3.6-3.3-5.6-4.5L649.7,129.1z"/>
			<path d="M669.1,146.3c0-0.2,0-0.4-0.1-0.9c-0.4-2.6-0.6-4.7-0.6-7c0-2,0.1-3.9,0.4-5.9c0.1-0.7,0.1-0.7,0.6-3.2
				c0.2-0.8,0.2-1.4,0.2-1.6c0,0,0,0,0-0.1l3,0.3c-0.9,1.9-1.7,7.3-1.8,11.1c0,0.8,0,0.8,0,1.2c0,0.2,0,0.2,0,0.4c0,0.2,0,0.2,0,0.5
				h0c0.1-0.2,0.1-0.2,0.3-0.6c0-0.2,0.2-0.4,0.3-0.8c0.2-0.5,0.2-0.5,0.4-1c0-0.1,0.1-0.1,0.3-0.7l1.8,0.8
				c-1.3,2.6-2.2,5.3-2.2,6.8c0,0.2,0,0.2,0,0.6L669.1,146.3z M674.1,131.8c1,0.3,2.2,0.4,4,0.4c0.8,0,1.3,0,2,0c0-1.3,0-2.4,0-3.3
				c0-0.5,0-0.8-0.1-1.1l2.8-0.1c-0.1,0.6-0.2,1.7-0.2,3.3c0,0.2,0,0.6,0,1c1.2-0.1,2.1-0.3,3-0.5c0.1,0,0.1,0,0.5-0.2l0.2,0
				l0.1,2.5c-0.2,0-0.2,0-0.6,0.1c-0.8,0.2-1.9,0.4-3.1,0.5c0,0.2,0,0.2,0,0.5c0,1.2,0,1.3,0.2,5c1.6,0.8,2.1,1.1,3.5,2
				c0.3,0.2,0.4,0.3,0.6,0.4l-1.1,2.7c-0.4-0.4-1-1-1.7-1.4c-0.8-0.5-1.3-0.8-1.4-0.9c0,0.1,0,0.2,0,0.3c0,0.5-0.1,0.9-0.2,1.2
				c-0.5,1.3-2.1,2.1-4.2,2.1c-2.9,0-4.7-1.4-4.7-3.6c0-2.1,1.9-3.7,4.6-3.7c0.8,0,1.4,0.1,2,0.3c-0.1-0.6-0.1-1.6-0.2-4.7
				c-0.9,0-1.4,0-2,0c-0.8,0-1.7,0-2.7-0.1c-0.3,0-0.6,0-0.7,0c-0.2,0-0.3,0-0.4,0c-0.1,0-0.2,0-0.2,0c0,0-0.1,0-0.1,0L674.1,131.8z
				 M678.6,141.1c-1.4,0-2.3,0.6-2.3,1.5c0,0.8,0.8,1.4,2,1.4c0.8,0,1.5-0.2,1.8-0.7c0.2-0.3,0.3-0.6,0.3-1.2c0-0.2,0-0.6,0-0.6
				C679.7,141.2,679.3,141.1,678.6,141.1z"/>
			<path d="M485,183.5c0.2-1.2,0.2-2.4,0.2-4v-2.1h-4.7c-1.4,0-2.2,0.1-3.3,0.2v-3.5c1.1,0.2,1.8,0.2,3.3,0.2h4.7v-0.9l-1-1.6h-3.6
				c-1.4,0-2.2,0.1-3.3,0.2v-3.5c1,0.2,1.8,0.2,3.3,0.2h1.7L478,162c-0.9-1.4-1.7-2.6-2.2-3.2h5.3c0.3,0.9,0.6,1.6,1.5,3l4.6,7.9
				l4.6-7.8c0.9-1.5,1.2-2.2,1.5-3.1h5.4c-0.4,0.5-1.6,2.3-2.2,3.2l-4.3,6.8h1.7c1.4,0,2.2-0.1,3.3-0.2v3.5
				c-1.1-0.2-1.9-0.2-3.3-0.2h-3.6l-1,1.6v0.9h4.6c1.4,0,2.2-0.1,3.3-0.2v3.5c-1.1-0.2-1.9-0.2-3.3-0.2h-4.6v2.1
				c0,1.8,0.1,2.7,0.2,4H485z"/>
			<path d="M508.4,183.5c0.2-1.2,0.2-2.4,0.2-4v-17.1h-1.5c-1.1,0-2,0.1-3.2,0.2v-3.9c1,0.2,1.6,0.2,3.1,0.2h2.8c1.6,0,2,0,3.2-0.2
				c-0.2,1.8-0.2,3.3-0.2,5.1v15.7c0,1.6,0.1,2.8,0.2,4H508.4z"/>
			<path d="M527.7,183.5c0,2.7-0.7,3.7-3.2,4.6l-1.1-1.6c1.9-0.5,2.3-1.1,2.4-3h-2.6V179h4.6V183.5z"/>
			<path d="M538.8,183.5c0.2-1.2,0.2-2.4,0.2-4v-17.1h-1.5c-1.1,0-2,0.1-3.2,0.2v-3.9c1,0.2,1.6,0.2,3.1,0.2h2.8c1.6,0,2,0,3.2-0.2
				c-0.2,1.8-0.2,3.3-0.2,5.1v15.7c0,1.6,0.1,2.8,0.2,4H538.8z"/>
			<path d="M556.1,181.5c-0.9-0.9-1.6-2-2-3.1c-0.8-2.2-1.2-4.6-1.2-7.1c0-3.3,0.7-6.7,1.9-8.6c1.7-2.8,4.5-4.3,7.9-4.3
				c2.6,0,4.9,0.9,6.5,2.5c0.9,0.9,1.6,2,2,3.1c0.8,2.2,1.2,4.6,1.2,7.2c0,3.8-0.8,7.2-2.3,9.2c-1.7,2.4-4.3,3.7-7.5,3.7
				C560,184,557.8,183.1,556.1,181.5z M566,179.1c1.4-1.5,2.2-4.3,2.2-8c0-3.6-0.8-6.4-2.2-7.9c-0.7-0.8-2-1.3-3.4-1.3
				c-1.5,0-2.6,0.5-3.5,1.6c-1.4,1.6-2,4.2-2,7.5c0,3.3,0.6,5.9,1.6,7.4c1,1.4,2.3,2,4,2C564,180.4,565.2,179.9,566,179.1z"/>
			<path d="M578.2,181.5c-0.9-0.9-1.6-2-2-3.1c-0.8-2.2-1.2-4.6-1.2-7.1c0-3.3,0.7-6.7,1.9-8.6c1.7-2.8,4.5-4.3,7.9-4.3
				c2.6,0,4.9,0.9,6.5,2.5c0.9,0.9,1.6,2,2,3.1c0.8,2.2,1.2,4.6,1.2,7.2c0,3.8-0.8,7.2-2.3,9.2c-1.7,2.4-4.3,3.7-7.5,3.7
				C582.1,184,579.8,183.1,578.2,181.5z M588.1,179.1c1.4-1.5,2.2-4.3,2.2-8c0-3.6-0.8-6.4-2.2-7.9c-0.7-0.8-2-1.3-3.4-1.3
				c-1.5,0-2.6,0.5-3.5,1.6c-1.4,1.6-2,4.2-2,7.5c0,3.3,0.6,5.9,1.6,7.4c1,1.4,2.3,2,4,2C586.1,180.4,587.3,179.9,588.1,179.1z"/>
		</g>
	</g>
</g>
<polygon class="st3" points="394.1,247.1 356.5,284.8 318.9,247.1 "/>
<g>
	<path class="st1" d="M159.6,330c0.8,0.1,1.3,0.2,2.6,0.2h2.5c1,0,1.7,0,2.4-0.2c-0.1,1-0.1,1.8-0.1,3.5v6.7c0.4,1,0.9,1.5,1.8,2
		c1.3,0.9,3.3,1.2,7.4,1.2c6.2,0,10-0.2,13.3-0.5c-0.6,1.5-0.7,2.2-1,3.6c-3.6,0.1-6.7,0.1-10.3,0.1c-4.7,0-7.1-0.2-8.8-0.8
		c-1.6-0.5-2.8-1.4-4.1-3c-1.3,1.3-2.3,2.2-3.6,3.1c-0.5,0.4-1,0.8-1.2,1l-1.5-3.6c1.1-0.4,3-1.7,4.7-3.2v-6.7h-1.8
		c-0.9,0-1.4,0-2.2,0.2L159.6,330L159.6,330z M162.1,318.2c2.5,2.2,3.5,3.3,5.5,5.9l-2.7,2.6c-2-2.8-3.1-4.1-5.3-6.1L162.1,318.2z
		 M174.9,320.8c0.7-1,1.2-2.1,1.7-3.3l3.7,0.5c-0.6,1.1-1,1.8-1.6,2.7h5.2c1,0,1.7,0,2.3-0.1c-0.1,0.7-0.1,1.4-0.1,2.2v4.4
		c0,1.1,0,1.8,0.1,2.4c-0.8,0-1.3-0.1-2.3-0.1h-10.8v2.3h11.7c1.2,0,1.6,0,2.2-0.1c-0.1,0.7-0.1,1.3-0.1,2.4v4.8
		c0,0.8,0,1.5,0.1,2.2c-0.7-0.1-1.3-0.1-2.2-0.1H172c-0.9,0-1.6,0-2.3,0.1c0.1-0.7,0.1-1.4,0.1-2.2v-16.2c0-0.7-0.1-1.4-0.1-2.2
		c0.8,0.1,1.6,0.1,2.5,0.1h2.7V320.8z M173.1,326.7h9.7v-2.9h-9.7V326.7z M173.1,338.1h10.5v-3.3h-10.5V338.1z"/>
	<path class="st1" d="M202.8,323.3c1.7,0,2.6,0,3.6-0.1c-0.1,1.1-0.1,1.2-0.2,5.2c-0.1,6.7-0.4,11.5-1,14.2
		c-0.6,2.8-1.5,3.6-4.1,3.6c-0.8,0-2-0.1-3.4-0.2c-0.1-1.6-0.2-2-0.6-3.4c1.2,0.2,2.4,0.4,3.1,0.4c0.9,0,1.2-0.2,1.5-1.3
		c0.4-1.2,0.6-4,0.8-7.6c0.1-2.8,0.1-2.8,0.2-7.5h-3.1c-0.3,4.3-0.7,7.4-1.6,10.6c-1,3.7-2.4,6.6-4.9,9.8c-0.9-1.4-1.6-2.3-2.6-3.3
		c2-2.4,3.3-4.7,4.3-8c0.8-2.7,1.2-5.3,1.5-9.2h-1.6c-1.4,0-2.3,0.1-3.2,0.2V323c0.9,0.1,1.9,0.2,3.5,0.2h1.4c0-0.9,0-1,0-2.7
		c0-1.3-0.1-2-0.2-2.8h3.8c-0.1,0.7-0.2,1.1-0.2,2.1c0,0.6,0,0.6-0.1,3.4L202.8,323.3L202.8,323.3z M211.7,346.5h-3.6
		c0.1-1,0.2-2.2,0.2-3.7v-18.4c0-1.5,0-2.3-0.2-3.4c0.9,0.1,1.7,0.2,2.9,0.2h6.1c1.3,0,2,0,2.9-0.2c-0.1,1.1-0.2,1.9-0.2,3.4v18.3
		c0,1.5,0.1,2.5,0.2,3.6h-3.6V344h-4.7L211.7,346.5L211.7,346.5z M211.7,340.8h4.7v-16.4h-4.7V340.8z"/>
	<path class="st1" d="M235.8,338.6c-0.2,0.4-0.2,0.6-0.4,1.1c-1.3-1.5-2.2-2.8-3.2-4.5c0.2,2.2,0.2,2.6,0.2,3.6v5.3
		c0,1.5,0,2.4,0.2,3.3h-3.7c0.2-1,0.2-2,0.2-3.4v-4.1c0-1.3,0.1-2.8,0.1-3.8c-1.4,3.5-2.5,5.3-4.2,7.2c-0.4-1.2-0.9-2.4-1.6-3.3
		c1.3-1.4,2.4-2.8,3.5-4.7c0.7-1.2,0.8-1.5,1.7-3.6h-1.7c-1.4,0-2.1,0-2.9,0.2v-3.4c0.7,0.1,1.4,0.2,2.9,0.2h2.1V321
		c0-1.4,0-2.4-0.2-3.1h3.6c-0.1,0.8-0.2,1.6-0.2,3.1v7.6h1.5c1.2,0,1.8,0,2.5-0.1v3.3c-0.8-0.1-1.4-0.1-2.5-0.1h-1.2
		c1.2,2,2.4,3.5,4.1,4.9c-0.4,0.8-0.6,1.1-0.9,1.8c0.7,0,1.9-0.2,2.9-0.4l7.5-1.7v-14.6c0-1.9,0-2.7-0.2-3.7h3.9
		c-0.2,1.1-0.2,1.9-0.2,3.7v13.9c1.3-0.3,1.9-0.5,2.7-0.8l0.7,3.6c-0.9,0.1-1.8,0.3-3.1,0.6l-0.3,0.1v4.7c0,1.8,0,2.8,0.2,3.8h-3.9
		c0.2-1.1,0.2-1.9,0.2-3.8v-3.9l-6.8,1.5c-1.4,0.3-2.3,0.6-3,0.8L235.8,338.6z M226.5,319.6c1,2.8,1.5,4.5,2,6.9l-2.7,1.2
		c-0.5-2.9-1.1-4.9-2-6.8L226.5,319.6z M237.5,320.7c-0.8,2.9-1.2,4.1-2.6,6.9l-2.3-1.2c1-2.1,1.6-3.8,2.2-6.9L237.5,320.7z
		 M239.1,328c2.5,1.7,3.9,2.9,5.6,4.7l-2.2,2.6c-2.2-2.4-3.3-3.4-5.6-4.9L239.1,328z M240.1,320c2.8,1.9,3.8,2.8,5.6,4.7l-2.2,2.7
		c-2.4-2.5-2.5-2.7-5.7-4.9L240.1,320z"/>
	<path class="st1" d="M265.1,329.6c-1.3,0-2.2,0-3.1,0.2v-1.5c-1.8,1.1-3.1,1.8-5.2,2.6c-0.8-1.7-1-2.1-1.9-3.3
		c6-2.1,10.8-5.5,13.1-9.4h4c1.3,1.9,2.7,3.3,4.9,4.9c2.6,2,5,3.2,8.5,4.3c-0.8,1.2-1.2,2.2-1.7,3.5c-2.5-1.1-3.6-1.6-5.6-2.8v1.6
		c-0.9-0.1-1.8-0.2-3.1-0.2h-3.3v3.1h8.1c1.7,0,2.7-0.1,3.5-0.2v3.6c-0.9-0.1-2-0.2-3.5-0.2h-8.1v7.2h8.7c1.6,0,2.7-0.1,3.8-0.2v3.7
		c-1.2-0.2-2.5-0.2-3.8-0.2H260c-1.5,0-2.6,0.1-4,0.2v-3.7c1.2,0.1,2.3,0.2,4,0.2h8v-7.2h-7.6c-1.4,0-2.5,0.1-3.5,0.2v-3.6
		c0.9,0.1,1.9,0.2,3.5,0.2h7.6v-3.1L265.1,329.6L265.1,329.6z M262.8,336.2c1.1,1.9,1.7,3.1,2.6,5.3l-3.2,1.3
		c-0.7-2-1.5-3.7-2.5-5.3L262.8,336.2z M265,326.6h9.9c0.3,0,0.3,0,0.8,0c-2.5-1.8-4.1-3.3-5.8-5.4c-1.6,2.2-2.9,3.5-5.6,5.4H265z
		 M280.3,337.5c-0.4,0.7-0.4,0.7-1.6,3.1c-0.1,0.2-0.2,0.4-1.3,2.3l-3-1.1c1-1.6,1.8-3.3,2.5-5.5L280.3,337.5z"/>
	<path class="st1" d="M293.8,328.4c-2.1,1.3-2.9,1.7-5.1,2.7c-0.5-1.3-0.9-2-1.9-3.3c3-1.2,5.7-2.7,8.2-4.6c2.2-1.8,3.7-3.4,5-5.3
		h3.8c1.4,2,2.8,3.5,5.4,5.4c2.5,1.9,4.9,3.2,8.2,4.4c-0.8,1.3-1.2,2-1.8,3.5c-2.3-1-3.3-1.5-5.2-2.8v2.2c-0.8-0.1-1.6-0.1-2.9-0.1
		h-10.9c-1,0-1.9,0-2.8,0.1L293.8,328.4L293.8,328.4z M291.2,347.1c0.1-1,0.2-2,0.2-3.4v-7.5c0-1.3-0.1-2.2-0.2-3.2
		c0.7,0.1,1.5,0.1,2.8,0.1h16c1.3,0,2,0,2.8-0.1c-0.1,0.9-0.2,1.8-0.2,3.2v7.5c0,1.5,0,2.4,0.2,3.4H309v-1.6h-14v1.6H291.2z
		 M295,342.4h14v-6h-14V342.4z M307.5,327.2c0.4,0,0.5,0,1.1,0c-2.8-2-4.6-3.7-6.6-6.2c-1.9,2.8-3.3,4.1-6.3,6.2c0.4,0,0.5,0,0.9,0
		H307.5z"/>
	<path class="st1" d="M319.7,323.2c0.8,0.1,1.5,0.2,2.7,0.2h8.2c1.2,0,2,0,2.7-0.2v3.2c-0.7-0.1-1.4-0.1-2.7-0.1h-8.3
		c-1.1,0-1.8,0-2.7,0.2L319.7,323.2L319.7,323.2z M321.1,318.7c0.8,0.1,1.4,0.2,2.8,0.2h5.5c1.3,0,1.9,0,2.7-0.2v3.1
		c-0.9-0.1-1.5-0.1-2.7-0.1h-5.5c-1.2,0-2,0-2.8,0.1V318.7z M324.5,347.3h-3.4c0.1-0.9,0.2-1.8,0.2-3.1v-4.8c0-1,0-1.6-0.1-2.5
		c0.6,0.1,1.1,0.1,2.2,0.1h6.9c1,0,1.5,0,2.1-0.1c-0.1,0.7-0.1,1.3-0.1,2.5v4.7c0,1.2,0,2,0.2,2.8h-3.4v-1h-4.4v1.4H324.5z
		 M321.1,327.8c0.7,0.1,1.1,0.1,2.1,0.1h6.8c1.1,0,1.4,0,2-0.1v3c-0.7-0.1-1-0.1-2-0.1h-6.8c-1.1,0-1.4,0-2.1,0.1V327.8z
		 M321.1,332.4c0.6,0.1,1,0.1,2.1,0.1h6.8c1.1,0,1.4,0,2-0.1v3c-0.6-0.1-1.1-0.1-2.1-0.1h-6.8c-1,0-1.4,0-2.1,0.1v-3H321.1z
		 M324.4,343.1h4.5V340h-4.5V343.1z M339.2,321.8c0-1.8,0-2.6-0.2-3.8h4c-0.2,1.1-0.2,2.1-0.2,3.8v5.8h2.3c1.7,0,2.8-0.1,3.9-0.2
		v3.7c-1.2-0.1-2.4-0.2-3.9-0.2h-2.2v11.7c0,2.2,0.1,3.5,0.2,4.8h-4c0.2-1.3,0.2-2.5,0.2-4.8v-11.7h-2c-1.4,0-2.8,0.1-3.9,0.2v-3.7
		c1,0.1,2.2,0.2,3.9,0.2h2L339.2,321.8L339.2,321.8z"/>
	<path class="st3" d="M376.2,352.1c0.2-1.9,0.4-4,0.4-6.4v-3.4H369c-2.2,0-3.6,0.1-5.3,0.4V337c1.8,0.3,3,0.4,5.3,0.4h7.5v-1.5
		l-1.6-2.6h-5.8c-2.3,0-3.5,0.1-5.2,0.4V328c1.7,0.3,3,0.4,5.2,0.4h2.8l-7-11c-1.5-2.2-2.8-4.2-3.5-5.2h8.6c0.5,1.5,1,2.5,2.4,4.9
		l7.4,12.7l7.4-12.7c1.4-2.4,2-3.6,2.4-5h8.7c-0.7,0.8-2.7,3.7-3.6,5.2l-6.9,11h2.8c2.2,0,3.6-0.1,5.2-0.4v5.7
		c-1.7-0.3-3-0.4-5.2-0.4h-5.9l-1.7,2.6v1.5h7.4c2.2,0,3.5-0.1,5.3-0.4v5.7c-1.7-0.3-3.1-0.4-5.3-0.4H383v3.4c0,2.9,0.1,4.4,0.4,6.4
		h-7.2V352.1z"/>
	<path class="st3" d="M413.9,352.1c0.3-1.9,0.4-3.9,0.4-6.5V318h-2.4c-1.8,0-3.3,0.1-5.2,0.3V312c1.6,0.2,2.7,0.3,5,0.3h4.6
		c2.6,0,3.3,0,5.1-0.2c-0.3,3-0.4,5.2-0.4,8.2v25.3c0,2.7,0.1,4.5,0.4,6.5L413.9,352.1L413.9,352.1z"/>
	<path class="st3" d="M445.1,352.1c0,4.3-1.1,5.9-5.2,7.5l-1.8-2.7c3-0.8,3.8-1.8,3.8-4.9h-4.2v-7.3h7.4L445.1,352.1L445.1,352.1z"
		/>
	<path class="st3" d="M455.4,348.9c-1.5-1.5-2.6-3.2-3.3-5c-1.3-3.6-2-7.5-2-11.5c0-5.3,1.2-10.8,3.1-13.9c2.7-4.5,7.2-7,12.8-7
		c4.3,0,7.9,1.4,10.6,4c1.5,1.5,2.7,3.2,3.3,5c1.3,3.5,2,7.5,2,11.6c0,6.2-1.4,11.6-3.7,14.8c-2.8,3.9-7,5.9-12.2,5.9
		C461.7,352.9,458.1,351.5,455.4,348.9z M471.4,345c2.2-2.4,3.5-7,3.5-12.9c0-5.8-1.2-10.4-3.5-12.8c-1.2-1.3-3.2-2.1-5.5-2.1
		c-2.4,0-4.2,0.8-5.6,2.5c-2.2,2.6-3.3,6.7-3.3,12.2c0,5.2,1,9.6,2.5,11.9c1.6,2.2,3.7,3.2,6.4,3.2
		C468.2,347.1,470.1,346.4,471.4,345z"/>
	<path class="st3" d="M491,348.9c-1.5-1.5-2.6-3.2-3.3-5c-1.3-3.6-2-7.5-2-11.5c0-5.3,1.2-10.8,3.1-13.9c2.7-4.5,7.2-7,12.8-7
		c4.3,0,7.9,1.4,10.6,4c1.5,1.5,2.7,3.2,3.3,5c1.3,3.5,2,7.5,2,11.6c0,6.2-1.4,11.6-3.7,14.8c-2.8,3.9-7,5.9-12.2,5.9
		C497.3,352.9,493.7,351.5,491,348.9z M507,345c2.2-2.4,3.5-7,3.5-12.9c0-5.8-1.2-10.4-3.5-12.8c-1.2-1.3-3.2-2.1-5.5-2.1
		c-2.4,0-4.2,0.8-5.6,2.5c-2.2,2.6-3.3,6.7-3.3,12.2c0,5.2,1,9.6,2.5,11.9c1.6,2.2,3.7,3.2,6.4,3.2C503.8,347.1,505.7,346.4,507,345
		z"/>
	<path class="st3" d="M526.6,348.9c-1.5-1.5-2.6-3.2-3.3-5c-1.3-3.6-2-7.5-2-11.5c0-5.3,1.2-10.8,3.1-13.9c2.7-4.5,7.2-7,12.8-7
		c4.3,0,7.9,1.4,10.6,4c1.5,1.5,2.7,3.2,3.3,5c1.3,3.5,2,7.5,2,11.6c0,6.2-1.4,11.6-3.7,14.8c-2.8,3.9-7,5.9-12.2,5.9
		C532.9,352.9,529.3,351.5,526.6,348.9z M542.6,345c2.2-2.4,3.5-7,3.5-12.9c0-5.8-1.2-10.4-3.5-12.8c-1.2-1.3-3.2-2.1-5.5-2.1
		c-2.4,0-4.2,0.8-5.6,2.5c-2.2,2.6-3.3,6.7-3.3,12.2c0,5.2,1,9.6,2.5,11.9c1.6,2.2,3.7,3.2,6.4,3.2
		C539.4,347.1,541.3,346.4,542.6,345z"/>
</g>
<g>
	<path class="st3" d="M356.5,75.5c-15.5,0-28,12.6-28,28s12.6,28,28,28c15.5,0,28-12.6,28-28S372,75.5,356.5,75.5z"/>
	<polygon class="st4" points="368.6,105.9 358.9,105.9 358.9,115.6 354.1,115.6 354.1,105.9 344.4,105.9 344.4,101.1 354.1,101.1 
		354.1,91.4 358.9,91.4 358.9,101.1 368.6,101.1 	"/>
</g>
<g class="st2">
	<path d="M204.3,378l0.8,0.8l-8.8,8.9l8.8,8.8l-0.8,0.8l-8.8-8.8l-8.8,8.8l-0.8-0.8l8.8-8.8l-8.8-8.9l0.8-0.8l8.8,8.8L204.3,378z
		 M190.2,387.6c0,1.1-0.8,1.9-1.9,1.9c-1,0-1.9-0.9-1.9-1.9c0-1,0.8-1.9,1.9-1.9C189.4,385.7,190.2,386.6,190.2,387.6z M197.3,394.9
		c0,1-0.9,1.9-1.9,1.9c-1,0-1.9-0.9-1.9-1.9c0-0.9,0.9-1.9,1.7-1.9c0,0,0,0,0.1,0c0,0,0,0,0,0c0,0,0,0,0,0
		C196.5,393,197.3,393.8,197.3,394.9z M197.3,380.4c0,1.1-0.8,1.9-1.9,1.9c-1,0-1.9-0.9-1.9-1.9c0-1,0.9-1.9,1.9-1.9
		C196.5,378.6,197.3,379.4,197.3,380.4z M204.4,387.6c0,1-0.8,1.9-1.9,1.9c-1,0-1.9-0.8-1.9-1.9s0.8-1.9,1.9-1.9
		C203.6,385.8,204.4,386.6,204.4,387.6z"/>
	<path d="M227.1,381.7c-0.2,0.3-0.3,0.6-0.6,1.5c-1.5,4.4-2.7,6.6-5,9.4c-2.2,2.5-5.3,4.7-8.8,6.3c-0.6-1.2-1.1-1.7-2.1-2.6
		c6.5-2.5,10.7-6.9,12.7-13.4l-7.5,0.1c-1.4,2.3-3.8,4.9-5.8,6.4c-0.7-1-1.1-1.3-2.4-2.1c2.7-1.8,4.7-4,6.4-7.2
		c0.7-1.3,1.2-2.5,1.3-3.3l3.4,0.7c-0.2,0.2-0.2,0.3-0.4,0.7c-0.2,0.4-0.4,0.9-0.7,1.4c-0.1,0.2-0.1,0.2-0.2,0.3l-0.2,0.4
		c0.3,0,0.7,0,1.2,0l5.4-0.1c0.7,0,1.1,0,1.3,0c-0.6-1.2-1-2-1.8-3.1l1.8-0.6c1,1.3,1.5,2.3,2.2,3.9l-1.1,0.4L227.1,381.7z
		 M228.8,379.9c-0.6-1.5-1.3-2.7-2.1-3.9l1.8-0.6c1,1.3,1.6,2.3,2.2,3.8L228.8,379.9z"/>
	<path d="M251.5,385.1c-0.2,0.4-0.4,0.8-0.7,1.6c-1.3,3.7-3.2,6.4-5.8,8.4c-1.8,1.4-3.4,2.2-6.5,3.4c-0.5-1.2-0.8-1.7-1.9-2.9
		c3-0.8,5-1.7,6.9-3.3c1.8-1.5,2.9-3.1,4-5.8h-12.1c-1.7,0-2.3,0-3.2,0.1v-3c0.9,0.1,1.5,0.2,3.2,0.2h11.8c1.5,0,2,0,2.8-0.2
		L251.5,385.1z M234.3,377.6c0.8,0.1,1.3,0.2,2.9,0.2h8.7c1.6,0,2.1,0,2.9-0.2v3.1c-0.8-0.1-1.2-0.1-2.9-0.1h-8.8
		c-1.6,0-2.1,0-2.9,0.1V377.6z"/>
	<path d="M254.6,394.1c2.1-0.1,5.1-0.8,7.4-1.8c3.1-1.3,5.4-3.3,7.4-6.1c1.1-1.6,1.8-3,2.5-5c1,1.2,1.4,1.5,2.6,2.4
		c-2.1,4.5-4.5,7.5-7.9,9.7c-2.5,1.7-5.6,2.9-9.5,3.7c-1,0.2-1.1,0.2-1.6,0.4L254.6,394.1z M256.7,378.7c3,1.8,4.5,3,6.4,4.8
		l-2.1,2.7c-2-2.1-4-3.8-6.3-5L256.7,378.7z"/>
	<path d="M279.5,398.2c0.1-0.7,0.1-1.4,0.1-2.8v-15.9c0-1.4,0-1.9-0.1-2.5h3.4c-0.1,0.7-0.1,1.1-0.1,2.6v4.6c2.9,0.9,7.4,3,11.3,5.2
		l-1.7,2.9c-1.7-1.2-5.3-3.2-8.8-4.7c-0.6-0.3-0.6-0.3-0.8-0.4c0.1,0.7,0.1,1.1,0.1,1.7v6.6c0,1.3,0,2,0.1,2.8H279.5z M289.8,378.3
		c1.1,1.2,1.8,2.1,2.6,3.7l-1.7,0.9c-0.8-1.5-1.5-2.5-2.6-3.7L289.8,378.3z M293.6,381.3c-0.7-1.4-1.6-2.5-2.5-3.6l1.7-0.9
		c1.1,1.1,1.8,2.1,2.6,3.5L293.6,381.3z"/>
	<path d="M300,383.4c2.6,1,4.5,2,6.6,3.4l-1.5,2.8c-2-1.5-4.2-2.7-6.7-3.7L300,383.4z M298.9,394.5c1.9,0,4.6-0.6,7.2-1.6
		c3.1-1.2,5.2-2.8,7.2-5.5c1.3-1.8,2.1-3.3,2.9-5.5c1,1.1,1.4,1.4,2.6,2.2c-1.1,2.8-2.2,4.5-3.7,6.3c-3.2,3.6-7.4,5.8-13.5,7.1
		c-0.9,0.2-1.2,0.2-1.7,0.4L298.9,394.5z M301.9,377.4c2.6,1,4.5,1.9,6.6,3.2l-1.6,2.7c-2.3-1.5-4.5-2.7-6.6-3.4L301.9,377.4z"/>
	<path d="M329.4,398.7c0.1-0.7,0.1-1.4,0.1-2.2v-5.2c0-0.2,0-0.6,0-1.3c-0.2,0.2-0.4,0.3-0.7,0.5c-1.9,1-4,1.8-7,2.8
		c-0.5-1.2-0.7-1.6-1.5-2.7c2.5-0.5,4.4-1.2,6.9-2.3c2.9-1.3,5.6-3.1,7.7-5.3c-0.2,0-0.2,0-0.5,0c-0.1,0-0.1,0-9.1,0.1
		c-1.4,0-1.7,0-2.6,0.1v-3c0.6,0.1,1.6,0.2,2.7,0.2h4.2v-2c0-0.9,0-1.3-0.1-1.8h3.3c-0.1,0.5-0.1,0.9-0.1,1.7v2.1h4.2
		c0.7,0,1.2-0.1,1.7-0.2l1.4,1.7c-0.4,0.3-0.4,0.3-1.1,1.1c-1.4,1.6-2.7,2.8-5.1,4.6c3,0.9,5.7,2.2,8.7,3.9l-1.6,2.6
		c-2.5-1.6-4.5-2.7-7.6-4c-0.3-0.1-0.4-0.1-0.6-0.3c0,0.3,0,1,0,1.2v5.5c0,1.1,0,1.5,0.1,2.2H329.4z"/>
	<path d="M349.3,385.2c1.3,1.1,2.1,1.8,3.1,2.8c1.4,1.4,1.4,1.4,1.5,1.5c1.3-1.1,2.3-2.1,3.3-3.1c1.1-1.2,2.4-3.1,3-4.1
		c0.1-0.1,0.1-0.1,0.1-0.2c0-0.1,0-0.1,0-0.1c-0.2,0-0.6,0-1.1,0h-9c-0.9,0-1.6,0-2.8,0c-2,0-2.3,0-3.2,0.1v-3.2
		c1,0.1,1.5,0.2,3.2,0.2l13.8,0c1.1,0,1.4,0,2.1-0.2l1.7,2c-0.4,0.4-0.5,0.6-1.1,1.5c-2.4,3.8-5,6.9-8,9.4c1,1.2,2,2.4,3.3,4.2
		l-2.6,2.1c-1.4-2.2-2.7-4-4.8-6.3c-1.9-2.1-3.2-3.3-5-4.8L349.3,385.2z"/>
	<path d="M380.9,381.8l0-1.1v-0.8c0-1.6,0-2.2-0.1-2.8h3.2c-0.1,0.6-0.1,0.7-0.1,1.7c0,1.5,0,1.5,0,3h1.6c1.8,0,2.3,0,3.2-0.2v3
		c-0.9-0.1-1.5-0.1-3.2-0.1h-1.7c0,3,0,3.2-0.2,4.1c-0.3,3.2-1.4,5.3-3.6,7.1c-1.3,1.1-2.6,1.8-4.8,2.6c-0.5-1.1-0.8-1.5-1.9-2.6
		c2.4-0.7,3.6-1.3,4.7-2.4c1.7-1.5,2.4-3.1,2.6-6c0-0.6,0-1.2,0.1-2.9h-6.4v3.7c0,1,0,1.4,0.1,2.1h-3.2c0.1-0.5,0.1-1.2,0.1-2.1
		v-3.7h-1.5c-1.6,0-2.3,0-3.2,0.1v-3c1,0.1,1.5,0.2,3.2,0.2h1.5v-2.5c0-1,0-1.6-0.1-2.2h3.3c-0.1,0.8-0.1,0.9-0.1,2.1v2.6H380.9z"/>
	<path d="M391.2,394.1c2.1-0.1,5.1-0.8,7.4-1.8c3.1-1.3,5.4-3.3,7.4-6.1c1.1-1.6,1.8-3,2.5-5c1,1.2,1.4,1.5,2.6,2.4
		c-2.1,4.5-4.5,7.5-7.9,9.7c-2.5,1.7-5.6,2.9-9.5,3.7c-1,0.2-1.1,0.2-1.6,0.4L391.2,394.1z M393.3,378.7c3,1.8,4.5,3,6.4,4.8
		l-2.1,2.7c-2-2.1-4-3.8-6.3-5L393.3,378.7z"/>
	<path d="M415.4,383.4c2.6,1,4.5,2,6.6,3.4l-1.5,2.8c-2-1.5-4.2-2.7-6.7-3.7L415.4,383.4z M414.3,394.5c1.9,0,4.6-0.6,7.2-1.6
		c3.1-1.2,5.2-2.8,7.2-5.5c1.3-1.8,2.1-3.3,2.9-5.5c1,1.1,1.4,1.4,2.6,2.2c-1.1,2.8-2.2,4.5-3.7,6.3c-3.2,3.6-7.4,5.8-13.5,7.1
		c-0.9,0.2-1.2,0.2-1.7,0.4L414.3,394.5z M417.4,377.4c2.6,1,4.5,1.9,6.6,3.2l-1.6,2.7c-2.3-1.5-4.5-2.7-6.6-3.4L417.4,377.4z"/>
	<path d="M441,383.1c-0.2-1.1-0.2-1.3-0.5-1.9l3-0.4c0,0.5,0.1,1,0.2,1.9l0.4,1.9l7.4-1.2c0.7-0.1,1.1-0.2,1.6-0.4l1.7,1.6
		c-0.2,0.3-0.4,0.6-0.6,1.2c-1.1,2.8-2.5,4.6-4.9,6.5c-0.9-0.9-1.3-1.2-2.3-1.8c1.8-1.1,3.2-2.6,4.2-4.5c-0.3,0.1-0.3,0.1-0.9,0.2
		l-5.8,1l1.8,9.2c0.2,1.4,0.2,1.4,0.5,2l-3.1,0.5c0-0.6,0-1.2-0.2-2l-1.7-9.3l-2.1,0.3c-0.9,0.1-1.5,0.3-2.2,0.5l-0.5-2.8
		c0.8,0,1.4-0.1,2.4-0.2l2.1-0.3L441,383.1z"/>
	<path d="M477.9,378.9c-0.4,0.4-0.5,0.5-0.9,0.9c-1.9,1.9-3.7,3.6-5.9,5.1v10.6c0,1.4,0,2.1,0.1,2.8h-3.5c0.1-0.7,0.1-1.2,0.1-2.7
		v-8.7c-2.9,1.7-4.3,2.4-8.9,4c-0.5-1.3-0.8-1.7-1.7-2.8c4.9-1.3,9.1-3.4,13.1-6.5c2.2-1.7,3.9-3.4,4.6-4.6L477.9,378.9z"/>
	<path d="M481.2,394.1c2.1-0.1,5.1-0.8,7.4-1.8c3.1-1.3,5.4-3.3,7.4-6.1c1.1-1.6,1.8-3,2.5-5c1,1.2,1.4,1.5,2.6,2.4
		c-2.1,4.5-4.5,7.5-7.9,9.7c-2.5,1.7-5.6,2.9-9.5,3.7c-1,0.2-1.1,0.2-1.6,0.4L481.2,394.1z M483.3,378.7c3,1.8,4.5,3,6.4,4.8
		l-2.1,2.7c-2-2.1-4-3.8-6.3-5L483.3,378.7z"/>
	<path d="M505.1,398c0-0.2,0-0.4-0.1-1c-0.5-2.9-0.7-5.3-0.7-7.9c0-2.2,0.1-4.4,0.5-6.6c0.1-0.7,0.1-0.7,0.7-3.6
		c0.2-0.9,0.3-1.6,0.3-1.8c0,0,0,0,0-0.1l3.4,0.3c-1,2.2-2,8.2-2,12.5c0,0.9,0,0.9,0,1.3c0,0.2,0,0.2,0,0.4c0,0.2,0,0.2,0,0.5h0
		c0.1-0.3,0.1-0.3,0.3-0.7c0-0.2,0.2-0.4,0.3-0.8c0.2-0.5,0.2-0.5,0.5-1.1c0-0.1,0.1-0.1,0.3-0.8l2.1,0.9c-1.5,2.9-2.5,6-2.5,7.6
		c0,0.2,0,0.2,0,0.7L505.1,398z M510.7,381.7c1.2,0.3,2.5,0.4,4.5,0.4c0.9,0,1.4,0,2.3,0c0-1.5,0-2.7,0-3.7c0-0.5,0-0.9-0.1-1.2
		l3.1-0.1c-0.1,0.7-0.2,1.9-0.2,3.7c0,0.3,0,0.6,0,1.1c1.3-0.1,2.4-0.3,3.4-0.6c0.1,0,0.1,0,0.5-0.2l0.2,0l0.1,2.8
		c-0.2,0-0.3,0-0.7,0.1c-0.8,0.2-2.1,0.4-3.5,0.5c0,0.2,0,0.2,0,0.5c0,1.4,0,1.4,0.2,5.6c1.8,0.8,2.4,1.2,3.9,2.3
		c0.3,0.2,0.4,0.3,0.7,0.4l-1.2,3c-0.4-0.5-1.2-1.1-1.9-1.6c-0.8-0.5-1.4-0.9-1.6-1c0,0.1,0,0.2,0,0.3c0,0.5-0.1,1-0.2,1.4
		c-0.6,1.5-2.3,2.3-4.7,2.3c-3.3,0-5.2-1.5-5.2-4.1c0-2.4,2.1-4.1,5.1-4.1c0.9,0,1.5,0.1,2.2,0.3c-0.1-0.6-0.1-1.8-0.2-5.3
		c-1,0-1.6,0-2.2,0c-0.9,0-1.9,0-3.1-0.1c-0.3,0-0.6,0-0.7,0c-0.2,0-0.4,0-0.4,0c-0.1,0-0.2,0-0.2,0c0,0-0.1,0-0.1,0L510.7,381.7z
		 M515.8,392.1c-1.6,0-2.6,0.6-2.6,1.6c0,0.9,0.9,1.5,2.3,1.5c0.9,0,1.6-0.3,2-0.8c0.2-0.3,0.3-0.7,0.3-1.3c0-0.3,0-0.7,0-0.7
		C517,392.2,516.5,392.1,515.8,392.1z"/>
	<path class="st3" d="M286.6,446.1c0.2-1.6,0.3-3.3,0.3-5.4v-2.9h-6.3c-1.9,0-3,0.1-4.4,0.3v-4.8c1.5,0.3,2.5,0.3,4.4,0.3h6.3v-1.3
		l-1.4-2.1h-4.9c-1.9,0-3,0.1-4.4,0.3v-4.8c1.4,0.3,2.5,0.3,4.4,0.3h2.4l-5.8-9.2c-1.2-1.9-2.3-3.5-2.9-4.3h7.2
		c0.4,1.2,0.8,2.1,2,4.1l6.2,10.7l6.2-10.6c1.2-2,1.7-3,2-4.2h7.3c-0.5,0.7-2.2,3.1-3,4.3l-5.8,9.2h2.4c1.9,0,3-0.1,4.4-0.3v4.8
		c-1.4-0.3-2.6-0.3-4.4-0.3h-4.9l-1.4,2.2v1.2h6.2c1.9,0,2.9-0.1,4.4-0.3v4.8c-1.4-0.3-2.6-0.3-4.4-0.3h-6.2v2.9
		c0,2.4,0.1,3.7,0.3,5.4H286.6z"/>
	<path class="st3" d="M318.3,446.1c0.3-1.6,0.3-3.3,0.3-5.5v-23.1h-2c-1.6,0-2.8,0.1-4.3,0.3v-5.3c1.3,0.2,2.2,0.3,4.2,0.3h3.9
		c2.1,0,2.8,0,4.3-0.2c-0.3,2.5-0.3,4.4-0.3,6.9v21.3c0,2.2,0.1,3.7,0.3,5.5H318.3z"/>
	<path class="st3" d="M344.5,446.1c0,3.6-0.9,5-4.3,6.3l-1.5-2.2c2.6-0.7,3.1-1.5,3.2-4.1h-3.5V440h6.2V446.1z"/>
	<path class="st3" d="M359.5,446.1c0.3-1.6,0.3-3.3,0.3-5.5v-23.1h-2c-1.6,0-2.8,0.1-4.3,0.3v-5.3c1.3,0.2,2.2,0.3,4.2,0.3h3.9
		c2.1,0,2.8,0,4.3-0.2c-0.3,2.5-0.3,4.4-0.3,6.9v21.3c0,2.2,0.1,3.7,0.3,5.5H359.5z"/>
	<path class="st3" d="M383.1,443.4c-1.3-1.3-2.2-2.7-2.8-4.2c-1.1-3-1.6-6.3-1.6-9.7c0-4.5,1-9.1,2.6-11.6c2.3-3.8,6-5.8,10.7-5.8
		c3.6,0,6.6,1.2,8.9,3.4c1.3,1.3,2.2,2.7,2.8,4.2c1.1,2.9,1.6,6.3,1.6,9.7c0,5.2-1.1,9.7-3.1,12.4c-2.4,3.3-5.8,5-10.2,5
		C388.3,446.8,385.3,445.6,383.1,443.4z M396.5,440.2c1.9-2,2.9-5.9,2.9-10.8c0-4.9-1.1-8.7-2.9-10.8c-1-1.1-2.7-1.8-4.6-1.8
		c-2,0-3.5,0.7-4.7,2.1c-1.8,2.2-2.8,5.6-2.8,10.2c0,4.4,0.8,8.1,2.1,10c1.3,1.8,3.1,2.7,5.4,2.7
		C393.8,441.9,395.4,441.3,396.5,440.2z"/>
	<path class="st3" d="M413,443.4c-1.3-1.3-2.2-2.7-2.8-4.2c-1.1-3-1.6-6.3-1.6-9.7c0-4.5,1-9.1,2.6-11.6c2.3-3.8,6-5.8,10.7-5.8
		c3.6,0,6.6,1.2,8.9,3.4c1.3,1.3,2.2,2.7,2.8,4.2c1.1,2.9,1.6,6.3,1.6,9.7c0,5.2-1.1,9.7-3.1,12.4c-2.4,3.3-5.8,5-10.2,5
		C418.2,446.8,415.2,445.6,413,443.4z M426.4,440.2c1.9-2,2.9-5.9,2.9-10.8c0-4.9-1.1-8.7-2.9-10.8c-1-1.1-2.7-1.8-4.6-1.8
		c-2,0-3.5,0.7-4.7,2.1c-1.8,2.2-2.8,5.6-2.8,10.2c0,4.4,0.8,8.1,2.1,10c1.3,1.8,3.1,2.7,5.4,2.7
		C423.7,441.9,425.3,441.3,426.4,440.2z"/>
</g>
</svg>
