<?xml version="1.0" encoding="utf-8"?>
<!-- Generator: Adobe Illustrator 24.1.0, SVG Export Plug-In . SVG Version: 6.00 Build 0)  -->
<svg version="1.1" id="レイヤー_1" xmlns="http://www.w3.org/2000/svg" xmlns:xlink="http://www.w3.org/1999/xlink" x="0px"
	 y="0px" width="1591.9px" height="476.5px" viewBox="0 0 1591.9 476.5" style="enable-background:new 0 0 1591.9 476.5;"
	 xml:space="preserve">
<style type="text/css">
	.st0{fill:#CCA57E;}
	.st1{fill:#AD0D20;}
	.st2{fill:#182A83;}
	.st3{fill:#7D7D7D;}
	.st4{fill:#9E9D9D;}
</style>
<g>
	<g>
		<g>
			<path class="st0" d="M28.8,421.4l-6.7,54.1h-4.4l5.6-45.4c0.1-0.5,0.1-1.1,0.2-1.6c0.1-0.6,0.2-1.1,0.3-1.7L8.9,437.3
				c-1,0.7-1.7,0.7-2.3-0.2l-1.2-1.9l19.9-13.8H28.8z"/>
			<path class="st0" d="M89.1,444.4c0,5.1-0.7,9.6-2.2,13.5c-1.5,3.9-3.5,7.2-6,9.9c-2.5,2.7-5.4,4.7-8.6,6.1
				c-3.3,1.4-6.7,2.1-10.2,2.1c-2.9,0-5.5-0.5-8-1.6c-2.5-1-4.6-2.5-6.4-4.5c-1.8-2-3.2-4.4-4.2-7.3c-1-2.9-1.5-6.2-1.5-9.8
				c0-5.1,0.7-9.6,2.2-13.5c1.5-3.9,3.5-7.3,6-10c2.5-2.7,5.4-4.8,8.6-6.1c3.3-1.4,6.6-2.1,10.2-2.1c2.9,0,5.5,0.5,8,1.6
				c2.5,1.1,4.6,2.6,6.4,4.6c1.8,2,3.2,4.4,4.3,7.3C88.6,437.4,89.1,440.7,89.1,444.4z M84.4,444.5c0-3.3-0.4-6.1-1.3-8.6
				c-0.8-2.5-2-4.5-3.4-6.2c-1.5-1.7-3.2-2.9-5.1-3.7s-4-1.3-6.2-1.3c-2.8,0-5.5,0.6-8.1,1.8c-2.7,1.2-5,2.9-7,5.2
				c-2,2.3-3.7,5.2-4.9,8.7c-1.3,3.5-1.9,7.6-1.9,12.2c0,3.3,0.4,6.1,1.3,8.6c0.9,2.5,2,4.5,3.5,6.2c1.4,1.7,3.2,2.9,5.1,3.7
				c2,0.8,4.1,1.3,6.3,1.3c2.8,0,5.5-0.6,8.1-1.7s5-2.9,7-5.2c2-2.3,3.7-5.2,4.9-8.7C83.8,453.3,84.4,449.2,84.4,444.5z"/>
			<path class="st0" d="M115,414.7l-3.4,27.3h27l-0.5,3.8h-26.9l-3.6,29.7h-4.6l7.9-64.6h35.7l-0.5,3.7H115z"/>
		</g>
	</g>
	<g>
		<g>
			<path class="st0" d="M490.1,153.9c-0.2-0.6-0.7-1.3-1.4-1.8c-0.6-0.5-1.6-0.7-2.7-0.7c-0.9,0-1.7,0.2-2.4,0.5
				c-0.7,0.3-1.3,0.7-1.8,1.2c-0.5,0.5-0.8,1.1-1.1,1.7s-0.4,1.3-0.4,2c0,0.7,0.1,1.3,0.3,1.8c0.2,0.5,0.5,0.9,0.8,1.3
				c0.4,0.3,0.8,0.6,1.2,0.8c0.5,0.2,1,0.3,1.5,0.3c0.6,0,1.1-0.1,1.5-0.2c0.4-0.1,0.8-0.3,1.2-0.6c-0.2,0.4-0.4,0.7-0.4,1
				s-0.1,0.6-0.1,0.9c0,0.2,0,0.4,0.1,0.6c0,0,0.1,0.5,1.1,0.5c1.6,0,1.1-0.5,1.1-0.5c-0.1-0.2-0.2-0.4-0.3-0.7
				c-0.1-0.2-0.1-0.5-0.1-0.7c0-0.3,0.1-0.7,0.2-1c0.1-0.3,0.2-0.6,0.4-0.8s0.3-0.6,0.5-0.8s0.4-0.6,0.5-0.9c0.2-0.3,0.3-0.7,0.4-1
				c0.1-0.4,0.2-0.8,0.2-1.3c0-0.3,0-0.6-0.1-0.8C490.2,154.4,490.2,154.1,490.1,153.9z M487.9,156.9c-0.1,0.4-0.3,0.8-0.6,1.2
				c-0.3,0.4-0.6,0.6-1,0.9c-0.4,0.2-0.8,0.3-1.3,0.3c-0.7,0-1.3-0.2-1.7-0.7c-0.4-0.4-0.6-1.1-0.6-1.9c0-0.5,0.1-0.9,0.2-1.4
				c0.1-0.4,0.3-0.8,0.6-1.2c0.3-0.3,0.6-0.6,1-0.8c0.4-0.2,0.8-0.3,1.3-0.3c0.7,0,1.3,0.2,1.7,0.6c0.4,0.4,0.6,1,0.6,1.9
				C488.1,156,488,156.5,487.9,156.9z"/>
			<path class="st0" d="M511.2,199.6h-12.1l-12.7-12.7L493,166c0.1-0.3,0-0.6-0.1-0.9s-0.5-0.4-0.8-0.4h-9.8c-0.5,0-1,0.4-1,1
				l-0.1,15.9L465,165.5c-0.2-0.2-0.4-0.3-0.7-0.3h-12.5c-0.5,0-1,0.4-1,1c0,0.5,0.4,1,1,1h12.1l34.1,34.1c0.2,0.2,0.4,0.3,0.7,0.3
				h12.5c0.5,0,1-0.4,1-1C512.2,200.1,511.8,199.6,511.2,199.6z M483.2,166.7h7.5l-5.8,18.7l-1.8-1.8L483.2,166.7z"/>
		</g>
	</g>
	<g>
		<g>
			<path class="st0" d="M1318.7,14.5l-11.3,91.4h-4.3l10-81.6c0.1-0.7,0.2-1.4,0.4-2.1c0.1-0.7,0.3-1.4,0.5-2.2l-28.4,19.7
				c-1.1,0.7-1.9,0.6-2.5-0.3l-1.1-1.8l33.5-23.1H1318.7z"/>
			<path class="st0" d="M1404.8,53.1c0,8.5-1.2,16.1-3.7,22.6c-2.5,6.6-5.8,12.1-9.9,16.5c-4.1,4.5-8.9,7.8-14.2,10.1
				c-5.4,2.3-11,3.4-16.8,3.4c-4.7,0-9.1-0.9-13.2-2.6c-4.1-1.7-7.6-4.2-10.6-7.5c-3-3.3-5.3-7.3-7.1-12.1
				c-1.7-4.8-2.6-10.3-2.6-16.4c0-8.5,1.2-16.1,3.7-22.6c2.5-6.6,5.8-12.1,9.9-16.6c4.2-4.5,8.9-7.9,14.3-10.2
				c5.4-2.3,11-3.4,16.8-3.4c4.7,0,9.1,0.9,13.2,2.6c4.1,1.7,7.6,4.2,10.6,7.5c3,3.3,5.3,7.3,7,12.1
				C1403.9,41.5,1404.8,47,1404.8,53.1 M1400.4,53.2c0-5.7-0.8-10.8-2.3-15.2c-1.5-4.4-3.6-8.1-6.2-11.1c-2.6-3-5.7-5.3-9.3-6.8
				c-3.6-1.6-7.4-2.3-11.6-2.3c-5.1,0-10,1.1-14.8,3.2c-4.8,2.1-9,5.2-12.8,9.4c-3.7,4.2-6.7,9.3-8.9,15.5
				c-2.2,6.2-3.4,13.3-3.4,21.4c0,5.8,0.8,10.8,2.3,15.2s3.6,8.1,6.3,11.1c2.7,3,5.8,5.2,9.4,6.8c3.6,1.5,7.5,2.3,11.5,2.3
				c5.2,0,10.1-1,14.9-3.1c4.8-2.1,9-5.2,12.7-9.3c3.7-4.2,6.7-9.3,8.9-15.5C1399.3,68.5,1400.4,61.3,1400.4,53.2"/>
		</g>
	</g>
	<g>
		<path class="st0" d="M943.6,67.2c2-2.6,3.8-5,5.4-7.2c1.6-2.2,3-4.4,4.2-6.5c-1.4,1.9-3,3.6-4.7,5.2c-1.7,1.6-3.6,2.9-5.6,4
			c-2,1.1-4.1,2-6.2,2.5c-2.2,0.6-4.4,0.9-6.6,0.9c-3.3,0-6.3-0.5-8.9-1.7c-2.7-1.1-4.9-2.6-6.8-4.6c-1.9-2-3.3-4.4-4.3-7.1
			c-1-2.7-1.5-5.8-1.5-9.1c0-4.3,0.8-8.3,2.4-11.9c1.6-3.7,3.8-6.8,6.5-9.5c2.7-2.7,6-4.7,9.6-6.2c3.7-1.5,7.5-2.3,11.7-2.3
			c3.3,0,6.4,0.5,9.1,1.6c2.7,1.1,5.1,2.6,7,4.6c1.9,2,3.4,4.4,4.5,7.2c1.1,2.8,1.6,6,1.6,9.5c0,2.7-0.3,5.3-1,7.8
			c-0.6,2.5-1.6,5-2.8,7.5c-1.2,2.5-2.8,5.1-4.6,7.7s-3.9,5.5-6.2,8.5l-27.2,35.7c-0.3,0.4-0.6,0.7-1.1,0.9
			c-0.4,0.2-0.9,0.3-1.4,0.3h-2.7L943.6,67.2z M931.1,63.2c4,0,7.7-0.8,10.9-2.4c3.3-1.6,6-3.7,8.4-6.2c2.3-2.6,4.1-5.4,5.4-8.5
			c1.3-3.1,1.9-6.2,1.9-9.2c0-3-0.5-5.8-1.4-8.2c-0.9-2.5-2.2-4.6-3.9-6.3c-1.7-1.8-3.7-3.1-6.1-4.1c-2.4-1-5-1.4-7.9-1.4
			c-3.8,0-7.3,0.7-10.5,2c-3.2,1.4-6,3.2-8.4,5.6c-2.3,2.4-4.2,5.2-5.5,8.5c-1.3,3.3-2,6.8-2,10.6c0,3,0.4,5.7,1.3,8.1
			c0.9,2.4,2.2,4.5,3.8,6.2c1.6,1.7,3.6,3.1,6,4C925.6,62.7,928.2,63.2,931.1,63.2"/>
	</g>
	<g>
		<g>
			<path class="st0" d="M1256.2,211.3l-11.3,91.4h-4.3l10-81.6c0.1-0.7,0.2-1.4,0.4-2.1c0.1-0.7,0.3-1.4,0.5-2.2l-28.4,19.7
				c-1.1,0.7-1.9,0.6-2.5-0.2l-1.1-1.8l33.5-23.1H1256.2z"/>
			<path class="st0" d="M1310.4,211.3l-11.3,91.4h-4.3l10-81.6c0.1-0.7,0.2-1.4,0.4-2.1c0.1-0.7,0.3-1.4,0.5-2.2l-28.4,19.7
				c-1.1,0.7-1.9,0.6-2.5-0.2l-1.1-1.8l33.5-23.1H1310.4z"/>
		</g>
	</g>
	<g>
		<path class="st0" d="M810.1,274.6l-0.2,1.6c0,0.4-0.1,0.8-0.3,1.1c-0.1,0.4-0.3,0.7-0.5,1.1L759,364.6c-0.2,0.4-0.6,0.8-1,1.1
			c-0.4,0.3-0.8,0.4-1.2,0.4h-2.6l50.3-86.1c0.2-0.4,0.5-0.7,0.7-1.1c0.2-0.3,0.4-0.6,0.7-0.9h-52.2c-1,0-1.5-0.5-1.4-1.4l0.2-2
			H810.1z"/>
	</g>
	<g>
		<path class="st0" d="M868,193.4c2.3,0.5,4.4,1.3,6.4,2.3c2,1,3.7,2.4,5.1,4c1.4,1.6,2.5,3.6,3.4,5.8c0.8,2.3,1.2,4.9,1.2,7.8
			c0,4.3-0.7,8.2-2.2,11.6c-1.5,3.4-3.5,6.3-6.1,8.7c-2.6,2.4-5.7,4.2-9.2,5.5c-3.5,1.3-7.3,1.9-11.4,1.9c-3.5,0-6.7-0.5-9.5-1.5
			c-2.8-1-5.2-2.4-7.2-4.2c-2-1.8-3.5-4.1-4.6-6.7c-1.1-2.6-1.6-5.5-1.6-8.7c0-4,0.6-7.6,1.7-10.6c1.2-3.1,2.7-5.7,4.7-7.9
			c2-2.2,4.3-3.9,6.9-5.2c2.6-1.3,5.4-2.2,8.4-2.8c-4.4-1.3-7.7-3.6-10-6.9c-2.3-3.3-3.4-7.2-3.4-11.6c0-3.4,0.6-6.7,1.9-9.8
			c1.2-3.1,3-5.7,5.2-8c2.2-2.3,5-4.1,8.1-5.4c3.2-1.3,6.7-2,10.5-2c3.3,0,6.2,0.5,8.7,1.6c2.5,1,4.6,2.5,6.4,4.3
			c1.7,1.8,3,3.9,3.9,6.3c0.9,2.4,1.3,4.9,1.3,7.7c0,2.9-0.4,5.6-1.3,8.2c-0.9,2.6-2.1,4.9-3.7,7c-1.6,2.1-3.5,3.9-5.8,5.4
			C873.4,191.5,870.9,192.6,868,193.4 M855.4,238.2c3.5,0,6.8-0.6,9.9-1.7c3.1-1.2,5.7-2.8,8-5c2.3-2.2,4-4.7,5.3-7.8
			c1.3-3,1.9-6.5,1.9-10.3c0-3.7-0.6-6.7-1.9-9.1c-1.3-2.4-2.9-4.3-4.8-5.7c-2-1.4-4.1-2.4-6.4-3c-2.3-0.6-4.5-0.9-6.6-0.9
			c-1.7,0-3.5,0.1-5.3,0.4c-1.9,0.3-3.8,0.8-5.6,1.6c-1.9,0.7-3.7,1.7-5.4,2.9c-1.7,1.2-3.2,2.7-4.5,4.6c-1.3,1.8-2.3,4-3.1,6.5
			c-0.8,2.5-1.2,5.4-1.2,8.6c0,2.8,0.5,5.4,1.4,7.7c0.9,2.3,2.3,4.3,4,5.9c1.7,1.6,3.8,2.9,6.3,3.8
			C849.7,237.7,852.4,238.2,855.4,238.2 M843.9,174.7c0,2.3,0.3,4.4,1,6.5c0.7,2.1,1.7,3.9,3.2,5.5c1.4,1.6,3.2,2.9,5.4,3.9
			c2.2,1,4.7,1.5,7.7,1.5c3.6,0,6.8-0.6,9.5-1.9c2.8-1.3,5.1-3,7-5.1c1.9-2.1,3.3-4.5,4.2-7.2c1-2.7,1.4-5.5,1.4-8.3
			c0-2.4-0.4-4.7-1.2-6.8c-0.8-2.1-1.9-3.9-3.3-5.4c-1.5-1.5-3.3-2.8-5.4-3.6c-2.2-0.9-4.6-1.3-7.4-1.3c-3.4,0-6.4,0.6-9.1,1.7
			s-5.1,2.7-7,4.7c-2,2-3.4,4.4-4.5,7.1C844.4,168.6,843.9,171.5,843.9,174.7"/>
	</g>
	<g>
		<g>
			<g>
				<g>
					<g>
						<path class="st1" d="M425.8,461.8h-14.2c-0.5,0-0.9-0.2-1.2-0.6c-0.3-0.4-0.4-0.9-0.2-1.4l14.2-45.7c0.2-0.6,0.8-1.1,1.4-1.1
							c0.4,0,0.8,0.2,1.1,0.4c0.3,0.3,0.5,0.7,0.5,1.1l-0.1,45.7C427.3,461.1,426.6,461.8,425.8,461.8z M413.7,458.7h10.6l0.1-34.4
							L413.7,458.7z"/>
					</g>
				</g>
			</g>
			<g>
				<g>
					<g>
						<g>
							<path class="st2" d="M386.8,461.8c-0.4,0-0.8-0.2-1.1-0.4c-0.3-0.3-0.5-0.7-0.5-1.1l0.1-45.7c0-0.8,0.7-1.5,1.5-1.5h14.2
								c0.5,0,0.9,0.2,1.2,0.6c0.3,0.4,0.4,0.9,0.2,1.4l-14.2,45.7C388.1,461.3,387.5,461.8,386.8,461.8z M388.4,416l-0.1,34.3
								L399,416H388.4z"/>
						</g>
					</g>
				</g>
				<g>
					<g>
						<g>
							<g>
								<g>
									<path class="st2" d="M393.1,410.1c-0.1-0.3-0.1-0.6-0.1-0.9c0-0.4,0.1-0.8,0.2-1.3c0.1-0.4,0.3-0.9,0.6-1.5
										c-0.5,0.3-1.1,0.6-1.7,0.8c-0.6,0.2-1.3,0.3-2.1,0.3c-0.8,0-1.5-0.1-2.2-0.4c-0.7-0.3-1.3-0.6-1.8-1.1
										c-0.5-0.5-0.9-1.1-1.2-1.9c-0.3-0.7-0.4-1.6-0.4-2.6c0-1,0.2-1.9,0.5-2.8s0.9-1.8,1.6-2.5c0.7-0.7,1.5-1.3,2.5-1.8
										c1-0.4,2.2-0.7,3.5-0.7c1.5,0,2.9,0.4,3.8,1c1,0.7,1.7,1.8,2,2.6c0.1,0.4,0.2,0.7,0.3,1.1c0.1,0.4,0.1,0.8,0.1,1.2
										c0,0.7-0.1,1.3-0.2,1.8c-0.2,0.5-0.3,1-0.6,1.5c-0.2,0.5-0.5,0.9-0.7,1.3s-0.5,0.8-0.7,1.2c-0.2,0.4-0.4,0.8-0.6,1.2
										c-0.2,0.4-0.2,0.9-0.2,1.4c0,0.4,0.1,0.7,0.2,1c0.1,0.3,0.3,0.7,0.5,1c0,0,0.7,0.7-1.6,0.7
										C393.2,410.8,393.1,410.1,393.1,410.1z M390.9,405.3c0.7,0,1.4-0.2,1.9-0.5c0.6-0.3,1-0.7,1.4-1.2c0.4-0.5,0.7-1.1,0.9-1.7
										c0.2-0.6,0.3-1.3,0.3-1.9c0-1.2-0.3-2.1-0.9-2.7c-0.6-0.6-1.4-0.9-2.5-0.9c-0.7,0-1.4,0.1-1.9,0.4c-0.5,0.3-1,0.7-1.4,1.2
										c-0.4,0.5-0.7,1.1-0.9,1.7c-0.2,0.6-0.3,1.3-0.3,2c0,1.2,0.3,2.1,0.9,2.7S389.9,405.3,390.9,405.3z"/>
								</g>
							</g>
						</g>
					</g>
				</g>
			</g>
			<g>
				<g>
					<g>
						<g>
							<g>
								<path class="st1" d="M424.2,410.1c-0.1-0.3-0.1-0.6-0.1-0.9c0-0.4,0.1-0.8,0.2-1.3c0.1-0.4,0.3-0.9,0.6-1.5
									c-0.5,0.3-1.1,0.6-1.7,0.8c-0.6,0.2-1.3,0.3-2.1,0.3c-0.8,0-1.5-0.1-2.2-0.4c-0.7-0.3-1.3-0.6-1.8-1.1
									c-0.5-0.5-0.9-1.1-1.2-1.9c-0.3-0.7-0.4-1.6-0.4-2.6c0-1,0.2-1.9,0.5-2.8c0.4-0.9,0.9-1.8,1.6-2.5c0.7-0.7,1.5-1.3,2.5-1.8
									c1-0.4,2.2-0.7,3.5-0.7c1.5,0,2.9,0.4,3.8,1c1,0.7,1.7,1.8,2,2.6c0.1,0.4,0.2,0.7,0.3,1.1c0.1,0.4,0.1,0.8,0.1,1.2
									c0,0.7-0.1,1.3-0.2,1.8c-0.2,0.5-0.3,1-0.6,1.5c-0.2,0.5-0.5,0.9-0.7,1.3s-0.5,0.8-0.7,1.2c-0.2,0.4-0.4,0.8-0.6,1.2
									c-0.2,0.4-0.2,0.9-0.2,1.4c0,0.4,0.1,0.7,0.2,1c0.1,0.3,0.3,0.7,0.5,1c0,0,0.7,0.7-1.6,0.7
									C424.3,410.8,424.2,410.1,424.2,410.1z M422,405.3c0.7,0,1.4-0.2,1.9-0.5c0.6-0.3,1-0.7,1.4-1.2c0.4-0.5,0.7-1.1,0.9-1.7
									c0.2-0.6,0.3-1.3,0.3-1.9c0-1.2-0.3-2.1-0.9-2.7c-0.6-0.6-1.4-0.9-2.5-0.9c-0.7,0-1.4,0.1-1.9,0.4c-0.5,0.3-1,0.7-1.4,1.2
									c-0.4,0.5-0.7,1.1-0.9,1.7c-0.2,0.6-0.3,1.3-0.3,2c0,1.2,0.3,2.1,0.9,2.7S421,405.3,422,405.3z"/>
							</g>
						</g>
					</g>
				</g>
			</g>
			<g>
				<path class="st3" d="M472.8,437.3c-0.6-0.4-1.5-0.2-1.9,0.4c-0.4,0.6-0.2,1.5,0.4,1.9c3.1,2,4.9,5.4,4.9,9.1
					c0,6-4.9,10.9-10.9,10.9c-4.8,0-8.9-3.1-10.4-7.6c-0.2-0.7-1-1.1-1.7-0.9c-0.7,0.2-1.1,1-0.9,1.7c1.8,5.7,7,9.6,13,9.6
					c7.5,0,13.7-6.1,13.7-13.7C479,444.1,476.7,439.9,472.8,437.3z"/>
				<path class="st3" d="M461.6,445.3c0.1,0,0.2,0,0.3,0c0,0,0.1,0,0.1,0c0.1,0,0.1,0,0.2-0.1c0,0,0.1,0,0.1,0
					c0.1,0,0.1-0.1,0.1-0.1c0,0,0,0,0.1,0c0.1-0.1,0.3-0.2,0.3-0.3c0,0,0,0,0-0.1c0,0,0.1-0.1,0.1-0.1c0,0,0-0.1,0-0.1
					c0,0,0,0,0-0.1l6.2-19.8c0.1-0.4,0.1-0.9-0.2-1.2c-0.3-0.4-0.7-0.6-1.1-0.6h-10.2c-0.8,0-1.4,0.6-1.4,1.4l-0.1,12.4
					c0,0.8,0.6,1.4,1.4,1.4c0,0,0,0,0,0c0.8,0,1.4-0.6,1.4-1.4l0.1-11h6.9l-5.3,17h-12.4c-0.6,0-1.1,0.4-1.3,1l-4.7,15.2
					c-0.2,0.7,0.2,1.5,0.9,1.7c0.1,0,0.3,0.1,0.4,0.1c0.6,0,1.1-0.4,1.3-1l4.4-14.2L461.6,445.3
					C461.6,445.3,461.6,445.3,461.6,445.3z"/>
				<path class="st3" d="M456.2,416.4c0.4,0.4,0.9,0.7,1.5,0.9c0.6,0.2,1.2,0.3,1.8,0.3c0.7,0,1.3-0.1,1.8-0.2
					c0.3-0.1,0.5-0.2,0.8-0.3c-0.1,0.2-0.1,0.4-0.2,0.6c-0.1,0.4-0.2,0.7-0.2,1.1c0,0.3,0,0.5,0.1,0.8c0,0.1,0.2,0.8,1.5,0.8
					c0.9,0,1.4-0.1,1.6-0.5c0.1-0.2,0-0.4-0.1-0.5c-0.1-0.2-0.3-0.5-0.4-0.7c-0.1-0.2-0.1-0.5-0.1-0.7c0-0.4,0.1-0.7,0.2-1
					c0.1-0.3,0.3-0.6,0.4-0.9c0.2-0.3,0.4-0.6,0.6-0.9c0.2-0.3,0.4-0.7,0.6-1.1c0.2-0.4,0.3-0.8,0.5-1.2c0.1-0.4,0.2-1,0.2-1.5
					c0-0.4,0-0.7-0.1-1c0-0.3-0.1-0.6-0.2-0.9c-0.2-0.6-0.8-1.5-1.7-2.2c-0.7-0.6-1.9-0.9-3.2-0.9c-1.1,0-2,0.2-2.9,0.5
					c-0.8,0.4-1.5,0.9-2.1,1.5c-0.6,0.6-1,1.3-1.3,2.1c-0.3,0.8-0.4,1.6-0.4,2.4c0,0.8,0.1,1.5,0.4,2.2
					C455.5,415.5,455.8,416,456.2,416.4z M461.2,408.7c0.8,0,1.4,0.2,1.8,0.7c0.4,0.4,0.6,1.1,0.6,2c0,0.5-0.1,1-0.2,1.5
					c-0.2,0.5-0.4,0.9-0.7,1.3c-0.3,0.4-0.6,0.7-1.1,0.9c-0.4,0.2-0.9,0.3-1.4,0.3c-0.8,0-1.4-0.2-1.8-0.7c-0.4-0.5-0.6-1.1-0.6-2
					c0-0.5,0.1-1,0.2-1.5c0.1-0.5,0.4-0.9,0.7-1.3c0.3-0.4,0.6-0.7,1-0.9C460.2,408.8,460.7,408.7,461.2,408.7z"/>
			</g>
		</g>
	</g>
	<g>
		<g>
			<path class="st0" d="M582.3,45.5c-0.1-0.3-0.4-0.8-0.9-1.1c-0.4-0.3-1-0.5-1.6-0.5c-0.5,0-1,0.1-1.4,0.3
				c-0.4,0.2-0.8,0.4-1.1,0.7c-0.3,0.3-0.5,0.7-0.7,1c-0.1,0.4-0.2,0.8-0.2,1.2c0,0.4,0.1,0.8,0.2,1.1c0.1,0.3,0.3,0.6,0.5,0.8
				c0.2,0.2,0.5,0.4,0.8,0.5c0.6,0.2,1.3,0.2,1.8,0c0,0,0,0,0.1,0c0,0.2-0.1,0.4-0.1,0.5c0,0.1,0,0.3,0,0.4c0,0.1,0.2,0.5,0.9,0.5
				c0.4,0,0.8,0,0.9-0.3c0.1-0.2,0-0.3,0-0.4c-0.1-0.1-0.1-0.2-0.2-0.3c0-0.1-0.1-0.2-0.1-0.3c0-0.2,0-0.3,0.1-0.4
				c0.1-0.1,0.1-0.3,0.2-0.4c0.1-0.1,0.2-0.3,0.3-0.4c0.1-0.2,0.2-0.3,0.3-0.5c0.1-0.2,0.2-0.4,0.2-0.6c0.1-0.2,0.1-0.5,0.1-0.8
				c0-0.2,0-0.4,0-0.5C582.4,45.8,582.4,45.6,582.3,45.5z M580.6,47.1c-0.1,0.2-0.2,0.4-0.3,0.6c-0.1,0.2-0.3,0.3-0.5,0.4
				c-0.2,0.1-0.4,0.1-0.6,0.1c-0.3,0-0.6-0.1-0.7-0.3c-0.2-0.2-0.3-0.5-0.3-0.9c0-0.2,0-0.5,0.1-0.7c0.1-0.2,0.2-0.4,0.3-0.6
				c0.1-0.2,0.3-0.3,0.5-0.4c0.2-0.1,0.4-0.1,0.6-0.1c0.3,0,0.6,0.1,0.8,0.3c0.2,0.2,0.3,0.5,0.3,0.8
				C580.7,46.7,580.6,46.9,580.6,47.1z"/>
			<path class="st0" d="M588,49c0.2,0.2,0.5,0.4,0.8,0.5c0.6,0.2,1.3,0.2,1.8,0c0,0,0,0,0.1,0c0,0.2-0.1,0.4-0.1,0.5
				c0,0.1,0,0.3,0,0.4c0,0.1,0.2,0.5,0.9,0.5c0.4,0,0.8,0,0.9-0.3c0.1-0.2,0-0.3,0-0.4c-0.1-0.1-0.1-0.2-0.2-0.3
				c0-0.1-0.1-0.2-0.1-0.3c0-0.2,0-0.3,0.1-0.4c0.1-0.1,0.1-0.3,0.2-0.4c0.1-0.1,0.2-0.3,0.3-0.4c0.1-0.2,0.2-0.3,0.3-0.5
				c0.1-0.2,0.2-0.4,0.2-0.6c0.1-0.2,0.1-0.5,0.1-0.8c0-0.2,0-0.4,0-0.5c0-0.1-0.1-0.3-0.1-0.5c-0.1-0.3-0.4-0.8-0.9-1.1
				c-0.4-0.3-1-0.5-1.6-0.5c-0.5,0-1,0.1-1.4,0.3c-0.4,0.2-0.8,0.4-1.1,0.7c-0.3,0.3-0.5,0.7-0.7,1c-0.1,0.4-0.2,0.8-0.2,1.2
				c0,0.4,0.1,0.8,0.2,1.1C587.6,48.5,587.8,48.8,588,49z M591.4,47.1c-0.1,0.2-0.2,0.4-0.3,0.6c-0.1,0.2-0.3,0.3-0.5,0.4
				c-0.2,0.1-0.4,0.1-0.6,0.1c-0.3,0-0.6-0.1-0.7-0.3c-0.2-0.2-0.3-0.5-0.3-0.9c0-0.2,0-0.5,0.1-0.7c0.1-0.2,0.2-0.4,0.3-0.6
				c0.1-0.2,0.3-0.3,0.5-0.4c0.2-0.1,0.4-0.1,0.6-0.1c0.3,0,0.6,0.1,0.8,0.3c0.2,0.2,0.3,0.5,0.3,0.8
				C591.5,46.7,591.5,46.9,591.4,47.1z"/>
			<path class="st0" d="M599.4,40.7c-0.2-0.2-0.4-0.3-0.6-0.3h-13.2v-8.6l1.7,4.4c0.2,0.5,0.7,0.7,1.1,0.5c0.5-0.2,0.7-0.7,0.5-1.1
				l-3.4-8.8c-0.2-0.4-0.6-0.6-1-0.6c-0.4,0.1-0.7,0.4-0.7,0.9v13.3h-13.2c-0.2,0-0.5,0.1-0.6,0.3c-0.2,0.2-0.3,0.4-0.3,0.6l0,29.2
				c0,0.2,0.1,0.5,0.3,0.6c0.2,0.2,0.4,0.3,0.6,0.3h0l13.2,0V80l-1.7-4.4c-0.2-0.5-0.7-0.7-1.1-0.5c-0.5,0.2-0.7,0.7-0.5,1.1
				l3.4,8.8c0.1,0.3,0.5,0.6,0.8,0.6c0.1,0,0.1,0,0.2,0c0.4-0.1,0.7-0.4,0.7-0.9V71.3l13.2,0c0.5,0,0.9-0.4,0.9-0.9l0-29.1
				C599.7,41,599.6,40.8,599.4,40.7z M587.3,69.5l3.4-10.9l0,10.9H587.3z M597.9,69.5l-5.5,0l0.1-16.7c0-0.2-0.1-0.5-0.3-0.6
				c-0.2-0.2-0.4-0.3-0.6-0.3c-0.4,0-0.7,0.3-0.8,0.6l-5.3,17l-6.6,0l5.1-16.5c0.1-0.3,0-0.6-0.1-0.8c-0.2-0.2-0.4-0.4-0.7-0.4h-5.5
				c-0.5,0-0.9,0.4-0.9,0.9l-0.1,16.8l-5.2,0l0-27.4h26.3L597.9,69.5z M578.5,64.6l0-10.9h3.4L578.5,64.6z"/>
		</g>
	</g>
	<g>
		<polygon class="st4" points="577.7,122.2 460.9,274.6 467.8,274.6 584.6,122.2 		"/>
		<path class="st4" d="M1581.4,4c-9.7-3.7-23.3-4-27.2-4c-0.7,0-1.1,0-1.1,0L1470,0H923.1L680.4,0c0,0-27.9,0-43.7,0
			c-15.8,0-36.8,1.1-57.9,10.7c-21,9.6-33.2,27.4-33.2,27.4s-318.2,380.4-325,388.5l-10.4,12.5c0,0-6,7.5-5.2,16
			c0.8,8.5,9.6,15.3,17.1,17.1c7.4,1.8,13.5,3.2,31.6,3.2c0.2,0,0.4,0,0.5,0c6.1,0,10.5,0,13.5,0c6.2,0,7.1,0,7.1,0l938.6-0.1
			c0,0,0.4,0,1.1,0c10.8,0,94.8-0.5,126.9-14.6c34.4-15.1,46.6-41.3,46.6-41.3l49.1-94l116.9-229.5l24.6-48.7c0,0,3.6-7.2,8.3-16.4
			c4.6-9.1,4.6-12,4.6-12S1592.8,8.4,1581.4,4z M1206.2,5.5l-68.7,107.2H659.4L736.7,5.8l-0.4-0.3l186.9,0H1206.2z M680.4,5.5
			l49.7,0l-78.3,108.3c-0.6,0.8-0.7,1.9-0.2,2.9c0.5,0.9,1.4,1.5,2.4,1.5h882.7l-8.3,16.2v0H641.3c-0.9,0-1.7,0.4-2.2,1.1
			L465.3,378.8h-75.5l59.4-79.1c0.6-0.8,0.7-1.9,0.3-2.9c-0.5-0.9-1.4-1.5-2.5-1.5H337.7L503.5,97.1h101.3l70.4-91.2l-0.4-0.3H680.4
			z M472.1,378.8l88.2-123.6h489.3l-78.9,123.6H472.1z M1053.1,249.8H564.2l78.5-109.9h480.6L1053.1,249.8z M549.9,41.7l0.2-0.2
			l0.1-0.2c0.1-0.2,11.6-16.7,30.9-25.5C601,6.7,621.2,5.5,636.7,5.5l31.8,0l-66.4,86.1h-94L549.9,41.7z M267.8,469.9
			c-3.1,0-7.4,0-13.5,0l-0.5,0c-17.8,0-23.6-1.4-30.3-3.1c-5.8-1.4-12.4-6.7-12.9-12.3c-0.6-6,3.8-11.7,4-12l10.4-12.4l108.2-129.3
			h108.4l-59.4,79.1c-0.6,0.8-0.7,1.9-0.3,2.9c0.5,0.9,1.4,1.5,2.5,1.5h281.3l-52.1,85.4l0.4,0.3l-339,0
			C275,469.9,274,469.9,267.8,469.9z M1383.3,416.9l-0.1,0.1l0,0.1c-0.1,0.2-12,24.6-43.9,38.6c-31.2,13.8-115.2,14.2-124.7,14.2
			l-1.1,0l-593.7,0l52.3-85.6h728.3L1383.3,416.9z M1432.4,322.9l-29.2,56h-426l152.6-238.9h395.8L1432.4,322.9z M1586.2,18.3
			l-0.2-0.2l0.1,0.6c-0.2,0.8-0.9,3.6-4,9.6l-8.3,16.3l-24.6,48.6l-9.9,19.3v-0.1H1144l68.7-107.2H1470l83.1,0h0.1l0.1,0
			c0,0,0.4,0,0.9,0c7.6,0,18.2,1,25.2,3.6C1586.2,11.7,1586.3,17.1,1586.2,18.3z"/>
	</g>
</g>
<g>
</g>
<g>
</g>
<g>
</g>
<g>
</g>
<g>
</g>
<g>
</g>
</svg>
