<?xml version="1.0" encoding="utf-8"?>
<!-- Generator: Adobe Illustrator 24.1.0, SVG Export Plug-In . SVG Version: 6.00 Build 0)  -->
<svg version="1.1" id="レイヤー_1" xmlns="http://www.w3.org/2000/svg" xmlns:xlink="http://www.w3.org/1999/xlink" x="0px"
	 y="0px" width="1591.9px" height="476.5px" viewBox="0 0 1591.9 476.5" style="enable-background:new 0 0 1591.9 476.5;"
	 xml:space="preserve">
<style type="text/css">
	.st0{fill:#CCA57E;}
	.st1{fill:#0071CE;}
	.st2{fill:#0071CE;stroke:#000000;stroke-width:1.0599;}
	.st3{fill:#00A4E3;}
	.st4{fill:#AD0D20;}
	.st5{fill:#182A83;}
	.st6{fill:#7D7D7D;}
	.st7{fill:#9E9D9D;}
</style>
<g>
	<g>
		<path class="st0" d="M23.7,421.8L17,476.5h-4.5l5.6-45.9c0.1-0.5,0.1-1.1,0.2-1.6c0.1-0.6,0.2-1.1,0.3-1.7l-15,10.6
			c-1,0.7-1.8,0.7-2.4-0.2L0,435.8l20.2-14H23.7z"/>
		<path class="st0" d="M71.7,472.4c0.5,0,1,0.2,1.3,0.5c0.3,0.3,0.4,0.7,0.3,1.2l-0.3,2.4H32.3l0.3-2.7l23.7-17.5
			c2.1-1.6,4-3.2,5.7-4.7c1.7-1.5,3.1-3.1,4.3-4.7c1.2-1.6,2.1-3.3,2.7-5c0.6-1.7,0.9-3.6,0.9-5.6c0-1.6-0.3-3-0.8-4.4
			c-0.5-1.3-1.2-2.4-2.1-3.4c-0.9-0.9-2-1.7-3.3-2.2c-1.3-0.5-2.8-0.8-4.4-0.8c-2.2,0-4.1,0.4-5.8,1.1c-1.7,0.7-3.2,1.7-4.5,2.8
			s-2.4,2.5-3.3,4.1c-0.9,1.5-1.6,3.1-2.1,4.7c-0.2,0.5-0.4,0.8-0.6,0.9c-0.2,0.2-0.5,0.3-0.9,0.3c-0.3,0-0.5-0.1-0.7-0.1l-2.3-0.5
			c0.6-2.2,1.5-4.4,2.7-6.4c1.2-2.1,2.7-3.9,4.4-5.5c1.7-1.6,3.8-2.8,6.1-3.8c2.3-0.9,4.9-1.4,7.7-1.4c2.2,0,4.2,0.3,5.9,1
			c1.8,0.7,3.3,1.6,4.5,2.9c1.2,1.2,2.2,2.7,2.8,4.4c0.7,1.7,1,3.6,1,5.7c0,2.3-0.4,4.5-1.1,6.5c-0.7,2-1.8,4-3.1,5.8
			c-1.3,1.8-2.9,3.6-4.7,5.3c-1.8,1.7-3.9,3.4-6.1,5L39,473.1c1.1-0.2,2.2-0.4,3.4-0.5c1.2-0.1,2.3-0.2,3.4-0.2H71.7z"/>
		<path class="st0" d="M100.3,415l-3.4,27.6h27.3l-0.5,3.8H96.4l-3.7,30h-4.6l8-65.3h36.1l-0.5,3.8H100.3z"/>
	</g>
</g>
<g>
	<g>
		<path class="st1" d="M1097,185.8c0,0-22.6,44.6-26.3,52c-3.7-7.3-26.4-52-26.4-52h-44.1v86.8h24.6c0,0,0-58.3,0-62.8
			c2,0,3.6,0,5,0c1.3,2.6,30.7,62.8,30.7,62.8h20.3c0,0,29.4-60.2,30.7-62.8c1.4,0,3,0,5,0c0,4.5,0,62.8,0,62.8h24.6v-86.8H1097z"/>
		<path class="st1" d="M953.4,185.8v86.8H981v-86.8H953.4z"/>
		<path class="st1" d="M1146,272.6h29.2c0,0,6.4-12.5,7.5-14.7c2.8,0,52.3,0,55.1,0c1.1,2.2,7.5,14.7,7.5,14.7h29.2l-44.1-86.8
			l-1.5,0h-38.9L1146,272.6z M1211.7,205.4c1.1,2.3,13.8,27.3,16.7,33c-6,0-30.3,0-36.2,0c2.8-5.6,15.6-30.7,16.7-33
			C1209.9,205.4,1210.6,205.4,1211.7,205.4z"/>
		<path class="st1" d="M1363.2,185.7c0,0-20.5,24.4-23.7,28.3c-3.2-3.9-23.3-28.3-23.3-28.3h-33.8c0,0,31.8,37.8,34.3,40.7
			c-2.6,2.9-40.8,46.1-40.8,46.1h36c0,0,24.5-27.9,27.8-31.6c3.2,3.7,27.4,31.6,27.4,31.6h36c0,0-38.2-43.2-40.8-46.1
			c2.5-3,34.3-40.7,34.3-40.7H1363.2z"/>
		<g>
			<path class="st2" d="M1404.8,190.5"/>
			<g>
				<path class="st1" d="M1404.8,195.4c-2.7,0-4.9-2.2-4.9-4.9c0-2.7,2.2-4.9,4.9-4.9c2.7,0,4.9,2.2,4.9,4.9
					C1409.8,193.2,1407.6,195.4,1404.8,195.4L1404.8,195.4z M1404.8,186.3c-2.3,0-4.1,1.8-4.1,4.1c0,2.3,1.9,4.1,4.1,4.1
					c2.3,0,4.1-1.9,4.1-4.1C1409,188.2,1407.1,186.3,1404.8,186.3L1404.8,186.3z"/>
				<path class="st1" d="M1403.8,191.3v1.8h-1v-5.4h2.7c1.2,0,1.6,0.4,1.6,1.6c0,0.8,0,1.4-0.9,1.5v0c0.7,0.1,0.9,0.5,0.9,1.2v1h-1
					v-1c0-0.4-0.2-0.8-0.7-0.8H1403.8z M1405.2,190.4c0.8,0,0.9-0.2,0.9-0.9c0-0.8-0.1-0.9-0.9-0.9h-1.4v1.8H1405.2z"/>
			</g>
		</g>
	</g>
</g>
<g>
	<g>
		<path class="st0" d="M793,171.6L778.9,286h-5.4l12.5-102.1c0.1-0.9,0.3-1.8,0.5-2.7c0.2-0.9,0.4-1.8,0.6-2.8l-35.6,24.6
			c-1.3,0.8-2.4,0.7-3.2-0.3l-1.4-2.2l42-28.9H793z"/>
		<path class="st0" d="M890.9,281.2c1.6,0,2.3,0.7,2.1,2.2l-0.3,2.6h-85.3l0.4-3.3l51.1-37.3c4.7-3.4,8.9-6.9,12.7-10.3
			c3.8-3.4,6.9-6.9,9.5-10.5c2.6-3.6,4.6-7.3,6-11.3c1.4-3.9,2.1-8.1,2.1-12.6c0-3.7-0.6-7-1.7-10.1s-2.8-5.7-5-7.8
			c-2.2-2.2-4.8-3.9-7.8-5.1c-3-1.2-6.4-1.8-10.2-1.8c-5,0-9.6,0.8-13.6,2.5c-4,1.7-7.5,3.9-10.5,6.6c-3,2.7-5.6,5.9-7.6,9.4
			c-2.1,3.5-3.7,7.1-4.9,10.7c-0.4,0.8-0.7,1.3-1,1.5c-0.3,0.2-0.7,0.3-1.1,0.3c-0.3,0-0.6-0.1-1.1-0.3l-2.2-0.4
			c1.3-4.4,3.1-8.7,5.5-12.9c2.4-4.2,5.4-7.9,8.9-11.1c3.6-3.2,7.7-5.8,12.4-7.8s10-2.9,15.9-2.9c4.4,0,8.4,0.7,12,2.1
			c3.6,1.4,6.6,3.3,9.2,5.8c2.5,2.5,4.5,5.5,5.8,9c1.3,3.5,2,7.4,2,11.7c0,4.8-0.8,9.4-2.3,13.7c-1.5,4.3-3.7,8.4-6.5,12.4
			c-2.8,4-6.2,7.8-10.1,11.4c-3.9,3.7-8.3,7.2-13.1,10.6l-47,34c1.8-0.3,3.8-0.6,5.9-0.8s4.2-0.3,6.4-0.3H890.9z"/>
	</g>
</g>
<g>
	<g>
		<path class="st3" d="M497.9,320.3c0,6.2-5.7,10-10.1,7.6c0-0.1,0-0.3,0-0.4c0,0,5.7,1,7.3-5c0.2-0.6,0.2-1.6,0.2-2.5
			c-0.1-3.8-1.7-6.3-4.7-6.3c-1.3,0-2.7,0-4,0c0,8.6,0,17.2,0,25.7c0,1.5,1,2.6,2.2,2.4c0.1,0,0.3,0,0.4-0.1c0,0.1,0,0.3,0,0.4
			c-2.5,0.4-5,0.7-7.5,1.1c0-0.1,0-0.3,0-0.4c0.1,0,0.3,0,0.4-0.1c1.2-0.2,2.2-1.6,2.2-3.1c0,0,0,0,0,0c0-8.1,0-16.3,0-24.4
			c-0.1-1.4-1.1-2.5-2.2-2.5c-0.1,0-0.3,0-0.4,0c0-0.1,0-0.3,0-0.4c0.9,0,1.8,0,2.8,0c0,0,0,0,0,0c2.1,0,4.2,0,6.3,0
			C495.2,312.4,497.9,315.4,497.9,320.3z"/>
		<path class="st3" d="M523.6,337.5c0,0.1,0,0.2,0,0.4c-2.6,0.2-5.2,0.5-7.8,0.8c0-0.1,0-0.2,0-0.4c0.1,0,0.2,0,0.3,0
			c0.9-0.1,1.8-1,1.3-2.5c-0.7-2-1.5-4.1-2.2-6.1c-3.1,0.2-6.2,0.4-9.3,0.7c-0.8,2.3-1.6,4.6-2.3,6.9c-0.5,1.6,0.4,2.4,1.3,2.3
			c0.1,0,0.2,0,0.3,0c0,0.1,0,0.3,0,0.4c-2.3,0.3-4.6,0.6-7,0.9c0-0.1,0-0.3,0-0.4c0.1,0,0.2,0,0.3,0c1.1-0.1,2.3-1,3-2.9
			c2.6-7.4,5.3-14.5,7.9-21.4c0,0,1.3-3.1,1.3-3.9c0.1,0,0.2,0,0.3,0c3.1,8.1,6.1,15.9,9.2,23.4c0.7,1.6,2,2.1,3,2
			C523.4,337.5,523.5,337.5,523.6,337.5z M514.8,328.6c-1.4-3.9-2.7-7.9-4.1-11.9c-1.5,4.1-2.9,8.2-4.4,12.5
			C509.1,329,512,328.8,514.8,328.6z"/>
		<path class="st3" d="M552.6,312.9c0,0-0.6,0-0.6,0c-1.2,0-2.1,0.9-2.1,2c0,5.7,0,11.5-0.1,17.2c0,2.1,0.3,4.2,0.3,4.2
			c-0.1,0-0.2,0-0.3,0c-6.3-6.1-12.6-12.4-18.8-19.1c0,5.8,0,11.7-0.1,17.5c0,1.2,1,2,2.1,1.9c0,0,0.6-0.1,0.6-0.1
			c0,0.1,0,0.2,0,0.3c-2.4,0.2-4.8,0.4-7.1,0.6c0-0.1,0-0.2,0-0.4c0,0,0.6-0.1,0.6-0.1c1.2-0.1,2.1-1.1,2.1-2.3
			c0-6.1,0.1-12.2,0.1-18.4c0-2.4-0.3-4.4-0.3-4.4c0.1,0,0.2,0,0.3,0c0,0,0,0,0,0c6.2,6.8,12.5,13.2,18.8,19.4
			c0-5.5,0-11.1,0.1-16.6c0,0,0,0,0,0c0-1.1-1-2-2.1-2c-0.2,0-0.4,0-0.6,0c0-0.1,0-0.2,0-0.3c2.4,0,4.8,0,7.1,0
			C552.6,312.7,552.6,312.8,552.6,312.9z"/>
		<path class="st3" d="M581.5,323.7c0,6.9-5.1,11.6-12.5,11.8c-7.4,0.2-12.5-4.3-12.4-11.5c0-7.2,5.1-12,12.5-11.9
			C576.4,312.1,581.5,316.8,581.5,323.7z M578.8,323.7c0-6.4-3.9-10.6-9.8-10.6c-5.9,0-9.8,4.4-9.8,10.9c0,6.6,3.9,10.7,9.8,10.6
			C574.9,334.4,578.8,330.1,578.8,323.7z"/>
		<path class="st3" d="M604.1,332.2c1.4,1.4,2.7,2.5,4.7,2.5c0,0.1,0,0.2,0,0.3c-0.6,0-1.3,0-1.9-0.1c-3.2-0.1-5-1.7-6.1-2.9
			c-0.4-0.4-4.3-5.7-4.6-6c-0.9-1.1-1.9-2.2-3.2-2.2c0-0.1,0-0.2,0-0.3c0,0,0.8,0,1.8,0c1.8,0,4.4-0.4,5.4-3.3
			c0.2-0.4,0.2-1.2,0.2-1.9c-0.1-2.9-1.7-4.7-4.3-4.9c-1.8-0.1-3.9,0-4.3,0c0,6.3,0,12.6,0,18.9c0,0,0,0,0,0c0,1.1,1,2,2.2,2
			c0.1,0,0.3,0,0.4,0c0,0.1,0,0.2,0,0.3c-2.5,0-5.1,0-7.6,0c0-0.1,0-0.2,0-0.3c0.1,0,0.3,0,0.4,0c1.2,0,2.2-0.9,2.2-2
			c0-5.9,0-11.8,0-17.6c0,0,0,0,0,0c0-1.1-1-2-2.2-2c-0.1,0-0.3,0-0.4,0c0-0.1,0-0.2,0-0.3c0.9,0,1.8,0,2.8,0c0,0,0,0,0,0
			c2.2,0,4.4,0,6.6,0c4.2,0,6.8,2.3,6.8,6c0,3.1-2.5,6.1-5.9,6c0.7,0.3,1.8,1.4,2.5,2.3C599.8,326.9,602.8,330.9,604.1,332.2
			C604.1,332.2,604.1,332.2,604.1,332.2z"/>
		<path class="st3" d="M635.3,336c0,0.1,0,0.2,0,0.3c-2.6-0.2-5.2-0.3-7.8-0.5c0-0.1,0-0.2,0-0.3c0.1,0,0.2,0,0.3,0
			c0.9,0.1,1.8-0.7,1.3-2c-0.7-1.9-1.5-3.9-2.2-5.8c-3.1-0.1-6.2-0.2-9.3-0.3c-0.8,1.8-1.5,3.7-2.3,5.5c-0.5,1.3,0.4,2,1.3,2.1
			c0.1,0,0.2,0,0.3,0c0,0.1,0,0.2,0,0.3c-2.3-0.1-4.7-0.2-7-0.2c0-0.1,0-0.2,0-0.3c0.1,0,0.2,0,0.3,0c1.1,0,2.3-0.5,3-1.9
			c2.6-5.7,5.2-11.5,7.8-17.4c0,0,1.3-2.7,1.3-3.4c0.1,0,0.2,0,0.3,0c3.1,7,6.2,14.2,9.4,21.6c0.7,1.5,2,2.2,3.1,2.3
			C635.1,336,635.2,336,635.3,336z M626.5,326.8c-1.4-3.6-2.8-7.2-4.2-10.7c-1.4,3.5-2.9,7-4.3,10.4
			C620.8,326.6,623.6,326.7,626.5,326.8z"/>
		<path class="st3" d="M668.4,339c0,0.1,0,0.3,0,0.4c-2.5-0.3-5-0.6-7.5-0.8c0-0.1,0-0.2,0-0.3c0.2,0,0.4,0,0.5,0.1
			c0.7,0.1,1.3-0.6,1.3-1.5c0-0.1,0-0.1,0-0.2c-0.5-6.3-1.1-12.5-1.6-18.6c-2.4,5.7-4.8,11.3-7.2,16.7c0,0-1,2.1-1.2,3.6
			c-0.1,0-0.2,0-0.3,0c-3-6.9-6-13.6-9-20.1c-0.5,5.6-1,11.2-1.4,16.7c0,0,0,0,0,0c0,0,0,0,0,0c0,0,0,0.1,0,0.1
			c0,0.7,0.6,1.5,1.4,1.6c0.2,0,0.4,0,0.5,0c0,0.1,0,0.2,0,0.3c-2.2-0.2-4.5-0.3-6.7-0.5c0-0.1,0-0.2,0-0.3c0.2,0,0.4,0,0.6,0
			c1.2,0.1,2.3-0.6,2.5-2c0.8-7.3,1.7-14.7,2.5-22.1c0.1,0,0.2,0,0.3,0c3.3,7,6.5,14.2,9.8,21.7c3.1-7,6.2-14.2,9.3-21.7
			c0.1,0,0.2,0,0.3,0c0.9,8,1.9,16,2.8,24.2c0.2,1.5,1.3,2.5,2.5,2.6C668,339,668.2,339,668.4,339z"/>
		<path class="st3" d="M695.6,342.6c0,0.1,0,0.3,0,0.4c-2.6-0.4-5.2-0.8-7.8-1.2c0-0.1,0-0.3,0-0.4c0.1,0,0.2,0,0.3,0
			c0.9,0.1,1.8-0.7,1.3-2.5c-0.7-2.5-1.5-4.9-2.2-7.4c-3.1-0.3-6.2-0.6-9.3-0.8c-0.8,2.2-1.5,4.4-2.3,6.5c-0.5,1.5,0.4,2.5,1.3,2.6
			c0.1,0,0.2,0,0.3,0c0,0.1,0,0.3,0,0.4c-2.3-0.3-4.6-0.6-7-0.9c0-0.1,0-0.3,0-0.4c0.1,0,0.2,0,0.3,0c1.1,0.1,2.3-0.4,3-2.1
			c2.6-6.7,5.2-13.7,7.8-20.9c0,0,1.3-3.3,1.3-4.2c0.1,0,0.2,0,0.3,0c3.1,8.7,6.2,17.8,9.3,27.3c0.7,2,2,3,3,3.1
			C695.4,342.6,695.5,342.6,695.6,342.6z M686.8,330.4c-1.4-4.6-2.8-9-4.2-13.4c-1.4,4.3-2.9,8.6-4.3,12.7
			C681.2,329.9,684,330.2,686.8,330.4z"/>
	</g>
	<g>
		<path class="st3" d="M564.8,296.4c3.6,1,5.9,3.3,5.9,6c0,3.1-2.8,5.2-7.9,5.2c-2.8,0-5.5,0-8.3,0c0-0.1,0-0.2,0-0.3
			c0.1,0,0.4,0,0.4,0c1.2,0,2.1-0.9,2.2-2c0-6.1,0-12.1-0.1-18.2c0-1.1-1-2.3-2.1-2.8c-0.1,0-0.3-0.1-0.4-0.2c0-0.1,0-0.2,0-0.3
			c2.2,0.8,4.4,1.5,6.6,2.2c4.7,1.4,7.4,3.7,7.4,6.6C568.6,294.9,566.7,296.2,564.8,296.4C564.8,296.4,564.8,296.4,564.8,296.4z
			 M568.2,302.1c0-4.2-4.4-5.5-7.7-6c0-0.1,0-0.2,0-0.3c2.1,0.3,5.6,0.3,5.5-3.4c0-2.6-1.8-4.5-5-5.4c-0.6-0.2-1.2-0.3-1.8-0.5
			c0,6.7,0.1,13.3,0.1,20c1.1,0,2.2,0,3.3,0.1C566.2,306.6,568.2,304.9,568.2,302.1z"/>
		<path class="st3" d="M598.4,307.4c0,0.1,0,0.2,0,0.3c-2.6,0-5.1,0-7.7,0c0-0.1,0-0.2,0-0.3c0.1,0,0.2,0,0.3,0
			c0.9,0,1.8-0.6,1.3-1.6c-0.7-1.4-1.4-2.9-2.2-4.3c-3.1,0-6.1,0-9.2-0.1c-0.8,1.4-1.5,2.9-2.3,4.4c-0.5,1,0.4,1.6,1.3,1.6
			c0.1,0,0.2,0,0.3,0c0,0.1,0,0.2,0,0.3c-2.3,0-4.6,0-6.8,0c0-0.1,0-0.2,0-0.3c0.1,0,0.2,0,0.3,0c1,0,2.3-0.5,3-1.7
			c2.5-4.7,5.1-9.1,7.7-13.6c0,0,1.3-2,1.3-2.6c0.1,0,0.2,0,0.3,0c3.1,5.5,6.1,10.8,9.1,16.2c0.7,1.1,1.9,1.6,3,1.6
			C598.2,307.4,598.3,307.4,598.4,307.4z M589.8,300.7c-1.4-2.7-2.8-5.4-4.1-8.2c-1.4,2.7-2.9,5.3-4.3,8
			C584.1,300.7,586.9,300.7,589.8,300.7z"/>
		<path class="st3" d="M622.7,307.3c0,0.1,0,0.2,0,0.3c-0.6,0-1.2,0-1.9,0c-3.2,0-4.9-1.6-5.9-2.7c-0.4-0.5-4.2-5.1-4.4-5.3
			c-0.9-0.9-1.9-1.7-3.1-1.6c0-0.1,0-0.2,0-0.3c0,0,0.8-0.1,1.8-0.2c1.8-0.2,4.3-0.9,5.3-3.8c0.2-0.5,0.2-1.2,0.2-1.9
			c-0.1-2.8-1.6-4.1-4.1-3.6c-1.7,0.3-3.8,0.8-4.2,0.8c-0.1,5.5-0.1,11-0.2,16.4c0,0,0,0,0,0c0,1,1,1.7,2.2,1.7c0.1,0,0.3,0,0.4,0
			c0,0.1,0,0.2,0,0.3c-2.5,0-5,0-7.4,0c0-0.1,0-0.2,0-0.3c0.1,0,0.3,0,0.4,0c1.2,0,2.2-0.8,2.2-1.7c0.1-5,0.1-10,0.2-15c0,0,0,0,0,0
			c0-0.9-1-1.5-2.2-1.4c-0.1,0-0.3,0-0.4,0.1c0-0.1,0-0.2,0-0.3c0.9-0.1,1.8-0.3,2.7-0.4c0,0,0,0,0,0c2.2-0.3,4.3-0.8,6.5-1.3
			c4.1-1,6.6,0.4,6.5,4.1c0,3.1-2.5,6.4-5.8,6.7c0.7,0.2,1.8,1.1,2.4,1.8c0,0,2.9,3.5,4.2,4.8C619.5,306.2,620.7,307.3,622.7,307.3z
			"/>
	</g>
</g>
<g>
	<path class="st0" d="M489.1,263.1c0.3-0.7,0.6-1.2,0.9-1.7c0.3-0.5,0.7-0.9,1-1.2c0.4-0.3,0.7-0.5,1.1-0.5c0.4-0.1,0.8,0,1.2,0.1
		l-0.2,0.9c-0.5-0.2-0.9-0.2-1.3-0.1c-0.4,0.1-0.8,0.3-1.2,0.6c-0.4,0.3-0.7,0.8-1,1.4c-0.3,0.6-0.6,1.3-0.8,2.1l-0.6,5.1h-0.9
		l1.2-10.1h0.4c0.2,0,0.4,0.1,0.4,0.4L489.1,263.1z"/>
	<path class="st0" d="M506.4,268c-0.3,0.3-0.7,0.7-1,0.9c-0.3,0.3-0.6,0.5-1,0.6c-0.3,0.2-0.7,0.3-1,0.4c-0.3,0.1-0.7,0.1-1.1,0.1
		c-0.6,0-1.1-0.1-1.5-0.3c-0.4-0.2-0.8-0.4-1.1-0.8c-0.3-0.3-0.5-0.8-0.7-1.2c-0.2-0.5-0.2-1-0.2-1.6c0-0.5,0.1-1,0.1-1.5
		c0.1-0.5,0.3-1,0.4-1.5c0.2-0.5,0.4-0.9,0.7-1.3c0.3-0.4,0.6-0.8,1-1.1c0.4-0.3,0.8-0.5,1.3-0.7c0.5-0.2,1-0.3,1.5-0.3
		c0.5,0,0.9,0.1,1.2,0.2c0.3,0.1,0.6,0.3,0.8,0.5c0.2,0.2,0.4,0.4,0.5,0.7c0.1,0.2,0.1,0.5,0.1,0.7c0,0.3,0,0.5-0.1,0.8
		c-0.1,0.2-0.2,0.5-0.4,0.7c-0.2,0.2-0.4,0.4-0.8,0.6c-0.3,0.2-0.7,0.4-1.2,0.5c-0.5,0.2-1.1,0.3-1.8,0.4c-0.7,0.1-1.5,0.3-2.5,0.4
		c0,0.1,0,0.3,0,0.4c0,0.1,0,0.3,0,0.4c0,1,0.2,1.8,0.7,2.4c0.5,0.6,1.1,0.8,2.1,0.8c0.4,0,0.7,0,1-0.1c0.3-0.1,0.5-0.2,0.8-0.3
		c0.2-0.1,0.4-0.3,0.6-0.4c0.2-0.1,0.3-0.3,0.5-0.4c0.1-0.1,0.2-0.2,0.3-0.3c0.1-0.1,0.2-0.1,0.3-0.1c0.1,0,0.1,0,0.2,0.1L506.4,268
		z M503.9,260.3c-0.5,0-1,0.1-1.5,0.3c-0.4,0.2-0.8,0.5-1.2,0.9c-0.3,0.4-0.6,0.8-0.8,1.3c-0.2,0.5-0.4,1-0.5,1.6
		c0.9-0.1,1.6-0.2,2.2-0.3s1.1-0.3,1.6-0.4c0.4-0.1,0.8-0.3,1-0.4c0.3-0.2,0.5-0.3,0.6-0.5c0.1-0.2,0.2-0.3,0.3-0.5
		c0.1-0.2,0.1-0.4,0.1-0.6c0-0.1,0-0.3-0.1-0.5c-0.1-0.2-0.2-0.3-0.3-0.4c-0.1-0.1-0.3-0.2-0.6-0.3
		C504.6,260.4,504.3,260.3,503.9,260.3z"/>
	<path class="st0" d="M520,261c-0.1,0.1-0.1,0.1-0.2,0.1c-0.1,0-0.1,0-0.2-0.1c-0.1-0.1-0.2-0.2-0.4-0.3c-0.2-0.1-0.4-0.2-0.6-0.3
		c-0.2-0.1-0.6-0.1-0.9-0.1c-0.3,0-0.7,0.1-1,0.2c-0.3,0.1-0.6,0.3-0.8,0.5c-0.2,0.2-0.4,0.4-0.5,0.7c-0.1,0.3-0.2,0.5-0.2,0.8
		c0,0.3,0.1,0.5,0.2,0.7c0.1,0.2,0.3,0.4,0.5,0.5c0.2,0.1,0.4,0.3,0.7,0.4c0.3,0.1,0.5,0.2,0.8,0.3s0.6,0.2,0.8,0.3
		c0.3,0.1,0.5,0.3,0.7,0.4c0.2,0.2,0.4,0.4,0.5,0.6c0.1,0.3,0.2,0.6,0.2,0.9c0,0.4-0.1,0.8-0.3,1.3c-0.2,0.4-0.4,0.8-0.7,1.1
		c-0.3,0.3-0.7,0.6-1.2,0.8c-0.4,0.2-0.9,0.3-1.5,0.3c-0.6,0-1.2-0.1-1.6-0.3c-0.4-0.2-0.8-0.5-1.1-0.9l0.2-0.3
		c0.1-0.1,0.2-0.2,0.3-0.2c0.1,0,0.2,0.1,0.3,0.2c0.1,0.1,0.2,0.2,0.4,0.4c0.2,0.1,0.4,0.3,0.7,0.4c0.3,0.1,0.6,0.2,1,0.2
		c0.4,0,0.8-0.1,1.1-0.2c0.3-0.1,0.6-0.3,0.8-0.5c0.2-0.2,0.4-0.5,0.5-0.8c0.1-0.3,0.2-0.6,0.2-1c0-0.3-0.1-0.5-0.2-0.7
		c-0.1-0.2-0.3-0.4-0.5-0.5c-0.2-0.1-0.4-0.3-0.7-0.4c-0.3-0.1-0.5-0.2-0.8-0.3c-0.3-0.1-0.6-0.2-0.8-0.3c-0.3-0.1-0.5-0.3-0.7-0.4
		c-0.2-0.2-0.4-0.4-0.5-0.6c-0.1-0.2-0.2-0.5-0.2-0.9c0-0.4,0.1-0.8,0.3-1.1c0.2-0.4,0.4-0.7,0.7-1c0.3-0.3,0.7-0.5,1.1-0.7
		c0.4-0.2,0.9-0.2,1.4-0.2c0.6,0,1.1,0.1,1.5,0.3c0.4,0.2,0.8,0.4,1.1,0.8L520,261z"/>
	<path class="st0" d="M527.9,268.1c0,0,0-0.1,0-0.2c0-0.1,0-0.2,0-0.3c0-0.1,0-0.3,0-0.5c0-0.2,0-0.4,0.1-0.7l0.7-5.7h-1.3
		c-0.1,0-0.1,0-0.2-0.1c0,0-0.1-0.1,0-0.2l0.1-0.4l1.6-0.1l0.7-3.6c0-0.1,0-0.1,0.1-0.2c0,0,0.1-0.1,0.2-0.1h0.5l-0.5,3.8h2.9
		l-0.1,0.7h-2.9l-0.7,5.7c0,0.3-0.1,0.5-0.1,0.7c0,0.2,0,0.3-0.1,0.4c0,0.1,0,0.2,0,0.2c0,0.1,0,0.1,0,0.1c0,0.4,0.1,0.8,0.3,0.9
		c0.2,0.2,0.5,0.3,0.8,0.3c0.2,0,0.4,0,0.6-0.1c0.2-0.1,0.3-0.1,0.4-0.2c0.1-0.1,0.2-0.2,0.3-0.2c0.1-0.1,0.1-0.1,0.2-0.1
		c0.1,0,0.1,0,0.2,0.1l0.2,0.4c-0.3,0.3-0.6,0.5-1,0.7c-0.4,0.2-0.8,0.3-1.2,0.3c-0.6,0-1-0.2-1.3-0.5
		C528.1,269.2,527.9,268.8,527.9,268.1z"/>
	<path class="st0" d="M545.6,266.3c-0.3,0.5-0.5,1-0.8,1.5c-0.3,0.4-0.6,0.8-1,1.1c-0.4,0.3-0.7,0.6-1.1,0.7
		c-0.4,0.2-0.8,0.3-1.2,0.3c-0.4,0-0.8-0.1-1.1-0.2c-0.3-0.2-0.6-0.4-0.8-0.7c-0.2-0.3-0.4-0.7-0.5-1.1c-0.1-0.4-0.2-0.9-0.2-1.5
		c0-0.6,0.1-1.2,0.2-1.7c0.2-0.6,0.4-1.1,0.6-1.6c0.3-0.5,0.6-1,1-1.4c0.4-0.4,0.8-0.8,1.3-1.1c0.5-0.3,0.9-0.6,1.5-0.7
		c0.5-0.2,1.1-0.3,1.6-0.3c0.4,0,0.8,0,1.1,0.1s0.7,0.2,1,0.4l-1.2,9.7h-0.5c-0.1,0-0.2,0-0.3-0.1c0-0.1-0.1-0.2-0.1-0.3
		L545.6,266.3z M546.2,260.6c-0.2-0.1-0.4-0.1-0.6-0.2c-0.2,0-0.4,0-0.7,0c-0.7,0-1.3,0.2-1.9,0.5c-0.6,0.3-1.1,0.8-1.6,1.3
		c-0.5,0.6-0.8,1.2-1.1,1.9c-0.3,0.7-0.4,1.5-0.4,2.2c0,0.9,0.2,1.6,0.5,2.1c0.3,0.5,0.8,0.8,1.4,0.8c0.4,0,0.8-0.1,1.1-0.3
		c0.4-0.2,0.7-0.5,1.1-0.9c0.3-0.4,0.7-0.9,1-1.4c0.3-0.5,0.6-1.2,0.8-1.8L546.2,260.6z"/>
	<path class="st0" d="M562.9,259.8l-1.2,10.1h-0.4c-0.1,0-0.2,0-0.3-0.1c-0.1-0.1-0.1-0.2-0.1-0.3l0.3-2.9c-0.3,0.5-0.6,1-0.9,1.4
		c-0.3,0.4-0.7,0.8-1,1.1c-0.4,0.3-0.7,0.5-1.1,0.7c-0.4,0.2-0.8,0.2-1.2,0.2c-0.9,0-1.5-0.3-1.9-1c-0.4-0.7-0.5-1.6-0.3-2.8
		l0.8-6.4h1l-0.8,6.4c-0.1,1-0.1,1.7,0.2,2.2c0.2,0.5,0.7,0.8,1.4,0.8c0.4,0,0.7-0.1,1.1-0.3c0.4-0.2,0.7-0.5,1.1-0.8
		c0.4-0.4,0.7-0.8,1-1.3c0.3-0.5,0.6-1.1,0.8-1.7l0.6-5.3H562.9z"/>
	<path class="st0" d="M571.8,263.1c0.3-0.7,0.6-1.2,0.9-1.7c0.3-0.5,0.7-0.9,1-1.2s0.7-0.5,1.1-0.5c0.4-0.1,0.8,0,1.2,0.1l-0.2,0.9
		c-0.5-0.2-0.9-0.2-1.3-0.1c-0.4,0.1-0.8,0.3-1.2,0.6c-0.4,0.3-0.7,0.8-1,1.4c-0.3,0.6-0.6,1.3-0.8,2.1l-0.6,5.1h-0.9l1.2-10.1h0.4
		c0.2,0,0.4,0.1,0.4,0.4L571.8,263.1z"/>
	<path class="st0" d="M588,266.3c-0.3,0.5-0.5,1-0.8,1.5c-0.3,0.4-0.6,0.8-1,1.1c-0.4,0.3-0.7,0.6-1.1,0.7c-0.4,0.2-0.8,0.3-1.2,0.3
		c-0.4,0-0.8-0.1-1.1-0.2c-0.3-0.2-0.6-0.4-0.8-0.7c-0.2-0.3-0.4-0.7-0.5-1.1c-0.1-0.4-0.2-0.9-0.2-1.5c0-0.6,0.1-1.2,0.2-1.7
		c0.2-0.6,0.4-1.1,0.6-1.6c0.3-0.5,0.6-1,1-1.4c0.4-0.4,0.8-0.8,1.3-1.1c0.5-0.3,0.9-0.6,1.5-0.7c0.5-0.2,1.1-0.3,1.6-0.3
		c0.4,0,0.8,0,1.1,0.1s0.7,0.2,1,0.4l-1.2,9.7H588c-0.1,0-0.2,0-0.3-0.1c0-0.1-0.1-0.2-0.1-0.3L588,266.3z M588.6,260.6
		c-0.2-0.1-0.4-0.1-0.6-0.2c-0.2,0-0.4,0-0.7,0c-0.7,0-1.3,0.2-1.9,0.5c-0.6,0.3-1.1,0.8-1.6,1.3c-0.5,0.6-0.8,1.2-1.1,1.9
		c-0.3,0.7-0.4,1.5-0.4,2.2c0,0.9,0.2,1.6,0.5,2.1c0.3,0.5,0.8,0.8,1.4,0.8c0.4,0,0.8-0.1,1.1-0.3c0.4-0.2,0.7-0.5,1.1-0.9
		c0.3-0.4,0.7-0.9,1-1.4s0.6-1.2,0.8-1.8L588.6,260.6z"/>
	<path class="st0" d="M598.5,263c0.3-0.5,0.6-1,0.9-1.4c0.3-0.4,0.7-0.8,1.1-1.1c0.4-0.3,0.7-0.5,1.1-0.7c0.4-0.2,0.8-0.2,1.2-0.2
		c0.4,0,0.8,0.1,1.1,0.3c0.3,0.2,0.6,0.4,0.7,0.7c0.2,0.3,0.3,0.7,0.4,1.2c0.1,0.5,0.1,1,0,1.6l-0.8,6.4h-1l0.8-6.4
		c0.1-1,0.1-1.7-0.2-2.2c-0.2-0.5-0.7-0.8-1.4-0.8c-0.4,0-0.8,0.1-1.1,0.3c-0.4,0.2-0.7,0.5-1.1,0.8c-0.4,0.4-0.7,0.8-1,1.3
		c-0.3,0.5-0.6,1.1-0.8,1.7l-0.6,5.3h-1l1.2-10.1h0.4c0.2,0,0.4,0.1,0.4,0.4L598.5,263z"/>
	<path class="st0" d="M613.1,268.1c0,0,0-0.1,0-0.2c0-0.1,0-0.2,0-0.3c0-0.1,0-0.3,0-0.5c0-0.2,0-0.4,0.1-0.7l0.7-5.7h-1.3
		c-0.1,0-0.1,0-0.2-0.1c0,0-0.1-0.1,0-0.2l0.1-0.4l1.6-0.1l0.7-3.6c0-0.1,0-0.1,0.1-0.2c0,0,0.1-0.1,0.2-0.1h0.5l-0.5,3.8h2.9
		l-0.1,0.7h-2.9l-0.7,5.7c0,0.3-0.1,0.5-0.1,0.7c0,0.2,0,0.3-0.1,0.4c0,0.1,0,0.2,0,0.2c0,0.1,0,0.1,0,0.1c0,0.4,0.1,0.8,0.3,0.9
		c0.2,0.2,0.5,0.3,0.8,0.3c0.2,0,0.4,0,0.6-0.1c0.2-0.1,0.3-0.1,0.4-0.2c0.1-0.1,0.2-0.2,0.3-0.2c0.1-0.1,0.1-0.1,0.2-0.1
		c0.1,0,0.1,0,0.1,0.1l0.2,0.4c-0.3,0.3-0.6,0.5-1,0.7c-0.4,0.2-0.8,0.3-1.2,0.3c-0.6,0-1-0.2-1.3-0.5
		C613.2,269.2,613.1,268.8,613.1,268.1z"/>
</g>
<g>
	<g>
		<g>
			<path class="st0" d="M400.1,460.8l3.1-25.6h3.3l-3.1,25.6H400.1z"/>
			<path class="st0" d="M417.2,461c-1,0-1.8-0.2-2.7-0.5c-0.8-0.3-1.5-0.8-2.1-1.4c-0.6-0.6-1-1.4-1.4-2.3c-0.3-0.9-0.5-1.9-0.5-3.1
				c0-1.5,0.2-2.9,0.7-4.2c0.5-1.3,1.1-2.5,1.9-3.4c0.8-1,1.8-1.7,2.9-2.3c1.1-0.6,2.3-0.8,3.6-0.8c1,0,1.8,0.2,2.7,0.5
				c0.8,0.3,1.5,0.8,2.1,1.4c0.6,0.6,1,1.4,1.4,2.3c0.3,0.9,0.5,1.9,0.5,3.1c0,1.5-0.2,2.9-0.7,4.2c-0.5,1.3-1.1,2.5-1.9,3.4
				c-0.8,1-1.8,1.8-2.9,2.3C419.7,460.7,418.5,461,417.2,461z M417.5,458.4c0.8,0,1.5-0.2,2.2-0.7c0.7-0.4,1.2-1,1.7-1.8
				c0.5-0.8,0.8-1.6,1.1-2.6c0.3-1,0.4-2,0.4-3.1c0-1.6-0.3-2.8-0.9-3.5c-0.6-0.8-1.5-1.2-2.6-1.2c-0.8,0-1.6,0.2-2.2,0.7
				c-0.7,0.4-1.2,1-1.7,1.8c-0.5,0.7-0.8,1.6-1.1,2.6c-0.3,1-0.4,2-0.4,3.1c0,1.6,0.3,2.7,0.9,3.5
				C415.5,458,416.3,458.4,417.5,458.4z"/>
			<path class="st0" d="M447.4,443.1l-2.1,17.6h-1.7c-0.8,0-1.2-0.4-1.2-1.2l0.2-2.9c-0.9,1.4-1.9,2.5-3.1,3.2
				c-1.1,0.7-2.3,1.1-3.5,1.1c-0.7,0-1.4-0.1-2-0.4c-0.6-0.3-1-0.7-1.4-1.3c-0.4-0.6-0.6-1.3-0.7-2.1c-0.1-0.8-0.1-1.8,0-2.8
				l1.3-11.2h3.4l-1.3,11.2c-0.2,1.3-0.1,2.3,0.2,2.9c0.3,0.6,0.9,0.9,1.8,0.9c0.5,0,1.1-0.1,1.6-0.4c0.5-0.3,1.1-0.7,1.6-1.2
				s1-1.2,1.4-1.9c0.4-0.7,0.8-1.6,1.1-2.5l1.1-9.1H447.4z"/>
			<path class="st0" d="M457.1,447.4c0.9-1.5,2-2.6,3.1-3.4s2.4-1.1,3.6-1.1c0.7,0,1.4,0.1,2,0.4c0.6,0.3,1,0.7,1.4,1.3
				c0.4,0.6,0.6,1.3,0.7,2.1c0.1,0.8,0.1,1.8,0,2.8l-1.3,11.2h-3.4l1.3-11.2c0.2-1.3,0.1-2.3-0.2-2.9c-0.3-0.6-0.9-0.9-1.8-0.9
				c-0.5,0-1.1,0.1-1.6,0.4c-0.6,0.3-1.1,0.7-1.6,1.3c-0.5,0.5-1,1.2-1.4,2c-0.4,0.8-0.8,1.6-1.1,2.6l-1,8.9h-3.4l2.1-17.7h1.7
				c0.4,0,0.7,0.1,0.9,0.3c0.2,0.2,0.3,0.5,0.3,0.9L457.1,447.4z"/>
			<path class="st0" d="M489.7,443.8l-0.2,1.1c-0.1,0.5-0.3,0.8-0.7,0.9l-2.1,0.4c0.1,0.3,0.2,0.6,0.2,0.9c0,0.3,0.1,0.6,0.1,1
				c0,0.6-0.1,1.1-0.2,1.5c-0.1,0.5-0.3,0.9-0.5,1.3c-0.2,0.4-0.4,0.7-0.6,1.1c-0.2,0.3-0.4,0.7-0.6,1c-0.2,0.3-0.4,0.7-0.5,1.1
				c-0.1,0.4-0.2,0.8-0.2,1.2c0,0.5,0.1,0.9,0.3,1.3c0.2,0.4,0.5,0.8,0.7,1.2c0.3,0.4,0.5,0.9,0.7,1.4c0.2,0.5,0.3,1.1,0.3,1.7
				c0,0.8-0.2,1.6-0.6,2.4c-0.4,0.8-0.9,1.4-1.6,2c-0.7,0.6-1.6,1-2.6,1.4c-1,0.3-2.2,0.5-3.5,0.5c-1,0-2-0.1-2.8-0.3
				c-0.8-0.2-1.6-0.5-2.1-0.9c-0.6-0.4-1-0.9-1.4-1.4c-0.3-0.5-0.5-1.1-0.5-1.8c0-0.8,0.2-1.4,0.5-2s0.7-1.1,1.3-1.5
				c0.5-0.4,1.2-0.7,1.9-1c0.7-0.3,1.5-0.5,2.3-0.6c0.8-0.1,1.6-0.2,2.4-0.2c0.8,0,1.6,0.1,2.4,0.2c-0.1-0.2-0.2-0.4-0.2-0.6
				c-0.1-0.2-0.1-0.5-0.1-0.7c0-0.3,0.1-0.7,0.2-1.1c0.1-0.4,0.3-0.8,0.5-1.3c-0.4,0.3-0.9,0.5-1.5,0.7c-0.5,0.2-1.2,0.2-1.9,0.2
				c-0.7,0-1.3-0.1-1.9-0.3c-0.6-0.2-1.1-0.5-1.6-1c-0.4-0.4-0.8-1-1.1-1.6c-0.3-0.6-0.4-1.4-0.4-2.3c0-0.8,0.2-1.7,0.5-2.5
				c0.3-0.8,0.8-1.5,1.4-2.2c0.6-0.6,1.3-1.1,2.2-1.5c0.9-0.4,1.9-0.6,3.1-0.6c0.6,0,1.2,0.1,1.8,0.2c0.6,0.1,1.1,0.4,1.5,0.7H489.7
				z M483.5,461.1c0-0.3,0-0.5-0.1-0.7c0-0.2-0.1-0.4-0.2-0.6c-1.5-0.3-2.8-0.4-3.9-0.3s-2,0.2-2.7,0.5c-0.7,0.3-1.2,0.6-1.5,1
				c-0.3,0.4-0.5,0.9-0.5,1.3c0,0.8,0.3,1.4,1,1.8c0.7,0.4,1.6,0.6,2.9,0.6c0.7,0,1.4-0.1,2-0.3c0.6-0.2,1.1-0.4,1.6-0.8
				c0.4-0.3,0.8-0.7,1-1.1C483.4,462.1,483.5,461.6,483.5,461.1z M480.2,452.7c0.6,0,1.1-0.1,1.6-0.4c0.5-0.3,0.9-0.6,1.2-1
				c0.3-0.4,0.5-0.9,0.7-1.4c0.2-0.5,0.2-1.1,0.3-1.6c0-1-0.2-1.7-0.7-2.2s-1.2-0.8-2-0.8c-0.6,0-1.1,0.1-1.6,0.4
				c-0.5,0.2-0.8,0.6-1.2,1c-0.3,0.4-0.5,0.9-0.7,1.4c-0.2,0.5-0.2,1.1-0.2,1.7c0,1,0.2,1.8,0.7,2.3
				C478.6,452.5,479.3,452.7,480.2,452.7z"/>
			<path class="st0" d="M507.1,457.5c-0.6,0.6-1.2,1.1-1.8,1.6c-0.6,0.4-1.1,0.8-1.7,1.1c-0.6,0.3-1.2,0.5-1.9,0.6
				c-0.6,0.1-1.4,0.2-2.1,0.2c-1,0-1.9-0.2-2.7-0.5c-0.8-0.3-1.5-0.8-2.1-1.5c-0.6-0.6-1-1.4-1.3-2.3c-0.3-0.9-0.5-1.9-0.5-3
				c0-0.9,0.1-1.8,0.3-2.7c0.2-0.9,0.5-1.7,0.8-2.6c0.4-0.8,0.8-1.6,1.4-2.2c0.5-0.7,1.1-1.3,1.8-1.8c0.7-0.5,1.4-0.9,2.3-1.2
				c0.8-0.3,1.7-0.4,2.7-0.4c0.9,0,1.7,0.1,2.3,0.4c0.7,0.3,1.2,0.6,1.6,1c0.4,0.4,0.8,0.8,1,1.3c0.2,0.5,0.3,1,0.3,1.4
				c0,0.8-0.2,1.5-0.5,2.1c-0.3,0.6-0.9,1.2-1.7,1.7c-0.8,0.5-2,1-3.4,1.3c-1.4,0.4-3.3,0.7-5.6,0.9c0,0.1,0,0.2,0,0.3
				c0,0.1,0,0.2,0,0.3c0,1.5,0.3,2.7,1,3.4c0.7,0.8,1.6,1.2,3,1.2c0.5,0,1-0.1,1.5-0.2c0.4-0.1,0.8-0.2,1.1-0.4
				c0.3-0.2,0.6-0.3,0.9-0.5c0.3-0.2,0.5-0.4,0.7-0.5c0.2-0.2,0.4-0.3,0.6-0.4c0.2-0.1,0.4-0.2,0.6-0.2c0.1,0,0.2,0,0.3,0.1
				c0.1,0.1,0.2,0.1,0.3,0.2L507.1,457.5z M502,445.3c-0.7,0-1.3,0.1-1.9,0.4c-0.6,0.3-1.1,0.7-1.6,1.2c-0.5,0.5-0.9,1.1-1.2,1.8
				c-0.3,0.7-0.6,1.4-0.8,2.2c1.7-0.2,3.1-0.5,4.1-0.7c1-0.3,1.8-0.6,2.4-0.9c0.6-0.3,0.9-0.7,1.1-1s0.3-0.7,0.3-1.1
				c0-0.2,0-0.4-0.1-0.6c-0.1-0.2-0.2-0.4-0.4-0.6c-0.2-0.2-0.4-0.3-0.7-0.4C502.8,445.4,502.5,445.3,502,445.3z"/>
		</g>
		<g>
			<path class="st0" d="M259,445.2c-0.1,0.2-0.2,0.3-0.3,0.3c-0.1,0.1-0.2,0.1-0.4,0.1c-0.2,0-0.4-0.1-0.6-0.2
				c-0.2-0.1-0.4-0.3-0.7-0.4c-0.3-0.2-0.6-0.3-1-0.4c-0.4-0.1-0.9-0.2-1.5-0.2c-0.5,0-1,0.1-1.5,0.2c-0.4,0.1-0.8,0.3-1.1,0.6
				c-0.3,0.3-0.6,0.5-0.7,0.9c-0.2,0.3-0.2,0.7-0.2,1.1c0,0.4,0.1,0.8,0.3,1c0.2,0.3,0.5,0.5,0.9,0.7c0.4,0.2,0.8,0.4,1.2,0.6
				c0.5,0.2,0.9,0.4,1.4,0.5c0.5,0.2,0.9,0.4,1.4,0.6c0.5,0.2,0.9,0.5,1.2,0.9c0.4,0.3,0.6,0.7,0.9,1.2c0.2,0.5,0.3,1,0.3,1.7
				c0,0.9-0.2,1.7-0.5,2.5c-0.3,0.8-0.8,1.5-1.5,2.1c-0.6,0.6-1.4,1.1-2.3,1.4c-0.9,0.4-1.9,0.5-3.1,0.5c-1.2,0-2.2-0.2-3.2-0.6
				c-0.9-0.4-1.7-1-2.3-1.6l0.9-1.4c0.2-0.4,0.5-0.5,0.9-0.5c0.2,0,0.4,0.1,0.6,0.3c0.2,0.2,0.5,0.4,0.7,0.6
				c0.3,0.2,0.7,0.4,1.1,0.6c0.4,0.2,1,0.3,1.7,0.3c0.6,0,1.1-0.1,1.6-0.3c0.5-0.2,0.8-0.4,1.2-0.7c0.3-0.3,0.6-0.6,0.7-1
				c0.2-0.4,0.2-0.8,0.2-1.2c0-0.5-0.1-0.8-0.3-1.1c-0.2-0.3-0.5-0.6-0.9-0.8c-0.4-0.2-0.8-0.4-1.2-0.6c-0.5-0.2-0.9-0.3-1.4-0.5
				c-0.5-0.2-0.9-0.4-1.4-0.6c-0.5-0.2-0.9-0.5-1.2-0.8c-0.4-0.3-0.6-0.7-0.9-1.2c-0.2-0.5-0.3-1-0.3-1.7c0-0.8,0.2-1.6,0.5-2.3
				c0.3-0.7,0.8-1.4,1.4-2c0.6-0.6,1.3-1,2.2-1.4c0.9-0.3,1.8-0.5,2.9-0.5c1.2,0,2.2,0.2,3,0.6c0.9,0.4,1.6,0.9,2.2,1.5L259,445.2z"
				/>
			<path class="st0" d="M304,433.7l-1.9,15.9h0.5c0.3,0,0.5,0,0.7-0.1c0.2-0.1,0.3-0.2,0.5-0.4l5.9-6.2c0.2-0.2,0.4-0.4,0.6-0.5
				c0.2-0.1,0.5-0.2,0.8-0.2h3.2l-6.9,7.2c-0.4,0.4-0.8,0.8-1.2,1c0.2,0.2,0.4,0.3,0.5,0.6c0.1,0.2,0.3,0.4,0.4,0.7l5.3,9.2h-3.1
				c-0.3,0-0.5,0-0.7-0.1s-0.3-0.3-0.5-0.5l-4.5-7.5c-0.1-0.3-0.3-0.5-0.4-0.5c-0.2-0.1-0.4-0.1-0.8-0.1h-0.6l-1.1,8.8h-3.5
				l3.3-27.1H304z"/>
			<path class="st0" d="M367.7,442.1l-12.5,24.1c-0.3,0.5-0.7,0.8-1.2,0.8h-2.6l4.1-7.5l-4.8-17.5h3c0.3,0,0.5,0.1,0.6,0.2
				c0.1,0.1,0.2,0.3,0.3,0.5l2.8,11.2c0.1,0.3,0.1,0.5,0.2,0.8c0,0.3,0.1,0.5,0.1,0.8c0.1-0.3,0.2-0.6,0.3-0.8
				c0.1-0.3,0.2-0.5,0.4-0.8l5.6-11.2c0.1-0.2,0.2-0.4,0.4-0.5c0.2-0.1,0.4-0.2,0.6-0.2H367.7z"/>
		</g>
	</g>
</g>
<g>
	<g>
		<path class="st0" d="M481.9,162.3c-0.2-0.6-0.7-1.3-1.4-1.8c-0.6-0.5-1.6-0.7-2.7-0.7c-0.9,0-1.7,0.2-2.4,0.5
			c-0.7,0.3-1.3,0.7-1.8,1.2c-0.5,0.5-0.8,1.1-1.1,1.7c-0.2,0.6-0.4,1.3-0.4,2c0,0.7,0.1,1.3,0.3,1.8c0.2,0.5,0.5,0.9,0.8,1.3
			c0.4,0.3,0.8,0.6,1.2,0.8c0.5,0.2,1,0.3,1.5,0.3c0.6,0,1.1-0.1,1.5-0.2c0.4-0.1,0.8-0.3,1.2-0.6c-0.2,0.4-0.4,0.7-0.4,1
			c-0.1,0.3-0.1,0.6-0.1,0.9c0,0.2,0,0.4,0.1,0.6c0,0,0.1,0.5,1.1,0.5c1.6,0,1.1-0.5,1.1-0.5c-0.1-0.2-0.2-0.4-0.3-0.7
			c-0.1-0.2-0.1-0.5-0.1-0.7c0-0.3,0.1-0.7,0.2-1c0.1-0.3,0.2-0.6,0.4-0.9c0.2-0.3,0.3-0.6,0.5-0.8c0.2-0.3,0.4-0.6,0.5-0.9
			c0.2-0.3,0.3-0.7,0.4-1c0.1-0.4,0.2-0.8,0.2-1.3c0-0.3,0-0.6-0.1-0.8C482.1,162.8,482,162.6,481.9,162.3z M479.7,165.4
			c-0.1,0.4-0.3,0.8-0.6,1.2c-0.3,0.4-0.6,0.6-1,0.9c-0.4,0.2-0.8,0.3-1.3,0.3c-0.7,0-1.3-0.2-1.7-0.7s-0.6-1.1-0.6-1.9
			c0-0.5,0.1-0.9,0.2-1.4c0.1-0.4,0.3-0.8,0.6-1.2c0.3-0.3,0.6-0.6,1-0.8c0.4-0.2,0.8-0.3,1.3-0.3c0.7,0,1.3,0.2,1.7,0.6
			c0.4,0.4,0.6,1,0.6,1.9C479.9,164.5,479.9,164.9,479.7,165.4z"/>
		<path class="st0" d="M503.2,208.2H491l-12.7-12.7l6.5-21c0.1-0.3,0-0.6-0.1-0.9s-0.5-0.4-0.8-0.4H474c-0.5,0-1,0.4-1,1l-0.1,16
			L456.8,174c-0.2-0.2-0.4-0.3-0.7-0.3h-12.5c-0.5,0-1,0.4-1,1c0,0.5,0.4,1,1,1h12.1l34.2,34.2c0.2,0.2,0.4,0.3,0.7,0.3h12.5
			c0.5,0,1-0.4,1-1C504.1,208.6,503.7,208.2,503.2,208.2z M475,175.2h7.5l-5.8,18.7l-1.8-1.8L475,175.2z"/>
	</g>
</g>
<g>
	<g>
		<path class="st0" d="M942.7,419.7c-0.1-0.4-0.5-0.9-1-1.3c-0.4-0.3-1.2-0.5-1.9-0.5c-0.6,0-1.2,0.1-1.7,0.3
			c-0.5,0.2-0.9,0.5-1.2,0.9c-0.3,0.4-0.6,0.8-0.8,1.2c-0.2,0.4-0.3,0.9-0.3,1.4c0,0.5,0.1,0.9,0.2,1.3c0.1,0.4,0.3,0.7,0.6,0.9
			c0.3,0.2,0.6,0.4,0.9,0.6c0.7,0.3,1.5,0.2,2.1,0.1c0,0,0.1,0,0.1,0c-0.1,0.2-0.1,0.4-0.1,0.6c0,0.2,0,0.3,0.1,0.5
			c0,0.1,0.2,0.6,1,0.6c0.4,0,0.9,0,1-0.4c0.1-0.2,0-0.4-0.1-0.4c-0.1-0.1-0.1-0.2-0.2-0.4c0-0.1-0.1-0.2-0.1-0.3
			c0-0.2,0-0.4,0.1-0.5c0.1-0.2,0.1-0.3,0.2-0.5c0.1-0.2,0.2-0.3,0.3-0.5c0.1-0.2,0.2-0.4,0.3-0.6c0.1-0.2,0.2-0.5,0.3-0.7
			c0.1-0.3,0.1-0.6,0.1-0.9c0-0.2,0-0.4,0-0.6C942.8,420.1,942.7,419.9,942.7,419.7z M940.7,421.6c-0.1,0.3-0.2,0.5-0.3,0.7
			c-0.1,0.2-0.3,0.4-0.5,0.5c-0.2,0.1-0.4,0.2-0.7,0.2c-0.4,0-0.7-0.1-0.9-0.3c-0.2-0.2-0.3-0.6-0.3-1c0-0.3,0-0.5,0.1-0.8
			c0.1-0.2,0.2-0.5,0.3-0.7c0.1-0.2,0.3-0.3,0.5-0.4c0.2-0.1,0.4-0.2,0.7-0.2c0.4,0,0.7,0.1,0.9,0.3c0.2,0.2,0.3,0.5,0.3,1
			C940.8,421.1,940.7,421.4,940.7,421.6z"/>
		<path class="st0" d="M949.3,423.8c0.3,0.2,0.6,0.4,0.9,0.6c0.7,0.3,1.5,0.2,2.1,0.1c0,0,0.1,0,0.1,0c-0.1,0.2-0.1,0.4-0.1,0.6
			c0,0.2,0,0.3,0.1,0.5c0,0.1,0.2,0.6,1,0.6c0.4,0,0.9,0,1-0.4c0.1-0.2,0-0.4-0.1-0.4c-0.1-0.1-0.1-0.2-0.2-0.4
			c0-0.1-0.1-0.2-0.1-0.3c0-0.2,0-0.4,0.1-0.5c0.1-0.2,0.1-0.3,0.2-0.5c0.1-0.2,0.2-0.3,0.3-0.5c0.1-0.2,0.2-0.4,0.3-0.6
			c0.1-0.2,0.2-0.5,0.3-0.7c0.1-0.3,0.1-0.6,0.1-0.9c0-0.2,0-0.4,0-0.6c0-0.2-0.1-0.3-0.1-0.5c-0.1-0.4-0.5-0.9-1-1.3
			c-0.4-0.3-1.2-0.5-1.9-0.5c-0.6,0-1.2,0.1-1.7,0.3c-0.5,0.2-0.9,0.5-1.2,0.9c-0.3,0.4-0.6,0.8-0.8,1.2c-0.2,0.4-0.3,0.9-0.3,1.4
			c0,0.5,0.1,0.9,0.2,1.3C948.8,423.2,949,423.6,949.3,423.8z M953.2,421.6c-0.1,0.3-0.2,0.5-0.3,0.7c-0.1,0.2-0.3,0.4-0.5,0.5
			c-0.2,0.1-0.4,0.2-0.7,0.2c-0.4,0-0.7-0.1-0.9-0.3c-0.2-0.2-0.3-0.6-0.3-1c0-0.3,0-0.5,0.1-0.8c0.1-0.2,0.2-0.5,0.3-0.7
			c0.1-0.2,0.3-0.3,0.5-0.4c0.2-0.1,0.4-0.2,0.7-0.2c0.4,0,0.7,0.1,0.9,0.3c0.2,0.2,0.3,0.5,0.3,1
			C953.4,421.1,953.3,421.4,953.2,421.6z"/>
		<path class="st0" d="M962.4,414.1c-0.2-0.2-0.5-0.3-0.7-0.3h-15.2v-9.9l2,5.1c0.2,0.5,0.8,0.8,1.3,0.6c0.5-0.2,0.8-0.8,0.6-1.3
			l-4-10.2c-0.2-0.5-0.7-0.7-1.1-0.6c-0.5,0.1-0.8,0.5-0.8,1v15.4h-15.2c-0.3,0-0.5,0.1-0.7,0.3c-0.2,0.2-0.3,0.5-0.3,0.7l0,33.8
			c0,0.3,0.1,0.5,0.3,0.7c0.2,0.2,0.5,0.3,0.7,0.3h0l15.2-0.1v10l-2-5.1c-0.2-0.5-0.8-0.8-1.3-0.6c-0.5,0.2-0.8,0.8-0.6,1.3l4,10.2
			c0.2,0.4,0.5,0.7,1,0.7c0.1,0,0.1,0,0.2,0c0.5-0.1,0.8-0.5,0.8-1v-15.5l15.2-0.1c0.6,0,1-0.5,1-1l0-33.7
			C962.7,414.6,962.6,414.3,962.4,414.1z M948.4,447.5l3.9-12.6l0,12.6H948.4z M960.7,447.5l-6.3,0l0.1-19.3c0-0.3-0.1-0.5-0.3-0.7
			c-0.2-0.2-0.5-0.3-0.7-0.3c-0.4,0-0.8,0.3-1,0.7l-6.1,19.7l-7.6,0l5.9-19.1c0.1-0.3,0-0.7-0.2-0.9c-0.2-0.3-0.5-0.4-0.8-0.4h-6.3
			c-0.6,0-1,0.5-1,1l-0.1,19.4l-6,0l0-31.7h30.5L960.7,447.5z M938.3,441.8l0-12.6h3.9L938.3,441.8z"/>
	</g>
</g>
<g>
	<g>
		<path class="st0" d="M1068.1,419.7c-0.1-0.4-0.5-0.9-1-1.3c-0.4-0.3-1.2-0.5-1.9-0.5c-0.6,0-1.2,0.1-1.7,0.3
			c-0.5,0.2-0.9,0.5-1.2,0.9c-0.3,0.4-0.6,0.8-0.8,1.2c-0.2,0.4-0.3,0.9-0.3,1.4c0,0.5,0.1,0.9,0.2,1.3c0.1,0.4,0.3,0.7,0.6,0.9
			c0.3,0.2,0.6,0.4,0.9,0.6c0.7,0.3,1.5,0.2,2.1,0.1c0,0,0.1,0,0.1,0c-0.1,0.2-0.1,0.4-0.1,0.6c0,0.2,0,0.3,0.1,0.5
			c0,0.1,0.2,0.6,1,0.6c0.4,0,0.9,0,1-0.4c0.1-0.2,0-0.4-0.1-0.4c-0.1-0.1-0.1-0.2-0.2-0.4c0-0.1-0.1-0.2-0.1-0.3
			c0-0.2,0-0.4,0.1-0.5c0.1-0.2,0.1-0.3,0.2-0.5c0.1-0.2,0.2-0.3,0.3-0.5c0.1-0.2,0.2-0.4,0.3-0.6c0.1-0.2,0.2-0.5,0.3-0.7
			c0.1-0.3,0.1-0.6,0.1-0.9c0-0.2,0-0.4,0-0.6C1068.2,420.1,1068.1,419.9,1068.1,419.7z M1066.1,421.6c-0.1,0.3-0.2,0.5-0.3,0.7
			c-0.1,0.2-0.3,0.4-0.5,0.5c-0.2,0.1-0.4,0.2-0.7,0.2c-0.4,0-0.7-0.1-0.9-0.3c-0.2-0.2-0.3-0.6-0.3-1c0-0.3,0-0.5,0.1-0.8
			c0.1-0.2,0.2-0.5,0.3-0.7c0.1-0.2,0.3-0.3,0.5-0.4c0.2-0.1,0.4-0.2,0.7-0.2c0.4,0,0.7,0.1,0.9,0.3c0.2,0.2,0.3,0.5,0.3,1
			C1066.2,421.1,1066.2,421.4,1066.1,421.6z"/>
		<path class="st0" d="M1074.7,423.8c0.3,0.2,0.6,0.4,0.9,0.6c0.7,0.3,1.5,0.2,2.1,0.1c0,0,0.1,0,0.1,0c-0.1,0.2-0.1,0.4-0.1,0.6
			c0,0.2,0,0.3,0.1,0.5c0,0.1,0.2,0.6,1,0.6c0.4,0,0.9,0,1-0.4c0.1-0.2,0-0.4-0.1-0.4c-0.1-0.1-0.1-0.2-0.2-0.4
			c0-0.1-0.1-0.2-0.1-0.3c0-0.2,0-0.4,0.1-0.5c0.1-0.2,0.1-0.3,0.2-0.5c0.1-0.2,0.2-0.3,0.3-0.5c0.1-0.2,0.2-0.4,0.3-0.6
			c0.1-0.2,0.2-0.5,0.3-0.7c0.1-0.3,0.1-0.6,0.1-0.9c0-0.2,0-0.4,0-0.6c0-0.2-0.1-0.3-0.1-0.5c-0.1-0.4-0.5-0.9-1-1.3
			c-0.4-0.3-1.2-0.5-1.9-0.5c-0.6,0-1.2,0.1-1.7,0.3c-0.5,0.2-0.9,0.5-1.2,0.9c-0.3,0.4-0.6,0.8-0.8,1.2c-0.2,0.4-0.3,0.9-0.3,1.4
			c0,0.5,0.1,0.9,0.2,1.3C1074.2,423.2,1074.4,423.6,1074.7,423.8z M1078.7,421.6c-0.1,0.3-0.2,0.5-0.3,0.7
			c-0.1,0.2-0.3,0.4-0.5,0.5c-0.2,0.1-0.4,0.2-0.7,0.2c-0.4,0-0.7-0.1-0.9-0.3c-0.2-0.2-0.3-0.6-0.3-1c0-0.3,0-0.5,0.1-0.8
			c0.1-0.2,0.2-0.5,0.3-0.7c0.1-0.2,0.3-0.3,0.5-0.4c0.2-0.1,0.4-0.2,0.7-0.2c0.4,0,0.7,0.1,0.9,0.3c0.2,0.2,0.3,0.5,0.3,1
			C1078.8,421.1,1078.7,421.4,1078.7,421.6z"/>
		<path class="st0" d="M1087.9,414.1c-0.2-0.2-0.5-0.3-0.7-0.3h-15.2v-9.9l2,5.1c0.2,0.5,0.8,0.8,1.3,0.6c0.5-0.2,0.8-0.8,0.6-1.3
			l-4-10.2c-0.2-0.5-0.7-0.7-1.1-0.6c-0.5,0.1-0.8,0.5-0.8,1v15.4h-15.2c-0.3,0-0.5,0.1-0.7,0.3c-0.2,0.2-0.3,0.5-0.3,0.7l0,33.8
			c0,0.3,0.1,0.5,0.3,0.7c0.2,0.2,0.5,0.3,0.7,0.3h0l15.2-0.1v10l-2-5.1c-0.2-0.5-0.8-0.8-1.3-0.6c-0.5,0.2-0.8,0.8-0.6,1.3l4,10.2
			c0.2,0.4,0.5,0.7,1,0.7c0.1,0,0.1,0,0.2,0c0.5-0.1,0.8-0.5,0.8-1v-15.5l15.2-0.1c0.6,0,1-0.5,1-1l0-33.7
			C1088.2,414.6,1088.1,414.3,1087.9,414.1z M1073.8,447.5l3.9-12.6l0,12.6H1073.8z M1086.1,447.5l-6.3,0l0.1-19.3
			c0-0.3-0.1-0.5-0.3-0.7c-0.2-0.2-0.5-0.3-0.7-0.3c-0.4,0-0.8,0.3-1,0.7l-6.1,19.7l-7.6,0l5.9-19.1c0.1-0.3,0-0.7-0.2-0.9
			c-0.2-0.3-0.5-0.4-0.8-0.4h-6.3c-0.6,0-1,0.5-1,1l-0.1,19.4l-6,0l0-31.7h30.5L1086.1,447.5z M1063.7,441.8l0-12.6h3.9
			L1063.7,441.8z"/>
	</g>
</g>
<g>
	<g>
		<g>
			<g>
				<g>
					<path class="st4" d="M961.7,84.2h-14.2c-0.5,0-0.9-0.2-1.2-0.6c-0.3-0.4-0.4-0.9-0.2-1.4l14.3-45.8c0.2-0.6,0.8-1.1,1.5-1.1
						c0.4,0,0.8,0.2,1.1,0.4c0.3,0.3,0.5,0.7,0.5,1.1l-0.1,45.8C963.2,83.5,962.5,84.2,961.7,84.2z M949.6,81.2h10.6l0.1-34.4
						L949.6,81.2z"/>
				</g>
			</g>
		</g>
		<g>
			<g>
				<g>
					<g>
						<path class="st5" d="M922.7,84.2c-0.4,0-0.8-0.2-1.1-0.4c-0.3-0.3-0.5-0.7-0.5-1.1l0.1-45.8c0-0.8,0.7-1.5,1.5-1.5h14.2
							c0.5,0,0.9,0.2,1.2,0.6c0.3,0.4,0.4,0.9,0.2,1.4l-14.3,45.8C923.9,83.8,923.3,84.2,922.7,84.2z M924.3,38.4l-0.1,34.4
							l10.7-34.4H924.3z"/>
					</g>
				</g>
			</g>
			<g>
				<g>
					<g>
						<g>
							<g>
								<path class="st5" d="M928.9,32.4c-0.1-0.3-0.1-0.6-0.1-0.9c0-0.4,0.1-0.8,0.2-1.3c0.1-0.4,0.3-0.9,0.6-1.5
									c-0.5,0.3-1.1,0.6-1.7,0.8c-0.6,0.2-1.3,0.3-2.2,0.3c-0.8,0-1.5-0.1-2.2-0.4c-0.7-0.3-1.3-0.6-1.8-1.1
									c-0.5-0.5-0.9-1.1-1.2-1.9c-0.3-0.7-0.4-1.6-0.4-2.6c0-1,0.2-1.9,0.5-2.8c0.4-0.9,0.9-1.8,1.6-2.5c0.7-0.7,1.5-1.3,2.5-1.8
									c1-0.4,2.2-0.7,3.5-0.7c1.5,0,2.9,0.4,3.8,1c1,0.7,1.7,1.8,2,2.6c0.1,0.4,0.2,0.7,0.3,1.1c0.1,0.4,0.1,0.8,0.1,1.2
									c0,0.7-0.1,1.3-0.2,1.8c-0.2,0.5-0.3,1-0.6,1.5c-0.2,0.5-0.5,0.9-0.7,1.3c-0.3,0.4-0.5,0.8-0.7,1.2
									c-0.2,0.4-0.4,0.8-0.6,1.2c-0.2,0.4-0.2,0.9-0.2,1.4c0,0.4,0.1,0.7,0.2,1c0.1,0.3,0.3,0.7,0.5,1c0,0,0.7,0.7-1.6,0.7
									C929,33.2,928.9,32.4,928.9,32.4z M926.7,27.6c0.7,0,1.4-0.2,1.9-0.5c0.6-0.3,1-0.7,1.4-1.2c0.4-0.5,0.7-1.1,0.9-1.7
									c0.2-0.6,0.3-1.3,0.3-2c0-1.2-0.3-2.1-0.9-2.7c-0.6-0.6-1.4-0.9-2.5-0.9c-0.7,0-1.4,0.1-1.9,0.4c-0.5,0.3-1,0.7-1.4,1.2
									c-0.4,0.5-0.7,1.1-0.9,1.7c-0.2,0.6-0.3,1.3-0.3,2c0,1.2,0.3,2.1,0.9,2.8C924.9,27.3,925.7,27.6,926.7,27.6z"/>
							</g>
						</g>
					</g>
				</g>
			</g>
		</g>
		<g>
			<g>
				<g>
					<g>
						<g>
							<path class="st4" d="M960.1,32.4c-0.1-0.3-0.1-0.6-0.1-0.9c0-0.4,0.1-0.8,0.2-1.3c0.1-0.4,0.3-0.9,0.6-1.5
								c-0.5,0.3-1.1,0.6-1.7,0.8c-0.6,0.2-1.3,0.3-2.2,0.3c-0.8,0-1.5-0.1-2.2-0.4c-0.7-0.3-1.3-0.6-1.8-1.1
								c-0.5-0.5-0.9-1.1-1.2-1.9c-0.3-0.7-0.4-1.6-0.4-2.6c0-1,0.2-1.9,0.5-2.8c0.4-0.9,0.9-1.8,1.6-2.5c0.7-0.7,1.5-1.3,2.5-1.8
								c1-0.4,2.2-0.7,3.5-0.7c1.5,0,2.9,0.4,3.8,1c1,0.7,1.7,1.8,2,2.6c0.1,0.4,0.2,0.7,0.3,1.1c0.1,0.4,0.1,0.8,0.1,1.2
								c0,0.7-0.1,1.3-0.2,1.8c-0.2,0.5-0.3,1-0.6,1.5c-0.2,0.5-0.5,0.9-0.7,1.3c-0.3,0.4-0.5,0.8-0.7,1.2c-0.2,0.4-0.4,0.8-0.6,1.2
								c-0.2,0.4-0.2,0.9-0.2,1.4c0,0.4,0.1,0.7,0.2,1c0.1,0.3,0.3,0.7,0.5,1c0,0,0.7,0.7-1.6,0.7C960.2,33.2,960.1,32.4,960.1,32.4
								z M957.9,27.6c0.7,0,1.4-0.2,1.9-0.5c0.6-0.3,1-0.7,1.4-1.2c0.4-0.5,0.7-1.1,0.9-1.7c0.2-0.6,0.3-1.3,0.3-2
								c0-1.2-0.3-2.1-0.9-2.7c-0.6-0.6-1.4-0.9-2.5-0.9c-0.7,0-1.4,0.1-1.9,0.4c-0.5,0.3-1,0.7-1.4,1.2c-0.4,0.5-0.7,1.1-0.9,1.7
								c-0.2,0.6-0.3,1.3-0.3,2c0,1.2,0.3,2.1,0.9,2.8C956.1,27.3,956.9,27.6,957.9,27.6z"/>
						</g>
					</g>
				</g>
			</g>
		</g>
		<g>
			<path class="st6" d="M1008.9,59.7c-0.6-0.4-1.5-0.3-1.9,0.4c-0.4,0.6-0.3,1.5,0.4,1.9c3.1,2,4.9,5.4,4.9,9.1
				c0,6-4.9,10.9-10.9,10.9c-4.8,0-9-3.1-10.4-7.6c-0.2-0.7-1-1.1-1.8-0.9c-0.7,0.2-1.1,1-0.9,1.8c1.8,5.7,7,9.6,13.1,9.6
				c7.5,0,13.7-6.1,13.7-13.7C1015,66.5,1012.7,62.3,1008.9,59.7z"/>
			<path class="st6" d="M997.7,67.7c0.1,0,0.2,0,0.3,0c0,0,0.1,0,0.1,0c0.1,0,0.1,0,0.2-0.1c0,0,0.1,0,0.1,0c0.1,0,0.1-0.1,0.1-0.1
				c0,0,0,0,0.1,0c0.1-0.1,0.3-0.2,0.3-0.3c0,0,0,0,0-0.1c0,0,0.1-0.1,0.1-0.1c0,0,0-0.1,0-0.1c0,0,0,0,0-0.1l6.2-19.8
				c0.1-0.4,0.1-0.9-0.2-1.2s-0.7-0.6-1.1-0.6h-10.2c-0.8,0-1.4,0.6-1.4,1.4l-0.1,12.4c0,0.8,0.6,1.4,1.4,1.4c0,0,0,0,0,0
				c0.8,0,1.4-0.6,1.4-1.4l0.1-11h6.9l-5.3,17h-12.4c-0.6,0-1.2,0.4-1.3,1l-4.7,15.2c-0.2,0.7,0.2,1.5,0.9,1.7
				c0.1,0,0.3,0.1,0.4,0.1c0.6,0,1.1-0.4,1.3-1l4.4-14.2L997.7,67.7C997.6,67.7,997.6,67.7,997.7,67.7z"/>
			<path class="st6" d="M992.2,38.8c0.4,0.4,0.9,0.7,1.5,1c0.6,0.2,1.2,0.3,1.8,0.3c0.7,0,1.3-0.1,1.8-0.2c0.3-0.1,0.5-0.2,0.8-0.3
				c-0.1,0.2-0.1,0.4-0.2,0.6c-0.1,0.4-0.2,0.7-0.2,1.1c0,0.3,0,0.5,0.1,0.8c0,0.1,0.2,0.8,1.5,0.8c0.9,0,1.4-0.1,1.6-0.5
				c0.1-0.2,0-0.4-0.1-0.5c-0.1-0.2-0.3-0.5-0.4-0.7c-0.1-0.2-0.1-0.5-0.1-0.7c0-0.4,0.1-0.7,0.2-1c0.1-0.3,0.3-0.6,0.4-0.9
				c0.2-0.3,0.4-0.6,0.6-0.9c0.2-0.3,0.4-0.7,0.6-1.1c0.2-0.4,0.3-0.8,0.5-1.2c0.1-0.4,0.2-1,0.2-1.5c0-0.4,0-0.7-0.1-1
				c0-0.3-0.1-0.6-0.2-0.9c-0.2-0.6-0.8-1.5-1.7-2.2c-0.7-0.6-1.9-0.9-3.2-0.9c-1.1,0-2,0.2-2.9,0.5c-0.8,0.4-1.5,0.9-2.1,1.5
				c-0.6,0.6-1,1.3-1.3,2.1c-0.3,0.8-0.4,1.6-0.4,2.4c0,0.8,0.1,1.6,0.4,2.2C991.5,37.8,991.8,38.4,992.2,38.8z M997.2,31.1
				c0.8,0,1.4,0.2,1.8,0.7c0.4,0.4,0.6,1.1,0.6,2c0,0.5-0.1,1-0.2,1.5c-0.2,0.5-0.4,0.9-0.7,1.3c-0.3,0.4-0.6,0.7-1.1,0.9
				c-0.4,0.2-0.9,0.3-1.4,0.3c-0.8,0-1.4-0.2-1.8-0.7c-0.4-0.5-0.6-1.1-0.6-2c0-0.5,0.1-1,0.2-1.5c0.1-0.5,0.4-0.9,0.7-1.3
				c0.3-0.4,0.6-0.7,1-0.9C996.2,31.2,996.7,31.1,997.2,31.1z"/>
		</g>
	</g>
</g>
<g>
	<g>
		<g>
			<g>
				<g>
					<path class="st4" d="M836,466.1h-14.3c-0.5,0-0.9-0.2-1.2-0.6c-0.3-0.4-0.4-0.9-0.2-1.4l14.4-46.2c0.2-0.6,0.8-1.1,1.5-1.1
						c0.4,0,0.8,0.2,1.1,0.5c0.3,0.3,0.5,0.7,0.5,1.1l-0.1,46.2C837.6,465.4,836.9,466.1,836,466.1z M823.8,463h10.7l0.1-34.8
						L823.8,463z"/>
				</g>
			</g>
		</g>
		<g>
			<g>
				<g>
					<g>
						<path class="st5" d="M796.6,466.1c-0.4,0-0.8-0.2-1.1-0.5c-0.3-0.3-0.5-0.7-0.5-1.1l0.1-46.2c0-0.8,0.7-1.5,1.5-1.5H811
							c0.5,0,0.9,0.2,1.2,0.6c0.3,0.4,0.4,0.9,0.2,1.4L798.1,465C797.9,465.7,797.3,466.1,796.6,466.1z M798.2,419.9l-0.1,34.7
							l10.8-34.7H798.2z"/>
					</g>
				</g>
			</g>
			<g>
				<g>
					<g>
						<g>
							<g>
								<path class="st5" d="M802.9,413.8c-0.1-0.3-0.1-0.6-0.1-0.9c0-0.4,0.1-0.9,0.2-1.3c0.1-0.4,0.3-0.9,0.6-1.5
									c-0.5,0.4-1.1,0.6-1.7,0.8c-0.6,0.2-1.4,0.3-2.2,0.3c-0.8,0-1.5-0.1-2.2-0.4c-0.7-0.3-1.3-0.6-1.8-1.1
									c-0.5-0.5-0.9-1.1-1.2-1.9c-0.3-0.8-0.4-1.6-0.4-2.6c0-1,0.2-1.9,0.5-2.9c0.4-0.9,0.9-1.8,1.6-2.5c0.7-0.7,1.5-1.3,2.6-1.8
									c1-0.4,2.2-0.7,3.5-0.7c1.5,0,3,0.4,3.9,1.1c1,0.7,1.7,1.8,2,2.6c0.1,0.4,0.2,0.7,0.3,1.1c0.1,0.4,0.1,0.8,0.1,1.2
									c0,0.7-0.1,1.3-0.2,1.8c-0.2,0.5-0.3,1-0.6,1.5s-0.5,0.9-0.8,1.3c-0.3,0.4-0.5,0.8-0.8,1.2s-0.4,0.8-0.6,1.2
									c-0.2,0.4-0.2,0.9-0.2,1.4c0,0.4,0.1,0.7,0.2,1c0.1,0.3,0.3,0.7,0.5,1c0,0,0.7,0.7-1.6,0.7
									C803,414.6,802.9,413.8,802.9,413.8z M800.8,409c0.7,0,1.4-0.2,1.9-0.5c0.6-0.3,1-0.7,1.4-1.3c0.4-0.5,0.7-1.1,0.9-1.8
									c0.2-0.6,0.3-1.3,0.3-2c0-1.2-0.3-2.1-0.9-2.7c-0.6-0.6-1.4-0.9-2.5-0.9c-0.7,0-1.4,0.1-1.9,0.4c-0.6,0.3-1,0.7-1.4,1.2
									c-0.4,0.5-0.7,1.1-0.9,1.7c-0.2,0.6-0.3,1.3-0.3,2c0,1.2,0.3,2.1,0.9,2.8S799.7,409,800.8,409z"/>
							</g>
						</g>
					</g>
				</g>
			</g>
		</g>
		<g>
			<g>
				<g>
					<g>
						<g>
							<path class="st4" d="M834.4,413.8c-0.1-0.3-0.1-0.6-0.1-0.9c0-0.4,0.1-0.9,0.2-1.3s0.3-0.9,0.6-1.5c-0.5,0.4-1.1,0.6-1.7,0.8
								c-0.6,0.2-1.4,0.3-2.2,0.3c-0.8,0-1.5-0.1-2.2-0.4c-0.7-0.3-1.3-0.6-1.8-1.1c-0.5-0.5-0.9-1.1-1.2-1.9
								c-0.3-0.8-0.4-1.6-0.4-2.6c0-1,0.2-1.9,0.5-2.9c0.4-0.9,0.9-1.8,1.6-2.5c0.7-0.7,1.5-1.3,2.6-1.8c1-0.4,2.2-0.7,3.5-0.7
								c1.5,0,3,0.4,3.9,1.1c1,0.7,1.7,1.8,2,2.6c0.1,0.4,0.2,0.7,0.3,1.1c0.1,0.4,0.1,0.8,0.1,1.2c0,0.7-0.1,1.3-0.2,1.8
								c-0.2,0.5-0.3,1-0.6,1.5s-0.5,0.9-0.8,1.3c-0.3,0.4-0.5,0.8-0.8,1.2s-0.4,0.8-0.6,1.2c-0.2,0.4-0.2,0.9-0.2,1.4
								c0,0.4,0.1,0.7,0.2,1c0.1,0.3,0.3,0.7,0.5,1c0,0,0.7,0.7-1.6,0.7C834.5,414.6,834.4,413.8,834.4,413.8z M832.2,409
								c0.7,0,1.4-0.2,1.9-0.5c0.6-0.3,1-0.7,1.4-1.3c0.4-0.5,0.7-1.1,0.9-1.8c0.2-0.6,0.3-1.3,0.3-2c0-1.2-0.3-2.1-0.9-2.7
								c-0.6-0.6-1.4-0.9-2.5-0.9c-0.7,0-1.4,0.1-1.9,0.4c-0.6,0.3-1,0.7-1.4,1.2c-0.4,0.5-0.7,1.1-0.9,1.7c-0.2,0.6-0.3,1.3-0.3,2
								c0,1.2,0.3,2.1,0.9,2.8C830.4,408.7,831.2,409,832.2,409z"/>
						</g>
					</g>
				</g>
			</g>
		</g>
	</g>
</g>
<g>
	<g>
		<path class="st0" d="M580.2,44.9c-0.1-0.3-0.4-0.8-0.9-1.1c-0.4-0.3-1-0.5-1.6-0.5c-0.5,0-1,0.1-1.4,0.3c-0.4,0.2-0.8,0.4-1.1,0.7
			c-0.3,0.3-0.5,0.7-0.7,1c-0.1,0.4-0.2,0.8-0.2,1.2c0,0.4,0.1,0.8,0.2,1.1c0.1,0.3,0.3,0.6,0.5,0.8c0.2,0.2,0.5,0.4,0.8,0.5
			c0.6,0.2,1.3,0.2,1.8,0c0,0,0,0,0.1,0c0,0.2-0.1,0.4-0.1,0.5c0,0.1,0,0.3,0,0.4c0,0.1,0.2,0.5,0.9,0.5c0.4,0,0.8,0,0.9-0.3
			c0.1-0.2,0-0.3,0-0.4c-0.1-0.1-0.1-0.2-0.2-0.3c0-0.1-0.1-0.2-0.1-0.3c0-0.2,0-0.3,0.1-0.4c0.1-0.1,0.1-0.3,0.2-0.4
			c0.1-0.1,0.2-0.3,0.3-0.4c0.1-0.2,0.2-0.3,0.3-0.5c0.1-0.2,0.2-0.4,0.2-0.6c0.1-0.2,0.1-0.5,0.1-0.8c0-0.2,0-0.4,0-0.5
			C580.3,45.3,580.3,45.1,580.2,44.9z M578.5,46.6c-0.1,0.2-0.2,0.4-0.3,0.6c-0.1,0.2-0.3,0.3-0.5,0.4c-0.2,0.1-0.4,0.1-0.6,0.1
			c-0.3,0-0.6-0.1-0.7-0.3c-0.2-0.2-0.3-0.5-0.3-0.9c0-0.2,0-0.5,0.1-0.7c0.1-0.2,0.2-0.4,0.3-0.6c0.1-0.2,0.3-0.3,0.5-0.4
			c0.2-0.1,0.4-0.1,0.6-0.1c0.3,0,0.6,0.1,0.8,0.3c0.2,0.2,0.3,0.5,0.3,0.8C578.6,46.2,578.5,46.4,578.5,46.6z"/>
		<path class="st0" d="M585.9,48.5c0.2,0.2,0.5,0.4,0.8,0.5c0.6,0.2,1.3,0.2,1.8,0c0,0,0,0,0.1,0c0,0.2-0.1,0.4-0.1,0.5
			c0,0.1,0,0.3,0,0.4c0,0.1,0.2,0.5,0.9,0.5c0.4,0,0.8,0,0.9-0.3c0.1-0.2,0-0.3,0-0.4c-0.1-0.1-0.1-0.2-0.2-0.3
			c0-0.1-0.1-0.2-0.1-0.3c0-0.2,0-0.3,0.1-0.4c0.1-0.1,0.1-0.3,0.2-0.4c0.1-0.1,0.2-0.3,0.3-0.4c0.1-0.2,0.2-0.3,0.3-0.5
			c0.1-0.2,0.2-0.4,0.2-0.6c0.1-0.2,0.1-0.5,0.1-0.8c0-0.2,0-0.4,0-0.5c0-0.1-0.1-0.3-0.1-0.5c-0.1-0.3-0.4-0.8-0.9-1.1
			c-0.4-0.3-1-0.5-1.6-0.5c-0.5,0-1,0.1-1.4,0.3c-0.4,0.2-0.8,0.4-1.1,0.7c-0.3,0.3-0.5,0.7-0.7,1c-0.1,0.4-0.2,0.8-0.2,1.2
			c0,0.4,0.1,0.8,0.2,1.1C585.5,48,585.7,48.3,585.9,48.5z M589.4,46.6c-0.1,0.2-0.2,0.4-0.3,0.6c-0.1,0.2-0.3,0.3-0.5,0.4
			c-0.2,0.1-0.4,0.1-0.6,0.1c-0.3,0-0.6-0.1-0.7-0.3c-0.2-0.2-0.3-0.5-0.3-0.9c0-0.2,0-0.5,0.1-0.7c0.1-0.2,0.2-0.4,0.3-0.6
			c0.1-0.2,0.3-0.3,0.5-0.4c0.2-0.1,0.4-0.1,0.6-0.1c0.3,0,0.6,0.1,0.8,0.3c0.2,0.2,0.3,0.5,0.3,0.8
			C589.5,46.2,589.4,46.4,589.4,46.6z"/>
		<path class="st0" d="M597.3,40.1c-0.2-0.2-0.4-0.3-0.6-0.3h-13.2v-8.6l1.7,4.4c0.2,0.5,0.7,0.7,1.2,0.5c0.5-0.2,0.7-0.7,0.5-1.2
			l-3.4-8.8c-0.2-0.4-0.6-0.6-1-0.6c-0.4,0.1-0.7,0.4-0.7,0.9v13.4h-13.2c-0.2,0-0.5,0.1-0.6,0.3c-0.2,0.2-0.3,0.4-0.3,0.6l0,29.3
			c0,0.2,0.1,0.5,0.3,0.6c0.2,0.2,0.4,0.3,0.6,0.3h0l13.2,0v8.7l-1.7-4.4c-0.2-0.5-0.7-0.7-1.2-0.5c-0.5,0.2-0.7,0.7-0.5,1.2
			l3.4,8.8c0.1,0.3,0.5,0.6,0.8,0.6c0.1,0,0.1,0,0.2,0c0.4-0.1,0.7-0.4,0.7-0.9V70.9l13.2,0c0.5,0,0.9-0.4,0.9-0.9l0-29.2
			C597.6,40.5,597.5,40.3,597.3,40.1z M585.2,69.1l3.4-10.9l0,10.9H585.2z M595.8,69.1l-5.5,0l0.1-16.7c0-0.2-0.1-0.5-0.3-0.6
			c-0.2-0.2-0.4-0.3-0.6-0.3c-0.4,0-0.7,0.3-0.8,0.6l-5.3,17l-6.6,0l5.1-16.5c0.1-0.3,0-0.6-0.1-0.8c-0.2-0.2-0.4-0.4-0.7-0.4h-5.5
			c-0.5,0-0.9,0.4-0.9,0.9l-0.1,16.8l-5.2,0l0-27.5h26.4L595.8,69.1z M576.4,64.2l0-10.9h3.4L576.4,64.2z"/>
	</g>
</g>
<g>
	<g>
		<path class="st7" d="M1581.6,4c-9.7-3.7-23.4-4-27.2-4c-0.7,0-1.1,0-1.1,0L1470,0H921.8L678.5,0c0,0-27.9,0-43.8,0
			c-15.8,0-36.9,1.1-58,10.7c-21.1,9.6-33.2,27.4-33.2,27.4s-319,381.3-325.7,389.4l-10.5,12.5c0,0-6.1,7.5-5.3,16
			c0.8,8.5,9.6,15.4,17.1,17.2c7.4,1.8,13.6,3.2,31.7,3.2c0.2,0,0.4,0,0.6,0c6.1,0,10.5,0,13.5,0c6.2,0,7.2,0,7.2,0l940.8-0.1
			c0,0,0.4,0,1.2,0c10.8,0,95-0.5,127.2-14.7c34.4-15.2,46.7-41.4,46.7-41.4l49.2-94.2l115.7-227.2h0.2l0-0.3l1.2-2.4l24.7-48.8
			c0,0,3.7-7.2,8.3-16.4c4.6-9.2,4.6-12,4.6-12S1593,8.4,1581.6,4z M678.5,5.5l243.3,0h402.7l-54.3,87.7l-663.9-0.4l67-86.8
			l-0.7-0.5H678.5z M547.7,41.7l0.2-0.2l0.1-0.2c0.1-0.2,11.6-16.7,31-25.5c19.9-9.1,40.2-10.2,55.7-10.2l32.1,0l-67.4,87.3
			L505,92.8L547.7,41.7z M265,471c-3.1,0-7.4,0-13.6,0l-0.5,0c-17.8,0-23.6-1.4-30.4-3.1c-5.8-1.4-12.4-6.7-12.9-12.4
			c-0.6-6,3.8-11.7,4-12l10.4-12.4l100.9-120.6l109.7-0.8l-84.9,113c-0.6,0.8-0.7,1.9-0.3,2.9c0.5,0.9,1.4,1.5,2.5,1.5h386.9
			L708.7,471l-436.5,0C272.2,471,271.2,471,265,471z M1432.3,323.6l-25.5,48.8H571.6l19.5-31h-6.5l-19.5,31h-96.8l17.1-25.2h-6.6
			l-18,26.4c-0.6,0.8-0.6,1.9-0.2,2.8c0.5,0.9,1.4,1.5,2.4,1.5h940.8l-20.9,40l-0.1,0.1l0,0.1c-0.1,0.2-12,24.6-44,38.7
			c-31.3,13.8-115.5,14.2-125,14.2l-1.2,0l-98.6,0l30.2-45.1c0.6-0.8,0.6-1.9,0.1-2.8c-0.5-0.9-1.4-1.5-2.4-1.5h-42.8v5.5h37.6
			l-29.3,43.9l-117.4,0l28.1-43.9h24.1v-5.5h-68.8v5.5h38.2L983.7,471L868,471l28.1-43.9h21.3v-5.5h-68.7v5.5h40.9L861.5,471
			l-146.3,0l28.1-43.9h42.3v-5.5H355.4l84.9-113c0.6-0.8,0.7-2,0.3-2.9c-0.5-0.9-1.4-1.5-2.5-1.5L327.5,305L500.4,98.3l236.7,0.1
			l-78.3,124.7h-94.1c-0.9,0-1.8,0.4-2.3,1.2L542.2,254h6.6l17.2-25.3h89.2L639.4,254l-6.8,10.8h6.5l6.8-10.8l97.6-155.6l803.2,0.5
			L1432.3,323.6z M1586.4,18.4l-0.2-0.2l0.1,0.6c-0.2,0.8-0.9,3.6-4,9.7l-8.3,16.4l-24.5,48.5l-272.8-0.2l54.1-87.4l-0.5-0.3H1470
			l83.3,0h0.1l0.1,0c0,0,0.4,0,1,0c7.6,0,18.3,1,25.3,3.7C1586.4,11.8,1586.5,17.1,1586.4,18.4z"/>
		<polygon class="st7" points="504.2,309.8 510.9,309.8 535.8,273.3 529.1,273.3 		"/>
	</g>
	<polygon class="st7" points="575.6,122.7 458.5,275.4 465.5,275.4 582.6,122.7 	"/>
</g>
<g>
</g>
<g>
</g>
<g>
</g>
<g>
</g>
<g>
</g>
<g>
</g>
</svg>
