<?xml version="1.0" encoding="utf-8"?>
<!-- Generator: Adobe Illustrator 23.0.2, SVG Export Plug-In . SVG Version: 6.00 Build 0)  -->
<svg version="1.1" id="レイヤー_1" xmlns="http://www.w3.org/2000/svg" xmlns:xlink="http://www.w3.org/1999/xlink" x="0px"
	 y="0px" width="213.2px" height="184.3px" viewBox="0 0 213.2 184.3" style="enable-background:new 0 0 213.2 184.3;"
	 xml:space="preserve">
<style type="text/css">
	.st0{fill:#FF4D00;}
	.st1{fill:#53575A;}
</style>
<g>
	<path class="st0" d="M195.1,121.2l-0.3,0.1l-43.9,14.1v34.8l44.2,14l18.1-11.5v-39.2L195.1,121.2z M194.3,136.2l-29,4.8l-11.8-5
		l40.8-13.1V136.2z M195.7,123.2l15.1,10.2l-15.1,2.5V123.2z M165.9,142.3l28.4-4.7v30.9l-28.4-5.2V142.3z M164.6,142.2v21.1
		l-12.3,5.3v-31.6L164.6,142.2z M165.3,164.5l29,5.3v12.8l-41-13L165.3,164.5z M195.7,170.1l14.9,2.7l-14.9,9.5V170.1z M195.7,168.7
		v-31.4l16.2-2.7v37L195.7,168.7z"/>
	<path class="st1" d="M26,145.1V141H7.5c-2.1,0-3.7,1.6-3.7,3.7v6.9c0,2,1.7,3.7,3.7,3.7h12.1l0,6H3.8v4.1h18.7c2,0,3.5-1.7,3.5-3.7
		v-6.9c0-1.9-1.7-3.7-3.7-3.7H10.2v-6H26z"/>
	<path class="st1" d="M49.1,145.1V141H32.2c-2,0-3.8,1.7-3.8,3.7v17c0,2,1.8,3.7,3.8,3.7h16.9v-4.1H34.9v-16.2H49.1z"/>
	<path class="st1" d="M68,157.1h1.4c1.8,0,4-1.9,4-3.9V145c0-2.1-2.1-4-4-4h-18v24.4h6.4v-20.3h9.1v7.9h-7.6v0.8l7.8,11.6h6.4
		L68,157.1z"/>
	<path class="st1" d="M96.7,145.1V141H79.6c-2,0-3.7,1.7-3.7,3.7v17c0,2,1.7,3.7,3.7,3.7h17.1v-4.1H82.4v-6h10.8v-4.1H82.4v-6H96.7z
		"/>
	<path class="st1" d="M119.7,145.1V141h-17.1c-2,0-3.7,1.7-3.7,3.7v17c0,2,1.7,3.7,3.7,3.7h17.1v-4.1h-14.3v-6h10.8v-4.1h-10.8v-6
		H119.7z"/>
	<path class="st1" d="M145.8,141h-6.4v18.6l-8.7-16.6c-0.6-1.1-1.9-2-3.1-2h-5.3v24.4h6.4v-18.6l8.7,16.4c0.7,1.3,2,2.2,3.4,2.2h5.1
		V141z"/>
	<polygon class="st1" points="192.7,126.5 178.5,130.7 169,146 161.6,135.7 155,137.6 164.6,153 155.1,168.3 161.7,170.3 169,159.9 
		178.6,175.2 192.8,179.3 174,153 	"/>
	<path class="st1" d="M47,53.8V21.1H28.1L0,53.8h7.2l-3.4,3.9v11.8h35.9v10.4h13.6V53.8H47z M39.8,57.7H18.5l3.5-3.9h-6.3l17.8-20.4
		v20.4h6.3V57.7z"/>
	<path class="st1" d="M115.6,44.9h-7.4c-0.2-13.2-11.3-23.8-25-23.8H60.6v23.8h7.4v24.6h22.7c13.8,0,25-10.8,25-24.2
		C115.6,45.1,115.6,45,115.6,44.9 M91.7,57.8h-9.6V44.9h-7.4V32.7h9.6c5.4,0,9.7,5.4,9.8,12.2h7.4c0,0.1,0,0.2,0,0.3
		C101.5,52.1,97.1,57.8,91.7,57.8"/>
	<polygon class="st1" points="124.8,55.7 121.7,58.9 177.7,58.9 174.5,55.7 	"/>
	<polygon class="st1" points="140,44.9 131.5,53.8 179.3,53.8 170.8,44.9 	"/>
	<polygon class="st1" points="138.6,37.1 144.1,42.9 179,42.9 184.5,37.1 	"/>
	<polygon class="st1" points="123.7,35.2 148.4,35.2 134.9,21.1 110.2,21.1 	"/>
	<polygon class="st1" points="149.1,35.2 171.7,35.2 185.2,21.1 162.6,21.1 	"/>
	<polygon class="st1" points="119.5,19.2 144.2,19.2 135,9.6 110.3,9.6 	"/>
	<polygon class="st1" points="188.5,0 170.2,19.2 194.9,19.2 213.2,0 	"/>
	<polygon class="st1" points="187.2,60.9 162.5,60.9 170.7,69.5 195.4,69.5 	"/>
	<polygon class="st1" points="99.5,90.9 125.3,90.9 144.3,71 118.4,71 	"/>
	<polygon class="st1" points="160.3,60.9 134.2,60.9 126,69.5 152,69.5 	"/>
	<polygon class="st1" points="173.9,79.9 198.6,79.9 190.1,71 165.5,71 	"/>
	<polygon class="st1" points="101.1,113.6 99.5,113.6 98.2,108.5 98.2,108.5 96.9,113.6 95.3,113.6 93.3,106.1 94.9,106.1 
		96.1,111.2 96.1,111.2 97.4,106.1 99,106.1 100.3,111.3 100.3,111.3 101.5,106.1 103.2,106.1 	"/>
	<rect x="103.9" y="106.1" class="st1" width="1.7" height="7.5"/>
	<polygon class="st1" points="108.7,107.5 106.5,107.5 106.5,106.1 112.7,106.1 112.7,107.5 110.4,107.5 110.4,113.6 108.7,113.6 	
		"/>
	<polygon class="st1" points="113.5,106.1 115.2,106.1 115.2,109 118.2,109 118.2,106.1 119.9,106.1 119.9,113.6 118.2,113.6 
		118.2,110.4 115.2,110.4 115.2,113.6 113.5,113.6 	"/>
	<rect y="109.3" class="st1" width="83.3" height="1.1"/>
	<rect x="129.9" y="109.3" class="st1" width="83.3" height="1.1"/>
</g>
</svg>
