<?xml version="1.0" encoding="utf-8"?>
<!-- Generator: Adobe Illustrator 24.1.0, SVG Export Plug-In . SVG Version: 6.00 Build 0)  -->
<svg version="1.1" id="レイヤー_1" xmlns="http://www.w3.org/2000/svg" xmlns:xlink="http://www.w3.org/1999/xlink" x="0px"
	 y="0px" width="1591.9px" height="476.5px" viewBox="0 0 1591.9 476.5" style="enable-background:new 0 0 1591.9 476.5;"
	 xml:space="preserve">
<style type="text/css">
	.st0{fill:#FFFFFF;}
	.st1{fill:#CCA57E;}
	.st2{fill:#AD0D20;}
	.st3{fill:#182A83;}
	.st4{fill:#7D7D7D;}
	.st5{fill:none;}
	.st6{fill:#9E9D9D;}
</style>
<g>
	<path class="st0" d="M634.7,3.8L631.4,1l-3,3.6c1.8,0,3.7,0,5.6,0L634.7,3.8z"/>
	<path class="st0" d="M1030.3,3.5l-3.7-2.2l-1.9,3.3c1.7,0,3.3,0,5,0L1030.3,3.5z"/>
	<path class="st0" d="M1407,3.6l-3.6-2.3l-2.1,3.4c1.7,0,3.4,0,5.1,0L1407,3.6z"/>
	<g>
		<g>
			<path class="st1" d="M834.6,187.6l-1.3,11l-0.6,2.7c-0.1,0.3-0.2,0.6-0.4,0.7c-0.2,0.2-0.5,0.3-0.8,0.3h-0.9l1.8-14.7l-1.3-0.2
				c-0.2,0-0.3-0.1-0.4-0.2c-0.1-0.1-0.1-0.2-0.1-0.4l0.1-0.9h1.9l0.2-1.3c0.1-0.8,0.3-1.4,0.6-2c0.3-0.6,0.6-1.1,1.1-1.5
				c0.4-0.4,0.9-0.7,1.5-0.9c0.6-0.2,1.2-0.3,1.8-0.3c0.5,0,1,0.1,1.5,0.3l-0.2,1.2c0,0.2-0.2,0.3-0.4,0.3s-0.5,0-0.8,0
				c-0.4,0-0.7,0.1-1,0.2c-0.3,0.1-0.6,0.3-0.9,0.5c-0.2,0.2-0.5,0.6-0.6,1c-0.2,0.4-0.3,0.9-0.4,1.5l-0.1,1.2h3.3l-0.2,1.7H834.6z"
				/>
			<path class="st1" d="M869.4,199.2c-0.7,0-1.4-0.1-2-0.4c-0.6-0.3-1.1-0.6-1.6-1.1c-0.4-0.5-0.8-1.1-1-1.7
				c-0.2-0.7-0.4-1.5-0.4-2.3c0-1.1,0.2-2.2,0.5-3.2c0.4-1,0.8-1.9,1.5-2.6c0.6-0.7,1.3-1.3,2.2-1.8c0.8-0.4,1.7-0.6,2.7-0.6
				c0.7,0,1.4,0.1,2,0.4c0.6,0.3,1.1,0.6,1.6,1.1c0.4,0.5,0.8,1.1,1,1.7s0.4,1.5,0.4,2.3c0,1.1-0.2,2.2-0.5,3.2
				c-0.4,1-0.8,1.9-1.4,2.6c-0.6,0.7-1.3,1.3-2.2,1.8C871.3,199,870.4,199.2,869.4,199.2z M869.7,197.4c0.6,0,1.2-0.2,1.7-0.5
				c0.5-0.4,1-0.8,1.3-1.4s0.7-1.3,0.9-2c0.2-0.8,0.3-1.6,0.3-2.4c0-1.2-0.2-2.2-0.7-2.8c-0.5-0.6-1.2-0.9-2.1-0.9
				c-0.7,0-1.2,0.2-1.8,0.5c-0.5,0.3-1,0.8-1.3,1.4c-0.4,0.6-0.7,1.3-0.9,2c-0.2,0.8-0.3,1.6-0.3,2.4c0,1.2,0.2,2.2,0.7,2.8
				C868,197.1,868.7,197.4,869.7,197.4z"/>
			<path class="st1" d="M909,199.2c-0.7,0-1.4-0.1-2-0.4c-0.6-0.3-1.1-0.6-1.6-1.1c-0.4-0.5-0.8-1.1-1-1.7c-0.2-0.7-0.4-1.5-0.4-2.3
				c0-1.1,0.2-2.2,0.5-3.2c0.4-1,0.8-1.9,1.5-2.6c0.6-0.7,1.3-1.3,2.2-1.8c0.8-0.4,1.7-0.6,2.7-0.6c0.7,0,1.4,0.1,2,0.4
				c0.6,0.3,1.1,0.6,1.6,1.1c0.4,0.5,0.8,1.1,1,1.7c0.2,0.7,0.4,1.5,0.4,2.3c0,1.1-0.2,2.2-0.5,3.2c-0.4,1-0.8,1.9-1.4,2.6
				c-0.6,0.7-1.3,1.3-2.2,1.8C910.8,199,909.9,199.2,909,199.2z M909.2,197.4c0.6,0,1.2-0.2,1.7-0.5c0.5-0.4,1-0.8,1.3-1.4
				c0.4-0.6,0.7-1.3,0.9-2c0.2-0.8,0.3-1.6,0.3-2.4c0-1.2-0.2-2.2-0.7-2.8c-0.5-0.6-1.2-0.9-2.1-0.9c-0.7,0-1.2,0.2-1.8,0.5
				c-0.5,0.3-1,0.8-1.3,1.4c-0.4,0.6-0.7,1.3-0.9,2c-0.2,0.8-0.3,1.6-0.3,2.4c0,1.2,0.2,2.2,0.7,2.8
				C907.6,197.1,908.3,197.4,909.2,197.4z"/>
			<path class="st1" d="M956.4,179.6L954,199h-1.2c-0.3,0-0.5-0.1-0.6-0.2c-0.1-0.2-0.2-0.4-0.2-0.6l0.3-2.8
				c-0.3,0.6-0.7,1.1-1.1,1.6s-0.8,0.9-1.2,1.2c-0.4,0.3-0.9,0.6-1.4,0.8c-0.5,0.2-0.9,0.3-1.4,0.3c-1.1,0-2-0.4-2.7-1.2
				c-0.6-0.8-0.9-2-0.9-3.6c0-0.7,0.1-1.4,0.2-2.2c0.1-0.7,0.4-1.4,0.6-2.1c0.3-0.7,0.6-1.3,1-1.8c0.4-0.6,0.8-1.1,1.3-1.5
				c0.5-0.4,1-0.7,1.6-1c0.6-0.2,1.1-0.4,1.8-0.4c0.7,0,1.3,0.1,1.8,0.4c0.5,0.3,1,0.6,1.4,1.1l0.9-7.4H956.4z M953,188.6
				c-0.3-0.5-0.7-0.8-1.2-1c-0.5-0.2-0.9-0.3-1.4-0.3c-0.7,0-1.3,0.2-1.9,0.6c-0.6,0.4-1,0.9-1.4,1.6s-0.7,1.4-0.9,2.2
				c-0.2,0.8-0.3,1.6-0.3,2.4c0,1,0.2,1.8,0.6,2.4c0.4,0.6,0.9,0.8,1.6,0.8c0.4,0,0.8-0.1,1.3-0.4c0.4-0.3,0.8-0.6,1.2-1.1
				c0.4-0.5,0.8-1,1.1-1.7c0.3-0.6,0.6-1.3,0.9-2.1L953,188.6z"/>
			<path class="st1" d="M998.8,199h-2c-0.2,0-0.3,0-0.5,0c-0.1,0-0.3-0.1-0.4-0.1c-0.1-0.1-0.2-0.1-0.3-0.2
				c-0.1-0.1-0.2-0.2-0.3-0.3l-1.3-1.6c-0.8,0.8-1.8,1.4-2.8,1.8c-1,0.4-2.1,0.7-3.2,0.7c-0.7,0-1.4-0.1-2-0.3
				c-0.6-0.2-1.1-0.5-1.5-0.9c-0.4-0.4-0.8-0.9-1-1.5c-0.2-0.6-0.4-1.2-0.4-1.9c0-0.7,0.1-1.4,0.3-2c0.2-0.6,0.6-1.2,1-1.7
				c0.4-0.5,0.9-1,1.4-1.4c0.5-0.4,1.1-0.7,1.8-1c-0.3-0.6-0.6-1.2-0.8-1.7c-0.2-0.6-0.2-1.1-0.2-1.7c0-0.7,0.1-1.4,0.4-2
				c0.3-0.6,0.6-1.2,1.1-1.7c0.5-0.5,1-0.8,1.7-1.1c0.7-0.3,1.4-0.4,2.2-0.4c0.6,0,1.2,0.1,1.7,0.3c0.5,0.2,0.9,0.5,1.3,0.9
				c0.4,0.4,0.6,0.8,0.8,1.3s0.3,1,0.3,1.6l-1.3,0.3c-0.2,0-0.4,0-0.5,0c-0.1-0.1-0.2-0.2-0.2-0.4c0-0.2-0.1-0.5-0.2-0.7
				s-0.3-0.5-0.4-0.7c-0.2-0.2-0.4-0.4-0.7-0.5c-0.3-0.1-0.6-0.2-0.9-0.2c-0.4,0-0.9,0.1-1.2,0.3c-0.4,0.2-0.7,0.4-0.9,0.7
				c-0.3,0.3-0.5,0.6-0.6,1c-0.1,0.4-0.2,0.8-0.2,1.3c0,1,0.4,2,1.3,3.2l4.2,5.4c0.4-0.6,0.7-1.2,0.9-1.8c0.2-0.6,0.4-1.2,0.5-1.9
				c0-0.2,0.1-0.3,0.2-0.4c0.1-0.1,0.2-0.1,0.4-0.1h1.6c-0.1,1-0.4,2-0.8,3c-0.4,1-0.9,1.9-1.5,2.7L998.8,199z M988.7,189.7
				c-1,0.5-1.8,1.2-2.3,2c-0.5,0.8-0.8,1.6-0.8,2.6c0,0.5,0.1,0.9,0.2,1.3c0.2,0.4,0.4,0.7,0.6,1c0.3,0.3,0.6,0.5,1,0.6
				c0.4,0.1,0.8,0.2,1.2,0.2c0.8,0,1.6-0.2,2.4-0.6c0.7-0.4,1.4-0.9,2-1.5L988.7,189.7z"/>
			<path class="st1" d="M1039.4,179.6L1037,199h-1.2c-0.3,0-0.5-0.1-0.6-0.2c-0.1-0.2-0.2-0.4-0.2-0.6l0.3-2.8
				c-0.3,0.6-0.7,1.1-1.1,1.6s-0.8,0.9-1.2,1.2c-0.4,0.3-0.9,0.6-1.4,0.8c-0.5,0.2-0.9,0.3-1.4,0.3c-1.1,0-2-0.4-2.7-1.2
				c-0.6-0.8-0.9-2-0.9-3.6c0-0.7,0.1-1.4,0.2-2.2c0.1-0.7,0.4-1.4,0.6-2.1c0.3-0.7,0.6-1.3,1-1.8c0.4-0.6,0.8-1.1,1.3-1.5
				c0.5-0.4,1-0.7,1.6-1c0.6-0.2,1.1-0.4,1.8-0.4c0.7,0,1.3,0.1,1.8,0.4c0.5,0.3,1,0.6,1.4,1.1l0.9-7.4H1039.4z M1036,188.6
				c-0.3-0.5-0.7-0.8-1.2-1c-0.5-0.2-0.9-0.3-1.4-0.3c-0.7,0-1.3,0.2-1.9,0.6c-0.6,0.4-1,0.9-1.4,1.6c-0.4,0.7-0.7,1.4-0.9,2.2
				c-0.2,0.8-0.3,1.6-0.3,2.4c0,1,0.2,1.8,0.6,2.4c0.4,0.6,0.9,0.8,1.6,0.8c0.4,0,0.8-0.1,1.3-0.4c0.4-0.3,0.8-0.6,1.2-1.1
				c0.4-0.5,0.8-1,1.1-1.7c0.3-0.6,0.6-1.3,0.9-2.1L1036,188.6z"/>
			<path class="st1" d="M1043.6,189.4c0.4-0.7,0.7-1.4,1.1-1.9c0.4-0.5,0.8-1,1.3-1.3c0.4-0.3,0.9-0.5,1.4-0.6c0.5-0.1,1,0,1.5,0.2
				l-0.4,2.3c-1.1-0.5-2.2-0.3-3,0.5c-0.9,0.8-1.6,2.2-2.1,4.3l-0.7,6.2h-2.3l1.6-13.4h1.2c0.5,0,0.8,0.3,0.8,0.8L1043.6,189.4z"/>
			<path class="st1" d="M1053.1,185.7l-1.6,13.4h-2.3l1.6-13.4H1053.1z M1054,181.5c0,0.2,0,0.4-0.1,0.6c-0.1,0.2-0.2,0.4-0.4,0.5
				c-0.2,0.2-0.3,0.3-0.5,0.4c-0.2,0.1-0.4,0.1-0.6,0.1c-0.2,0-0.4,0-0.6-0.1c-0.2-0.1-0.4-0.2-0.5-0.4c-0.1-0.2-0.3-0.3-0.4-0.5
				c-0.1-0.2-0.1-0.4-0.1-0.6c0-0.2,0-0.4,0.1-0.6c0.1-0.2,0.2-0.4,0.4-0.5c0.1-0.2,0.3-0.3,0.5-0.4c0.2-0.1,0.4-0.1,0.6-0.1
				c0.2,0,0.4,0,0.6,0.1c0.2,0.1,0.4,0.2,0.5,0.4c0.1,0.2,0.3,0.3,0.4,0.5C1053.9,181,1054,181.2,1054,181.5z"/>
			<path class="st1" d="M1058.2,189c0.7-1.2,1.5-2.1,2.4-2.7c0.9-0.6,1.8-0.9,2.8-0.9c0.6,0,1.1,0.1,1.5,0.3c0.4,0.2,0.8,0.6,1,1
				c0.3,0.4,0.5,1,0.5,1.6c0.1,0.6,0.1,1.3,0,2.1l-1,8.5h-2.3l1-8.5c0.1-1.1,0.1-1.8-0.2-2.3c-0.3-0.5-0.7-0.8-1.4-0.8
				c-0.4,0-0.9,0.1-1.3,0.3c-0.4,0.2-0.9,0.6-1.3,1c-0.4,0.4-0.8,0.9-1.1,1.5c-0.3,0.6-0.6,1.3-0.9,2l-0.8,6.8h-2.3l1.6-13.4h1.2
				c0.5,0,0.8,0.3,0.8,0.8L1058.2,189z"/>
			<path class="st1" d="M1073.2,179.6l-1.4,11.4h0.4c0.2,0,0.3,0,0.4-0.1c0.1,0,0.2-0.1,0.4-0.3l4.4-4.5c0.1-0.1,0.3-0.3,0.4-0.3
				c0.1-0.1,0.3-0.1,0.5-0.1h2.1l-5.2,5.2c-0.3,0.3-0.5,0.5-0.8,0.7c0.1,0.1,0.3,0.2,0.4,0.4c0.1,0.1,0.2,0.3,0.3,0.5l4,6.6h-2
				c-0.2,0-0.4,0-0.5-0.1c-0.1-0.1-0.2-0.2-0.3-0.4l-3.4-5.5c-0.1-0.2-0.2-0.3-0.3-0.4c-0.1-0.1-0.3-0.1-0.5-0.1h-0.4l-0.8,6.4h-2.3
				l2.4-19.4H1073.2z"/>
			<path class="st1" d="M1089.4,187.8c-0.1,0.1-0.1,0.2-0.2,0.2c-0.1,0-0.2,0.1-0.3,0.1c-0.1,0-0.3,0-0.4-0.1
				c-0.1-0.1-0.3-0.2-0.5-0.3c-0.2-0.1-0.5-0.2-0.8-0.3c-0.3-0.1-0.7-0.2-1.1-0.2c-0.4,0-0.8,0.1-1.1,0.2c-0.3,0.1-0.6,0.3-0.8,0.5
				s-0.4,0.4-0.5,0.7c-0.1,0.3-0.2,0.5-0.2,0.8c0,0.4,0.1,0.7,0.4,1s0.6,0.5,1,0.6c0.4,0.2,0.9,0.4,1.3,0.5c0.5,0.2,0.9,0.4,1.3,0.6
				c0.4,0.3,0.8,0.6,1,1c0.3,0.4,0.4,0.9,0.4,1.5c0,0.6-0.1,1.2-0.4,1.8c-0.2,0.6-0.6,1.1-1,1.5c-0.5,0.4-1,0.8-1.6,1
				c-0.6,0.3-1.4,0.4-2.1,0.4c-0.9,0-1.6-0.2-2.3-0.5c-0.7-0.3-1.2-0.7-1.6-1.2l0.6-0.9c0.1-0.1,0.2-0.2,0.3-0.3
				c0.1-0.1,0.2-0.1,0.4-0.1c0.1,0,0.3,0.1,0.4,0.2c0.1,0.1,0.3,0.3,0.5,0.4c0.2,0.2,0.5,0.3,0.8,0.4c0.3,0.1,0.7,0.2,1.2,0.2
				c0.4,0,0.8-0.1,1.2-0.2c0.3-0.1,0.6-0.3,0.9-0.5c0.2-0.2,0.4-0.5,0.6-0.8c0.1-0.3,0.2-0.6,0.2-0.9c0-0.4-0.1-0.8-0.4-1.1
				c-0.3-0.3-0.6-0.5-1-0.7c-0.4-0.2-0.9-0.3-1.3-0.5c-0.5-0.2-0.9-0.4-1.3-0.6c-0.4-0.2-0.8-0.6-1-0.9c-0.3-0.4-0.4-0.9-0.4-1.5
				c0-0.6,0.1-1.1,0.3-1.6c0.2-0.5,0.5-1,1-1.4c0.4-0.4,0.9-0.7,1.5-1s1.3-0.4,2-0.4c0.8,0,1.5,0.1,2.1,0.4c0.6,0.3,1.1,0.6,1.6,1.1
				L1089.4,187.8z"/>
		</g>
	</g>
	<g>
		<g>
			<path class="st1" d="M474.1,174.2c-0.2-0.6-0.7-1.3-1.4-1.8c-0.6-0.5-1.6-0.7-2.6-0.7c-0.9,0-1.7,0.2-2.4,0.5
				c-0.7,0.3-1.3,0.7-1.7,1.2c-0.5,0.5-0.8,1.1-1.1,1.7c-0.2,0.6-0.4,1.3-0.4,2c0,0.7,0.1,1.3,0.3,1.8c0.2,0.5,0.5,0.9,0.8,1.3
				c0.4,0.3,0.8,0.6,1.2,0.8c0.5,0.2,1,0.3,1.5,0.3c0.6,0,1-0.1,1.5-0.2c0.4-0.1,0.8-0.3,1.2-0.6c-0.2,0.4-0.3,0.7-0.4,1
				c-0.1,0.3-0.1,0.6-0.1,0.9c0,0.2,0,0.4,0.1,0.6c0,0,0.1,0.5,1.1,0.5c1.6,0,1.1-0.5,1.1-0.5c-0.1-0.2-0.2-0.4-0.3-0.7
				c-0.1-0.2-0.1-0.5-0.1-0.7c0-0.3,0.1-0.7,0.2-0.9c0.1-0.3,0.2-0.6,0.4-0.8c0.2-0.3,0.3-0.5,0.5-0.8c0.2-0.3,0.4-0.6,0.5-0.9
				c0.2-0.3,0.3-0.7,0.4-1c0.1-0.4,0.2-0.8,0.2-1.2c0-0.3,0-0.6-0.1-0.8C474.2,174.7,474.1,174.5,474.1,174.2z M471.9,177.2
				c-0.1,0.4-0.3,0.8-0.6,1.2c-0.3,0.4-0.6,0.6-1,0.9c-0.4,0.2-0.8,0.3-1.3,0.3c-0.7,0-1.3-0.2-1.7-0.7c-0.4-0.4-0.6-1.1-0.6-1.9
				c0-0.5,0.1-0.9,0.2-1.4c0.1-0.4,0.3-0.8,0.6-1.2c0.3-0.3,0.6-0.6,1-0.8c0.4-0.2,0.8-0.3,1.3-0.3c0.7,0,1.3,0.2,1.7,0.6
				c0.4,0.4,0.6,1,0.6,1.8C472.1,176.3,472,176.8,471.9,177.2z"/>
			<path class="st1" d="M495.1,219.7h-12l-12.6-12.6l6.5-20.8c0.1-0.3,0-0.6-0.1-0.9c-0.2-0.3-0.5-0.4-0.8-0.4h-9.8
				c-0.5,0-1,0.4-1,1l0,15.8l-16-16c-0.2-0.2-0.4-0.3-0.7-0.3H436c-0.5,0-1,0.4-1,1c0,0.5,0.4,1,1,1h12l33.9,33.9
				c0.2,0.2,0.4,0.3,0.7,0.3h12.4c0.5,0,1-0.4,1-1C496.1,220.1,495.7,219.7,495.1,219.7z M467.2,187h7.5l-5.8,18.5l-1.7-1.7
				L467.2,187z"/>
		</g>
	</g>
	<g>
		<g>
			<path class="st1" d="M940.3,419.4c-0.1-0.4-0.5-0.9-1-1.3c-0.4-0.3-1.1-0.5-1.9-0.5c-0.6,0-1.2,0.1-1.7,0.3
				c-0.5,0.2-0.9,0.5-1.2,0.8c-0.3,0.4-0.6,0.8-0.7,1.2c-0.2,0.4-0.3,0.9-0.3,1.4c0,0.5,0.1,0.9,0.2,1.3c0.1,0.4,0.3,0.7,0.6,0.9
				c0.3,0.2,0.6,0.4,0.9,0.6c0.7,0.3,1.5,0.2,2.1,0.1c0,0,0.1,0,0.1,0c-0.1,0.2-0.1,0.4-0.1,0.6c0,0.2,0,0.3,0.1,0.5
				c0,0.1,0.2,0.5,1,0.5c0.4,0,0.9,0,1-0.4c0.1-0.2,0-0.4-0.1-0.4c-0.1-0.1-0.1-0.2-0.2-0.4c0-0.1-0.1-0.2-0.1-0.3
				c0-0.2,0-0.4,0.1-0.5c0.1-0.2,0.1-0.3,0.2-0.5c0.1-0.2,0.2-0.3,0.3-0.5c0.1-0.2,0.2-0.4,0.3-0.6c0.1-0.2,0.2-0.5,0.3-0.7
				c0.1-0.3,0.1-0.6,0.1-0.9c0-0.2,0-0.4,0-0.6C940.4,419.8,940.4,419.6,940.3,419.4z M938.3,421.3c-0.1,0.3-0.2,0.5-0.3,0.7
				c-0.1,0.2-0.3,0.3-0.5,0.5c-0.2,0.1-0.4,0.2-0.7,0.2c-0.4,0-0.7-0.1-0.9-0.3c-0.2-0.2-0.3-0.6-0.3-1c0-0.3,0-0.5,0.1-0.8
				c0.1-0.2,0.2-0.5,0.3-0.6c0.1-0.2,0.3-0.3,0.5-0.4c0.2-0.1,0.4-0.2,0.7-0.2c0.4,0,0.7,0.1,0.9,0.3c0.2,0.2,0.3,0.5,0.3,1
				C938.4,420.8,938.4,421.1,938.3,421.3z"/>
			<path class="st1" d="M946.9,423.5c0.3,0.2,0.6,0.4,0.9,0.6c0.7,0.3,1.5,0.2,2.1,0.1c0,0,0.1,0,0.1,0c-0.1,0.2-0.1,0.4-0.1,0.6
				c0,0.2,0,0.3,0.1,0.5c0,0.1,0.2,0.5,1,0.5c0.4,0,0.9,0,1-0.4c0.1-0.2,0-0.4-0.1-0.4c-0.1-0.1-0.1-0.2-0.2-0.4
				c0-0.1-0.1-0.2-0.1-0.3c0-0.2,0-0.4,0.1-0.5c0.1-0.2,0.1-0.3,0.2-0.5c0.1-0.2,0.2-0.3,0.3-0.5c0.1-0.2,0.2-0.4,0.3-0.6
				c0.1-0.2,0.2-0.5,0.3-0.7c0.1-0.3,0.1-0.6,0.1-0.9c0-0.2,0-0.4,0-0.6c0-0.2-0.1-0.3-0.1-0.5c-0.1-0.4-0.5-0.9-1-1.3
				c-0.4-0.3-1.1-0.5-1.9-0.5c-0.6,0-1.2,0.1-1.7,0.3c-0.5,0.2-0.9,0.5-1.2,0.8c-0.3,0.4-0.6,0.8-0.7,1.2c-0.2,0.4-0.3,0.9-0.3,1.4
				c0,0.5,0.1,0.9,0.2,1.3C946.4,422.9,946.6,423.2,946.9,423.5z M950.8,421.3c-0.1,0.2-0.2,0.5-0.3,0.7c-0.1,0.2-0.3,0.3-0.5,0.5
				c-0.2,0.1-0.4,0.2-0.7,0.2c-0.4,0-0.7-0.1-0.9-0.3c-0.2-0.2-0.3-0.6-0.3-1c0-0.3,0-0.5,0.1-0.8c0.1-0.2,0.2-0.5,0.3-0.6
				c0.1-0.2,0.3-0.3,0.5-0.4c0.2-0.1,0.4-0.2,0.7-0.2c0.4,0,0.7,0.1,0.9,0.3c0.2,0.2,0.3,0.5,0.3,1
				C950.9,420.8,950.9,421.1,950.8,421.3z"/>
			<path class="st1" d="M959.9,413.9c-0.2-0.2-0.4-0.3-0.7-0.3h-15.1v-9.9l2,5c0.2,0.5,0.8,0.8,1.3,0.6c0.5-0.2,0.8-0.8,0.6-1.3
				l-3.9-10.1c-0.2-0.5-0.7-0.7-1.1-0.6c-0.5,0.1-0.8,0.5-0.8,1v15.3H927c-0.3,0-0.5,0.1-0.7,0.3c-0.2,0.2-0.3,0.4-0.3,0.7l0,33.5
				c0,0.3,0.1,0.5,0.3,0.7c0.2,0.2,0.4,0.3,0.7,0.3h0l15.1-0.1v9.9l-2-5c-0.2-0.5-0.8-0.8-1.3-0.6c-0.5,0.2-0.8,0.8-0.6,1.3
				l3.9,10.1c0.2,0.4,0.5,0.6,0.9,0.6c0.1,0,0.1,0,0.2,0c0.5-0.1,0.8-0.5,0.8-1v-15.3l15.1-0.1c0.6,0,1-0.5,1-1l0-33.4
				C960.2,414.3,960.1,414.1,959.9,413.9z M946,447l3.9-12.5l0,12.5H946z M958.2,447l-6.3,0l0.1-19.2c0-0.3-0.1-0.5-0.3-0.7
				c-0.2-0.2-0.5-0.3-0.7-0.3c-0.4,0-0.8,0.3-1,0.7l-6.1,19.5l-7.5,0l5.9-18.9c0.1-0.3,0-0.6-0.2-0.9c-0.2-0.3-0.5-0.4-0.8-0.4H935
				c-0.6,0-1,0.5-1,1l-0.1,19.2l-5.9,0l0-31.5h30.2L958.2,447z M936,441.4l0-12.5h3.9L936,441.4z"/>
		</g>
	</g>
	<g>
		<g>
			<path class="st1" d="M819.3,418.9c-0.1-0.4-0.5-0.9-1-1.3c-0.4-0.3-1.1-0.5-1.9-0.5c-0.6,0-1.2,0.1-1.7,0.3
				c-0.5,0.2-0.9,0.5-1.2,0.8c-0.3,0.4-0.6,0.8-0.7,1.2c-0.2,0.4-0.3,0.9-0.3,1.4c0,0.5,0.1,0.9,0.2,1.3c0.1,0.4,0.3,0.7,0.6,0.9
				c0.3,0.2,0.6,0.4,0.9,0.6c0.7,0.3,1.5,0.2,2.1,0.1c0,0,0.1,0,0.1,0c-0.1,0.2-0.1,0.4-0.1,0.6c0,0.2,0,0.3,0.1,0.5
				c0,0.1,0.2,0.5,1,0.5c0.4,0,0.9,0,1-0.4c0.1-0.2,0-0.4-0.1-0.4c-0.1-0.1-0.1-0.2-0.2-0.4c0-0.1-0.1-0.2-0.1-0.3
				c0-0.2,0-0.4,0.1-0.5c0.1-0.2,0.1-0.3,0.2-0.5c0.1-0.2,0.2-0.3,0.3-0.5c0.1-0.2,0.2-0.4,0.3-0.6c0.1-0.2,0.2-0.5,0.3-0.7
				c0.1-0.3,0.1-0.6,0.1-0.9c0-0.2,0-0.4,0-0.6C819.4,419.2,819.4,419.1,819.3,418.9z M817.4,420.8c-0.1,0.3-0.2,0.5-0.3,0.7
				c-0.1,0.2-0.3,0.3-0.5,0.5c-0.2,0.1-0.4,0.2-0.7,0.2c-0.4,0-0.7-0.1-0.9-0.3c-0.2-0.2-0.3-0.6-0.3-1c0-0.3,0-0.5,0.1-0.8
				c0.1-0.2,0.2-0.5,0.3-0.6c0.1-0.2,0.3-0.3,0.5-0.4c0.2-0.1,0.4-0.2,0.7-0.2c0.4,0,0.7,0.1,0.9,0.3c0.2,0.2,0.3,0.5,0.3,1
				C817.5,420.3,817.4,420.6,817.4,420.8z"/>
			<path class="st1" d="M825.9,423c0.3,0.2,0.6,0.4,0.9,0.6c0.7,0.3,1.5,0.2,2.1,0.1c0,0,0.1,0,0.1,0c-0.1,0.2-0.1,0.4-0.1,0.6
				c0,0.2,0,0.3,0.1,0.5c0,0.1,0.2,0.5,1,0.5c0.4,0,0.9,0,1-0.4c0.1-0.2,0-0.4-0.1-0.4c-0.1-0.1-0.1-0.2-0.2-0.4
				c0-0.1-0.1-0.2-0.1-0.3c0-0.2,0-0.4,0.1-0.5c0.1-0.2,0.1-0.3,0.2-0.5c0.1-0.2,0.2-0.3,0.3-0.5c0.1-0.2,0.2-0.4,0.3-0.6
				c0.1-0.2,0.2-0.5,0.3-0.7c0.1-0.3,0.1-0.6,0.1-0.9c0-0.2,0-0.4,0-0.6c0-0.2-0.1-0.3-0.1-0.5c-0.1-0.4-0.5-0.9-1-1.3
				c-0.4-0.3-1.1-0.5-1.9-0.5c-0.6,0-1.2,0.1-1.7,0.3c-0.5,0.2-0.9,0.5-1.2,0.8c-0.3,0.4-0.6,0.8-0.7,1.2c-0.2,0.4-0.3,0.9-0.3,1.4
				c0,0.5,0.1,0.9,0.2,1.3C825.4,422.4,825.6,422.7,825.9,423z M829.8,420.8c-0.1,0.2-0.2,0.5-0.3,0.7c-0.1,0.2-0.3,0.3-0.5,0.5
				c-0.2,0.1-0.4,0.2-0.7,0.2c-0.4,0-0.7-0.1-0.9-0.3c-0.2-0.2-0.3-0.6-0.3-1c0-0.3,0-0.5,0.1-0.8c0.1-0.2,0.2-0.5,0.3-0.6
				c0.1-0.2,0.3-0.3,0.5-0.4c0.2-0.1,0.4-0.2,0.7-0.2c0.4,0,0.7,0.1,0.9,0.3c0.2,0.2,0.3,0.5,0.3,1
				C829.9,420.3,829.9,420.6,829.8,420.8z"/>
			<path class="st1" d="M839,413.4c-0.2-0.2-0.4-0.3-0.7-0.3h-15.1v-9.9l2,5c0.2,0.5,0.8,0.8,1.3,0.6c0.5-0.2,0.8-0.8,0.6-1.3
				l-3.9-10.1c-0.2-0.5-0.7-0.7-1.1-0.6c-0.5,0.1-0.8,0.5-0.8,1v15.3H806c-0.3,0-0.5,0.1-0.7,0.3c-0.2,0.2-0.3,0.4-0.3,0.7l0,33.5
				c0,0.3,0.1,0.5,0.3,0.7c0.2,0.2,0.4,0.3,0.7,0.3h0l15.1-0.1v9.9l-2-5c-0.2-0.5-0.8-0.8-1.3-0.6c-0.5,0.2-0.8,0.8-0.6,1.3
				l3.9,10.1c0.2,0.4,0.5,0.6,0.9,0.6c0.1,0,0.1,0,0.2,0c0.5-0.1,0.8-0.5,0.8-1v-15.3l15.1-0.1c0.6,0,1-0.5,1-1l0-33.4
				C839.3,413.8,839.2,413.6,839,413.4z M825.1,446.5L829,434l0,12.5H825.1z M837.2,446.5l-6.3,0l0.1-19.2c0-0.3-0.1-0.5-0.3-0.7
				c-0.2-0.2-0.5-0.3-0.7-0.3c-0.4,0-0.8,0.3-1,0.7l-6.1,19.5l-7.5,0l5.9-18.9c0.1-0.3,0-0.6-0.2-0.9c-0.2-0.3-0.5-0.4-0.8-0.4H814
				c-0.6,0-1,0.5-1,1l-0.1,19.2l-5.9,0l0-31.5h30.2L837.2,446.5z M815,440.9l0-12.5h3.9L815,440.9z"/>
		</g>
	</g>
	<g>
		<g>
			<path class="st1" d="M1061.3,419.4c-0.1-0.4-0.5-0.9-1-1.3c-0.4-0.3-1.1-0.5-1.9-0.5c-0.6,0-1.2,0.1-1.7,0.3
				c-0.5,0.2-0.9,0.5-1.2,0.8c-0.3,0.4-0.6,0.8-0.7,1.2c-0.2,0.4-0.3,0.9-0.3,1.4c0,0.5,0.1,0.9,0.2,1.3c0.1,0.4,0.3,0.7,0.6,0.9
				c0.3,0.2,0.6,0.4,0.9,0.6c0.7,0.3,1.5,0.2,2.1,0.1c0,0,0.1,0,0.1,0c-0.1,0.2-0.1,0.4-0.1,0.6c0,0.2,0,0.3,0.1,0.5
				c0,0.1,0.2,0.5,1,0.5c0.4,0,0.9,0,1-0.4c0.1-0.2,0-0.4-0.1-0.4c-0.1-0.1-0.1-0.2-0.2-0.4c0-0.1-0.1-0.2-0.1-0.3
				c0-0.2,0-0.4,0.1-0.5c0.1-0.2,0.1-0.3,0.2-0.5c0.1-0.2,0.2-0.3,0.3-0.5c0.1-0.2,0.2-0.4,0.3-0.6c0.1-0.2,0.2-0.5,0.3-0.7
				c0.1-0.3,0.1-0.6,0.1-0.9c0-0.2,0-0.4,0-0.6C1061.4,419.8,1061.3,419.6,1061.3,419.4z M1059.3,421.3c-0.1,0.3-0.2,0.5-0.3,0.7
				c-0.1,0.2-0.3,0.3-0.5,0.5c-0.2,0.1-0.4,0.2-0.7,0.2c-0.4,0-0.7-0.1-0.9-0.3c-0.2-0.2-0.3-0.6-0.3-1c0-0.3,0-0.5,0.1-0.8
				c0.1-0.2,0.2-0.5,0.3-0.6c0.1-0.2,0.3-0.3,0.5-0.4c0.2-0.1,0.4-0.2,0.7-0.2c0.4,0,0.7,0.1,0.9,0.3c0.2,0.2,0.3,0.5,0.3,1
				C1059.4,420.8,1059.4,421.1,1059.3,421.3z"/>
			<path class="st1" d="M1067.8,423.5c0.3,0.2,0.6,0.4,0.9,0.6c0.7,0.3,1.5,0.2,2.1,0.1c0,0,0.1,0,0.1,0c-0.1,0.2-0.1,0.4-0.1,0.6
				c0,0.2,0,0.3,0.1,0.5c0,0.1,0.2,0.5,1,0.5c0.4,0,0.9,0,1-0.4c0.1-0.2,0-0.4-0.1-0.4c-0.1-0.1-0.1-0.2-0.2-0.4
				c0-0.1-0.1-0.2-0.1-0.3c0-0.2,0-0.4,0.1-0.5c0.1-0.2,0.1-0.3,0.2-0.5c0.1-0.2,0.2-0.3,0.3-0.5c0.1-0.2,0.2-0.4,0.3-0.6
				c0.1-0.2,0.2-0.5,0.3-0.7c0.1-0.3,0.1-0.6,0.1-0.9c0-0.2,0-0.4,0-0.6c0-0.2-0.1-0.3-0.1-0.5c-0.1-0.4-0.5-0.9-1-1.3
				c-0.4-0.3-1.1-0.5-1.9-0.5c-0.6,0-1.2,0.1-1.7,0.3c-0.5,0.2-0.9,0.5-1.2,0.8c-0.3,0.4-0.6,0.8-0.7,1.2c-0.2,0.4-0.3,0.9-0.3,1.4
				c0,0.5,0.1,0.9,0.2,1.3C1067.4,422.9,1067.6,423.2,1067.8,423.5z M1071.8,421.3c-0.1,0.2-0.2,0.5-0.3,0.7
				c-0.1,0.2-0.3,0.3-0.5,0.5c-0.2,0.1-0.4,0.2-0.7,0.2c-0.4,0-0.7-0.1-0.9-0.3c-0.2-0.2-0.3-0.6-0.3-1c0-0.3,0-0.5,0.1-0.8
				c0.1-0.2,0.2-0.5,0.3-0.6c0.1-0.2,0.3-0.3,0.5-0.4c0.2-0.1,0.4-0.2,0.7-0.2c0.4,0,0.7,0.1,0.9,0.3c0.2,0.2,0.3,0.5,0.3,1
				C1071.9,420.8,1071.8,421.1,1071.8,421.3z"/>
			<path class="st1" d="M1080.9,413.9c-0.2-0.2-0.4-0.3-0.7-0.3h-15.1v-9.9l2,5c0.2,0.5,0.8,0.8,1.3,0.6c0.5-0.2,0.8-0.8,0.6-1.3
				l-3.9-10.1c-0.2-0.5-0.7-0.7-1.1-0.6c-0.5,0.1-0.8,0.5-0.8,1v15.3h-15.1c-0.3,0-0.5,0.1-0.7,0.3c-0.2,0.2-0.3,0.4-0.3,0.7l0,33.5
				c0,0.3,0.1,0.5,0.3,0.7c0.2,0.2,0.4,0.3,0.7,0.3h0l15.1-0.1v9.9l-2-5c-0.2-0.5-0.8-0.8-1.3-0.6c-0.5,0.2-0.8,0.8-0.6,1.3
				l3.9,10.1c0.2,0.4,0.5,0.6,0.9,0.6c0.1,0,0.1,0,0.2,0c0.5-0.1,0.8-0.5,0.8-1v-15.3l15.1-0.1c0.6,0,1-0.5,1-1l0-33.4
				C1081.2,414.3,1081.1,414.1,1080.9,413.9z M1067,447l3.9-12.5l0,12.5H1067z M1079.2,447l-6.3,0l0.1-19.2c0-0.3-0.1-0.5-0.3-0.7
				c-0.2-0.2-0.5-0.3-0.7-0.3c-0.4,0-0.8,0.3-1,0.7l-6.1,19.5l-7.5,0l5.9-18.9c0.1-0.3,0-0.6-0.2-0.9c-0.2-0.3-0.5-0.4-0.8-0.4h-6.3
				c-0.6,0-1,0.5-1,1l-0.1,19.2l-5.9,0l0-31.5h30.2L1079.2,447z M1056.9,441.4l0-12.5h3.9L1056.9,441.4z"/>
		</g>
	</g>
	<g>
		<path class="st1" d="M810.9,23.6l-14,113.6h-5.3L804,35.9c0.1-0.9,0.3-1.8,0.5-2.7c0.2-0.9,0.4-1.8,0.6-2.8l-35.3,24.5
			c-1.3,0.8-2.4,0.7-3.1-0.3l-1.4-2.2l41.7-28.7H810.9z"/>
	</g>
	<g>
		<path class="st1" d="M1192.2,132.4c1.6,0,2.3,0.7,2.1,2.2l-0.3,2.6h-84.6l0.4-3.2l50.7-37c4.7-3.4,8.9-6.8,12.6-10.2
			c3.7-3.4,6.9-6.9,9.4-10.4c2.6-3.6,4.6-7.3,6-11.2c1.4-3.9,2.1-8.1,2.1-12.5c0-3.6-0.6-6.9-1.7-10c-1.2-3-2.8-5.6-5-7.8
			c-2.2-2.2-4.7-3.8-7.7-5.1c-3-1.2-6.4-1.8-10.1-1.8c-5,0-9.5,0.8-13.5,2.5s-7.4,3.9-10.4,6.6s-5.5,5.8-7.6,9.3
			c-2.1,3.5-3.7,7-4.9,10.6c-0.3,0.8-0.7,1.3-1,1.5s-0.7,0.3-1.1,0.3c-0.3,0-0.6-0.1-1-0.3l-2.2-0.4c1.3-4.4,3.1-8.6,5.4-12.8
			c2.4-4.1,5.3-7.8,8.9-11c3.6-3.2,7.7-5.8,12.3-7.7c4.7-1.9,9.9-2.9,15.8-2.9c4.4,0,8.3,0.7,11.9,2c3.6,1.4,6.6,3.3,9.1,5.8
			c2.5,2.5,4.4,5.5,5.7,9c1.3,3.5,2,7.3,2,11.6c0,4.8-0.8,9.3-2.3,13.6c-1.5,4.2-3.7,8.3-6.5,12.3c-2.8,3.9-6.1,7.7-10,11.3
			c-3.9,3.6-8.2,7.1-12.9,10.5l-46.7,33.7c1.8-0.3,3.8-0.6,5.8-0.8c2.1-0.2,4.2-0.3,6.4-0.3H1192.2z"/>
	</g>
	<g>
		<g>
			<g>
				<g>
					<g>
						<path class="st2" d="M1410.9,180.2h-14.1c-0.5,0-0.9-0.2-1.2-0.6c-0.3-0.4-0.4-0.9-0.2-1.3l14.2-45.5c0.2-0.6,0.8-1.1,1.4-1.1
							c0.4,0,0.8,0.2,1.1,0.4c0.3,0.3,0.5,0.7,0.5,1.1l-0.1,45.5C1412.4,179.5,1411.7,180.2,1410.9,180.2z M1398.9,177.2h10.5
							l0.1-34.2L1398.9,177.2z"/>
					</g>
				</g>
			</g>
			<g>
				<g>
					<g>
						<g>
							<path class="st3" d="M1372.2,180.2c-0.4,0-0.8-0.2-1.1-0.4c-0.3-0.3-0.5-0.7-0.5-1.1l0.1-45.5c0-0.8,0.7-1.5,1.5-1.5h14.1
								c0.5,0,0.9,0.2,1.2,0.6c0.3,0.4,0.4,0.9,0.2,1.3l-14.2,45.5C1373.4,179.7,1372.8,180.2,1372.2,180.2z M1373.7,134.7
								l-0.1,34.1l10.6-34.1H1373.7z"/>
						</g>
					</g>
				</g>
				<g>
					<g>
						<g>
							<g>
								<g>
									<path class="st3" d="M1378.4,128.8c-0.1-0.3-0.1-0.6-0.1-0.9c0-0.4,0.1-0.8,0.2-1.3c0.1-0.4,0.3-0.9,0.6-1.5
										c-0.5,0.3-1.1,0.6-1.7,0.8c-0.6,0.2-1.3,0.3-2.1,0.3c-0.8,0-1.5-0.1-2.2-0.4c-0.7-0.3-1.3-0.6-1.8-1.1
										c-0.5-0.5-0.9-1.1-1.2-1.8c-0.3-0.7-0.4-1.6-0.4-2.6c0-1,0.2-1.9,0.5-2.8c0.4-0.9,0.9-1.7,1.5-2.5c0.7-0.7,1.5-1.3,2.5-1.7
										c1-0.4,2.1-0.7,3.4-0.7c1.5,0,2.9,0.4,3.8,1c1,0.7,1.7,1.8,2,2.6c0.1,0.4,0.2,0.7,0.3,1.1c0.1,0.4,0.1,0.8,0.1,1.2
										c0,0.7-0.1,1.3-0.2,1.8c-0.2,0.5-0.3,1-0.6,1.5c-0.2,0.5-0.5,0.9-0.7,1.3c-0.3,0.4-0.5,0.8-0.7,1.2
										c-0.2,0.4-0.4,0.8-0.6,1.2c-0.2,0.4-0.2,0.9-0.2,1.4c0,0.4,0.1,0.7,0.2,1c0.1,0.3,0.3,0.6,0.5,1c0,0,0.7,0.7-1.6,0.7
										C1378.5,129.5,1378.4,128.8,1378.4,128.8z M1376.2,124c0.7,0,1.4-0.2,1.9-0.5c0.6-0.3,1-0.7,1.4-1.2
										c0.4-0.5,0.7-1.1,0.9-1.7c0.2-0.6,0.3-1.3,0.3-1.9c0-1.2-0.3-2.1-0.9-2.7c-0.6-0.6-1.4-0.9-2.4-0.9c-0.7,0-1.4,0.1-1.9,0.4
										c-0.5,0.3-1,0.7-1.4,1.2c-0.4,0.5-0.7,1-0.9,1.7c-0.2,0.6-0.3,1.3-0.3,2c0,1.2,0.3,2.1,0.9,2.7
										C1374.4,123.7,1375.2,124,1376.2,124z"/>
								</g>
							</g>
						</g>
					</g>
				</g>
			</g>
			<g>
				<g>
					<g>
						<g>
							<g>
								<path class="st2" d="M1409.3,128.8c-0.1-0.3-0.1-0.6-0.1-0.9c0-0.4,0.1-0.8,0.2-1.3c0.1-0.4,0.3-0.9,0.6-1.5
									c-0.5,0.3-1.1,0.6-1.7,0.8c-0.6,0.2-1.3,0.3-2.1,0.3c-0.8,0-1.5-0.1-2.2-0.4c-0.7-0.3-1.3-0.6-1.8-1.1
									c-0.5-0.5-0.9-1.1-1.2-1.8c-0.3-0.7-0.4-1.6-0.4-2.6c0-1,0.2-1.9,0.5-2.8c0.4-0.9,0.9-1.7,1.5-2.5c0.7-0.7,1.5-1.3,2.5-1.7
									c1-0.4,2.1-0.7,3.4-0.7c1.5,0,2.9,0.4,3.8,1c1,0.7,1.7,1.8,2,2.6c0.1,0.4,0.2,0.7,0.3,1.1c0.1,0.4,0.1,0.8,0.1,1.2
									c0,0.7-0.1,1.3-0.2,1.8c-0.2,0.5-0.3,1-0.6,1.5c-0.2,0.5-0.5,0.9-0.7,1.3c-0.3,0.4-0.5,0.8-0.7,1.2
									c-0.2,0.4-0.4,0.8-0.6,1.2c-0.2,0.4-0.2,0.9-0.2,1.4c0,0.4,0.1,0.7,0.2,1c0.1,0.3,0.3,0.6,0.5,1c0,0,0.7,0.7-1.6,0.7
									C1409.4,129.5,1409.3,128.8,1409.3,128.8z M1407.2,124c0.7,0,1.4-0.2,1.9-0.5c0.6-0.3,1-0.7,1.4-1.2
									c0.4-0.5,0.7-1.1,0.9-1.7c0.2-0.6,0.3-1.3,0.3-1.9c0-1.2-0.3-2.1-0.9-2.7c-0.6-0.6-1.4-0.9-2.4-0.9c-0.7,0-1.4,0.1-1.9,0.4
									s-1,0.7-1.4,1.2c-0.4,0.5-0.7,1-0.9,1.7c-0.2,0.6-0.3,1.3-0.3,2c0,1.2,0.3,2.1,0.9,2.7S1406.1,124,1407.2,124z"/>
							</g>
						</g>
					</g>
				</g>
			</g>
			<g>
				<path class="st4" d="M1457.7,155.9c-0.6-0.4-1.5-0.2-1.9,0.4c-0.4,0.6-0.2,1.5,0.4,1.9c3,2,4.8,5.4,4.8,9
					c0,6-4.8,10.8-10.8,10.8c-4.8,0-8.9-3-10.3-7.6c-0.2-0.7-1-1.1-1.7-0.9c-0.7,0.2-1.1,1-0.9,1.7c1.8,5.7,7,9.5,13,9.5
					c7.5,0,13.6-6.1,13.6-13.6C1463.8,162.6,1461.5,158.4,1457.7,155.9z"/>
				<path class="st4" d="M1446.5,163.8c0.1,0,0.2,0,0.3,0c0,0,0.1,0,0.1,0c0.1,0,0.1,0,0.2,0c0,0,0.1,0,0.1,0c0.1,0,0.1,0,0.1-0.1
					c0,0,0,0,0.1,0c0.1-0.1,0.2-0.2,0.3-0.3c0,0,0,0,0-0.1c0,0,0.1-0.1,0.1-0.1c0,0,0-0.1,0-0.1c0,0,0,0,0-0.1l6.1-19.6
					c0.1-0.4,0.1-0.9-0.2-1.2s-0.7-0.6-1.1-0.6h-10.1c-0.8,0-1.4,0.6-1.4,1.4l-0.1,12.3c0,0.8,0.6,1.4,1.4,1.4c0,0,0,0,0,0
					c0.8,0,1.4-0.6,1.4-1.4l0.1-10.9h6.9l-5.3,16.9h-12.3c-0.6,0-1.1,0.4-1.3,1l-4.7,15.1c-0.2,0.7,0.2,1.5,0.9,1.7
					c0.1,0,0.3,0.1,0.4,0.1c0.6,0,1.1-0.4,1.3-1l4.4-14.1L1446.5,163.8C1446.5,163.8,1446.5,163.8,1446.5,163.8z"/>
				<path class="st4" d="M1441.2,135.1c0.4,0.4,0.9,0.7,1.5,0.9c0.6,0.2,1.2,0.3,1.8,0.3c0.7,0,1.3-0.1,1.8-0.2
					c0.3-0.1,0.5-0.2,0.8-0.3c-0.1,0.2-0.1,0.4-0.2,0.5c-0.1,0.4-0.2,0.7-0.2,1.1c0,0.3,0,0.5,0.1,0.8c0,0.1,0.2,0.8,1.4,0.8
					c0.9,0,1.4-0.1,1.6-0.5c0.1-0.2,0-0.4-0.1-0.5c-0.1-0.2-0.3-0.5-0.4-0.7c-0.1-0.2-0.1-0.5-0.1-0.7c0-0.4,0.1-0.7,0.2-1
					c0.1-0.3,0.3-0.6,0.4-0.9c0.2-0.3,0.4-0.6,0.6-0.9c0.2-0.3,0.4-0.7,0.6-1c0.2-0.4,0.3-0.8,0.5-1.2c0.1-0.4,0.2-0.9,0.2-1.5
					c0-0.4,0-0.7-0.1-1c0-0.3-0.1-0.6-0.2-0.9c-0.2-0.6-0.8-1.5-1.7-2.2c-0.7-0.5-1.9-0.9-3.2-0.9c-1.1,0-2,0.2-2.9,0.5
					c-0.8,0.4-1.5,0.9-2.1,1.5c-0.6,0.6-1,1.3-1.3,2.1c-0.3,0.8-0.4,1.5-0.4,2.3c0,0.8,0.1,1.5,0.4,2.2
					C1440.4,134.2,1440.7,134.7,1441.2,135.1z M1446.1,127.5c0.8,0,1.4,0.2,1.8,0.6c0.4,0.4,0.6,1.1,0.6,2c0,0.5-0.1,1-0.2,1.5
					c-0.2,0.5-0.4,0.9-0.7,1.3c-0.3,0.4-0.6,0.7-1,0.9c-0.4,0.2-0.9,0.3-1.4,0.3c-0.8,0-1.3-0.2-1.8-0.7c-0.4-0.5-0.6-1.1-0.6-2
					c0-0.5,0.1-1,0.2-1.5c0.1-0.5,0.4-0.9,0.6-1.3c0.3-0.4,0.6-0.7,1-0.9C1445.1,127.6,1445.6,127.5,1446.1,127.5z"/>
			</g>
		</g>
	</g>
	<g>
		<g>
			<path class="st1" d="M401.7,440.4c-0.5,0.4-1,0.7-1.4,0.9c-0.5,0.2-1,0.4-1.5,0.5c-0.5,0.1-1.1,0.1-1.7,0.1
				c-0.9,0-1.7-0.2-2.4-0.5c-0.7-0.3-1.3-0.7-1.7-1.3c-0.5-0.6-0.8-1.2-1.1-2c-0.2-0.8-0.4-1.7-0.4-2.6c0-1.3,0.2-2.5,0.6-3.6
				s0.9-2.2,1.7-3.1c0.7-0.9,1.6-1.6,2.5-2.1c1-0.5,2.1-0.8,3.2-0.8c1,0,1.9,0.2,2.6,0.5c0.7,0.4,1.3,0.9,1.8,1.6l-0.9,1
				c-0.1,0.1-0.2,0.1-0.2,0.2c-0.1,0.1-0.2,0.1-0.3,0.1c-0.1,0-0.3-0.1-0.4-0.2c-0.1-0.1-0.3-0.3-0.5-0.4c-0.2-0.2-0.5-0.3-0.8-0.4
				c-0.3-0.1-0.8-0.2-1.3-0.2c-0.7,0-1.4,0.2-2,0.6c-0.6,0.4-1.2,0.9-1.6,1.6c-0.5,0.7-0.8,1.5-1.1,2.4c-0.3,0.9-0.4,1.9-0.4,2.9
				c0,0.6,0.1,1.2,0.2,1.7c0.1,0.5,0.4,1,0.6,1.3c0.3,0.4,0.6,0.6,1.1,0.8c0.4,0.2,0.9,0.3,1.5,0.3c0.7,0,1.3-0.1,1.7-0.3
				c0.5-0.2,0.9-0.4,1.2-0.7c0.3-0.2,0.6-0.5,0.8-0.7c0.2-0.2,0.4-0.3,0.7-0.3c0.2,0,0.4,0.1,0.5,0.3l0.7,0.8
				C402.7,439.5,402.2,440,401.7,440.4z"/>
			<path class="st1" d="M440.4,426.2l-1.9,15.6h-2.7l1.9-15.6H440.4z M441.5,421.3c0,0.3-0.1,0.5-0.2,0.7c-0.1,0.2-0.3,0.4-0.4,0.6
				c-0.2,0.2-0.4,0.3-0.6,0.4c-0.2,0.1-0.5,0.2-0.7,0.2c-0.2,0-0.5-0.1-0.7-0.2c-0.2-0.1-0.4-0.2-0.6-0.4c-0.2-0.2-0.3-0.4-0.4-0.6
				c-0.1-0.2-0.2-0.5-0.2-0.7c0-0.3,0.1-0.5,0.2-0.8c0.1-0.2,0.2-0.4,0.4-0.6c0.2-0.2,0.4-0.3,0.6-0.4c0.2-0.1,0.5-0.2,0.7-0.2
				c0.2,0,0.5,0.1,0.7,0.2c0.2,0.1,0.4,0.2,0.6,0.4c0.2,0.2,0.3,0.4,0.4,0.6C441.4,420.7,441.5,421,441.5,421.3z"/>
			<path class="st1" d="M476.9,430.1c0.8-1.4,1.8-2.4,2.8-3.1s2.1-1.1,3.2-1.1c0.7,0,1.2,0.1,1.7,0.4c0.5,0.3,0.9,0.6,1.2,1.1
				c0.3,0.5,0.5,1.1,0.6,1.9c0.1,0.7,0.1,1.6,0,2.5l-1.2,9.9h-2.7l1.2-9.9c0.1-1.2,0.1-2.1-0.2-2.7c-0.3-0.6-0.8-0.9-1.6-0.9
				c-0.5,0-1,0.1-1.5,0.4c-0.5,0.3-1,0.6-1.5,1.1c-0.5,0.5-0.9,1.1-1.3,1.8c-0.4,0.7-0.8,1.5-1,2.3l-0.9,7.9H473l1.9-15.6h1.4
				c0.6,0,0.9,0.3,0.9,0.9L476.9,430.1z"/>
			<path class="st1" d="M531.8,438.9c-0.5,0.5-1,1-1.5,1.4c-0.5,0.4-1,0.7-1.5,1c-0.5,0.3-1.1,0.4-1.6,0.6c-0.6,0.1-1.2,0.2-1.8,0.2
				c-0.9,0-1.7-0.1-2.4-0.4c-0.7-0.3-1.3-0.7-1.8-1.3c-0.5-0.5-0.9-1.2-1.1-2c-0.3-0.8-0.4-1.7-0.4-2.6c0-0.8,0.1-1.6,0.3-2.4
				c0.2-0.8,0.4-1.6,0.7-2.3c0.3-0.7,0.7-1.4,1.2-2c0.5-0.6,1-1.1,1.6-1.6c0.6-0.4,1.3-0.8,2-1.1c0.7-0.3,1.5-0.4,2.3-0.4
				c0.8,0,1.5,0.1,2,0.3c0.6,0.2,1,0.5,1.4,0.9s0.6,0.7,0.8,1.2c0.2,0.4,0.3,0.8,0.3,1.2c0,0.7-0.1,1.3-0.4,1.9
				c-0.3,0.6-0.8,1.1-1.5,1.5c-0.7,0.5-1.8,0.9-3,1.2c-1.3,0.3-3,0.6-5,0.8c0,0.1,0,0.2,0,0.3c0,0.1,0,0.2,0,0.3
				c0,1.4,0.3,2.4,0.9,3.1c0.6,0.7,1.5,1.1,2.7,1.1c0.5,0,0.9-0.1,1.3-0.2c0.4-0.1,0.7-0.2,1-0.4c0.3-0.1,0.6-0.3,0.8-0.5
				c0.2-0.2,0.4-0.3,0.6-0.5c0.2-0.1,0.4-0.3,0.5-0.4c0.2-0.1,0.3-0.2,0.5-0.2c0.2,0,0.4,0.1,0.5,0.3L531.8,438.9z M527.4,427.9
				c-0.6,0-1.2,0.1-1.8,0.4c-0.5,0.3-1,0.6-1.4,1.1c-0.4,0.5-0.8,1-1.1,1.6c-0.3,0.6-0.5,1.3-0.7,2c1.6-0.2,2.8-0.4,3.8-0.7
				c1-0.3,1.7-0.5,2.2-0.8c0.5-0.3,0.9-0.6,1-0.9c0.2-0.3,0.2-0.7,0.2-1.1c0-0.2,0-0.4-0.1-0.6c-0.1-0.2-0.2-0.4-0.4-0.5
				c-0.2-0.2-0.4-0.3-0.7-0.4C528.2,428,527.8,427.9,527.4,427.9z"/>
			<path class="st1" d="M564.4,441.8l1.9-15.6h1.4c0.6,0,0.9,0.3,0.9,0.9l-0.2,2.8c0.8-1.3,1.6-2.3,2.5-2.9c0.9-0.7,1.9-1,2.9-1
				c1.1,0,1.8,0.4,2.3,1.1c0.5,0.7,0.8,1.8,0.8,3.1c0.8-1.4,1.6-2.5,2.6-3.2c1-0.7,2-1,3.1-1c1.3,0,2.3,0.5,2.8,1.5
				c0.6,1,0.7,2.5,0.5,4.4l-1.2,9.9H582l1.2-9.9c0.1-1.2,0.1-2.1-0.1-2.7c-0.2-0.6-0.7-0.9-1.5-0.9c-0.4,0-0.9,0.1-1.3,0.3
				c-0.4,0.2-0.9,0.5-1.3,1c-0.4,0.4-0.8,1-1.1,1.6c-0.4,0.6-0.7,1.4-0.9,2.2v0l-1,8.5h-2.7l1.2-9.9c0.2-1.2,0.1-2.1-0.1-2.7
				c-0.2-0.6-0.7-0.9-1.4-0.9c-0.5,0-1,0.1-1.4,0.4c-0.5,0.2-0.9,0.6-1.3,1.1c-0.4,0.5-0.8,1-1.1,1.7c-0.3,0.7-0.7,1.4-1,2.3l-1,8.1
				H564.4z"/>
			<path class="st1" d="M628.5,437.6c-0.4,0.7-0.8,1.3-1.2,1.8s-0.9,1-1.4,1.4c-0.5,0.4-1,0.7-1.5,0.9c-0.5,0.2-1.1,0.3-1.6,0.3
				c-0.6,0-1.2-0.1-1.7-0.4c-0.5-0.2-0.9-0.6-1.3-1.1c-0.4-0.5-0.6-1-0.8-1.7c-0.2-0.7-0.3-1.5-0.3-2.3c0-0.9,0.1-1.8,0.3-2.7
				c0.2-0.9,0.6-1.7,1-2.5c0.4-0.8,0.9-1.5,1.5-2.1c0.6-0.7,1.3-1.2,2-1.7c0.7-0.5,1.5-0.8,2.4-1.1c0.8-0.3,1.7-0.4,2.6-0.4
				c0.7,0,1.3,0.1,1.9,0.2c0.6,0.1,1.3,0.3,1.9,0.6l-1.9,15.1h-1.4c-0.4,0-0.6-0.1-0.7-0.3c-0.1-0.2-0.2-0.4-0.2-0.7L628.5,437.6z
				 M629.5,428.1c-0.2-0.1-0.4-0.1-0.7-0.1c-0.2,0-0.4,0-0.7,0c-0.6,0-1.2,0.1-1.8,0.3c-0.6,0.2-1.1,0.5-1.6,0.8
				c-0.5,0.4-1,0.8-1.4,1.3c-0.4,0.5-0.8,1-1.1,1.6c-0.3,0.6-0.5,1.2-0.7,1.9c-0.2,0.7-0.2,1.4-0.2,2.1c0,2.5,0.8,3.7,2.4,3.7
				c0.5,0,1-0.2,1.5-0.5c0.5-0.3,0.9-0.7,1.4-1.3c0.4-0.6,0.8-1.2,1.2-2s0.7-1.6,1-2.5L629.5,428.1z"/>
			<path class="st1" d="M674.8,428.7c-0.1,0.1-0.2,0.2-0.2,0.3c-0.1,0.1-0.2,0.1-0.3,0.1c-0.1,0-0.3-0.1-0.5-0.2
				c-0.2-0.1-0.4-0.2-0.6-0.4c-0.2-0.1-0.5-0.3-0.9-0.4s-0.8-0.2-1.3-0.2c-0.5,0-0.9,0.1-1.3,0.2s-0.7,0.3-1,0.5
				c-0.3,0.2-0.5,0.5-0.6,0.8c-0.1,0.3-0.2,0.6-0.2,1c0,0.5,0.2,0.9,0.5,1.2s0.7,0.5,1.2,0.7c0.5,0.2,1,0.4,1.6,0.6
				c0.6,0.2,1.1,0.4,1.6,0.7c0.5,0.3,0.9,0.7,1.2,1.1c0.3,0.5,0.5,1.1,0.5,1.8c0,0.7-0.1,1.4-0.4,2.1c-0.3,0.7-0.7,1.2-1.2,1.7
				c-0.5,0.5-1.2,0.9-1.9,1.2c-0.7,0.3-1.6,0.4-2.5,0.4c-1,0-1.9-0.2-2.6-0.5c-0.8-0.4-1.4-0.8-1.9-1.4l0.7-1
				c0.1-0.1,0.2-0.2,0.3-0.3c0.1-0.1,0.2-0.1,0.4-0.1c0.2,0,0.3,0.1,0.5,0.2c0.2,0.1,0.4,0.3,0.6,0.5c0.2,0.2,0.6,0.3,0.9,0.5
				c0.4,0.1,0.8,0.2,1.4,0.2c0.5,0,1-0.1,1.4-0.2c0.4-0.2,0.7-0.4,1-0.6c0.3-0.3,0.5-0.6,0.6-0.9c0.1-0.3,0.2-0.7,0.2-1.1
				c0-0.5-0.2-0.9-0.5-1.2c-0.3-0.3-0.7-0.6-1.2-0.8c-0.5-0.2-1-0.4-1.6-0.6c-0.6-0.2-1.1-0.4-1.6-0.7c-0.5-0.3-0.9-0.6-1.2-1.1
				c-0.3-0.5-0.5-1.1-0.5-1.8c0-0.7,0.1-1.3,0.4-1.9c0.3-0.6,0.6-1.2,1.1-1.6c0.5-0.5,1.1-0.8,1.8-1.1c0.7-0.3,1.5-0.4,2.4-0.4
				c0.9,0,1.8,0.2,2.5,0.5c0.7,0.3,1.3,0.7,1.8,1.3L674.8,428.7z"/>
			<path class="st1" d="M678,438.8c0-0.1,0-0.1,0-0.2s0-0.2,0-0.4c0-0.2,0-0.4,0.1-0.7c0-0.3,0.1-0.7,0.1-1.2l1-7.8h-1.7
				c-0.1,0-0.3,0-0.3-0.1c-0.1-0.1-0.1-0.2-0.1-0.5l0.1-1.1l2.4-0.3l1.2-4.8c0.1-0.2,0.1-0.3,0.2-0.4c0.1-0.1,0.2-0.1,0.4-0.1h1.4
				l-0.7,5.4h4.1l-0.2,2h-4.1l-0.9,7.7c-0.1,0.4-0.1,0.8-0.1,1c0,0.3-0.1,0.5-0.1,0.6c0,0.2,0,0.3,0,0.3c0,0.1,0,0.1,0,0.1
				c0,0.5,0.1,0.9,0.4,1.2c0.2,0.3,0.6,0.4,1,0.4c0.3,0,0.5,0,0.7-0.1c0.2-0.1,0.4-0.2,0.5-0.3c0.2-0.1,0.3-0.2,0.4-0.3
				c0.1-0.1,0.2-0.1,0.3-0.1c0.1,0,0.2,0,0.2,0.1c0,0,0.1,0.1,0.1,0.2l0.6,1.3c-0.5,0.4-1.1,0.8-1.7,1c-0.6,0.3-1.3,0.4-1.9,0.4
				c-1,0-1.8-0.3-2.3-0.8C678.3,440.6,678.1,439.9,678,438.8z"/>
			<path class="st1" d="M693.2,442c-0.9,0-1.6-0.1-2.3-0.4c-0.7-0.3-1.3-0.7-1.8-1.3c-0.5-0.6-0.9-1.2-1.2-2
				c-0.3-0.8-0.4-1.7-0.4-2.7c0-1.3,0.2-2.6,0.6-3.7c0.4-1.2,1-2.2,1.7-3c0.7-0.9,1.6-1.6,2.5-2.1c1-0.5,2-0.8,3.1-0.8
				c0.9,0,1.6,0.1,2.3,0.4c0.7,0.3,1.3,0.7,1.8,1.3c0.5,0.6,0.9,1.2,1.2,2c0.3,0.8,0.4,1.7,0.4,2.7c0,1.3-0.2,2.5-0.6,3.7
				c-0.4,1.2-1,2.2-1.7,3c-0.7,0.9-1.6,1.6-2.5,2.1S694.3,442,693.2,442z M693.5,439.8c0.7,0,1.4-0.2,2-0.6c0.6-0.4,1.1-1,1.6-1.6
				c0.4-0.7,0.8-1.5,1-2.4c0.2-0.9,0.4-1.8,0.4-2.8c0-1.4-0.3-2.5-0.9-3.2c-0.6-0.7-1.4-1.1-2.5-1.1c-0.8,0-1.4,0.2-2.1,0.6
				c-0.6,0.4-1.1,0.9-1.6,1.6c-0.4,0.7-0.8,1.5-1,2.4c-0.2,0.9-0.4,1.8-0.4,2.8c0,1.4,0.3,2.5,0.8,3.3
				C691.6,439.5,692.4,439.8,693.5,439.8z"/>
			<path class="st1" d="M707,430.5c0.4-0.9,0.9-1.6,1.3-2.3c0.5-0.6,1-1.1,1.5-1.5s1.1-0.6,1.6-0.7c0.6-0.1,1.1,0,1.7,0.3l-0.5,2.6
				c-1.3-0.5-2.5-0.3-3.5,0.6c-1,0.9-1.9,2.6-2.5,5l-0.9,7.2h-2.7l1.9-15.6h1.4c0.6,0,0.9,0.3,0.9,0.9L707,430.5z"/>
			<path class="st1" d="M725.6,438.9c-0.5,0.5-1,1-1.5,1.4c-0.5,0.4-1,0.7-1.5,1c-0.5,0.3-1.1,0.4-1.6,0.6c-0.6,0.1-1.2,0.2-1.8,0.2
				c-0.9,0-1.7-0.1-2.4-0.4c-0.7-0.3-1.3-0.7-1.8-1.3c-0.5-0.5-0.9-1.2-1.1-2c-0.3-0.8-0.4-1.7-0.4-2.6c0-0.8,0.1-1.6,0.3-2.4
				c0.2-0.8,0.4-1.6,0.7-2.3c0.3-0.7,0.7-1.4,1.2-2c0.5-0.6,1-1.1,1.6-1.6c0.6-0.4,1.3-0.8,2-1.1c0.7-0.3,1.5-0.4,2.3-0.4
				c0.8,0,1.5,0.1,2,0.3s1,0.5,1.4,0.9s0.6,0.7,0.8,1.2c0.2,0.4,0.3,0.8,0.3,1.2c0,0.7-0.1,1.3-0.4,1.9c-0.3,0.6-0.8,1.1-1.5,1.5
				c-0.7,0.5-1.8,0.9-3,1.2c-1.3,0.3-3,0.6-5,0.8c0,0.1,0,0.2,0,0.3c0,0.1,0,0.2,0,0.3c0,1.4,0.3,2.4,0.9,3.1
				c0.6,0.7,1.5,1.1,2.7,1.1c0.5,0,0.9-0.1,1.3-0.2c0.4-0.1,0.7-0.2,1-0.4c0.3-0.1,0.6-0.3,0.8-0.5c0.2-0.2,0.4-0.3,0.6-0.5
				c0.2-0.1,0.4-0.3,0.5-0.4c0.2-0.1,0.3-0.2,0.5-0.2c0.2,0,0.4,0.1,0.5,0.3L725.6,438.9z M721.2,427.9c-0.6,0-1.2,0.1-1.8,0.4
				c-0.5,0.3-1,0.6-1.4,1.1c-0.4,0.5-0.8,1-1.1,1.6c-0.3,0.6-0.5,1.3-0.7,2c1.6-0.2,2.8-0.4,3.8-0.7c1-0.3,1.7-0.5,2.2-0.8
				c0.5-0.3,0.9-0.6,1-0.9c0.2-0.3,0.2-0.7,0.2-1.1c0-0.2,0-0.4-0.1-0.6c-0.1-0.2-0.2-0.4-0.4-0.5c-0.2-0.2-0.4-0.3-0.7-0.4
				C722,428,721.7,427.9,721.2,427.9z"/>
		</g>
	</g>
	<g>
		<g>
			<g>
				<path class="st1" d="M1094.8,301.5L1093,317h-2.7l1.9-15.5H1094.8z M1095.9,296.7c0,0.3-0.1,0.5-0.2,0.7
					c-0.1,0.2-0.2,0.4-0.4,0.6c-0.2,0.2-0.4,0.3-0.6,0.4c-0.2,0.1-0.5,0.2-0.7,0.2c-0.2,0-0.5-0.1-0.7-0.2c-0.2-0.1-0.4-0.2-0.6-0.4
					c-0.2-0.2-0.3-0.4-0.4-0.6c-0.1-0.2-0.2-0.5-0.2-0.7c0-0.3,0.1-0.5,0.2-0.7c0.1-0.2,0.2-0.4,0.4-0.6c0.2-0.2,0.4-0.3,0.6-0.4
					c0.2-0.1,0.5-0.2,0.7-0.2c0.2,0,0.5,0.1,0.7,0.2c0.2,0.1,0.4,0.2,0.6,0.4c0.2,0.2,0.3,0.4,0.4,0.6
					C1095.8,296.1,1095.9,296.4,1095.9,296.7z"/>
				<path class="st1" d="M1137.1,315.6c-0.5,0.4-1,0.7-1.4,0.9c-0.5,0.2-1,0.4-1.5,0.5c-0.5,0.1-1.1,0.1-1.7,0.1
					c-0.9,0-1.7-0.2-2.4-0.5c-0.7-0.3-1.3-0.7-1.7-1.3c-0.5-0.6-0.8-1.2-1.1-2c-0.2-0.8-0.4-1.6-0.4-2.6c0-1.3,0.2-2.5,0.6-3.6
					c0.4-1.1,0.9-2.2,1.6-3.1c0.7-0.9,1.5-1.6,2.5-2.1c1-0.5,2-0.8,3.2-0.8c1,0,1.9,0.2,2.6,0.5c0.7,0.4,1.3,0.9,1.8,1.6l-0.9,1
					c-0.1,0.1-0.2,0.1-0.2,0.2c-0.1,0.1-0.2,0.1-0.3,0.1c-0.1,0-0.3-0.1-0.4-0.2c-0.1-0.1-0.3-0.3-0.5-0.4s-0.5-0.3-0.8-0.4
					s-0.8-0.2-1.3-0.2c-0.7,0-1.4,0.2-2,0.6s-1.2,0.9-1.6,1.6c-0.5,0.7-0.8,1.4-1.1,2.3c-0.3,0.9-0.4,1.9-0.4,2.9
					c0,0.6,0.1,1.2,0.2,1.7c0.1,0.5,0.4,1,0.6,1.3c0.3,0.4,0.6,0.6,1,0.8c0.4,0.2,0.9,0.3,1.4,0.3c0.7,0,1.3-0.1,1.7-0.3
					c0.5-0.2,0.9-0.4,1.2-0.7s0.6-0.5,0.8-0.7c0.2-0.2,0.4-0.3,0.6-0.3c0.2,0,0.4,0.1,0.5,0.3l0.7,0.8
					C1138.1,314.8,1137.6,315.3,1137.1,315.6z"/>
				<path class="st1" d="M1176.2,294.5l-1.6,13.2h0.5c0.2,0,0.4,0,0.5-0.1c0.1-0.1,0.3-0.2,0.4-0.3l5.1-5.2c0.1-0.2,0.3-0.3,0.5-0.4
					c0.2-0.1,0.4-0.1,0.6-0.1h2.4l-6,6.1c-0.3,0.4-0.6,0.6-0.9,0.8c0.2,0.1,0.3,0.3,0.4,0.4c0.1,0.2,0.2,0.3,0.3,0.5l4.6,7.6h-2.3
					c-0.2,0-0.4,0-0.6-0.1c-0.1-0.1-0.3-0.2-0.4-0.4l-3.9-6.3c-0.1-0.2-0.2-0.4-0.4-0.4c-0.1-0.1-0.3-0.1-0.6-0.1h-0.5l-0.9,7.4
					h-2.7l2.8-22.5H1176.2z"/>
				<path class="st1" d="M1227.4,314.1c-0.5,0.5-1,1-1.5,1.4c-0.5,0.4-1,0.7-1.5,1c-0.5,0.3-1.1,0.4-1.6,0.6
					c-0.6,0.1-1.2,0.2-1.8,0.2c-0.9,0-1.7-0.1-2.4-0.4c-0.7-0.3-1.3-0.7-1.8-1.3c-0.5-0.5-0.9-1.2-1.1-2c-0.3-0.8-0.4-1.6-0.4-2.6
					c0-0.8,0.1-1.6,0.3-2.4c0.2-0.8,0.4-1.5,0.7-2.3c0.3-0.7,0.7-1.4,1.2-2c0.5-0.6,1-1.1,1.6-1.6c0.6-0.4,1.3-0.8,2-1
					c0.7-0.3,1.5-0.4,2.3-0.4c0.8,0,1.5,0.1,2,0.3s1,0.5,1.4,0.9c0.4,0.3,0.6,0.7,0.8,1.1c0.2,0.4,0.3,0.8,0.3,1.2
					c0,0.7-0.1,1.3-0.4,1.9c-0.3,0.6-0.8,1.1-1.5,1.5c-0.7,0.5-1.7,0.8-3,1.2c-1.3,0.3-2.9,0.6-4.9,0.8c0,0.1,0,0.2,0,0.3
					c0,0.1,0,0.2,0,0.3c0,1.4,0.3,2.4,0.9,3.1c0.6,0.7,1.5,1.1,2.7,1.1c0.5,0,0.9-0.1,1.3-0.2c0.4-0.1,0.7-0.2,1-0.4
					c0.3-0.1,0.6-0.3,0.8-0.5c0.2-0.2,0.4-0.3,0.6-0.5c0.2-0.1,0.4-0.3,0.5-0.4c0.2-0.1,0.3-0.2,0.5-0.2c0.2,0,0.4,0.1,0.5,0.3
					L1227.4,314.1z M1223.1,303.3c-0.6,0-1.2,0.1-1.8,0.4c-0.5,0.3-1,0.6-1.4,1.1c-0.4,0.5-0.8,1-1.1,1.6c-0.3,0.6-0.5,1.3-0.7,2
					c1.6-0.2,2.8-0.4,3.8-0.7c0.9-0.2,1.7-0.5,2.2-0.8c0.5-0.3,0.8-0.6,1-0.9c0.2-0.3,0.2-0.7,0.2-1.1c0-0.2,0-0.4-0.1-0.6
					c-0.1-0.2-0.2-0.4-0.4-0.5s-0.4-0.3-0.7-0.4S1223.5,303.3,1223.1,303.3z"/>
				<path class="st1" d="M1260.9,314.1c0-0.1,0-0.1,0-0.2s0-0.2,0-0.4c0-0.2,0-0.4,0.1-0.7c0-0.3,0.1-0.7,0.1-1.2l0.9-7.7h-1.7
					c-0.1,0-0.3,0-0.3-0.1c-0.1-0.1-0.1-0.2-0.1-0.5l0.1-1.1l2.4-0.3l1.2-4.8c0.1-0.2,0.1-0.3,0.2-0.4c0.1-0.1,0.2-0.1,0.4-0.1h1.4
					l-0.7,5.3h4.1l-0.2,2h-4.1l-0.9,7.6c-0.1,0.4-0.1,0.8-0.1,1c0,0.3-0.1,0.5-0.1,0.6c0,0.2,0,0.3,0,0.3c0,0.1,0,0.1,0,0.1
					c0,0.5,0.1,0.9,0.4,1.2c0.2,0.2,0.6,0.4,1,0.4c0.3,0,0.5,0,0.7-0.1c0.2-0.1,0.4-0.2,0.5-0.3c0.2-0.1,0.3-0.2,0.4-0.3
					c0.1-0.1,0.2-0.1,0.3-0.1c0.1,0,0.2,0,0.2,0.1c0,0,0.1,0.1,0.1,0.2l0.6,1.3c-0.5,0.4-1.1,0.8-1.7,1c-0.6,0.2-1.3,0.4-1.9,0.4
					c-1,0-1.8-0.3-2.3-0.8C1261.2,315.9,1260.9,315.1,1260.9,314.1z"/>
				<path class="st1" d="M1304.5,305.4c0.4-0.6,0.8-1.2,1.2-1.7c0.4-0.5,0.9-0.9,1.4-1.3c0.5-0.4,1-0.6,1.5-0.8
					c0.5-0.2,1.1-0.3,1.6-0.3c1.3,0,2.3,0.5,3.1,1.4c0.7,1,1.1,2.4,1.1,4.2c0,0.8-0.1,1.7-0.3,2.5c-0.2,0.8-0.4,1.6-0.7,2.4
					c-0.3,0.8-0.7,1.5-1.2,2.1c-0.5,0.7-1,1.2-1.5,1.7c-0.6,0.5-1.2,0.9-1.8,1.1c-0.7,0.3-1.3,0.4-2,0.4c-0.8,0-1.6-0.2-2.2-0.5
					c-0.7-0.3-1.2-0.8-1.6-1.5l-0.2,1c-0.1,0.3-0.2,0.5-0.3,0.6c-0.1,0.1-0.3,0.2-0.7,0.2h-1.4l2.7-22.5h2.7L1304.5,305.4z
					 M1303.5,313.6c0.4,0.5,0.9,0.9,1.4,1.2c0.5,0.2,1.1,0.3,1.6,0.3c0.5,0,1-0.1,1.5-0.3c0.5-0.2,0.9-0.5,1.3-0.9
					c0.4-0.4,0.7-0.8,1-1.3c0.3-0.5,0.6-1.1,0.8-1.6c0.2-0.6,0.4-1.2,0.5-1.8c0.1-0.6,0.2-1.2,0.2-1.9c0-1.2-0.2-2.1-0.6-2.8
					c-0.4-0.6-1-0.9-1.8-0.9c-0.5,0-1,0.2-1.5,0.5c-0.5,0.3-1,0.7-1.4,1.3c-0.5,0.5-0.9,1.2-1.3,1.9c-0.4,0.7-0.8,1.6-1,2.4
					L1303.5,313.6z"/>
				<path class="st1" d="M1322,317.2c-0.8,0-1.6-0.1-2.3-0.4c-0.7-0.3-1.3-0.7-1.8-1.3c-0.5-0.5-0.9-1.2-1.2-2
					c-0.3-0.8-0.4-1.7-0.4-2.7c0-1.3,0.2-2.5,0.6-3.7c0.4-1.1,1-2.2,1.7-3c0.7-0.9,1.5-1.5,2.5-2c1-0.5,2-0.7,3.1-0.7
					c0.8,0,1.6,0.1,2.3,0.4c0.7,0.3,1.3,0.7,1.8,1.3c0.5,0.5,0.9,1.2,1.2,2c0.3,0.8,0.4,1.7,0.4,2.7c0,1.3-0.2,2.5-0.6,3.7
					c-0.4,1.1-1,2.2-1.7,3c-0.7,0.9-1.5,1.5-2.5,2.1S1323.1,317.2,1322,317.2z M1322.3,315.1c0.7,0,1.4-0.2,2-0.6
					c0.6-0.4,1.1-0.9,1.6-1.6c0.4-0.7,0.8-1.5,1-2.3c0.2-0.9,0.4-1.8,0.4-2.8c0-1.4-0.3-2.5-0.8-3.2c-0.6-0.7-1.4-1.1-2.4-1.1
					c-0.8,0-1.4,0.2-2,0.6c-0.6,0.4-1.1,0.9-1.5,1.6c-0.4,0.7-0.8,1.4-1,2.3s-0.4,1.8-0.4,2.8c0,1.4,0.3,2.5,0.8,3.2
					C1320.4,314.7,1321.2,315.1,1322.3,315.1z"/>
				<path class="st1" d="M1337.5,317.2c-0.8,0-1.6-0.1-2.3-0.4c-0.7-0.3-1.3-0.7-1.8-1.3c-0.5-0.5-0.9-1.2-1.2-2
					c-0.3-0.8-0.4-1.7-0.4-2.7c0-1.3,0.2-2.5,0.6-3.7c0.4-1.1,1-2.2,1.7-3c0.7-0.9,1.5-1.5,2.5-2c1-0.5,2-0.7,3.1-0.7
					c0.8,0,1.6,0.1,2.3,0.4c0.7,0.3,1.3,0.7,1.8,1.3c0.5,0.5,0.9,1.2,1.2,2c0.3,0.8,0.4,1.7,0.4,2.7c0,1.3-0.2,2.5-0.6,3.7
					c-0.4,1.1-1,2.2-1.7,3c-0.7,0.9-1.5,1.5-2.5,2.1C1339.7,316.9,1338.6,317.2,1337.5,317.2z M1337.8,315.1c0.7,0,1.4-0.2,2-0.6
					c0.6-0.4,1.1-0.9,1.6-1.6s0.8-1.5,1-2.3c0.2-0.9,0.4-1.8,0.4-2.8c0-1.4-0.3-2.5-0.8-3.2c-0.6-0.7-1.4-1.1-2.4-1.1
					c-0.8,0-1.4,0.2-2,0.6c-0.6,0.4-1.1,0.9-1.5,1.6c-0.4,0.7-0.8,1.4-1,2.3s-0.4,1.8-0.4,2.8c0,1.4,0.3,2.5,0.8,3.2
					C1335.9,314.7,1336.7,315.1,1337.8,315.1z"/>
				<path class="st1" d="M1348.5,314.1c0-0.1,0-0.1,0-0.2s0-0.2,0-0.4c0-0.2,0-0.4,0.1-0.7c0-0.3,0.1-0.7,0.1-1.2l0.9-7.7h-1.7
					c-0.1,0-0.3,0-0.3-0.1c-0.1-0.1-0.1-0.2-0.1-0.5l0.1-1.1l2.4-0.3l1.2-4.8c0.1-0.2,0.1-0.3,0.2-0.4c0.1-0.1,0.2-0.1,0.4-0.1h1.4
					l-0.7,5.3h4.1l-0.2,2h-4.1l-0.9,7.6c-0.1,0.4-0.1,0.8-0.1,1c0,0.3-0.1,0.5-0.1,0.6c0,0.2,0,0.3,0,0.3c0,0.1,0,0.1,0,0.1
					c0,0.5,0.1,0.9,0.4,1.2c0.2,0.2,0.6,0.4,1,0.4c0.3,0,0.5,0,0.7-0.1c0.2-0.1,0.4-0.2,0.5-0.3c0.2-0.1,0.3-0.2,0.4-0.3
					c0.1-0.1,0.2-0.1,0.3-0.1c0.1,0,0.2,0,0.2,0.1c0,0,0.1,0.1,0.1,0.2l0.6,1.3c-0.5,0.4-1.1,0.8-1.7,1c-0.6,0.2-1.3,0.4-1.9,0.4
					c-1,0-1.8-0.3-2.3-0.8C1348.8,315.9,1348.6,315.1,1348.5,314.1z"/>
				<path class="st1" d="M1362,304.9c0.8-1.2,1.7-2.1,2.7-2.7c1-0.6,2-0.9,3-0.9c0.7,0,1.2,0.1,1.7,0.4c0.5,0.3,0.9,0.6,1.2,1.1
					c0.3,0.5,0.5,1.1,0.6,1.8s0.1,1.6,0,2.5l-1.2,9.8h-2.7l1.2-9.8c0.2-1.2,0.1-2.1-0.2-2.7c-0.3-0.6-0.8-0.9-1.6-0.9
					c-0.5,0-0.9,0.1-1.4,0.4c-0.5,0.2-1,0.6-1.4,1.1c-0.5,0.5-0.9,1-1.3,1.7c-0.4,0.7-0.8,1.4-1,2.2l-1,8.2h-2.7l2.7-22.5h2.7
					L1362,304.9z"/>
			</g>
			<g>
				<path class="st1" d="M1047.7,314.1c0-0.1,0-0.1,0-0.2s0-0.2,0-0.4c0-0.2,0-0.4,0.1-0.7c0-0.3,0.1-0.7,0.1-1.2l0.9-7.7h-1.7
					c-0.1,0-0.3,0-0.3-0.1c-0.1-0.1-0.1-0.2-0.1-0.5l0.1-1.1l2.4-0.3l1.2-4.8c0.1-0.2,0.1-0.3,0.2-0.4c0.1-0.1,0.2-0.1,0.4-0.1h1.4
					l-0.7,5.3h4.1l-0.2,2h-4.1l-0.9,7.6c-0.1,0.4-0.1,0.8-0.1,1c0,0.3-0.1,0.5-0.1,0.6c0,0.2,0,0.3,0,0.3c0,0.1,0,0.1,0,0.1
					c0,0.5,0.1,0.9,0.4,1.2c0.2,0.2,0.6,0.4,1,0.4c0.3,0,0.5,0,0.7-0.1c0.2-0.1,0.4-0.2,0.5-0.3c0.2-0.1,0.3-0.2,0.4-0.3
					c0.1-0.1,0.2-0.1,0.3-0.1c0.1,0,0.2,0,0.2,0.1c0,0,0.1,0.1,0.1,0.2l0.6,1.3c-0.5,0.4-1.1,0.8-1.7,1c-0.6,0.2-1.3,0.4-1.9,0.4
					c-1,0-1.8-0.3-2.3-0.8C1048,315.9,1047.7,315.1,1047.7,314.1z"/>
			</g>
		</g>
	</g>
	<g>
		<g>
			<path class="st1" d="M560.7,65c-0.1-0.3-0.4-0.8-0.9-1.1c-0.4-0.3-1-0.5-1.6-0.5c-0.5,0-1,0.1-1.4,0.3c-0.4,0.2-0.8,0.4-1.1,0.7
				c-0.3,0.3-0.5,0.7-0.6,1c-0.1,0.4-0.2,0.8-0.2,1.2c0,0.4,0.1,0.8,0.2,1.1c0.1,0.3,0.3,0.6,0.5,0.8c0.2,0.2,0.5,0.4,0.8,0.5
				c0.6,0.2,1.3,0.2,1.8,0c0,0,0,0,0.1,0c0,0.2-0.1,0.4-0.1,0.5c0,0.1,0,0.3,0,0.4c0,0.1,0.2,0.5,0.8,0.5c0.4,0,0.8,0,0.9-0.3
				c0.1-0.2,0-0.3,0-0.4c-0.1-0.1-0.1-0.2-0.2-0.3c0-0.1-0.1-0.2-0.1-0.3c0-0.2,0-0.3,0.1-0.4c0.1-0.1,0.1-0.3,0.2-0.4
				c0.1-0.1,0.2-0.3,0.3-0.4c0.1-0.2,0.2-0.3,0.3-0.5c0.1-0.2,0.2-0.4,0.2-0.6c0.1-0.2,0.1-0.5,0.1-0.8c0-0.2,0-0.4,0-0.5
				C560.8,65.3,560.8,65.2,560.7,65z M559,66.7c-0.1,0.2-0.2,0.4-0.3,0.6c-0.1,0.2-0.3,0.3-0.5,0.4c-0.2,0.1-0.4,0.1-0.6,0.1
				c-0.3,0-0.6-0.1-0.7-0.3c-0.2-0.2-0.3-0.5-0.3-0.9c0-0.2,0-0.5,0.1-0.7c0.1-0.2,0.2-0.4,0.3-0.6c0.1-0.2,0.3-0.3,0.4-0.4
				c0.2-0.1,0.4-0.1,0.6-0.1c0.3,0,0.6,0.1,0.8,0.3c0.2,0.2,0.3,0.5,0.3,0.8C559.1,66.2,559.1,66.4,559,66.7z"/>
			<path class="st1" d="M566.4,68.5c0.2,0.2,0.5,0.4,0.8,0.5c0.6,0.2,1.3,0.2,1.8,0c0,0,0,0,0.1,0c0,0.2-0.1,0.4-0.1,0.5
				c0,0.1,0,0.3,0,0.4c0,0.1,0.2,0.5,0.8,0.5c0.4,0,0.8,0,0.9-0.3c0.1-0.2,0-0.3,0-0.4c-0.1-0.1-0.1-0.2-0.2-0.3
				c0-0.1-0.1-0.2-0.1-0.3c0-0.2,0-0.3,0.1-0.4c0.1-0.1,0.1-0.3,0.2-0.4c0.1-0.1,0.2-0.3,0.3-0.4c0.1-0.2,0.2-0.3,0.3-0.5
				c0.1-0.2,0.2-0.4,0.2-0.6c0.1-0.2,0.1-0.5,0.1-0.8c0-0.2,0-0.4,0-0.5c0-0.1-0.1-0.3-0.1-0.5c-0.1-0.3-0.4-0.8-0.9-1.1
				c-0.4-0.3-1-0.5-1.6-0.5c-0.5,0-1,0.1-1.4,0.3c-0.4,0.2-0.8,0.4-1.1,0.7c-0.3,0.3-0.5,0.7-0.6,1c-0.1,0.4-0.2,0.8-0.2,1.2
				c0,0.4,0.1,0.8,0.2,1.1C566,68,566.2,68.3,566.4,68.5z M569.8,66.7c-0.1,0.2-0.2,0.4-0.3,0.6c-0.1,0.2-0.3,0.3-0.5,0.4
				c-0.2,0.1-0.4,0.1-0.6,0.1c-0.3,0-0.6-0.1-0.7-0.3c-0.2-0.2-0.3-0.5-0.3-0.9c0-0.2,0-0.5,0.1-0.7c0.1-0.2,0.2-0.4,0.3-0.6
				c0.1-0.2,0.3-0.3,0.4-0.4c0.2-0.1,0.4-0.1,0.6-0.1c0.3,0,0.6,0.1,0.8,0.3c0.2,0.2,0.3,0.5,0.3,0.8
				C569.9,66.2,569.9,66.4,569.8,66.7z"/>
			<path class="st1" d="M577.8,60.2c-0.2-0.2-0.4-0.3-0.6-0.3H564v-8.5l1.7,4.4c0.2,0.5,0.7,0.7,1.1,0.5c0.5-0.2,0.7-0.7,0.5-1.1
				l-3.4-8.7c-0.2-0.4-0.6-0.6-1-0.5c-0.4,0.1-0.7,0.4-0.7,0.9v13.2h-13.1c-0.2,0-0.5,0.1-0.6,0.3c-0.2,0.2-0.3,0.4-0.3,0.6l0,29.1
				c0,0.2,0.1,0.5,0.3,0.6c0.2,0.2,0.4,0.3,0.6,0.3h0l13.1,0v8.6l-1.7-4.4c-0.2-0.5-0.7-0.7-1.1-0.5c-0.5,0.2-0.7,0.7-0.5,1.1
				l3.4,8.7c0.1,0.3,0.5,0.6,0.8,0.6c0.1,0,0.1,0,0.2,0c0.4-0.1,0.7-0.4,0.7-0.9V90.7l13.1,0c0.5,0,0.9-0.4,0.9-0.9l0-29
				C578,60.6,577.9,60.4,577.8,60.2z M565.7,88.9l3.4-10.8l0,10.8H565.7z M576.3,88.9l-5.4,0l0.1-16.6c0-0.2-0.1-0.5-0.3-0.6
				c-0.2-0.2-0.4-0.3-0.6-0.3c-0.4,0-0.7,0.3-0.8,0.6l-5.3,16.9l-6.5,0l5.1-16.4c0.1-0.3,0-0.6-0.1-0.8c-0.2-0.2-0.4-0.4-0.7-0.4
				h-5.4c-0.5,0-0.9,0.4-0.9,0.9L555.2,89l-5.1,0l0-27.3h26.2L576.3,88.9z M557,84l0-10.8h3.3L557,84z"/>
		</g>
	</g>
	<polygon class="st5" points="562.6,134.6 474.9,134.9 357.9,274.8 460.8,274.5 	"/>
	<path class="st5" d="M657.4,5.7l-18.2,0c-15.4,0-35.5,1.2-55.3,10.2c-19.3,8.8-30.6,25.2-30.7,25.3l-0.2,0.2l-0.2,0.2l-73.4,87.8
		l87.1-0.3L657.4,5.7z"/>
	<path class="st5" d="M1157.3,167.6c43.8,14.1,69.9,31.3,78.5,39.3c0.5,0.4,1,0.9,1.6,1.5c5.8,5.3,16.6,15.1,23.2,29.2L1386.8,5.7
		h-367.9l-75.7,139.9C1025.3,140.9,1097.3,148.3,1157.3,167.6z"/>
	<path class="st5" d="M573.3,129.1h32.4c1,0,2,0.6,2.4,1.5l40.9,83.3c16.8-8.8,115.7-57,287.7-67.9l75.9-140.3H924l-241.4,0l-19.5,0
		l0.7,0.5L573.3,129.1z"/>
	<path class="st5" d="M1576.5,9.3c-7-2.7-17.5-3.6-25.1-3.6c-0.6,0-0.9,0-0.9,0l-0.1,0h-0.1l-82.6,0h-75.3l0.4,0.2l-129.6,238.2
		c1.8,5.3,2.9,11,3,17.2l193.9,1.5l86.5-169.7l24.5-48.4l8.2-16.3c3-6,3.8-8.8,3.9-9.6l-0.1-0.6l0.2,0.2
		C1583.3,17.2,1583.2,11.9,1576.5,9.3z"/>
	<g>
		<g>
			<g>
				<g>
					<g>
						<path class="st1" d="M49.4,455.4l-0.2,1.1c-0.1,0.6-0.4,0.8-1,0.8H37.1l-2.2,17.8h-2.2l2.2-17.8H4.3c-0.2,0-0.4-0.1-0.6-0.2
							c-0.2-0.2-0.2-0.3-0.2-0.5v-1L40.7,412h1.9l-5.3,43.4H49.4z M35.1,455.4l4.6-37.4c0.1-0.7,0.3-1.4,0.5-2.2L6.4,455.4H35.1z"/>
						<path class="st1" d="M35.6,475.9h-3.8l2.2-17.8H4.3c-0.5,0-0.9-0.2-1.1-0.5c-0.3-0.3-0.4-0.7-0.4-1.1v-1.3l37.6-44.1h3.2
							l-5.3,43.4h12.1l-0.3,2c-0.1,0.9-0.8,1.5-1.8,1.5H37.8L35.6,475.9z M33.5,474.4h0.7l2.2-17.8h11.8c0.2,0,0.2,0,0.2,0l0.1-0.4
							H36.4l5.3-43.4H41L4.3,455.8v0.8l31.4,0L33.5,474.4z M35.7,456.2h-31l36.9-43.4l-0.8,3.2c-0.2,0.8-0.3,1.5-0.4,2.2L35.7,456.2
							z M8,454.6h26.3l4.4-36.1L8,454.6z"/>
					</g>
				</g>
				<path class="st1" d="M68.6,415.6L65.3,442h26l-0.5,3.7h-26l-3.5,28.7H57l7.7-62.3h34.4l-0.5,3.6H68.6z"/>
			</g>
		</g>
		<path class="st6" d="M1578.5,4.2c-9.7-3.7-23.2-4-27-4c-0.7,0-1.1,0-1.1,0l-82.6,0H924l-241.4,0c0,0-27.7,0-43.4,0
			c-15.7,0-36.6,1.1-57.5,10.7c-20.9,9.5-33,27.2-33,27.2S364.5,258.4,274.2,366.3c-8.6,10.3-16.3,19.5-23,27.5
			c-17.1,20.5-0.3,29.6-0.3,29.6l70,39.9c21,11.8,41,12.6,46,12.6c0.8,0,1.2,0,1.2,0l844.7-3c0,0,0.4,0,1.1,0
			c10.7,0,94.2-0.5,126.2-14.5c34.2-15.1,46.3-41.1,46.3-41.1l48.8-93.5l116.2-228.2l24.5-48.4c0,0,3.6-7.2,8.2-16.3
			c4.6-9.1,4.6-11.9,4.6-11.9S1589.8,8.6,1578.5,4.2z M1386.8,5.7l-126.1,231.9c-6.6-14.1-17.4-23.9-23.2-29.2
			c-0.6-0.6-1.2-1.1-1.6-1.5c-8.6-8-34.7-25.3-78.5-39.3c-60-19.3-132-26.7-214.1-22l75.7-139.9H1386.8z M682.6,5.7l241.4,0h88.6
			L936.8,146c-172.1,10.9-270.9,59.1-287.7,67.9l-40.9-83.3c-0.5-0.9-1.4-1.5-2.4-1.5h-32.4L663.8,6.2l-0.7-0.5L682.6,5.7z
			 M552.9,41.7l0.2-0.2l0.2-0.2c0.1-0.2,11.4-16.5,30.7-25.3c19.8-9,39.9-10.2,55.3-10.2l18.2,0l-90.8,123.4l-87.1,0.3L552.9,41.7z
			 M474.9,134.9l87.7-0.3L460.8,274.5l-102.9,0.3L474.9,134.9z M1430.4,321.3l-48.8,93.5l-0.1,0.1l0,0.1
			c-0.1,0.2-11.9,24.4-43.6,38.4c-31,13.7-114.6,14.1-124,14.1l-1.2,0l-106.7,0.4l61.6-98c16.6-7.8,41.5-24,42.6-24.7
			c0.1,0,0.1-0.1,0.2-0.1c11.4-8.7,21.1-17.3,29.1-25.9h-7.5c-7,7.1-15.3,14.3-24.8,21.5c-1.6,1-26.7,17.3-42.5,24.7
			c-0.5,0.2-0.9,0.6-1.2,1l-22.8,36.3h-49.2v5.5h45.8l-37.6,59.8l-114.9,0.4l31.1-60.2h21v-5.5h-66.4v5.5h39.3l-31.2,60.3
			l-113.2,0.4L896,408h19.8v-5.5h-66.4v5.5h40.6l-30.7,60.7l-124,0.4l35.9-61.1h23.8v-5.5h-26.9l-39.1,66.6L368,470.5l-0.1,0l-0.1,0
			c-0.1,0-0.4,0-0.9,0c-3.7,0-23.2-0.6-43.3-11.8l-70-39.9l0,0l0,0c0,0-3.6-2.1-4.4-6.2c-0.8-4.1,1.4-9.3,6.3-15.1l5.1-6.1
			l17.8-21.3l74.9-89.6l108.9-0.3c0.9,0,1.7-0.4,2.2-1.1l105-144.3H604l41.4,84.3c0.3,0.7,0.9,1.2,1.7,1.4c0.7,0.2,1.5,0.1,2.2-0.2
			c1-0.6,102.6-57.8,293.6-68.9c209.6-12.1,288.5,59.1,289.2,59.8c0.5,0.5,1.1,1,1.7,1.6c6,5.4,17.7,16.1,23.5,31.3l-0.1,0.2
			l0.2,0.1c2.3,6.2,3.7,13.1,3.4,20.7c-0.4,9.1-3.2,18.3-8.4,27.8h6.1c4.4-8.6,6.9-17.2,7.6-25.6l191.3,1.5L1430.4,321.3z
			 M1583.3,18.5l-0.2-0.2l0.1,0.6c-0.2,0.8-0.9,3.6-3.9,9.6l-8.2,16.3l-24.5,48.4l-86.5,169.7l-193.9-1.5c-0.1-6.2-1.2-12-3-17.2
			L1392.8,5.9l-0.4-0.2h75.3l82.6,0h0.1l0.1,0c0,0,0.4,0,0.9,0c7.6,0,18.1,1,25.1,3.6C1583.2,11.9,1583.3,17.2,1583.3,18.5z"/>
	</g>
</g>
<g>
</g>
<g>
</g>
<g>
</g>
<g>
</g>
<g>
</g>
<g>
</g>
</svg>
