<?xml version="1.0" encoding="utf-8"?>
<!-- Generator: Adobe Illustrator 24.1.0, SVG Export Plug-In . SVG Version: 6.00 Build 0)  -->
<svg version="1.1" id="レイヤー_1" xmlns="http://www.w3.org/2000/svg" xmlns:xlink="http://www.w3.org/1999/xlink" x="0px"
	 y="0px" width="1591.9px" height="476.5px" viewBox="0 0 1591.9 476.5" style="enable-background:new 0 0 1591.9 476.5;"
	 xml:space="preserve">
<style type="text/css">
	.st0{fill:#CCA57E;}
	.st1{fill:#FFFFFF;}
	.st2{fill:#3FB160;}
	.st3{fill:#D3CB43;}
	.st4{fill:#1DA3C7;}
	.st5{fill:#C5171E;}
	.st6{fill:#C7D5EB;}
	.st7{fill:#7A757B;}
	.st8{fill:#3E3435;}
	.st9{fill:#231815;}
	.st10{fill:none;stroke:#231815;stroke-width:0.9665;stroke-miterlimit:10;}
	.st11{fill:#231815;stroke:#231815;stroke-width:0.7249;stroke-linecap:round;stroke-linejoin:round;stroke-miterlimit:10;}
	.st12{fill:#AD0D20;}
	.st13{fill:#182A83;}
	.st14{fill:none;}
	.st15{fill:#9E9D9D;}
</style>
<g>
	<g>
		<g>
			<path class="st0" d="M44.2,421l-0.2,1.9c-0.1,0.5-0.2,0.9-0.6,1.2c-0.3,0.3-0.8,0.5-1.4,0.5H22.8l-5.3,18.1
				c3.1-0.8,6.1-1.2,8.9-1.2c2.3,0,4.4,0.4,6.2,1.1c1.8,0.7,3.3,1.7,4.4,2.9s2.1,2.7,2.6,4.4c0.6,1.7,0.9,3.6,0.9,5.6
				c0,3.2-0.6,6.1-1.7,8.7c-1.1,2.6-2.6,4.8-4.4,6.5c-1.9,1.8-4,3.2-6.4,4.1c-2.4,1-5,1.4-7.6,1.4c-1.4,0-2.8-0.1-4-0.4
				c-1.3-0.3-2.4-0.6-3.5-1.1c-1.1-0.4-2-1-2.9-1.5c-0.9-0.6-1.7-1.2-2.3-1.8l1.2-1.5c0.2-0.3,0.5-0.5,0.9-0.6s0.8,0,1.1,0.2
				c1.1,0.9,2.5,1.7,4.2,2.5c1.7,0.7,3.6,1.1,5.8,1.1c2.2,0,4.2-0.4,6.2-1.2c1.9-0.8,3.6-1.9,5.1-3.4s2.6-3.3,3.4-5.4
				c0.8-2.1,1.3-4.5,1.3-7.2c0-1.7-0.2-3.2-0.7-4.6c-0.5-1.4-1.2-2.6-2.2-3.6c-1-1-2.2-1.8-3.7-2.3c-1.5-0.6-3.2-0.8-5.2-0.8
				c-1.4,0-2.8,0.1-4.4,0.4c-1.5,0.2-3.2,0.6-5,1.1l-2.3-0.7l6.9-24.3H44.2z"/>
			<path class="st0" d="M63.7,414.8l-2.9,23.7h23.4l-0.5,3.3H60.3l-3.2,25.8h-4l6.9-56.1h31l-0.4,3.3H63.7z"/>
		</g>
	</g>
	<g>
		<g>
			<path class="st0" d="M487.5,156c-0.2-0.6-0.7-1.3-1.4-1.8c-0.6-0.5-1.6-0.7-2.6-0.7c-0.9,0-1.7,0.2-2.4,0.5
				c-0.7,0.3-1.3,0.7-1.7,1.2c-0.5,0.5-0.8,1.1-1.1,1.7c-0.2,0.6-0.4,1.3-0.4,2c0,0.7,0.1,1.3,0.3,1.8c0.2,0.5,0.5,0.9,0.8,1.3
				c0.4,0.3,0.8,0.6,1.2,0.8c0.5,0.2,1,0.3,1.5,0.3c0.6,0,1-0.1,1.5-0.2c0.4-0.1,0.8-0.3,1.2-0.6c-0.2,0.4-0.3,0.7-0.4,1
				c-0.1,0.3-0.1,0.6-0.1,0.9c0,0.2,0,0.4,0.1,0.6c0,0,0.1,0.5,1.1,0.5c1.6,0,1.1-0.5,1.1-0.5c-0.1-0.2-0.2-0.4-0.3-0.7
				c-0.1-0.2-0.1-0.5-0.1-0.7c0-0.3,0.1-0.7,0.2-0.9c0.1-0.3,0.2-0.6,0.4-0.8c0.2-0.3,0.3-0.5,0.5-0.8c0.2-0.3,0.4-0.6,0.5-0.9
				c0.2-0.3,0.3-0.7,0.4-1c0.1-0.4,0.2-0.8,0.2-1.2c0-0.3,0-0.6-0.1-0.8C487.7,156.5,487.6,156.2,487.5,156z M485.4,159
				c-0.1,0.4-0.3,0.8-0.6,1.2c-0.3,0.4-0.6,0.6-1,0.9c-0.4,0.2-0.8,0.3-1.3,0.3c-0.7,0-1.3-0.2-1.7-0.7s-0.6-1.1-0.6-1.9
				c0-0.5,0.1-0.9,0.2-1.4c0.1-0.4,0.3-0.8,0.6-1.2c0.3-0.3,0.6-0.6,1-0.8c0.4-0.2,0.8-0.3,1.3-0.3c0.7,0,1.3,0.2,1.7,0.6
				c0.4,0.4,0.6,1,0.6,1.8C485.6,158.1,485.5,158.5,485.4,159z"/>
			<path class="st0" d="M508.6,201.4h-12l-12.6-12.6l6.5-20.8c0.1-0.3,0-0.6-0.1-0.9c-0.2-0.3-0.5-0.4-0.8-0.4h-9.8
				c-0.5,0-1,0.4-1,1l0,15.8l-16-16c-0.2-0.2-0.4-0.3-0.7-0.3h-12.4c-0.5,0-1,0.4-1,1c0,0.5,0.4,1,1,1h12l33.9,33.9
				c0.2,0.2,0.4,0.3,0.7,0.3h12.4c0.5,0,1-0.4,1-1C509.6,201.9,509.1,201.4,508.6,201.4z M480.7,168.7h7.5l-5.8,18.5l-1.7-1.7
				L480.7,168.7z"/>
		</g>
	</g>
	<g>
		<g>
			<path class="st0" d="M934.4,418.9c-0.1-0.4-0.5-0.9-1-1.3c-0.4-0.3-1.1-0.5-1.9-0.5c-0.6,0-1.2,0.1-1.7,0.3
				c-0.5,0.2-0.9,0.5-1.2,0.8c-0.3,0.3-0.6,0.8-0.7,1.2c-0.2,0.4-0.3,0.9-0.3,1.4c0,0.5,0.1,0.9,0.2,1.3c0.1,0.4,0.3,0.7,0.6,0.9
				c0.3,0.2,0.6,0.4,0.9,0.6c0.7,0.3,1.5,0.2,2.1,0.1c0,0,0.1,0,0.1,0c-0.1,0.2-0.1,0.4-0.1,0.6c0,0.2,0,0.3,0.1,0.5
				c0,0.1,0.2,0.5,1,0.5c0.4,0,0.9,0,1-0.4c0.1-0.2,0-0.4-0.1-0.4c-0.1-0.1-0.1-0.2-0.2-0.4c0-0.1-0.1-0.2-0.1-0.3
				c0-0.2,0-0.4,0.1-0.5c0.1-0.2,0.1-0.3,0.2-0.5c0.1-0.2,0.2-0.3,0.3-0.5c0.1-0.2,0.2-0.4,0.3-0.6c0.1-0.2,0.2-0.5,0.3-0.7
				c0.1-0.3,0.1-0.6,0.1-0.9c0-0.2,0-0.4,0-0.6C934.5,419.3,934.5,419.1,934.4,418.9z M932.4,420.9c-0.1,0.3-0.2,0.5-0.3,0.7
				c-0.1,0.2-0.3,0.3-0.5,0.5c-0.2,0.1-0.4,0.2-0.7,0.2c-0.4,0-0.7-0.1-0.9-0.3c-0.2-0.2-0.3-0.6-0.3-1c0-0.3,0-0.5,0.1-0.8
				c0.1-0.2,0.2-0.5,0.3-0.6c0.1-0.2,0.3-0.3,0.5-0.4c0.2-0.1,0.4-0.2,0.7-0.2c0.4,0,0.7,0.1,0.9,0.3c0.2,0.2,0.3,0.5,0.3,1
				C932.6,420.4,932.5,420.6,932.4,420.9z"/>
			<path class="st0" d="M941,423c0.3,0.2,0.6,0.4,0.9,0.6c0.7,0.3,1.5,0.2,2.1,0.1c0,0,0.1,0,0.1,0c-0.1,0.2-0.1,0.4-0.1,0.6
				c0,0.2,0,0.3,0.1,0.5c0,0.1,0.2,0.5,1,0.5c0.4,0,0.9,0,1-0.4c0.1-0.2,0-0.4-0.1-0.4c-0.1-0.1-0.1-0.2-0.2-0.4
				c0-0.1-0.1-0.2-0.1-0.3c0-0.2,0-0.4,0.1-0.5c0.1-0.2,0.1-0.3,0.2-0.5c0.1-0.2,0.2-0.3,0.3-0.5c0.1-0.2,0.2-0.4,0.3-0.6
				c0.1-0.2,0.2-0.5,0.3-0.7c0.1-0.3,0.1-0.6,0.1-0.9c0-0.2,0-0.4,0-0.6c0-0.2-0.1-0.3-0.1-0.5c-0.1-0.4-0.5-0.9-1-1.3
				c-0.4-0.3-1.1-0.5-1.9-0.5c-0.6,0-1.2,0.1-1.7,0.3c-0.5,0.2-0.9,0.5-1.2,0.8c-0.3,0.4-0.6,0.8-0.7,1.2c-0.2,0.4-0.3,0.9-0.3,1.4
				c0,0.5,0.1,0.9,0.2,1.3C940.5,422.5,940.7,422.8,941,423z M944.9,420.9c-0.1,0.2-0.2,0.5-0.3,0.7c-0.1,0.2-0.3,0.3-0.5,0.5
				c-0.2,0.1-0.4,0.2-0.7,0.2c-0.4,0-0.7-0.1-0.9-0.3c-0.2-0.2-0.3-0.6-0.3-1c0-0.3,0-0.5,0.1-0.8c0.1-0.2,0.2-0.5,0.3-0.6
				c0.1-0.2,0.3-0.3,0.5-0.4c0.2-0.1,0.4-0.2,0.7-0.2c0.4,0,0.7,0.1,0.9,0.3c0.2,0.2,0.3,0.5,0.3,1C945,420.4,945,420.6,944.9,420.9
				z"/>
			<path class="st0" d="M954,413.4c-0.2-0.2-0.4-0.3-0.7-0.3h-15.1v-9.9l2,5c0.2,0.5,0.8,0.8,1.3,0.6c0.5-0.2,0.8-0.8,0.6-1.3
				l-3.9-10.1c-0.2-0.5-0.7-0.7-1.1-0.6c-0.5,0.1-0.8,0.5-0.8,1v15.3h-15.1c-0.3,0-0.5,0.1-0.7,0.3c-0.2,0.2-0.3,0.4-0.3,0.7l0,33.5
				c0,0.3,0.1,0.5,0.3,0.7c0.2,0.2,0.4,0.3,0.7,0.3h0l15.1-0.1v9.9l-2-5c-0.2-0.5-0.8-0.8-1.3-0.6c-0.5,0.2-0.8,0.8-0.6,1.3
				l3.9,10.1c0.2,0.4,0.5,0.6,0.9,0.6c0.1,0,0.1,0,0.2,0c0.5-0.1,0.8-0.5,0.8-1v-15.3l15.1-0.1c0.6,0,1-0.5,1-1l0-33.4
				C954.3,413.9,954.2,413.6,954,413.4z M940.1,446.5L944,434l0,12.5H940.1z M952.3,446.5l-6.3,0l0.1-19.2c0-0.3-0.1-0.5-0.3-0.7
				c-0.2-0.2-0.5-0.3-0.7-0.3c-0.4,0-0.8,0.3-1,0.7l-6.1,19.5l-7.5,0l5.9-18.9c0.1-0.3,0-0.6-0.2-0.9c-0.2-0.3-0.5-0.4-0.8-0.4h-6.3
				c-0.6,0-1,0.5-1,1l-0.1,19.2l-5.9,0l0-31.5h30.2L952.3,446.5z M930.1,440.9l0-12.5h3.9L930.1,440.9z"/>
		</g>
	</g>
	<g>
		<g>
			<path class="st0" d="M1046.6,418.9c-0.1-0.4-0.5-0.9-1-1.3c-0.4-0.3-1.1-0.5-1.9-0.5c-0.6,0-1.2,0.1-1.7,0.3
				c-0.5,0.2-0.9,0.5-1.2,0.8c-0.3,0.3-0.6,0.8-0.7,1.2c-0.2,0.4-0.3,0.9-0.3,1.4c0,0.5,0.1,0.9,0.2,1.3c0.1,0.4,0.3,0.7,0.6,0.9
				c0.3,0.2,0.6,0.4,0.9,0.6c0.7,0.3,1.5,0.2,2.1,0.1c0,0,0.1,0,0.1,0c-0.1,0.2-0.1,0.4-0.1,0.6c0,0.2,0,0.3,0.1,0.5
				c0,0.1,0.2,0.5,1,0.5c0.4,0,0.9,0,1-0.4c0.1-0.2,0-0.4-0.1-0.4c-0.1-0.1-0.1-0.2-0.2-0.4c0-0.1-0.1-0.2-0.1-0.3
				c0-0.2,0-0.4,0.1-0.5c0.1-0.2,0.1-0.3,0.2-0.5c0.1-0.2,0.2-0.3,0.3-0.5c0.1-0.2,0.2-0.4,0.3-0.6c0.1-0.2,0.2-0.5,0.3-0.7
				c0.1-0.3,0.1-0.6,0.1-0.9c0-0.2,0-0.4,0-0.6C1046.7,419.3,1046.6,419.1,1046.6,418.9z M1044.6,420.9c-0.1,0.3-0.2,0.5-0.3,0.7
				c-0.1,0.2-0.3,0.3-0.5,0.5c-0.2,0.1-0.4,0.2-0.7,0.2c-0.4,0-0.7-0.1-0.9-0.3c-0.2-0.2-0.3-0.6-0.3-1c0-0.3,0-0.5,0.1-0.8
				c0.1-0.2,0.2-0.5,0.3-0.6c0.1-0.2,0.3-0.3,0.5-0.4c0.2-0.1,0.4-0.2,0.7-0.2c0.4,0,0.7,0.1,0.9,0.3c0.2,0.2,0.3,0.5,0.3,1
				C1044.7,420.3,1044.7,420.6,1044.6,420.9z"/>
			<path class="st0" d="M1053.1,423c0.3,0.2,0.6,0.4,0.9,0.6c0.7,0.3,1.5,0.2,2.1,0.1c0,0,0.1,0,0.1,0c-0.1,0.2-0.1,0.4-0.1,0.6
				c0,0.2,0,0.3,0.1,0.5c0,0.1,0.2,0.5,1,0.5c0.4,0,0.9,0,1-0.4c0.1-0.2,0-0.4-0.1-0.4c-0.1-0.1-0.1-0.2-0.2-0.4
				c0-0.1-0.1-0.2-0.1-0.3c0-0.2,0-0.4,0.1-0.5c0.1-0.2,0.1-0.3,0.2-0.5c0.1-0.2,0.2-0.3,0.3-0.5c0.1-0.2,0.2-0.4,0.3-0.6
				c0.1-0.2,0.2-0.5,0.3-0.7c0.1-0.3,0.1-0.6,0.1-0.9c0-0.2,0-0.4,0-0.6c0-0.2-0.1-0.3-0.1-0.5c-0.1-0.4-0.5-0.9-1-1.3
				c-0.4-0.3-1.1-0.5-1.9-0.5c-0.6,0-1.2,0.1-1.7,0.3c-0.5,0.2-0.9,0.5-1.2,0.8c-0.3,0.4-0.6,0.8-0.7,1.2c-0.2,0.4-0.3,0.9-0.3,1.4
				c0,0.5,0.1,0.9,0.2,1.3C1052.7,422.5,1052.9,422.8,1053.1,423z M1057,420.9c-0.1,0.2-0.2,0.5-0.3,0.7c-0.1,0.2-0.3,0.3-0.5,0.5
				c-0.2,0.1-0.4,0.2-0.7,0.2c-0.4,0-0.7-0.1-0.9-0.3c-0.2-0.2-0.3-0.6-0.3-1c0-0.3,0-0.5,0.1-0.8c0.1-0.2,0.2-0.5,0.3-0.6
				c0.1-0.2,0.3-0.3,0.5-0.4c0.2-0.1,0.4-0.2,0.7-0.2c0.4,0,0.7,0.1,0.9,0.3c0.2,0.2,0.3,0.5,0.3,1
				C1057.2,420.3,1057.1,420.6,1057,420.9z"/>
			<path class="st0" d="M1066.2,413.4c-0.2-0.2-0.4-0.3-0.7-0.3h-15.1v-9.9l2,5c0.2,0.5,0.8,0.8,1.3,0.6c0.5-0.2,0.8-0.8,0.6-1.3
				l-3.9-10.1c-0.2-0.5-0.7-0.7-1.1-0.6c-0.5,0.1-0.8,0.5-0.8,1v15.3h-15.1c-0.3,0-0.5,0.1-0.7,0.3c-0.2,0.2-0.3,0.4-0.3,0.7l0,33.5
				c0,0.3,0.1,0.5,0.3,0.7c0.2,0.2,0.4,0.3,0.7,0.3h0l15.1-0.1v9.9l-2-5c-0.2-0.5-0.8-0.8-1.3-0.6c-0.5,0.2-0.8,0.8-0.6,1.3
				l3.9,10.1c0.2,0.4,0.5,0.6,0.9,0.6c0.1,0,0.1,0,0.2,0c0.5-0.1,0.8-0.5,0.8-1v-15.3l15.1-0.1c0.6,0,1-0.5,1-1l0-33.4
				C1066.5,413.9,1066.4,413.6,1066.2,413.4z M1052.3,446.5l3.9-12.5l0,12.5H1052.3z M1064.4,446.5l-6.3,0l0.1-19.2
				c0-0.3-0.1-0.5-0.3-0.7c-0.2-0.2-0.5-0.3-0.7-0.3c-0.4,0-0.8,0.3-1,0.7l-6.1,19.5l-7.5,0l5.9-18.9c0.1-0.3,0-0.6-0.2-0.9
				c-0.2-0.3-0.5-0.4-0.8-0.4h-6.3c-0.6,0-1,0.5-1,1l-0.1,19.2l-5.9,0l0-31.5h30.2L1064.4,446.5z M1042.2,440.9l0-12.5h3.9
				L1042.2,440.9z"/>
		</g>
	</g>
	<g>
		<g>
			<g>
				<path class="st1" d="M297.2,377.2c-0.4,0.3-0.8,0.6-1.2,0.8c-0.4,0.2-0.8,0.3-1.2,0.4c-0.4,0.1-0.8,0.1-1.3,0.1
					c-0.7,0-1.4-0.1-1.9-0.4c-0.6-0.3-1-0.6-1.4-1.1c-0.4-0.5-0.6-1-0.8-1.6s-0.3-1.3-0.3-2.1c0-0.7,0.1-1.4,0.2-2
					c0.1-0.7,0.3-1.3,0.6-1.9c0.3-0.6,0.6-1.2,1-1.7s0.8-1,1.3-1.3c0.5-0.4,1-0.7,1.6-0.9c0.6-0.2,1.2-0.3,1.8-0.3
					c0.4,0,0.8,0,1.1,0.1c0.3,0.1,0.7,0.2,0.9,0.4c0.3,0.1,0.5,0.3,0.8,0.6c0.2,0.2,0.4,0.5,0.6,0.7l-0.4,0.4
					c-0.1,0.1-0.2,0.1-0.3,0.1c-0.1,0-0.2-0.1-0.3-0.2c-0.1-0.1-0.3-0.3-0.5-0.4c-0.2-0.2-0.5-0.3-0.8-0.4c-0.3-0.1-0.8-0.2-1.3-0.2
					c-0.7,0-1.4,0.2-2,0.6c-0.6,0.4-1.2,0.9-1.6,1.6c-0.5,0.7-0.8,1.4-1.1,2.3c-0.3,0.9-0.4,1.8-0.4,2.7c0,0.6,0.1,1.2,0.2,1.7
					c0.1,0.5,0.3,1,0.6,1.3c0.3,0.4,0.6,0.7,1.1,0.9c0.4,0.2,0.9,0.3,1.5,0.3c0.5,0,0.9,0,1.2-0.1c0.4-0.1,0.7-0.2,1-0.4
					c0.3-0.1,0.5-0.3,0.7-0.5c0.2-0.2,0.4-0.3,0.6-0.5c0.2-0.1,0.3-0.3,0.4-0.4c0.1-0.1,0.2-0.1,0.3-0.1c0.1,0,0.2,0,0.3,0.1
					l0.3,0.3C298.1,376.5,297.6,376.9,297.2,377.2z"/>
				<path class="st1" d="M311.2,373.8c-0.3,0.7-0.7,1.3-1.1,1.9c-0.4,0.6-0.8,1.1-1.3,1.5c-0.5,0.4-0.9,0.7-1.4,0.9
					c-0.5,0.2-1,0.3-1.5,0.3c-0.5,0-1-0.1-1.4-0.3c-0.4-0.2-0.8-0.5-1-0.9c-0.3-0.4-0.5-0.9-0.6-1.4c-0.1-0.6-0.2-1.2-0.2-1.9
					c0-0.8,0.1-1.5,0.3-2.2c0.2-0.7,0.5-1.4,0.8-2.1c0.3-0.6,0.8-1.2,1.2-1.8c0.5-0.5,1-1,1.6-1.4c0.6-0.4,1.2-0.7,1.9-0.9
					c0.7-0.2,1.4-0.3,2.1-0.3c0.5,0,1,0,1.4,0.1s0.9,0.2,1.3,0.5l-1.5,12.5h-0.6c-0.2,0-0.3,0-0.4-0.1c-0.1-0.1-0.1-0.2-0.1-0.3
					L311.2,373.8z M312,366.4c-0.3-0.1-0.5-0.2-0.8-0.2c-0.3,0-0.6-0.1-0.8-0.1c-0.9,0-1.7,0.2-2.5,0.6c-0.8,0.4-1.5,1-2.1,1.7
					s-1.1,1.5-1.4,2.4c-0.4,0.9-0.5,1.9-0.5,2.9c0,1.2,0.2,2.1,0.6,2.7c0.4,0.6,1,1,1.8,1c0.5,0,1-0.1,1.5-0.4
					c0.5-0.3,0.9-0.7,1.4-1.2c0.4-0.5,0.8-1.1,1.2-1.8c0.4-0.7,0.7-1.5,1-2.3L312,366.4z"/>
				<path class="st1" d="M320.7,366.7l-1.4,11.3l-0.5,3c-0.1,0.4-0.3,0.5-0.6,0.5h-0.4l1.8-14.9l-1.6-0.1c-0.1,0-0.2-0.1-0.2-0.1
					c-0.1-0.1-0.1-0.1-0.1-0.2l0.1-0.5h2l0.2-1.6c0.1-0.7,0.3-1.4,0.5-1.9c0.2-0.6,0.6-1,0.9-1.4c0.4-0.4,0.8-0.6,1.3-0.8
					c0.5-0.2,1-0.3,1.5-0.3c0.2,0,0.5,0,0.7,0.1c0.2,0,0.5,0.1,0.7,0.2l-0.1,0.6c0,0.1-0.1,0.1-0.1,0.1c-0.1,0-0.1,0-0.2,0
					c-0.1,0-0.2,0-0.4-0.1c-0.1,0-0.3,0-0.5,0c-0.4,0-0.8,0.1-1.1,0.2c-0.4,0.1-0.7,0.3-0.9,0.6c-0.3,0.3-0.5,0.6-0.7,1.1
					c-0.2,0.5-0.3,1-0.4,1.7l-0.2,1.6h3.7l-0.1,0.9H320.7z"/>
				<path class="st1" d="M336.5,375.9c-0.4,0.4-0.8,0.8-1.2,1.2c-0.4,0.3-0.8,0.6-1.2,0.8c-0.4,0.2-0.8,0.4-1.3,0.5
					c-0.4,0.1-0.9,0.1-1.4,0.1c-0.7,0-1.4-0.1-1.9-0.4s-1-0.6-1.4-1c-0.4-0.4-0.7-1-0.9-1.6c-0.2-0.6-0.3-1.3-0.3-2.1
					c0-0.6,0.1-1.3,0.2-2c0.1-0.7,0.3-1.3,0.6-1.9c0.3-0.6,0.6-1.2,0.9-1.7c0.4-0.5,0.8-1,1.3-1.4c0.5-0.4,1-0.7,1.6-0.9
					c0.6-0.2,1.2-0.3,1.9-0.3c0.6,0,1.2,0.1,1.6,0.3c0.4,0.2,0.8,0.4,1.1,0.7s0.5,0.6,0.6,0.9c0.1,0.3,0.2,0.6,0.2,0.9
					c0,0.4,0,0.7-0.1,1c-0.1,0.3-0.3,0.6-0.5,0.9c-0.2,0.3-0.6,0.6-1,0.8c-0.4,0.3-0.9,0.5-1.6,0.7c-0.6,0.2-1.4,0.4-2.3,0.6
					c-0.9,0.2-2,0.3-3.2,0.5c0,0.2,0,0.4,0,0.5c0,0.2,0,0.4,0,0.5c0,1.3,0.3,2.3,0.9,3c0.6,0.7,1.5,1.1,2.6,1.1c0.5,0,0.9,0,1.2-0.1
					c0.4-0.1,0.7-0.2,1-0.4c0.3-0.2,0.5-0.3,0.8-0.5c0.2-0.2,0.4-0.3,0.6-0.5c0.2-0.2,0.3-0.3,0.4-0.4c0.1-0.1,0.2-0.1,0.3-0.1
					s0.2,0,0.3,0.1L336.5,375.9z M333.3,366.1c-0.7,0-1.3,0.1-1.9,0.4s-1.1,0.7-1.5,1.2c-0.4,0.5-0.8,1.1-1.1,1.7
					c-0.3,0.6-0.5,1.3-0.6,2c1.1-0.1,2.1-0.3,2.8-0.4s1.5-0.3,2-0.5c0.6-0.2,1-0.4,1.4-0.6c0.3-0.2,0.6-0.4,0.8-0.6
					c0.2-0.2,0.3-0.4,0.4-0.7c0.1-0.2,0.1-0.5,0.1-0.7c0-0.2,0-0.4-0.1-0.6c-0.1-0.2-0.2-0.4-0.4-0.6c-0.2-0.2-0.4-0.3-0.7-0.4
					C334.1,366.2,333.8,366.1,333.3,366.1z"/>
			</g>
			<g>
				<g>
					<rect x="314.6" y="408.7" class="st1" width="108.9" height="53"/>
					<g>
						<polygon class="st2" points="339,408.7 327.4,408.7 330.9,400.8 342.5,400.8 						"/>
						<polygon class="st3" points="350.5,408.7 339,408.7 342.5,400.8 354,400.8 						"/>
						<polygon class="st4" points="362.1,408.7 350.5,408.7 354,400.8 365.6,400.8 						"/>
						<polygon class="st5" points="373.6,408.7 362.1,408.7 365.6,400.8 377.1,400.8 						"/>
						<polygon class="st6" points="385.2,408.7 373.7,408.7 377.1,400.8 388.7,400.8 						"/>
						<polygon class="st7" points="396.7,408.7 385.2,408.7 388.7,400.8 400.3,400.8 						"/>
						<polygon class="st8" points="408.3,408.7 396.8,408.7 400.3,400.8 411.8,400.8 						"/>
						<polygon class="st9" points="423.4,408.7 408.3,408.7 411.8,400.8 423.4,400.8 						"/>
						<polygon class="st9" points="327.4,408.7 314.6,408.7 314.6,400.8 330.9,400.8 						"/>
					</g>
					<g>
						<polygon class="st2" points="338.2,390.9 326.7,391.8 330.9,399.4 342.4,398.4 						"/>
						<polygon class="st3" points="349.7,389.9 338.2,390.8 342.4,398.4 353.9,397.4 						"/>
						<polygon class="st4" points="361.2,388.9 349.7,389.9 353.9,397.4 365.4,396.4 						"/>
						<polygon class="st5" points="372.7,387.9 361.2,388.9 365.4,396.4 376.9,395.4 						"/>
						<polygon class="st6" points="384.2,386.9 372.8,387.9 376.9,395.4 388.4,394.4 						"/>
						<polygon class="st7" points="395.7,385.9 384.3,386.9 388.4,394.4 399.9,393.4 						"/>
						<polygon class="st8" points="407.3,384.9 395.8,385.9 399.9,393.4 411.4,392.4 						"/>
						<polygon class="st9" points="422.3,383.6 407.3,384.9 411.4,392.4 423,391.4 						"/>
						<polygon class="st9" points="326.7,391.8 313.9,393 314.6,400.8 330.9,399.4 						"/>
					</g>
					<g>
						<g>
							<path class="st9" d="M322.5,442.3h1.6h2.6c0.8,0,1.6,0.1,2.2,0.3c0.6,0.2,1.1,0.4,1.5,0.8s0.8,0.7,1,1.1
								c0.3,0.4,0.4,0.8,0.6,1.3c0.1,0.4,0.2,0.9,0.2,1.3c0,0.4,0,0.8-0.1,1.2c-0.1,0.8-0.3,1.5-0.7,2.2c-0.4,0.7-0.9,1.4-1.5,1.9
								c-0.6,0.6-1.4,1-2.2,1.3c-0.9,0.3-1.8,0.5-2.9,0.5h-2.3h-1.6L322.5,442.3z M322.6,452.8h2c0.7,0,1.4-0.1,2-0.3
								c0.6-0.2,1.2-0.5,1.7-0.8c0.5-0.4,1-0.8,1.3-1.4c0.3-0.6,0.6-1.2,0.7-2c0-0.3,0-0.5,0-0.9c0-0.3-0.1-0.6-0.1-1
								c-0.1-0.3-0.2-0.7-0.4-1c-0.2-0.3-0.4-0.6-0.7-0.8c-0.3-0.2-0.7-0.4-1.2-0.6c-0.5-0.2-1-0.2-1.7-0.2h-2.4L322.6,452.8z"/>
							<path class="st9" d="M335.3,442.3h1.6l-1.7,12h-1.6L335.3,442.3z"/>
							<path class="st9" d="M340,442.3h1.6h0.5l5.2,9.8h0l1.4-9.8h1.6l-1.7,12H347h-0.4l-5.3-9.8h0l-1.4,9.8h-1.6L340,442.3z"/>
							<path class="st9" d="M353.4,442.3h1.6h6.1l-0.2,1.5h-6.1l-0.5,3.6h5.7l-0.2,1.5h-5.7l-0.5,3.8h6.4l-0.2,1.5h-6.5h-1.6
								L353.4,442.3z"/>
							<path class="st9" d="M363.8,442.3h1.6h2.7c0.8,0,1.4,0.1,1.9,0.3c0.5,0.2,0.8,0.5,1.1,0.8c0.2,0.3,0.4,0.7,0.4,1.1
								c0.1,0.4,0.1,0.8,0,1.2c-0.1,0.4-0.2,0.8-0.4,1.1c-0.2,0.4-0.4,0.7-0.7,1c-0.3,0.3-0.6,0.5-1,0.7c-0.4,0.2-0.8,0.3-1.3,0.4
								l2.6,5.5h-2l-2.3-5.3h-1.8l-0.7,5.3h-1.6L363.8,442.3z M364.7,447.6h2.1c0.3,0,0.6,0,0.9-0.1c0.3-0.1,0.6-0.1,0.9-0.3
								c0.3-0.1,0.5-0.3,0.7-0.6c0.2-0.3,0.3-0.6,0.4-1c0.1-0.4,0-0.7-0.1-1c-0.1-0.3-0.3-0.4-0.5-0.6c-0.2-0.1-0.5-0.2-0.8-0.3
								c-0.3-0.1-0.6-0.1-0.9-0.1h-2.1L364.7,447.6z"/>
						</g>
					</g>
					<line class="st10" x1="379.9" y1="436.3" x2="379.9" y2="457.1"/>
					<g>
						<path class="st9" d="M387.1,445.3c0.7-0.1,1.2-0.2,1.3-0.2c0.2,0,0.3,0,0.3,0.1c0.1,0.1,0.1,0.2,0.1,0.4
							c0,0.1-0.1,0.2-0.1,0.2c-0.1,0-0.3,0.1-0.7,0.1l-0.8,0.1l0,1.2c0,0.8,0,1.4,0.1,1.8l0,0.6l1.1-0.1c0.8-0.1,1.2-0.1,1.2-0.1
							c0.1,0,0,0.2-0.1,0.4l-0.2,0.4l-1.9,0.2l0,0.3c0,0.2-0.1,0.3-0.2,0.4c-0.1,0-0.3,0-0.4-0.2c-0.1-0.1-0.1-0.2-0.2-0.2
							c-0.1,0-0.1,0-0.3,0c-0.5,0.1-0.8,0.2-0.9,0.2c-0.1,0-0.2,0-0.3-0.2c-0.1-0.1-0.1-0.3,0-0.4c0.1-0.1,0.2-0.2,0.3-0.2
							c0.1,0,0.3-0.1,0.7-0.2c0.4-0.1,0.6-0.2,0.6-0.3c0,0,0-0.6,0-1.6c0-0.9-0.1-1.4-0.1-1.6c-0.1-0.2-0.2-0.2-0.5-0.2
							c-0.1,0-0.3,0-0.6,0.1c-0.5,0.1-0.8,0.1-0.9,0.1c-0.2,0-0.3-0.1-0.3-0.3c0-0.2,0.1-0.3,0.3-0.3
							C384.9,445.6,385.7,445.5,387.1,445.3z"/>
						<path class="st9" d="M390,445.5c0-0.1,0.1-0.1,0.2-0.1c0.1,0,0.2,0,0.3,0.1c0.1,0.1,0.1,0.3,0.1,0.6c0,0.3,0.1,0.6,0.1,0.9
							c0,0.3,0.1,0.4,0.1,0.4c0.1,0,0.3-0.1,0.5-0.3c0.3-0.2,0.5-0.3,0.7-0.5c0.2-0.2,0.3-0.3,0.4-0.3c0.1,0,0.1,0,0.2,0.1
							c0.1,0.1,0.2,0.3,0.2,0.5c0,0.1,0,0.2-0.1,0.3c0,0.1-0.1,0.1-0.2,0.1c-0.1,0-0.2,0-0.3,0.1c-0.1,0-0.2,0.1-0.4,0.2
							c-0.2,0.1-0.3,0.2-0.4,0.2s-0.2,0.1-0.3,0.2c0,0,0,0,0,0c0,0,0,0,0,0c0,0,0,0,0,0.1c0,0,0,0,0,0.1c0,0,0,0,0,0.1
							c0,0,0,0.1,0,0.1c0,0,0.1,0.1,0.1,0.1c0,0.1,0.1,0.1,0.1,0.2c0.1,0.1,0.1,0.1,0.2,0.2c0.1,0.1,0.2,0.2,0.3,0.3
							c0.5,0.5,0.7,0.8,0.6,1c-0.1,0.2-0.5,0-1.1-0.6c-0.4-0.4-0.6-0.6-0.7-0.5c-0.1,0.1-0.1,0.3-0.1,0.6c0,0.2,0,0.4,0,0.5
							c0,0.1-0.1,0.1-0.2,0.2c-0.2,0.1-0.3,0.1-0.4,0c0,0-0.1,0-0.1-0.1c0,0,0,0,0-0.1c0,0,0-0.1,0-0.1c0,0,0-0.1,0-0.1
							c0-0.1,0-0.1,0-0.2c0-0.1,0-0.2,0-0.3c0-0.1,0-0.2,0-0.4c0-0.2,0-0.3,0-0.5c0-0.2,0-0.4,0-0.6c0-0.3,0-0.5,0-0.8
							C390,446.2,390,445.6,390,445.5z"/>
						<path class="st9" d="M394.2,447c0.1-0.1,0.4-0.2,0.7-0.2c0.3,0,0.6,0.1,0.8,0.2c0.1,0.1,0.2,0.1,0.2,0.2
							c0,0.1,0.1,0.2,0.1,0.3c0,0.2,0,0.4-0.1,0.6c-0.1,0.2-0.2,0.3-0.4,0.4c-0.2,0.1-0.3,0.2-0.5,0.3c-0.2,0.1-0.3,0.2-0.4,0.3
							c-0.1,0.1-0.2,0.2-0.2,0.3c0,0.1,0,0.3,0.2,0.3c0.1,0.1,0.2,0.1,0.4,0c0.2,0,0.4-0.2,0.7-0.5c0.3-0.3,0.4-0.5,0.5-0.7
							c0.1-0.1,0.1-0.2,0.2-0.3c0.1-0.1,0.2-0.1,0.2,0c0.1,0,0.1,0.1,0.1,0.2c0,0.2,0,0.4-0.2,0.8c-0.2,0.3-0.4,0.5-0.7,0.7
							c-0.3,0.2-0.6,0.3-0.9,0.3c-0.3,0.1-0.5,0.1-0.7,0c-0.2-0.1-0.3-0.2-0.4-0.3c-0.1-0.1-0.1-0.3-0.1-0.6c0-0.3-0.1-0.4-0.2-0.5
							c-0.2-0.2-0.2-0.3,0-0.5c0.1-0.1,0.2-0.3,0.3-0.7C394,447.3,394.1,447.1,394.2,447z M395.1,447.6c-0.1-0.2-0.2-0.3-0.3-0.2
							c-0.2,0.1-0.3,0.3-0.4,0.6c0,0,0,0,0,0c0,0.2,0,0.3,0.1,0.3c0.1,0,0.2-0.1,0.4-0.3C395.1,447.9,395.2,447.7,395.1,447.6z"/>
						<path class="st9" d="M396.8,444.6c0.1-0.1,0.1-0.1,0.1-0.1c0,0,0.1,0,0.3,0.1c0.1,0,0.2,0.1,0.2,0.3c0,0.1,0.1,0.5,0.1,1.1
							c0.1,0.8,0.1,1.3,0.2,1.3c0.1,0,0.2,0,0.5-0.2c0.2-0.1,0.5-0.2,0.9-0.3c0.4,0,0.6,0,0.8,0.1c0.2,0.1,0.4,0.2,0.5,0.4l0.3,0.2
							l-0.2,0.5c-0.1,0.3-0.3,0.6-0.7,0.9c-0.3,0.3-0.7,0.6-1,0.7c-0.3,0.2-0.5,0.3-0.6,0.3c-0.1,0.1-0.1,0.2-0.1,0.3
							c0,0.2-0.1,0.4-0.3,0.5c-0.2,0.1-0.3,0.1-0.5-0.1c-0.1-0.1-0.2-1.1-0.3-3C396.7,445.7,396.7,444.7,396.8,444.6z M399.6,447.3
							c-0.2-0.1-0.4-0.1-0.7-0.1c-0.2,0.1-0.5,0.2-0.7,0.3c-0.2,0.2-0.3,0.3-0.4,0.4c-0.1,0.2-0.1,0.3-0.2,0.3
							c-0.1,0.1-0.1,0.2-0.1,0.5c0,0.2,0.1,0.4,0.1,0.4c0.2,0.1,0.5,0,1-0.4c0.5-0.3,0.8-0.7,0.9-1c0.1-0.2,0.1-0.3,0.1-0.3
							C399.8,447.4,399.7,447.4,399.6,447.3z"/>
						<path class="st9" d="M401.2,446.3c0.1-0.1,0.1-0.2,0.2-0.2c0.1,0,0.1,0,0.3,0.1c0.1,0.1,0.1,0.1,0.2,0.2c0,0.1,0,0.3,0,0.7
							c0,0.5-0.1,0.9,0,1.2c0,0.3,0.1,0.5,0.1,0.6c0.1,0,0.1,0,0.3-0.2c0.1-0.2,0.3-0.5,0.6-1.1c0.2-0.6,0.3-0.9,0.3-1.1
							c0-0.1,0-0.2,0.1-0.3c0.1,0,0.2-0.1,0.4-0.1l0.3,0l0,1.2c0,0.8,0.1,1.2,0.2,1.2c0,0,0.1-0.1,0.2-0.2c0.1-0.1,0.2-0.2,0.3-0.2
							c0.1,0,0.1,0.2,0.1,0.3c0,0.2-0.1,0.4-0.2,0.6c-0.1,0.1-0.2,0.3-0.4,0.3c-0.2,0.1-0.4,0.1-0.6,0c-0.2,0-0.3-0.1-0.3-0.3
							c0-0.4-0.2-0.4-0.6,0.1c-0.3,0.3-0.5,0.5-0.8,0.6c-0.1,0-0.2,0-0.2,0c-0.1,0-0.1,0-0.2,0c-0.1,0-0.1,0-0.1-0.1
							c0,0-0.1-0.1-0.1-0.1c0-0.1-0.1-0.1-0.1-0.2c0-0.1,0-0.2,0-0.3c0-0.1,0-0.3,0-0.4c0-0.2,0-0.3,0-0.6c0-0.1,0-0.3,0-0.4
							c0-0.2,0-0.3,0-0.4c0-0.1,0-0.2,0-0.3c0-0.1,0-0.2,0-0.2c0-0.1,0-0.1,0-0.2C401.1,446.5,401.1,446.4,401.2,446.3
							C401.1,446.4,401.1,446.3,401.2,446.3z"/>
						<path class="st9" d="M404.8,444.5c0-0.1,0.1-0.1,0.2-0.1c0.1,0,0.2,0,0.3,0.1c0.1,0.1,0.1,0.3,0.1,0.6c0,0.3,0.1,0.6,0.1,0.9
							c0,0.3,0.1,0.4,0.1,0.4c0.1,0,0.3-0.1,0.5-0.3c0.3-0.2,0.5-0.3,0.7-0.5c0.2-0.2,0.3-0.3,0.4-0.3c0.1,0,0.1,0,0.2,0.1
							c0.1,0.1,0.2,0.3,0.2,0.5c0,0.1,0,0.2-0.1,0.3c0,0.1-0.1,0.1-0.2,0.1c-0.1,0-0.2,0-0.3,0.1c-0.1,0-0.2,0.1-0.4,0.2
							c-0.2,0.1-0.3,0.2-0.4,0.2c-0.1,0-0.2,0.1-0.3,0.2c0,0,0,0,0,0c0,0,0,0,0,0c0,0,0,0,0,0.1c0,0,0,0,0,0.1c0,0,0,0,0,0.1
							c0,0,0,0.1,0,0.1c0,0,0.1,0.1,0.1,0.1c0,0.1,0.1,0.1,0.1,0.2c0.1,0.1,0.1,0.1,0.2,0.2c0.1,0.1,0.2,0.2,0.3,0.3
							c0.5,0.5,0.7,0.8,0.6,1c-0.1,0.2-0.5,0-1.1-0.6c-0.4-0.4-0.6-0.6-0.7-0.5c-0.1,0.1-0.1,0.3-0.1,0.6c0,0.2,0,0.4,0,0.5
							c0,0.1-0.1,0.1-0.2,0.2c-0.2,0.1-0.3,0.1-0.4,0c0,0-0.1,0-0.1-0.1c0,0,0,0,0-0.1c0,0,0-0.1,0-0.1c0,0,0-0.1,0-0.1
							c0-0.1,0-0.1,0-0.2c0-0.1,0-0.2,0-0.3c0-0.1,0-0.2,0-0.4c0-0.2,0-0.3,0-0.5c0-0.2,0-0.4,0-0.6c0-0.3,0-0.5,0-0.8
							C404.8,445.2,404.8,444.6,404.8,444.5z"/>
						<path class="st9" d="M408.4,445.8c0.1-0.1,0.1-0.2,0.2-0.2c0.1,0,0.1,0,0.3,0.1c0.1,0.1,0.1,0.1,0.2,0.2c0,0.1,0,0.3,0,0.7
							c0,0.5-0.1,0.9,0,1.2c0,0.3,0.1,0.5,0.1,0.6c0.1,0,0.1,0,0.3-0.2c0.1-0.2,0.3-0.5,0.6-1.1c0.2-0.6,0.3-0.9,0.3-1.1
							c0-0.1,0-0.2,0.1-0.3c0.1,0,0.2-0.1,0.4-0.1l0.3,0l0,1.2c0,0.8,0.1,1.2,0.2,1.2c0,0,0.1-0.1,0.2-0.2c0.1-0.1,0.2-0.2,0.3-0.2
							c0.1,0,0.1,0.2,0.1,0.3c0,0.2-0.1,0.4-0.2,0.6c-0.1,0.1-0.2,0.3-0.4,0.3c-0.2,0.1-0.4,0.1-0.6,0c-0.2,0-0.3-0.1-0.3-0.3
							c0-0.4-0.2-0.4-0.6,0.1c-0.3,0.3-0.5,0.5-0.8,0.6c-0.1,0-0.2,0-0.2,0c-0.1,0-0.1,0-0.2,0c-0.1,0-0.1,0-0.1-0.1
							c0,0-0.1-0.1-0.1-0.1c0-0.1-0.1-0.1-0.1-0.2c0-0.1,0-0.2,0-0.3c0-0.1,0-0.3,0-0.4c0-0.2,0-0.3,0-0.6c0-0.1,0-0.3,0-0.4
							c0-0.2,0-0.3,0-0.4c0-0.1,0-0.2,0-0.3c0-0.1,0-0.2,0-0.2c0-0.1,0-0.1,0-0.2C408.3,446,408.3,445.9,408.4,445.8
							C408.4,445.9,408.4,445.8,408.4,445.8z"/>
						<path class="st9" d="M412.1,445c0.2-0.1,0.3-0.2,0.4-0.1c0.1,0.1,0.2,0.2,0.2,0.5c0,0.2,0.1,0.4,0.1,0.4
							c0.1,0,0.2-0.1,0.3-0.3c0.2-0.2,0.4-0.4,0.7-0.5c0.2-0.1,0.3-0.1,0.4-0.1c0.1,0,0.2,0,0.4,0.1c0.2,0.1,0.3,0.1,0.3,0.2
							c0.1,0.1,0.1,0.1,0.1,0.2c0,0.2-0.1,0.3-0.2,0.3c-0.1,0-0.3,0-0.4-0.1c-0.1-0.1-0.3-0.1-0.4-0.1c-0.3,0.1-0.5,0.5-0.8,1.1
							c-0.2,0.6-0.3,1.2-0.3,1.6c0,0.3,0,0.6-0.1,0.7c-0.1,0.2-0.2,0.3-0.4,0.2l-0.3,0l-0.2-2c-0.1-0.9-0.1-1.5-0.1-1.7
							C412,445.2,412,445.1,412.1,445z"/>
						<path class="st9" d="M416.7,444.8c0.6-0.1,1.1-0.1,1.3-0.1c0.3,0.1,0.5,0.2,0.6,0.4c0.1,0.2,0.1,0.4,0.1,0.6
							c0,0.2,0,0.4-0.1,0.6c-0.1,0.2-0.3,0.5-0.7,0.9c-0.4,0.4-0.6,0.6-0.7,0.6c-0.1,0-0.3,0.1-0.5,0.2c-0.3,0.1-0.5,0.2-0.6,0.1
							c-0.2-0.1-0.4-0.3-0.5-0.6c-0.1-0.3-0.1-0.6-0.1-0.9c0-0.4,0.2-0.7,0.4-1c0.1-0.1,0.2-0.3,0.2-0.4c0.1-0.1,0.1-0.2,0.1-0.3
							c0,0,0.1-0.1,0.1-0.1C416.4,444.8,416.5,444.8,416.7,444.8z M418.1,445.5c-0.1-0.1-0.2-0.2-0.3-0.1c-0.1,0-0.1,0.1-0.2,0.3
							c-0.1,0.1-0.2,0.2-0.2,0.2c0,0-0.1,0-0.2,0c-0.2-0.1-0.4-0.1-0.5-0.1c-0.1,0.1-0.2,0.2-0.3,0.5c-0.1,0.3-0.2,0.5-0.1,0.7
							c0,0.2,0.1,0.3,0.2,0.4c0.1,0.1,0.2,0.1,0.2,0.2c0.1,0,0.2,0,0.3-0.1c0.2-0.1,0.4-0.3,0.7-0.6c0.3-0.3,0.4-0.6,0.6-0.8
							c0.1-0.1,0.1-0.2,0.1-0.3C418.2,445.7,418.1,445.6,418.1,445.5z"/>
					</g>
					<g>
						<path class="st11" d="M321.7,419.1c0,0.1-0.2,0.5-0.7,1.1c-0.4,0.6-0.7,1.1-0.7,1.4c0,0.3-0.1,0.6-0.3,0.9
							c-0.2,0.3-0.4,0.8-0.5,1.5c-0.2,0.7-0.3,1.6-0.3,2.8c0,1.2,0,1.9,0.1,2.3c0.1,0.4,0.2,0.6,0.5,0.9c0.4,0.3,1,0.4,1.8,0.3
							c0.8-0.1,1.4-0.4,1.9-0.9c0.5-0.4,0.8-0.6,1.1-0.6c0.3,0,1.7-1.2,4.2-3.7c2.4-2.4,3.9-3.5,4.4-3.5c0.3,0,0.4,0.2,0.5,0.7
							c0.1,0.4-0.4,1.1-1.4,2.2c-1,1.1-2.5,2.4-4.4,3.9c-2.2,1.7-4,2.9-5.5,3.4c-1.5,0.5-2.9,0.5-4.1-0.1c-0.7-0.4-1.1-0.8-1.3-1.3
							c-0.2-0.5-0.3-1.4-0.3-2.7c0-1.7,0.4-3.5,1.1-5.4c0.7-1.9,1.7-3.6,2.8-5c1.2-1.5,2.4-2.5,3.7-3.1c0.4-0.2,0.8-0.4,1.1-0.6
							c0.3-0.2,0.6-0.4,0.9-0.5c0.3-0.1,0.6-0.2,1-0.4c0.7-0.2,1.2-0.4,1.6-0.4c0.3,0,0.8,0.2,1.5,0.5c0.5,0.2,0.8,0.4,1,0.6
							c0.1,0.2,0.2,0.5,0.1,0.8c-0.1,0.6-0.4,0.9-0.9,1.1c-0.5,0.1-1-0.1-1.4-0.6c-0.3-0.3-0.5-0.5-0.7-0.5c-0.2,0-0.8,0.3-1.8,0.8
							c-0.9,0.5-2,1.2-3.2,2.2C322.3,418.1,321.7,418.7,321.7,419.1z"/>
						<path class="st9" d="M335.8,415.8c0-0.7,0.2-1.4,0.5-2c0.3-0.6,0.7-0.9,1.3-0.8c1,0.1,1.3,1.7,0.9,4.6l-0.8,6.4
							c-0.3,2.2-0.5,4.4-0.6,6.6c0,0.9-0.1,1.5-0.2,1.7c-0.1,0.2-0.3,0.3-0.6,0.4c-0.8,0.1-1.3-0.1-1.5-0.6
							c-0.3-0.7-0.2-3.3,0.3-7.6c0-0.4,0.1-0.8,0.1-1.3C335.6,419.2,335.8,416.8,335.8,415.8z"/>
						<path class="st9" d="M345,419.9c0.8,0,1.4-0.1,1.9-0.2c0.5-0.1,0.8-0.2,1-0.4c0.1-0.1,0.3-0.2,0.5-0.2c0.2,0,0.5,0.1,0.8,0.3
							c0.1,0.1,0.2,0.1,0.3,0.1c0,0,0.1,0.1,0.2,0.3c0.1,0.2,0.1,0.4,0.1,0.7c0,0.3-0.1,0.7-0.2,1.3c-0.1,0.6-0.3,1.3-0.6,2.1
							c-0.5,1.6-0.6,2.6-0.2,3c0.4,0.4,1.2,0.1,2.4-0.9c0.6-0.4,0.9-0.7,1.1-0.8c0.2-0.1,0.3,0,0.4,0.3c0.1,0.3,0,0.7-0.4,1.2
							c-0.3,0.5-0.5,0.8-0.5,0.9c0,0.2-0.3,0.6-1,1.1c-0.5,0.4-1.2,0.6-2,0.7c-0.8,0.1-1.3,0-1.6-0.4c-0.2-0.1-0.3-0.2-0.5-0.1
							c-0.2,0.1-0.4,0.3-0.8,0.6c-1.2,1.1-2.2,1.8-3.3,2.1c-1,0.3-1.8,0.2-2.3-0.4c-0.5-0.6-0.8-1.5-0.9-2.7c-0.1-1.2,0-2.4,0.2-3.4
							c0.2-1,0.5-1.7,0.8-2c0.3-0.3,0.4-0.6,0.4-1c0-0.5,0.5-0.9,1.4-1.4C343.1,420.2,344,419.9,345,419.9z M345.7,424.2
							c0-1.1-0.2-1.8-0.3-2.1c-0.2-0.3-0.5-0.3-1-0.1c-1.1,0.4-2.1,1.5-2.8,3.2c-0.7,1.6-0.9,2.9-0.5,3.7c0.2,0.5,0.6,0.6,1.3,0.4
							c0.4-0.1,1.1-0.6,2-1.5l1.4-1.3L345.7,424.2z"/>
						<path class="st9" d="M355.6,419.7c0.2,0.1,0.4,0.2,0.6,0.1c0.2,0,0.4-0.1,0.6-0.2c0.1-0.1,0.4-0.2,0.9-0.4
							c0.5-0.1,1-0.2,1.6-0.2c0.8,0,1.3,0.1,1.7,0.2c0.3,0.1,0.7,0.4,1.1,0.8c0.6,0.6,1,1.1,1,1.5c0,0.7-0.6,1.8-1.8,3.2
							c-1.2,1.4-2.2,2.3-3.1,2.6l-1.1,0.5l-0.2,8.2h-2.4l-0.2-2.2c-0.1-0.8-0.2-2.3-0.3-4.3c-0.1-2-0.2-3.8-0.3-5.5
							c-0.1-1.6-0.1-2.6-0.2-2.9c-0.1-0.4,0.1-0.9,0.6-1.3C354.7,419.6,355.2,419.5,355.6,419.7z M360.2,421.4
							c-0.2-0.3-0.5-0.4-1-0.3c-0.5,0.1-1,0.3-1.4,0.6c-0.4,0.3-0.7,1-0.9,1.9c-0.2,0.9-0.2,1.5,0.2,1.7c0.3,0.2,0.7,0,1.3-0.6
							c0.6-0.6,1.1-1.2,1.5-1.9C360.2,422,360.3,421.6,360.2,421.4z"/>
						<path class="st9" d="M365,421.4c0-0.1,0-0.4-0.2-0.6c-0.1-0.3-0.2-0.5-0.2-0.6c0-0.1,0-0.2,0.1-0.3c0.3-0.3,0.5-0.8,0.5-1.6
							c0-0.8,0.2-1.3,0.7-1.6c0.6-0.4,1.1-0.6,1.7-0.6c0.5,0,0.9,0.2,1.2,0.6c0.2,0.2,0.3,0.5,0.3,1c0,0.5,0.1,0.8,0.2,0.8
							c4.9,0.5,7.2,2.2,6.9,4.9c-0.2,2-1.4,3.4-3.5,4.2c-1.8,0.5-3.6,1-5.5,1.5c-0.3,1.3-0.4,2.4-0.4,3.3c0,1.1,0.3,2.7,0.9,4.8
							c0,0.1,0.2,0.3,0.5,0.7c0.3,0.4,0.4,0.7,0.4,1c0,0.5-0.5,0.8-1.5,0.8c-0.5,0-0.9-0.1-1.3-0.2c-0.6-0.2-1-0.7-1.3-1.5
							c-0.1-0.4-0.3-1.1-0.4-2.3c-0.1-1.1-0.2-2.2-0.2-3.4c0-1.5,0.1-3.3,0.4-5.4C364.5,425,364.7,423.2,365,421.4z M368.9,421.6
							c-0.3,0.3-0.6,0.8-0.8,1.5c-0.2,0.7-0.4,1.3-0.4,1.9c0,0.6,0.1,0.9,0.4,1.1c0.2,0.1,0.6,0.2,0.9,0.2c0.8,0,1.6-0.3,2.3-0.8
							c0.7-0.6,1.2-1.3,1.3-2.2c0.1-0.8-0.3-1.4-1.3-1.6c-0.5-0.2-1-0.3-1.5-0.3C369.4,421.3,369.1,421.4,368.9,421.6z"/>
						<path class="st9" d="M379.9,419.6c0.5-0.3,1.3-0.5,2.3-0.4c1,0.1,1.9,0.3,2.5,0.7c0.3,0.2,0.6,0.5,0.7,0.7
							c0.1,0.2,0.2,0.6,0.2,1.1c0,0.7-0.2,1.4-0.6,1.9c-0.4,0.6-0.8,1-1.4,1.4c-0.5,0.4-1.1,0.7-1.6,1c-0.6,0.3-1,0.6-1.4,0.8
							c-0.4,0.3-0.6,0.6-0.7,0.8c-0.1,0.5,0.1,0.8,0.4,1.1c0.4,0.3,0.8,0.3,1.3,0.2c0.6-0.1,1.4-0.6,2.3-1.4
							c0.9-0.8,1.6-1.6,1.9-2.2c0.2-0.4,0.5-0.8,0.8-0.9c0.3-0.2,0.6-0.2,0.8-0.1c0.2,0.1,0.4,0.4,0.4,0.8c0.1,0.6-0.2,1.5-1,2.4
							c-0.7,1-1.5,1.7-2.4,2.1c-1,0.5-2,0.8-2.9,0.9c-0.9,0.1-1.7,0.1-2.4-0.2c-0.6-0.2-1.1-0.6-1.3-1c-0.2-0.4-0.4-1.1-0.4-2
							c0-0.9-0.2-1.4-0.5-1.7c-0.7-0.6-0.7-1.1,0-1.7c0.2-0.2,0.7-0.9,1.3-2.2C379,420.7,379.5,419.9,379.9,419.6z M382.8,421.9
							c-0.1-0.7-0.5-0.9-1.1-0.7c-0.7,0.3-1.1,1-1.4,2c0,0,0,0.1,0,0.1c-0.1,0.7,0,1.1,0.3,1.1c0.4,0,0.8-0.3,1.4-1
							C382.6,422.8,382.9,422.2,382.8,421.9z"/>
						<path class="st9" d="M389.1,417.1c0.6-0.4,1.1-0.5,1.5-0.2c0.4,0.3,0.6,0.8,0.6,1.7c0,0.8,0.1,1.2,0.3,1.2
							c0.2,0.1,0.6-0.2,1.1-0.9c0.6-0.7,1.4-1.2,2.4-1.5c0.7-0.2,1.2-0.3,1.5-0.3c0.3,0,0.8,0.2,1.3,0.4c0.5,0.2,0.9,0.5,1.1,0.7
							c0.2,0.2,0.3,0.5,0.3,0.8c0,0.5-0.3,0.8-0.8,1c-0.5,0.1-1,0-1.4-0.4c-0.4-0.4-0.9-0.5-1.3-0.4c-0.9,0.3-1.8,1.4-2.7,3.4
							c-0.9,2-1.4,3.7-1.4,5.3c0,1.1-0.2,1.9-0.5,2.5s-0.8,0.8-1.4,0.7l-0.9-0.1l-0.1-6.7c0-3,0-4.9,0-5.7S388.8,417.3,389.1,417.1z
							"/>
						<path class="st9" d="M402.6,418.5c0.6-0.3,1.1-0.6,1.5-0.6c0.4-0.1,1.1-0.1,2-0.1l2.2,0.1v1.4c0,0.6-0.1,1-0.1,1.1
							c-0.1,0.2-0.3,0.3-0.7,0.3c-0.6,0.1-1-0.1-1.4-0.6c-0.2-0.3-0.4-0.5-0.6-0.6c-0.1,0-0.4,0.1-0.8,0.3c-0.3,0.2-0.7,0.4-1.1,0.8
							c-0.4,0.4-0.6,0.7-0.8,1c-0.2,0.3-0.2,0.5-0.1,0.6c0.2,0.1,1.4,0.3,3.7,0.5c2,0.2,3.3,0.5,3.9,0.8c0.6,0.3,0.8,0.8,0.6,1.6
							c-0.1,0.6-0.6,1.4-1.3,2.2c-0.7,0.8-1.6,1.7-2.6,2.5c-0.9,0.7-1.5,1.1-1.8,1.2c-0.4,0.1-1,0.2-2,0.1l-2-0.1l-0.1-1.2
							c0-0.5,0-0.8,0.1-1.1c0.1-0.3,0.3-0.6,0.6-0.9c0.6-0.5,1-0.7,1.4-0.6c0.4,0.1,0.5,0.5,0.3,1.2c-0.1,0.7-0.1,1,0,1
							c0.2,0,0.7-0.4,1.7-1.2c1-0.8,1.7-1.4,2-1.9c0.6-0.6,0.8-1.1,0.7-1.3c-0.1-0.2-0.6-0.4-1.4-0.4c-1.1,0-2.3-0.2-3.7-0.5
							c-1.4-0.3-2.3-0.7-2.6-1c-0.4-0.4-0.7-0.8-0.7-1.1c0-0.5,0.3-1.1,0.9-1.8C401.3,419.6,401.9,419,402.6,418.5z"/>
					</g>
					<line class="st10" x1="314.6" y1="435.8" x2="423.4" y2="435.8"/>
				</g>
				<g>
					<g>
						<path class="st1" d="M422.3,383.6l0.7,7.9l-108.4,9.4l-0.7-7.9l21.6-1.9l2.7-0.2l9.5-0.8l2-0.2l10.2-0.9l1.3-0.1l11.2-1l0.3,0
							l0,0h0l10.5-0.9l1-0.1l9.5-0.8l2-0.2h0l8.3-0.7l3.2-0.3L422.3,383.6 M422.6,383.2l-0.4,0l-15,1.3l-3.2,0.3l-8.3,0.7l-2,0.2
							l-9.5,0.8l-1,0.1l-10.5,0.9l-0.4,0l-11.2,1l-1.3,0.1l-10.2,0.9l-2,0.2l-9.5,0.8l-2.7,0.2l-21.6,1.9l-0.4,0l0,0.4l0.7,7.9
							l0,0.4l0.4,0l108.4-9.4l0.4,0l0-0.4l-0.7-7.9L422.6,383.2L422.6,383.2z"/>
					</g>
					<g>
						<path class="st1" d="M423.5,400.8v60.9H314.6v-60.9H423.5 M423.9,400.4h-0.4H314.6h-0.4v0.4v60.9v0.4h0.4h108.9h0.4v-0.4
							v-60.9V400.4L423.9,400.4z"/>
					</g>
				</g>
			</g>
		</g>
	</g>
	<g>
		<g>
			<g>
				<g>
					<g>
						<path class="st12" d="M1370,350.2h-14.2c-0.5,0-0.9-0.2-1.2-0.6c-0.3-0.4-0.4-0.9-0.2-1.4l14.3-45.8c0.2-0.6,0.8-1.1,1.5-1.1
							c0.4,0,0.8,0.2,1.1,0.4c0.3,0.3,0.5,0.7,0.5,1.1l-0.1,45.8C1371.5,349.5,1370.9,350.2,1370,350.2z M1357.9,347.1h10.6
							l0.1-34.5L1357.9,347.1z"/>
					</g>
				</g>
			</g>
			<g>
				<g>
					<g>
						<g>
							<path class="st13" d="M1331,350.2c-0.4,0-0.8-0.2-1.1-0.4c-0.3-0.3-0.5-0.7-0.5-1.1l0.1-45.8c0-0.8,0.7-1.5,1.5-1.5h14.2
								c0.5,0,0.9,0.2,1.2,0.6c0.3,0.4,0.4,0.9,0.2,1.4l-14.3,45.8C1332.2,349.7,1331.6,350.2,1331,350.2z M1332.5,304.3l-0.1,34.4
								l10.7-34.4H1332.5z"/>
						</g>
					</g>
				</g>
				<g>
					<g>
						<g>
							<g>
								<g>
									<path class="st13" d="M1337.2,298.4c-0.1-0.3-0.1-0.6-0.1-0.9c0-0.4,0.1-0.8,0.2-1.3s0.3-0.9,0.6-1.5
										c-0.5,0.3-1.1,0.6-1.7,0.8c-0.6,0.2-1.3,0.3-2.2,0.3c-0.8,0-1.5-0.1-2.2-0.4c-0.7-0.3-1.3-0.6-1.8-1.1
										c-0.5-0.5-0.9-1.1-1.2-1.9c-0.3-0.7-0.4-1.6-0.4-2.6c0-1,0.2-1.9,0.5-2.8c0.4-0.9,0.9-1.8,1.6-2.5c0.7-0.7,1.5-1.3,2.5-1.8
										c1-0.4,2.2-0.7,3.5-0.7c1.5,0,2.9,0.4,3.8,1c1,0.7,1.7,1.8,2,2.6c0.1,0.4,0.2,0.7,0.3,1.1c0.1,0.4,0.1,0.8,0.1,1.2
										c0,0.7-0.1,1.3-0.2,1.8c-0.2,0.5-0.3,1-0.6,1.5s-0.5,0.9-0.7,1.3c-0.3,0.4-0.5,0.8-0.7,1.2c-0.2,0.4-0.4,0.8-0.6,1.2
										c-0.2,0.4-0.2,0.9-0.2,1.4c0,0.4,0.1,0.7,0.2,1c0.1,0.3,0.3,0.7,0.5,1c0,0,0.7,0.7-1.6,0.7
										C1337.3,299.1,1337.2,298.4,1337.2,298.4z M1335,293.5c0.7,0,1.4-0.2,1.9-0.5c0.6-0.3,1-0.7,1.4-1.2
										c0.4-0.5,0.7-1.1,0.9-1.7c0.2-0.6,0.3-1.3,0.3-2c0-1.2-0.3-2.1-0.9-2.7c-0.6-0.6-1.4-0.9-2.5-0.9c-0.7,0-1.4,0.1-1.9,0.4
										s-1,0.7-1.4,1.2c-0.4,0.5-0.7,1.1-0.9,1.7c-0.2,0.6-0.3,1.3-0.3,2c0,1.2,0.3,2.1,0.9,2.8
										C1333.2,293.2,1334,293.5,1335,293.5z"/>
								</g>
							</g>
						</g>
					</g>
				</g>
			</g>
			<g>
				<g>
					<g>
						<g>
							<g>
								<path class="st12" d="M1368.4,298.4c-0.1-0.3-0.1-0.6-0.1-0.9c0-0.4,0.1-0.8,0.2-1.3c0.1-0.4,0.3-0.9,0.6-1.5
									c-0.5,0.3-1.1,0.6-1.7,0.8c-0.6,0.2-1.3,0.3-2.2,0.3c-0.8,0-1.5-0.1-2.2-0.4c-0.7-0.3-1.3-0.6-1.8-1.1
									c-0.5-0.5-0.9-1.1-1.2-1.9c-0.3-0.7-0.4-1.6-0.4-2.6c0-1,0.2-1.9,0.5-2.8c0.4-0.9,0.9-1.8,1.6-2.5c0.7-0.7,1.5-1.3,2.5-1.8
									c1-0.4,2.2-0.7,3.5-0.7c1.5,0,2.9,0.4,3.8,1c1,0.7,1.7,1.8,2,2.6c0.1,0.4,0.2,0.7,0.3,1.1c0.1,0.4,0.1,0.8,0.1,1.2
									c0,0.7-0.1,1.3-0.2,1.8c-0.2,0.5-0.3,1-0.6,1.5c-0.2,0.5-0.5,0.9-0.7,1.3c-0.3,0.4-0.5,0.8-0.7,1.2
									c-0.2,0.4-0.4,0.8-0.6,1.2c-0.2,0.4-0.2,0.9-0.2,1.4c0,0.4,0.1,0.7,0.2,1c0.1,0.3,0.3,0.7,0.5,1c0,0,0.7,0.7-1.6,0.7
									C1368.5,299.1,1368.4,298.4,1368.4,298.4z M1366.3,293.5c0.7,0,1.4-0.2,1.9-0.5c0.6-0.3,1-0.7,1.4-1.2
									c0.4-0.5,0.7-1.1,0.9-1.7c0.2-0.6,0.3-1.3,0.3-2c0-1.2-0.3-2.1-0.9-2.7c-0.6-0.6-1.4-0.9-2.5-0.9c-0.7,0-1.4,0.1-1.9,0.4
									s-1,0.7-1.4,1.2c-0.4,0.5-0.7,1.1-0.9,1.7c-0.2,0.6-0.3,1.3-0.3,2c0,1.2,0.3,2.1,0.9,2.8
									C1364.4,293.2,1365.2,293.5,1366.3,293.5z"/>
							</g>
						</g>
					</g>
				</g>
			</g>
		</g>
	</g>
	<g>
		<g>
			<path class="st0" d="M578.9,42c-0.1-0.3-0.4-0.8-0.9-1.1c-0.4-0.3-1-0.5-1.6-0.5c-0.5,0-1,0.1-1.4,0.3c-0.4,0.2-0.8,0.4-1.1,0.7
				c-0.3,0.3-0.5,0.7-0.6,1c-0.1,0.4-0.2,0.8-0.2,1.2c0,0.4,0.1,0.8,0.2,1.1c0.1,0.3,0.3,0.6,0.5,0.8c0.2,0.2,0.5,0.4,0.8,0.5
				c0.6,0.2,1.3,0.2,1.8,0c0,0,0,0,0.1,0c0,0.2-0.1,0.4-0.1,0.5c0,0.1,0,0.3,0,0.4c0,0.1,0.2,0.5,0.8,0.5c0.4,0,0.8,0,0.9-0.3
				c0.1-0.2,0-0.3,0-0.4c-0.1-0.1-0.1-0.2-0.2-0.3c0-0.1-0.1-0.2-0.1-0.3c0-0.2,0-0.3,0.1-0.4c0.1-0.1,0.1-0.3,0.2-0.4
				c0.1-0.1,0.2-0.3,0.3-0.4c0.1-0.2,0.2-0.3,0.3-0.5c0.1-0.2,0.2-0.4,0.2-0.6c0.1-0.2,0.1-0.5,0.1-0.8c0-0.2,0-0.4,0-0.5
				C579,42.4,579,42.2,578.9,42z M577.2,43.7c-0.1,0.2-0.2,0.4-0.3,0.6c-0.1,0.2-0.3,0.3-0.5,0.4c-0.2,0.1-0.4,0.1-0.6,0.1
				c-0.3,0-0.6-0.1-0.7-0.3c-0.2-0.2-0.3-0.5-0.3-0.9c0-0.2,0-0.5,0.1-0.7c0.1-0.2,0.2-0.4,0.3-0.6c0.1-0.2,0.3-0.3,0.4-0.4
				c0.2-0.1,0.4-0.1,0.6-0.1c0.3,0,0.6,0.1,0.8,0.3c0.2,0.2,0.3,0.5,0.3,0.8C577.3,43.3,577.3,43.5,577.2,43.7z"/>
			<path class="st0" d="M584.6,45.6c0.2,0.2,0.5,0.4,0.8,0.5c0.6,0.2,1.3,0.2,1.8,0c0,0,0,0,0.1,0c0,0.2-0.1,0.4-0.1,0.5
				c0,0.1,0,0.3,0,0.4c0,0.1,0.2,0.5,0.8,0.5c0.4,0,0.8,0,0.9-0.3c0.1-0.2,0-0.3,0-0.4c-0.1-0.1-0.1-0.2-0.2-0.3
				c0-0.1-0.1-0.2-0.1-0.3c0-0.2,0-0.3,0.1-0.4c0.1-0.1,0.1-0.3,0.2-0.4c0.1-0.1,0.2-0.3,0.3-0.4c0.1-0.2,0.2-0.3,0.3-0.5
				c0.1-0.2,0.2-0.4,0.2-0.6c0.1-0.2,0.1-0.5,0.1-0.8c0-0.2,0-0.4,0-0.5c0-0.1-0.1-0.3-0.1-0.5c-0.1-0.3-0.4-0.8-0.9-1.1
				c-0.4-0.3-1-0.5-1.6-0.5c-0.5,0-1,0.1-1.4,0.3c-0.4,0.2-0.8,0.4-1.1,0.7c-0.3,0.3-0.5,0.7-0.6,1c-0.1,0.4-0.2,0.8-0.2,1.2
				c0,0.4,0.1,0.8,0.2,1.1C584.2,45.1,584.4,45.4,584.6,45.6z M588,43.7c-0.1,0.2-0.2,0.4-0.3,0.6c-0.1,0.2-0.3,0.3-0.5,0.4
				c-0.2,0.1-0.4,0.1-0.6,0.1c-0.3,0-0.6-0.1-0.7-0.3c-0.2-0.2-0.3-0.5-0.3-0.9c0-0.2,0-0.5,0.1-0.7c0.1-0.2,0.2-0.4,0.3-0.6
				c0.1-0.2,0.3-0.3,0.4-0.4c0.2-0.1,0.4-0.1,0.6-0.1c0.3,0,0.6,0.1,0.8,0.3c0.2,0.2,0.3,0.5,0.3,0.8
				C588.1,43.3,588.1,43.5,588,43.7z"/>
			<path class="st0" d="M595.9,37.3c-0.2-0.2-0.4-0.3-0.6-0.3h-13.1v-8.5l1.7,4.4c0.2,0.5,0.7,0.7,1.1,0.5c0.5-0.2,0.7-0.7,0.5-1.1
				l-3.4-8.7c-0.2-0.4-0.6-0.6-1-0.5c-0.4,0.1-0.7,0.4-0.7,0.9V37h-13.1c-0.2,0-0.5,0.1-0.6,0.3c-0.2,0.2-0.3,0.4-0.3,0.6l0,29
				c0,0.2,0.1,0.5,0.3,0.6c0.2,0.2,0.4,0.3,0.6,0.3h0l13.1,0v8.6l-1.7-4.4c-0.2-0.5-0.7-0.7-1.1-0.5c-0.5,0.2-0.7,0.7-0.5,1.1
				l3.4,8.7c0.1,0.3,0.5,0.6,0.8,0.6c0.1,0,0.1,0,0.2,0c0.4-0.1,0.7-0.4,0.7-0.9V67.7l13.1,0c0.5,0,0.9-0.4,0.9-0.9l0-28.9
				C596.2,37.6,596.1,37.4,595.9,37.3z M583.9,65.9l3.4-10.8l0,10.8H583.9z M594.4,65.9l-5.4,0l0.1-16.6c0-0.2-0.1-0.5-0.3-0.6
				c-0.2-0.2-0.4-0.3-0.6-0.3c-0.4,0-0.7,0.3-0.8,0.6L582,66l-6.5,0l5.1-16.4c0.1-0.3,0-0.6-0.1-0.8c-0.2-0.2-0.4-0.4-0.7-0.4h-5.4
				c-0.5,0-0.9,0.4-0.9,0.9L573.4,66l-5.1,0l0-27.3h26.2L594.4,65.9z M575.2,61.1l0-10.8h3.3L575.2,61.1z"/>
		</g>
	</g>
	<path class="st14" d="M666.9,6.9l-32,0c-15.3,0-35.5,1.2-55.2,10.2c-19.2,8.7-30.6,25.2-30.7,25.3l-0.1,0.2l-0.2,0.2l-41.8,50h93.8
		L666.9,6.9z"/>
	<path class="st14" d="M1225.6,230.2c-7.1-46.5-96.2-77.5-209.8-77.5c-20.7,0-42.3,1-64.3,3.2c-105.8,10.4-198.9,45.6-231.5,87.5
		c-9.7,12.5-13.7,25.1-11.8,37.3c8.4,55,131.4,88.3,274.1,74.3c105.8-10.4,198.9-45.6,231.5-87.5
		C1223.5,255,1227.5,242.4,1225.6,230.2z"/>
	<path class="st14" d="M607.5,92.8h33.7l42.4,83.1c10.1-4.3,51.4-21.1,113.1-36.5c47.2-11.8,113.7-24.6,190.9-28.5l59.1-104H919.6
		l-241.2,0l-5.6,0l0.7,0.5L607.5,92.8z"/>
	<path class="st14" d="M994,110.6c28-1.2,57.2-1.2,87.5,0.4c130.3,7,191.2,37.4,219.6,64.5L1403.5,6.9h-351.1l0.4,0.2L994,110.6z"/>
	<polygon class="st14" points="596.4,98.3 502.3,98.3 354,275.5 459.6,275.5 	"/>
	<path class="st14" d="M1571.6,10.5c-7-2.7-17.5-3.6-25.1-3.6c-0.6,0-0.9,0-0.9,0l-0.1,0h-0.1l-82.6,0h-53.1L1306.5,177h193.1
		l42.1-82.7l24.5-48.3l8.2-16.2c3-6,3.8-8.8,3.9-9.6l-0.1-0.6l0.2,0.2C1578.5,18.4,1578.4,13.1,1571.6,10.5z"/>
	<path class="st15" d="M1217.2,270.1c10.5-13.5,14.7-27.1,12.7-40.6c-4.3-28.1-35.9-51.6-89-66.2c-52.5-14.5-119.9-18.6-189.8-11.8
		c-108.6,10.6-200.7,45.7-234.5,89.2c-10.5,13.5-14.7,27.1-12.7,40.6c4.3,28.1,35.9,51.6,89,66.2c36,9.9,79,15,125.1,15
		c21.1,0,42.8-1.1,64.7-3.2C1091.3,348.7,1183.4,313.7,1217.2,270.1z M982.3,355c-142.7,14-265.7-19.4-274.1-74.3
		c-1.9-12.2,2.1-24.8,11.8-37.3c32.6-42,125.7-77.2,231.5-87.5c22-2.2,43.6-3.2,64.3-3.2c113.6,0,202.7,31,209.8,77.5
		c1.9,12.2-2.1,24.8-11.8,37.3C1181.2,309.5,1088.1,344.7,982.3,355z"/>
	<path class="st14" d="M994,110.6c28-1.2,57.2-1.2,87.5,0.4c130.3,7,191.2,37.4,219.6,64.5L1403.5,6.9h-351.1l0.4,0.2L994,110.6z"/>
	<path class="st14" d="M607.5,92.8h33.7l42.4,83.1c10.1-4.3,51.4-21.1,113.1-36.5c47.2-11.8,113.7-24.6,190.9-28.5l59.1-104H919.6
		l-241.2,0l-5.6,0l0.7,0.5L607.5,92.8z"/>
	<polygon class="st14" points="596.4,98.3 502.3,98.3 354,275.5 459.6,275.5 	"/>
	<path class="st14" d="M1571.6,10.5c-7-2.7-17.5-3.6-25.1-3.6c-0.6,0-0.9,0-0.9,0l-0.1,0h-0.1l-82.6,0h-53.1L1306.5,177h193.1
		l42.1-82.7l24.5-48.3l8.2-16.2c3-6,3.8-8.8,3.9-9.6l-0.1-0.6l0.2,0.2C1578.5,18.4,1578.4,13.1,1571.6,10.5z"/>
	<path class="st14" d="M666.9,6.9l-32,0c-15.3,0-35.5,1.2-55.2,10.2c-19.2,8.7-30.6,25.2-30.7,25.3l-0.1,0.2l-0.2,0.2l-41.8,50h93.8
		L666.9,6.9z"/>
	<path class="st14" d="M666.9,6.9l-32,0c-15.3,0-35.5,1.2-55.2,10.2c-19.2,8.7-30.6,25.2-30.7,25.3l-0.1,0.2l-0.2,0.2l-41.8,50h93.8
		L666.9,6.9z"/>
	<polygon class="st14" points="596.4,98.3 502.3,98.3 354,275.5 459.6,275.5 	"/>
	<path class="st14" d="M607.5,92.8h33.7l42.4,83.1c10.1-4.3,51.4-21.1,113.1-36.5c47.2-11.8,113.7-24.6,190.9-28.5l59.1-104H919.6
		l-241.2,0l-5.6,0l0.7,0.5L607.5,92.8z"/>
	<path class="st14" d="M994,110.6c28-1.2,57.2-1.2,87.5,0.4c130.3,7,191.2,37.4,219.6,64.5L1403.5,6.9h-351.1l0.4,0.2L994,110.6z"/>
	<path class="st14" d="M1571.6,10.5c-7-2.7-17.5-3.6-25.1-3.6c-0.6,0-0.9,0-0.9,0l-0.1,0h-0.1l-82.6,0h-53.1L1306.5,177h193.1
		l42.1-82.7l24.5-48.3l8.2-16.2c3-6,3.8-8.8,3.9-9.6l-0.1-0.6l0.2,0.2C1578.5,18.4,1578.4,13.1,1571.6,10.5z"/>
	<path class="st15" d="M1573.6,5.5c-9.6-3.7-23.2-4-27-4c-0.7,0-1.1,0-1.1,0l-82.6,0H919.6l-241.2,0c0,0-27.7,0-43.4,0
		c-15.7,0-36.6,1.1-57.5,10.7c-20.9,9.5-32.9,27.2-32.9,27.2s-316.2,378-322.9,386l-10.4,12.4c0,0-6,7.4-5.2,15.9
		c0.8,8.4,9.6,15.2,17,17c7.3,1.8,13.4,3.2,31.4,3.2c0.2,0,0.4,0,0.5,0c6.1,0,10.4,0,13.4,0c6.2,0,7.1,0,7.1,0l932.6-0.1
		c0,0,0.4,0,1.1,0c10.7,0,94.2-0.5,126.1-14.5c34.1-15,46.3-41,46.3-41l48.8-93.4l116.1-228l24.5-48.4c0,0,3.6-7.2,8.2-16.2
		c4.6-9.1,4.6-11.9,4.6-11.9S1585,9.8,1573.6,5.5z M1403.5,6.9l-102.4,168.5c-28.4-27-89.3-57.4-219.6-64.5
		c-30.3-1.6-59.5-1.6-87.5-0.4l58.8-103.5l-0.4-0.2H1403.5z M678.3,6.9l241.2,0h127.1l-59.1,104c-77.1,3.9-143.6,16.6-190.9,28.5
		c-61.7,15.5-103,32.3-113.1,36.5l-42.4-83.1h-33.7l65.9-85.4l-0.7-0.5L678.3,6.9z M548.7,42.8l0.2-0.2l0.1-0.2
		c0.1-0.2,11.5-16.6,30.7-25.3c19.7-9,39.9-10.2,55.2-10.2l32,0l-66.3,85.9h-93.8L548.7,42.8z M502.3,98.3h94.1L459.6,275.5H354
		L502.3,98.3z M848.1,468.4l-572.6,0c0,0-1,0-7.2,0c-3,0-7.3,0-13.4,0l-0.5,0c-17.6,0-23.4-1.4-30.1-3c-5.8-1.4-12.3-6.7-12.8-12.3
		c-0.6-5.9,3.8-11.6,4-11.9l10.3-12.3l122.1-146c0.4,11.4,4.1,40.6,29.1,63.7c31.2,29,110.9,55.3,162.9,60.8
		c49.3,5.2,152.3,10.6,240.8,10.6c1.1,0,2.1,0,3.2,0l102.7,0l3,0l-27.7,50.4l-6.9,0L848.1,468.4z M1083.4,468.4l-6.8,0l-100.6,0
		l27.2-50.4l4.5,0l14.1,0v-5.4l-57.4,0v5.4l32.6,0l-27.2,50.4h-0.6l-6.9,0l-94.2,0l27.7-50.4l14.5,0v-5.4l-126.5,0.1
		c-89.1,0.2-193.7-5.3-243.4-10.5c-51.1-5.4-129.3-31.2-159.8-59.4c-24.7-22.9-27.2-52.8-27.3-61.7h108.9L603.3,98.3h34.6l43.2,84.7
		l2.4-1.1c1.7-0.8,175.7-77.4,397.7-65.5c140.6,7.6,198.8,42.3,222.9,70c14.3,16.5,17.1,31.5,16.5,37.9l-0.1,0.8
		c-0.8,8.9-2.4,27.5-22.2,50.4c-25,29-70,54.4-133.8,75.6l-0.8,0.3l0,0l0,0l0,0l0,0l-30.8,61l-57.1,0.1l0,5.4l54.3-0.1l-25.5,50.5
		L1083.4,468.4z M1425.6,322.3l-48.8,93.4l-0.1,0.1l0,0.1c-0.1,0.2-11.9,24.4-43.6,38.4c-31,13.7-114.5,14.1-123.9,14.1l-1.1,0
		l-97.2,0l56.9-112.5c63.9-21.4,109.2-47.2,134.7-76.7c21-24.3,22.8-44.8,23.5-53.5l0.1-0.8c0.8-8.9-3.4-25.2-17.9-41.9
		c-0.1-0.1-0.2-0.3-0.4-0.4h188.9L1425.6,322.3z M1578.4,19.7l-0.2-0.2l0.1,0.6c-0.2,0.8-0.9,3.6-3.9,9.6l-8.2,16.2l-24.5,48.3
		l-42.1,82.7h-193.1L1409.9,6.9h53.1l82.6,0h0.1l0.1,0c0,0,0.4,0,0.9,0c7.6,0,18.1,1,25.1,3.6C1578.4,13.1,1578.5,18.4,1578.4,19.7z
		"/>
</g>
<g>
</g>
<g>
</g>
<g>
</g>
<g>
</g>
<g>
</g>
<g>
</g>
</svg>
