<?xml version="1.0" encoding="utf-8"?>
<!-- Generator: Adobe Illustrator 24.1.0, SVG Export Plug-In . SVG Version: 6.00 Build 0)  -->
<svg version="1.1" id="レイヤー_1" xmlns="http://www.w3.org/2000/svg" xmlns:xlink="http://www.w3.org/1999/xlink" x="0px"
	 y="0px" width="1591.9px" height="476.5px" viewBox="0 0 1591.9 476.5" style="enable-background:new 0 0 1591.9 476.5;"
	 xml:space="preserve">
<style type="text/css">
	.st0{fill:#CCA57E;}
	.st1{fill:#AD0D20;}
	.st2{fill:#182A83;}
	.st3{fill:#7D7D7D;}
	.st4{fill:#9E9D9D;}
	.st5{fill:#2D2A26;}
</style>
<g>
	<g>
		<g>
			<path class="st0" d="M17.6,436.4c-0.9,1.1-1.8,2.2-2.6,3.3c-0.8,1-1.6,2-2.3,3c1.8-1.7,3.9-3.1,6.2-4.1c2.3-1,4.8-1.5,7.3-1.5
				c2.3,0,4.4,0.4,6.4,1.2c1.9,0.8,3.6,1.9,4.9,3.4c1.4,1.5,2.4,3.2,3.2,5.2c0.8,2,1.1,4.3,1.1,6.8c0,3.3-0.6,6.3-1.7,9.1
				c-1.2,2.8-2.7,5.2-4.8,7.2c-2,2-4.4,3.6-7.1,4.7c-2.7,1.1-5.7,1.7-8.8,1.7c-2.5,0-4.8-0.4-6.8-1.3c-2-0.8-3.8-2-5.2-3.6
				c-1.4-1.5-2.5-3.4-3.3-5.6c-0.8-2.2-1.2-4.7-1.2-7.5c0-1.7,0.2-3.5,0.6-5.2s1-3.5,1.8-5.3s1.9-3.7,3.1-5.7c1.3-2,2.8-4,4.6-6.2
				l18.7-23.1c0.8-1,1.8-1.5,2.9-1.5h3.7L17.6,436.4z M19.9,472.8c2.6,0,5-0.5,7.2-1.5c2.2-1,4-2.3,5.6-4c1.5-1.7,2.7-3.7,3.6-5.9
				c0.8-2.3,1.3-4.8,1.3-7.4c0-2.1-0.3-3.9-0.9-5.6c-0.6-1.7-1.4-3.1-2.6-4.3c-1.1-1.2-2.5-2.1-4-2.7s-3.3-1-5.3-1
				c-2.7,0-5.1,0.5-7.3,1.6s-4,2.4-5.6,4.1c-1.5,1.7-2.7,3.6-3.6,5.8c-0.9,2.2-1.3,4.3-1.3,6.6c0,2,0.3,3.9,0.9,5.7
				c0.6,1.7,1.4,3.3,2.5,4.6c1.1,1.3,2.4,2.3,4,3C16,472.5,17.8,472.8,19.9,472.8z"/>
			<path class="st0" d="M65,416.1l-3.3,26.7h26.4l-0.5,3.7H61.3l-3.6,29.1h-4.5l7.8-63.2h34.9l-0.5,3.7H65z"/>
		</g>
	</g>
	<g>
		<g>
			<path class="st0" d="M490.1,154.7c-0.2-0.6-0.7-1.3-1.4-1.8c-0.6-0.5-1.6-0.7-2.7-0.7c-0.9,0-1.7,0.2-2.4,0.5
				c-0.7,0.3-1.3,0.7-1.8,1.2c-0.5,0.5-0.8,1.1-1.1,1.7c-0.2,0.6-0.4,1.3-0.4,2c0,0.7,0.1,1.3,0.3,1.8c0.2,0.5,0.5,0.9,0.8,1.3
				c0.4,0.3,0.8,0.6,1.2,0.8c0.5,0.2,1,0.3,1.5,0.3c0.6,0,1.1-0.1,1.5-0.2c0.4-0.1,0.8-0.3,1.2-0.6c-0.2,0.4-0.3,0.7-0.4,1
				c-0.1,0.3-0.1,0.6-0.1,0.9c0,0.2,0,0.4,0.1,0.6c0,0,0.1,0.5,1.1,0.5c1.6,0,1.1-0.5,1.1-0.5c-0.1-0.2-0.2-0.4-0.3-0.7
				c-0.1-0.2-0.1-0.5-0.1-0.7c0-0.3,0.1-0.7,0.2-1c0.1-0.3,0.2-0.6,0.4-0.8s0.3-0.5,0.5-0.8c0.2-0.3,0.4-0.6,0.5-0.9
				c0.2-0.3,0.3-0.7,0.4-1c0.1-0.4,0.2-0.8,0.2-1.3c0-0.3,0-0.6-0.1-0.8C490.2,155.2,490.1,154.9,490.1,154.7z M487.9,157.7
				c-0.1,0.4-0.3,0.8-0.6,1.2c-0.3,0.4-0.6,0.6-1,0.9c-0.4,0.2-0.8,0.3-1.3,0.3c-0.7,0-1.3-0.2-1.7-0.7c-0.4-0.4-0.6-1.1-0.6-1.9
				c0-0.5,0.1-0.9,0.2-1.4c0.1-0.4,0.3-0.8,0.6-1.2c0.3-0.3,0.6-0.6,1-0.8c0.4-0.2,0.8-0.3,1.3-0.3c0.7,0,1.3,0.2,1.7,0.6
				c0.4,0.4,0.6,1,0.6,1.8C488.1,156.8,488,157.3,487.9,157.7z"/>
			<path class="st0" d="M511.2,200.3h-12.1l-12.7-12.7l6.5-20.9c0.1-0.3,0-0.6-0.1-0.9c-0.2-0.3-0.5-0.4-0.8-0.4h-9.8
				c-0.5,0-1,0.4-1,1l0,15.9l-16.1-16.1c-0.2-0.2-0.4-0.3-0.7-0.3h-12.5c-0.5,0-1,0.4-1,1c0,0.5,0.4,1,1,1H464l34,34
				c0.2,0.2,0.4,0.3,0.7,0.3h12.5c0.5,0,1-0.4,1-1C512.2,200.8,511.7,200.3,511.2,200.3z M483.2,167.5h7.5l-5.8,18.6l-1.7-1.7
				L483.2,167.5z"/>
		</g>
	</g>
	<g>
		<path class="st0" d="M858.2,254.5c1.1-3.7,2.5-7.3,4.5-10.9c1.9-3.5,4.3-6.6,7.1-9.4c2.8-2.7,6.2-4.9,10.1-6.6
			c3.9-1.7,8.3-2.5,13.3-2.5c3.4,0,6.7,0.5,9.8,1.5s5.8,2.5,8.1,4.5c2.3,2,4.1,4.5,5.5,7.5s2,6.6,2,10.6c0,4.2-0.7,8-2,11.5
			s-3.2,6.5-5.5,9.1c-2.3,2.6-5,4.8-8.1,6.5c-3,1.7-6.2,3-9.6,3.8c3.6,0.5,6.8,1.5,9.4,2.9c2.7,1.4,4.9,3.1,6.7,5.2
			c1.8,2.1,3.1,4.5,4,7.2c0.9,2.7,1.3,5.6,1.3,8.8c0,4.7-0.9,9.2-2.8,13.4c-1.9,4.2-4.5,7.9-7.8,11.1c-3.3,3.2-7.2,5.7-11.7,7.6
			c-4.5,1.9-9.3,2.8-14.5,2.8c-4.1,0-7.6-0.4-10.6-1.2c-3-0.8-5.5-1.9-7.7-3.4c-2.1-1.4-3.9-3.1-5.3-5c-1.4-1.9-2.5-3.9-3.4-5.9
			c-0.9-2.1-1.5-4.2-2-6.3c-0.4-2.2-0.8-4.2-1-6.2l2.2-0.8c0.7-0.2,1.1-0.3,1.5-0.1c0.3,0.1,0.5,0.5,0.7,0.9
			c0.4,2.8,1.1,5.6,1.9,8.5c0.9,2.9,2.2,5.5,4.1,7.8c1.9,2.4,4.4,4.3,7.5,5.8c3.2,1.5,7.3,2.3,12.4,2.3c4.6,0,8.8-0.8,12.7-2.5
			c3.9-1.7,7.3-3.9,10.2-6.7c2.9-2.8,5.1-6.1,6.8-9.9c1.6-3.8,2.5-7.8,2.5-12.1c0-3.1-0.5-6-1.5-8.7c-1-2.7-2.6-5-4.9-7
			c-2.3-1.9-5.2-3.5-8.9-4.7c-3.6-1.2-8.1-1.7-13.3-1.7l0.4-3.2c4.7-0.2,9.1-1,13-2.4c3.9-1.4,7.3-3.4,10.2-5.9c2.8-2.5,5-5.5,6.6-9
			c1.6-3.5,2.4-7.5,2.4-11.8c0-3.6-0.6-6.7-1.7-9.4c-1.1-2.6-2.7-4.8-4.6-6.6c-2-1.7-4.2-3-6.8-3.9c-2.6-0.8-5.3-1.2-8.2-1.2
			c-4.1,0-7.8,0.7-11.1,2c-3.2,1.4-6.1,3.2-8.5,5.4c-2.5,2.3-4.5,4.9-6.2,7.8c-1.7,3-3.1,6.1-4.1,9.3c-0.3,0.7-0.6,1.1-0.9,1.2
			c-0.3,0.2-0.6,0.3-0.9,0.3c-0.2,0-0.6-0.1-1-0.3L858.2,254.5z"/>
	</g>
	<g>
		<path class="st0" d="M1004.5,118.5l-0.3,2.1c-0.1,1-0.7,1.5-1.9,1.5h-20l-4,32.1h-4l3.9-32.1h-55.1c-0.4,0-0.8-0.2-1-0.4
			c-0.3-0.3-0.4-0.6-0.4-1v-1.9l67-78.6h3.5l-9.6,78.3H1004.5z M978.6,118.5l8.3-67.4c0.2-1.3,0.4-2.6,0.8-4l-60.8,71.4H978.6z"/>
	</g>
	<g>
		<g>
			<g>
				<g>
					<g>
						<path class="st1" d="M427.6,460.6h-14.1c-0.5,0-0.9-0.2-1.2-0.6c-0.3-0.4-0.4-0.9-0.2-1.3l14.2-45.6c0.2-0.6,0.8-1.1,1.4-1.1
							c0.4,0,0.8,0.2,1.1,0.4c0.3,0.3,0.5,0.7,0.5,1.1l-0.1,45.6C429.1,459.9,428.4,460.6,427.6,460.6z M415.5,457.5h10.6l0.1-34.3
							L415.5,457.5z"/>
					</g>
				</g>
			</g>
			<g>
				<g>
					<g>
						<g>
							<path class="st2" d="M388.7,460.6c-0.4,0-0.8-0.2-1.1-0.4c-0.3-0.3-0.5-0.7-0.5-1.1l0.1-45.6c0-0.8,0.7-1.5,1.5-1.5h14.1
								c0.5,0,0.9,0.2,1.2,0.6c0.3,0.4,0.4,0.9,0.2,1.4l-14.2,45.6C390,460.1,389.4,460.6,388.7,460.6z M390.3,414.9l-0.1,34.3
								l10.7-34.3H390.3z"/>
						</g>
					</g>
				</g>
				<g>
					<g>
						<g>
							<g>
								<g>
									<path class="st2" d="M395,409c-0.1-0.3-0.1-0.6-0.1-0.9c0-0.4,0.1-0.8,0.2-1.3c0.1-0.4,0.3-0.9,0.6-1.5
										c-0.5,0.3-1.1,0.6-1.7,0.8c-0.6,0.2-1.3,0.3-2.1,0.3c-0.8,0-1.5-0.1-2.2-0.4c-0.7-0.3-1.3-0.6-1.8-1.1
										c-0.5-0.5-0.9-1.1-1.2-1.9c-0.3-0.7-0.4-1.6-0.4-2.6c0-1,0.2-1.9,0.5-2.8c0.4-0.9,0.9-1.8,1.6-2.5c0.7-0.7,1.5-1.3,2.5-1.8
										c1-0.4,2.2-0.7,3.5-0.7c1.5,0,2.9,0.4,3.8,1c1,0.7,1.7,1.8,2,2.6c0.1,0.4,0.2,0.7,0.3,1.1c0.1,0.4,0.1,0.8,0.1,1.2
										c0,0.7-0.1,1.3-0.2,1.8c-0.2,0.5-0.3,1-0.6,1.5c-0.2,0.5-0.5,0.9-0.7,1.3s-0.5,0.8-0.7,1.2c-0.2,0.4-0.4,0.8-0.6,1.2
										c-0.2,0.4-0.2,0.9-0.2,1.4c0,0.4,0.1,0.7,0.2,1c0.1,0.3,0.3,0.6,0.5,1c0,0,0.7,0.7-1.6,0.7C395.1,409.7,395,409,395,409z
										 M392.8,404.2c0.7,0,1.4-0.2,1.9-0.5c0.6-0.3,1-0.7,1.4-1.2c0.4-0.5,0.7-1.1,0.9-1.7c0.2-0.6,0.3-1.3,0.3-1.9
										c0-1.2-0.3-2.1-0.9-2.7c-0.6-0.6-1.4-0.9-2.5-0.9c-0.7,0-1.4,0.1-1.9,0.4s-1,0.7-1.4,1.2c-0.4,0.5-0.7,1.1-0.9,1.7
										c-0.2,0.6-0.3,1.3-0.3,2c0,1.2,0.3,2.1,0.9,2.7C390.9,403.9,391.8,404.2,392.8,404.2z"/>
								</g>
							</g>
						</g>
					</g>
				</g>
			</g>
			<g>
				<g>
					<g>
						<g>
							<g>
								<path class="st1" d="M426,409c-0.1-0.3-0.1-0.6-0.1-0.9c0-0.4,0.1-0.8,0.2-1.3c0.1-0.4,0.3-0.9,0.6-1.5
									c-0.5,0.3-1.1,0.6-1.7,0.8c-0.6,0.2-1.3,0.3-2.1,0.3c-0.8,0-1.5-0.1-2.2-0.4c-0.7-0.3-1.3-0.6-1.8-1.1
									c-0.5-0.5-0.9-1.1-1.2-1.9c-0.3-0.7-0.4-1.6-0.4-2.6c0-1,0.2-1.9,0.5-2.8c0.4-0.9,0.9-1.8,1.6-2.5c0.7-0.7,1.5-1.3,2.5-1.8
									c1-0.4,2.2-0.7,3.5-0.7c1.5,0,2.9,0.4,3.8,1c1,0.7,1.7,1.8,2,2.6c0.1,0.4,0.2,0.7,0.3,1.1c0.1,0.4,0.1,0.8,0.1,1.2
									c0,0.7-0.1,1.3-0.2,1.8c-0.2,0.5-0.3,1-0.6,1.5c-0.2,0.5-0.5,0.9-0.7,1.3s-0.5,0.8-0.7,1.2c-0.2,0.4-0.4,0.8-0.6,1.2
									c-0.2,0.4-0.2,0.9-0.2,1.4c0,0.4,0.1,0.7,0.2,1c0.1,0.3,0.3,0.6,0.5,1c0,0,0.7,0.7-1.6,0.7C426.1,409.7,426,409,426,409z
									 M423.9,404.2c0.7,0,1.4-0.2,1.9-0.5c0.6-0.3,1-0.7,1.4-1.2c0.4-0.5,0.7-1.1,0.9-1.7c0.2-0.6,0.3-1.3,0.3-1.9
									c0-1.2-0.3-2.1-0.9-2.7c-0.6-0.6-1.4-0.9-2.5-0.9c-0.7,0-1.4,0.1-1.9,0.4s-1,0.7-1.4,1.2c-0.4,0.5-0.7,1.1-0.9,1.7
									c-0.2,0.6-0.3,1.3-0.3,2c0,1.2,0.3,2.1,0.9,2.7C422,403.9,422.8,404.2,423.9,404.2z"/>
							</g>
						</g>
					</g>
				</g>
			</g>
			<g>
				<path class="st3" d="M474.5,436.2c-0.6-0.4-1.5-0.2-1.9,0.4c-0.4,0.6-0.2,1.5,0.4,1.9c3,2,4.9,5.4,4.9,9c0,6-4.9,10.8-10.8,10.8
					c-4.8,0-8.9-3.1-10.3-7.6c-0.2-0.7-1-1.1-1.7-0.9c-0.7,0.2-1.1,1-0.9,1.7c1.8,5.7,7,9.5,13,9.5c7.5,0,13.6-6.1,13.6-13.6
					C480.7,443,478.4,438.7,474.5,436.2z"/>
				<path class="st3" d="M463.4,444.1c0.1,0,0.2,0,0.3,0c0,0,0.1,0,0.1,0c0.1,0,0.1,0,0.2-0.1c0,0,0.1,0,0.1,0
					c0.1,0,0.1-0.1,0.1-0.1c0,0,0,0,0.1,0c0.1-0.1,0.3-0.2,0.3-0.3c0,0,0,0,0-0.1c0,0,0.1-0.1,0.1-0.1c0,0,0-0.1,0-0.1
					c0,0,0,0,0-0.1l6.1-19.7c0.1-0.4,0.1-0.9-0.2-1.2c-0.3-0.4-0.7-0.6-1.1-0.6h-10.2c-0.8,0-1.4,0.6-1.4,1.4l-0.1,12.4
					c0,0.8,0.6,1.4,1.4,1.4c0,0,0,0,0,0c0.8,0,1.4-0.6,1.4-1.4l0.1-11h6.9l-5.3,16.9H450c-0.6,0-1.1,0.4-1.3,1l-4.7,15.1
					c-0.2,0.7,0.2,1.5,0.9,1.7c0.1,0,0.3,0.1,0.4,0.1c0.6,0,1.1-0.4,1.3-1l4.4-14.2L463.4,444.1
					C463.4,444.1,463.4,444.1,463.4,444.1z"/>
				<path class="st3" d="M458,415.3c0.4,0.4,0.9,0.7,1.5,0.9c0.6,0.2,1.2,0.3,1.8,0.3c0.7,0,1.3-0.1,1.8-0.2
					c0.3-0.1,0.5-0.2,0.8-0.3c-0.1,0.2-0.1,0.4-0.2,0.6c-0.1,0.4-0.2,0.7-0.2,1.1c0,0.3,0,0.5,0.1,0.8c0,0.1,0.2,0.8,1.5,0.8
					c0.9,0,1.4-0.1,1.6-0.5c0.1-0.2,0-0.4-0.1-0.5c-0.1-0.2-0.3-0.5-0.4-0.7c-0.1-0.2-0.1-0.5-0.1-0.7c0-0.4,0.1-0.7,0.2-1
					c0.1-0.3,0.3-0.6,0.4-0.9c0.2-0.3,0.4-0.6,0.6-0.9c0.2-0.3,0.4-0.7,0.6-1c0.2-0.4,0.3-0.8,0.5-1.2c0.1-0.4,0.2-1,0.2-1.5
					c0-0.4,0-0.7-0.1-1c0-0.3-0.1-0.6-0.2-0.9c-0.2-0.6-0.8-1.5-1.7-2.2c-0.7-0.5-1.9-0.9-3.2-0.9c-1.1,0-2,0.2-2.9,0.5
					c-0.8,0.4-1.5,0.9-2.1,1.5c-0.6,0.6-1,1.3-1.3,2.1c-0.3,0.8-0.4,1.6-0.4,2.3c0,0.8,0.1,1.5,0.4,2.2
					C457.2,414.4,457.6,414.9,458,415.3z M463,407.7c0.8,0,1.4,0.2,1.8,0.7c0.4,0.4,0.6,1.1,0.6,2c0,0.5-0.1,1-0.2,1.5
					c-0.2,0.5-0.4,0.9-0.7,1.3c-0.3,0.4-0.6,0.7-1,0.9c-0.4,0.2-0.9,0.3-1.4,0.3c-0.8,0-1.4-0.2-1.8-0.7c-0.4-0.5-0.6-1.1-0.6-2
					c0-0.5,0.1-1,0.2-1.5c0.1-0.5,0.4-0.9,0.7-1.3c0.3-0.4,0.6-0.7,1-0.9C462,407.8,462.4,407.7,463,407.7z"/>
			</g>
		</g>
	</g>
	<g>
		<g>
			<path class="st0" d="M581.8,44.4c-0.1-0.3-0.4-0.8-0.9-1.1c-0.4-0.3-1-0.5-1.6-0.5c-0.5,0-1,0.1-1.4,0.3
				c-0.4,0.2-0.8,0.4-1.1,0.7c-0.3,0.3-0.5,0.7-0.7,1c-0.1,0.4-0.2,0.8-0.2,1.2c0,0.4,0.1,0.8,0.2,1.1c0.1,0.3,0.3,0.6,0.5,0.8
				c0.2,0.2,0.5,0.4,0.8,0.5c0.6,0.2,1.3,0.2,1.8,0c0,0,0,0,0.1,0c0,0.2-0.1,0.4-0.1,0.5c0,0.1,0,0.3,0,0.4c0,0.1,0.2,0.5,0.8,0.5
				c0.4,0,0.8,0,0.9-0.3c0.1-0.2,0-0.3,0-0.4c-0.1-0.1-0.1-0.2-0.2-0.3c0-0.1-0.1-0.2-0.1-0.3c0-0.2,0-0.3,0.1-0.4
				c0.1-0.1,0.1-0.3,0.2-0.4c0.1-0.1,0.2-0.3,0.3-0.4c0.1-0.2,0.2-0.3,0.3-0.5c0.1-0.2,0.2-0.4,0.2-0.6c0.1-0.2,0.1-0.5,0.1-0.8
				c0-0.2,0-0.4,0-0.5C581.9,44.7,581.9,44.6,581.8,44.4z M580.1,46.1c-0.1,0.2-0.2,0.4-0.3,0.6c-0.1,0.2-0.3,0.3-0.5,0.4
				c-0.2,0.1-0.4,0.1-0.6,0.1c-0.3,0-0.6-0.1-0.7-0.3c-0.2-0.2-0.3-0.5-0.3-0.9c0-0.2,0-0.5,0.1-0.7c0.1-0.2,0.2-0.4,0.3-0.6
				c0.1-0.2,0.3-0.3,0.5-0.4c0.2-0.1,0.4-0.1,0.6-0.1c0.3,0,0.6,0.1,0.8,0.3c0.2,0.2,0.3,0.5,0.3,0.8
				C580.2,45.7,580.2,45.9,580.1,46.1z"/>
			<path class="st0" d="M587.5,48c0.2,0.2,0.5,0.4,0.8,0.5c0.6,0.2,1.3,0.2,1.8,0c0,0,0,0,0.1,0c0,0.2-0.1,0.4-0.1,0.5
				c0,0.1,0,0.3,0,0.4c0,0.1,0.2,0.5,0.8,0.5c0.4,0,0.8,0,0.9-0.3c0.1-0.2,0-0.3,0-0.4c-0.1-0.1-0.1-0.2-0.2-0.3
				c0-0.1-0.1-0.2-0.1-0.3c0-0.2,0-0.3,0.1-0.4c0.1-0.1,0.1-0.3,0.2-0.4c0.1-0.1,0.2-0.3,0.3-0.4c0.1-0.2,0.2-0.3,0.3-0.5
				c0.1-0.2,0.2-0.4,0.2-0.6c0.1-0.2,0.1-0.5,0.1-0.8c0-0.2,0-0.4,0-0.5c0-0.1-0.1-0.3-0.1-0.5c-0.1-0.3-0.4-0.8-0.9-1.1
				c-0.4-0.3-1-0.5-1.6-0.5c-0.5,0-1,0.1-1.4,0.3c-0.4,0.2-0.8,0.4-1.1,0.7c-0.3,0.3-0.5,0.7-0.7,1c-0.1,0.4-0.2,0.8-0.2,1.2
				c0,0.4,0.1,0.8,0.2,1.1C587.1,47.5,587.3,47.8,587.5,48z M590.9,46.1c-0.1,0.2-0.2,0.4-0.3,0.6c-0.1,0.2-0.3,0.3-0.5,0.4
				c-0.2,0.1-0.4,0.1-0.6,0.1c-0.3,0-0.6-0.1-0.7-0.3c-0.2-0.2-0.3-0.5-0.3-0.9c0-0.2,0-0.5,0.1-0.7c0.1-0.2,0.2-0.4,0.3-0.6
				c0.1-0.2,0.3-0.3,0.4-0.4c0.2-0.1,0.4-0.1,0.6-0.1c0.3,0,0.6,0.1,0.8,0.3c0.2,0.2,0.3,0.5,0.3,0.8C591,45.7,591,45.9,590.9,46.1z
				"/>
			<path class="st0" d="M598.9,39.6c-0.2-0.2-0.4-0.3-0.6-0.3h-13.1v-8.6l1.7,4.4c0.2,0.5,0.7,0.7,1.1,0.5c0.5-0.2,0.7-0.7,0.5-1.1
				l-3.4-8.8c-0.2-0.4-0.6-0.6-1-0.5c-0.4,0.1-0.7,0.4-0.7,0.9v13.3h-13.1c-0.2,0-0.5,0.1-0.6,0.3c-0.2,0.2-0.3,0.4-0.3,0.6l0,29.2
				c0,0.2,0.1,0.5,0.3,0.6c0.2,0.2,0.4,0.3,0.6,0.3h0l13.1,0v8.6l-1.7-4.4c-0.2-0.5-0.7-0.7-1.1-0.5c-0.5,0.2-0.7,0.7-0.5,1.1
				l3.4,8.8c0.1,0.3,0.5,0.6,0.8,0.6c0.1,0,0.1,0,0.2,0c0.4-0.1,0.7-0.4,0.7-0.9V70.2l13.1,0c0.5,0,0.9-0.4,0.9-0.9l0-29.1
				C599.1,40,599,39.8,598.9,39.6z M586.8,68.4l3.4-10.9l0,10.9H586.8z M597.4,68.4l-5.5,0l0.1-16.7c0-0.2-0.1-0.5-0.3-0.6
				c-0.2-0.2-0.4-0.3-0.6-0.3c-0.4,0-0.7,0.3-0.8,0.6l-5.3,17l-6.6,0l5.1-16.5c0.1-0.3,0-0.6-0.1-0.8c-0.2-0.2-0.4-0.4-0.7-0.4h-5.4
				c-0.5,0-0.9,0.4-0.9,0.9l-0.1,16.7l-5.2,0l0-27.4h26.3L597.4,68.4z M578,63.5l0-10.9h3.4L578,63.5z"/>
		</g>
	</g>
	<g>
		<polygon class="st4" points="579.2,121.6 462.6,273.7 469.5,273.7 586.1,121.6 		"/>
		<path class="st4" d="M1580.5,4.2c-9.7-3.7-23.2-4-27.1-4c-0.7,0-1.1,0-1.1,0l-82.9,0H923.8l-242.2,0c0,0-27.8,0-43.6,0
			c-15.8,0-36.8,1.1-57.7,10.7c-21,9.6-33.1,27.3-33.1,27.3S229.7,417.8,223,425.8l-10.4,12.4c0,0-6,7.4-5.2,15.9
			c0.8,8.5,9.6,15.3,17,17.1c7.4,1.8,13.5,3.2,31.6,3.2c0.2,0,0.4,0,0.5,0c6.1,0,10.4,0,13.5,0c6.2,0,7.1,0,7.1,0l936.4-0.1
			c0,0,0.4,0,1.1,0c10.8,0,94.6-0.5,126.6-14.6c34.3-15.1,46.5-41.2,46.5-41.2l49-93.8l116.6-228.9l24.6-48.5c0,0,3.6-7.2,8.2-16.3
			c4.6-9.1,4.6-12,4.6-12S1591.9,8.6,1580.5,4.2z M681.6,5.7l53,0L467,378.1h-75.3l59.3-78.9c0.6-0.8,0.7-1.9,0.3-2.9
			c-0.5-0.9-1.4-1.5-2.4-1.5H339.7L505.6,96.6h100.7l70.1-90.9L681.6,5.7z M551.4,41.7l0.2-0.2l0.1-0.2c0.1-0.2,11.6-16.7,30.8-25.4
			c19.8-9,40.1-10.2,55.5-10.2l31.4,0l-65.9,85.4h-93.4L551.4,41.7z M270,469c-3,0-7.4,0-13.5,0l-0.5,0c-17.7,0-23.5-1.4-30.3-3.1
			c-5.8-1.4-12.3-6.7-12.9-12.3c-0.6-5.9,3.8-11.7,4-12l10.4-12.4l107.9-129h108.2l-59.2,78.9c-0.6,0.8-0.7,1.9-0.3,2.9
			c0.5,0.9,1.4,1.5,2.4,1.5h280.7l-52,85.2l0.4,0.3l-338.2,0C277.2,469,276.2,469,270,469z M1382.9,416.1l-0.1,0.1l0,0.1
			c-0.1,0.2-11.9,24.5-43.7,38.5c-31.1,13.7-114.9,14.1-124.4,14.1l-1.1,0l-592.3,0l52.1-85.4h726.6L1382.9,416.1z M1431.9,322.3
			l-29.2,55.8h-929l135.1-188.1h890.4L1431.9,322.3z M1585.3,18.5l-0.2-0.2l0.1,0.6c-0.2,0.8-0.9,3.6-4,9.6l-8.2,16.3l-24.6,48.5
			l-46.4,91.2H612.8L741.4,5.7l182.4,0h545.6l82.9,0h0.1l0.1,0c0,0,0.4,0,0.9,0c7.6,0,18.2,1,25.2,3.6
			C1585.3,11.9,1585.4,17.2,1585.3,18.5z"/>
	</g>
</g>
<g>
	<path class="st5" d="M1169.9,78.9c-3-3.6-7.1-5.3-12.4-5.3h-14.1c-1.3,0-2.3,1-2.3,2.3v24.8c0,1.3,1,2.3,2.3,2.3h14.1
		c4.9,0,8.6-1.5,11.7-4.6c0.9-0.9,4-4.4,4-10C1173.3,83.6,1171.2,80.4,1169.9,78.9 M1164.3,93.4c-0.9,1-2.9,2.8-6.3,2.8h-8.7
		c-0.3,0-0.5-0.2-0.5-0.5V81c0-0.3,0.2-0.5,0.5-0.5h8.7c3.1-0.1,5.1,1.3,6.3,2.7c1.3,1.5,1.9,3.3,1.9,5.1
		C1166.2,90.1,1165.5,91.9,1164.3,93.4"/>
	<path class="st5" d="M1133.4,72.7c-0.5,0-0.9,0.2-1.3,0.4l-27.3,20c-0.5,0.4-0.9,1-0.9,1.7v6.7c0,0.3,0.3,0.6,0.6,0.6h23.7l0,6.8
		h7.6l0-33.9C1135.7,73.7,1134.6,72.7,1133.4,72.7 M1128.2,95.3H1114c-0.2,0-0.3-0.1-0.4-0.3c-0.1-0.2,0-0.3,0.2-0.4l13.8-9.9
		c0.1,0,0.1-0.1,0.2-0.1c0.2,0,0.4,0.2,0.4,0.4V95.3z"/>
	<path class="st5" d="M1219.5,93.9c-0.2-0.2-0.5-0.3-0.7-0.3h-10.4l30.2-31c0.1-0.1,0.2-0.3,0.1-0.5c-0.1-0.2-0.2-0.3-0.4-0.3h-16
		c-0.3,0-0.6,0.1-0.8,0.3l-18.2,17.2l-11.2-9.9c-0.2-0.2-0.5-0.3-0.8-0.3h-15.8c-0.2,0-0.3,0.1-0.4,0.3c-0.1,0.2,0,0.4,0.1,0.5
		l13.1,12.7c0.2,0.2,0.5,0.3,0.8,0.3h9.7l-27.4,25.7c-0.1,0.1-0.2,0.3-0.1,0.5c0.1,0.2,0.2,0.3,0.4,0.3h21.1c0.3,0,0.6-0.1,0.8-0.3
		l9.9-10.2l18.7,19c0.2,0.2,0.5,0.3,0.8,0.3h23.6c0.2,0,0.3-0.1,0.4-0.3c0.1-0.2,0-0.4-0.1-0.5L1219.5,93.9z"/>
	<path class="st5" d="M1406,75.7v18.5c0,0.4-0.2,0.6-0.6,0.6c-0.3,0-0.6-0.2-0.9-0.7l-10.7-16c-0.7-1-2.1-3.1-6.1-3.1
		c-3.5,0-5.5,1.9-5.5,5.4v20.1h6V82.1c0-0.4,0.2-0.6,0.6-0.6c0.4,0,0.6,0.2,0.9,0.7l10.8,16.3c1.3,1.9,3.2,2.8,6,2.8
		c2.5,0,5.5-0.9,5.5-5.4V75.7H1406z"/>
	<path class="st5" d="M1271.5,80.2c-0.9,1-2.8,3.7-2.8,7.9c0,4.6,2.4,7.5,3.4,8.5c2.6,2.7,5.8,3.9,9.9,3.9h11.8V95h-11.7
		c-3.3,0-4.8-1.7-5.5-2.4c-0.2-0.2-1.7-1.9-1.7-4.4c0-2.3,1.2-3.9,1.6-4.3c1.4-1.6,3.2-2.4,5.6-2.4h11.7v-5.7H1282
		C1276.1,75.7,1273.2,78.3,1271.5,80.2"/>
	<path class="st5" d="M1258.7,85.6h-10.3c-0.9,0-1.5-0.2-1.9-0.6c-0.4-0.4-0.5-0.8-0.5-1.4c0-0.6,0.2-1.1,0.6-1.5
		c0.5-0.5,1.2-0.6,1.9-0.6h17.3v-5.7h-17.5c-3.1,0-5,0.7-6.5,2.5c-1.1,1.3-1.8,3.1-1.8,5.1c0,2,0.7,4.1,1.8,5.3c1,1,2.6,2.2,6.4,2.2
		h9.9c1.2,0,1.7,0.2,2.1,0.6c0.4,0.4,0.6,0.9,0.6,1.5c0,0.6-0.2,1-0.6,1.5c-0.4,0.4-0.9,0.7-2.1,0.7h-17.6v5.6h17.9
		c3.9,0,5.7-1.6,6.7-2.8c0.8-0.9,1.7-2.5,1.7-4.7c0-1.8-0.6-3.4-1.7-4.8C1263.6,86.5,1261.4,85.6,1258.7,85.6"/>
	<path class="st5" d="M1326.3,79.2V97c0,2.4,1.2,3.6,3.6,3.6h21.4V95h-18.5c-0.4,0-0.5-0.2-0.5-0.6v-3.8h18.9v-5.1h-18.9v-3.6
		c0-0.4,0.2-0.5,0.5-0.5h18.5v-5.7H1330C1327.6,75.7,1326.3,76.9,1326.3,79.2"/>
	<path class="st5" d="M1354.3,79.2V97c0,2.4,1.2,3.6,3.6,3.6h21.4V95h-18.5c-0.4,0-0.5-0.2-0.5-0.6v-3.8h18.9v-5.1h-18.9v-3.6
		c0-0.4,0.2-0.5,0.5-0.5h18.5v-5.7h-21.4C1355.5,75.7,1354.3,76.9,1354.3,79.2"/>
	<path class="st5" d="M1323.4,93.3c0-1.5-0.2-2.6-0.7-3.5c-0.4-0.7-0.9-1.3-1.6-1.7c0.9-0.6,1.5-1.4,1.8-2.2c0.4-0.9,0.6-2,0.6-3.1
		c0-1.6-0.6-3.3-1.7-4.6c-1.4-1.6-3.5-2.5-6.2-2.5h-15.2c-2.4,0-3.7,1.2-3.7,3.5v21.4h5.8v-9.2h12c1.1,0,1.9,0.2,2.3,0.6
		c0.4,0.4,0.6,1.1,0.6,2v4.6c0,0.9,0.1,2,0.1,2h5.9c0,0-0.1-0.5-0.1-2.5V93.3z M1316.1,85.9c-0.4,0.2-1,0.3-1.7,0.3h-11.5v-4.5
		c0-0.2,0.2-0.4,0.4-0.4h11.1c0.7,0,1.2,0.1,1.5,0.2c1,0.4,1.6,1.2,1.6,2.3C1317.5,84.4,1317.1,85.4,1316.1,85.9"/>
</g>
<g>
</g>
<g>
</g>
<g>
</g>
<g>
</g>
<g>
</g>
<g>
</g>
</svg>
