<?xml version="1.0" encoding="utf-8"?>
<!-- Generator: Adobe Illustrator 24.1.0, SVG Export Plug-In . SVG Version: 6.00 Build 0)  -->
<svg version="1.1" id="レイヤー_1" xmlns="http://www.w3.org/2000/svg" xmlns:xlink="http://www.w3.org/1999/xlink" x="0px"
	 y="0px" width="1591.9px" height="476.5px" viewBox="0 0 1591.9 476.5" style="enable-background:new 0 0 1591.9 476.5;"
	 xml:space="preserve">
<style type="text/css">
	.st0{fill:#CCA57E;}
	.st1{fill:url(#SVGID_1_);}
	.st2{fill:url(#SVGID_2_);}
	.st3{fill:url(#SVGID_3_);}
	.st4{fill:url(#SVGID_4_);}
	.st5{fill:url(#SVGID_5_);}
	.st6{fill:url(#SVGID_6_);}
	.st7{fill:url(#SVGID_7_);}
	.st8{fill:#D51523;}
	.st9{fill:#129D3C;}
	.st10{fill:#054994;}
	.st11{fill:#1B94D3;}
	.st12{fill:url(#SVGID_8_);}
	.st13{fill:url(#SVGID_9_);}
	.st14{fill:url(#SVGID_10_);}
	.st15{fill:url(#SVGID_11_);}
	.st16{fill:url(#SVGID_12_);}
	.st17{fill:url(#SVGID_13_);}
	.st18{fill:url(#SVGID_14_);}
	.st19{fill:#AD0D20;}
	.st20{fill:#182A83;}
	.st21{fill:#7D7D7D;}
	.st22{fill:none;}
	.st23{fill:#9E9D9D;}
</style>
<g>
	<g>
		<g>
			<path class="st0" d="M29.2,442.4c1.6,0.4,3,1.1,4.3,1.8c1.3,0.8,2.4,1.7,3.3,2.9c0.9,1.2,1.6,2.5,2.1,4c0.5,1.5,0.8,3.3,0.8,5.2
				c0,3.1-0.5,5.9-1.6,8.3c-1.1,2.5-2.5,4.6-4.4,6.3c-1.9,1.7-4.1,3.1-6.7,4s-5.3,1.4-8.3,1.4c-2.5,0-4.8-0.4-6.9-1.1
				c-2.1-0.7-3.8-1.8-5.3-3.1c-1.5-1.3-2.6-2.9-3.4-4.8c-0.8-1.9-1.2-4-1.2-6.3c0-2.7,0.4-5,1.1-7.1c0.7-2.1,1.7-3.9,3-5.4
				c1.3-1.5,2.8-2.8,4.6-3.8c1.8-1,3.7-1.8,5.9-2.2c-2.9-1-5.1-2.7-6.5-4.9c-1.5-2.3-2.2-4.9-2.2-7.9c0-2.5,0.5-4.9,1.4-7.1
				c0.9-2.2,2.2-4.1,3.9-5.8c1.6-1.6,3.6-3,5.9-3.9c2.3-1,4.8-1.4,7.6-1.4c2.3,0,4.4,0.4,6.2,1.1c1.8,0.8,3.4,1.8,4.6,3.1
				c1.3,1.3,2.2,2.8,2.9,4.6c0.7,1.7,1,3.6,1,5.5c0,2-0.3,3.9-0.8,5.7c-0.5,1.8-1.3,3.4-2.4,4.9c-1.1,1.5-2.4,2.7-3.9,3.8
				C32.9,440.9,31.1,441.8,29.2,442.4z M19.1,472.8c2.3,0,4.5-0.4,6.5-1.2c2-0.8,3.7-1.9,5.2-3.3c1.5-1.4,2.6-3.2,3.4-5.2
				s1.2-4.3,1.2-6.8c0-2.3-0.4-4.2-1.2-5.8c-0.8-1.6-1.8-2.8-3-3.8c-1.2-0.9-2.6-1.6-4.1-2c-1.5-0.4-3-0.6-4.4-0.6
				c-1.7,0-3.5,0.3-5.5,0.8c-1.9,0.5-3.7,1.4-5.3,2.6c-1.6,1.3-3,2.9-4,5c-1.1,2.1-1.6,4.7-1.6,7.9c0,1.8,0.3,3.5,0.9,5
				c0.6,1.5,1.4,2.8,2.5,3.9c1.1,1.1,2.4,1.9,4,2.5C15.4,472.5,17.2,472.8,19.1,472.8z M12,429.4c0,1.5,0.2,2.9,0.7,4.3
				c0.4,1.4,1.1,2.6,2,3.6c0.9,1.1,2.1,1.9,3.5,2.6c1.4,0.6,3.1,1,5,1c2.4,0,4.4-0.4,6.2-1.3c1.8-0.9,3.3-2,4.5-3.4
				c1.2-1.4,2.1-3,2.7-4.8c0.6-1.8,0.9-3.6,0.9-5.4c0-1.6-0.2-3-0.7-4.4c-0.5-1.4-1.2-2.6-2.1-3.6c-0.9-1-2.1-1.8-3.5-2.4
				c-1.4-0.6-3-0.9-4.8-0.9c-2.2,0-4.2,0.4-5.9,1.2c-1.8,0.8-3.3,1.8-4.5,3.1c-1.2,1.3-2.2,2.9-2.9,4.7
				C12.3,425.3,12,427.3,12,429.4z"/>
			<path class="st0" d="M66.6,416.2l-3.3,26.6h26.3l-0.5,3.7H62.8l-3.5,29h-4.5l7.7-63h34.8l-0.5,3.7H66.6z"/>
		</g>
	</g>
	<g>
		<g>
			<path class="st0" d="M489.3,155.4c-0.2-0.6-0.7-1.3-1.4-1.8c-0.6-0.5-1.6-0.7-2.7-0.7c-0.9,0-1.7,0.2-2.4,0.5
				c-0.7,0.3-1.3,0.7-1.8,1.2c-0.5,0.5-0.8,1.1-1.1,1.7c-0.2,0.6-0.4,1.3-0.4,2c0,0.7,0.1,1.3,0.3,1.8c0.2,0.5,0.5,0.9,0.8,1.3
				c0.4,0.3,0.8,0.6,1.2,0.8c0.5,0.2,1,0.3,1.5,0.3c0.6,0,1.1-0.1,1.5-0.2c0.4-0.1,0.8-0.3,1.2-0.6c-0.2,0.4-0.4,0.7-0.4,1
				c-0.1,0.3-0.1,0.6-0.1,0.9c0,0.2,0,0.4,0.1,0.6c0,0,0.1,0.5,1.1,0.5c1.6,0,1.1-0.5,1.1-0.5c-0.1-0.2-0.2-0.4-0.3-0.7
				c-0.1-0.2-0.1-0.5-0.1-0.7c0-0.3,0.1-0.7,0.2-1c0.1-0.3,0.2-0.6,0.4-0.8s0.3-0.6,0.5-0.8c0.2-0.3,0.4-0.6,0.5-0.9
				c0.2-0.3,0.3-0.7,0.4-1c0.1-0.4,0.2-0.8,0.2-1.3c0-0.3,0-0.6-0.1-0.8C489.4,155.9,489.4,155.6,489.3,155.4z M487.1,158.4
				c-0.1,0.4-0.3,0.8-0.6,1.2c-0.3,0.4-0.6,0.6-1,0.9c-0.4,0.2-0.8,0.3-1.3,0.3c-0.7,0-1.3-0.2-1.7-0.7c-0.4-0.4-0.6-1.1-0.6-1.9
				c0-0.5,0.1-0.9,0.2-1.4c0.1-0.4,0.3-0.8,0.6-1.2c0.3-0.3,0.6-0.6,1-0.8c0.4-0.2,0.8-0.3,1.3-0.3c0.7,0,1.3,0.2,1.7,0.6
				c0.4,0.4,0.6,1,0.6,1.8C487.3,157.5,487.2,157.9,487.1,158.4z"/>
			<path class="st0" d="M510.5,201.1h-12.1l-12.7-12.7l6.5-20.9c0.1-0.3,0-0.6-0.1-0.9c-0.2-0.3-0.5-0.4-0.8-0.4h-9.8
				c-0.5,0-1,0.4-1,1l-0.1,15.9L464.3,167c-0.2-0.2-0.4-0.3-0.7-0.3h-12.5c-0.5,0-1,0.4-1,1c0,0.5,0.4,1,1,1h12.1l34.1,34.1
				c0.2,0.2,0.4,0.3,0.7,0.3h12.5c0.5,0,1-0.4,1-1C511.5,201.5,511,201.1,510.5,201.1z M482.4,168.2h7.5l-5.8,18.6l-1.8-1.7
				L482.4,168.2z"/>
		</g>
	</g>
	<g>
		<path class="st0" d="M906.4,225.5l-0.3,2c-0.1,0.7-0.4,1.2-0.7,1.6c-0.4,0.4-1,0.6-1.8,0.6h-42.5L849,271.1
			c7.2-1.9,13.9-2.8,20-2.8c4.8,0,9.1,0.7,12.8,2.2c3.7,1.4,6.7,3.4,9.2,6c2.4,2.5,4.3,5.6,5.5,9.1c1.2,3.5,1.8,7.4,1.8,11.6
			c0,6.7-1.1,12.6-3.4,17.8c-2.3,5.2-5.3,9.7-9.1,13.3c-3.8,3.7-8.1,6.4-13.1,8.4c-4.9,1.9-10.1,2.9-15.3,2.9c-2.8,0-5.5-0.3-8-0.8
			c-2.5-0.5-4.9-1.2-7.1-2c-2.2-0.8-4.1-1.8-5.9-2.9c-1.8-1.1-3.3-2.2-4.5-3.3l1.3-1.5c0.3-0.5,0.7-0.8,1.3-0.9
			c0.6-0.2,1.1,0,1.6,0.4c1.1,0.9,2.5,1.8,4,2.7c1.5,0.9,3.2,1.7,5.1,2.4c1.9,0.7,3.9,1.3,6,1.7c2.2,0.4,4.5,0.6,6.9,0.6
			c4.7,0,9.3-0.9,13.6-2.6c4.3-1.7,8.2-4.2,11.5-7.5c3.3-3.3,6-7.3,8-12.1c2-4.8,3-10.2,3-16.2c0-3.7-0.5-7.1-1.6-10.2
			c-1.1-3.1-2.7-5.8-4.9-8.1c-2.2-2.2-4.9-4-8.3-5.3c-3.3-1.3-7.3-1.9-11.8-1.9c-3,0-6.2,0.2-9.6,0.7c-3.4,0.5-7.1,1.3-11.1,2.4
			l-2.8-1l14.1-48.7H906.4z"/>
	</g>
	<g>
		<path class="st0" d="M932.2,80.2c-2.4,2.9-4.5,5.6-6.3,8c-1.8,2.4-3.4,4.8-4.9,7.2c1.7-2.2,3.6-4.1,5.8-5.8
			c2.1-1.7,4.4-3.2,6.8-4.4c2.4-1.2,4.9-2.1,7.5-2.7c2.6-0.6,5.3-0.9,7.9-0.9c4.2,0,8,0.7,11.4,2.1c3.4,1.4,6.3,3.4,8.7,6
			c2.4,2.6,4.2,5.6,5.5,9.1c1.3,3.5,1.9,7.4,1.9,11.7c0,5.7-1,11-3,15.7c-2,4.8-4.7,8.9-8.2,12.3c-3.5,3.5-7.5,6.2-12.2,8.1
			c-4.7,1.9-9.7,2.9-15.1,2.9c-4.3,0-8.1-0.7-11.6-2.1c-3.4-1.4-6.4-3.5-8.8-6.1c-2.4-2.6-4.3-5.9-5.6-9.7c-1.3-3.8-2-8.1-2-12.9
			c0-3,0.3-5.9,1-8.9c0.7-3,1.7-6.1,3.2-9.3c1.4-3.2,3.3-6.5,5.6-10c2.3-3.5,5-7.2,8.2-11.1l34.4-42.4c0.9-1.1,1.9-1.7,3.2-1.7h3.3
			L932.2,80.2z M938.4,146c5.1,0,9.8-0.9,14-2.7s7.7-4.3,10.7-7.4c2.9-3.2,5.2-6.9,6.8-11.2c1.6-4.3,2.4-9,2.4-14
			c0-3.9-0.6-7.5-1.7-10.7c-1.1-3.2-2.8-5.9-4.9-8.1c-2.1-2.2-4.7-3.9-7.7-5.2c-3-1.2-6.3-1.8-9.9-1.8c-5.1,0-9.8,1-14,3
			c-4.2,2-7.7,4.6-10.7,7.8c-3,3.2-5.2,6.9-6.9,10.9c-1.6,4.1-2.4,8.1-2.4,12.2c0,3.9,0.6,7.5,1.7,10.7c1.1,3.3,2.7,6.2,4.8,8.6
			s4.6,4.4,7.6,5.7C931.2,145.3,934.6,146,938.4,146z"/>
	</g>
	<g>
		<g>
			<g>
				<g>
					<g>
						<g>
							
								<linearGradient id="SVGID_1_" gradientUnits="userSpaceOnUse" x1="1144.9365" y1="107.7721" x2="1144.9365" y2="76.7593" gradientTransform="matrix(1 0 0.1823 1 -27.5475 0)">
								<stop  offset="0" style="stop-color:#1B94D3"/>
								<stop  offset="0.2697" style="stop-color:#1A91D0"/>
								<stop  offset="0.4864" style="stop-color:#1787C8"/>
								<stop  offset="0.6846" style="stop-color:#1276BA"/>
								<stop  offset="0.8706" style="stop-color:#0B5EA6"/>
								<stop  offset="1" style="stop-color:#054994"/>
							</linearGradient>
							<path class="st1" d="M1122.2,72.9h14.9c1.8,0,3.4,0.3,4.7,0.8c1.3,0.5,2.4,1.3,3.2,2.3c0.6,0.7,1,1.5,1.4,2.4
								c0.3,0.9,0.5,2,0.5,3.2l0,0.1c0,2-0.4,3.6-1.3,4.9c-0.8,1.2-1.9,2.2-3.2,2.9c1.8,0.7,3.2,1.7,4.2,3c1,1.3,1.6,3.1,1.6,5.5
								l0,0.1c0,3-1,5.4-2.9,7c-1.9,1.7-4.7,2.5-8.2,2.5h-15.1L1122.2,72.9z M1136.3,99.9c1.3,0,2.2-0.3,2.9-0.8
								c0.7-0.5,1-1.3,1-2.4v-0.1c0-1-0.3-1.7-1-2.3c-0.6-0.6-1.6-0.8-3-0.8h-6.2l0,6.4H1136.3z M1135.1,86.7c1.3,0,2.2-0.2,2.9-0.7
								c0.7-0.5,1-1.3,1-2.3l0-0.1c0-1-0.3-1.7-0.9-2.2c-0.6-0.5-1.5-0.8-2.8-0.8h-5.3l0,6.1H1135.1z"/>
							
								<linearGradient id="SVGID_2_" gradientUnits="userSpaceOnUse" x1="1188.1907" y1="107.7721" x2="1188.1907" y2="76.7593" gradientTransform="matrix(1 0 0.1823 1 -27.5475 0)">
								<stop  offset="0" style="stop-color:#1B94D3"/>
								<stop  offset="0.2697" style="stop-color:#1A91D0"/>
								<stop  offset="0.4864" style="stop-color:#1787C8"/>
								<stop  offset="0.6846" style="stop-color:#1276BA"/>
								<stop  offset="0.8706" style="stop-color:#0B5EA6"/>
								<stop  offset="1" style="stop-color:#054994"/>
							</linearGradient>
							<path class="st2" d="M1165.4,72.9h23.4l0,8.2h-15.5l0,5.3h14l0,7.6h-14l0,5.5h15.7l0,8.2h-23.6L1165.4,72.9z"/>
							
								<linearGradient id="SVGID_3_" gradientUnits="userSpaceOnUse" x1="1227.9219" y1="107.7712" x2="1227.9219" y2="76.7592" gradientTransform="matrix(1 0 0.1823 1 -27.5475 0)">
								<stop  offset="0" style="stop-color:#1B94D3"/>
								<stop  offset="0.2697" style="stop-color:#1A91D0"/>
								<stop  offset="0.4864" style="stop-color:#1787C8"/>
								<stop  offset="0.6846" style="stop-color:#1276BA"/>
								<stop  offset="0.8706" style="stop-color:#0B5EA6"/>
								<stop  offset="1" style="stop-color:#054994"/>
							</linearGradient>
							<path class="st3" d="M1218,108.2c-2.6,0-5.1-0.5-7.4-1.4c-2.3-1-4.4-2.4-6.2-4.3l4.5-6.4c2.9,2.8,6.1,4.2,9.5,4.2
								c1.1,0,1.9-0.2,2.5-0.6c0.6-0.4,0.9-1,0.9-1.8v-0.1c0-0.4-0.1-0.7-0.2-1c-0.1-0.3-0.4-0.6-0.8-0.8c-0.4-0.3-0.9-0.5-1.5-0.8
								c-0.6-0.2-1.4-0.5-2.4-0.8c-1.6-0.4-3-0.9-4.3-1.4c-1.3-0.5-2.5-1.2-3.5-2c-1-0.8-1.8-1.8-2.3-3c-0.6-1.2-0.9-2.7-0.8-4.5
								v-0.1c0-1.6,0.3-3.1,0.8-4.5c0.5-1.4,1.3-2.5,2.3-3.5c1-1,2.2-1.8,3.6-2.3c1.4-0.5,3-0.8,4.7-0.8c2.5,0,4.7,0.4,6.7,1.2
								c2,0.8,3.7,1.9,5.3,3.5l-4.1,6.8c-1.3-1.1-2.7-2-4.1-2.6c-1.4-0.6-2.8-0.9-4.1-0.9c-1,0-1.7,0.2-2.2,0.6
								c-0.5,0.4-0.7,1-0.7,1.6v0.1c0,0.4,0.1,0.7,0.2,1c0.2,0.3,0.4,0.6,0.8,0.8c0.4,0.2,0.9,0.5,1.5,0.7c0.7,0.2,1.5,0.5,2.5,0.8
								c1.7,0.4,3.2,0.9,4.5,1.5c1.3,0.6,2.5,1.3,3.4,2.1c0.9,0.8,1.7,1.8,2.2,3c0.5,1.2,0.7,2.6,0.7,4.2v0.1c0,1.8-0.3,3.4-0.9,4.8
								c-0.6,1.4-1.4,2.6-2.4,3.5c-1,1-2.3,1.7-3.7,2.2C1221.4,107.9,1219.8,108.2,1218,108.2z"/>
							
								<linearGradient id="SVGID_4_" gradientUnits="userSpaceOnUse" x1="1271.8625" y1="107.7721" x2="1271.8625" y2="76.7593" gradientTransform="matrix(1 0 0.1823 1 -27.5475 0)">
								<stop  offset="0" style="stop-color:#1B94D3"/>
								<stop  offset="0.2697" style="stop-color:#1A91D0"/>
								<stop  offset="0.4864" style="stop-color:#1787C8"/>
								<stop  offset="0.6846" style="stop-color:#1276BA"/>
								<stop  offset="0.8706" style="stop-color:#0B5EA6"/>
								<stop  offset="1" style="stop-color:#054994"/>
							</linearGradient>
							<path class="st4" d="M1254.3,81.3h-8.8l0-8.4h25.6l0,8.4h-8.8l0,26.3h-8.1L1254.3,81.3z"/>
							
								<linearGradient id="SVGID_5_" gradientUnits="userSpaceOnUse" x1="1303.4214" y1="107.7721" x2="1303.4214" y2="76.7593" gradientTransform="matrix(1 0 0.1823 1 -27.5475 0)">
								<stop  offset="0" style="stop-color:#1B94D3"/>
								<stop  offset="0.2697" style="stop-color:#1A91D0"/>
								<stop  offset="0.4864" style="stop-color:#1787C8"/>
								<stop  offset="0.6846" style="stop-color:#1276BA"/>
								<stop  offset="0.8706" style="stop-color:#0B5EA6"/>
								<stop  offset="1" style="stop-color:#054994"/>
							</linearGradient>
							<path class="st5" d="M1288.3,72.9h8.1l-0.1,34.7h-8.1L1288.3,72.9z"/>
							<g>
								
									<linearGradient id="SVGID_6_" gradientUnits="userSpaceOnUse" x1="1335.4967" y1="107.7721" x2="1335.4967" y2="76.7593" gradientTransform="matrix(1 0 0.1823 1 -27.5475 0)">
									<stop  offset="0" style="stop-color:#1B94D3"/>
									<stop  offset="0.2697" style="stop-color:#1A91D0"/>
									<stop  offset="0.4864" style="stop-color:#1787C8"/>
									<stop  offset="0.6846" style="stop-color:#1276BA"/>
									<stop  offset="0.8706" style="stop-color:#0B5EA6"/>
									<stop  offset="1" style="stop-color:#054994"/>
								</linearGradient>
								<polygon class="st6" points="1333,72.6 1325.2,72.6 1312.8,107.6 1339.1,89.8 								"/>
								
									<linearGradient id="SVGID_7_" gradientUnits="userSpaceOnUse" x1="1337.0171" y1="107.7721" x2="1337.0171" y2="76.7604" gradientTransform="matrix(1 0 0.1823 1 -27.5475 0)">
									<stop  offset="0" style="stop-color:#1B94D3"/>
									<stop  offset="0.2697" style="stop-color:#1A91D0"/>
									<stop  offset="0.4864" style="stop-color:#1787C8"/>
									<stop  offset="0.6846" style="stop-color:#1276BA"/>
									<stop  offset="0.8706" style="stop-color:#0B5EA6"/>
									<stop  offset="1" style="stop-color:#054994"/>
								</linearGradient>
								<polygon class="st7" points="1312.8,107.6 1345.4,107.6 1341.9,97.6 								"/>
							</g>
						</g>
					</g>
				</g>
			</g>
			<rect x="1066.4" y="101.6" class="st8" width="35.7" height="6"/>
			<rect x="1066.4" y="87.1" class="st9" width="35.7" height="6"/>
			<rect x="1066.4" y="72.6" class="st10" width="35.7" height="6"/>
			<g>
				<path class="st11" d="M1066.4,117h4c1,0,1.8,0.3,2.3,0.8c0.4,0.4,0.6,0.9,0.6,1.5v0c0,0.3,0,0.5-0.1,0.7
					c-0.1,0.2-0.2,0.4-0.3,0.6c-0.1,0.2-0.2,0.3-0.4,0.4c-0.2,0.1-0.3,0.2-0.5,0.3c0.3,0.1,0.5,0.2,0.7,0.3c0.2,0.1,0.4,0.3,0.6,0.4
					c0.2,0.2,0.3,0.4,0.4,0.6c0.1,0.2,0.1,0.5,0.1,0.8v0c0,0.4-0.1,0.8-0.2,1.1c-0.2,0.3-0.4,0.6-0.7,0.8c-0.3,0.2-0.6,0.4-1,0.5
					c-0.4,0.1-0.9,0.2-1.4,0.2h-4.1V117z M1070.1,120.7c0.5,0,0.9-0.1,1.2-0.3c0.3-0.2,0.5-0.5,0.5-0.9v0c0-0.4-0.1-0.6-0.4-0.8
					c-0.3-0.2-0.7-0.3-1.2-0.3h-2.3v2.4H1070.1z M1070.6,124.5c0.5,0,1-0.1,1.3-0.3c0.3-0.2,0.5-0.5,0.5-0.9v0
					c0-0.4-0.2-0.7-0.5-0.9c-0.3-0.2-0.8-0.3-1.4-0.3h-2.5v2.5H1070.6z"/>
				<path class="st11" d="M1079.4,118.2h5.7v1.2h-4.4v2h3.9v1.2h-3.9v2.1h4.4v1.2h-5.8V118.2z"/>
				<path class="st11" d="M1092.8,126.1c-0.6,0-1.2-0.1-1.7-0.3c-0.5-0.2-1-0.5-1.5-0.9l0.8-1c0.4,0.3,0.8,0.6,1.1,0.7
					c0.4,0.2,0.8,0.3,1.3,0.3c0.4,0,0.8-0.1,1-0.3c0.2-0.2,0.4-0.4,0.4-0.7v0c0-0.1,0-0.3-0.1-0.4c0-0.1-0.1-0.2-0.3-0.3
					c-0.1-0.1-0.3-0.2-0.5-0.3c-0.2-0.1-0.5-0.2-0.9-0.2c-0.4-0.1-0.8-0.2-1.1-0.3c-0.3-0.1-0.6-0.3-0.8-0.4
					c-0.2-0.2-0.4-0.4-0.5-0.6c-0.1-0.2-0.2-0.6-0.2-0.9v0c0-0.3,0.1-0.6,0.2-0.9c0.1-0.3,0.3-0.5,0.5-0.7c0.2-0.2,0.5-0.3,0.8-0.5
					c0.3-0.1,0.7-0.2,1.1-0.2c0.6,0,1.1,0.1,1.5,0.2c0.5,0.2,0.9,0.4,1.3,0.7l-0.7,1c-0.4-0.3-0.7-0.5-1-0.6c-0.3-0.1-0.7-0.2-1-0.2
					c-0.4,0-0.7,0.1-0.9,0.3c-0.2,0.2-0.3,0.4-0.3,0.6v0c0,0.1,0,0.3,0.1,0.4c0.1,0.1,0.1,0.2,0.3,0.3c0.1,0.1,0.3,0.2,0.6,0.3
					c0.2,0.1,0.5,0.2,0.9,0.3c0.4,0.1,0.8,0.2,1.1,0.3c0.3,0.1,0.6,0.3,0.8,0.5c0.2,0.2,0.4,0.4,0.5,0.6c0.1,0.2,0.2,0.5,0.2,0.8v0
					c0,0.4-0.1,0.7-0.2,1c-0.1,0.3-0.3,0.5-0.6,0.7c-0.2,0.2-0.5,0.3-0.9,0.5C1093.6,126,1093.2,126.1,1092.8,126.1z"/>
				<path class="st11" d="M1102.4,119.5h-2.4v-1.3h6.2v1.3h-2.4v6.5h-1.4V119.5z"/>
				<path class="st11" d="M1122.8,117h1.6v9h-1.6V117z"/>
				<path class="st11" d="M1130.5,118.2h1.4l2.3,3.7l2.3-3.7h1.4v7.7h-1.3v-5.5l-2.4,3.6h0l-2.4-3.6v5.5h-1.3V118.2z"/>
				<path class="st11" d="M1143.3,118.2h1.4l2.3,3.7l2.3-3.7h1.4v7.7h-1.3v-5.5l-2.4,3.6h0l-2.4-3.6v5.5h-1.3V118.2z"/>
				<path class="st11" d="M1156.2,118.2h5.7v1.2h-4.4v2h3.9v1.2h-3.9v2.1h4.4v1.2h-5.8V118.2z"/>
				<path class="st11" d="M1166.9,118.2h3.4c0.5,0,0.9,0.1,1.3,0.2c0.4,0.1,0.7,0.3,0.9,0.6c0.2,0.2,0.4,0.5,0.5,0.7
					c0.1,0.3,0.2,0.6,0.2,0.9v0c0,0.3,0,0.6-0.1,0.9c-0.1,0.3-0.2,0.5-0.4,0.7c-0.2,0.2-0.4,0.4-0.6,0.5c-0.2,0.1-0.5,0.2-0.7,0.3
					l2.1,2.9h-1.6l-1.9-2.7h0h-1.7v2.7h-1.3V118.2z M1170.3,122c0.5,0,0.9-0.1,1.2-0.3c0.3-0.2,0.4-0.5,0.4-0.9v0
					c0-0.4-0.1-0.7-0.4-1c-0.3-0.2-0.7-0.3-1.2-0.3h-2v2.6H1170.3z"/>
				<path class="st11" d="M1180.9,126.1c-0.6,0-1.2-0.1-1.7-0.3c-0.5-0.2-1-0.5-1.5-0.9l0.8-1c0.4,0.3,0.8,0.6,1.1,0.7
					c0.4,0.2,0.8,0.3,1.3,0.3c0.4,0,0.8-0.1,1-0.3c0.2-0.2,0.4-0.4,0.4-0.7v0c0-0.1,0-0.3-0.1-0.4c0-0.1-0.1-0.2-0.3-0.3
					c-0.1-0.1-0.3-0.2-0.5-0.3c-0.2-0.1-0.5-0.2-0.9-0.2c-0.4-0.1-0.8-0.2-1.1-0.3c-0.3-0.1-0.6-0.3-0.8-0.4
					c-0.2-0.2-0.4-0.4-0.5-0.6c-0.1-0.2-0.2-0.6-0.2-0.9v0c0-0.3,0.1-0.6,0.2-0.9c0.1-0.3,0.3-0.5,0.5-0.7c0.2-0.2,0.5-0.3,0.8-0.5
					c0.3-0.1,0.7-0.2,1.1-0.2c0.6,0,1.1,0.1,1.5,0.2c0.5,0.2,0.9,0.4,1.3,0.7l-0.7,1c-0.4-0.3-0.7-0.5-1-0.6c-0.3-0.1-0.7-0.2-1-0.2
					c-0.4,0-0.7,0.1-0.9,0.3c-0.2,0.2-0.3,0.4-0.3,0.6v0c0,0.1,0,0.3,0.1,0.4c0.1,0.1,0.1,0.2,0.3,0.3c0.1,0.1,0.3,0.2,0.6,0.3
					c0.2,0.1,0.5,0.2,0.9,0.3c0.4,0.1,0.8,0.2,1.1,0.3c0.3,0.1,0.6,0.3,0.8,0.5c0.2,0.2,0.4,0.4,0.5,0.6c0.1,0.2,0.2,0.5,0.2,0.8v0
					c0,0.4-0.1,0.7-0.2,1c-0.1,0.3-0.3,0.5-0.6,0.7c-0.2,0.2-0.5,0.3-0.9,0.5C1181.7,126,1181.3,126.1,1180.9,126.1z"/>
				<path class="st11" d="M1188.7,118.2h1.3v7.7h-1.3V118.2z"/>
				<path class="st11" d="M1194.8,118.2h1.5l2.3,5.9l2.3-5.9h1.5l-3.2,7.8h-1.2L1194.8,118.2z"/>
				<path class="st11" d="M1207,118.2h5.7v1.2h-4.4v2h3.9v1.2h-3.9v2.1h4.4v1.2h-5.8V118.2z"/>
				<path class="st11" d="M1232.6,116.9h1.5l3.9,9h-1.7l-0.9-2.2h-4.2l-0.9,2.2h-1.6L1232.6,116.9z M1234.9,122.4l-1.5-3.6l-1.5,3.6
					H1234.9z"/>
				<path class="st11" d="M1246.5,126.1c-0.5,0-1-0.1-1.4-0.2c-0.4-0.1-0.7-0.4-1-0.6c-0.3-0.3-0.5-0.6-0.7-1.1
					c-0.2-0.4-0.2-0.9-0.2-1.5v-4.4h1.3v4.4c0,0.7,0.2,1.3,0.5,1.6c0.3,0.4,0.8,0.6,1.4,0.6c0.6,0,1.1-0.2,1.4-0.5
					c0.3-0.4,0.5-0.9,0.5-1.6v-4.4h1.3v4.4c0,0.6-0.1,1.1-0.2,1.5c-0.2,0.4-0.4,0.8-0.7,1.1c-0.3,0.3-0.6,0.5-1,0.7
					C1247.4,126,1247,126.1,1246.5,126.1z"/>
				<path class="st11" d="M1255,118.2h2.9c0.6,0,1.2,0.1,1.7,0.3c0.5,0.2,0.9,0.5,1.3,0.8c0.4,0.3,0.6,0.8,0.8,1.2
					c0.2,0.5,0.3,1,0.3,1.5v0c0,0.5-0.1,1.1-0.3,1.5c-0.2,0.5-0.5,0.9-0.8,1.2c-0.4,0.3-0.8,0.6-1.3,0.8c-0.5,0.2-1.1,0.3-1.7,0.3
					h-2.9V118.2z M1257.8,124.7c0.4,0,0.8-0.1,1.1-0.2c0.3-0.1,0.6-0.3,0.8-0.5c0.2-0.2,0.4-0.5,0.5-0.8c0.1-0.3,0.2-0.7,0.2-1v0
					c0-0.4-0.1-0.7-0.2-1.1c-0.1-0.3-0.3-0.6-0.5-0.8c-0.2-0.2-0.5-0.4-0.8-0.5c-0.3-0.1-0.7-0.2-1.1-0.2h-1.5v5.3H1257.8z"/>
				<path class="st11" d="M1267,118.2h1.3v7.7h-1.3V118.2z"/>
				<path class="st11" d="M1277.4,126.1c-0.6,0-1.1-0.1-1.6-0.3c-0.5-0.2-0.9-0.5-1.3-0.9c-0.4-0.4-0.6-0.8-0.8-1.3
					c-0.2-0.5-0.3-1-0.3-1.5v0c0-0.5,0.1-1.1,0.3-1.5c0.2-0.5,0.5-0.9,0.8-1.3c0.4-0.4,0.8-0.7,1.3-0.9c0.5-0.2,1-0.3,1.6-0.3
					c0.6,0,1.1,0.1,1.6,0.3c0.5,0.2,0.9,0.5,1.3,0.9c0.4,0.4,0.6,0.8,0.8,1.3c0.2,0.5,0.3,1,0.3,1.5v0c0,0.5-0.1,1.1-0.3,1.5
					c-0.2,0.5-0.5,0.9-0.8,1.3c-0.4,0.4-0.8,0.7-1.3,0.9C1278.5,126,1278,126.1,1277.4,126.1z M1277.4,124.8c0.4,0,0.7-0.1,1-0.2
					c0.3-0.1,0.6-0.3,0.8-0.6c0.2-0.2,0.4-0.5,0.5-0.9c0.1-0.3,0.2-0.7,0.2-1.1v0c0-0.4-0.1-0.7-0.2-1.1c-0.1-0.3-0.3-0.6-0.5-0.9
					c-0.2-0.2-0.5-0.4-0.8-0.6c-0.3-0.1-0.7-0.2-1.1-0.2c-0.4,0-0.7,0.1-1,0.2c-0.3,0.1-0.6,0.3-0.8,0.6c-0.2,0.2-0.4,0.5-0.5,0.9
					c-0.1,0.3-0.2,0.7-0.2,1.1v0c0,0.4,0.1,0.7,0.2,1.1c0.1,0.3,0.3,0.6,0.5,0.9c0.2,0.2,0.5,0.4,0.8,0.6
					C1276.7,124.8,1277,124.8,1277.4,124.8z"/>
				<path class="st11" d="M1285.8,117h1.7l2.7,6.9l2.7-6.9h1.7l-3.7,9.1h-1.4L1285.8,117z"/>
				<path class="st11" d="M1300,118.2h1.3v7.7h-1.3V118.2z"/>
				<path class="st11" d="M1309.4,126.1c-0.6,0-1.2-0.1-1.7-0.3c-0.5-0.2-1-0.5-1.5-0.9l0.8-1c0.4,0.3,0.8,0.6,1.1,0.7
					c0.4,0.2,0.8,0.3,1.3,0.3c0.4,0,0.8-0.1,1-0.3c0.2-0.2,0.4-0.4,0.4-0.7v0c0-0.1,0-0.3-0.1-0.4c0-0.1-0.1-0.2-0.3-0.3
					c-0.1-0.1-0.3-0.2-0.5-0.3c-0.2-0.1-0.5-0.2-0.9-0.2c-0.4-0.1-0.8-0.2-1.1-0.3c-0.3-0.1-0.6-0.3-0.8-0.4
					c-0.2-0.2-0.4-0.4-0.5-0.6c-0.1-0.2-0.2-0.6-0.2-0.9v0c0-0.3,0.1-0.6,0.2-0.9c0.1-0.3,0.3-0.5,0.5-0.7c0.2-0.2,0.5-0.3,0.8-0.5
					c0.3-0.1,0.7-0.2,1.1-0.2c0.6,0,1.1,0.1,1.5,0.2c0.5,0.2,0.9,0.4,1.3,0.7l-0.7,1c-0.4-0.3-0.7-0.5-1-0.6c-0.3-0.1-0.7-0.2-1-0.2
					c-0.4,0-0.7,0.1-0.9,0.3c-0.2,0.2-0.3,0.4-0.3,0.6v0c0,0.1,0,0.3,0.1,0.4c0.1,0.1,0.1,0.2,0.3,0.3c0.1,0.1,0.3,0.2,0.6,0.3
					c0.2,0.1,0.5,0.2,0.9,0.3c0.4,0.1,0.8,0.2,1.1,0.3c0.3,0.1,0.6,0.3,0.8,0.5c0.2,0.2,0.4,0.4,0.5,0.6c0.1,0.2,0.2,0.5,0.2,0.8v0
					c0,0.4-0.1,0.7-0.2,1c-0.1,0.3-0.3,0.5-0.6,0.7c-0.2,0.2-0.5,0.3-0.9,0.5C1310.2,126,1309.8,126.1,1309.4,126.1z"/>
				<path class="st11" d="M1320.2,126.1c-0.5,0-0.9-0.1-1.4-0.2c-0.4-0.1-0.7-0.4-1-0.6c-0.3-0.3-0.5-0.6-0.7-1.1
					c-0.2-0.4-0.2-0.9-0.2-1.5v-4.4h1.3v4.4c0,0.7,0.2,1.3,0.5,1.6c0.3,0.4,0.8,0.6,1.4,0.6c0.6,0,1.1-0.2,1.4-0.5
					c0.3-0.4,0.5-0.9,0.5-1.6v-4.4h1.3v4.4c0,0.6-0.1,1.1-0.2,1.5c-0.2,0.4-0.4,0.8-0.7,1.1c-0.3,0.3-0.6,0.5-1,0.7
					C1321.2,126,1320.7,126.1,1320.2,126.1z"/>
				<path class="st11" d="M1331.5,118.2h1.3l3.4,7.8h-1.4l-0.8-1.9h-3.6l-0.8,1.9h-1.4L1331.5,118.2z M1333.4,122.9l-1.3-3.1
					l-1.3,3.1H1333.4z"/>
				<path class="st11" d="M1340.8,118.2h1.3v6.5h4v1.2h-5.4V118.2z"/>
			</g>
		</g>
	</g>
	<g>
		<g>
			<g>
				<g>
					<g>
						<g>
							
								<linearGradient id="SVGID_8_" gradientUnits="userSpaceOnUse" x1="1040.1969" y1="293.7332" x2="1040.1969" y2="262.7204" gradientTransform="matrix(1 0 0.1823 1 -27.5475 0)">
								<stop  offset="0" style="stop-color:#1B94D3"/>
								<stop  offset="0.2697" style="stop-color:#1A91D0"/>
								<stop  offset="0.4864" style="stop-color:#1787C8"/>
								<stop  offset="0.6846" style="stop-color:#1276BA"/>
								<stop  offset="0.8706" style="stop-color:#0B5EA6"/>
								<stop  offset="1" style="stop-color:#054994"/>
							</linearGradient>
							<path class="st12" d="M1051.4,258.8h14.9c1.8,0,3.4,0.3,4.7,0.8c1.3,0.5,2.4,1.3,3.2,2.3c0.6,0.7,1,1.5,1.4,2.4
								c0.3,0.9,0.5,2,0.5,3.2l0,0.1c0,2-0.4,3.6-1.3,4.9c-0.8,1.2-1.9,2.2-3.2,2.9c1.8,0.7,3.2,1.7,4.2,3c1,1.3,1.6,3.1,1.6,5.5
								l0,0.1c0,3-1,5.4-2.9,7c-1.9,1.7-4.7,2.5-8.2,2.5h-15.1L1051.4,258.8z M1065.4,285.8c1.3,0,2.2-0.3,2.9-0.8
								c0.7-0.5,1-1.3,1-2.4v-0.1c0-1-0.3-1.7-1-2.3c-0.6-0.6-1.6-0.8-3-0.8h-6.2l0,6.4H1065.4z M1064.3,272.7
								c1.3,0,2.2-0.2,2.9-0.7c0.7-0.5,1-1.3,1-2.3l0-0.1c0-1-0.3-1.7-0.9-2.2c-0.6-0.5-1.5-0.8-2.8-0.8h-5.3l0,6.1H1064.3z"/>
							
								<linearGradient id="SVGID_9_" gradientUnits="userSpaceOnUse" x1="1083.451" y1="293.7332" x2="1083.451" y2="262.7204" gradientTransform="matrix(1 0 0.1823 1 -27.5475 0)">
								<stop  offset="0" style="stop-color:#1B94D3"/>
								<stop  offset="0.2697" style="stop-color:#1A91D0"/>
								<stop  offset="0.4864" style="stop-color:#1787C8"/>
								<stop  offset="0.6846" style="stop-color:#1276BA"/>
								<stop  offset="0.8706" style="stop-color:#0B5EA6"/>
								<stop  offset="1" style="stop-color:#054994"/>
							</linearGradient>
							<path class="st13" d="M1094.6,258.8h23.4l0,8.2h-15.5l0,5.3h14l0,7.6h-14l0,5.5h15.7l0,8.2h-23.6L1094.6,258.8z"/>
							
								<linearGradient id="SVGID_10_" gradientUnits="userSpaceOnUse" x1="1123.1823" y1="293.7323" x2="1123.1823" y2="262.7203" gradientTransform="matrix(1 0 0.1823 1 -27.5475 0)">
								<stop  offset="0" style="stop-color:#1B94D3"/>
								<stop  offset="0.2697" style="stop-color:#1A91D0"/>
								<stop  offset="0.4864" style="stop-color:#1787C8"/>
								<stop  offset="0.6846" style="stop-color:#1276BA"/>
								<stop  offset="0.8706" style="stop-color:#0B5EA6"/>
								<stop  offset="1" style="stop-color:#054994"/>
							</linearGradient>
							<path class="st14" d="M1147.2,294.2c-2.6,0-5.1-0.5-7.4-1.4c-2.3-1-4.4-2.4-6.2-4.3l4.5-6.4c2.9,2.8,6.1,4.2,9.5,4.2
								c1.1,0,1.9-0.2,2.5-0.6c0.6-0.4,0.9-1,0.9-1.8v-0.1c0-0.4-0.1-0.7-0.2-1c-0.1-0.3-0.4-0.6-0.8-0.8c-0.4-0.3-0.9-0.5-1.5-0.8
								c-0.6-0.2-1.4-0.5-2.4-0.8c-1.6-0.4-3-0.9-4.3-1.4c-1.3-0.5-2.5-1.2-3.5-2c-1-0.8-1.8-1.8-2.3-3c-0.6-1.2-0.9-2.7-0.8-4.5
								v-0.1c0-1.6,0.3-3.1,0.8-4.5c0.5-1.4,1.3-2.5,2.3-3.5c1-1,2.2-1.8,3.6-2.3c1.4-0.5,3-0.8,4.7-0.8c2.5,0,4.7,0.4,6.7,1.2
								c2,0.8,3.7,1.9,5.3,3.5l-4.1,6.8c-1.3-1.1-2.7-2-4.1-2.6c-1.4-0.6-2.8-0.9-4.1-0.9c-1,0-1.7,0.2-2.2,0.6
								c-0.5,0.4-0.7,1-0.7,1.6v0.1c0,0.4,0.1,0.7,0.2,1c0.2,0.3,0.4,0.6,0.8,0.8c0.4,0.2,0.9,0.5,1.5,0.7c0.7,0.2,1.5,0.5,2.5,0.8
								c1.7,0.4,3.2,0.9,4.5,1.5c1.3,0.6,2.5,1.3,3.4,2.1c0.9,0.8,1.7,1.8,2.2,3c0.5,1.2,0.7,2.6,0.7,4.2v0.1c0,1.8-0.3,3.4-0.9,4.8
								c-0.6,1.4-1.4,2.6-2.4,3.5c-1,1-2.3,1.7-3.7,2.2C1150.6,293.9,1149,294.2,1147.2,294.2z"/>
							
								<linearGradient id="SVGID_11_" gradientUnits="userSpaceOnUse" x1="1167.123" y1="293.7332" x2="1167.123" y2="262.7204" gradientTransform="matrix(1 0 0.1823 1 -27.5475 0)">
								<stop  offset="0" style="stop-color:#1B94D3"/>
								<stop  offset="0.2697" style="stop-color:#1A91D0"/>
								<stop  offset="0.4864" style="stop-color:#1787C8"/>
								<stop  offset="0.6846" style="stop-color:#1276BA"/>
								<stop  offset="0.8706" style="stop-color:#0B5EA6"/>
								<stop  offset="1" style="stop-color:#054994"/>
							</linearGradient>
							<path class="st15" d="M1183.5,267.3h-8.8l0-8.4h25.6l0,8.4h-8.8l0,26.3h-8.1L1183.5,267.3z"/>
							
								<linearGradient id="SVGID_12_" gradientUnits="userSpaceOnUse" x1="1198.6818" y1="293.7332" x2="1198.6818" y2="262.7204" gradientTransform="matrix(1 0 0.1823 1 -27.5475 0)">
								<stop  offset="0" style="stop-color:#1B94D3"/>
								<stop  offset="0.2697" style="stop-color:#1A91D0"/>
								<stop  offset="0.4864" style="stop-color:#1787C8"/>
								<stop  offset="0.6846" style="stop-color:#1276BA"/>
								<stop  offset="0.8706" style="stop-color:#0B5EA6"/>
								<stop  offset="1" style="stop-color:#054994"/>
							</linearGradient>
							<path class="st16" d="M1217.4,258.8h8.1l-0.1,34.7h-8.1L1217.4,258.8z"/>
							<g>
								
									<linearGradient id="SVGID_13_" gradientUnits="userSpaceOnUse" x1="1230.7572" y1="293.7333" x2="1230.7572" y2="262.7204" gradientTransform="matrix(1 0 0.1823 1 -27.5475 0)">
									<stop  offset="0" style="stop-color:#1B94D3"/>
									<stop  offset="0.2697" style="stop-color:#1A91D0"/>
									<stop  offset="0.4864" style="stop-color:#1787C8"/>
									<stop  offset="0.6846" style="stop-color:#1276BA"/>
									<stop  offset="0.8706" style="stop-color:#0B5EA6"/>
									<stop  offset="1" style="stop-color:#054994"/>
								</linearGradient>
								<polygon class="st17" points="1262.2,258.6 1254.4,258.6 1241.9,293.6 1268.3,275.8 								"/>
								
									<linearGradient id="SVGID_14_" gradientUnits="userSpaceOnUse" x1="1232.2775" y1="293.7332" x2="1232.2775" y2="262.7215" gradientTransform="matrix(1 0 0.1823 1 -27.5475 0)">
									<stop  offset="0" style="stop-color:#1B94D3"/>
									<stop  offset="0.2697" style="stop-color:#1A91D0"/>
									<stop  offset="0.4864" style="stop-color:#1787C8"/>
									<stop  offset="0.6846" style="stop-color:#1276BA"/>
									<stop  offset="0.8706" style="stop-color:#0B5EA6"/>
									<stop  offset="1" style="stop-color:#054994"/>
								</linearGradient>
								<polygon class="st18" points="1241.9,293.6 1274.6,293.6 1271,283.6 								"/>
							</g>
						</g>
					</g>
				</g>
			</g>
			<rect x="995.5" y="287.5" class="st8" width="35.7" height="6"/>
			<rect x="995.5" y="273.1" class="st9" width="35.7" height="6"/>
			<rect x="995.5" y="258.6" class="st10" width="35.7" height="6"/>
			<g>
				<path class="st11" d="M995.6,302.9h4c1,0,1.8,0.3,2.3,0.8c0.4,0.4,0.6,0.9,0.6,1.5v0c0,0.3,0,0.5-0.1,0.7
					c-0.1,0.2-0.2,0.4-0.3,0.6s-0.2,0.3-0.4,0.4c-0.2,0.1-0.3,0.2-0.5,0.3c0.3,0.1,0.5,0.2,0.7,0.3c0.2,0.1,0.4,0.3,0.6,0.4
					c0.2,0.2,0.3,0.4,0.4,0.6c0.1,0.2,0.1,0.5,0.1,0.8v0c0,0.4-0.1,0.8-0.2,1.1c-0.2,0.3-0.4,0.6-0.7,0.8c-0.3,0.2-0.6,0.4-1,0.5
					c-0.4,0.1-0.9,0.2-1.4,0.2h-4.1V302.9z M999.3,306.7c0.5,0,0.9-0.1,1.2-0.3c0.3-0.2,0.5-0.5,0.5-0.9v0c0-0.4-0.1-0.6-0.4-0.8
					c-0.3-0.2-0.7-0.3-1.2-0.3h-2.3v2.4H999.3z M999.7,310.5c0.5,0,1-0.1,1.3-0.3c0.3-0.2,0.5-0.5,0.5-0.9v0c0-0.4-0.2-0.7-0.5-0.9
					c-0.3-0.2-0.8-0.3-1.4-0.3h-2.5v2.5H999.7z"/>
				<path class="st11" d="M1008.5,304.2h5.7v1.2h-4.4v2h3.9v1.2h-3.9v2.1h4.4v1.2h-5.8V304.2z"/>
				<path class="st11" d="M1022,312c-0.6,0-1.2-0.1-1.7-0.3c-0.5-0.2-1-0.5-1.5-0.9l0.8-1c0.4,0.3,0.8,0.6,1.1,0.7
					c0.4,0.2,0.8,0.3,1.3,0.3c0.4,0,0.8-0.1,1-0.3c0.2-0.2,0.4-0.4,0.4-0.7v0c0-0.1,0-0.3-0.1-0.4c0-0.1-0.1-0.2-0.3-0.3
					c-0.1-0.1-0.3-0.2-0.5-0.3c-0.2-0.1-0.5-0.2-0.9-0.2c-0.4-0.1-0.8-0.2-1.1-0.3s-0.6-0.3-0.8-0.4c-0.2-0.2-0.4-0.4-0.5-0.6
					c-0.1-0.2-0.2-0.6-0.2-0.9v0c0-0.3,0.1-0.6,0.2-0.9c0.1-0.3,0.3-0.5,0.5-0.7c0.2-0.2,0.5-0.3,0.8-0.5c0.3-0.1,0.7-0.2,1.1-0.2
					c0.6,0,1.1,0.1,1.5,0.2c0.5,0.2,0.9,0.4,1.3,0.7l-0.7,1c-0.4-0.3-0.7-0.5-1-0.6c-0.3-0.1-0.7-0.2-1-0.2c-0.4,0-0.7,0.1-0.9,0.3
					c-0.2,0.2-0.3,0.4-0.3,0.6v0c0,0.1,0,0.3,0.1,0.4c0.1,0.1,0.1,0.2,0.3,0.3c0.1,0.1,0.3,0.2,0.6,0.3c0.2,0.1,0.5,0.2,0.9,0.3
					c0.4,0.1,0.8,0.2,1.1,0.3c0.3,0.1,0.6,0.3,0.8,0.5c0.2,0.2,0.4,0.4,0.5,0.6c0.1,0.2,0.2,0.5,0.2,0.8v0c0,0.4-0.1,0.7-0.2,1
					c-0.1,0.3-0.3,0.5-0.6,0.7c-0.2,0.2-0.5,0.3-0.9,0.5C1022.7,312,1022.4,312,1022,312z"/>
				<path class="st11" d="M1031.5,305.4h-2.4v-1.3h6.2v1.3h-2.4v6.5h-1.4V305.4z"/>
				<path class="st11" d="M1051.9,302.9h1.6v9h-1.6V302.9z"/>
				<path class="st11" d="M1059.6,304.2h1.4l2.3,3.7l2.3-3.7h1.4v7.7h-1.3v-5.5l-2.4,3.6h0l-2.4-3.6v5.5h-1.3V304.2z"/>
				<path class="st11" d="M1072.5,304.2h1.4l2.3,3.7l2.3-3.7h1.4v7.7h-1.3v-5.5l-2.4,3.6h0l-2.4-3.6v5.5h-1.3V304.2z"/>
				<path class="st11" d="M1085.4,304.2h5.7v1.2h-4.4v2h3.9v1.2h-3.9v2.1h4.4v1.2h-5.8V304.2z"/>
				<path class="st11" d="M1096.1,304.2h3.4c0.5,0,0.9,0.1,1.3,0.2c0.4,0.1,0.7,0.3,0.9,0.6c0.2,0.2,0.4,0.5,0.5,0.7
					c0.1,0.3,0.2,0.6,0.2,0.9v0c0,0.3,0,0.6-0.1,0.9c-0.1,0.3-0.2,0.5-0.4,0.7c-0.2,0.2-0.4,0.4-0.6,0.5c-0.2,0.1-0.5,0.2-0.7,0.3
					l2.1,2.9h-1.6l-1.9-2.7h0h-1.7v2.7h-1.3V304.2z M1099.4,308c0.5,0,0.9-0.1,1.2-0.3c0.3-0.2,0.4-0.5,0.4-0.9v0
					c0-0.4-0.1-0.7-0.4-1c-0.3-0.2-0.7-0.3-1.2-0.3h-2v2.6H1099.4z"/>
				<path class="st11" d="M1110.1,312c-0.6,0-1.2-0.1-1.7-0.3c-0.5-0.2-1-0.5-1.5-0.9l0.8-1c0.4,0.3,0.8,0.6,1.1,0.7
					c0.4,0.2,0.8,0.3,1.3,0.3c0.4,0,0.8-0.1,1-0.3c0.2-0.2,0.4-0.4,0.4-0.7v0c0-0.1,0-0.3-0.1-0.4c0-0.1-0.1-0.2-0.3-0.3
					c-0.1-0.1-0.3-0.2-0.5-0.3c-0.2-0.1-0.5-0.2-0.9-0.2c-0.4-0.1-0.8-0.2-1.1-0.3c-0.3-0.1-0.6-0.3-0.8-0.4
					c-0.2-0.2-0.4-0.4-0.5-0.6c-0.1-0.2-0.2-0.6-0.2-0.9v0c0-0.3,0.1-0.6,0.2-0.9c0.1-0.3,0.3-0.5,0.5-0.7c0.2-0.2,0.5-0.3,0.8-0.5
					c0.3-0.1,0.7-0.2,1.1-0.2c0.6,0,1.1,0.1,1.5,0.2c0.5,0.2,0.9,0.4,1.3,0.7l-0.7,1c-0.4-0.3-0.7-0.5-1-0.6c-0.3-0.1-0.7-0.2-1-0.2
					c-0.4,0-0.7,0.1-0.9,0.3c-0.2,0.2-0.3,0.4-0.3,0.6v0c0,0.1,0,0.3,0.1,0.4c0.1,0.1,0.1,0.2,0.3,0.3c0.1,0.1,0.3,0.2,0.6,0.3
					c0.2,0.1,0.5,0.2,0.9,0.3c0.4,0.1,0.8,0.2,1.1,0.3c0.3,0.1,0.6,0.3,0.8,0.5c0.2,0.2,0.4,0.4,0.5,0.6c0.1,0.2,0.2,0.5,0.2,0.8v0
					c0,0.4-0.1,0.7-0.2,1c-0.1,0.3-0.3,0.5-0.6,0.7c-0.2,0.2-0.5,0.3-0.9,0.5C1110.9,312,1110.5,312,1110.1,312z"/>
				<path class="st11" d="M1117.8,304.2h1.3v7.7h-1.3V304.2z"/>
				<path class="st11" d="M1123.9,304.2h1.5l2.3,5.9l2.3-5.9h1.5l-3.2,7.8h-1.2L1123.9,304.2z"/>
				<path class="st11" d="M1136.2,304.2h5.7v1.2h-4.4v2h3.9v1.2h-3.9v2.1h4.4v1.2h-5.8V304.2z"/>
				<path class="st11" d="M1161.8,302.9h1.5l3.9,9h-1.7l-0.9-2.2h-4.2l-0.9,2.2h-1.6L1161.8,302.9z M1164.1,308.3l-1.5-3.6l-1.5,3.6
					H1164.1z"/>
				<path class="st11" d="M1175.6,312c-0.5,0-0.9-0.1-1.4-0.2c-0.4-0.1-0.7-0.4-1-0.6c-0.3-0.3-0.5-0.6-0.7-1.1
					c-0.2-0.4-0.2-0.9-0.2-1.5v-4.4h1.3v4.4c0,0.7,0.2,1.3,0.5,1.6c0.3,0.4,0.8,0.6,1.4,0.6c0.6,0,1.1-0.2,1.4-0.5
					c0.3-0.4,0.5-0.9,0.5-1.6v-4.4h1.3v4.4c0,0.6-0.1,1.1-0.2,1.5c-0.2,0.4-0.4,0.8-0.7,1.1c-0.3,0.3-0.6,0.5-1,0.7
					C1176.6,312,1176.1,312,1175.6,312z"/>
				<path class="st11" d="M1184.1,304.2h2.9c0.6,0,1.2,0.1,1.7,0.3c0.5,0.2,0.9,0.5,1.3,0.8c0.4,0.3,0.6,0.8,0.8,1.2
					c0.2,0.5,0.3,1,0.3,1.5v0c0,0.5-0.1,1.1-0.3,1.5c-0.2,0.5-0.5,0.9-0.8,1.2c-0.4,0.3-0.8,0.6-1.3,0.8c-0.5,0.2-1.1,0.3-1.7,0.3
					h-2.9V304.2z M1187,310.7c0.4,0,0.8-0.1,1.1-0.2c0.3-0.1,0.6-0.3,0.8-0.5c0.2-0.2,0.4-0.5,0.5-0.8c0.1-0.3,0.2-0.7,0.2-1v0
					c0-0.4-0.1-0.7-0.2-1.1c-0.1-0.3-0.3-0.6-0.5-0.8c-0.2-0.2-0.5-0.4-0.8-0.5c-0.3-0.1-0.7-0.2-1.1-0.2h-1.5v5.3H1187z"/>
				<path class="st11" d="M1196.1,304.2h1.3v7.7h-1.3V304.2z"/>
				<path class="st11" d="M1206.6,312c-0.6,0-1.1-0.1-1.6-0.3c-0.5-0.2-0.9-0.5-1.3-0.9c-0.4-0.4-0.6-0.8-0.8-1.3
					c-0.2-0.5-0.3-1-0.3-1.5v0c0-0.5,0.1-1.1,0.3-1.5c0.2-0.5,0.5-0.9,0.8-1.3c0.4-0.4,0.8-0.7,1.3-0.9c0.5-0.2,1-0.3,1.6-0.3
					c0.6,0,1.1,0.1,1.6,0.3c0.5,0.2,0.9,0.5,1.3,0.9c0.4,0.4,0.6,0.8,0.8,1.3c0.2,0.5,0.3,1,0.3,1.5v0c0,0.5-0.1,1.1-0.3,1.5
					c-0.2,0.5-0.5,0.9-0.8,1.3c-0.4,0.4-0.8,0.7-1.3,0.9C1207.7,311.9,1207.1,312,1206.6,312z M1206.6,310.8c0.4,0,0.7-0.1,1-0.2
					c0.3-0.1,0.6-0.3,0.8-0.6c0.2-0.2,0.4-0.5,0.5-0.9c0.1-0.3,0.2-0.7,0.2-1.1v0c0-0.4-0.1-0.7-0.2-1.1c-0.1-0.3-0.3-0.6-0.5-0.9
					c-0.2-0.2-0.5-0.4-0.8-0.6c-0.3-0.1-0.7-0.2-1.1-0.2c-0.4,0-0.7,0.1-1,0.2c-0.3,0.1-0.6,0.3-0.8,0.6c-0.2,0.2-0.4,0.5-0.5,0.9
					c-0.1,0.3-0.2,0.7-0.2,1.1v0c0,0.4,0.1,0.7,0.2,1.1c0.1,0.3,0.3,0.6,0.5,0.9c0.2,0.2,0.5,0.4,0.8,0.6
					C1205.8,310.7,1206.2,310.8,1206.6,310.8z"/>
				<path class="st11" d="M1215,302.9h1.7l2.7,6.9l2.7-6.9h1.7l-3.7,9.1h-1.4L1215,302.9z"/>
				<path class="st11" d="M1229.1,304.2h1.3v7.7h-1.3V304.2z"/>
				<path class="st11" d="M1238.6,312c-0.6,0-1.2-0.1-1.7-0.3c-0.5-0.2-1-0.5-1.5-0.9l0.8-1c0.4,0.3,0.8,0.6,1.1,0.7
					c0.4,0.2,0.8,0.3,1.3,0.3c0.4,0,0.8-0.1,1-0.3c0.2-0.2,0.4-0.4,0.4-0.7v0c0-0.1,0-0.3-0.1-0.4c0-0.1-0.1-0.2-0.3-0.3
					c-0.1-0.1-0.3-0.2-0.5-0.3c-0.2-0.1-0.5-0.2-0.9-0.2c-0.4-0.1-0.8-0.2-1.1-0.3c-0.3-0.1-0.6-0.3-0.8-0.4
					c-0.2-0.2-0.4-0.4-0.5-0.6c-0.1-0.2-0.2-0.6-0.2-0.9v0c0-0.3,0.1-0.6,0.2-0.9c0.1-0.3,0.3-0.5,0.5-0.7c0.2-0.2,0.5-0.3,0.8-0.5
					c0.3-0.1,0.7-0.2,1.1-0.2c0.6,0,1.1,0.1,1.5,0.2c0.5,0.2,0.9,0.4,1.3,0.7l-0.7,1c-0.4-0.3-0.7-0.5-1-0.6c-0.3-0.1-0.7-0.2-1-0.2
					c-0.4,0-0.7,0.1-0.9,0.3c-0.2,0.2-0.3,0.4-0.3,0.6v0c0,0.1,0,0.3,0.1,0.4c0.1,0.1,0.1,0.2,0.3,0.3c0.1,0.1,0.3,0.2,0.6,0.3
					c0.2,0.1,0.5,0.2,0.9,0.3c0.4,0.1,0.8,0.2,1.1,0.3c0.3,0.1,0.6,0.3,0.8,0.5c0.2,0.2,0.4,0.4,0.5,0.6c0.1,0.2,0.2,0.5,0.2,0.8v0
					c0,0.4-0.1,0.7-0.2,1c-0.1,0.3-0.3,0.5-0.6,0.7c-0.2,0.2-0.5,0.3-0.9,0.5C1239.3,312,1239,312,1238.6,312z"/>
				<path class="st11" d="M1249.4,312c-0.5,0-0.9-0.1-1.4-0.2c-0.4-0.1-0.7-0.4-1-0.6c-0.3-0.3-0.5-0.6-0.7-1.1
					c-0.2-0.4-0.2-0.9-0.2-1.5v-4.4h1.3v4.4c0,0.7,0.2,1.3,0.5,1.6c0.3,0.4,0.8,0.6,1.4,0.6c0.6,0,1.1-0.2,1.4-0.5
					c0.3-0.4,0.5-0.9,0.5-1.6v-4.4h1.3v4.4c0,0.6-0.1,1.1-0.2,1.5c-0.2,0.4-0.4,0.8-0.7,1.1c-0.3,0.3-0.6,0.5-1,0.7
					C1250.4,312,1249.9,312,1249.4,312z"/>
				<path class="st11" d="M1260.6,304.1h1.3l3.4,7.8h-1.4l-0.8-1.9h-3.6l-0.8,1.9h-1.4L1260.6,304.1z M1262.6,308.8l-1.3-3.1
					l-1.3,3.1H1262.6z"/>
				<path class="st11" d="M1269.9,304.2h1.3v6.5h4v1.2h-5.4V304.2z"/>
			</g>
		</g>
	</g>
	<g>
		<g>
			<g>
				<g>
					<g>
						<path class="st19" d="M426.7,460.4h-14.2c-0.5,0-0.9-0.2-1.2-0.6c-0.3-0.4-0.4-0.9-0.2-1.3l14.2-45.7c0.2-0.6,0.8-1.1,1.4-1.1
							c0.4,0,0.8,0.2,1.1,0.4c0.3,0.3,0.5,0.7,0.5,1.1l-0.1,45.7C428.3,459.8,427.6,460.4,426.7,460.4z M414.6,457.4h10.6l0.1-34.3
							L414.6,457.4z"/>
					</g>
				</g>
			</g>
			<g>
				<g>
					<g>
						<g>
							<path class="st20" d="M387.8,460.4c-0.4,0-0.8-0.2-1.1-0.4c-0.3-0.3-0.5-0.7-0.5-1.1l0.1-45.7c0-0.8,0.7-1.5,1.5-1.5H402
								c0.5,0,0.9,0.2,1.2,0.6c0.3,0.4,0.4,0.9,0.2,1.4l-14.2,45.7C389.1,460,388.5,460.4,387.8,460.4z M389.4,414.7l-0.1,34.3
								l10.7-34.3H389.4z"/>
						</g>
					</g>
				</g>
				<g>
					<g>
						<g>
							<g>
								<g>
									<path class="st20" d="M394.1,408.8c-0.1-0.3-0.1-0.6-0.1-0.9c0-0.4,0.1-0.8,0.2-1.3c0.1-0.4,0.3-0.9,0.6-1.5
										c-0.5,0.3-1.1,0.6-1.7,0.8c-0.6,0.2-1.3,0.3-2.1,0.3c-0.8,0-1.5-0.1-2.2-0.4c-0.7-0.3-1.3-0.6-1.8-1.1
										c-0.5-0.5-0.9-1.1-1.2-1.9c-0.3-0.7-0.4-1.6-0.4-2.6c0-1,0.2-1.9,0.5-2.8c0.4-0.9,0.9-1.8,1.6-2.5c0.7-0.7,1.5-1.3,2.5-1.8
										c1-0.4,2.2-0.7,3.5-0.7c1.5,0,2.9,0.4,3.8,1c1,0.7,1.7,1.8,2,2.6c0.1,0.4,0.2,0.7,0.3,1.1c0.1,0.4,0.1,0.8,0.1,1.2
										c0,0.7-0.1,1.3-0.2,1.8c-0.2,0.5-0.3,1-0.6,1.5c-0.2,0.5-0.5,0.9-0.7,1.3c-0.3,0.4-0.5,0.8-0.7,1.2s-0.4,0.8-0.6,1.2
										c-0.2,0.4-0.2,0.9-0.2,1.4c0,0.4,0.1,0.7,0.2,1c0.1,0.3,0.3,0.6,0.5,1c0,0,0.7,0.7-1.6,0.7
										C394.1,409.5,394.1,408.8,394.1,408.8z M391.9,404c0.7,0,1.4-0.2,1.9-0.5c0.6-0.3,1-0.7,1.4-1.2c0.4-0.5,0.7-1.1,0.9-1.7
										c0.2-0.6,0.3-1.3,0.3-1.9c0-1.2-0.3-2.1-0.9-2.7c-0.6-0.6-1.4-0.9-2.5-0.9c-0.7,0-1.4,0.1-1.9,0.4s-1,0.7-1.4,1.2
										c-0.4,0.5-0.7,1.1-0.9,1.7c-0.2,0.6-0.3,1.3-0.3,2c0,1.2,0.3,2.1,0.9,2.7C390,403.7,390.8,404,391.9,404z"/>
								</g>
							</g>
						</g>
					</g>
				</g>
			</g>
			<g>
				<g>
					<g>
						<g>
							<g>
								<path class="st19" d="M425.2,408.8c-0.1-0.3-0.1-0.6-0.1-0.9c0-0.4,0.1-0.8,0.2-1.3s0.3-0.9,0.6-1.5
									c-0.5,0.3-1.1,0.6-1.7,0.8c-0.6,0.2-1.3,0.3-2.1,0.3c-0.8,0-1.5-0.1-2.2-0.4c-0.7-0.3-1.3-0.6-1.8-1.1
									c-0.5-0.5-0.9-1.1-1.2-1.9c-0.3-0.7-0.4-1.6-0.4-2.6c0-1,0.2-1.9,0.5-2.8c0.4-0.9,0.9-1.8,1.6-2.5c0.7-0.7,1.5-1.3,2.5-1.8
									c1-0.4,2.2-0.7,3.5-0.7c1.5,0,2.9,0.4,3.8,1c1,0.7,1.7,1.8,2,2.6c0.1,0.4,0.2,0.7,0.3,1.1c0.1,0.4,0.1,0.8,0.1,1.2
									c0,0.7-0.1,1.3-0.2,1.8c-0.2,0.5-0.3,1-0.6,1.5c-0.2,0.5-0.5,0.9-0.7,1.3c-0.3,0.4-0.5,0.8-0.7,1.2
									c-0.2,0.4-0.4,0.8-0.6,1.2c-0.2,0.4-0.2,0.9-0.2,1.4c0,0.4,0.1,0.7,0.2,1c0.1,0.3,0.3,0.6,0.5,1c0,0,0.7,0.7-1.6,0.7
									C425.3,409.5,425.2,408.8,425.2,408.8z M423,404c0.7,0,1.4-0.2,1.9-0.5c0.6-0.3,1-0.7,1.4-1.2c0.4-0.5,0.7-1.1,0.9-1.7
									c0.2-0.6,0.3-1.3,0.3-1.9c0-1.2-0.3-2.1-0.9-2.7c-0.6-0.6-1.4-0.9-2.5-0.9c-0.7,0-1.4,0.1-1.9,0.4s-1,0.7-1.4,1.2
									c-0.4,0.5-0.7,1.1-0.9,1.7c-0.2,0.6-0.3,1.3-0.3,2c0,1.2,0.3,2.1,0.9,2.7C421.1,403.7,422,404,423,404z"/>
							</g>
						</g>
					</g>
				</g>
			</g>
			<g>
				<path class="st21" d="M473.8,436c-0.6-0.4-1.5-0.2-1.9,0.4c-0.4,0.6-0.2,1.5,0.4,1.9c3,2,4.9,5.4,4.9,9.1
					c0,6-4.9,10.9-10.9,10.9c-4.8,0-8.9-3.1-10.4-7.6c-0.2-0.7-1-1.1-1.7-0.9c-0.7,0.2-1.1,1-0.9,1.7c1.8,5.7,7,9.6,13,9.6
					c7.5,0,13.6-6.1,13.6-13.6C479.9,442.8,477.6,438.6,473.8,436z"/>
				<path class="st21" d="M462.6,443.9c0.1,0,0.2,0,0.3,0c0,0,0.1,0,0.1,0c0.1,0,0.1,0,0.2-0.1c0,0,0.1,0,0.1,0
					c0.1,0,0.1-0.1,0.1-0.1c0,0,0,0,0.1,0c0.1-0.1,0.3-0.2,0.3-0.3c0,0,0,0,0-0.1c0,0,0.1-0.1,0.1-0.1c0,0,0-0.1,0-0.1
					c0,0,0,0,0-0.1l6.1-19.7c0.1-0.4,0.1-0.9-0.2-1.2s-0.7-0.6-1.1-0.6h-10.2c-0.8,0-1.4,0.6-1.4,1.4l-0.1,12.4
					c0,0.8,0.6,1.4,1.4,1.4c0,0,0,0,0,0c0.8,0,1.4-0.6,1.4-1.4l0.1-11h6.9l-5.3,17h-12.4c-0.6,0-1.1,0.4-1.3,1l-4.7,15.2
					c-0.2,0.7,0.2,1.5,0.9,1.7c0.1,0,0.3,0.1,0.4,0.1c0.6,0,1.1-0.4,1.3-1l4.4-14.2L462.6,443.9
					C462.6,443.9,462.6,443.9,462.6,443.9z"/>
				<path class="st21" d="M457.2,415.1c0.4,0.4,0.9,0.7,1.5,0.9c0.6,0.2,1.2,0.3,1.8,0.3c0.7,0,1.3-0.1,1.8-0.2
					c0.3-0.1,0.5-0.2,0.8-0.3c-0.1,0.2-0.1,0.4-0.2,0.6c-0.1,0.4-0.2,0.7-0.2,1.1c0,0.3,0,0.5,0.1,0.8c0,0.1,0.2,0.8,1.5,0.8
					c0.9,0,1.4-0.1,1.6-0.5c0.1-0.2,0-0.4-0.1-0.5c-0.1-0.2-0.3-0.5-0.4-0.7c-0.1-0.2-0.1-0.5-0.1-0.7c0-0.4,0.1-0.7,0.2-1
					c0.1-0.3,0.3-0.6,0.4-0.9c0.2-0.3,0.4-0.6,0.6-0.9c0.2-0.3,0.4-0.7,0.6-1.1c0.2-0.4,0.3-0.8,0.5-1.2c0.1-0.4,0.2-1,0.2-1.5
					c0-0.4,0-0.7-0.1-1c0-0.3-0.1-0.6-0.2-0.9c-0.2-0.6-0.8-1.5-1.7-2.2c-0.7-0.6-1.9-0.9-3.2-0.9c-1.1,0-2,0.2-2.9,0.5
					c-0.8,0.4-1.5,0.9-2.1,1.5c-0.6,0.6-1,1.3-1.3,2.1c-0.3,0.8-0.4,1.6-0.4,2.4c0,0.8,0.1,1.5,0.4,2.2
					C456.4,414.2,456.7,414.7,457.2,415.1z M462.2,407.4c0.8,0,1.4,0.2,1.8,0.7c0.4,0.4,0.6,1.1,0.6,2c0,0.5-0.1,1-0.2,1.5
					c-0.2,0.5-0.4,0.9-0.7,1.3c-0.3,0.4-0.6,0.7-1,0.9c-0.4,0.2-0.9,0.3-1.4,0.3c-0.8,0-1.4-0.2-1.8-0.7c-0.4-0.5-0.6-1.1-0.6-2
					c0-0.5,0.1-1,0.2-1.5c0.1-0.5,0.4-0.9,0.7-1.3c0.3-0.4,0.6-0.7,1-0.9C461.2,407.6,461.6,407.4,462.2,407.4z"/>
			</g>
		</g>
	</g>
	<g>
		<g>
			<path class="st0" d="M471.8,306.4l-1.2,9.9l-0.6,2.5c-0.1,0.3-0.2,0.5-0.4,0.7c-0.2,0.2-0.4,0.2-0.7,0.2h-0.8l1.6-13.3l-1.2-0.2
				c-0.1,0-0.3-0.1-0.3-0.2c-0.1-0.1-0.1-0.2-0.1-0.4l0.1-0.9h1.7l0.1-1.2c0.1-0.7,0.3-1.3,0.5-1.8c0.3-0.5,0.6-1,1-1.4
				c0.4-0.4,0.8-0.7,1.3-0.8c0.5-0.2,1.1-0.3,1.6-0.3c0.5,0,0.9,0.1,1.3,0.2l-0.2,1.1c0,0.2-0.1,0.2-0.3,0.2c-0.2,0-0.4,0-0.7,0
				c-0.3,0-0.7,0.1-0.9,0.1c-0.3,0.1-0.5,0.3-0.8,0.5c-0.2,0.2-0.4,0.5-0.6,0.9c-0.2,0.4-0.3,0.8-0.3,1.3l-0.1,1.1h3l-0.2,1.5H471.8
				z"/>
			<path class="st0" d="M503.4,316.8c-0.7,0-1.3-0.1-1.8-0.3c-0.5-0.2-1-0.6-1.4-1c-0.4-0.4-0.7-1-0.9-1.6c-0.2-0.6-0.3-1.3-0.3-2.1
				c0-1,0.2-2,0.5-2.9c0.3-0.9,0.8-1.7,1.3-2.4c0.6-0.7,1.2-1.2,2-1.6c0.8-0.4,1.6-0.6,2.4-0.6c0.7,0,1.3,0.1,1.8,0.3
				c0.5,0.2,1,0.6,1.4,1c0.4,0.4,0.7,1,0.9,1.6s0.3,1.3,0.3,2.1c0,1-0.2,2-0.5,2.9c-0.3,0.9-0.8,1.7-1.3,2.4c-0.6,0.7-1.2,1.2-2,1.6
				C505.1,316.7,504.2,316.8,503.4,316.8z M503.6,315.2c0.6,0,1.1-0.2,1.6-0.5c0.5-0.3,0.9-0.7,1.2-1.3c0.3-0.5,0.6-1.1,0.8-1.8
				c0.2-0.7,0.3-1.4,0.3-2.2c0-1.1-0.2-2-0.7-2.5c-0.4-0.6-1.1-0.8-1.9-0.8c-0.6,0-1.1,0.2-1.6,0.5c-0.5,0.3-0.9,0.7-1.2,1.3
				c-0.3,0.5-0.6,1.1-0.8,1.8s-0.3,1.4-0.3,2.2c0,1.1,0.2,2,0.7,2.5C502.1,314.9,502.7,315.2,503.6,315.2z"/>
			<path class="st0" d="M539.1,316.8c-0.7,0-1.3-0.1-1.8-0.3c-0.5-0.2-1-0.6-1.4-1c-0.4-0.4-0.7-1-0.9-1.6c-0.2-0.6-0.3-1.3-0.3-2.1
				c0-1,0.2-2,0.5-2.9c0.3-0.9,0.8-1.7,1.3-2.4c0.6-0.7,1.2-1.2,2-1.6c0.8-0.4,1.6-0.6,2.4-0.6c0.7,0,1.3,0.1,1.8,0.3
				c0.5,0.2,1,0.6,1.4,1c0.4,0.4,0.7,1,0.9,1.6c0.2,0.6,0.3,1.3,0.3,2.1c0,1-0.2,2-0.5,2.9c-0.3,0.9-0.8,1.7-1.3,2.4
				c-0.6,0.7-1.2,1.2-2,1.6S540,316.8,539.1,316.8z M539.3,315.2c0.6,0,1.1-0.2,1.6-0.5c0.5-0.3,0.9-0.7,1.2-1.3
				c0.3-0.5,0.6-1.1,0.8-1.8c0.2-0.7,0.3-1.4,0.3-2.2c0-1.1-0.2-2-0.7-2.5c-0.4-0.6-1.1-0.8-1.9-0.8c-0.6,0-1.1,0.2-1.6,0.5
				c-0.5,0.3-0.9,0.7-1.2,1.3c-0.3,0.5-0.6,1.1-0.8,1.8c-0.2,0.7-0.3,1.4-0.3,2.2c0,1.1,0.2,2,0.7,2.5
				C537.9,314.9,538.5,315.2,539.3,315.2z"/>
			<path class="st0" d="M582,299.1l-2.2,17.6h-1.1c-0.3,0-0.5-0.1-0.6-0.2c-0.1-0.1-0.1-0.3-0.1-0.5l0.2-2.5c-0.3,0.5-0.6,1-1,1.4
				s-0.7,0.8-1.1,1.1c-0.4,0.3-0.8,0.5-1.2,0.7c-0.4,0.2-0.9,0.2-1.3,0.2c-1,0-1.8-0.4-2.4-1.1c-0.6-0.8-0.9-1.8-0.9-3.3
				c0-0.7,0.1-1.3,0.2-2c0.1-0.7,0.3-1.3,0.6-1.9c0.3-0.6,0.6-1.2,0.9-1.7c0.4-0.5,0.7-1,1.2-1.3c0.4-0.4,0.9-0.7,1.4-0.9
				c0.5-0.2,1-0.3,1.6-0.3c0.6,0,1.1,0.1,1.6,0.4c0.5,0.2,0.9,0.6,1.2,1l0.8-6.7H582z M579,307.2c-0.3-0.4-0.7-0.7-1.1-0.9
				c-0.4-0.2-0.9-0.3-1.3-0.3c-0.6,0-1.2,0.2-1.7,0.6c-0.5,0.4-0.9,0.9-1.3,1.5c-0.4,0.6-0.6,1.3-0.8,2c-0.2,0.7-0.3,1.5-0.3,2.2
				c0,0.9,0.2,1.7,0.5,2.2c0.3,0.5,0.8,0.7,1.5,0.7c0.4,0,0.8-0.1,1.2-0.4c0.4-0.2,0.8-0.6,1.1-1c0.4-0.4,0.7-0.9,1-1.5
				c0.3-0.6,0.6-1.2,0.8-1.9L579,307.2z"/>
			<path class="st0" d="M620.4,316.7h-1.8c-0.2,0-0.3,0-0.4,0c-0.1,0-0.2-0.1-0.3-0.1c-0.1,0-0.2-0.1-0.3-0.2
				c-0.1-0.1-0.2-0.2-0.3-0.3l-1.1-1.5c-0.8,0.7-1.6,1.2-2.5,1.6c-0.9,0.4-1.9,0.6-2.9,0.6c-0.7,0-1.2-0.1-1.8-0.3
				c-0.5-0.2-1-0.5-1.4-0.8c-0.4-0.4-0.7-0.8-0.9-1.3c-0.2-0.5-0.3-1.1-0.3-1.7c0-0.6,0.1-1.2,0.3-1.8c0.2-0.6,0.5-1.1,0.9-1.5
				c0.4-0.5,0.8-0.9,1.3-1.2c0.5-0.4,1-0.7,1.6-0.9c-0.3-0.5-0.5-1-0.7-1.6s-0.2-1-0.2-1.5c0-0.7,0.1-1.3,0.3-1.8
				c0.2-0.6,0.5-1.1,1-1.5c0.4-0.4,0.9-0.8,1.5-1c0.6-0.2,1.2-0.4,2-0.4c0.6,0,1.1,0.1,1.6,0.3c0.5,0.2,0.9,0.4,1.2,0.8
				c0.3,0.3,0.6,0.7,0.7,1.2s0.2,0.9,0.2,1.4l-1.2,0.2c-0.2,0-0.3,0-0.4,0c-0.1-0.1-0.2-0.2-0.2-0.3c0-0.2-0.1-0.4-0.2-0.7
				c-0.1-0.2-0.2-0.4-0.4-0.6c-0.2-0.2-0.4-0.3-0.6-0.4c-0.2-0.1-0.5-0.2-0.8-0.2c-0.4,0-0.8,0.1-1.1,0.2c-0.3,0.2-0.6,0.4-0.8,0.6
				c-0.2,0.3-0.4,0.6-0.5,0.9c-0.1,0.4-0.2,0.7-0.2,1.2c0,0.9,0.4,1.9,1.2,2.9l3.8,4.9c0.3-0.5,0.6-1.1,0.8-1.6
				c0.2-0.6,0.4-1.1,0.5-1.7c0-0.1,0.1-0.3,0.2-0.3c0.1-0.1,0.2-0.1,0.3-0.1h1.4c-0.1,0.9-0.4,1.8-0.7,2.7c-0.4,0.9-0.8,1.7-1.4,2.5
				L620.4,316.7z M611.3,308.3c-0.9,0.5-1.6,1.1-2.1,1.8c-0.5,0.7-0.7,1.5-0.7,2.3c0,0.4,0.1,0.8,0.2,1.2c0.1,0.3,0.3,0.6,0.6,0.9
				s0.5,0.4,0.9,0.5c0.3,0.1,0.7,0.2,1.1,0.2c0.8,0,1.5-0.2,2.1-0.5c0.7-0.3,1.3-0.8,1.8-1.3L611.3,308.3z"/>
			<path class="st0" d="M657.1,299.1l-2.2,17.6h-1.1c-0.3,0-0.5-0.1-0.6-0.2c-0.1-0.1-0.1-0.3-0.1-0.5l0.2-2.5c-0.3,0.5-0.6,1-1,1.4
				s-0.7,0.8-1.1,1.1c-0.4,0.3-0.8,0.5-1.2,0.7c-0.4,0.2-0.9,0.2-1.3,0.2c-1,0-1.8-0.4-2.4-1.1c-0.6-0.8-0.9-1.8-0.9-3.3
				c0-0.7,0.1-1.3,0.2-2c0.1-0.7,0.3-1.3,0.6-1.9c0.3-0.6,0.6-1.2,0.9-1.7c0.4-0.5,0.7-1,1.2-1.3c0.4-0.4,0.9-0.7,1.4-0.9
				c0.5-0.2,1-0.3,1.6-0.3c0.6,0,1.1,0.1,1.6,0.4c0.5,0.2,0.9,0.6,1.2,1l0.8-6.7H657.1z M654,307.2c-0.3-0.4-0.7-0.7-1.1-0.9
				c-0.4-0.2-0.9-0.3-1.3-0.3c-0.6,0-1.2,0.2-1.7,0.6c-0.5,0.4-0.9,0.9-1.3,1.5c-0.4,0.6-0.6,1.3-0.8,2c-0.2,0.7-0.3,1.5-0.3,2.2
				c0,0.9,0.2,1.7,0.5,2.2c0.3,0.5,0.8,0.7,1.5,0.7c0.4,0,0.8-0.1,1.2-0.4c0.4-0.2,0.8-0.6,1.1-1c0.4-0.4,0.7-0.9,1-1.5
				c0.3-0.6,0.6-1.2,0.8-1.9L654,307.2z"/>
			<path class="st0" d="M660.9,308c0.3-0.7,0.7-1.3,1-1.8c0.4-0.5,0.8-0.9,1.2-1.2s0.8-0.5,1.3-0.5c0.4-0.1,0.9,0,1.3,0.2l-0.4,2
				c-1-0.4-1.9-0.3-2.7,0.5c-0.8,0.7-1.4,2-1.9,3.9l-0.7,5.6h-2.1l1.5-12.1h1.1c0.5,0,0.7,0.2,0.7,0.7L660.9,308z"/>
			<path class="st0" d="M669.5,304.6l-1.5,12.1h-2.1l1.5-12.1H669.5z M670.3,300.8c0,0.2,0,0.4-0.1,0.6c-0.1,0.2-0.2,0.3-0.3,0.5
				c-0.1,0.1-0.3,0.2-0.5,0.3c-0.2,0.1-0.4,0.1-0.6,0.1c-0.2,0-0.4,0-0.5-0.1c-0.2-0.1-0.3-0.2-0.5-0.3c-0.1-0.1-0.2-0.3-0.3-0.5
				c-0.1-0.2-0.1-0.4-0.1-0.6c0-0.2,0-0.4,0.1-0.6c0.1-0.2,0.2-0.3,0.3-0.5c0.1-0.1,0.3-0.3,0.5-0.3c0.2-0.1,0.4-0.1,0.5-0.1
				c0.2,0,0.4,0,0.6,0.1c0.2,0.1,0.3,0.2,0.5,0.3c0.1,0.1,0.2,0.3,0.3,0.5C670.2,300.4,670.3,300.6,670.3,300.8z"/>
			<path class="st0" d="M674.1,307.6c0.6-1.1,1.4-1.9,2.2-2.4c0.8-0.5,1.6-0.8,2.5-0.8c0.5,0,1,0.1,1.3,0.3c0.4,0.2,0.7,0.5,0.9,0.9
				c0.2,0.4,0.4,0.9,0.5,1.4s0.1,1.2,0,1.9l-0.9,7.7h-2.1l0.9-7.7c0.1-1,0.1-1.7-0.2-2.1c-0.2-0.5-0.7-0.7-1.3-0.7
				c-0.4,0-0.8,0.1-1.2,0.3c-0.4,0.2-0.8,0.5-1.1,0.9c-0.4,0.4-0.7,0.8-1,1.4c-0.3,0.5-0.6,1.1-0.8,1.8l-0.7,6.1h-2.1l1.5-12.1h1.1
				c0.5,0,0.7,0.2,0.7,0.7L674.1,307.6z"/>
			<path class="st0" d="M687.7,299.1l-1.3,10.3h0.4c0.2,0,0.3,0,0.4-0.1c0.1,0,0.2-0.1,0.3-0.3l4-4.1c0.1-0.1,0.2-0.2,0.4-0.3
				c0.1-0.1,0.3-0.1,0.5-0.1h1.9l-4.7,4.7c-0.2,0.3-0.5,0.5-0.7,0.6c0.1,0.1,0.2,0.2,0.3,0.3c0.1,0.1,0.2,0.3,0.3,0.4l3.6,6h-1.8
				c-0.2,0-0.3,0-0.4-0.1c-0.1-0.1-0.2-0.2-0.3-0.3l-3.1-5c-0.1-0.2-0.2-0.3-0.3-0.3c-0.1-0.1-0.3-0.1-0.5-0.1h-0.4l-0.7,5.8h-2.1
				l2.2-17.6H687.7z"/>
			<path class="st0" d="M702.3,306.5c-0.1,0.1-0.1,0.2-0.2,0.2c-0.1,0-0.1,0.1-0.2,0.1c-0.1,0-0.2,0-0.4-0.1
				c-0.1-0.1-0.3-0.2-0.5-0.3c-0.2-0.1-0.4-0.2-0.7-0.3s-0.6-0.1-1-0.1c-0.4,0-0.7,0.1-1,0.1c-0.3,0.1-0.5,0.2-0.8,0.4
				c-0.2,0.2-0.4,0.4-0.5,0.6c-0.1,0.2-0.2,0.5-0.2,0.7c0,0.4,0.1,0.7,0.4,0.9c0.2,0.2,0.6,0.4,0.9,0.6c0.4,0.2,0.8,0.3,1.2,0.5
				c0.4,0.2,0.8,0.3,1.2,0.6c0.4,0.2,0.7,0.5,0.9,0.9c0.2,0.4,0.4,0.8,0.4,1.4c0,0.6-0.1,1.1-0.3,1.6c-0.2,0.5-0.5,1-0.9,1.3
				c-0.4,0.4-0.9,0.7-1.5,0.9c-0.6,0.2-1.2,0.3-1.9,0.3c-0.8,0-1.5-0.1-2-0.4c-0.6-0.3-1.1-0.6-1.4-1.1l0.5-0.8
				c0.1-0.1,0.1-0.2,0.2-0.2c0.1-0.1,0.2-0.1,0.3-0.1c0.1,0,0.3,0.1,0.4,0.2c0.1,0.1,0.3,0.2,0.5,0.4c0.2,0.1,0.4,0.3,0.7,0.4
				c0.3,0.1,0.7,0.2,1.1,0.2c0.4,0,0.7-0.1,1.1-0.2c0.3-0.1,0.6-0.3,0.8-0.5c0.2-0.2,0.4-0.4,0.5-0.7c0.1-0.3,0.2-0.6,0.2-0.9
				c0-0.4-0.1-0.7-0.4-1s-0.6-0.4-0.9-0.6c-0.4-0.2-0.8-0.3-1.2-0.4c-0.4-0.1-0.8-0.3-1.2-0.5c-0.4-0.2-0.7-0.5-0.9-0.9
				c-0.2-0.3-0.4-0.8-0.4-1.4c0-0.5,0.1-1,0.3-1.5c0.2-0.5,0.5-0.9,0.9-1.3c0.4-0.4,0.8-0.7,1.4-0.9c0.5-0.2,1.2-0.3,1.8-0.3
				c0.7,0,1.4,0.1,1.9,0.4c0.6,0.2,1,0.6,1.4,1L702.3,306.5z"/>
		</g>
	</g>
	<g>
		<g>
			<path class="st0" d="M583.1,44.7c-0.1-0.3-0.4-0.8-0.9-1.1c-0.4-0.3-1-0.5-1.6-0.5c-0.5,0-1,0.1-1.4,0.3
				c-0.4,0.2-0.8,0.4-1.1,0.7c-0.3,0.3-0.5,0.7-0.7,1c-0.1,0.4-0.2,0.8-0.2,1.2c0,0.4,0.1,0.8,0.2,1.1c0.1,0.3,0.3,0.6,0.5,0.8
				c0.2,0.2,0.5,0.4,0.8,0.5c0.6,0.2,1.3,0.2,1.8,0c0,0,0,0,0.1,0c0,0.2-0.1,0.4-0.1,0.5c0,0.1,0,0.3,0,0.4c0,0.1,0.2,0.5,0.8,0.5
				c0.4,0,0.8,0,0.9-0.3c0.1-0.2,0-0.3,0-0.4c-0.1-0.1-0.1-0.2-0.2-0.3c0-0.1-0.1-0.2-0.1-0.3c0-0.2,0-0.3,0.1-0.4
				c0.1-0.1,0.1-0.3,0.2-0.4c0.1-0.1,0.2-0.3,0.3-0.4c0.1-0.2,0.2-0.3,0.3-0.5c0.1-0.2,0.2-0.4,0.2-0.6c0.1-0.2,0.1-0.5,0.1-0.8
				c0-0.2,0-0.4,0-0.5C583.2,45,583.2,44.8,583.1,44.7z M581.4,46.3c-0.1,0.2-0.2,0.4-0.3,0.6c-0.1,0.2-0.3,0.3-0.5,0.4
				c-0.2,0.1-0.4,0.1-0.6,0.1c-0.3,0-0.6-0.1-0.7-0.3c-0.2-0.2-0.3-0.5-0.3-0.9c0-0.2,0-0.5,0.1-0.7c0.1-0.2,0.2-0.4,0.3-0.6
				c0.1-0.2,0.3-0.3,0.5-0.4c0.2-0.1,0.4-0.1,0.6-0.1c0.3,0,0.6,0.1,0.8,0.3c0.2,0.2,0.3,0.5,0.3,0.8
				C581.5,45.9,581.5,46.1,581.4,46.3z"/>
			<path class="st0" d="M588.8,48.2c0.2,0.2,0.5,0.4,0.8,0.5c0.6,0.2,1.3,0.2,1.8,0c0,0,0,0,0.1,0c0,0.2-0.1,0.4-0.1,0.5
				c0,0.1,0,0.3,0,0.4c0,0.1,0.2,0.5,0.8,0.5c0.4,0,0.8,0,0.9-0.3c0.1-0.2,0-0.3,0-0.4c-0.1-0.1-0.1-0.2-0.2-0.3
				c0-0.1-0.1-0.2-0.1-0.3c0-0.2,0-0.3,0.1-0.4c0.1-0.1,0.1-0.3,0.2-0.4c0.1-0.1,0.2-0.3,0.3-0.4c0.1-0.2,0.2-0.3,0.3-0.5
				c0.1-0.2,0.2-0.4,0.2-0.6c0.1-0.2,0.1-0.5,0.1-0.8c0-0.2,0-0.4,0-0.5c0-0.1-0.1-0.3-0.1-0.5c-0.1-0.3-0.4-0.8-0.9-1.1
				c-0.4-0.3-1-0.5-1.6-0.5c-0.5,0-1,0.1-1.4,0.3c-0.4,0.2-0.8,0.4-1.1,0.7c-0.3,0.3-0.5,0.7-0.7,1c-0.1,0.4-0.2,0.8-0.2,1.2
				c0,0.4,0.1,0.8,0.2,1.1C588.4,47.7,588.6,48,588.8,48.2z M592.3,46.3c-0.1,0.2-0.2,0.4-0.3,0.6c-0.1,0.2-0.3,0.3-0.5,0.4
				c-0.2,0.1-0.4,0.1-0.6,0.1c-0.3,0-0.6-0.1-0.7-0.3c-0.2-0.2-0.3-0.5-0.3-0.9c0-0.2,0-0.5,0.1-0.7c0.1-0.2,0.2-0.4,0.3-0.6
				c0.1-0.2,0.3-0.3,0.5-0.4c0.2-0.1,0.4-0.1,0.6-0.1c0.3,0,0.6,0.1,0.8,0.3c0.2,0.2,0.3,0.5,0.3,0.8
				C592.4,45.9,592.3,46.1,592.3,46.3z"/>
			<path class="st0" d="M600.2,39.9c-0.2-0.2-0.4-0.3-0.6-0.3h-13.2V31l1.7,4.4c0.2,0.5,0.7,0.7,1.1,0.5c0.5-0.2,0.7-0.7,0.5-1.1
				l-3.4-8.8c-0.2-0.4-0.6-0.6-1-0.5c-0.4,0.1-0.7,0.4-0.7,0.9v13.3h-13.2c-0.2,0-0.5,0.1-0.6,0.3c-0.2,0.2-0.3,0.4-0.3,0.6l0,29.2
				c0,0.2,0.1,0.5,0.3,0.6c0.2,0.2,0.4,0.3,0.6,0.3h0l13.2,0v8.6l-1.7-4.4c-0.2-0.5-0.7-0.7-1.1-0.5c-0.5,0.2-0.7,0.7-0.5,1.1
				l3.4,8.8c0.1,0.3,0.5,0.6,0.8,0.6c0.1,0,0.1,0,0.2,0c0.4-0.1,0.7-0.4,0.7-0.9V70.5l13.2,0c0.5,0,0.9-0.4,0.9-0.9l0-29.1
				C600.5,40.2,600.4,40,600.2,39.9z M588.1,68.7l3.4-10.9l0,10.9H588.1z M598.7,68.7l-5.5,0l0.1-16.7c0-0.2-0.1-0.5-0.3-0.6
				c-0.2-0.2-0.4-0.3-0.6-0.3c-0.4,0-0.7,0.3-0.8,0.6l-5.3,17l-6.6,0l5.1-16.5c0.1-0.3,0-0.6-0.1-0.8c-0.2-0.2-0.4-0.4-0.7-0.4h-5.4
				c-0.5,0-0.9,0.4-0.9,0.9l-0.1,16.8l-5.2,0l0-27.4h26.3L598.7,68.7z M579.4,63.8l0-10.9h3.4L579.4,63.8z"/>
		</g>
	</g>
	<polygon class="st22" points="625.4,252.7 563.9,252.7 532.4,296.6 598.5,296.6 	"/>
	<g>
		<polygon class="st23" points="578.6,121.3 461.8,273.6 468.7,273.6 585.5,121.3 		"/>
		<path class="st23" d="M1581.5,4c-9.7-3.7-23.3-4-27.2-4c-0.7,0-1.1,0-1.1,0l-83,0H923.7L681.1,0c0,0-27.9,0-43.6,0
			c-15.8,0-36.8,1.1-57.8,10.7c-21,9.6-33.1,27.4-33.1,27.4s-318,380.2-324.7,388.2l-10.4,12.5c0,0-6,7.5-5.2,16
			c0.8,8.5,9.6,15.3,17.1,17.1c7.4,1.8,13.5,3.2,31.6,3.2c0.2,0,0.4,0,0.5,0c6.1,0,10.4,0,13.5,0c6.2,0,7.1,0,7.1,0l937.9-0.1
			c0,0,0.4,0,1.1,0c10.8,0,94.7-0.5,126.8-14.6c34.3-15.1,46.6-41.3,46.6-41.3l49.1-94l116.8-229.3l24.6-48.6c0,0,3.6-7.2,8.3-16.3
			c4.6-9.1,4.6-12,4.6-12S1592.9,8.4,1581.5,4z M550.8,41.6l0.2-0.2l0.1-0.2c0.1-0.2,11.6-16.7,30.9-25.5
			c19.9-9.1,40.1-10.2,55.5-10.2l31.2,0L603,90.7h-93.3L550.8,41.6z M268.9,469.6c-3.1,0-7.4,0-13.5,0l-0.5,0
			c-17.7,0-23.6-1.4-30.3-3.1c-5.8-1.4-12.4-6.7-12.9-12.3c-0.6-5.9,3.8-11.7,4-12l10.4-12.4l107.7-128.7h108.8l-59.3,79
			c-0.6,0.8-0.7,1.9-0.3,2.9c0.5,0.9,1.4,1.5,2.5,1.5h281.1l-51.9,85l-338.5,0C276.1,469.6,275.1,469.6,268.9,469.6z M1383.6,416.6
			l-0.1,0.1l0,0.1c-0.1,0.2-12,24.6-43.8,38.6c-31.2,13.7-115.1,14.1-124.6,14.1l-1.1,0l-592.9,0l51.9-85h727.4L1383.6,416.6z
			 M1432.6,322.6l-29.5,56.4H554.4l35.2-57.4h-6.4L547.9,379H473l41.3-57.4h-6.8L466.3,379h-75.5l59.3-79c0.6-0.8,0.7-1.9,0.3-2.9
			c-0.5-0.9-1.4-1.5-2.5-1.5H338.3L505.1,96.2h100.6l70-90.7l5.5,0l53.9,0L525.6,296.6h6.8l31.5-43.8h61.5l-26.9,43.8h6.4l27.7-45.1
			c0.5-0.8,0.5-1.9,0.1-2.8c-0.5-0.9-1.4-1.4-2.4-1.4h-62.5l46.3-64.4h889.7L1432.6,322.6z M1586.3,18.3l-0.2-0.2l0.1,0.6
			c-0.2,0.8-0.9,3.6-4,9.6l-8.3,16.3l-24.6,48.6l-42.8,84H618.1L741.8,5.5l182,0h546.5l83,0h0.1l0.1,0c0,0,0.4,0,0.9,0
			c7.6,0,18.2,1,25.2,3.6C1586.3,11.7,1586.4,17,1586.3,18.3z"/>
	</g>
</g>
<g>
</g>
<g>
</g>
<g>
</g>
<g>
</g>
<g>
</g>
<g>
</g>
</svg>
