<?xml version="1.0" encoding="utf-8"?>
<!-- Generator: Adobe Illustrator 23.0.2, SVG Export Plug-In . SVG Version: 6.00 Build 0)  -->
<svg version="1.1" id="レイヤー_1" xmlns="http://www.w3.org/2000/svg" xmlns:xlink="http://www.w3.org/1999/xlink" x="0px"
	 y="0px" width="1509.7px" height="166px" viewBox="0 0 1509.7 166" style="enable-background:new 0 0 1509.7 166;"
	 xml:space="preserve">
<g>
	<g>
		<g>
			<path d="M771.8,42.5c-4.9-3.9-10-6.9-15.1-9.1c-5-2.1-10.4-3.1-15.6-3.1c-5.2,0-10,1.5-14.1,4.9c-4.3,3.2-6.4,7.5-6.4,13.4
				c0,7.9,6.4,14.4,19,19.4c12.8,4.6,22.1,9.7,28.1,14.6c6.1,5,9.2,16.4,9.2,34.5c0,15.9-4.5,28-13.4,36c-9,8-20.1,12.1-33.2,12.1
				c-6.2,0-12.3-0.9-18.4-2.4c-6-1.2-12.2-3.4-18.6-6.2V122c5.5,2.7,11.6,5,18.4,7.5c6.6,2.5,12.7,3.8,17.8,3.8
				c7.3,0,12.6-1.7,15.7-5c3.3-3.5,4.9-7.5,4.9-12.5c0-6.5-6.4-12.5-19.1-17.7C718.3,93,708.6,87.6,701.6,82
				c-6.8-5.7-10.3-16.9-10.3-33.7c0-13.8,4.4-25,13.2-34.4C713.4,4.6,724.6,0,738.2,0c6.7,0,12.6,0.4,17.7,1.4
				c5.3,1.1,10.5,3.2,15.8,5.9V42.5z"/>
			<path d="M894.5,110.3c0,14.4-4.9,27.2-14.9,38.6c-10,11.2-22.1,17.1-36.5,17.1c-12.2,0-23.4-5.2-33.7-15.6
				c-10.4-10.6-15.5-22.4-15.5-36.2V2.2h28.6v109.4c0,6,2.1,11.2,6.3,15.4c4.3,4.6,9.1,7,14.6,7c6,0,11.2-2.5,15.3-7
				c3.9-4.5,6-9.7,6-15.2V2.2h29.9V110.3z"/>
			<path d="M1018.3,143.9c0,5.9-2.1,11.5-5.9,15.5c-4,4.3-8.4,6.5-13.1,6.5c-3.7,0-7.1-1.2-10.5-3.3c-3.4-2.2-5.8-5.2-7.4-9.2
				L944.8,52.7h-1.1v111.1H918V23.5c0-5.7,1.7-11.1,5.1-15.9c3.3-5,7.6-7.3,12.7-7.3c3.3,0,6.6,1.2,10.1,3.9c3.5,2.6,6,5.9,7.4,9.8
				l37.2,100.5h1.8V2.4h26.1V143.9z"/>
			<path d="M1117.5,42.5c-4.9-3.9-9.8-6.9-14.9-9.1c-5.2-2.1-10.5-3.1-15.7-3.1c-5.3,0-10,1.5-14.3,4.9c-4.2,3.2-6.2,7.5-6.2,13.4
				c0,7.9,6.2,14.4,19,19.4c12.6,4.6,22.1,9.7,28.1,14.6c6.1,5,9.1,16.4,9.1,34.5c0,15.9-4.4,28-13.3,36c-9.1,8-20.1,12.1-33.3,12.1
				c-6.2,0-12.4-0.9-18.4-2.4c-6-1.2-12.2-3.4-18.5-6.2V122c5.5,2.7,11.5,5,18.3,7.5c6.7,2.5,12.7,3.8,17.9,3.8
				c7.2,0,12.4-1.7,15.7-5c3.3-3.5,4.9-7.5,4.9-12.5c0-6.5-6.3-12.5-19.2-17.7c-12.7-5.2-22.4-10.6-29.3-16.2
				c-6.9-5.7-10.4-16.9-10.4-33.7c0-13.8,4.4-25,13.1-34.4C1059.2,4.6,1070.4,0,1084,0c6.8,0,12.6,0.4,17.8,1.4
				c5.2,1.1,10.5,3.2,15.8,5.9V42.5z"/>
			<path d="M1242.3,163.8h-29.7V96.5h-42.7v67.3h-29.5V2.2h29.5v61.2h42.7V2.2h29.7V163.8z"/>
			<path d="M1296.2,164.4h-29.3V3h29.3V164.4z"/>
			<path d="M1420,143.9c0,5.9-1.9,11.5-5.8,15.5c-4.1,4.3-8.4,6.5-13.2,6.5c-3.6,0-7.1-1.2-10.4-3.3c-3.4-2.2-5.9-5.2-7.4-9.2
				l-36.4-100.8h-1.1v111.1h-25.8V23.5c0-5.7,1.7-11.1,5.2-15.9c3.3-5,7.7-7.3,12.7-7.3c3.3,0,6.6,1.2,10.2,3.9
				c3.3,2.6,5.9,5.9,7.3,9.8l37.2,100.5h1.7V2.4h26V143.9z"/>
			<path d="M1509.7,163.8h-48.5c-6.3,0-11.4-2.6-15.4-7.9c-4-5.5-6-11.6-6-18.2V30c0-7.9,1.8-14.7,5.1-20c3.2-5.2,7.5-7.8,12.8-7.8
				h52v31.7h-41.1v28.8h39v31.5h-39v37.1h41.1V163.8z"/>
		</g>
		<g>
			<g>
				<path d="M92.4,33.5c-18.5,0-33,4.2-43.8,12.4c-10.6,8.6-15.9,20.6-15.9,36.2c0,17.4,5.5,30,16.7,37.9
					c11.2,7.8,25.2,11.6,42,11.6v32.1c-1.7,0.3-3.4,0.3-5.7,0.5c-2.2,0.2-4.2,0.2-6.1,0.2c-20.1,0-38.4-7.4-54.9-22
					C8.3,127.8,0,108.2,0,83.5c0-24.8,8-44.7,23.9-59.4C39.7,9.3,58.5,2,79.9,2c2.9,0,5.3,0,7.2,0c1.8,0,3.6,0,5.4,0V33.5z"/>
				<path d="M146.2,164.5h-31.9V3h31.9V164.5z"/>
				<path d="M279.8,143.8c0,6.3-2.2,11.4-6.5,15.8c-4.4,4.2-9.2,6.2-14.4,6.2c-3.7,0-7.4-0.9-11.2-3c-3.7-2.2-6.4-5.1-7.8-9.5
					L199.9,52.5l-1.7,0.3v111h-27.6V23.5c0-6,1.9-11.2,5.5-15.9c3.8-4.9,8.4-7.3,13.8-7.3c3.7,0,7.3,1.3,11.1,3.8
					c3.8,2.5,6.5,5.8,8.2,9.7l40.4,100.7h2V2.4h28.2V143.8z"/>
				<path d="M379.3,163.8h-52.5c-7,0-12.6-2.6-16.9-8c-4.4-5.4-6.5-11.4-6.5-18.3V30c0-8,1.8-14.7,5.4-20c3.6-5.4,8.3-8,14.3-8h56.2
					v31.9h-45.1v29H377v31.5h-42.8v36.9h45.1V163.8z"/>
				<path d="M525.9,163.8H502l-0.1-114.6l-21.1,97.7c-1.2,5.7-3.1,10-5.4,13.2c-2.3,3.3-5.7,4.7-10.2,4.7c-4.7,0-8.3-1.7-10.7-4.9
					c-2.4-3.2-4.3-8.2-5.7-14.2l-23.5-95.2l-0.1,113.3H401V23.5c0-6.7,1.9-12.2,5.7-16.1c3.8-3.9,8.3-5.8,13.6-5.8
					c5,0,9,1.4,12.1,4.3c3.2,2.9,5.4,7.2,7,12.9l25.2,104.2l22.8-109.4c0.8-3.6,2.9-6.6,6.4-9.4c3.3-2.3,7.1-3.8,10.9-3.8
					c3.8,0,8.3,1.9,13.4,6c5.2,3.9,7.8,9.9,7.8,17.9V163.8z"/>
				<path d="M584.3,107.3l14.3-70.2l12.9,70.2H584.3z M621.6,21.9c-1.8-6.2-4.8-11.3-9.1-15.7c-4.4-4.1-9.4-6.3-15.2-6.3
					c-5.1,0-9.5,2-13.2,5.8c-3.7,4-6.4,8.7-8,14.2l-40.2,143.8h32.2l8.5-30.9h43.6l7.9,30.9h32.1L621.6,21.9z"/>
			</g>
		</g>
	</g>
</g>
</svg>
