<?xml version="1.0" encoding="utf-8"?>
<!-- Generator: Adobe Illustrator 23.0.2, SVG Export Plug-In . SVG Version: 6.00 Build 0)  -->
<svg version="1.1" id="レイヤー_1" xmlns="http://www.w3.org/2000/svg" xmlns:xlink="http://www.w3.org/1999/xlink" x="0px"
	 y="0px" width="250.6px" height="47.5px" viewBox="0 0 250.6 47.5" style="enable-background:new 0 0 250.6 47.5;"
	 xml:space="preserve">
<style type="text/css">
	.st0{fill:#0071CE;}
</style>
<path class="st0" d="M78.3,0.1c0,0-12.3,24.3-14.3,28.3c-2-4-14.4-28.3-14.4-28.3h-24v47.3h13.4c0,0,0-31.8,0-34.3c1.1,0,2,0,2.7,0
	c0.7,1.4,16.7,34.3,16.7,34.3h11.1c0,0,16-32.8,16.7-34.3c0.8,0,1.6,0,2.7,0c0,2.5,0,34.3,0,34.3h13.4V0.1H78.3z"/>
<path class="st0" d="M0,0.1v47.3h15.1V0.1H0z"/>
<path class="st0" d="M105,47.5h15.9c0,0,3.5-6.8,4.1-8c1.5,0,28.5,0,30,0c0.6,1.2,4.1,8,4.1,8h15.9L151,0.1l-0.8,0H129L105,47.5z
	 M140.8,10.9c0.6,1.2,7.5,14.9,9.1,18c-3.2,0-16.5,0-19.7,0c1.6-3.1,8.5-16.7,9.1-18C139.9,10.9,140.2,10.9,140.8,10.9z"/>
<path class="st0" d="M238.7,0.1h-15.3c0,0-11.2,13.3-12.9,15.4c-1.7-2.1-12.7-15.4-12.7-15.4h-18.4c0,0,17.3,20.6,18.7,22.2
	c-1.4,1.6-22.2,25.2-22.2,25.2h19.6c0,0,13.4-15.2,15.1-17.2c1.8,2,14.9,17.2,14.9,17.2h19.6c0,0-20.8-23.5-22.3-25.2
	c1.4-1.6,18.7-22.2,18.7-22.2H238.7z"/>
<g>
	<path class="st0" d="M247,7.2c-2,0-3.6-1.6-3.6-3.6c0-2,1.6-3.6,3.6-3.6c2,0,3.6,1.6,3.6,3.6C250.6,5.6,249,7.2,247,7.2z M247,0.6
		c-1.6,0-3,1.3-3,3c0,1.6,1.3,3,3,3c1.6,0,3-1.3,3-3C250,1.9,248.6,0.6,247,0.6z"/>
</g>
<g>
	<path class="st0" d="M247,3.6"/>
</g>
<g>
	<path class="st0" d="M246.2,4.2v1.3h-0.7V1.6h2c0.9,0,1.2,0.3,1.2,1.2c0,0.6,0,1-0.7,1.1v0c0.5,0,0.7,0.3,0.7,0.9v0.7h-0.7V4.8
		c0-0.3-0.1-0.6-0.5-0.6H246.2z M247.2,3.6c0.5,0,0.7-0.1,0.7-0.7c0-0.5-0.1-0.6-0.6-0.6h-1v1.3H247.2z"/>
</g>
</svg>
