<?xml version="1.0" encoding="utf-8"?>
<!-- Generator: Adobe Illustrator 23.0.4, SVG Export Plug-In . SVG Version: 6.00 Build 0)  -->
<svg version="1.1" id="レイヤー_1" xmlns="http://www.w3.org/2000/svg" xmlns:xlink="http://www.w3.org/1999/xlink" x="0px"
	 y="0px" width="60.6px" height="60.6px" viewBox="0 0 60.6 60.6" style="enable-background:new 0 0 60.6 60.6;"
	 xml:space="preserve">
<style type="text/css">
	.st0{display:none;}
	.st1{display:inline;fill:none;stroke:#8E8E8E;stroke-miterlimit:10;}
	.st2{display:inline;}
	.st3{fill:none;stroke:#8E8E8E;stroke-miterlimit:10;}
	.st4{fill:none;stroke:#919191;stroke-miterlimit:10;}
	.st5{display:inline;fill:#919191;}
	.st6{font-family:'HiraKakuProN-W3-83pv-RKSJ-H';}
	.st7{font-size:20px;}
	.st8{letter-spacing:2;}
	.st9{display:inline;fill:none;stroke:#919191;stroke-miterlimit:10;}
	.st10{fill:none;stroke:#565656;stroke-width:3;stroke-miterlimit:10;}
</style>
<g id="nav_x5F_about_x5F_icon" class="st0">
	<path class="st1" d="M40.4,42.7H22.7c-2.8,0-5-2.2-5-5V20c0-2.8,2.2-5,5-5h17.7c2.8,0,5,2.2,5,5v17.7
		C45.4,40.4,43.2,42.7,40.4,42.7z"/>
</g>
<g id="nav_x5F_user_x5F_icon" class="st0">
	<g class="st2">
		<circle class="st3" cx="31.5" cy="19.7" r="4.7"/>
		<path class="st3" d="M31.6,30.3c-1.5,0-2.8-0.3-4.1-0.8l-6.3,3.9l1,9.2h18.9l1-9.2l-6.3-3.9C34.4,30,33,30.3,31.6,30.3z"/>
	</g>
</g>
<g id="nav_x5F_prapoly_x5F_icon" class="st0">
	<g class="st2">
		<line class="st3" x1="17.6" y1="17.9" x2="45.4" y2="17.9"/>
		<line class="st3" x1="17.6" y1="28.8" x2="34" y2="28.8"/>
		<line class="st3" x1="17.6" y1="39.8" x2="45.4" y2="39.8"/>
	</g>
</g>
<g id="nav_x5F_link_x5F_icon" class="st0">
	<g class="st2">
		<rect x="17.9" y="17.1" class="st3" width="22.1" height="17.7"/>
		<polyline class="st3" points="45.3,21.3 45.3,40.5 22.3,40.5 		"/>
	</g>
</g>
<g id="menu_x5F_buy_x5F_tk" class="st0">
	<g class="st2">
		<g>
			<g>
				<polygon class="st4" points="56.3,48.3 11.4,48.3 11.4,32 14.5,28.9 11.4,28.9 11.4,22.7 56.3,22.7 				"/>
			</g>
			<g>
				<g>
					<line class="st4" x1="23.2" y1="42.3" x2="23.2" y2="46.3"/>
				</g>
				<g>
					<line class="st4" x1="23.2" y1="36.4" x2="23.2" y2="40.4"/>
				</g>
				<g>
					<line class="st4" x1="23.2" y1="30.5" x2="23.2" y2="34.5"/>
				</g>
				<g>
					<line class="st4" x1="23.2" y1="24.7" x2="23.2" y2="28.7"/>
				</g>
			</g>
		</g>
		<g>
			<g>
				<polyline class="st4" points="49.2,18.4 49.2,13 4.3,13 4.3,19.2 7.5,19.2 4.3,22.3 4.3,35.8 7.7,35.8 				"/>
			</g>
		</g>
	</g>
</g>
<g id="menu_x5F_point" class="st0">
	<text transform="matrix(1 0 0 1 24.6802 38.5395)" class="st5 st6 st7 st8">P</text>
	<circle class="st9" cx="31.3" cy="30.3" r="20.2"/>
</g>
<g>
	<g>
		<path class="st10" d="M30.3,1.5C14.4,1.5,1.5,14.4,1.5,30.3s12.9,28.8,28.8,28.8s28.8-12.9,28.8-28.8S46.2,1.5,30.3,1.5L30.3,1.5z
			"/>
	</g>
	<polyline class="st10" points="29.5,14 29.5,32.4 37.2,24.6 	"/>
</g>
</svg>
