<?xml version="1.0" encoding="utf-8"?>
<!-- Generator: Adobe Illustrator 24.0.1, SVG Export Plug-In . SVG Version: 6.00 Build 0)  -->
<svg version="1.1" id="_x31_03_x2A_147" xmlns="http://www.w3.org/2000/svg" xmlns:xlink="http://www.w3.org/1999/xlink" x="0px"
	 y="0px" width="73px" height="28.3px" viewBox="0 0 73 28.3" style="enable-background:new 0 0 73 28.3;" xml:space="preserve">
<style type="text/css">
	.st0{fill:#FFFFFF;}
</style>
<g>
	<path class="st0" d="M71.7,28.1L57.8,16.2c-0.1-0.1-0.2-0.1-0.3-0.1H52L67.5,0.2c0.1-0.1,0-0.2-0.1-0.2h-8.1c-0.1,0-0.2,0-0.3,0.1
		l-9.3,8.8l-5.7-5.1c-0.1-0.1-0.2-0.1-0.3-0.1h-8c-0.1,0-0.2,0.1-0.1,0.2l6.6,6.4c0.1,0.1,0.2,0.1,0.3,0.1h5.2l-14,13.2
		c-0.1,0.1,0,0.2,0.1,0.2h10.7c0.1,0,0.3-0.1,0.3-0.1l5.1-5.3l9.5,9.7c0.1,0.1,0.2,0.1,0.3,0.1h12C71.8,28.3,71.8,28.1,71.7,28.1"/>
	<path class="st0" d="M13.3,23.3l0-3.4H1.2c-0.1,0-0.2-0.1-0.2-0.2v-3.4c0-0.3,0.1-0.6,0.4-0.8L15.2,5.4c0.7-0.5,1.7,0,1.7,0.9v17.1
		H13.3z M13.1,11c-0.1,0-0.1,0-0.2,0.1l-7,5c-0.1,0.1-0.2,0.2-0.1,0.3c0,0.1,0.2,0.2,0.3,0.2h7.3v-5.3C13.3,11.2,13.2,11,13.1,11"/>
	<path class="st0" d="M34.3,8.3c-1.4-1.6-3.3-2.7-6.2-2.7H21c-0.6,0-1.1,0.5-1.1,1.1v12.6c0,0.6,0.5,1.1,1.1,1.1h7.1
		c2.2,0,4.2-0.6,5.9-2.3c0.9-0.9,2-2.6,2-5C36,10.6,34.9,9,34.3,8.3 M31.6,15.6c-0.4,0.5-1.5,1.5-3.3,1.5h-4.4
		c-0.2,0-0.4-0.2-0.4-0.4V9.3c0-0.2,0.2-0.4,0.4-0.4h4.4c1.8,0,2.9,0.9,3.3,1.5c0.6,0.7,0.9,1.6,0.9,2.6
		C32.6,14,32.2,14.9,31.6,15.6"/>
</g>
</svg>
