<?xml version="1.0" encoding="utf-8"?>
<!-- Generator: Adobe Illustrator 23.0.4, SVG Export Plug-In . SVG Version: 6.00 Build 0)  -->
<svg version="1.1" id="_x31_03_x2A_147" xmlns="http://www.w3.org/2000/svg" xmlns:xlink="http://www.w3.org/1999/xlink" x="0px"
	 y="0px" width="73px" height="28.3px" viewBox="0 0 73 28.3" style="enable-background:new 0 0 73 28.3;" xml:space="preserve">
<style type="text/css">
	.st0{fill:#FFFFFF;}
</style>
<g>
	<g>
		<g>
			<g>
				<g>
					<g>
						<path class="st0" d="M14.7,16.8V6.6H8.8L0,16.8h2.2L1.2,18v3.7h11.2v3.3h4.2v-8.1H14.7z M12.4,18H5.8l1.1-1.2h-2l5.6-6.4v6.4
							h2V18z"/>
						<path class="st0" d="M36,14h-2.3c-0.1-4.1-3.5-7.4-7.8-7.4h-7.1V14h2.3v7.7h7.1c4.3,0,7.8-3.4,7.8-7.5C36,14.1,36,14,36,14z
							 M28.6,18h-3v-4h-2.3v-3.8h3c1.7,0,3,1.7,3.1,3.8h2.3c0,0,0,0.1,0,0.1C31.7,16.3,30.3,18,28.6,18z"/>
						<g>
							<polygon class="st0" points="38.9,17.4 37.9,18.4 55.4,18.4 54.4,17.4 							"/>
						</g>
						<g>
							<polygon class="st0" points="43.6,14 41,16.8 55.9,16.8 53.2,14 							"/>
						</g>
						<g>
							<polygon class="st0" points="43.2,11.6 44.9,13.4 55.8,13.4 57.5,11.6 							"/>
						</g>
						<g>
							<polygon class="st0" points="38.6,11 46.3,11 42.1,6.6 34.4,6.6 							"/>
							<polygon class="st0" points="46.5,11 53.5,11 57.7,6.6 50.7,6.6 							"/>
						</g>
						<g>
							<polygon class="st0" points="37.3,6 45,6 42.1,3 34.4,3 							"/>
							<polygon class="st0" points="58.8,0 53.1,6 60.8,6 66.5,0 							"/>
						</g>
						<g>
							<polygon class="st0" points="58.4,19 50.6,19 53.2,21.7 60.9,21.7 							"/>
							<polygon class="st0" points="31,28.3 39.1,28.3 45,22.1 36.9,22.1 							"/>
							<polygon class="st0" points="50,19 41.8,19 39.3,21.7 47.4,21.7 							"/>
							<polygon class="st0" points="54.2,24.9 61.9,24.9 59.3,22.1 51.6,22.1 							"/>
						</g>
					</g>
				</g>
			</g>
		</g>
	</g>
	<g>
		<path class="st0" d="M67.7,1.6C67.8,1.3,68,1,68.3,0.8c0.3-0.2,0.5-0.4,0.9-0.6C69.5,0.1,69.8,0,70.2,0c0.4,0,0.7,0.1,1.1,0.2
			c0.3,0.1,0.6,0.3,0.9,0.6c0.2,0.2,0.4,0.5,0.6,0.9C72.9,2,73,2.3,73,2.7c0,0.4-0.1,0.8-0.2,1.1c-0.1,0.3-0.3,0.6-0.6,0.9
			c-0.2,0.2-0.5,0.4-0.9,0.6c-0.3,0.1-0.7,0.2-1.1,0.2c-0.4,0-0.7-0.1-1.1-0.2c-0.3-0.1-0.6-0.3-0.9-0.6c-0.2-0.2-0.5-0.5-0.6-0.9
			c-0.1-0.3-0.2-0.7-0.2-1.1C67.5,2.3,67.5,2,67.7,1.6z M68.1,3.6c0.1,0.3,0.3,0.5,0.5,0.7c0.2,0.2,0.4,0.4,0.7,0.5
			c0.3,0.1,0.6,0.2,0.9,0.2c0.3,0,0.6-0.1,0.9-0.2c0.3-0.1,0.5-0.3,0.7-0.5c0.2-0.2,0.4-0.5,0.5-0.7c0.1-0.3,0.2-0.6,0.2-0.9
			c0-0.3-0.1-0.6-0.2-0.9c-0.1-0.3-0.3-0.5-0.5-0.7c-0.2-0.2-0.4-0.4-0.7-0.5c-0.3-0.1-0.6-0.2-0.9-0.2c-0.3,0-0.6,0.1-0.9,0.2
			c-0.3,0.1-0.5,0.3-0.7,0.5c-0.2,0.2-0.4,0.5-0.5,0.7C68,2.1,68,2.4,68,2.7C68,3.1,68,3.4,68.1,3.6z M70.4,1.1
			c0.4,0,0.7,0.1,0.8,0.2c0.2,0.2,0.3,0.4,0.3,0.7c0,0.3-0.1,0.5-0.2,0.6c-0.2,0.1-0.4,0.2-0.6,0.2l0.9,1.4h-0.5L70.2,3h-0.5v1.4
			h-0.5V1.1H70.4z M70.2,2.6c0.1,0,0.2,0,0.3,0c0.1,0,0.2,0,0.3-0.1c0.1,0,0.1-0.1,0.2-0.2C71,2.3,71,2.2,71,2c0-0.1,0-0.2-0.1-0.3
			c0-0.1-0.1-0.1-0.2-0.1c-0.1,0-0.1-0.1-0.2-0.1c-0.1,0-0.2,0-0.3,0h-0.7v1H70.2z"/>
	</g>
</g>
</svg>
