<?xml version="1.0" encoding="utf-8"?>
<!-- Generator: Adobe Illustrator 23.0.4, SVG Export Plug-In . SVG Version: 6.00 Build 0)  -->
<svg version="1.1" id="編集モード" xmlns="http://www.w3.org/2000/svg" xmlns:xlink="http://www.w3.org/1999/xlink" x="0px"
	 y="0px" width="147.6px" height="44.5px" viewBox="0 0 147.6 44.5" style="enable-background:new 0 0 147.6 44.5;"
	 xml:space="preserve">
<style type="text/css">
	.st0{fill:#FFFFFF;}
	.st1{fill:#EA4F19;}
</style>
<g>
	<path class="st0" d="M15.6,16.9V14h-13C1.1,14,0,15.1,0,16.6v4.9C0,22.9,1.2,24,2.6,24h8.5l0,4.2H0v2.9h13.2c1.4,0,2.4-1.2,2.4-2.6
		v-4.9c0-1.4-1.2-2.6-2.6-2.6H4.5v-4.2H15.6z"/>
	<path class="st0" d="M31.9,16.9V14H20l0,0c-1.4,0-2.6,1.2-2.6,2.6v12c0,1.4,1.3,2.6,2.6,2.6l0,0h11.9v-2.9H21.9V16.9H31.9z"/>
	<path class="st0" d="M45.3,25.3h1c1.3,0,2.8-1.3,2.8-2.8v-5.8c0-1.5-1.5-2.8-2.8-2.8H33.6v17.2h4.5V16.9h6.4v5.6h-5.3V23l5.5,8.2
		h4.5L45.3,25.3z"/>
	<path class="st0" d="M65.5,16.9V14h-12c-1.4,0-2.6,1.2-2.6,2.6v12c0,1.4,1.2,2.6,2.6,2.6h12v-2.9H55.4V24H63v-2.9h-7.6v-4.2H65.5z"
		/>
	<path class="st0" d="M81.7,16.9V14h-12c-1.4,0-2.6,1.2-2.6,2.6v12c0,1.4,1.2,2.6,2.6,2.6h12v-2.9H71.6V24h7.6v-2.9h-7.6v-4.2H81.7z
		"/>
	<path class="st0" d="M100.1,14h-4.5v13.1l-6.2-11.7C89,14.6,88.1,14,87.2,14h-3.7v17.2H88V18.1l6.1,11.6c0.5,0.9,1.4,1.5,2.4,1.5
		h3.6V14z"/>
	<g>
		<polygon class="st1" points="134.8,0.5 134.7,0.1 103.7,10 103.7,34.6 134.9,44.5 147.6,36.3 147.6,8.7 134.9,0 134.7,0.1 
			134.8,0.5 134.5,0.9 146.7,9.2 146.7,35.8 134.7,43.4 104.7,33.9 104.7,10.7 135,1 134.8,0.5 134.5,0.9 		"/>
		<polyline class="st1" points="134.3,0.5 134.3,43.9 135.3,43.9 135.3,0.5 		"/>
		<polyline class="st1" points="113.4,14.4 113.4,30 114.3,30 114.3,14.4 		"/>
		<polygon class="st1" points="104,10.8 113.7,15 147.2,9.4 147.1,8.4 113.9,14 104.4,9.9 104,10.8 		"/>
		<polygon class="st1" points="104.4,34.6 113.9,30.5 147.1,36.6 147.2,35.7 113.8,29.5 104,33.7 104.4,34.6 		"/>
	</g>
	<polygon class="st0" points="133.2,3.8 123.2,6.7 116.5,17.5 111.3,10.2 106.6,11.6 113.4,22.4 106.7,33.2 111.3,34.6 116.5,27.3 
		123.2,38.1 133.2,41 120,22.4 	"/>
</g>
</svg>
