<?xml version="1.0" encoding="utf-8"?>
<!-- Generator: Adobe Illustrator 24.0.1, SVG Export Plug-In . SVG Version: 6.00 Build 0)  -->
<svg version="1.1" id="編集モード" xmlns="http://www.w3.org/2000/svg" xmlns:xlink="http://www.w3.org/1999/xlink" x="0px"
	 y="0px" width="147.7px" height="29.1px" viewBox="0 0 147.7 29.1" style="enable-background:new 0 0 147.7 29.1;"
	 xml:space="preserve">
<style type="text/css">
	.st0{fill:#FFFFFF;}
</style>
<g>
	<path class="st0" d="M147.7,28.8l-14.3-12.2c-0.1-0.1-0.2-0.1-0.3-0.1h-5.6l15.9-16.3c0.1-0.1,0-0.2-0.1-0.2h-8.3
		c-0.1,0-0.3,0-0.3,0.1l-9.6,9l-5.9-5.2c-0.1-0.1-0.2-0.1-0.3-0.1h-8.2c-0.1,0-0.2,0.1-0.1,0.2l6.8,6.6c0.1,0.1,0.2,0.1,0.3,0.1h5.3
		l-14.4,13.6c-0.1,0.1,0,0.2,0.1,0.2h11c0.1,0,0.3-0.1,0.4-0.2l5.2-5.4l9.8,9.9c0.1,0.1,0.2,0.1,0.4,0.1h12.3
		C147.7,29.1,147.8,28.9,147.7,28.8"/>
	<path class="st0" d="M102.2,5.8L102.2,5.8V17c0,0.3-0.2,0.5-0.5,0.5c-0.3,0-0.5-0.2-0.6-0.5l-6.6-9.9c-0.4-0.6-1.2-1.8-3.7-1.8
		c-1.9,0-3.3,0.9-3.3,3.2v0v12.3H91V9.6c0-0.3,0.2-0.5,0.5-0.5c0.3,0,0.5,0.2,0.6,0.5l6.6,10c0.4,0.7,1.4,1.7,3.6,1.7
		c0.6,0,1.2-0.1,1.6-0.3c0.9-0.3,1.6-1.1,1.6-2.8V5.8L102.2,5.8z"/>
	<path class="st0" d="M17.7,13.3c0-2.2,1-3.9,1.7-4.8c0.9-1.1,2.7-2.7,6.4-2.7h7.1v3.3h-7.1c-2.2,0-3.3,1.2-3.5,1.5
		c-0.3,0.4-1,1.4-1,2.7c0,1.4,0.7,2.4,1,2.8c0.5,0.6,1.5,1.5,3.5,1.5h7.1v3.2h-7.1c-2.5,0-4.4-0.7-6-2.4
		C18.9,17.7,17.7,15.9,17.7,13.3"/>
	<path class="st0" d="M15.6,9.1H5.1c-0.5,0-0.9,0.1-1.2,0.4c-0.3,0.3-0.4,0.6-0.4,1c0,0.4,0.1,0.6,0.4,0.9c0.3,0.3,0.7,0.4,1.2,0.4
		h6.3c2,0,3.1,0.7,3.9,1.6c0.7,0.8,1,1.8,1,2.9c0,1.2-0.5,2.1-1,2.8c-0.6,0.8-1.7,1.7-4,1.7H0.4v-3.2h10.7c0.8,0,1.1-0.2,1.4-0.4
		c0.2-0.3,0.4-0.6,0.4-1c0-0.4-0.2-0.7-0.4-1c-0.3-0.3-0.6-0.4-1.4-0.4H5c-2.3,0-3.3-0.7-3.9-1.3C0.4,12.8,0,11.5,0,10.3
		C0,9.1,0.4,8,1,7.3c1-1.2,2.3-1.5,3.9-1.5h10.6V9.1z"/>
	<path class="st0" d="M68.3,5.8v3.3H57.1c-0.3,0-0.4,0.1-0.4,0.4v2.4h11.7v2.9H56.6v2.4c0,0.3,0.1,0.5,0.4,0.5h11.3v3.2H55.3
		c-1.4,0-2.1-0.7-2.1-2.1v-11c0-1.4,0.7-2,2.1-2H68.3z"/>
	<path class="st0" d="M85.5,5.8v3.3H74.2c-0.3,0-0.4,0.1-0.4,0.4v2.4h11.7v2.9H73.8v2.4c0,0.3,0.1,0.5,0.4,0.5h11.3v3.2H72.5
		c-1.4,0-2.1-0.7-2.1-2.1v-11c0-1.4,0.7-2,2.1-2H85.5z"/>
	<path class="st0" d="M51.1,19.4v-2.9c0-0.9-0.1-1.6-0.4-2.1c-0.3-0.5-0.6-0.9-1.1-1.1c0.6-0.4,1-0.9,1.3-1.4
		c0.2-0.6,0.4-1.2,0.4-1.9c0-1.6-1.1-4.2-4.7-4.2h-9.3c-1.4,0-2.1,0.7-2.1,2v13.1h3.3v-5.7h7.5c0.7,0,1.2,0.1,1.5,0.4
		c0.3,0.3,0.4,0.7,0.4,1.3v2.9c0,0.3,0,0.7,0.1,1.1h3.4c0-0.2,0-0.4-0.1-0.6C51.1,20,51.1,19.8,51.1,19.4 M46.8,12
		c-0.3,0.1-0.6,0.2-1.1,0.2h-7.2V9.3c0-0.2,0.2-0.4,0.4-0.4h6.8c0.4,0,0.8,0,1,0.1c0.7,0.3,1.1,0.9,1.1,1.5
		C47.7,11.2,47.4,11.8,46.8,12"/>
</g>
</svg>
