<?xml version="1.0" encoding="utf-8"?>
<!-- Generator: Adobe Illustrator 22.1.0, SVG Export Plug-In . SVG Version: 6.00 Build 0)  -->
<!DOCTYPE svg PUBLIC "-//W3C//DTD SVG 1.1//EN" "http://www.w3.org/Graphics/SVG/1.1/DTD/svg11.dtd" [
	<!ENTITY st0 "fill:#0090D4;">
]>
<svg version="1.1" id="レイヤー_1" xmlns="http://www.w3.org/2000/svg" xmlns:xlink="http://www.w3.org/1999/xlink" x="0px"
	 y="0px" width="667.1px" height="45px" viewBox="0 0 667.1 45" style="enable-background:new 0 0 667.1 45;" xml:space="preserve">
<g>
	<g>
		<path style="&st0;" d="M504.1,0.5c0,0-11.4,22.6-13.3,26.3c-1.9-3.7-13.3-26.3-13.3-26.3h-22.3v43.9h12.4V12.6h2.5
			c0.7,1.3,15.5,31.8,15.5,31.8H496c0,0,14.9-30.4,15.5-31.8h2.5v31.8h12.4V0.5H504.1z"/>
		<rect x="431.5" y="0.5" style="&st0;" width="14" height="43.9"/>
		<path style="&st0;" d="M528.9,44.4h14.8c0,0,3.2-6.3,3.8-7.4h27.9c0.6,1.1,3.8,7.4,3.8,7.4h14.7L571.6,0.5h-0.8h-19.6L528.9,44.4z
			 M562.1,10.5c0.6,1.1,7,13.8,8.4,16.7h-18.3c1.4-2.8,7.9-15.5,8.4-16.7H562.1z"/>
		<path style="&st0;" d="M652.9,0.5h-14.2c0,0-10.4,12.3-12,14.3c-1.6-2-11.8-14.3-11.8-14.3h-17.1c0,0,16.1,19.1,17.3,20.6
			c-1.3,1.5-20.6,23.3-20.6,23.3h18.2c0,0,12.4-14.1,14-16c1.6,1.9,13.8,16,13.8,16h18.2c0,0-19.3-21.8-20.6-23.3
			c1.3-1.5,17.3-20.6,17.3-20.6H652.9z"/>
		<path style="&st0;" d="M657.2,5.1c0-2.7,2.2-5,5-5c2.8,0,5,2.2,5,5c0,2.7-2.2,5-5,5V9.7V9.3c2.3,0,4.2-1.9,4.2-4.2
			c0-2.3-1.9-4.2-4.2-4.2c-2.3,0-4.2,1.9-4.2,4.2c0,2.3,1.9,4.2,4.2,4.2v0.4v0.4C659.4,10.1,657.2,7.8,657.2,5.1"/>
		<path style="&st0;" d="M661.1,6v1.8h-1V2.3h2.8c1.2,0,1.6,0.4,1.6,1.6c0,0.8,0,1.4-1,1.5v0c0.7,0.1,0.9,0.5,0.9,1.2v1h-1v-1
			c0-0.5-0.2-0.8-0.7-0.8H661.1z M662.5,5.1c0.7,0,0.9-0.1,0.9-0.9c0-0.8-0.1-0.9-0.9-0.9h-1.4v1.8H662.5z"/>
	</g>
	<g>
		<g>
			<path style="&st0;" d="M209.5,11.5c-1.3-1.1-2.7-1.9-4.1-2.5c-1.4-0.6-2.8-0.8-4.2-0.8c-1.4,0-2.7,0.4-3.8,1.3
				c-1.2,0.9-1.7,2-1.7,3.6c0,2.2,1.7,3.9,5.2,5.3c3.5,1.2,6,2.6,7.6,4c1.7,1.3,2.5,4.4,2.5,9.4c0,4.3-1.2,7.6-3.6,9.8
				c-2.4,2.2-5.4,3.3-9,3.3c-1.7,0-3.3-0.2-5-0.7c-1.6-0.3-3.3-0.9-5-1.7v-9.4c1.5,0.7,3.2,1.4,5,2c1.8,0.7,3.4,1,4.8,1
				c2,0,3.4-0.5,4.3-1.4c0.9-1,1.3-2,1.3-3.4c0-1.8-1.7-3.4-5.2-4.8c-3.5-1.4-6.1-2.9-8-4.4c-1.9-1.5-2.8-4.6-2.8-9.1
				c0-3.8,1.2-6.8,3.6-9.3c2.4-2.5,5.5-3.8,9.1-3.8c1.8,0,3.4,0.1,4.8,0.4c1.4,0.3,2.9,0.9,4.3,1.6V11.5z"/>
			<path style="&st0;" d="M242.8,29.9c0,3.9-1.3,7.4-4,10.5c-2.7,3-6,4.6-9.9,4.6c-3.3,0-6.4-1.4-9.2-4.2c-2.8-2.9-4.2-6.1-4.2-9.8
				V0.6h7.8v29.7c0,1.6,0.6,3,1.7,4.2c1.2,1.2,2.5,1.9,3.9,1.9c1.6,0,3-0.7,4.2-1.9c1.1-1.2,1.6-2.6,1.6-4.1V0.6h8.1V29.9z"/>
			<path style="&st0;" d="M276.4,39.1c0,1.6-0.6,3.1-1.6,4.2c-1.1,1.2-2.3,1.8-3.6,1.8c-1,0-1.9-0.3-2.8-0.9c-0.9-0.6-1.6-1.4-2-2.5
				l-9.9-27.4h-0.3v30.1h-7V6.4c0-1.6,0.5-3,1.4-4.3c0.9-1.4,2.1-2,3.4-2c0.9,0,1.8,0.3,2.7,1.1c0.9,0.7,1.6,1.6,2,2.7L268.8,31h0.5
				V0.6h7.1V39.1z"/>
			<path style="&st0;" d="M303.3,11.5c-1.3-1.1-2.7-1.9-4-2.5c-1.4-0.6-2.8-0.8-4.3-0.8c-1.4,0-2.7,0.4-3.9,1.3
				c-1.1,0.9-1.7,2-1.7,3.6c0,2.2,1.7,3.9,5.2,5.3c3.4,1.2,6,2.6,7.6,4c1.7,1.3,2.5,4.4,2.5,9.4c0,4.3-1.2,7.6-3.6,9.8
				c-2.5,2.2-5.5,3.3-9,3.3c-1.7,0-3.4-0.2-5-0.7c-1.6-0.3-3.3-0.9-5-1.7v-9.4c1.5,0.7,3.1,1.4,5,2c1.8,0.7,3.4,1,4.9,1
				c1.9,0,3.4-0.5,4.2-1.4c0.9-1,1.3-2,1.3-3.4c0-1.8-1.7-3.4-5.2-4.8c-3.4-1.4-6.1-2.9-8-4.4c-1.9-1.5-2.8-4.6-2.8-9.1
				c0-3.8,1.2-6.8,3.6-9.3c2.4-2.5,5.5-3.8,9.1-3.8c1.8,0,3.4,0.1,4.8,0.4c1.4,0.3,2.9,0.9,4.3,1.6V11.5z"/>
			<path style="&st0;" d="M337.2,44.5h-8V26.2h-11.6v18.3h-8V0.6h8v16.6h11.6V0.6h8V44.5z"/>
			<path style="&st0;" d="M351.8,44.6h-8V0.8h8V44.6z"/>
			<path style="&st0;" d="M385.4,39.1c0,1.6-0.5,3.1-1.6,4.2c-1.1,1.2-2.3,1.8-3.6,1.8c-1,0-1.9-0.3-2.8-0.9c-0.9-0.6-1.6-1.4-2-2.5
				l-9.9-27.4h-0.3v30.1h-7V6.4c0-1.6,0.5-3,1.4-4.3c0.9-1.4,2.1-2,3.4-2c0.9,0,1.8,0.3,2.8,1.1c0.9,0.7,1.6,1.6,2,2.7L377.9,31h0.5
				V0.6h7V39.1z"/>
			<path style="&st0;" d="M409.7,44.5h-13.2c-1.7,0-3.1-0.7-4.2-2.1c-1.1-1.5-1.6-3.1-1.6-4.9V8.1c0-2.2,0.5-4,1.4-5.4
				c0.9-1.4,2-2.1,3.5-2.1h14.1v8.6h-11.2V17h10.6v8.5h-10.6v10.1h11.2V44.5z"/>
		</g>
		<g>
			<g>
				<path style="&st0;" d="M25.1,9.1c-5,0-9,1.1-11.9,3.4c-2.9,2.3-4.3,5.6-4.3,9.8c0,4.7,1.5,8.1,4.5,10.3
					c3.1,2.1,6.8,3.1,11.4,3.1v8.7c-0.5,0.1-0.9,0.1-1.5,0.1c-0.6,0.1-1.1,0.1-1.7,0.1c-5.5,0-10.4-2-14.9-6c-4.5-4-6.7-9.3-6.7-16
					c0-6.7,2.2-12.1,6.5-16.1c4.3-4,9.4-6,15.2-6c0.8,0,1.5,0,1.9,0c0.5,0,1,0,1.5,0V9.1z"/>
				<path style="&st0;" d="M39.7,44.6H31V0.8h8.7V44.6z"/>
				<path style="&st0;" d="M75.9,39c0,1.7-0.6,3.1-1.8,4.3C73,44.5,71.7,45,70.3,45c-1,0-2-0.3-3-0.8c-1-0.6-1.7-1.4-2.1-2.6
					L54.2,14.2l-0.5,0.1v30.1h-7.5V6.4c0-1.6,0.5-3,1.5-4.3c1-1.3,2.3-2,3.7-2c1,0,2,0.4,3,1c1,0.7,1.8,1.6,2.2,2.6l11,27.3h0.5V0.7
					h7.7V39z"/>
				<path style="&st0;" d="M102.9,44.5H88.7c-1.9,0-3.4-0.7-4.6-2.2c-1.2-1.5-1.8-3.1-1.8-5V8.1c0-2.2,0.5-4,1.5-5.4
					c1-1.5,2.2-2.2,3.9-2.2h15.2v8.7H90.7v7.9h11.6v8.6H90.7v10h12.2V44.5z"/>
				<path style="&st0;" d="M142.7,44.5h-6.5l0-31.1l-5.7,26.5c-0.3,1.5-0.8,2.7-1.5,3.6c-0.6,0.9-1.5,1.3-2.8,1.3
					c-1.3,0-2.3-0.5-2.9-1.3c-0.6-0.9-1.2-2.2-1.5-3.8l-6.4-25.8l0,30.7h-6.6V6.4c0-1.8,0.5-3.3,1.6-4.4c1-1.1,2.2-1.6,3.7-1.6
					c1.4,0,2.4,0.4,3.3,1.2c0.9,0.8,1.5,2,1.9,3.5l6.8,28.3l6.2-29.7c0.2-1,0.8-1.8,1.7-2.5c0.9-0.6,1.9-1,2.9-1
					c1,0,2.2,0.5,3.6,1.6c1.4,1.1,2.1,2.7,2.1,4.8V44.5z"/>
				<path style="&st0;" d="M158.6,29.1l3.9-19.1l3.5,19.1H158.6z M168.7,6c-0.5-1.7-1.3-3.1-2.5-4.3C165,0.6,163.7,0,162.1,0
					c-1.4,0-2.6,0.5-3.6,1.6c-1,1.1-1.7,2.4-2.2,3.8l-10.9,39h8.7l2.3-8.4h11.8l2.2,8.4h8.7L168.7,6z"/>
			</g>
		</g>
	</g>
</g>
</svg>
