<?xml version="1.0" encoding="utf-8"?>
<!-- Generator: Adobe Illustrator 24.0.1, SVG Export Plug-In . SVG Version: 6.00 Build 0)  -->
<svg version="1.1" id="レイヤー_1" xmlns="http://www.w3.org/2000/svg" xmlns:xlink="http://www.w3.org/1999/xlink" x="0px"
	 y="0px" width="316.3px" height="130.2px" viewBox="0 0 316.3 130.2" style="enable-background:new 0 0 316.3 130.2;"
	 xml:space="preserve">
<style type="text/css">
	.st0{fill:#2D2A26;}
</style>
<g>
	<path class="st0" d="M315.9,127.5l-62-53c-0.4-0.3-0.9-0.5-1.4-0.5h-24.5l68.9-70.9c0.3-0.3,0.1-0.9-0.4-0.9h-36.3
		c-0.6,0-1.1,0.2-1.5,0.6L217.2,42l-25.5-22.8c-0.4-0.4-0.9-0.5-1.5-0.5h-35.7c-0.5,0-0.7,0.6-0.4,1l29.6,28.7
		c0.4,0.4,0.9,0.6,1.5,0.6h23.1l-62.7,58.9c-0.4,0.3-0.1,0.9,0.4,0.9h47.7c0.6,0,1.2-0.2,1.6-0.7L218,84.6l42.6,43.2
		c0.4,0.4,1,0.6,1.5,0.6h53.4C316,128.5,316.3,127.9,315.9,127.5"/>
	<path class="st0" d="M55,106.3L55,91H1c-0.5,0-0.9-0.4-0.9-0.9V74.9c0-1.4,0.7-2.7,1.8-3.4l61.9-45.2c3.1-2.3,7.5-0.1,7.5,3.8v76.2
		H55z M53.9,51.5c-0.3,0-0.5,0.1-0.7,0.2L22.1,74.1c-0.5,0.3-0.7,0.9-0.5,1.5c0.2,0.6,0.7,0.9,1.3,0.9h32.4V52.8
		C55.3,52.1,54.7,51.5,53.9,51.5"/>
	<path class="st0" d="M148.9,39.3c-6.2-7.3-14.8-11.9-27.6-11.9H89.4c-2.6,0-4.7,2.1-4.7,4.7v56.1c0,2.6,2.1,4.7,4.7,4.7h31.9
		c9.9,0,18.7-2.6,26.2-10.3c3.8-3.8,8.9-11.7,8.9-22.4C156.4,49.6,151.6,42.5,148.9,39.3 M136.8,72c-2,2.3-6.7,6.5-14.6,6.5h-19.7
		c-0.9,0-1.6-0.7-1.6-1.6v-33c0-0.9,0.7-1.6,1.6-1.6h19.7c8.2,0,12.9,4.1,14.8,6.5c2.7,3.3,4.2,7.2,4.2,11.5
		C141.2,64.6,139.5,68.8,136.8,72"/>
</g>
</svg>
