<?xml version="1.0" encoding="utf-8"?>
<!-- Generator: Adobe Illustrator 24.0.1, SVG Export Plug-In . SVG Version: 6.00 Build 0)  -->
<svg version="1.1" id="_x31_03_x2A_147" xmlns="http://www.w3.org/2000/svg" xmlns:xlink="http://www.w3.org/1999/xlink" x="0px"
	 y="0px" width="232px" height="36.9px" viewBox="0 0 232 36.9" style="enable-background:new 0 0 232 36.9;" xml:space="preserve">
<style type="text/css">
	.st0{fill:#FFFFFF;}
</style>
<g>
	<g>
		<g>
			<g>
				<g>
					<path class="st0" d="M8.6,14c-1.7,0-3.1,0.4-4.1,1.2C3.5,16,3,17.1,3,18.6c0,1.6,0.5,2.8,1.6,3.5c1,0.7,2.3,1.1,3.9,1.1v3
						c-0.1,0-0.3,0-0.5,0.1c-0.2,0-0.4,0-0.6,0c-1.9,0-3.6-0.7-5.1-2C0.8,22.7,0,20.9,0,18.6s0.7-4.2,2.2-5.5
						C3.7,11.7,5.4,11,7.4,11c0.3,0,0.5,0,0.7,0s0.3,0,0.5,0C8.6,11,8.6,14,8.6,14z"/>
					<path class="st0" d="M13.6,26.1h-3v-15h3V26.1z"/>
					<path class="st0" d="M26,24.2c0,0.6-0.2,1.1-0.6,1.5s-0.9,0.6-1.3,0.6c-0.3,0-0.7-0.1-1-0.3c-0.3-0.2-0.6-0.5-0.7-0.9l-3.7-9.4
						h-0.2V26h-2.6V13c0-0.6,0.2-1.1,0.5-1.5s0.8-0.7,1.3-0.7c0.3,0,0.7,0.1,1,0.4c0.3,0.2,0.6,0.5,0.8,0.9l3.8,9.3h0.2V11.1H26
						V24.2z"/>
					<path class="st0" d="M35.3,26.1h-4.9c-0.6,0-1.2-0.2-1.6-0.7s-0.6-1.1-0.6-1.7v-10c0-0.8,0.2-1.4,0.5-1.9S29.5,11,30,11h5.2v3
						H31v2.7h4v2.9h-4V23h4.2v3.1H35.3z"/>
					<path class="st0" d="M48.9,26.1h-2.2V15.4l-2,9.1c-0.1,0.5-0.3,0.9-0.5,1.2c-0.2,0.3-0.5,0.5-0.9,0.5s-0.8-0.2-1-0.5
						s-0.4-0.7-0.5-1.3l-2.2-8.8v10.5h-2.3v-13c0-0.6,0.2-1.1,0.5-1.5c0.4-0.4,0.8-0.6,1.3-0.6s0.8,0.1,1.1,0.4
						c0.3,0.3,0.5,0.7,0.6,1.2l2.3,9.7l2.1-10.2c0.1-0.3,0.3-0.6,0.6-0.9c0.3-0.2,0.7-0.4,1-0.4c0.4,0,0.8,0.2,1.3,0.6
						c0.5,0.4,0.7,0.9,0.7,1.7v13H48.9z"/>
					<path class="st0" d="M54.3,20.8l1.3-6.5l1.2,6.5H54.3z M57.8,12.9c-0.2-0.6-0.5-1.1-0.9-1.5s-0.9-0.6-1.4-0.6s-0.9,0.2-1.2,0.6
						c-0.3,0.4-0.6,0.8-0.7,1.3l-3.7,13.4h3l0.8-2.9h4l0.7,2.9h3L57.8,12.9z"/>
				</g>
				<g>
					<path class="st0" d="M76,14.8c-0.5-0.4-0.9-0.6-1.4-0.8s-1-0.3-1.5-0.3s-0.9,0.1-1.3,0.5c-0.4,0.3-0.6,0.7-0.6,1.2
						c0,0.8,0.6,1.4,1.8,1.8c1.2,0.5,2.1,0.9,2.6,1.4c0.6,0.5,0.9,1.5,0.9,3.2c0,1.5-0.4,2.6-1.3,3.3c-0.8,0.7-1.9,1.1-3.1,1.1
						c-0.6,0-1.1-0.1-1.7-0.2s-1.1-0.3-1.7-0.6v-3.2c0.5,0.2,1.1,0.5,1.7,0.7s1.2,0.3,1.7,0.3c0.7,0,1.2-0.2,1.5-0.5
						s0.5-0.7,0.5-1.2c0-0.6-0.6-1.2-1.8-1.6c-1.2-0.5-2.1-1-2.7-1.5s-1-1.6-1-3.1c0-1.3,0.4-2.3,1.2-3.2c0.8-0.9,1.9-1.3,3.1-1.3
						c0.6,0,1.2,0,1.7,0.1s1,0.3,1.5,0.6L76,14.8L76,14.8z"/>
					<path class="st0" d="M87.4,21.1c0,1.3-0.5,2.5-1.4,3.6s-2.1,1.6-3.4,1.6c-1.1,0-2.2-0.5-3.1-1.4c-1-1-1.4-2.1-1.4-3.4V11h2.7
						v10.2c0,0.5,0.2,1,0.6,1.5c0.4,0.4,0.8,0.6,1.3,0.6c0.6,0,1-0.2,1.4-0.6s0.6-0.9,0.6-1.4V11h2.8L87.4,21.1L87.4,21.1z"/>
					<path class="st0" d="M98.9,24.2c0,0.6-0.2,1.1-0.6,1.5s-0.8,0.6-1.2,0.6c-0.3,0-0.7-0.1-1-0.3c-0.3-0.2-0.5-0.5-0.7-0.9
						L92,15.7h0V26h-2.4V13c0-0.6,0.2-1.1,0.5-1.5s0.7-0.7,1.2-0.7c0.3,0,0.6,0.1,0.9,0.4c0.3,0.2,0.6,0.5,0.7,0.9l3.5,9.3h0.2V11.1
						H99L98.9,24.2L98.9,24.2z"/>
					<path class="st0" d="M108.1,14.8c-0.5-0.4-0.9-0.6-1.4-0.8s-1-0.3-1.5-0.3s-0.9,0.1-1.3,0.5c-0.4,0.3-0.6,0.7-0.6,1.2
						c0,0.8,0.6,1.4,1.8,1.8c1.2,0.5,2.1,0.9,2.6,1.4c0.6,0.5,0.9,1.5,0.9,3.2c0,1.5-0.4,2.6-1.2,3.3c-0.8,0.7-1.9,1.1-3.1,1.1
						c-0.6,0-1.1-0.1-1.7-0.2s-1.1-0.3-1.7-0.6v-3.2c0.5,0.2,1.1,0.5,1.7,0.7s1.2,0.3,1.7,0.3c0.7,0,1.2-0.2,1.5-0.5
						s0.5-0.7,0.5-1.2c0-0.6-0.6-1.2-1.8-1.6c-1.2-0.5-2.1-1-2.7-1.5s-1-1.6-1-3.1c0-1.3,0.4-2.3,1.2-3.2c0.8-0.9,1.9-1.3,3.1-1.3
						c0.6,0,1.2,0,1.7,0.1s1,0.3,1.5,0.6v3.3H108.1z"/>
					<path class="st0" d="M119.7,26.1H117v-6.3h-4v6.3h-2.7V11h2.7v5.7h4V11h2.7V26.1z"/>
					<path class="st0" d="M124.7,26.1H122v-15h2.7V26.1z"/>
					<path class="st0" d="M136.3,24.2c0,0.6-0.2,1.1-0.6,1.5c-0.4,0.4-0.8,0.6-1.2,0.6c-0.3,0-0.6-0.1-1-0.3
						c-0.3-0.2-0.5-0.5-0.7-0.9l-3.4-9.4h-0.1V26h-2.4V13c0-0.6,0.2-1.1,0.5-1.5s0.7-0.7,1.2-0.7c0.3,0,0.6,0.1,0.9,0.4
						c0.3,0.2,0.6,0.5,0.7,0.9l3.4,9.3h0.2V11.1h2.4v13.1H136.3z"/>
					<path class="st0" d="M144.6,26.1h-4.5c-0.6,0-1.1-0.2-1.5-0.7s-0.5-1.1-0.5-1.7v-10c0-0.8,0.2-1.4,0.4-1.9
						c0.3-0.5,0.7-0.8,1.2-0.8h4.8v3h-3.8v2.7h3.6v2.9h-3.6V23h3.8v3.1H144.6z"/>
				</g>
			</g>
		</g>
	</g>
</g>
<g>
	<path class="st0" d="M231.9,33l-14.3-12.3c-0.1-0.1-0.2-0.1-0.3-0.1h-5.7l15.9-16.4c0.1-0.1,0-0.2-0.1-0.2H219
		c-0.1,0-0.2,0-0.3,0.1l-9.6,9.1l-5.9-5.3c-0.1-0.1-0.2-0.1-0.3-0.1h-8.3c-0.1,0-0.2,0.1-0.1,0.2l6.8,6.6c0.1,0.1,0.2,0.1,0.4,0.1
		h5.3l-14.5,13.6c-0.1,0.1,0,0.2,0.1,0.2h11c0.1,0,0.3-0.1,0.4-0.2l5.3-5.4l9.9,10c0.1,0.1,0.2,0.1,0.4,0.1h12.3
		C231.9,33.2,231.9,33,231.9,33"/>
	<path class="st0" d="M171.5,28l0-3.5H159c-0.1,0-0.2-0.1-0.2-0.2v-3.5c0-0.3,0.2-0.6,0.4-0.8l14.3-10.5c0.7-0.5,1.7,0,1.7,0.9V28
		H171.5z M171.3,15.4c-0.1,0-0.1,0-0.2,0.1l-7.2,5.2c-0.1,0.1-0.2,0.2-0.1,0.3c0,0.1,0.2,0.2,0.3,0.2h7.5v-5.5
		C171.6,15.5,171.5,15.4,171.3,15.4"/>
	<path class="st0" d="M193.3,12.6c-1.4-1.7-3.4-2.8-6.4-2.8h-7.4c-0.6,0-1.1,0.5-1.1,1.1v13c0,0.6,0.5,1.1,1.1,1.1h7.4
		c2.3,0,4.3-0.6,6.1-2.4c0.9-0.9,2.1-2.7,2.1-5.2C195,14.9,193.9,13.3,193.3,12.6 M190.4,20.1c-0.5,0.5-1.5,1.5-3.4,1.5h-4.5
		c-0.2,0-0.4-0.2-0.4-0.4v-7.6c0-0.2,0.2-0.4,0.4-0.4h4.5c1.9,0,3,1,3.4,1.5c0.6,0.8,1,1.7,1,2.7C191.5,18.4,191.1,19.4,190.4,20.1"
		/>
</g>
</svg>
