<?xml version="1.0" encoding="utf-8"?>
<!-- Generator: Adobe Illustrator 24.0.1, SVG Export Plug-In . SVG Version: 6.00 Build 0)  -->
<svg version="1.1" id="レイヤー_1" xmlns="http://www.w3.org/2000/svg" xmlns:xlink="http://www.w3.org/1999/xlink" x="0px"
	 y="0px" width="3045px" height="254.6px" viewBox="0 0 3045 254.6" style="enable-background:new 0 0 3045 254.6;"
	 xml:space="preserve">
<style type="text/css">
	.st0{fill:#FFFFFF;}
</style>
<g>
	<g>
		<g>
			<g>
				<path class="st0" d="M771.8,86.9c-4.9-3.9-10-6.9-15.1-9.1c-5-2.1-10.4-3.1-15.6-3.1c-5.2,0-10,1.5-14.1,4.9
					c-4.3,3.2-6.4,7.5-6.4,13.4c0,7.9,6.4,14.4,19,19.4c12.8,4.6,22.1,9.7,28.1,14.6c6.1,5,9.2,16.4,9.2,34.5c0,15.9-4.5,28-13.4,36
					c-9,8-20.1,12.1-33.2,12.1c-6.2,0-12.3-0.9-18.4-2.4c-6-1.2-12.2-3.4-18.6-6.2v-34.6c5.5,2.7,11.6,5,18.4,7.5
					c6.6,2.5,12.7,3.8,17.8,3.8c7.3,0,12.6-1.7,15.7-5c3.3-3.5,4.9-7.5,4.9-12.5c0-6.5-6.4-12.5-19.1-17.7
					c-12.8-5.2-22.6-10.6-29.5-16.2c-6.8-5.7-10.3-16.9-10.3-33.7c0-13.8,4.4-25,13.2-34.4c8.9-9.4,20.1-13.9,33.7-13.9
					c6.7,0,12.6,0.4,17.7,1.4c5.3,1.1,10.5,3.2,15.8,5.9v35.3H771.8z"/>
				<path class="st0" d="M894.5,154.6c0,14.4-4.9,27.2-14.9,38.6c-10,11.2-22.1,17.1-36.5,17.1c-12.2,0-23.4-5.2-33.7-15.6
					c-10.4-10.6-15.5-22.4-15.5-36.2V46.6h28.6V156c0,6,2.1,11.2,6.3,15.4c4.3,4.6,9.1,7,14.6,7c6,0,11.2-2.5,15.3-7
					c3.9-4.5,6-9.7,6-15.2V46.6h29.9L894.5,154.6L894.5,154.6z"/>
				<path class="st0" d="M1018.3,188.3c0,5.9-2.1,11.5-5.9,15.5c-4,4.3-8.4,6.5-13.1,6.5c-3.7,0-7.1-1.2-10.5-3.3
					c-3.4-2.2-5.8-5.2-7.4-9.2L944.8,97h-1.1v111.1H918V67.8c0-5.7,1.7-11.1,5.1-15.9c3.3-5,7.6-7.3,12.7-7.3
					c3.3,0,6.6,1.2,10.1,3.9c3.5,2.6,6,5.9,7.4,9.8l37.1,100.5h1.8v-112h26.1V188.3z"/>
				<path class="st0" d="M1117.5,86.9c-4.9-3.9-9.8-6.9-14.9-9.1c-5.2-2.1-10.5-3.1-15.7-3.1c-5.3,0-10,1.5-14.3,4.9
					c-4.2,3.2-6.2,7.5-6.2,13.4c0,7.9,6.2,14.4,19,19.4c12.6,4.6,22.1,9.7,28.1,14.6c6.1,5,9.1,16.4,9.1,34.5c0,15.9-4.4,28-13.3,36
					c-9.1,8-20.1,12.1-33.3,12.1c-6.2,0-12.4-0.9-18.4-2.4c-6-1.2-12.2-3.4-18.5-6.2v-34.6c5.5,2.7,11.5,5,18.3,7.5
					c6.7,2.5,12.7,3.8,17.9,3.8c7.2,0,12.4-1.7,15.7-5c3.3-3.5,4.9-7.5,4.9-12.5c0-6.5-6.3-12.5-19.2-17.7
					c-12.7-5.2-22.4-10.6-29.3-16.2c-6.9-5.7-10.4-16.9-10.4-33.7c0-13.8,4.4-25,13.1-34.4c8.9-9.4,20.1-13.9,33.7-13.9
					c6.8,0,12.6,0.4,17.8,1.4c5.2,1.1,10.5,3.2,15.8,5.9v35.3H1117.5z"/>
				<path class="st0" d="M1242.3,208.2h-29.7v-67.4h-42.7v67.3h-29.5V46.6h29.5v61.2h42.7V46.6h29.7V208.2z"/>
				<path class="st0" d="M1296.2,208.8h-29.3V47.4h29.3V208.8z"/>
				<path class="st0" d="M1420,188.3c0,5.9-1.9,11.5-5.8,15.5c-4.1,4.3-8.4,6.5-13.2,6.5c-3.6,0-7.1-1.2-10.4-3.3
					c-3.4-2.2-5.9-5.2-7.4-9.2L1346.8,97h-1.1v111.1h-25.8V67.8c0-5.7,1.7-11.1,5.2-15.9c3.3-5,7.7-7.3,12.7-7.3
					c3.3,0,6.6,1.2,10.2,3.9c3.3,2.6,5.9,5.9,7.3,9.8l37.2,100.5h1.7v-112h26v141.5H1420z"/>
				<path class="st0" d="M1509.7,208.2h-48.5c-6.3,0-11.4-2.6-15.4-7.9c-4-5.5-6-11.6-6-18.2V74.4c0-7.9,1.8-14.7,5.1-20
					c3.2-5.2,7.5-7.8,12.8-7.8h52v31.7h-41.1v28.8h39v31.5h-39v37.1h41.1V208.2z"/>
			</g>
			<g>
				<g>
					<path class="st0" d="M92.4,77.9c-18.5,0-33,4.2-43.8,12.4c-10.6,8.6-15.9,20.6-15.9,36.2c0,17.4,5.5,30,16.7,37.9
						c11.2,7.8,25.2,11.6,42,11.6v32.1c-1.7,0.3-3.4,0.3-5.7,0.5c-2.2,0.2-4.2,0.2-6.1,0.2c-20.1,0-38.4-7.4-54.9-22
						C8.3,172.2,0,152.5,0,127.9c0-24.8,8-44.7,23.9-59.4c15.9-14.8,34.6-22.2,56-22.2c2.9,0,5.3,0,7.2,0c1.8,0,3.6,0,5.4,0
						L92.4,77.9L92.4,77.9z"/>
					<path class="st0" d="M146.2,208.9h-31.9V47.4h31.9V208.9z"/>
					<path class="st0" d="M279.8,188.1c0,6.3-2.2,11.4-6.5,15.8c-4.4,4.2-9.2,6.2-14.4,6.2c-3.7,0-7.4-0.9-11.2-3
						c-3.7-2.2-6.4-5.1-7.8-9.5l-40-100.8l-1.7,0.3v111h-27.6V67.9c0-6,1.9-11.2,5.5-15.9c3.8-4.9,8.4-7.3,13.8-7.3
						c3.7,0,7.3,1.3,11.1,3.8s6.5,5.8,8.2,9.7l40.4,100.6h2v-112h28.2L279.8,188.1L279.8,188.1z"/>
					<path class="st0" d="M379.3,208.2h-52.5c-7,0-12.6-2.6-16.9-8c-4.4-5.4-6.5-11.4-6.5-18.3V74.4c0-8,1.8-14.7,5.4-20
						c3.6-5.4,8.3-8,14.3-8h56.2v31.9h-45.1v29H377v31.5h-42.8v36.9h45.1L379.3,208.2L379.3,208.2z"/>
					<path class="st0" d="M525.9,208.2H502l-0.1-114.6l-21.1,97.7c-1.2,5.7-3.1,10-5.4,13.2c-2.3,3.3-5.7,4.7-10.2,4.7
						c-4.7,0-8.3-1.7-10.7-4.9c-2.4-3.2-4.3-8.2-5.7-14.2l-23.5-95.2l-0.1,113.3H401V67.9c0-6.7,1.9-12.2,5.7-16.1
						c3.8-3.9,8.3-5.8,13.6-5.8c5,0,9,1.4,12.1,4.3c3.2,2.9,5.4,7.2,7,12.9l25.2,104.2l22.9-109.6c0.8-3.6,2.9-6.6,6.4-9.4
						c3.3-2.3,7.1-3.8,10.9-3.8s8.3,1.9,13.4,6c5.2,3.9,7.8,9.9,7.8,17.9L525.9,208.2L525.9,208.2z"/>
					<path class="st0" d="M584.3,151.6l14.3-70.2l12.9,70.2H584.3z M621.6,66.3c-1.8-6.2-4.8-11.3-9.1-15.7
						c-4.4-4.1-9.4-6.3-15.2-6.3c-5.1,0-9.5,2-13.2,5.8c-3.7,4-6.4,8.7-8,14.2l-40.2,143.8h32.2l8.5-30.9h43.6l7.9,30.9h32.1
						L621.6,66.3z"/>
				</g>
			</g>
		</g>
	</g>
</g>
<g>
	<path class="st0" d="M1751.6,212.4l-0.1-30.9h-108.9c-1,0-1.8-0.8-1.8-1.8v-30.6c0-2.8,1.3-5.4,3.6-7L1769.2,51
		c6.3-4.6,15.2-0.1,15.2,7.7l0,153.8H1751.6z M1749.4,101.8c-0.5,0-1.1,0.2-1.5,0.5l-62.8,45.3c-1,0.7-1.4,1.8-1,3
		c0.4,1.1,1.4,1.9,2.5,1.9h65.4v-47.9C1752.1,103,1750.9,101.8,1749.4,101.8"/>
	<path class="st0" d="M2292.3,252.7l-125.1-106.9c-0.8-0.7-1.8-1-2.8-1h-49.5l139-142.9c0.7-0.7,0.2-1.8-0.8-1.8H2180
		c-1.1,0-2.2,0.4-3,1.2l-83.7,79l-51.5-45.9c-0.8-0.7-1.8-1.1-2.9-1.1h-72c-1,0-1.5,1.2-0.8,1.9l59.7,57.9c0.8,0.8,1.9,1.2,3.1,1.2
		h46.6L1949,213c-0.7,0.7-0.2,1.9,0.7,1.9h96.1c1.2,0,2.3-0.5,3.1-1.3l45.8-47.4l86,87.1c0.8,0.8,1.9,1.3,3.1,1.3h107.7
		C2292.6,254.6,2293.1,253.4,2292.3,252.7"/>
	<path class="st0" d="M3019.4,62.7L3019.4,62.7v83.5c0,2.2-1.3,3.8-3.6,3.8c-2.1,0-3.3-1.4-4.8-3.4l-48.8-73
		c-3.2-4.7-9.2-13.5-27.1-13.5c-14.3,0-24.1,7-24.1,23.6v90.9h25.6V91c0-2.3,1.4-3.8,3.6-3.8c2.2,0,3.3,1.4,4.8,3.4l49.1,74.2
		c3.3,4.9,10.2,12.4,26.7,12.4c10.9,0,24.1-4.1,24.1-23.6V62.7H3019.4z"/>
	<path class="st0" d="M2392.9,118.8c0-16.6,7.1-29,12.7-35.6c6.9-8,19.9-20.4,47.1-20.4h52.9v24.3h-52.3c-16.7,0-24.2,9.1-26.1,11.4
		c-2.2,2.6-7.4,10.1-7.4,20.3c0,10.3,5.2,17.9,7.8,20.7c3.8,4.1,11.2,11.4,25.8,11.4h52.3v23.7h-52.9c-18.4,0-32.8-5.4-44.6-17.5
		C2402,150.9,2392.9,137.6,2392.9,118.8"/>
	<path class="st0" d="M2377.8,87.2h-78.1c-3.6,0-6.7,0.5-9.1,3.1c-2,2.2-3,4.7-3,7.4c0,2.6,0.7,4.7,2.6,6.9c2,2.4,5.4,3.1,9.3,3.1
		h46.8c14.5,0,23.3,5.4,29,12.1c5.1,6.1,7.8,13.5,7.8,21.3c0,8.6-3.3,15.7-7.4,20.8c-4.8,5.9-12.8,12.6-29.7,12.6H2265V151h79.3
		c5.8,0,8.4-1.2,10.4-3.3c1.8-2,2.8-4.4,2.8-7.3c0-3.1-1.2-5.4-3.1-7.4c-1.9-2-4.4-3.1-10.1-3.1H2299c-16.9,0-24.2-5.1-28.7-9.9
		c-5.1-5.4-8.2-14.4-8.2-23.5c0-8.7,2.9-17,7.8-22.7c7.4-8.6,17-10.9,29.1-10.9h78.9V87.2z"/>
	<path class="st0" d="M2768.6,62.9v24.3H2685c-2.2,0-3.3,1.1-3.3,3.3V108h86.4v21.5h-86.4v18c0,2.3,1.1,3.5,3.3,3.5h83.6v23.7h-96.8
		c-10.5,0-15.7-5.2-15.7-15.5V77.9c0-10,5.3-15.1,15.9-15.1H2768.6z"/>
	<path class="st0" d="M2895.9,62.9v24.3h-83.6c-2.2,0-3.3,1.1-3.3,3.3V108h86.4v21.5h-86.4v18c0,2.3,1.1,3.5,3.3,3.5h83.6v23.7
		h-96.8c-10.5,0-15.7-5.2-15.7-15.5V77.9c0-10,5.3-15.1,15.9-15.1H2895.9z"/>
	<path class="st0" d="M2641,164.1v-21.8c0-6.6-1-11.7-3.1-15.3c-2.1-3.6-4.2-6.3-8.4-8.2c4.4-2.9,7.5-6.4,9.3-10.7
		c1.8-4.2,2.7-8.8,2.7-13.8c0-12.1-8-31.4-34.9-31.4h-69.1c-10.6,0-15.9,5-15.9,15.1v96.8h24.6v-42h55.7c5.3,0,9,1.1,11,3.2
		c2,2.2,3.1,5.3,3.1,9.5v21.2c0,2.4,0.2,5.1,0.5,8.1h25c-0.2-1.5-0.4-3.1-0.4-4.6C2641,168.5,2641,166.5,2641,164.1 M2608.7,109.2
		c-2,0.9-4.7,1.3-8.3,1.3h-53.3V89.2c0-1.6,1.3-2.8,2.8-2.8h50.5c3.2,0,5.7,0.3,7.4,0.9c5.4,1.9,7.8,6.5,7.8,11.2
		C2615.7,102.6,2613.5,107.1,2608.7,109.2"/>
	<path class="st0" d="M1941,77.3c-12.5-14.8-29.8-24.1-55.8-24.1h-64.4c-5.3,0-9.6,4.3-9.6,9.6v113.1c0,5.3,4.3,9.5,9.6,9.5h64.4
		c19.9,0,37.7-5.3,52.8-20.7c7.8-7.7,17.9-23.6,18-45.2C1956,98,1946.4,83.6,1941,77.3 M1916.6,143.2c-3.9,4.7-13.4,13.1-29.5,13.1
		h-39.7c-1.8,0-3.3-1.5-3.3-3.3V86.4c0-1.8,1.5-3.3,3.3-3.3h39.7c16.5,0,26,8.4,29.9,13.1c5.4,6.6,8.5,14.5,8.5,23.3
		C1925.5,128.3,1921.9,136.8,1916.6,143.2"/>
</g>
</svg>
