<?xml version="1.0" encoding="utf-8"?>
<!-- Generator: Adobe Illustrator 23.0.4, SVG Export Plug-In . SVG Version: 6.00 Build 0)  -->
<svg version="1.1" id="レイヤー_1" xmlns="http://www.w3.org/2000/svg" xmlns:xlink="http://www.w3.org/1999/xlink" x="0px"
	 y="0px" width="2206.5px" height="487.1px" viewBox="0 0 2206.5 487.1" style="enable-background:new 0 0 2206.5 487.1;"
	 xml:space="preserve">
<style type="text/css">
	.st0{fill:#FFFFFF;}
	.st1{fill:#FF4D00;}
</style>
<g>
	<g>
		<g>
			<g>
				<path class="st0" d="M771.8,203.1c-4.9-3.9-10-6.9-15.1-9.1c-5-2.1-10.4-3.1-15.6-3.1c-5.2,0-10,1.5-14.1,4.9
					c-4.3,3.2-6.4,7.5-6.4,13.4c0,7.9,6.4,14.4,19,19.4c12.8,4.6,22.1,9.7,28.1,14.6c6.1,5,9.2,16.4,9.2,34.5c0,15.9-4.5,28-13.4,36
					c-9,8-20.1,12.1-33.2,12.1c-6.2,0-12.3-0.9-18.4-2.4c-6-1.2-12.2-3.4-18.6-6.2v-34.6c5.5,2.7,11.6,5,18.4,7.5
					c6.6,2.5,12.7,3.8,17.8,3.8c7.3,0,12.6-1.7,15.7-5c3.3-3.5,4.9-7.5,4.9-12.5c0-6.5-6.4-12.5-19.1-17.7
					c-12.8-5.2-22.6-10.6-29.5-16.2c-6.8-5.7-10.3-16.9-10.3-33.7c0-13.8,4.4-25,13.2-34.4c8.9-9.4,20.1-13.9,33.7-13.9
					c6.7,0,12.6,0.4,17.7,1.4c5.3,1.1,10.5,3.2,15.8,5.9V203.1z"/>
				<path class="st0" d="M894.5,270.8c0,14.4-4.9,27.2-14.9,38.6c-10,11.2-22.1,17.1-36.5,17.1c-12.2,0-23.4-5.2-33.7-15.6
					c-10.4-10.6-15.5-22.4-15.5-36.2V162.8h28.6v109.4c0,6,2.1,11.2,6.3,15.4c4.3,4.6,9.1,7,14.6,7c6,0,11.2-2.5,15.3-7
					c3.9-4.5,6-9.7,6-15.2V162.8h29.9V270.8z"/>
				<path class="st0" d="M1018.3,304.5c0,5.9-2.1,11.5-5.9,15.5c-4,4.3-8.4,6.5-13.1,6.5c-3.7,0-7.1-1.2-10.5-3.3
					c-3.4-2.2-5.8-5.2-7.4-9.2l-36.6-100.8h-1.1v111.1H918V184c0-5.7,1.7-11.1,5.1-15.9c3.3-5,7.6-7.3,12.7-7.3
					c3.3,0,6.6,1.2,10.1,3.9c3.5,2.6,6,5.9,7.4,9.8L990.4,275h1.8v-112h26.1V304.5z"/>
				<path class="st0" d="M1117.5,203.1c-4.9-3.9-9.8-6.9-14.9-9.1c-5.2-2.1-10.5-3.1-15.7-3.1c-5.3,0-10,1.5-14.3,4.9
					c-4.2,3.2-6.2,7.5-6.2,13.4c0,7.9,6.2,14.4,19,19.4c12.6,4.6,22.1,9.7,28.1,14.6c6.1,5,9.1,16.4,9.1,34.5c0,15.9-4.4,28-13.3,36
					c-9.1,8-20.1,12.1-33.3,12.1c-6.2,0-12.4-0.9-18.4-2.4c-6-1.2-12.2-3.4-18.5-6.2v-34.6c5.5,2.7,11.5,5,18.3,7.5
					c6.7,2.5,12.7,3.8,17.9,3.8c7.2,0,12.4-1.7,15.7-5c3.3-3.5,4.9-7.5,4.9-12.5c0-6.5-6.3-12.5-19.2-17.7
					c-12.7-5.2-22.4-10.6-29.3-16.2c-6.9-5.7-10.4-16.9-10.4-33.7c0-13.8,4.4-25,13.1-34.4c8.9-9.4,20.1-13.9,33.7-13.9
					c6.8,0,12.6,0.4,17.8,1.4c5.2,1.1,10.5,3.2,15.8,5.9V203.1z"/>
				<path class="st0" d="M1242.3,324.4h-29.7V257h-42.7v67.3h-29.5V162.8h29.5V224h42.7v-61.2h29.7V324.4z"/>
				<path class="st0" d="M1296.2,325h-29.3V163.6h29.3V325z"/>
				<path class="st0" d="M1420,304.5c0,5.9-1.9,11.5-5.8,15.5c-4.1,4.3-8.4,6.5-13.2,6.5c-3.6,0-7.1-1.2-10.4-3.3
					c-3.4-2.2-5.9-5.2-7.4-9.2l-36.4-100.8h-1.1v111.1h-25.8V184c0-5.7,1.7-11.1,5.2-15.9c3.3-5,7.7-7.3,12.7-7.3
					c3.3,0,6.6,1.2,10.2,3.9c3.3,2.6,5.9,5.9,7.3,9.8l37.2,100.5h1.7v-112h26V304.5z"/>
				<path class="st0" d="M1509.7,324.4h-48.5c-6.3,0-11.4-2.6-15.4-7.9c-4-5.5-6-11.6-6-18.2V190.6c0-7.9,1.8-14.7,5.1-20
					c3.2-5.2,7.5-7.8,12.8-7.8h52v31.7h-41.1v28.8h39v31.5h-39v37.1h41.1V324.4z"/>
			</g>
			<g>
				<g>
					<path class="st0" d="M92.4,194.1c-18.5,0-33,4.2-43.8,12.4c-10.6,8.6-15.9,20.6-15.9,36.2c0,17.4,5.5,30,16.7,37.9
						c11.2,7.8,25.2,11.6,42,11.6v32.1c-1.7,0.3-3.4,0.3-5.7,0.5c-2.2,0.2-4.2,0.2-6.1,0.2c-20.1,0-38.4-7.4-54.9-22
						C8.3,288.4,0,268.7,0,244.1c0-24.8,8-44.7,23.9-59.4c15.9-14.8,34.6-22.2,56-22.2c2.9,0,5.3,0,7.2,0c1.8,0,3.6,0,5.4,0V194.1z"
						/>
					<path class="st0" d="M146.2,325.1h-31.9V163.6h31.9V325.1z"/>
					<path class="st0" d="M279.8,304.3c0,6.3-2.2,11.4-6.5,15.8c-4.4,4.2-9.2,6.2-14.4,6.2c-3.7,0-7.4-0.9-11.2-3
						c-3.7-2.2-6.4-5.1-7.8-9.5L199.9,213l-1.7,0.3v111h-27.6V184.1c0-6,1.9-11.2,5.5-15.9c3.8-4.9,8.4-7.3,13.8-7.3
						c3.7,0,7.3,1.3,11.1,3.8c3.8,2.5,6.5,5.8,8.2,9.7L249.6,275h2V163h28.2V304.3z"/>
					<path class="st0" d="M379.3,324.4h-52.5c-7,0-12.6-2.6-16.9-8c-4.4-5.4-6.5-11.4-6.5-18.3V190.6c0-8,1.8-14.7,5.4-20
						c3.6-5.4,8.3-8,14.3-8h56.2v31.9h-45.1v29H377V255h-42.8v36.9h45.1V324.4z"/>
					<path class="st0" d="M525.9,324.4H502l-0.1-114.6l-21.1,97.7c-1.2,5.7-3.1,10-5.4,13.2c-2.3,3.3-5.7,4.7-10.2,4.7
						c-4.7,0-8.3-1.7-10.7-4.9c-2.4-3.2-4.3-8.2-5.7-14.2l-23.5-95.2l-0.1,113.3H401V184.1c0-6.7,1.9-12.2,5.7-16.1
						c3.8-3.9,8.3-5.8,13.6-5.8c5,0,9,1.4,12.1,4.3c3.2,2.9,5.4,7.2,7,12.9l25.2,104.2L487.5,174c0.8-3.6,2.9-6.6,6.4-9.4
						c3.3-2.3,7.1-3.8,10.9-3.8c3.8,0,8.3,1.9,13.4,6c5.2,3.9,7.8,9.9,7.8,17.9V324.4z"/>
					<path class="st0" d="M584.3,267.8l14.3-70.2l12.9,70.2H584.3z M621.6,182.5c-1.8-6.2-4.8-11.3-9.1-15.7
						c-4.4-4.1-9.4-6.3-15.2-6.3c-5.1,0-9.5,2-13.2,5.8c-3.7,4-6.4,8.7-8,14.2l-40.2,143.8h32.2l8.5-30.9h43.6l7.9,30.9h32.1
						L621.6,182.5z"/>
				</g>
			</g>
		</g>
	</g>
	<g>
		<path class="st1" d="M2158.8,320.4l-0.8,0.3L2042,358v92l116.8,37.1l47.8-30.5V352.9L2158.8,320.4z M2156.7,360.1l-76.7,12.8
			l-31.2-13.3l107.9-34.7V360.1z M2160.3,325.8l39.8,27.1l-39.8,6.6V325.8z M2081.6,376.2l75.1-12.5v81.7l-75.1-13.8V376.2z
			 M2078.2,375.9v55.8l-32.6,13.9V362L2078.2,375.9z M2080,434.8l76.7,14.1v33.8l-108.3-34.4L2080,434.8z M2160.3,449.6l39.3,7.2
			l-39.3,25V449.6z M2160.3,446v-82.9l42.7-7.1v97.9L2160.3,446z"/>
		<path class="st0" d="M1711.7,383.7v-11h-48.9c-5.5,0-9.8,4.3-9.8,9.8v18.2c0,5.4,4.4,9.8,9.8,9.8h32l0,15.9h-41.7v11h49.5
			c5.4,0,9.2-4.4,9.2-9.8v-18.2c0-5.1-4.6-9.8-9.8-9.8H1670v-15.9H1711.7z"/>
		<path class="st0" d="M1772.8,383.7v-11h-44.7c-5.4,0-9.9,4.4-9.9,9.8v45.1c0,5.3,4.7,9.8,9.9,9.8h44.7v-11h-37.7v-42.7H1772.8z"/>
		<path class="st0" d="M1822.9,415.4h3.8c4.9,0,10.5-5,10.5-10.3v-21.8c0-5.5-5.5-10.5-10.5-10.5h-47.5v64.6h17v-53.7h24.2v20.8h-20
			v2.2l20.7,30.6h17L1822.9,415.4z"/>
		<path class="st0" d="M1898.6,383.7v-11h-45.1c-5.4,0-9.8,4.4-9.8,9.8v45.1c0,5.4,4.4,9.8,9.8,9.8h45.1v-10.9h-37.9v-15.9h28.5v-11
			h-28.5v-15.9H1898.6z"/>
		<path class="st0" d="M1959.5,383.7v-11h-45.1c-5.4,0-9.8,4.4-9.8,9.8v45.1c0,5.4,4.4,9.8,9.8,9.8h45.1v-10.9h-37.9v-15.9h28.5v-11
			h-28.5v-15.9H1959.5z"/>
		<path class="st0" d="M2028.4,372.8h-17v49.1l-23.1-43.8c-1.5-3-5-5.4-8.3-5.4H1966v64.6h17v-49.1l22.9,43.4
			c1.9,3.4,5.3,5.7,9.1,5.7h13.5V372.8z"/>
		<polygon class="st0" points="2152.4,334.5 2114.9,345.6 2089.8,386 2070.3,358.7 2052.9,363.9 2078.3,404.4 2053,445 
			2070.5,450.1 2089.8,422.8 2115.1,463.2 2152.6,474.1 2102.9,404.4 		"/>
		<path class="st0" d="M1767.3,142.2V55.7h-49.9l-74.4,86.5h19l-9,10.3v31.2h95v27.6h35.9v-69.1H1767.3z M1748.1,152.6h-56.3
			l9.2-10.4h-16.6l47.1-54.1v54.1h16.7V152.6z"/>
		<path class="st0" d="M1948.6,118.6h-19.5c-0.6-34.9-29.9-63-66.1-63h-60v63h19.5v65h59.9c36.5,0,66.1-28.5,66.1-63.9
			C1948.6,119.3,1948.6,119,1948.6,118.6 M1885.4,152.7h-25.5v-34.1h-19.5V86.4h25.5c14.2,0,25.7,14.4,26,32.3h19.5
			c0,0.3,0,0.6,0,0.9C1911.4,137.8,1899.8,152.7,1885.4,152.7"/>
		<polygon class="st0" points="1973,147.2 1964.7,155.8 2112.8,155.8 2104.4,147.2 		"/>
		<polygon class="st0" points="2013.1,118.6 1990.6,142.1 2117.1,142.1 2094.5,118.6 		"/>
		<polygon class="st0" points="2009.3,98.2 2023.9,113.4 2116.2,113.4 2130.8,98.2 		"/>
		<polygon class="st0" points="1970.1,93.1 2035.4,93.1 1999.6,55.8 1934.3,55.8 		"/>
		<polygon class="st0" points="2037.1,93.1 2096.8,93.1 2132.6,55.8 2072.9,55.8 		"/>
		<polygon class="st0" points="1958.9,50.7 2024.2,50.7 1999.8,25.5 1934.5,25.5 		"/>
		<polygon class="st0" points="2141.3,0 2092.9,50.7 2158.2,50.7 2206.5,0 		"/>
		<polygon class="st0" points="2137.8,161 2072.5,161 2094.2,183.6 2159.5,183.6 		"/>
		<polygon class="st0" points="1905.9,240.4 1974.2,240.4 2024.6,187.8 1956.1,187.8 		"/>
		<polygon class="st0" points="2066.8,161 1997.8,161 1976,183.6 2044.9,183.6 		"/>
		<polygon class="st0" points="2102.9,211.3 2168.1,211.3 2145.7,187.8 2080.4,187.8 		"/>
		<polygon class="st0" points="1910.4,300.4 1906,300.4 1902.6,286.8 1902.6,286.8 1899.3,300.4 1894.8,300.4 1889.5,280.4 
			1893.9,280.4 1897.1,294 1897.1,294 1900.6,280.4 1904.7,280.4 1908.1,294.2 1908.2,294.2 1911.4,280.4 1915.8,280.4 		"/>
		<rect x="1917.8" y="280.4" class="st0" width="4.4" height="20"/>
		<polygon class="st0" points="1930.5,284.1 1924.5,284.1 1924.5,280.4 1940.8,280.4 1940.8,284.1 1934.8,284.1 1934.8,300.4 
			1930.5,300.4 		"/>
		<polygon class="st0" points="1943.1,280.4 1947.5,280.4 1947.5,288.1 1955.6,288.1 1955.6,280.4 1960,280.4 1960,300.4 
			1955.6,300.4 1955.6,291.8 1947.5,291.8 1947.5,300.4 1943.1,300.4 		"/>
		<rect x="1643" y="288.9" class="st0" width="220.1" height="2.9"/>
		<rect x="1986.4" y="288.9" class="st0" width="220.1" height="2.9"/>
	</g>
</g>
</svg>
