<?xml version="1.0" encoding="utf-8"?>
<!-- Generator: Adobe Illustrator 22.1.0, SVG Export Plug-In . SVG Version: 6.00 Build 0)  -->
<!DOCTYPE svg PUBLIC "-//W3C//DTD SVG 1.1//EN" "http://www.w3.org/Graphics/SVG/1.1/DTD/svg11.dtd" [
	<!ENTITY st0 "fill:#FFFFFF;">
]>
<svg version="1.1" id="app_x5F_login" xmlns="http://www.w3.org/2000/svg" xmlns:xlink="http://www.w3.org/1999/xlink" x="0px"
	 y="0px" viewBox="0 0 239.3 371.9" style="enable-background:new 0 0 239.3 371.9;" xml:space="preserve">
<path style="&st0;" d="M228.4,371.9H10.9C4.9,371.9,0,367,0,361V10.9C0,4.9,4.9,0,10.9,0h217.5c6,0,10.9,4.9,10.9,10.9V361
	C239.3,367,234.4,371.9,228.4,371.9z M10.9,2C6,2,2,6,2,10.9V361c0,4.9,4,8.9,8.9,8.9h217.5c4.9,0,8.9-4,8.9-8.9V10.9
	c0-4.9-4-8.9-8.9-8.9H10.9z"/>
<path style="&st0;" d="M213,212.1H26.3V57.6H213V212.1z M28.3,210.1H211V59.6H28.3V210.1z"/>
<g>
	<g>
		<path style="&st0;" d="M34.1,45c-0.1-0.6-0.4-1.6-0.9-2.7l-2.8-6.8c-0.4-0.9-0.6-1.4-1-3c0.1,1,0.2,2.7,0.2,3.1v6.5
			c0,1.4,0,2.1,0.2,2.9h-2.8c0.1-0.8,0.2-1.6,0.2-2.9v-9.9c0-1.3,0-2.1-0.2-2.9h3.6c0.1,0.7,0.4,1.5,0.7,2.4l4,9.8l4-9.8
			c0.4-1,0.6-1.6,0.7-2.4h3.6c-0.1,0.9-0.2,1.6-0.2,2.9v9.9c0,1.4,0,2.2,0.2,2.9h-2.8c0.1-0.8,0.2-1.5,0.2-2.9v-6.6
			c0.1-1.7,0.1-2.7,0.2-3c-0.3,1.1-0.6,2.2-0.9,2.9l-3,7c-0.4,0.9-0.8,2-0.9,2.6H34.1z"/>
		<path style="&st0;" d="M56.9,45.1C56.2,45,55.5,45,54.3,45h-6.2c-1.2,0-1.7,0-2.5,0.1c0.1-0.8,0.2-1.4,0.2-2.6V31.7
			c0-1,0-1.6-0.2-2.5c0.8,0,1.3,0.1,2.5,0.1h6c1,0,1.6,0,2.5-0.1v2.6c-0.8-0.1-1.4-0.1-2.5-0.1h-5.7v4.1h4.8c1,0,1.7,0,2.6-0.1v2.6
			C55,38,54.5,38,53.3,38h-4.8v4.7h5.9c1.1,0,1.7,0,2.5-0.1V45.1z"/>
		<path style="&st0;" d="M65.6,45c-0.1-0.6-0.4-1.6-0.9-2.7l-2.8-6.8c-0.4-0.9-0.6-1.4-1-3c0.1,1,0.2,2.7,0.2,3.1v6.5
			c0,1.4,0,2.1,0.2,2.9h-2.8c0.1-0.8,0.2-1.6,0.2-2.9v-9.9c0-1.3,0-2.1-0.2-2.9H62c0.1,0.7,0.4,1.5,0.7,2.4l4,9.8l4-9.8
			c0.4-1,0.6-1.6,0.7-2.4h3.6C75,30.2,75,30.9,75,32.2v9.9c0,1.4,0,2.2,0.2,2.9h-2.8c0.1-0.8,0.2-1.5,0.2-2.9v-6.6
			c0.1-1.7,0.1-2.7,0.2-3c-0.3,1.1-0.6,2.2-0.9,2.9l-3,7c-0.4,0.9-0.8,2-0.9,2.6H65.6z"/>
		<path style="&st0;" d="M79.7,45c-1.1,0-1.7,0-2.5,0.1c0.1-0.8,0.2-1.4,0.2-2.7V31.6c0-0.9-0.1-1.6-0.2-2.4c0.8,0,1.1,0,2.5,0h4.7
			c3.1,0,4.8,1.4,4.8,3.9c0,1.2-0.4,2.1-1.1,2.8c-0.4,0.4-0.8,0.6-1.6,0.8c1,0.2,1.5,0.4,2,0.9c0.8,0.8,1.2,1.7,1.2,3
			c0,2.8-1.8,4.3-5.1,4.3H79.7z M84,35.7c1.5,0,2.4-0.8,2.4-2.2c0-0.6-0.2-1.2-0.5-1.5c-0.4-0.4-1.1-0.6-1.9-0.6h-4.1v4.2H84z
			 M79.9,42.7h4.2c1.8,0,2.7-0.9,2.7-2.5c0-0.8-0.2-1.3-0.6-1.7c-0.5-0.4-1.2-0.7-2.2-0.7h-4.2V42.7z"/>
		<path style="&st0;" d="M102.5,45.1c-0.7-0.1-1.3-0.1-2.6-0.1h-6.2c-1.2,0-1.7,0-2.5,0.1c0.1-0.8,0.2-1.4,0.2-2.6V31.7
			c0-1,0-1.6-0.2-2.5c0.8,0,1.3,0.1,2.5,0.1h6c1,0,1.6,0,2.5-0.1v2.6c-0.8-0.1-1.4-0.1-2.5-0.1H94v4.1h4.8c1,0,1.7,0,2.6-0.1v2.6
			c-0.8-0.1-1.3-0.1-2.6-0.1H94v4.7h5.9c1.1,0,1.7,0,2.5-0.1V45.1z"/>
		<path style="&st0;" d="M114.1,45c0-0.5-0.4-1.5-1-3.2c-1.1-2.7-1.8-3.5-3.3-3.5h-2.9v4c0,1.2,0,1.8,0.2,2.6H104
			c0.1-0.8,0.2-1.4,0.2-2.6V31.8c0-1,0-1.6-0.2-2.6c0.8,0,1.4,0.1,2.5,0.1h4.7c3,0,4.7,1.5,4.7,4.1c0,1.3-0.3,2.3-1,2.9
			c-0.6,0.6-1.1,0.8-2.2,1.1c1.2,0.4,1.6,0.9,3.6,5.6c0.2,0.4,0.7,1.4,0.9,2H114.1z M110.8,36.1c0.7,0,1.4-0.3,1.9-0.7
			c0.4-0.4,0.6-1,0.6-1.7c0-1.4-0.8-2.2-2.4-2.2h-4.1v4.6H110.8z"/>
		<path style="&st0;" d="M121.2,32.1c0,1.7-0.4,2.3-2,3l-0.7-1c1.2-0.3,1.5-0.7,1.5-1.9h-1.7v-2.9h2.9V32.1z"/>
		<path style="&st0;" d="M135.3,40.1c0.1,0.9,0.2,1.3,0.6,1.7c0.6,0.8,1.6,1.2,2.9,1.2c2,0,3.2-0.9,3.2-2.4c0-0.8-0.4-1.5-1-1.8
			c-0.6-0.3-0.7-0.3-3.4-1c-1.5-0.3-2.3-0.7-3-1.2c-1-0.8-1.5-1.9-1.5-3.2c0-2.7,2.2-4.5,5.6-4.5c2.3,0,4,0.7,4.9,2
			c0.5,0.7,0.7,1.2,1,2.3l-2.8,0.3c-0.1-0.7-0.3-1-0.6-1.4c-0.5-0.6-1.4-0.9-2.5-0.9c-1.7,0-2.9,0.9-2.9,2.2c0,0.8,0.4,1.4,1.3,1.8
			c0.4,0.2,0.6,0.2,2.8,0.7c1.6,0.3,2.5,0.7,3.2,1.2c1.1,0.8,1.6,1.9,1.6,3.4c0,1.4-0.4,2.5-1.2,3.4c-1,1-2.6,1.5-4.7,1.5
			c-1.6,0-3.2-0.4-4.1-1c-0.8-0.5-1.4-1.3-1.7-2.3c-0.2-0.5-0.3-0.8-0.4-1.6L135.3,40.1z"/>
		<path style="&st0;" d="M165.5,40.2c-0.4,1.4-0.7,2.2-1.3,3c-1.1,1.4-3,2.2-5.4,2.2c-2.2,0-3.9-0.7-5.1-1.9
			c-1.4-1.4-2.2-3.7-2.2-6.2c0-2.6,0.8-4.9,2.3-6.4c1.2-1.2,3-1.9,4.9-1.9c1.5,0,2.7,0.3,3.8,0.9c0.9,0.6,1.6,1.3,2.1,2.2
			c0.2,0.4,0.4,0.8,0.6,1.5l-2.7,0.6c-0.3-0.9-0.5-1.2-0.8-1.7c-0.7-0.8-1.7-1.2-2.9-1.2c-2.8,0-4.5,2.2-4.5,5.8
			c0,3.6,1.7,5.9,4.5,5.9c1.4,0,2.6-0.5,3.2-1.5c0.3-0.5,0.5-0.9,0.7-1.8L165.5,40.2z"/>
		<path style="&st0;" d="M178.1,45c-0.1-0.7-0.3-1.5-0.6-2.1l-0.8-2.2h-6.3l-0.8,2.2c-0.4,0.9-0.4,1.2-0.6,2.1h-3.2
			c0.3-0.5,0.7-1.4,1-2.3l4.3-11.4c0.4-1,0.5-1.5,0.6-2h3.4c0.1,0.5,0.2,0.8,0.7,2l4.4,11.4c0.5,1.3,0.7,1.8,1,2.3H178.1z
			 M173.9,32.6c-0.1-0.2-0.1-0.5-0.4-1.1c-0.3,0.9-0.3,0.9-0.4,1.1l-2.1,5.8h4.9L173.9,32.6z"/>
		<path style="&st0;" d="M192.2,45c0-0.5-0.4-1.5-1-3.2c-1.1-2.7-1.8-3.5-3.3-3.5h-2.9v4c0,1.2,0,1.8,0.2,2.6h-2.9
			c0.1-0.8,0.2-1.4,0.2-2.6V31.8c0-1,0-1.6-0.2-2.6c0.8,0,1.4,0.1,2.5,0.1h4.7c3,0,4.7,1.5,4.7,4.1c0,1.3-0.3,2.3-1,2.9
			c-0.6,0.6-1.1,0.8-2.2,1.1c1.2,0.4,1.6,0.9,3.6,5.6c0.2,0.4,0.7,1.4,0.9,2H192.2z M188.9,36.1c0.7,0,1.4-0.3,1.9-0.7
			c0.4-0.4,0.6-1,0.6-1.7c0-1.4-0.8-2.2-2.4-2.2h-4.1v4.6H188.9z"/>
		<path style="&st0;" d="M196.8,31.8c0-1.1,0-1.7-0.2-2.6c0.8,0,1.3,0.1,2.5,0.1h3.6c2.5,0,4.1,0.5,5.3,1.7c1.4,1.4,2.2,3.4,2.2,6
			c0,2.7-0.8,4.8-2.3,6.3c-1.3,1.2-2.8,1.7-5.2,1.7h-3.6c-1.2,0-1.7,0-2.5,0.1c0.1-0.8,0.2-1.4,0.2-2.6V31.8z M202.6,42.7
			c1.6,0,2.7-0.4,3.5-1.3c0.9-1,1.4-2.5,1.4-4.4c0-1.9-0.5-3.3-1.4-4.2c-0.8-0.8-1.8-1.2-3.6-1.2h-3.2v11.1H202.6z"/>
	</g>
</g>
<g>
	<g>
		<path style="&st0;" d="M97.4,275.2c-0.9,0.4-1.8,0.7-2.7,0.7c-1.8,0-3.3-0.8-4.3-2.4c-1.1-1.6-1.6-3.6-1.6-5.9
			c0-1.5,0.2-2.8,0.7-4.1c0.5-1.3,1.2-2.3,2.1-3.1s2.1-1.2,3.3-1.2c0.8,0,1.6,0.2,2.5,0.6v3.7c-0.6-0.6-1.3-0.9-2-0.9
			c-0.9,0-1.6,0.4-2.1,1.3c-0.5,0.9-0.8,2.2-0.8,3.8c0,1.4,0.3,2.6,0.8,3.4c0.5,0.9,1.2,1.3,2,1.3c0.6,0,1.3-0.3,2-0.9V275.2z"/>
		<path style="&st0;" d="M99.4,259.5h3.8v16.2h-3.8V259.5z"/>
		<path style="&st0;" d="M105.5,259.5h3.8l1.8,5.1c0.5,1.5,1,2.8,1.3,4h0.2l-0.1-2.7v-6.3h3.6v16.2h-3.8l-1.8-5.1
			c-0.5-1.5-1-2.8-1.3-4H109l0.1,2.7v6.3h-3.6V259.5z"/>
		<path style="&st0;" d="M118.4,259.5h9.2v3.3h-5.4v3h5.1v3.2h-5.1v3.5h5.4v3.3h-9.2V259.5z"/>
		<path style="&st0;" d="M129.5,259.5h4.1l2.3,6.2l2.3-6.2h4.1v16.2h-3.7v-6c0-1.5,0.1-3.1,0.2-4.7h-0.3c-0.2,0.8-0.5,1.9-1,3.2
			l-1.7,4.7l-1.6-4.7c-0.5-1.4-0.8-2.4-1-3.2H133c0.1,1.5,0.2,3,0.2,4.7v6h-3.7V259.5z"/>
		<path style="&st0;" d="M147.7,259.5h3.7l4.3,16.2h-4.1l-0.6-3.2H148l-0.6,3.2h-3.9L147.7,259.5z M149.5,263.9l-1,5.6h2
			L149.5,263.9z"/>
		<path style="&st0;" d="M77.7,290.6c1.2,1.2,2.4,1.7,3.5,1.7c0.6,0,1-0.2,1.4-0.5c0.4-0.4,0.6-0.8,0.6-1.3c0-0.4-0.1-0.8-0.4-1.1
			c-0.3-0.3-0.8-0.7-1.6-1.1c-1.1-0.6-2-1.2-2.6-1.9c-0.6-0.7-0.9-1.6-0.9-2.6c0-1.3,0.5-2.5,1.4-3.4c0.9-0.9,2.2-1.4,3.7-1.4
			c1.1,0,2.2,0.3,3.3,0.9v3.9c-1-1-2-1.5-2.9-1.5c-0.5,0-0.9,0.1-1.2,0.4c-0.3,0.3-0.5,0.6-0.5,1c0,0.4,0.1,0.7,0.4,1
			c0.3,0.3,0.8,0.6,1.5,0.9c1.2,0.5,2.1,1.2,2.8,1.9c0.6,0.7,0.9,1.6,0.9,2.8c0,1.5-0.5,2.8-1.6,3.8c-1.1,1.1-2.4,1.6-3.9,1.6
			c-1.2,0-2.5-0.4-3.9-1.1V290.6z"/>
		<path style="&st0;" d="M88.8,279.2h3.8v10.7c0,0.8,0.1,1.5,0.4,1.9c0.2,0.4,0.6,0.6,1.1,0.6c0.5,0,0.9-0.2,1.1-0.6
			c0.2-0.4,0.4-1,0.4-1.8v-10.9h3.8v11.1c0,1.7-0.5,3-1.4,3.9c-0.9,0.9-2.2,1.4-3.9,1.4c-1.6,0-2.9-0.4-3.8-1.3
			c-0.9-0.9-1.4-2.2-1.4-4V279.2z"/>
		<path style="&st0;" d="M101.3,279.2h3.8l1.8,5.1c0.5,1.5,1,2.8,1.3,4h0.2l-0.1-2.7v-6.3h3.6v16.2h-3.8l-1.8-5.1
			c-0.5-1.5-1-2.8-1.3-4h-0.2l0.1,2.7v6.3h-3.6V279.2z"/>
		<path style="&st0;" d="M113.8,290.6c1.2,1.2,2.4,1.7,3.5,1.7c0.6,0,1-0.2,1.4-0.5c0.4-0.4,0.6-0.8,0.6-1.3c0-0.4-0.1-0.8-0.4-1.1
			c-0.3-0.3-0.8-0.7-1.6-1.1c-1.1-0.6-2-1.2-2.6-1.9c-0.6-0.7-0.9-1.6-0.9-2.6c0-1.3,0.5-2.5,1.4-3.4c0.9-0.9,2.2-1.4,3.7-1.4
			c1.1,0,2.2,0.3,3.3,0.9v3.9c-1-1-2-1.5-2.9-1.5c-0.5,0-0.9,0.1-1.2,0.4c-0.3,0.3-0.5,0.6-0.5,1c0,0.4,0.1,0.7,0.4,1
			c0.3,0.3,0.8,0.6,1.5,0.9c1.2,0.5,2.1,1.2,2.8,1.9c0.6,0.7,0.9,1.6,0.9,2.8c0,1.5-0.5,2.8-1.6,3.8c-1.1,1.1-2.4,1.6-3.9,1.6
			c-1.2,0-2.5-0.4-3.9-1.1V290.6z"/>
		<path style="&st0;" d="M125.1,279.2h3.7v6.2h3v-6.2h3.8v16.2h-3.8v-6.8h-3v6.8h-3.7V279.2z"/>
		<path style="&st0;" d="M138,279.2h3.8v16.2H138V279.2z"/>
		<path style="&st0;" d="M144,279.2h3.8l1.8,5.1c0.5,1.5,1,2.8,1.3,4h0.2l-0.1-2.7v-6.3h3.6v16.2h-3.8l-1.8-5.1
			c-0.5-1.5-1-2.8-1.3-4h-0.2l0.1,2.7v6.3H144V279.2z"/>
		<path style="&st0;" d="M157,279.2h9.2v3.3h-5.4v3h5.1v3.2h-5.1v3.5h5.4v3.3H157V279.2z"/>
	</g>
</g>
<rect x="221.4" y="19.9" style="&st0;" width="7.5" height="7.5"/>
<rect x="221.4" y="38" style="&st0;" width="7.5" height="7.5"/>
<rect x="221.4" y="56.2" style="&st0;" width="7.5" height="7.5"/>
<rect x="221.4" y="74.3" style="&st0;" width="7.5" height="7.5"/>
<rect x="221.4" y="92.4" style="&st0;" width="7.5" height="7.5"/>
<rect x="221.4" y="110.5" style="&st0;" width="7.5" height="7.5"/>
<rect x="221.4" y="128.7" style="&st0;" width="7.5" height="7.5"/>
<rect x="221.4" y="146.8" style="&st0;" width="7.5" height="7.5"/>
<rect x="221.4" y="164.9" style="&st0;" width="7.5" height="7.5"/>
<rect x="221.4" y="183" style="&st0;" width="7.5" height="7.5"/>
<rect x="221.4" y="201.2" style="&st0;" width="7.5" height="7.5"/>
<rect x="221.4" y="219.3" style="&st0;" width="7.5" height="7.5"/>
<rect x="221.4" y="237.4" style="&st0;" width="7.5" height="7.5"/>
<rect x="221.4" y="255.5" style="&st0;" width="7.5" height="7.5"/>
<rect x="221.4" y="273.7" style="&st0;" width="7.5" height="7.5"/>
<rect x="221.4" y="291.8" style="&st0;" width="7.5" height="7.5"/>
<rect x="221.4" y="309.9" style="&st0;" width="7.5" height="7.5"/>
<rect x="221.4" y="328" style="&st0;" width="7.5" height="7.5"/>
<rect x="221.4" y="346.2" style="&st0;" width="7.5" height="7.5"/>
<rect x="50.1" y="84.5" style="&st0;" width="36.8" height="2"/>
<rect x="50.1" y="108.1" style="&st0;" width="36.8" height="2"/>
<rect x="50.1" y="131.8" style="&st0;" width="36.8" height="2"/>
<rect x="50.1" y="155.4" style="&st0;" width="36.8" height="2"/>
<rect x="50.1" y="179" style="&st0;" width="36.8" height="2"/>
<rect x="137.4" y="84.5" style="&st0;" width="51.6" height="2"/>
<rect x="137.4" y="108.1" style="&st0;" width="51.6" height="2"/>
<rect x="137.4" y="131.8" style="&st0;" width="51.6" height="2"/>
<rect x="137.4" y="155.4" style="&st0;" width="51.6" height="2"/>
<rect x="137.4" y="179" style="&st0;" width="51.6" height="2"/>
<path style="&st0;" d="M180.2,311.9l-1.4-0.6c-10.6-4.5-31.9-7.2-55.6-7.2s-45.1,2.8-55.6,7.2l-1.4,0.6v-68.8l1.4,0.6
	c10.6,4.5,31.9,7.2,55.6,7.2s45.1-2.8,55.6-7.2l1.4-0.6V311.9z M123.1,302.1c23,0,43.8,2.6,55,6.8v-62.8c-11.2,4.2-32,6.8-55,6.8
	s-43.8-2.6-55-6.8v62.8C79.3,304.7,100.1,302.1,123.1,302.1z"/>
</svg>
