<?xml version="1.0" encoding="utf-8"?>
<!-- Generator: Adobe Illustrator 22.1.0, SVG Export Plug-In . SVG Version: 6.00 Build 0)  -->
<!DOCTYPE svg PUBLIC "-//W3C//DTD SVG 1.1//EN" "http://www.w3.org/Graphics/SVG/1.1/DTD/svg11.dtd" [
	<!ENTITY st0 "fill:#727272;">
]>
<svg version="1.1" id="編集モード" xmlns="http://www.w3.org/2000/svg" xmlns:xlink="http://www.w3.org/1999/xlink" x="0px"
	 y="0px" viewBox="0 0 670 247" style="enable-background:new 0 0 670 247;" xml:space="preserve">
<g>
	<rect x="416.6" y="206" style="&st0;" width="38.1" height="2"/>
	<polygon style="&st0;" points="670,247 668,247 668,208 612.4,208 612.4,206 670,206 	"/>
	<rect x="454.7" y="206" style="&st0;" width="157.7" height="2"/>
	<rect x="220.8" y="206" style="&st0;" width="38.1" height="2"/>
	<path style="&st0;" d="M341,244c-22.7,0-41.9-16.4-42.5-36H259v-2h41.5v1c0,19,18.6,35,40.5,35c22.5,0,41.4-16,41.4-35v-1h34.1v2
		h-32.1C383.8,227.6,364.2,244,341,244z"/>
	<rect x="63.2" y="206" style="&st0;" width="157.7" height="2"/>
	<polygon style="&st0;" points="2,247 0,247 0,206 63.2,206 63.2,208 2,208 	"/>
	<polygon style="&st0;" points="221.8,207 219.8,207 219.8,2 183.7,2 183.7,22.5 163.2,2 64.2,2 64.2,207 62.2,207 62.2,0 164,0 
		181.7,17.7 181.7,0 221.8,0 	"/>
	<rect x="75.5" y="72.6" style="&st0;" width="24.6" height="2"/>
	<rect x="111.6" y="72.6" style="&st0;" width="24.6" height="2"/>
	<rect x="147.8" y="72.6" style="&st0;" width="24.6" height="2"/>
	<rect x="183.9" y="72.6" style="&st0;" width="24.6" height="2"/>
	<polygon style="&st0;" points="417.6,207 415.6,207 415.6,76.8 379.5,76.8 379.5,97.4 358.9,76.8 260,76.8 260,207 258,207 
		258,74.8 359.8,74.8 377.5,92.5 377.5,74.8 417.6,74.8 	"/>
	<rect x="271.3" y="147.5" style="&st0;" width="24.6" height="2"/>
	<rect x="307.4" y="147.5" style="&st0;" width="24.6" height="2"/>
	<rect x="343.5" y="147.5" style="&st0;" width="24.6" height="2"/>
	<rect x="379.7" y="147.5" style="&st0;" width="24.6" height="2"/>
	<polygon style="&st0;" points="613.4,207 611.4,207 611.4,76.8 575.2,76.8 575.2,97.4 554.7,76.8 455.7,76.8 455.7,207 453.7,207 
		453.7,74.8 555.6,74.8 573.2,92.5 573.2,74.8 613.4,74.8 	"/>
	<rect x="467.1" y="147.5" style="&st0;" width="24.6" height="2"/>
	<rect x="503.2" y="147.5" style="&st0;" width="24.6" height="2"/>
	<rect x="539.3" y="147.5" style="&st0;" width="24.6" height="2"/>
	<rect x="575.5" y="147.5" style="&st0;" width="24.6" height="2"/>
</g>
</svg>
