<?xml version="1.0" encoding="utf-8"?>
<!-- Generator: Adobe Illustrator 24.2.3, SVG Export Plug-In . SVG Version: 6.00 Build 0)  -->
<svg version="1.1" id="レイヤー_2" xmlns="http://www.w3.org/2000/svg" xmlns:xlink="http://www.w3.org/1999/xlink" x="0px"
	 y="0px" width="213.9px" height="38.5px" viewBox="0 0 213.9 38.5" style="enable-background:new 0 0 213.9 38.5;"
	 xml:space="preserve">
<style type="text/css">
	.st0{fill:none;stroke:#C6C6C6;stroke-width:0.5;stroke-miterlimit:10;}
	.st1{fill:#1A0B08;}
	.st2{fill-rule:evenodd;clip-rule:evenodd;fill:#E61F10;}
	.st3{fill:#E61F10;}
	.st4{fill:none;stroke:#E61F10;stroke-width:0.1285;stroke-miterlimit:10;}
	.st5{fill:#FCCF00;}
</style>
<g>
	<rect x="0.2" y="0.2" class="st0" width="213.4" height="38"/>
	<g>
		<path class="st1" d="M111.9,19.9c-0.8,0.6-1.1,1.2-1.1,1.8c0,0.6,0.3,0.9,1,1.2c0.5,0.2,1.2,0.2,2.2,0.2c1.5,0,2.9-0.2,3.6-0.5
			l0.1,1c-0.2,0-0.2,0-0.4,0.1c-1,0.2-2.2,0.3-3.2,0.3c-1.2,0-2.2-0.1-2.8-0.4c-0.9-0.4-1.4-1-1.4-1.8c0-0.8,0.5-1.5,1.4-2.3
			L111.9,19.9z M110.6,15.6c0.9,0.2,1.8,0.3,3.2,0.3c1.4,0,2.4-0.1,3-0.3l0.1,0.8c-0.7,0.3-1.8,1-3,1.8l-0.6-0.5
			c0.8-0.5,1.1-0.7,1.6-1c0.1-0.1,0.2-0.1,0.3-0.2c0.1,0,0.1,0,0.2-0.1c-0.7,0.1-1.1,0.2-1.8,0.2c-0.8,0-1.9-0.1-2.6-0.2
			c-0.2,0-0.2,0-0.4,0L110.6,15.6z M116.6,17.4c0.6,0.7,0.8,1,1.2,1.6l-0.6,0.3c-0.4-0.6-0.6-1-1.2-1.6L116.6,17.4z M117.7,16.8
			c0.6,0.7,0.8,1,1.2,1.6l-0.6,0.3c-0.4-0.6-0.6-1-1.2-1.6L117.7,16.8z"/>
		<path class="st1" d="M124.1,15.9c-0.7,0.2-1.1,0.3-2,0.4c-0.1-0.3-0.2-0.4-0.3-0.7c1.5-0.2,2.4-0.4,3.8-0.9
			c0.4-0.1,0.6-0.2,0.8-0.3l0.5,0.6c-0.2,0.1-0.2,0.1-0.5,0.2c-0.6,0.2-1,0.3-1.6,0.5v1.9h1.2c0.4,0,0.7,0,1-0.1v0.8
			c-0.3,0-0.6-0.1-1.1-0.1h-1.1c0.2,0.5,0.3,0.7,0.6,1.1c0.4,0.5,0.8,0.9,1.5,1.6c-0.2,0.2-0.3,0.4-0.4,0.6
			c-0.9-0.9-1.2-1.4-1.7-2.4c0,0.7,0.1,1.5,0.1,2v2.5c0,0.7,0,1.1,0.1,1.5H124c0.1-0.4,0.1-0.8,0.1-1.5v-2.3c0-0.7,0-1,0.1-2
			c-0.6,1.5-1.2,2.5-2.2,3.6c-0.2-0.3-0.3-0.5-0.5-0.7c0.7-0.7,1.2-1.2,1.6-2c0.4-0.7,0.7-1.4,0.9-2h-1.1c-0.5,0-0.8,0-1.1,0.1v-0.8
			c0.3,0.1,0.6,0.1,1.1,0.1h1.2V15.9z M128.8,15.1c0,0.4-0.1,0.7-0.1,1.4v4.6c0,0.8,0,1.1,0.1,1.4h-0.9c0-0.3,0.1-0.6,0.1-1.4v-4.6
			c0-0.7,0-1-0.1-1.4H128.8z M131.7,14.4c-0.1,0.4-0.1,0.8-0.1,1.5v7.9c0,0.9-0.3,1.1-1.4,1.1c-0.3,0-0.8,0-1.2,0
			c-0.1-0.3-0.1-0.5-0.3-0.8c0.6,0.1,1.2,0.1,1.5,0.1c0.5,0,0.6-0.1,0.6-0.4v-7.9c0-0.7,0-1.1-0.1-1.5H131.7z"/>
		<path class="st1" d="M140.3,23.3c0,0.6,0,1,0.1,1.3h-0.9c0-0.3,0.1-0.7,0.1-1.3v-2.3h-3.3c-0.2,1.8-0.5,2.8-1.3,3.9
			c-0.3-0.3-0.4-0.3-0.7-0.5c0.5-0.7,0.8-1.2,1-2c0.3-1.1,0.4-2.9,0.4-5.8c0-1.2,0-1.4,0-2c0.4,0,0.7,0,1.3,0h6.5c0.6,0,0.9,0,1.3,0
			c0,0.3,0,0.6,0,1.2v8c0,0.8-0.3,0.9-1.4,0.9c-0.4,0-1,0-1.5-0.1c0-0.3-0.1-0.5-0.2-0.8c0.7,0.1,1.3,0.1,1.7,0.1
			c0.5,0,0.6-0.1,0.6-0.4v-2.7h-3.5V23.3z M136.4,18.3c0,0.3,0,0.6,0,0.8c0,0.7,0,0.8,0,1.3h3.2v-2.1H136.4z M139.5,15.5h-3.2v1.4
			l0,0.7h3.2V15.5z M143.8,17.6v-2.1h-3.5v2.1H143.8z M140.3,20.4h3.5v-2.1h-3.5V20.4z"/>
		<path class="st1" d="M148.9,15.5c-0.5,0-0.9,0-1.3,0.1v-0.9c0.3,0,0.7,0.1,1.3,0.1h8c0.5,0,0.9,0,1.3-0.1v0.9
			c-0.4,0-0.8-0.1-1.2-0.1h-0.2V24c0,0.8-0.3,1-1.4,1c-0.4,0-0.9,0-1.6-0.1c0-0.3-0.1-0.5-0.2-0.8c0.7,0.1,1.4,0.1,1.9,0.1
			c0.4,0,0.5-0.1,0.5-0.3v-8.4H148.9z M153.7,21c0,0.4,0,0.6,0,0.9c-0.2,0-0.7,0-1,0h-2.8v1.1H149c0-0.3,0.1-0.6,0.1-1v-3.8
			c0-0.5,0-0.7-0.1-1c0.3,0,0.6,0,1.1,0h2.5c0.5,0,0.8,0,1.1,0c0,0.3-0.1,0.5-0.1,1V21z M149.9,21.1h3v-3.3h-3V21.1z"/>
		<path class="st1" d="M160.4,16.7c0.2,0,0.4,0,0.5,0c0.1,0,0.1,0,0.4,0c0.2-0.3,0.3-0.5,0.5-0.9c0.4-0.8,0.5-1.1,0.7-1.6l0.8,0.2
			c-0.1,0.2-0.2,0.3-0.2,0.5c-0.1,0.3-0.7,1.3-1,1.8c1.2-0.1,1.7-0.1,2.5-0.2c-0.3-0.6-0.4-0.7-0.8-1.2l0.6-0.3
			c0.6,0.8,1,1.4,1.5,2.4l-0.6,0.4c-0.2-0.4-0.2-0.4-0.4-0.7c-0.9,0.1-2.6,0.3-3.8,0.4c-0.4,0-0.6,0-0.7,0.1L160.4,16.7z
			 M161.2,19.1c0-0.4,0-0.8,0-1.1c0.3,0,0.5,0,1,0h2.1c0.5,0,0.8,0,1.1,0c0,0.2,0,0.6,0,0.8v5.1c0,0.8-0.2,0.9-1.5,0.9
			c-0.1,0-0.2,0-0.4,0c0-0.2-0.1-0.5-0.2-0.7c0.3,0,0.6,0.1,0.9,0.1c0.3,0,0.4,0,0.4-0.3v-1.5h-2.7v1.5c0,0.6,0,0.9,0.1,1.2h-0.9
			c0-0.3,0.1-0.6,0.1-1.2V19.1z M161.9,19.9h2.7v-1.1h-2.7V19.9z M161.9,21.7h2.7v-1.2h-2.7V21.7z M167.1,16.2
			c1.2-0.3,2.5-0.9,3.2-1.5l0.5,0.6c-0.2,0.1-0.2,0.1-0.7,0.4c-0.9,0.5-1.8,0.9-3,1.2V18c0,0.3,0.1,0.4,1.3,0.4c1.1,0,1.5,0,1.6-0.1
			c0.2-0.1,0.3-0.4,0.3-1.5c0.2,0.1,0.4,0.2,0.7,0.3c-0.1,1-0.2,1.5-0.4,1.7c-0.2,0.3-0.7,0.3-2.2,0.3c-1.7,0-2-0.1-2-0.8v-2.8
			c0-0.4,0-0.7-0.1-1h0.9c-0.1,0.3-0.1,0.5-0.1,1V16.2z M167.1,21.4c1.2-0.3,2.4-0.8,3.2-1.5l0.6,0.6c-0.5,0.3-1.5,0.8-1.9,0.9
			c-0.7,0.3-1,0.4-1.9,0.6v1.4c0,0.2,0.1,0.3,0.4,0.4c0.3,0,0.6,0.1,1.2,0.1c0.9,0,1.3-0.1,1.5-0.3c0.1-0.2,0.2-0.7,0.3-1.5
			c0.2,0.1,0.5,0.2,0.7,0.3c-0.1,1.1-0.2,1.6-0.5,1.9c-0.3,0.3-0.7,0.3-2,0.3c-1.2,0-1.5,0-1.8-0.2c-0.3-0.1-0.4-0.3-0.4-0.7v-3
			c0-0.6,0-0.8-0.1-1.1h0.9c0,0.3-0.1,0.5-0.1,1V21.4z"/>
		<path class="st1" d="M173.8,16.2c0.2,0,0.3,0,0.4,0c0.2,0,0.3,0,0.7,0c1.4-0.1,5.3-0.3,6.8-0.4c0.7,0,1.2-0.1,1.4-0.1l0.1,0.9
			c-0.5,0-0.9,0-1.3,0.2c-0.8,0.2-1.6,0.6-2.3,1.2c-1,0.8-1.5,1.8-1.5,2.8c0,1,0.6,1.8,1.7,2.2c0.6,0.2,1.3,0.4,1.8,0.4
			c0,0,0.1,0,0.1,0l-0.2,1c-0.1,0-0.2,0-0.4-0.1c-1.2-0.2-1.9-0.5-2.6-0.9c-0.9-0.6-1.3-1.5-1.3-2.4c0-1.4,0.8-2.7,2.2-3.7
			c0.4-0.3,0.7-0.4,1.1-0.6c-0.7,0.1-1.3,0.2-2.6,0.3c-2.5,0.2-3.5,0.3-4.1,0.4L173.8,16.2z M181.7,17.6c0.5,0.6,0.7,0.9,1.1,1.7
			l-0.6,0.3c-0.3-0.7-0.6-1.2-1.1-1.7L181.7,17.6z M182.9,17.1c0.5,0.6,0.7,0.9,1.1,1.7l-0.6,0.3c-0.3-0.7-0.6-1.2-1.1-1.7
			L182.9,17.1z"/>
		<path class="st1" d="M192.3,15.2c0-0.3,0-0.4,0-0.7h0.9c0,0.4-0.1,0.6-0.1,1.5v0.1c2.3,0,3.2,0,3.6-0.1v0.9
			c-0.4,0-0.9-0.1-2.3-0.1c-0.2,0-0.3,0-1.3,0v2.4c0.2,0.5,0.3,0.9,0.3,1.4c0,1.2-0.6,2.4-1.6,3.1c-0.5,0.4-1,0.6-1.9,1
			c-0.2-0.4-0.3-0.5-0.5-0.8c0.9-0.3,1.5-0.5,1.9-0.9c0.9-0.7,1.3-1.4,1.3-2.5c-0.1,0.3-0.2,0.4-0.3,0.6c-0.4,0.4-0.9,0.6-1.5,0.6
			c-1.2,0-2-0.8-2-1.9c0-1.1,0.9-2,2.1-2c0.6,0,1.1,0.2,1.4,0.5c0-0.2,0-0.2,0-0.7c0,0,0-0.2,0-0.3c0-0.2,0-0.2,0-0.6
			c-2.4,0-4.8,0.2-5.6,0.3l0-0.9c0.2,0,0.3,0,0.5,0c0.3,0,0.3,0,2.3-0.1c1.2,0,2.1-0.1,2.9-0.1L192.3,15.2z M191.8,18.9
			c-0.2-0.1-0.5-0.2-0.8-0.2c-0.8,0-1.3,0.5-1.3,1.3c0,0.7,0.5,1.2,1.2,1.2c0.8,0,1.4-0.6,1.4-1.4C192.3,19.3,192.1,19,191.8,18.9z"
			/>
	</g>
</g>
<g>
	<g>
		<path class="st2" d="M45.6,23h-5.4l3.2-8.7h-4.6L36,22c-1.1,2.9,1.5,2.8,1.5,2.8h10.2c0,0,2.6,0,2.6-2.8l0-4.1h-4.6L45.6,23z
			 M65.4,17.1l-8,0l0.6-2.9h-5L51.5,22c-0.5,2.8,2,2.8,2,2.8H64c0.5,0,0.9-0.4,1-0.9c0.1-0.5-0.2-0.9-0.6-0.9h-8l0.8-4h8
			c0.4,0,0.9-0.4,1-0.9C66.2,17.5,65.9,17.1,65.4,17.1 M80.6,18.6h-3.8l0.9-2.4h3.3c0.5,0,0.9-0.4,1-1c0.1-0.5-0.2-0.9-0.6-0.9H68.7
			c-0.5,0-0.9,0.4-1,0.9c-0.1,0.5,0.2,1,0.7,1h4.8l-0.9,2.4h-4.6c-0.4,0-0.9,0.4-1,0.9c-0.1,0.5,0.2,0.9,0.7,0.9h4.3l-1.7,4.4h4.6
			l1.7-4.4h4.1c0.5,0,0.9-0.4,1-0.9C81.4,19,81.1,18.6,80.6,18.6 M96.6,15.2h-8l0.5-1.4h-4.6l-3,7.9h4.6l1.8-4.7h3l-2.9,7.7l4.6,0
			l3-7.7h0.7c0.5,0,0.9-0.4,1-0.9C97.3,15.7,97,15.2,96.6,15.2 M66.3,12.9h-1c-0.3,0-0.5,0.2-0.6,0.4l-0.5,2.3
			c-0.1,0.2,0.1,0.4,0.4,0.4h1c0.3,0,0.5-0.2,0.6-0.4l0.5-2.3C66.8,13.1,66.6,12.9,66.3,12.9 M61.5,16.1h1c0.3,0,0.5-0.2,0.6-0.4
			l0.5-2.3c0.1-0.2-0.1-0.4-0.4-0.4h-1c-0.3,0-0.5,0.2-0.6,0.4l-0.5,2.3C61,15.9,61.2,16.1,61.5,16.1"/>
		<path class="st3" d="M98.8,15.5h-0.1l-0.1-0.3c0,0,0,0,0-0.1c0,0,0,0,0,0c0,0,0,0-0.1,0c0,0,0,0-0.1,0h-0.2v0.4h-0.1v-1h0.4
			c0,0,0.1,0,0.1,0c0,0,0,0,0.1,0c0,0,0,0,0.1,0c0,0,0,0,0.1,0c0,0,0,0,0,0c0,0,0,0,0,0.1c0,0,0,0,0,0.1c0,0,0,0,0,0.1
			c0,0,0,0.1,0,0.1c0,0,0,0.1,0,0.1c0,0,0,0-0.1,0.1c0,0-0.1,0-0.1,0c0,0,0.1,0,0.1,0.1c0,0,0,0.1,0.1,0.1L98.8,15.5z M98.2,14.9
			h0.3c0,0,0.1,0,0.1,0c0,0,0.1,0,0.1,0c0,0,0,0,0-0.1c0,0,0,0,0-0.1c0-0.1,0-0.1-0.1-0.1c0,0-0.1,0-0.2,0h-0.3L98.2,14.9L98.2,14.9
			z"/>
		<path class="st4" d="M99.3,15c0,0.5-0.4,0.9-0.9,0.9c-0.5,0-0.9-0.4-0.9-0.9c0-0.5,0.4-0.9,0.9-0.9C98.9,14.1,99.3,14.5,99.3,15z"
			/>
	</g>
	<g>
		<path class="st3" d="M20,19.9v-8.5c0-0.3-0.3-0.4-0.5-0.2l-5.2,5.2C14.1,16.6,14,16.8,14,17v8.9c0,0.4,0.4,0.8,0.8,0.8h8.9
			c0.2,0,0.4-0.1,0.6-0.2l5.2-5.2c0.2-0.2,0.1-0.5-0.2-0.5h-8.5C20.4,20.7,20,20.4,20,19.9"/>
		<path class="st5" d="M24.7,18.2L24.7,18.2c-0.2,0-0.4-0.1-0.6-0.2l-2.1-2.1c-0.3-0.3-0.4-0.8-0.1-1.1c0.3-0.4,0.9-0.4,1.2-0.1
			l1.1,1.1c0.2,0.2,0.6,0.2,0.8,0l5.1-5.3c0.3-0.3,0.8-0.4,1.1-0.1c0.4,0.3,0.4,0.9,0.1,1.2L25.3,18C25.1,18.1,24.9,18.2,24.7,18.2"
			/>
	</g>
</g>
</svg>
