<?xml version="1.0" encoding="utf-8"?>
<!-- Generator: Adobe Illustrator 22.1.0, SVG Export Plug-In . SVG Version: 6.00 Build 0)  -->
<!DOCTYPE svg PUBLIC "-//W3C//DTD SVG 1.1//EN" "http://www.w3.org/Graphics/SVG/1.1/DTD/svg11.dtd" [
	<!ENTITY st0 "fill:#727272;">
]>
<svg version="1.1" id="レイヤー_21" xmlns="http://www.w3.org/2000/svg" xmlns:xlink="http://www.w3.org/1999/xlink" x="0px"
	 y="0px" viewBox="0 0 669.8 250.1" style="enable-background:new 0 0 669.8 250.1;" xml:space="preserve">
<g>
	<g>
		<g>
			<path d="M83.1,114.9c0.2-1.2,0.3-2.2,0.3-3.8V92.7c0-1.4-0.1-2.5-0.3-3.9c1.2,0.1,2.2,0.1,3.8,0.1h7c5.3,0,8.2,2.7,8.2,7.4
				c0,5-3.1,7.9-8.4,7.9h-7.6v6.7c0,1.6,0.1,2.7,0.3,3.9H83.1z M93.7,102c3.6,0,5.7-1.9,5.7-5.4c0-3.4-2-5.2-5.7-5.2h-7.6V102H93.7z
				"/>
		</g>
		<g>
			<path style="&st0;" d="M83.1,114.9c0.2-1.2,0.3-2.2,0.3-3.8V92.7c0-1.4-0.1-2.5-0.3-3.9c1.2,0.1,2.2,0.1,3.8,0.1h7
				c5.3,0,8.2,2.7,8.2,7.4c0,5-3.1,7.9-8.4,7.9h-7.6v6.7c0,1.6,0.1,2.7,0.3,3.9H83.1z M93.7,102c3.6,0,5.7-1.9,5.7-5.4
				c0-3.4-2-5.2-5.7-5.2h-7.6V102H93.7z"/>
		</g>
	</g>
	<path style="&st0;" d="M89.4,136.6c-19.6,0-35.6-16-35.6-35.6s16-35.6,35.6-35.6S125,81.4,125,101S109.1,136.6,89.4,136.6z
		 M89.4,67.5c-18.5,0-33.6,15.1-33.6,33.6s15.1,33.6,33.6,33.6c18.5,0,33.6-15.1,33.6-33.6S108,67.5,89.4,67.5z"/>
</g>
<g>
	<g>
		<g>
			<path d="M308.4,85.7c0.2-1.2,0.3-2.2,0.3-3.8V63.5c0-1.4-0.1-2.5-0.3-3.9c1.2,0.1,2.2,0.1,3.8,0.1h7c5.3,0,8.2,2.7,8.2,7.4
				c0,5-3.1,7.9-8.4,7.9h-7.6v6.7c0,1.6,0.1,2.7,0.3,3.9H308.4z M319,72.7c3.6,0,5.7-1.9,5.7-5.4c0-3.4-2-5.2-5.7-5.2h-7.6v10.7H319
				z"/>
		</g>
		<g>
			<path style="&st0;" d="M308.4,85.7c0.2-1.2,0.3-2.2,0.3-3.8V63.5c0-1.4-0.1-2.5-0.3-3.9c1.2,0.1,2.2,0.1,3.8,0.1h7
				c5.3,0,8.2,2.7,8.2,7.4c0,5-3.1,7.9-8.4,7.9h-7.6v6.7c0,1.6,0.1,2.7,0.3,3.9H308.4z M319,72.7c3.6,0,5.7-1.9,5.7-5.4
				c0-3.4-2-5.2-5.7-5.2h-7.6v10.7H319z"/>
		</g>
	</g>
	<path style="&st0;" d="M314.7,107.4c-19.6,0-35.6-16-35.6-35.6s16-35.6,35.6-35.6s35.6,16,35.6,35.6S334.3,107.4,314.7,107.4z
		 M314.7,38.2c-18.5,0-33.6,15.1-33.6,33.6s15.1,33.6,33.6,33.6c18.5,0,33.6-15.1,33.6-33.6S333.2,38.2,314.7,38.2z"/>
</g>
<g>
	<g>
		<g>
			<path d="M534.9,49.4c0.2-1.2,0.3-2.2,0.3-3.8V27.3c0-1.4-0.1-2.5-0.3-3.9c1.2,0.1,2.2,0.1,3.8,0.1h7c5.3,0,8.2,2.7,8.2,7.4
				c0,5-3.1,7.9-8.4,7.9h-7.6v6.7c0,1.6,0.1,2.7,0.3,3.9H534.9z M545.5,36.5c3.6,0,5.7-1.9,5.7-5.4c0-3.4-2-5.2-5.7-5.2h-7.6v10.7
				H545.5z"/>
		</g>
		<g>
			<path style="&st0;" d="M534.9,49.4c0.2-1.2,0.3-2.2,0.3-3.8V27.3c0-1.4-0.1-2.5-0.3-3.9c1.2,0.1,2.2,0.1,3.8,0.1h7
				c5.3,0,8.2,2.7,8.2,7.4c0,5-3.1,7.9-8.4,7.9h-7.6v6.7c0,1.6,0.1,2.7,0.3,3.9H534.9z M545.5,36.5c3.6,0,5.7-1.9,5.7-5.4
				c0-3.4-2-5.2-5.7-5.2h-7.6v10.7H545.5z"/>
		</g>
	</g>
	<path style="&st0;" d="M541.2,71.2c-19.6,0-35.6-16-35.6-35.6S521.6,0,541.2,0c19.6,0,35.6,16,35.6,35.6S560.8,71.2,541.2,71.2z
		 M541.2,2c-18.5,0-33.6,15.1-33.6,33.6s15.1,33.6,33.6,33.6c18.5,0,33.6-15.1,33.6-33.6S559.7,2,541.2,2z"/>
</g>
<g>
	<rect x="19.5" y="173.3" style="&st0;" width="139.9" height="2"/>
</g>
<rect x="245.2" y="144.4" style="&st0;" width="139.9" height="2"/>
<rect x="245.2" y="173.3" style="&st0;" width="139.9" height="2"/>
<rect x="471.7" y="115.5" style="&st0;" width="139.9" height="2"/>
<rect x="471.7" y="144.4" style="&st0;" width="139.9" height="2"/>
<rect x="471.7" y="173.3" style="&st0;" width="139.9" height="2"/>
<g>
	<rect y="224.6" style="&st0;" width="667.1" height="2"/>
	<polygon style="&st0;" points="645.2,250.1 643.8,248.7 666.9,225.6 643.8,202.4 645.2,201 669.8,225.6 	"/>
</g>
</svg>
