<?xml version="1.0" encoding="utf-8"?>
<!-- Generator: Adobe Illustrator 22.1.0, SVG Export Plug-In . SVG Version: 6.00 Build 0)  -->
<!DOCTYPE svg PUBLIC "-//W3C//DTD SVG 1.1//EN" "http://www.w3.org/Graphics/SVG/1.1/DTD/svg11.dtd" [
	<!ENTITY st0 "fill:#727272;">
]>
<svg version="1.1" id="レイヤー_21" xmlns="http://www.w3.org/2000/svg" xmlns:xlink="http://www.w3.org/1999/xlink" x="0px"
	 y="0px" viewBox="0 0 671 261.6" style="enable-background:new 0 0 671 261.6;" xml:space="preserve">
<g>
	<rect x="210.6" y="188.5" style="&st0;" width="133.1" height="2"/>
	<polygon style="&st0;" points="315.2,219.4 313.8,218 342.3,189.5 313.8,161 315.2,159.6 345.1,189.5 	"/>
	<polygon style="&st0;" points="239.1,219.4 209.2,189.5 239.1,159.6 240.5,161 212,189.5 240.5,218 	"/>
</g>
<path style="&st0;" d="M671,261.6H385.5V162l23-23h-23V97.9H671V261.6z M387.5,259.6H669V99.9H387.5V137h25.8l-25.8,25.8V259.6z"/>
<rect x="449.9" y="211.2" style="&st0;" width="2" height="25.3"/>
<rect x="449.9" y="168.5" style="&st0;" width="2" height="25.3"/>
<rect x="449.9" y="125.7" style="&st0;" width="2" height="25.3"/>
<g>
	<g>
		<path d="M522.3,208.7c0.3-1.8,0.4-3.4,0.4-5.7v-5h-7.5c-2.3,0-3.5,0.1-5.3,0.4v-3.8c1.7,0.3,3,0.4,5.3,0.4h7.5v-2.4l-2-3h-5.5
			c-2.3,0-3.5,0.1-5.3,0.4v-3.8c1.7,0.3,3,0.4,5.3,0.4h3.5l-7.9-12.1c-1.5-2.3-2.3-3.4-3-4.4h5.4c0.4,1.2,0.9,2.1,2.5,4.7l8.9,14.3
			l8.8-14.3c1.5-2.4,2.1-3.5,2.4-4.7h5.5c-0.7,0.9-1.8,2.3-3.1,4.4l-7.8,12.1h3.5c2.3,0,3.6-0.1,5.3-0.4v3.8
			c-1.7-0.3-3.1-0.4-5.3-0.4h-5.4l-2,3v2.4h7.5c2.2,0,3.5-0.1,5.3-0.4v3.8c-1.7-0.3-3.1-0.4-5.3-0.4h-7.5v5c0,2.5,0.1,3.9,0.4,5.7
			H522.3z"/>
		<path d="M559.3,204.2c-2.1-2.1-3.6-4.4-4.6-7c-1.9-5.3-2.9-11.3-2.9-17.6c0-8.1,1.7-16.3,4.4-20.7c3.6-6.2,9.5-9.4,17-9.4
			c5.6,0,10.5,1.8,13.9,5.4c2.1,2.1,3.6,4.5,4.6,7c1.9,5.2,2.9,11.3,2.9,17.6c0,9.2-2,17.3-5.3,22c-3.8,5.3-9.1,8-16.1,8
			C567.6,209.6,562.8,207.8,559.3,204.2z M563.7,158.8c-1.6,1.7-2.8,3.6-3.4,5.6c-1.6,4.6-2.4,9.8-2.4,15.4c0,7.1,1.5,14.5,3.6,18.1
			c2.7,4.4,6.6,6.6,11.8,6.6c3.8,0,7.1-1.2,9.4-3.6c1.7-1.7,2.9-3.7,3.6-5.9c1.6-4.7,2.4-9.7,2.4-15.4c0-6.6-1.4-14.1-3.4-17.7
			c-2.5-4.6-6.6-6.9-11.9-6.9C569.2,154.9,566.1,156.2,563.7,158.8z"/>
	</g>
	<g>
		<path style="&st0;" d="M522.3,208.7c0.3-1.8,0.4-3.4,0.4-5.7v-5h-7.5c-2.3,0-3.5,0.1-5.3,0.4v-3.8c1.7,0.3,3,0.4,5.3,0.4h7.5v-2.4
			l-2-3h-5.5c-2.3,0-3.5,0.1-5.3,0.4v-3.8c1.7,0.3,3,0.4,5.3,0.4h3.5l-7.9-12.1c-1.5-2.3-2.3-3.4-3-4.4h5.4c0.4,1.2,0.9,2.1,2.5,4.7
			l8.9,14.3l8.8-14.3c1.5-2.4,2.1-3.5,2.4-4.7h5.5c-0.7,0.9-1.8,2.3-3.1,4.4l-7.8,12.1h3.5c2.3,0,3.6-0.1,5.3-0.4v3.8
			c-1.7-0.3-3.1-0.4-5.3-0.4h-5.4l-2,3v2.4h7.5c2.2,0,3.5-0.1,5.3-0.4v3.8c-1.7-0.3-3.1-0.4-5.3-0.4h-7.5v5c0,2.5,0.1,3.9,0.4,5.7
			H522.3z"/>
		<path style="&st0;" d="M559.3,204.2c-2.1-2.1-3.6-4.4-4.6-7c-1.9-5.3-2.9-11.3-2.9-17.6c0-8.1,1.7-16.3,4.4-20.7
			c3.6-6.2,9.5-9.4,17-9.4c5.6,0,10.5,1.8,13.9,5.4c2.1,2.1,3.6,4.5,4.6,7c1.9,5.2,2.9,11.3,2.9,17.6c0,9.2-2,17.3-5.3,22
			c-3.8,5.3-9.1,8-16.1,8C567.6,209.6,562.8,207.8,559.3,204.2z M563.7,158.8c-1.6,1.7-2.8,3.6-3.4,5.6c-1.6,4.6-2.4,9.8-2.4,15.4
			c0,7.1,1.5,14.5,3.6,18.1c2.7,4.4,6.6,6.6,11.8,6.6c3.8,0,7.1-1.2,9.4-3.6c1.7-1.7,2.9-3.7,3.6-5.9c1.6-4.7,2.4-9.7,2.4-15.4
			c0-6.6-1.4-14.1-3.4-17.7c-2.5-4.6-6.6-6.9-11.9-6.9C569.2,154.9,566.1,156.2,563.7,158.8z"/>
	</g>
</g>
<g>
	<g>
		<path d="M82.3,40c-0.6-1.6-1-2.3-1.7-3.1c-1.5-1.6-3.4-2.5-5.9-2.5c-3.9,0-6.8,2.1-8.6,6.2c-1.3,3-1.7,5.3-2.1,10.7
			c0.9-1.5,1.4-2.2,2.5-3.2c2.3-2.1,5-3,8.4-3c7.7,0,12.5,4.8,12.5,12.4c0,7.7-5.2,12.8-13,12.8c-3.5,0-6.9-1.1-9-3.1
			c-3.2-3-5-8.5-5-15.6c0-6.2,1.4-11.8,3.8-15c2.6-3.6,6.2-5.4,10.5-5.4c3,0,5.7,0.7,7.5,2.1c1.7,1.2,2.7,2.6,4.2,5.6L82.3,40z
			 M74.3,48.4c-2.5,0-5.1,1.1-6.9,2.8C65.8,52.8,65,55,65,57.5c0,5.4,4,9.3,9.4,9.3c3.2,0,6.2-1.5,7.7-4c0.8-1.3,1.3-3.3,1.3-5.3
			C83.4,51.7,80.1,48.4,74.3,48.4z"/>
		<path d="M95.6,70.2c0.2-1.2,0.3-2.2,0.3-3.8v-18c0-1.4-0.1-2.4-0.3-3.8c1.2,0.1,2.1,0.1,3.7,0.1h6.8c5.2,0,8.1,2.6,8.1,7.3
			c0,4.9-3,7.8-8.2,7.8h-7.5v6.6c0,1.6,0.1,2.6,0.3,3.8H95.6z M105.9,57.5c3.6,0,5.6-1.9,5.6-5.3c0-3.3-1.9-5.1-5.6-5.1h-7.5v10.4
			H105.9z"/>
	</g>
	<g>
		<path style="&st0;" d="M82.3,40c-0.6-1.6-1-2.3-1.7-3.1c-1.5-1.6-3.4-2.5-5.9-2.5c-3.9,0-6.8,2.1-8.6,6.2c-1.3,3-1.7,5.3-2.1,10.7
			c0.9-1.5,1.4-2.2,2.5-3.2c2.3-2.1,5-3,8.4-3c7.7,0,12.5,4.8,12.5,12.4c0,7.7-5.2,12.8-13,12.8c-3.5,0-6.9-1.1-9-3.1
			c-3.2-3-5-8.5-5-15.6c0-6.2,1.4-11.8,3.8-15c2.6-3.6,6.2-5.4,10.5-5.4c3,0,5.7,0.7,7.5,2.1c1.7,1.2,2.7,2.6,4.2,5.6L82.3,40z
			 M74.3,48.4c-2.5,0-5.1,1.1-6.9,2.8C65.8,52.8,65,55,65,57.5c0,5.4,4,9.3,9.4,9.3c3.2,0,6.2-1.5,7.7-4c0.8-1.3,1.3-3.3,1.3-5.3
			C83.4,51.7,80.1,48.4,74.3,48.4z"/>
		<path style="&st0;" d="M95.6,70.2c0.2-1.2,0.3-2.2,0.3-3.8v-18c0-1.4-0.1-2.4-0.3-3.8c1.2,0.1,2.1,0.1,3.7,0.1h6.8
			c5.2,0,8.1,2.6,8.1,7.3c0,4.9-3,7.8-8.2,7.8h-7.5v6.6c0,1.6,0.1,2.6,0.3,3.8H95.6z M105.9,57.5c3.6,0,5.6-1.9,5.6-5.3
			c0-3.3-1.9-5.1-5.6-5.1h-7.5v10.4H105.9z"/>
	</g>
</g>
<path style="&st0;" d="M85,102.5c-28.3,0-51.3-23-51.3-51.3S56.7,0,85,0s51.3,23,51.3,51.3S113.3,102.5,85,102.5z M85,2
	C57.9,2,35.7,24.1,35.7,51.3c0,27.2,22.1,49.3,49.3,49.3s49.3-22.1,49.3-49.3C134.3,24.1,112.2,2,85,2z"/>
<rect y="122.8" style="&st0;" width="171.2" height="2"/>
<rect y="149.8" style="&st0;" width="171.2" height="2"/>
<rect y="176.8" style="&st0;" width="171.2" height="2"/>
<rect y="203.9" style="&st0;" width="171.2" height="2"/>
<rect y="257.9" style="&st0;" width="171.2" height="2"/>
<rect y="230.9" style="&st0;" width="171.2" height="2"/>
</svg>
