<?xml version="1.0" encoding="utf-8"?>
<!-- Generator: Adobe Illustrator 22.1.0, SVG Export Plug-In . SVG Version: 6.00 Build 0)  -->
<!DOCTYPE svg PUBLIC "-//W3C//DTD SVG 1.1//EN" "http://www.w3.org/Graphics/SVG/1.1/DTD/svg11.dtd" [
	<!ENTITY st0 "fill:#727272;">
]>
<svg version="1.1" id="レイヤー_21" xmlns="http://www.w3.org/2000/svg" xmlns:xlink="http://www.w3.org/1999/xlink" x="0px"
	 y="0px" viewBox="0 0 670 163.5" style="enable-background:new 0 0 670 163.5;" xml:space="preserve">
<g>
	<path style="&st0;" d="M670,163.5H384.9V64l23-23h-23V0H670V163.5z M386.9,161.4h281V2h-281v37.1h25.8l-25.8,25.8V161.4z"/>
	<rect x="437" y="113.2" style="&st0;" width="2" height="25.2"/>
	<rect x="437" y="70.4" style="&st0;" width="2" height="25.2"/>
	<rect x="437" y="27.7" style="&st0;" width="2" height="25.2"/>
	<g>
		<g>
			<path d="M471.9,110.6c0.3-1.8,0.4-3.4,0.4-5.7v-5h-6.7c-2,0-3.2,0.1-4.7,0.4v-3.8c1.5,0.3,2.7,0.4,4.7,0.4h6.7v-2.4l-1.8-3h-4.9
				c-2,0-3.2,0.1-4.7,0.4v-3.8c1.5,0.3,2.7,0.4,4.7,0.4h3.2l-7.1-12c-1.3-2.3-2.1-3.4-2.7-4.4h4.9c0.4,1.2,0.8,2.1,2.2,4.7l8,14.3
				l7.9-14.3c1.3-2.4,1.9-3.5,2.2-4.7h4.9c-0.6,0.9-1.6,2.3-2.8,4.4l-7,12h3.2c2,0,3.2-0.1,4.8-0.4V92c-1.5-0.3-2.8-0.4-4.8-0.4
				h-4.9l-1.8,3V97h6.7c2,0,3.2-0.1,4.7-0.4v3.8c-1.5-0.3-2.8-0.4-4.7-0.4h-6.7v5c0,2.5,0.1,3.8,0.4,5.7H471.9z"/>
			<path d="M490.7,52.4c1.8,0.3,3.1,0.4,5.7,0.4h4.3c2.3,0,3.4-0.1,5.7-0.4c-0.4,4.6-0.6,8.5-0.6,12.6v36.9c0,3.6,0.1,5.8,0.5,8.6
				h-6.5c0.4-2.7,0.5-5.1,0.5-8.6v-44h-3.7c-2.2,0-4,0.2-5.9,0.5V52.4z"/>
			<path d="M525.3,110.4c0,5.6-0.8,7.4-4.3,9.8l-1.8-2.5c2.8-1.4,3.3-2.6,3.3-7.3h-4v-7.5h6.8V110.4z"/>
			<path d="M528.8,52.4c1.8,0.3,3.1,0.4,5.7,0.4h4.3c2.3,0,3.4-0.1,5.7-0.4c-0.4,4.6-0.6,8.5-0.6,12.6v36.9c0,3.6,0.1,5.8,0.5,8.6
				h-6.5c0.4-2.7,0.5-5.1,0.5-8.6v-44h-3.7c-2.2,0-4,0.2-5.9,0.5V52.4z"/>
			<path d="M563,106.2c-1.8-2-3.3-4.4-4.1-7c-1.7-5.3-2.6-11.3-2.6-17.5c0-8,1.6-16.2,4-20.7c3.3-6.1,8.5-9.3,15.3-9.3
				c5.1,0,9.4,1.8,12.5,5.4c1.9,2.1,3.3,4.5,4.1,7c1.7,5.2,2.6,11.3,2.6,17.6c0,9.2-1.8,17.3-4.8,21.9c-3.4,5.3-8.2,8-14.5,8
				C570.4,111.6,566.2,109.7,563,106.2z M567,60.8c-1.4,1.7-2.5,3.6-3.1,5.5c-1.4,4.6-2.1,9.8-2.1,15.3c0,7.1,1.4,14.5,3.2,18.1
				c2.4,4.4,5.9,6.6,10.6,6.6c3.4,0,6.4-1.2,8.4-3.6c1.5-1.7,2.6-3.7,3.2-5.9c1.4-4.7,2.1-9.7,2.1-15.3c0-6.6-1.3-14.1-3.1-17.7
				c-2.3-4.6-5.9-6.9-10.7-6.9C572,56.9,569.1,58.2,567,60.8z"/>
			<path d="M610.6,106.2c-1.8-2-3.3-4.4-4.1-7c-1.7-5.3-2.6-11.3-2.6-17.5c0-8,1.6-16.2,4-20.7c3.3-6.1,8.5-9.3,15.3-9.3
				c5.1,0,9.4,1.8,12.5,5.4c1.9,2.1,3.3,4.5,4.1,7c1.7,5.2,2.6,11.3,2.6,17.6c0,9.2-1.8,17.3-4.8,21.9c-3.4,5.3-8.2,8-14.5,8
				C618.1,111.6,613.8,109.7,610.6,106.2z M614.6,60.8c-1.4,1.7-2.5,3.6-3.1,5.5c-1.4,4.6-2.1,9.8-2.1,15.3c0,7.1,1.4,14.5,3.2,18.1
				c2.4,4.4,5.9,6.6,10.6,6.6c3.4,0,6.4-1.2,8.4-3.6c1.5-1.7,2.6-3.7,3.2-5.9c1.4-4.7,2.1-9.7,2.1-15.3c0-6.6-1.3-14.1-3.1-17.7
				c-2.3-4.6-5.9-6.9-10.7-6.9C619.6,56.9,616.8,58.2,614.6,60.8z"/>
		</g>
		<g>
			<path style="&st0;" d="M471.9,110.6c0.3-1.8,0.4-3.4,0.4-5.7v-5h-6.7c-2,0-3.2,0.1-4.7,0.4v-3.8c1.5,0.3,2.7,0.4,4.7,0.4h6.7
				v-2.4l-1.8-3h-4.9c-2,0-3.2,0.1-4.7,0.4v-3.8c1.5,0.3,2.7,0.4,4.7,0.4h3.2l-7.1-12c-1.3-2.3-2.1-3.4-2.7-4.4h4.9
				c0.4,1.2,0.8,2.1,2.2,4.7l8,14.3l7.9-14.3c1.3-2.4,1.9-3.5,2.2-4.7h4.9c-0.6,0.9-1.6,2.3-2.8,4.4l-7,12h3.2c2,0,3.2-0.1,4.8-0.4
				V92c-1.5-0.3-2.8-0.4-4.8-0.4h-4.9l-1.8,3V97h6.7c2,0,3.2-0.1,4.7-0.4v3.8c-1.5-0.3-2.8-0.4-4.7-0.4h-6.7v5
				c0,2.5,0.1,3.8,0.4,5.7H471.9z"/>
			<path style="&st0;" d="M490.7,52.4c1.8,0.3,3.1,0.4,5.7,0.4h4.3c2.3,0,3.4-0.1,5.7-0.4c-0.4,4.6-0.6,8.5-0.6,12.6v36.9
				c0,3.6,0.1,5.8,0.5,8.6h-6.5c0.4-2.7,0.5-5.1,0.5-8.6v-44h-3.7c-2.2,0-4,0.2-5.9,0.5V52.4z"/>
			<path style="&st0;" d="M525.3,110.4c0,5.6-0.8,7.4-4.3,9.8l-1.8-2.5c2.8-1.4,3.3-2.6,3.3-7.3h-4v-7.5h6.8V110.4z"/>
			<path style="&st0;" d="M528.8,52.4c1.8,0.3,3.1,0.4,5.7,0.4h4.3c2.3,0,3.4-0.1,5.7-0.4c-0.4,4.6-0.6,8.5-0.6,12.6v36.9
				c0,3.6,0.1,5.8,0.5,8.6h-6.5c0.4-2.7,0.5-5.1,0.5-8.6v-44h-3.7c-2.2,0-4,0.2-5.9,0.5V52.4z"/>
			<path style="&st0;" d="M563,106.2c-1.8-2-3.3-4.4-4.1-7c-1.7-5.3-2.6-11.3-2.6-17.5c0-8,1.6-16.2,4-20.7
				c3.3-6.1,8.5-9.3,15.3-9.3c5.1,0,9.4,1.8,12.5,5.4c1.9,2.1,3.3,4.5,4.1,7c1.7,5.2,2.6,11.3,2.6,17.6c0,9.2-1.8,17.3-4.8,21.9
				c-3.4,5.3-8.2,8-14.5,8C570.4,111.6,566.2,109.7,563,106.2z M567,60.8c-1.4,1.7-2.5,3.6-3.1,5.5c-1.4,4.6-2.1,9.8-2.1,15.3
				c0,7.1,1.4,14.5,3.2,18.1c2.4,4.4,5.9,6.6,10.6,6.6c3.4,0,6.4-1.2,8.4-3.6c1.5-1.7,2.6-3.7,3.2-5.9c1.4-4.7,2.1-9.7,2.1-15.3
				c0-6.6-1.3-14.1-3.1-17.7c-2.3-4.6-5.9-6.9-10.7-6.9C572,56.9,569.1,58.2,567,60.8z"/>
			<path style="&st0;" d="M610.6,106.2c-1.8-2-3.3-4.4-4.1-7c-1.7-5.3-2.6-11.3-2.6-17.5c0-8,1.6-16.2,4-20.7
				c3.3-6.1,8.5-9.3,15.3-9.3c5.1,0,9.4,1.8,12.5,5.4c1.9,2.1,3.3,4.5,4.1,7c1.7,5.2,2.6,11.3,2.6,17.6c0,9.2-1.8,17.3-4.8,21.9
				c-3.4,5.3-8.2,8-14.5,8C618.1,111.6,613.8,109.7,610.6,106.2z M614.6,60.8c-1.4,1.7-2.5,3.6-3.1,5.5c-1.4,4.6-2.1,9.8-2.1,15.3
				c0,7.1,1.4,14.5,3.2,18.1c2.4,4.4,5.9,6.6,10.6,6.6c3.4,0,6.4-1.2,8.4-3.6c1.5-1.7,2.6-3.7,3.2-5.9c1.4-4.7,2.1-9.7,2.1-15.3
				c0-6.6-1.3-14.1-3.1-17.7c-2.3-4.6-5.9-6.9-10.7-6.9C619.6,56.9,616.8,58.2,614.6,60.8z"/>
		</g>
	</g>
	<g>
		<g>
			<path d="M66.7,79.3c-3.1,0-3.9,0-5.5,0.2c0.5-3.9,0.7-4.7,1.4-6.5c1.2-3.1,3.3-5.8,6.4-8.5c1.7-1.5,1.8-1.5,7.6-5.5
				c4.9-3.3,6.5-5.5,6.5-8.5c0-3.8-3.2-6.2-8.2-6.2c-3.3,0-5.7,1.1-7.2,3.2c-0.9,1.3-1.4,2.5-1.7,5l-4.2-0.7
				c0.7-3.6,1.5-5.3,3.1-7.1c2.2-2.5,5.6-3.8,10-3.8c7.5,0,12.3,3.8,12.3,9.6c0,2.5-1,4.9-2.9,7c-1.5,1.7-2.8,2.6-8.4,6.4
				c-3.9,2.6-5.5,4-7.1,6.1c-1.5,2-2.2,3.4-2.8,5.8h15.8c2.5,0,4.2-0.1,6-0.3v4.2c-2-0.2-3.6-0.3-6.1-0.3H66.7z"/>
			<path d="M94.4,79.9c0.2-1.2,0.3-2.2,0.3-3.7v-18c0-1.4-0.1-2.4-0.3-3.8c1.2,0.1,2.1,0.1,3.7,0.1h6.8c5.2,0,8.1,2.6,8.1,7.3
				c0,4.9-3,7.8-8.2,7.8h-7.5v6.6c0,1.6,0.1,2.6,0.3,3.8H94.4z M104.8,67.3c3.5,0,5.6-1.9,5.6-5.3c0-3.3-1.9-5.1-5.6-5.1h-7.5v10.4
				H104.8z"/>
		</g>
		<g>
			<path style="&st0;" d="M66.7,79.3c-3.1,0-3.9,0-5.5,0.2c0.5-3.9,0.7-4.7,1.4-6.5c1.2-3.1,3.3-5.8,6.4-8.5
				c1.7-1.5,1.8-1.5,7.6-5.5c4.9-3.3,6.5-5.5,6.5-8.5c0-3.8-3.2-6.2-8.2-6.2c-3.3,0-5.7,1.1-7.2,3.2c-0.9,1.3-1.4,2.5-1.7,5
				l-4.2-0.7c0.7-3.6,1.5-5.3,3.1-7.1c2.2-2.5,5.6-3.8,10-3.8c7.5,0,12.3,3.8,12.3,9.6c0,2.5-1,4.9-2.9,7c-1.5,1.7-2.8,2.6-8.4,6.4
				c-3.9,2.6-5.5,4-7.1,6.1c-1.5,2-2.2,3.4-2.8,5.8h15.8c2.5,0,4.2-0.1,6-0.3v4.2c-2-0.2-3.6-0.3-6.1-0.3H66.7z"/>
			<path style="&st0;" d="M94.4,79.9c0.2-1.2,0.3-2.2,0.3-3.7v-18c0-1.4-0.1-2.4-0.3-3.8c1.2,0.1,2.1,0.1,3.7,0.1h6.8
				c5.2,0,8.1,2.6,8.1,7.3c0,4.9-3,7.8-8.2,7.8h-7.5v6.6c0,1.6,0.1,2.6,0.3,3.8H94.4z M104.8,67.3c3.5,0,5.6-1.9,5.6-5.3
				c0-3.3-1.9-5.1-5.6-5.1h-7.5v10.4H104.8z"/>
		</g>
	</g>
	<path style="&st0;" d="M84.9,112.6c-28.2,0-51.2-23-51.2-51.2s23-51.2,51.2-51.2s51.2,23,51.2,51.2S113.1,112.6,84.9,112.6z
		 M84.9,12.2c-27.1,0-49.2,22.1-49.2,49.2s22.1,49.2,49.2,49.2s49.2-22.1,49.2-49.2S112,12.2,84.9,12.2z"/>
	<rect y="132.8" style="&st0;" width="170.9" height="2"/>
	<rect y="159.8" style="&st0;" width="170.9" height="2"/>
	<g>
		<rect x="210.3" y="82.4" style="&st0;" width="132.9" height="2"/>
		<polygon style="&st0;" points="314.8,113.3 313.3,111.9 341.8,83.4 313.3,55 314.8,53.6 344.6,83.4 		"/>
		<polygon style="&st0;" points="238.7,113.3 208.9,83.4 238.7,53.6 240.1,55 211.7,83.4 240.1,111.9 		"/>
	</g>
</g>
</svg>
