<?xml version="1.0" encoding="utf-8"?>
<!-- Generator: Adobe Illustrator 25.0.1, SVG Export Plug-In . SVG Version: 6.00 Build 0)  -->
<svg version="1.1" id="レイヤー_21" xmlns="http://www.w3.org/2000/svg" xmlns:xlink="http://www.w3.org/1999/xlink" x="0px"
	 y="0px" width="160px" height="160px" viewBox="0 0 160 160" style="enable-background:new 0 0 160 160;" xml:space="preserve">
<style type="text/css">
	.st0{fill:url(#SVGID_1_);}
	.st1{fill:#FFFFFF;}
</style>
<linearGradient id="SVGID_1_" gradientUnits="userSpaceOnUse" x1="136.5685" y1="19.6802" x2="23.4315" y2="132.8173" gradientTransform="matrix(1 0 0 -1 0 156.2488)">
	<stop  offset="0" style="stop-color:#C8161D"/>
	<stop  offset="0.9969" style="stop-color:#F49C23"/>
</linearGradient>
<circle class="st0" cx="80" cy="80" r="80"/>
<g>
	<path class="st1" d="M36.3,65.3H41l9.8,17.3l3.1,6.2h0.2c-0.2-3-0.6-6.6-0.6-9.8V65.3h4.4v29.4h-4.8l-9.8-17.4l-3.1-6.2h-0.2
		c0.2,3,0.6,6.4,0.6,9.6v13.9h-4.4V65.3z"/>
	<path class="st1" d="M67.2,65.3h17.4v3.9H71.9v8.2h10.8v3.9H71.9v9.5h13.2v3.9H67.2V65.3z"/>
	<path class="st1" d="M89.8,65.3h4.8l2.8,15.3l1.6,9.4h0.2c0.6-3.2,1.3-6.3,2-9.4l3.8-15.3h4.1l3.8,15.3c0.7,3.1,1.3,6.2,2,9.4h0.2
		c0.5-3.2,1-6.4,1.5-9.4l2.8-15.3h4.4l-5.8,29.4h-5.7l-4-16.4c-0.5-2.3-1-4.5-1.4-6.8h-0.2c-0.4,2.2-0.9,4.4-1.4,6.8l-3.9,16.4h-5.6
		L89.8,65.3z"/>
</g>
</svg>
