<?xml version="1.0" encoding="utf-8"?>
<!-- Generator: Adobe Illustrator 25.0.1, SVG Export Plug-In . SVG Version: 6.00 Build 0)  -->
<svg version="1.1" id="レイヤー_21" xmlns="http://www.w3.org/2000/svg" xmlns:xlink="http://www.w3.org/1999/xlink" x="0px"
	 y="0px" width="515.5px" height="207.3px" viewBox="0 0 515.5 207.3" style="enable-background:new 0 0 515.5 207.3;"
	 xml:space="preserve">
<style type="text/css">
	.st0{fill:none;stroke:#727272;stroke-width:2;stroke-miterlimit:10;}
	.st1{fill:#727272;}
	.st2{fill:none;stroke:#727272;stroke-width:4;stroke-miterlimit:10;}
	.st3{fill:none;stroke:#727272;stroke-width:2;stroke-miterlimit:10;stroke-dasharray:4.2364,4.2364;}
</style>
<g>
	<g>
		<circle class="st0" cx="37.1" cy="94.6" r="16.7"/>
		<path class="st0" d="M46.1,126.5H28.2c-12.5,0-22.7,10.2-22.7,22.7V173h63.2v-23.8C68.7,136.7,58.6,126.5,46.1,126.5z"/>
	</g>
	<g>
		<g>
			<circle class="st0" cx="484.8" cy="16.7" r="15.7"/>
			<path class="st0" d="M491.8,46.7h-14c-12.5,0-22.7,10.2-22.7,22.7v21h59.4v-21C514.5,56.9,504.3,46.7,491.8,46.7z"/>
		</g>
		<g>
			<circle class="st0" cx="484.8" cy="132.7" r="15.7"/>
			<path class="st0" d="M491.8,162.7h-14c-12.5,0-22.7,10.2-22.7,22.7v21h59.4v-21C514.5,172.8,504.3,162.7,491.8,162.7z"/>
		</g>
	</g>
	<polyline class="st0" points="3.7,46.1 1,46.1 1,17.2 54.8,17.2 54.8,20.4 	"/>
	<polyline class="st0" points="11.7,52.4 7.4,52.4 7.4,23.5 61.2,23.5 61.2,28.7 	"/>
	<rect x="15.7" y="32.1" class="st0" width="53.8" height="28.9"/>
	<polyline class="st0" points="269.5,48 207,48 207,153.1 269.5,153.1 	"/>
	<line class="st0" x1="206.1" y1="100.6" x2="92.6" y2="100.6"/>
	<polyline class="st0" points="398.8,137.2 414.6,152.9 398.8,168.7 	"/>
	<polyline class="st0" points="398.8,31.4 414.6,47.2 398.8,63 	"/>
	<g>
		<g>
			<path class="st1" d="M309.5,145.1c0.7,0.1,1.2,0.1,2.2,0.1h1.8c1,0,1.4,0,2.3-0.1c-0.2,1.5-0.2,2.8-0.2,4.2v12.4
				c0,1.2,0.1,2,0.2,3H313c0.2-0.9,0.2-1.8,0.2-3v-14.4h-1.3c-0.9,0-1.5,0.1-2.3,0.2V145.1z"/>
			<path class="st1" d="M323.5,164.6c0.2-1,0.2-1.7,0.2-3V148c0-1.1-0.1-1.9-0.2-3c0.9,0.1,1.7,0.1,2.9,0.1h5.2
				c4.1,0,6.3,2.1,6.3,5.7c0,3.9-2.4,6.1-6.5,6.1h-5.4v4.8c0,1.3,0.1,2.1,0.2,3H323.5z M331.5,154.8c2.6,0,4-1.4,4-3.9
				c0-2.4-1.4-3.7-4-3.7h-5.4v7.6H331.5z"/>
		</g>
		<path class="st0" d="M293.4,162.4c-0.8-2.6-1.2-5.4-1.2-8.3c0-16.2,13.1-29.3,29.3-29.3s29.3,13.1,29.3,29.3s-13.1,29.3-29.3,29.3
			c-3.4,0-6.7-0.6-9.8-1.7"/>
		<line class="st2" x1="292" y1="173.5" x2="306.7" y2="173.5"/>
		<line class="st2" x1="299.4" y1="180.9" x2="299.4" y2="166.2"/>
	</g>
	<g>
		<g>
			<path class="st1" d="M309.6,39.1c0.7,0.1,1.2,0.1,2.2,0.1h1.8c1,0,1.4,0,2.3-0.1c-0.2,1.5-0.2,2.8-0.2,4.2v12.4
				c0,1.2,0.1,2,0.2,3H313c0.2-0.9,0.2-1.8,0.2-3V41.4h-1.3c-0.9,0-1.5,0.1-2.3,0.2V39.1z"/>
			<path class="st1" d="M323.6,58.7c0.2-1,0.2-1.7,0.2-3V42c0-1.1-0.1-1.9-0.2-3c0.9,0.1,1.7,0.1,2.9,0.1h5.2c4.1,0,6.3,2.1,6.3,5.7
				c0,3.9-2.4,6.1-6.5,6.1h-5.4v4.8c0,1.3,0.1,2.1,0.2,3H323.6z M331.5,48.8c2.6,0,4-1.4,4-3.9c0-2.4-1.4-3.7-4-3.7h-5.4v7.6H331.5z
				"/>
		</g>
		<path class="st0" d="M293.4,56.4c-0.8-2.6-1.2-5.4-1.2-8.3c0-16.2,13.1-29.3,29.3-29.3s29.3,13.1,29.3,29.3s-13.1,29.3-29.3,29.3
			c-3.4,0-6.7-0.6-9.8-1.7"/>
		<line class="st2" x1="292.1" y1="67.6" x2="306.7" y2="67.6"/>
		<line class="st2" x1="299.4" y1="74.9" x2="299.4" y2="60.2"/>
	</g>
	<line class="st0" x1="414.8" y1="47.3" x2="368.3" y2="47.3"/>
	<line class="st0" x1="414.8" y1="152.8" x2="368.3" y2="152.8"/>
</g>
<g>
	<g>
		<line class="st0" x1="29.5" y1="37.3" x2="29.5" y2="40.8"/>
		<line class="st3" x1="29.5" y1="45" x2="29.5" y2="51.4"/>
		<line class="st0" x1="29.5" y1="53.5" x2="29.5" y2="57"/>
	</g>
</g>
</svg>
