<?xml version="1.0" encoding="utf-8"?>
<!-- Generator: Adobe Illustrator 22.1.0, SVG Export Plug-In . SVG Version: 6.00 Build 0)  -->
<!DOCTYPE svg PUBLIC "-//W3C//DTD SVG 1.1//EN" "http://www.w3.org/Graphics/SVG/1.1/DTD/svg11.dtd" [
	<!ENTITY st0 "fill:#727272;">
]>
<svg version="1.1" id="レイヤー_21" xmlns="http://www.w3.org/2000/svg" xmlns:xlink="http://www.w3.org/1999/xlink" x="0px"
	 y="0px" viewBox="0 0 669.9 309.2" style="enable-background:new 0 0 669.9 309.2;" xml:space="preserve">
<g>
	<rect x="276" y="142.5" style="&st0;" width="94.6" height="2"/>
	<polygon style="&st0;" points="344.8,171.5 343.4,170 369.9,143.5 343.4,116.9 344.8,115.5 372.8,143.5 	"/>
</g>
<g>
	<path style="&st0;" d="M640.1,309.2c-16.4,0-29.8-13.3-29.8-29.8s13.3-29.8,29.8-29.8s29.8,13.3,29.8,29.8S656.5,309.2,640.1,309.2
		z M640.1,251.7c-15.3,0-27.8,12.4-27.8,27.8s12.4,27.8,27.8,27.8s27.8-12.4,27.8-27.8S655.4,251.7,640.1,251.7z"/>
	<polygon style="&st0;" points="633.5,290.5 623,282.6 624.2,281 633.4,287.9 656.1,267.3 657.4,268.7 	"/>
</g>
<path style="&st0;" d="M600.9,292.4H499c-11.4,0-20.7-9.3-20.7-20.7v-251C478.3,9.3,487.6,0,499,0h126.7c11.4,0,20.7,9.3,20.7,20.7
	v220.1h-2V20.7c0-10.3-8.4-18.7-18.7-18.7H499c-10.3,0-18.7,8.4-18.7,18.7v251c0,10.3,8.4,18.7,18.7,18.7h101.9V292.4z"/>
<path style="&st0;" d="M635.8,255.2"/>
<polygon style="&st0;" points="607,256.2 488,256.2 488,31.4 636.8,31.4 636.8,241 634.8,241 634.8,33.4 490,33.4 490,254.2 
	607,254.2 "/>
<path style="&st0;" d="M562.4,286.6c-7,0-12.8-5.7-12.8-12.8s5.7-12.8,12.8-12.8s12.8,5.7,12.8,12.8S569.4,286.6,562.4,286.6z
	 M562.4,263.1c-5.9,0-10.8,4.8-10.8,10.8s4.8,10.8,10.8,10.8c5.9,0,10.8-4.8,10.8-10.8S568.3,263.1,562.4,263.1z"/>
<rect x="551.5" y="15.8" style="&st0;" width="21.8" height="2"/>
<rect x="514" y="68.9" style="&st0;" width="10.5" height="2"/>
<rect x="514" y="98.1" style="&st0;" width="10.5" height="2"/>
<rect x="514" y="127.3" style="&st0;" width="10.5" height="2"/>
<rect x="514" y="156.5" style="&st0;" width="10.5" height="2"/>
<rect x="514" y="214.8" style="&st0;" width="10.5" height="2"/>
<rect x="541.1" y="68.9" style="&st0;" width="70.8" height="2"/>
<rect x="541.1" y="98.1" style="&st0;" width="70.8" height="2"/>
<rect x="541.1" y="127.3" style="&st0;" width="70.8" height="2"/>
<rect x="541.1" y="156.5" style="&st0;" width="70.8" height="2"/>
<rect x="541.1" y="214.8" style="&st0;" width="70.8" height="2"/>
<rect x="514" y="185.7" style="&st0;" width="10.5" height="2"/>
<rect x="541.1" y="185.7" style="&st0;" width="70.8" height="2"/>
<path style="&st0;" d="M147.4,292.4H20.7C9.3,292.4,0,283.1,0,271.7v-251C0,9.3,9.3,0,20.7,0h126.7c11.4,0,20.7,9.3,20.7,20.7v251
	C168.1,283.1,158.8,292.4,147.4,292.4z M20.7,2C10.4,2,2,10.4,2,20.7v251c0,10.3,8.4,18.7,18.7,18.7h126.7
	c10.3,0,18.7-8.4,18.7-18.7v-251c0-10.3-8.4-18.7-18.7-18.7H20.7z"/>
<path style="&st0;" d="M158.4,256.2H9.7V31.4h148.7V256.2z M11.7,254.2h144.7V33.4H11.7V254.2z"/>
<path style="&st0;" d="M84,286.6c-7,0-12.8-5.7-12.8-12.8S77,261.1,84,261.1s12.8,5.7,12.8,12.8S91.1,286.6,84,286.6z M84,263.1
	c-5.9,0-10.8,4.8-10.8,10.8s4.8,10.8,10.8,10.8c5.9,0,10.8-4.8,10.8-10.8S90,263.1,84,263.1z"/>
<rect x="73.1" y="15.8" style="&st0;" width="21.8" height="2"/>
<rect x="35.7" y="68.9" style="&st0;" width="10.5" height="2"/>
<rect x="35.7" y="98.1" style="&st0;" width="10.5" height="2"/>
<rect x="35.7" y="127.3" style="&st0;" width="10.5" height="2"/>
<rect x="35.7" y="156.5" style="&st0;" width="10.5" height="2"/>
<rect x="35.7" y="185.7" style="&st0;" width="10.5" height="2"/>
<rect x="35.7" y="214.8" style="&st0;" width="10.5" height="2"/>
</svg>
