<?xml version="1.0" encoding="utf-8"?>
<!-- Generator: Adobe Illustrator 22.1.0, SVG Export Plug-In . SVG Version: 6.00 Build 0)  -->
<!DOCTYPE svg PUBLIC "-//W3C//DTD SVG 1.1//EN" "http://www.w3.org/Graphics/SVG/1.1/DTD/svg11.dtd" [
	<!ENTITY st0 "fill:#727272;">
]>
<svg version="1.1" id="レイヤー_21" xmlns="http://www.w3.org/2000/svg" xmlns:xlink="http://www.w3.org/1999/xlink" x="0px"
	 y="0px" viewBox="0 0 668 167.8" style="enable-background:new 0 0 668 167.8;" xml:space="preserve">
<g>
	<path style="&st0;" d="M182.6,2v163.8H2V2H182.6 M184.6,0H0v167.8h184.6V0L184.6,0z"/>
	<path style="&st0;" d="M423.3,2v163.8H242.7V2H423.3 M425.3,0H240.7v167.8h184.6V0L425.3,0z"/>
	<path style="&st0;" d="M666,2v163.8H485.4V2H666 M668,0H483.4v167.8H668V0L668,0z"/>
	<g>
		<rect x="122.8" y="83.1" style="&st0;" width="358.3" height="2"/>
		<polygon style="&st0;" points="441.7,125.9 440.3,124.5 480.7,84.1 440.3,43.7 441.7,42.2 483.5,84.1 		"/>
	</g>
	<g>
		<path style="&st0;" d="M609.1,146.7h-66.9c-0.6,0-1-0.4-1-1v-31c0-0.6,0.4-1,1-1h66.9c0.6,0,1,0.4,1,1v31
			C610.1,146.3,609.6,146.7,609.1,146.7z M543.1,144.7h64.9v-29h-64.9V144.7z"/>
		<path style="&st0;" d="M609.1,115.7h-66.9c-0.6,0-1-0.4-1-1V91.1c0-0.6,0.4-1,1-1h66.9c0.6,0,1,0.4,1,1v23.6
			C610.1,115.3,609.6,115.7,609.1,115.7z M543.1,113.7h64.9V92.1h-64.9V113.7z"/>
		<path style="&st0;" d="M609.1,92.1h-66.9c-0.6,0-1-0.4-1-1l0-6.4l-10.6,0c-0.6,0-1-0.4-1-1v-60c0-0.6,0.4-1,1-1h90.2
			c0.6,0,1,0.4,1,1v60c0,0.6-0.4,1-1,1l-10.6,0l0,6.4C610.1,91.7,609.6,92.1,609.1,92.1z M543.1,90.1h64.9l0-6.4c0-0.6,0.4-1,1-1
			l10.6,0v-58h-88.2v58l10.6,0c0.6,0,1,0.4,1,1L543.1,90.1z"/>
		<path style="&st0;" d="M637.2,146.7h-28.1c-0.6,0-1-0.4-1-1v-62c0-0.6,0.4-1,1-1h28.1c0.6,0,1,0.4,1,1v62
			C638.2,146.3,637.7,146.7,637.2,146.7z M610.1,144.7h26.1v-60h-26.1V144.7z"/>
		<path style="&st0;" d="M542.1,146.7H514c-0.6,0-1-0.4-1-1v-62c0-0.6,0.4-1,1-1h28.1c0.6,0,1,0.4,1,1v62
			C543.1,146.3,542.7,146.7,542.1,146.7z M515,144.7h26.1v-60H515V144.7z"/>
	</g>
	<g>
		<path style="&st0;" d="M91.2,117.2c-17.9,0-32.4-14.6-32.4-32.4s14.6-32.4,32.4-32.4c17.9,0,32.4,14.6,32.4,32.4
			S109.1,117.2,91.2,117.2z M91.2,54.3c-16.8,0-30.4,13.7-30.4,30.4s13.7,30.4,30.4,30.4s30.4-13.7,30.4-30.4S108,54.3,91.2,54.3z"
			/>
		<polygon style="&st0;" points="84,96.8 72.5,88.2 73.7,86.6 83.8,94.2 108.7,71.5 110,73 		"/>
	</g>
</g>
</svg>
