<?xml version="1.0" encoding="utf-8"?>
<!-- Generator: Adobe Illustrator 22.1.0, SVG Export Plug-In . SVG Version: 6.00 Build 0)  -->
<!DOCTYPE svg PUBLIC "-//W3C//DTD SVG 1.1//EN" "http://www.w3.org/Graphics/SVG/1.1/DTD/svg11.dtd" [
	<!ENTITY st0 "fill:#727272;">
]>
<svg version="1.1" id="編集モード" xmlns="http://www.w3.org/2000/svg" xmlns:xlink="http://www.w3.org/1999/xlink" x="0px"
	 y="0px" viewBox="0 0 668.4 184.4" style="enable-background:new 0 0 668.4 184.4;" xml:space="preserve">
<path style="&st0;" d="M474,184.4H198.2c-12.5,0-22.6-10.1-22.6-22.6V22.6c0-12.5,10.1-22.6,22.6-22.6H474
	c12.5,0,22.6,10.1,22.6,22.6v139.2C496.6,174.3,486.4,184.4,474,184.4z M198.2,2c-11.4,0-20.6,9.2-20.6,20.6v139.2
	c0,11.4,9.2,20.6,20.6,20.6H474c11.4,0,20.6-9.2,20.6-20.6V22.6C494.6,11.2,485.3,2,474,2H198.2z"/>
<path style="&st0;" d="M462.1,173.8H215.3V10.6h246.8V173.8z M217.3,171.8h242.8V12.6H217.3V171.8z"/>
<path style="&st0;" d="M195.9,106.1c-7.7,0-13.9-6.2-13.9-13.9s6.2-13.9,13.9-13.9s13.9,6.2,13.9,13.9S203.5,106.1,195.9,106.1z
	 M195.9,80.3c-6.6,0-11.9,5.3-11.9,11.9s5.3,11.9,11.9,11.9s11.9-5.3,11.9-11.9S202.4,80.3,195.9,80.3z"/>
<rect x="477.3" y="80.2" style="&st0;" width="2" height="23.9"/>
<path style="&st0;" d="M336,134.7c-23.9,0-43.3-19.4-43.3-43.3S312.1,48,336,48c23.9,0,43.3,19.4,43.3,43.3S359.9,134.7,336,134.7z
	 M336,50c-22.8,0-41.3,18.5-41.3,41.3s18.5,41.3,41.3,41.3c22.8,0,41.3-18.5,41.3-41.3S358.8,50,336,50z"/>
<polygon style="&st0;" points="335.9,92.5 310.6,73.5 311.8,71.9 336.1,90.2 361,79.3 361.8,81.2 "/>
<polygon style="&st0;" points="528.7,110.1 527.2,108.7 589.8,44.1 613.6,94.1 667,38.9 668.4,40.3 613,97.6 589.2,47.6 "/>
<polygon style="&st0;" points="139.8,110.1 79.2,47.6 55.4,97.6 0,40.3 1.4,38.9 54.9,94.1 78.6,44.1 141.2,108.7 "/>
</svg>
