<?xml version="1.0" encoding="utf-8"?>
<!-- Generator: Adobe Illustrator 22.1.0, SVG Export Plug-In . SVG Version: 6.00 Build 0)  -->
<!DOCTYPE svg PUBLIC "-//W3C//DTD SVG 1.1//EN" "http://www.w3.org/Graphics/SVG/1.1/DTD/svg11.dtd" [
	<!ENTITY st0 "fill:#727272;">
]>
<svg version="1.1" id="編集モード" xmlns="http://www.w3.org/2000/svg" xmlns:xlink="http://www.w3.org/1999/xlink" x="0px"
	 y="0px" viewBox="0 0 668.9 247.6" style="enable-background:new 0 0 668.9 247.6;" xml:space="preserve">
<g>
	<g>
		<path style="&st0;" d="M602.1,194.5c-5.3,0-8.7-0.6-8.8-0.6l-154.4-32.3l-0.1-0.1c-0.2-0.1-23.9-11.7-15.2-32.5
			c8.6-20.9,29.9-15.6,30.1-15.5l65,13.6l23.1-8.1l6.1-32.2L522.8,62l-121.1,41.5c-0.3,0.1-6.5,1.3-13.5-0.1
			c-9.3-1.9-15.3-7.8-17.2-17c-4.6-21.9,15.6-28.4,15.8-28.4L555.2,0.5l0,0c6.3-2.2,10.8,3,11.3,3.6l80.6,79.9
			c0.3,0.3,37.5,32,14,75C644.1,190.2,616.2,194.5,602.1,194.5z M439.5,159.6l154.1,32.3c0.4,0.1,43.1,7.7,65.8-33.9
			c22.7-41.6-13.2-72.2-13.6-72.5L565,5.5c-0.2-0.2-3.9-4.8-9.2-3l0,0L387.4,59.9c-0.8,0.2-18.7,6-14.5,26.1
			c1.8,8.5,7,13.7,15.7,15.4c6.2,1.3,12,0.2,12.6,0.1l122.1-41.8l26.8,26.4l-6.6,34.3l-24.7,8.7l-65.6-13.7
			c-0.9-0.2-19.9-4.9-27.8,14.3c-3.3,8-2,15.4,4,22.1C433.5,156.6,438.7,159.3,439.5,159.6z"/>
		<path style="&st0;" d="M454.4,36.7l-1.8-0.9l14-26c1.9-3.4,5.6-3,6.2-3l57.5,2.2l-0.1,2l-57.6-2.3c-0.1,0-2.9-0.4-4.2,1.9
			L454.4,36.7z"/>
		<path style="&st0;" d="M436.3,43l-1.8-0.9L444.8,23c1.9-3.4,5.6-3,6.2-3l10.8,0.4l-0.1,2l-11-0.4c-0.1,0-2.9-0.4-4.2,1.9L436.3,43
			z"/>
		<path style="&st0;" d="M360.8,176c-16,0-21.4-16.3-21.4-16.4l0-0.2l-3.6-42.5l0-0.1c0.2-5.4,5.6-7.2,6.4-7.4l33.4-15.7l0.8,1.8
			l-33.6,15.7c-0.2,0.1-4.8,1.4-5,5.5l3.5,42.2c0.5,1.6,6.6,18.2,24.6,14.4l57.8-28.7l0.9,1.8l-58,28.8l-0.1,0
			C364.5,175.8,362.6,176,360.8,176z"/>
		<path style="&st0;" d="M480.5,120.9l-1-1.8l15.4-8.3c0.6-0.6,4.6-4.5,2.3-9.8L486,73.6l1.9-0.8l11.2,27.5
			c3.1,6.9-2.8,12.1-2.9,12.2l-0.2,0.1L480.5,120.9z"/>
		<path style="&st0;" d="M339.6,159.7c0-0.1-2-8.2,6.4-13.2L470.2,86c4.4-3.2,15.1-6.5,24.4,3.5l-1.5,1.4
			c-10.4-11.3-21.4-3.6-21.8-3.2l-0.2,0.1L347,148.2c-7,4.2-5.5,10.9-5.4,11L339.6,159.7z"/>
	</g>
	<path style="&st0;" d="M79.2,247.6c-8.5,0-13.7-6.4-13.8-6.5l-36.3-50.3c-0.2-0.3-4.4-6.5-3.1-13.9c0.9-4.7,3.8-8.8,8.7-12.2
		c0.2-0.1,14-8,24,5.8l35.1,48.7c7.7,12.7,0.1,22.2-4.9,25.5C85.4,246.8,82.1,247.6,79.2,247.6z M44.1,164.3c-4.5,0-7.9,2-8.2,2.1
		c-4.4,3-7.1,6.7-7.8,10.8c-1.2,6.6,2.7,12.3,2.7,12.4L67,239.9c0.3,0.4,8.4,10.2,20.9,3.3c0.5-0.3,12.8-8.6,4.3-22.7l-35.1-48.7
		C53,165.9,48.1,164.3,44.1,164.3z"/>
	<path style="&st0;" d="M161.2,241.6c-9.5,0-15.2-7.2-15.3-7.3l-32.5-44.8c-0.2-0.3-4.9-7-3.4-15.2c1-5.3,4.2-9.9,9.8-13.7
		c5.4-3.2,17.8-6,26.8,6.4l0,0l31.2,43c10.7,17.9-5.3,28.4-5.5,28.5C168.2,240.8,164.5,241.6,161.2,241.6z M130.3,159.9
		c-0.4,0-0.8,0-1.2,0c-4.7,0.3-8.2,2.4-8.2,2.4c-5,3.5-8,7.6-8.9,12.3c-1.3,7.3,3,13.6,3,13.7l32.5,44.8c0.4,0.5,9.4,11.7,23.7,3.6
		c0.5-0.4,14.5-9.6,4.9-25.7L145,168.2C141,162.7,136,159.9,130.3,159.9z"/>
	<path style="&st0;" d="M197.8,227.4c-3.3,0-6-0.8-8.1-1.8c-4.5-2.1-7-5.3-7.1-5.5l-12.4-17.8c-0.2-0.3-4.8-7-3.4-15.2
		c1-5.3,4.2-9.9,9.8-13.7c0.2-0.1,15.5-9.1,26.8,6.4l0,0l11,15.9c8.6,14.3,0.1,24.9-5.5,28.5C204.7,226.6,201,227.4,197.8,227.4z
		 M187,172.7c-5.1,0-9,2.3-9.3,2.5c-5,3.4-8,7.6-8.9,12.3c-1.3,7.3,3,13.6,3,13.7l12.3,17.7c0.3,0.4,9.4,11.7,23.7,3.6
		c0.5-0.4,14.5-9.6,4.9-25.7l-11-15.8C197,174.5,191.5,172.7,187,172.7z"/>
	<path style="&st0;" d="M118.8,242.8c-3,0-5.6-0.8-7.5-1.7c-4.1-2-6.5-4.9-6.6-5l-47.3-64.5c-0.2-0.3-4.4-6.5-3-14
		c0.9-4.8,3.9-9,8.9-12.4c4.9-2.9,16.2-5.4,24.3,5.8l46.3,62.9c9.8,16.2-5,26-5.1,26.1C125.1,242,121.7,242.8,118.8,242.8z
		 M72.7,144.6c-4.6,0-8.1,2-8.4,2.2c-4.5,3.1-7.2,6.8-8,11.1c-1.2,6.7,2.7,12.4,2.7,12.5l47.2,64.4c0.3,0.4,8.6,10.6,21.5,3.5
		c0.5-0.3,13.2-8.8,4.5-23.3l-46.3-62.9C81.7,146.2,76.7,144.6,72.7,144.6z"/>
	<path style="&st0;" d="M26.6,177.5L7.3,151c-0.3-0.4-5.9-9.5-7.1-24.3C-0.9,113,1.7,91.8,20.4,68c0.2-0.3,25.8-35.9,68.9-29.9
		l134.9,30.3c0.6,0.2,13.7,3.7,12.5,12.1c-0.1,0.9-0.9,10.3-12.2,14.3l-0.7-1.9c10.4-3.7,10.9-12.5,10.9-12.5l0-0.1
		c1-6.7-10.9-9.9-11-9.9L89,40.1C47.2,34.3,22.3,68.8,22,69.2c-18.4,23.3-20.9,44-19.8,57.3c1.2,14.3,6.7,23.3,6.8,23.4l19.2,26.5
		L26.6,177.5z"/>
	<path style="&st0;" d="M212.8,196.6l0-2l85.3-0.9c16.2-2.2,15.8-17.9,15.7-19.5L292,106.1c-4.2-13.3-22.1-11.7-22.3-11.6L72.4,96.5
		c-0.5,0-12.3-0.4-17.4,11.6l-14.2,56.1l-1.9-0.5l14.2-56.4c5.6-13.4,19.1-12.9,19.3-12.9l197.2-2.1c0.1,0,19.6-1.8,24.3,13
		l21.9,68.3l0,0.1c0,0.2,1.2,19.3-17.5,21.8l-0.1,0L212.8,196.6z"/>
	<polygon style="&st0;" points="204.1,183.5 204,181.5 283.2,180.4 261.4,102.9 84.4,104.9 77.7,144.2 75.7,143.9 82.7,102.9 
		262.9,100.9 285.9,182.4 	"/>
	<rect x="157.2" y="181.5" style="&st0;" width="11.8" height="2.9"/>
	<path style="&st0;" d="M62.4,147.1c-0.6,0-1.1,0-1.7-0.1c-2.8-0.4-5.2-1.9-6.9-4.2c-1.6-2.3-2.3-5.1-1.9-7.8
		c0.4-2.8,1.9-5.2,4.2-6.9c2.3-1.6,5.1-2.3,7.8-1.9c5.7,0.9,9.6,6.3,8.7,12.1C71.9,143.4,67.4,147.1,62.4,147.1z M62.3,128
		c-1.8,0-3.5,0.6-5,1.6c-1.8,1.3-3.1,3.3-3.4,5.6v0c-0.4,2.2,0.2,4.5,1.5,6.3c1.3,1.8,3.3,3.1,5.6,3.4c4.6,0.7,9-2.4,9.8-7.1
		c0.7-4.6-2.4-9-7.1-9.8C63.2,128.1,62.8,128,62.3,128z"/>
	<g>
		<path style="&st0;" d="M208.9,161.1c-20-0.4-40.2-0.7-60.1-1.1c-0.2-14-0.6-27.8-0.7-41.8c18.1,0.2,36,0.4,54.2,0.6
			C204.4,132.7,206.7,146.9,208.9,161.1z M152.7,157.1c17.4,0.4,34.6,0.7,51.9,0.9c-1.9-12.3-3.7-24.5-5.4-36.8
			c-15.7-0.2-31.6-0.4-47.3-0.6C151.9,133,152.3,145.2,152.7,157.1z M197.9,131.7c-3.9,0-7.8-0.2-11.8-0.2c-0.4-3-0.7-6-0.9-9
			c3.9,0,7.7,0,11.6,0.2C196.9,125.8,197.3,128.8,197.9,131.7z M189.3,128.9c1.7,0,2.6,0,4.3,0c-0.2-1.3-0.2-2.1-0.4-3.4
			c-1.7,0-2.6,0-4.3,0C189.1,126.9,189.1,127.6,189.3,128.9z M165.8,131.4c-3.9,0-7.8-0.2-11.8-0.2c-0.2-3-0.2-6-0.4-8.8
			c3.9,0,7.7,0,11.6,0.2C165.4,125.4,165.6,128.4,165.8,131.4z M157.5,128.6c1.7,0,2.6,0,4.3,0c0-1.3-0.2-1.9-0.2-3.2
			c-1.7,0-2.6,0-4.3,0C157.5,126.5,157.5,127.3,157.5,128.6z M167.4,156.4c-4.1,0-8.4-0.2-12.5-0.2c-0.2-3-0.2-6-0.4-8.8
			c4.1,0,8.2,0.2,12.3,0.2C167.1,150.4,167.3,153.4,167.4,156.4z M158.7,153.4c1.9,0,2.8,0,4.7,0c0-1.3-0.2-1.9-0.2-3.2
			c-1.9,0-2.8,0-4.5,0C158.5,151.4,158.7,152.1,158.7,153.4z M162.4,137c-0.9,0-1.5,0-2.6,0c0-1.7-0.2-2.4-0.2-4.1
			c-1.9,0-3.7,0-5.6,0c0,1.9,0,2.6,0.2,4.5c1.1,0,1.7,0,3,0l0,0c0,1.7,0.2,2.4,0.2,4.1l0,0c-1.1,0-1.9,0-3,0c0,1.9,0,2.6,0.2,4.5
			c1.9,0,3.9,0,5.8,0.2c0-1.7-0.2-2.4-0.2-4.1c1.1,0,1.5,0,2.6,0c0,1.7,0.2,2.4,0.2,4.1c1.9,0,3.9,0,5.8,0.2
			c-0.2-1.9-0.2-2.6-0.4-4.5c-1.1,0-1.9,0-3,0l0,0c-0.2-1.7-0.2-2.4-0.2-4.1l0,0c1.1,0,1.7,0,3,0c-0.2-1.9-0.2-2.6-0.4-4.5
			c-1.9,0-3.7,0-5.6,0C162.4,134.5,162.4,135.3,162.4,137z M195.8,137.9L195.8,137.9c1.1,0,1.7,0,3,0c-0.2-1.9-0.4-2.6-0.6-4.5
			c-1.9,0-3.7,0-5.6,0c0.2,1.7,0.4,2.4,0.6,4.1c-0.9,0-1.5,0-2.6,0c-0.2-1.7-0.4-2.4-0.6-4.1c-1.9,0-3.7,0-5.6,0
			c0.2,1.9,0.4,2.6,0.6,4.5c1.1,0,1.7,0,3,0l0,0c0.2,1.7,0.4,2.4,0.6,4.1l0,0c-1.1,0-1.9,0-3,0c0.2,1.9,0.4,2.6,0.6,4.5
			c1.9,0,3.9,0,5.8,0.2c-0.2-1.7-0.4-2.4-0.6-4.1c1.1,0,1.5,0,2.6,0c0.2,1.7,0.4,2.4,0.6,4.1c1.9,0,3.9,0,5.8,0.2
			c-0.2-1.9-0.4-2.6-0.6-4.5c-1.1,0-1.9,0-3,0l0,0C196.2,140.3,196,139.6,195.8,137.9z M182.8,129.3c-1.7,0-2.6,0-4.3,0
			c0-0.7-0.2-1.1-0.2-1.9c1.7,0,2.4,0,4.1,0c-0.2-1.7-0.2-2.6-0.4-4.3c-1.9,0-2.8,0-4.5,0c0,0.9,0.2,1.3,0.2,2.2l0,0
			c-1.7,0-2.4,0-4.1,0l0,0c0-0.9-0.2-1.3-0.2-2.2c-1.9,0-2.8,0-4.5,0c0.2,1.7,0.2,2.6,0.4,4.3c1.7,0,2.4,0,4.1,0
			c0,0.7,0,1.1,0.2,1.9c-1.7,0-2.6,0-4.3,0c0.2,1.5,0.2,2.2,0.2,3.7c0,0,0,0-0.2,0c0.2,1.9,0.2,2.6,0.4,4.5c1.1,0,1.7,0,3,0l0,0
			c0.2,1.7,0.2,2.4,0.4,4.1l0,0c-1.1,0-1.9,0-3,0c0.2,1.9,0.2,2.6,0.4,4.5c0,0,0,0,0.2,0c0.2,1.5,0.2,2.2,0.2,3.7c1.9,0,2.6,0,4.5,0
			c0,0.7,0,1.1,0.2,1.9c-1.9,0-2.6,0-4.5,0c0.2,1.7,0.2,2.6,0.4,4.3c1.7,0,3.4,0,5,0c0-0.9-0.2-1.3-0.2-2.2l0,0c1.9,0,2.6,0,4.5,0
			l0,0c0,0.9,0.2,1.3,0.2,2.2c1.7,0,3.4,0,5,0c-0.2-1.7-0.2-2.6-0.4-4.3c-1.9,0-2.6,0-4.5,0c0-0.7-0.2-1.1-0.2-1.9
			c1.9,0,2.6,0,4.5,0c-0.2-1.5-0.2-2.2-0.4-3.7l0,0c-0.2-1.9-0.4-2.6-0.6-4.5c-1.1,0-1.9,0-3,0l0,0c-0.2-1.7-0.2-2.4-0.4-4.1l0,0
			c1.1,0,1.7,0,3,0c-0.2-1.9-0.4-2.6-0.6-4.5l0,0C182.9,131.7,182.9,131,182.8,129.3z M179.8,148L179.8,148c-1.9,0-2.8,0-4.5,0l0,0
			c0-0.7,0-1.1-0.2-1.7c0.4,0,0.6,0,0.9,0c-0.2-1.7-0.2-2.4-0.4-4.1c1.1,0,1.5,0,2.6,0c0.2,1.7,0.2,2.4,0.4,4.1c0.4,0,0.6,0,0.9,0
			C179.8,147.1,179.8,147.2,179.8,148z M174,131.4L174,131.4c1.7,0,2.6,0,4.3,0l0,0c0,0.7,0.2,1.1,0.2,1.7c-0.4,0-0.6,0-0.9,0
			c0.2,1.7,0.2,2.4,0.4,4.1c-0.9,0-1.5,0-2.6,0c-0.2-1.7-0.2-2.4-0.4-4.1c-0.4,0-0.6,0-0.9,0C174,132.5,174,132.1,174,131.4z
			 M199.6,149.5c-3.2,0-6.3-0.2-9.3-0.2c0.2,2.2,0.6,4.5,0.7,6.7c3.2,0,6.3,0.2,9.5,0.2C200.1,154,199.9,151.7,199.6,149.5z"/>
	</g>
</g>
</svg>
