<?xml version="1.0" encoding="utf-8"?>
<!-- Generator: Adobe Illustrator 22.1.0, SVG Export Plug-In . SVG Version: 6.00 Build 0)  -->
<!DOCTYPE svg PUBLIC "-//W3C//DTD SVG 1.1//EN" "http://www.w3.org/Graphics/SVG/1.1/DTD/svg11.dtd" [
	<!ENTITY st0 "fill:#DCDCDC;">
	<!ENTITY st1 "fill:#707070;">
	<!ENTITY st2 "fill:none;stroke:#E6E6E6;stroke-width:2;stroke-miterlimit:10;">
	<!ENTITY st3 "fill:none;stroke:#707070;stroke-width:2;stroke-miterlimit:10;">
]>
<svg version="1.1" id="レイヤー_1" xmlns="http://www.w3.org/2000/svg" xmlns:xlink="http://www.w3.org/1999/xlink" x="0px"
	 y="0px" viewBox="0 0 530.9 65.6" style="enable-background:new 0 0 530.9 65.6;" xml:space="preserve">
<path style="&st0;" d="M525.9,65.6H5c-2.8,0-5-2.2-5-5V5c0-2.8,2.2-5,5-5h520.9c2.8,0,5,2.2,5,5v55.6
	C530.9,63.4,528.7,65.6,525.9,65.6z"/>
<g>
	<circle style="&st1;" cx="494.3" cy="32.8" r="18"/>
	<g>
		<g>
			<line style="&st2;" x1="484" y1="22.5" x2="504.7" y2="43.1"/>
			<line style="&st2;" x1="504.7" y1="22.5" x2="484" y2="43.1"/>
		</g>
	</g>
</g>
<g>
	<path style="&st3;" d="M45.8,29.1c0,3.5-1.4,6.7-3.7,9c-2.3,2.3-5.5,3.7-9,3.7c-7,0-12.7-5.7-12.7-12.7s5.7-12.7,12.7-12.7
		S45.8,22.1,45.8,29.1z"/>
	<line style="&st3;" x1="52.3" y1="49.2" x2="41.6" y2="38.5"/>
</g>
<g>
	<path d="M80.1,28.6c2.8,1.2,5,2.3,7.6,3.9l-1.2,2c-2.2-1.6-4.9-3.1-7.6-4.1L80.1,28.6z M79.3,42.3c2,0,5.1-0.7,8.1-1.9
		c3.7-1.4,6.6-3.5,9-6.7c1.7-2.2,2.7-4.1,3.6-6.7c0.7,0.8,1,1,1.9,1.6c-2.6,6.2-6.3,10.3-11.5,12.9c-2.1,1-5.1,2.1-7.6,2.6
		c-0.5,0.1-1,0.2-1.6,0.3s-0.7,0.2-1.2,0.3L79.3,42.3z M82.4,21.4c2.9,1.2,4.9,2.2,7.4,3.8l-1.2,2c-2.1-1.5-5.2-3.2-7.4-4L82.4,21.4
		z"/>
	<path d="M121,46c0.1-0.7,0.2-1.5,0.2-2.5v-7.6c0-0.1,0-0.2,0-0.4c0-0.3,0-0.3,0-0.5c0-0.2,0-0.2,0-0.3c-1.9,1.4-5.8,3.1-10.1,4.4
		c-0.4-1-0.5-1.3-1.1-2c3.6-0.9,5.8-1.7,8.7-3.1c3.8-1.9,7.2-4.3,10.1-7.4c-0.8,0.1-1.3,0.1-1.7,0.1l-11.5,0.1c-1.3,0-2.1,0-2.9,0.1
		v-2.2c0.8,0.2,1.6,0.2,2.9,0.2h5.6v-2.7c0-1,0-1.4-0.1-2h2.4c-0.1,0.6-0.1,1.1-0.1,2v2.8h6.3c0.6,0,0.9-0.1,1.3-0.2l1.1,1.3
		c-0.5,0.4-0.5,0.5-0.8,0.8c-2,2.4-3.6,3.8-7,6.2c4.6,1.8,7.2,3,11,5.2l-1.2,2c-2.5-1.7-5.1-3.1-9.9-5.2c-0.1-0.1-0.4-0.2-0.9-0.5
		c0.1,0.5,0.1,0.8,0.1,1.5v7.4c0,1.3,0,1.8,0.1,2.6H121z"/>
	<path d="M149.1,30.5c2.2,1.9,3.4,2.9,6.1,5.7c1.3-1.1,2.9-2.5,4-3.7c1.6-1.7,3.7-4.4,4.9-6.5c0.1-0.1,0.1-0.2,0.2-0.4
		c-0.4,0-0.4,0-17.1,0.1c-1.6,0-2.5,0-3.5,0.1v-2.4c1,0.2,1.8,0.2,3.5,0.2h17.5c1,0,1.2,0,1.7-0.2l1.3,1.5c-0.4,0.4-0.6,0.6-1.2,1.6
		c-2.9,4.6-6.1,8.2-9.9,11.2c1.1,1.2,2.4,2.8,4.4,5.5l-1.8,1.5c-2.7-4.3-7.2-9.3-11.7-12.9L149.1,30.5z"/>
	<path d="M193.1,26.8v-2.9c0-2.1,0-2.4-0.1-3h2.3c-0.1,0.8-0.1,0.8-0.1,2.8c0,0.7,0,0.7,0,3.1h2.6c1.8,0,2.4,0,3.5-0.2v2.3
		c-1-0.1-1.9-0.2-3.5-0.2h-2.6c-0.1,6.1-0.4,8-1.5,10.2c-1,2-2.7,3.7-4.9,4.9c-1,0.6-1.8,0.9-3.5,1.5c-0.4-0.8-0.6-1.2-1.3-1.9
		c2.6-0.8,4.1-1.5,5.7-2.9c2.1-1.9,2.9-3.9,3.2-7.5c0.1-1,0.1-1.9,0.1-4.3h-9.1v5c0,1.3,0,1.7,0.1,2.4h-2.4c0.1-0.7,0.1-1.2,0.1-2.5
		v-4.9h-2.5c-1.6,0-2.5,0-3.5,0.2v-2.3c1.1,0.2,1.7,0.2,3.5,0.2h2.5v-3.4c0-1.3,0-1.8-0.1-2.5h2.4c-0.1,0.8-0.1,1-0.1,2.4v3.5H193.1
		z"/>
	<path d="M210.8,41.9c2.3-0.1,5.9-1,8.7-2.3c5.8-2.6,9.8-7,12.2-13.3c0.7,0.9,1,1.2,1.8,1.8c-2.4,5.2-5.2,8.7-9.1,11.5
		c-3.1,2.1-6.2,3.3-11.2,4.5c-0.8,0.2-1.1,0.2-1.8,0.5L210.8,41.9z M212.7,23.3c3.2,2,5.1,3.5,7.2,5.6l-1.6,1.9
		c-2.2-2.3-4.5-4.3-7.1-5.9L212.7,23.3z"/>
	<path d="M245.1,28.6c2.8,1.2,5,2.3,7.6,3.9l-1.2,2c-2.2-1.6-4.9-3.1-7.6-4.1L245.1,28.6z M244.3,42.3c2,0,5.1-0.7,8.1-1.9
		c3.7-1.4,6.6-3.5,9-6.7c1.7-2.2,2.7-4.1,3.6-6.7c0.7,0.8,1,1,1.9,1.6c-2.6,6.2-6.3,10.3-11.5,12.9c-2.1,1-5.1,2.1-7.6,2.6
		c-0.5,0.1-1,0.2-1.6,0.3s-0.7,0.2-1.2,0.3L244.3,42.3z M247.4,21.4c2.9,1.2,4.9,2.2,7.4,3.8l-1.2,2c-2.1-1.5-5.2-3.2-7.4-4
		L247.4,21.4z"/>
	<path d="M282.3,28.1c-0.3-1.5-0.3-1.6-0.6-2.2l2.2-0.3c0,0.6,0,0.7,0.3,2.2l0.5,2.6l10.1-1.7c0.7-0.1,0.9-0.2,1.3-0.4l1.3,1.1
		c-0.3,0.4-0.4,0.6-0.7,1.3c-1.3,3-3.1,5.2-5.8,7c-0.6-0.6-0.8-0.8-1.6-1.3c2.6-1.5,4.1-3.1,5.4-5.8c0-0.1,0.1-0.2,0.1-0.3
		c-0.3,0.1-0.3,0.1-0.8,0.2l-8.9,1.5l2.2,11.3c0.3,1.7,0.3,1.7,0.6,2.4l-2.3,0.4c0-0.7-0.1-1.4-0.3-2.4l-2.1-11.4l-3,0.5
		c-1.3,0.2-1.8,0.3-2.6,0.6l-0.4-2.1c1,0,1.5-0.1,2.8-0.3l2.9-0.5L282.3,28.1z"/>
	<path d="M331.1,22.1c-0.5,0.4-0.6,0.4-1.3,1.3c-1.9,2-4.4,4.2-7,6v12.8c0,1.7,0,2.4,0.1,3.2h-2.6c0.1-0.8,0.2-1.5,0.2-3.1V30.9
		c-3.9,2.4-6.1,3.4-11.6,5.2c-0.4-1-0.6-1.3-1.2-2c5.6-1.5,10.8-4,15.6-7.8c2.8-2.2,4.9-4.3,5.7-5.7L331.1,22.1z"/>
	<path d="M342.8,41.9c2.3-0.1,5.9-1,8.7-2.3c5.8-2.6,9.8-7,12.2-13.3c0.7,0.9,1,1.2,1.8,1.8c-2.4,5.2-5.2,8.7-9.1,11.5
		c-3.1,2.1-6.2,3.3-11.2,4.5c-0.8,0.2-1.1,0.2-1.8,0.5L342.8,41.9z M344.7,23.3c3.2,2,5.1,3.5,7.2,5.6l-1.6,1.9
		c-2.2-2.3-4.5-4.3-7.1-5.9L344.7,23.3z"/>
</g>
</svg>
