<?xml version="1.0" encoding="utf-8"?>
<!-- Generator: Adobe Illustrator 22.1.0, SVG Export Plug-In . SVG Version: 6.00 Build 0)  -->
<!DOCTYPE svg PUBLIC "-//W3C//DTD SVG 1.1//EN" "http://www.w3.org/Graphics/SVG/1.1/DTD/svg11.dtd" [
	<!ENTITY st0 "fill:#727272;">
]>
<svg version="1.1" id="レイヤー_21" xmlns="http://www.w3.org/2000/svg" xmlns:xlink="http://www.w3.org/1999/xlink" x="0px"
	 y="0px" viewBox="0 0 669.5 174.8" style="enable-background:new 0 0 669.5 174.8;" xml:space="preserve">
<g>
	<rect x="251.1" y="66.1" style="&st0;" width="54.3" height="2"/>
	<rect x="251.1" y="110.9" style="&st0;" width="54.3" height="2"/>
</g>
<path style="&st0;" d="M669.5,174.8H364.8V68.6l24.6-24.7h-24.6V0.1h304.7V174.8z M366.8,172.8h300.7V2.1H366.8v39.8h27.5
	l-27.5,27.5V172.8z"/>
<g>
	<rect x="421.4" y="121.1" style="&st0;" width="2" height="27"/>
	<rect x="421.4" y="75.4" style="&st0;" width="2" height="27"/>
	<rect x="421.4" y="29.7" style="&st0;" width="2" height="27"/>
</g>
<g>
	<g>
		<path d="M465.4,113.1c0.2-1.6,0.3-3.1,0.3-5.1v-4.5H460c-1.8,0-2.7,0.1-4.1,0.4v-3.4c1.3,0.3,2.3,0.4,4.1,0.4h5.7v-2.2l-1.5-2.7
			H460c-1.8,0-2.7,0.1-4.1,0.4v-3.4c1.3,0.3,2.3,0.4,4.1,0.4h2.7l-6-10.9c-1.1-2.1-1.8-3.1-2.3-4h4.2c0.3,1.1,0.7,1.9,1.9,4.2
			l6.8,12.9l6.8-12.9c1.1-2.2,1.6-3.2,1.9-4.2h4.2c-0.5,0.8-1.4,2.1-2.4,4l-6,10.9h2.7c1.8,0,2.8-0.1,4.1-0.4v3.4
			c-1.3-0.3-2.4-0.4-4.1-0.4h-4.2l-1.6,2.8v2.2h5.7c1.7,0,2.7-0.1,4.1-0.4v3.4c-1.3-0.3-2.4-0.4-4.1-0.4h-5.7v4.5
			c0,2.3,0.1,3.5,0.3,5.1H465.4z"/>
		<path d="M489.3,60.3c1.5,0.3,2.6,0.3,4.9,0.3h3.7c2,0,2.9-0.1,4.9-0.3c-0.4,4.2-0.5,7.7-0.5,11.4v33.4c0,3.2,0.1,5.2,0.5,7.8h-5.6
			c0.4-2.4,0.5-4.6,0.5-7.8V65.4h-3.2c-1.9,0-3.4,0.1-5.1,0.4V60.3z"/>
		<path d="M521.2,113c0,5.1-0.7,6.7-3.7,8.9l-1.6-2.3c2.4-1.3,2.8-2.3,2.8-6.6h-3.4v-6.8h5.8V113z"/>
		<path d="M527.7,60.3c1.5,0.3,2.6,0.3,4.9,0.3h3.7c2,0,2.9-0.1,4.9-0.3c-0.4,4.2-0.5,7.7-0.5,11.4v33.4c0,3.2,0.1,5.2,0.5,7.8h-5.6
			c0.4-2.4,0.5-4.6,0.5-7.8V65.4h-3.2c-1.9,0-3.4,0.1-5.1,0.4V60.3z"/>
		<path d="M560.5,109.1c-1.6-1.9-2.8-4-3.5-6.3c-1.5-4.8-2.2-10.3-2.2-15.9c0-7.3,1.3-14.7,3.4-18.7c2.8-5.6,7.3-8.5,13.1-8.5
			c4.3,0,8.1,1.7,10.7,4.9c1.6,1.9,2.8,4.1,3.5,6.3c1.5,4.7,2.2,10.3,2.2,16c0,8.3-1.5,15.7-4.1,19.9c-2.9,4.8-7,7.2-12.4,7.2
			C566.9,114,563.3,112.4,560.5,109.1z M563.9,68c-1.2,1.6-2.2,3.3-2.6,5c-1.2,4.2-1.8,8.9-1.8,13.9c0,6.4,1.2,13.1,2.7,16.4
			c2,4,5.1,6,9.1,6c2.9,0,5.4-1.1,7.2-3.2c1.3-1.6,2.2-3.4,2.7-5.4c1.2-4.3,1.8-8.8,1.8-13.9c0-6-1.1-12.8-2.6-16
			c-1.9-4.1-5.1-6.3-9.2-6.3C568.2,64.5,565.8,65.6,563.9,68z"/>
		<path d="M604.8,109.1c-1.6-1.9-2.8-4-3.5-6.3c-1.5-4.8-2.2-10.3-2.2-15.9c0-7.3,1.3-14.7,3.4-18.7c2.8-5.6,7.3-8.5,13.1-8.5
			c4.3,0,8.1,1.7,10.7,4.9c1.6,1.9,2.8,4.1,3.5,6.3c1.5,4.7,2.2,10.3,2.2,16c0,8.3-1.5,15.7-4.1,19.9c-2.9,4.8-7,7.2-12.4,7.2
			C611.2,114,607.6,112.4,604.8,109.1z M608.2,68c-1.2,1.6-2.2,3.3-2.6,5c-1.2,4.2-1.8,8.9-1.8,13.9c0,6.4,1.2,13.1,2.7,16.4
			c2,4,5.1,6,9.1,6c2.9,0,5.4-1.1,7.2-3.2c1.3-1.6,2.2-3.4,2.7-5.4c1.2-4.3,1.8-8.8,1.8-13.9c0-6-1.1-12.8-2.6-16
			c-1.9-4.1-5.1-6.3-9.2-6.3C612.5,64.5,610.1,65.6,608.2,68z"/>
	</g>
	<g>
		<path style="&st0;" d="M465.4,113.1c0.2-1.6,0.3-3.1,0.3-5.1v-4.5H460c-1.8,0-2.7,0.1-4.1,0.4v-3.4c1.3,0.3,2.3,0.4,4.1,0.4h5.7
			v-2.2l-1.5-2.7H460c-1.8,0-2.7,0.1-4.1,0.4v-3.4c1.3,0.3,2.3,0.4,4.1,0.4h2.7l-6-10.9c-1.1-2.1-1.8-3.1-2.3-4h4.2
			c0.3,1.1,0.7,1.9,1.9,4.2l6.8,12.9l6.8-12.9c1.1-2.2,1.6-3.2,1.9-4.2h4.2c-0.5,0.8-1.4,2.1-2.4,4l-6,10.9h2.7
			c1.8,0,2.8-0.1,4.1-0.4v3.4c-1.3-0.3-2.4-0.4-4.1-0.4h-4.2l-1.6,2.8v2.2h5.7c1.7,0,2.7-0.1,4.1-0.4v3.4c-1.3-0.3-2.4-0.4-4.1-0.4
			h-5.7v4.5c0,2.3,0.1,3.5,0.3,5.1H465.4z"/>
		<path style="&st0;" d="M489.3,60.3c1.5,0.3,2.6,0.3,4.9,0.3h3.7c2,0,2.9-0.1,4.9-0.3c-0.4,4.2-0.5,7.7-0.5,11.4v33.4
			c0,3.2,0.1,5.2,0.5,7.8h-5.6c0.4-2.4,0.5-4.6,0.5-7.8V65.4h-3.2c-1.9,0-3.4,0.1-5.1,0.4V60.3z"/>
		<path style="&st0;" d="M521.2,113c0,5.1-0.7,6.7-3.7,8.9l-1.6-2.3c2.4-1.3,2.8-2.3,2.8-6.6h-3.4v-6.8h5.8V113z"/>
		<path style="&st0;" d="M527.7,60.3c1.5,0.3,2.6,0.3,4.9,0.3h3.7c2,0,2.9-0.1,4.9-0.3c-0.4,4.2-0.5,7.7-0.5,11.4v33.4
			c0,3.2,0.1,5.2,0.5,7.8h-5.6c0.4-2.4,0.5-4.6,0.5-7.8V65.4h-3.2c-1.9,0-3.4,0.1-5.1,0.4V60.3z"/>
		<path style="&st0;" d="M560.5,109.1c-1.6-1.9-2.8-4-3.5-6.3c-1.5-4.8-2.2-10.3-2.2-15.9c0-7.3,1.3-14.7,3.4-18.7
			c2.8-5.6,7.3-8.5,13.1-8.5c4.3,0,8.1,1.7,10.7,4.9c1.6,1.9,2.8,4.1,3.5,6.3c1.5,4.7,2.2,10.3,2.2,16c0,8.3-1.5,15.7-4.1,19.9
			c-2.9,4.8-7,7.2-12.4,7.2C566.9,114,563.3,112.4,560.5,109.1z M563.9,68c-1.2,1.6-2.2,3.3-2.6,5c-1.2,4.2-1.8,8.9-1.8,13.9
			c0,6.4,1.2,13.1,2.7,16.4c2,4,5.1,6,9.1,6c2.9,0,5.4-1.1,7.2-3.2c1.3-1.6,2.2-3.4,2.7-5.4c1.2-4.3,1.8-8.8,1.8-13.9
			c0-6-1.1-12.8-2.6-16c-1.9-4.1-5.1-6.3-9.2-6.3C568.2,64.5,565.8,65.6,563.9,68z"/>
		<path style="&st0;" d="M604.8,109.1c-1.6-1.9-2.8-4-3.5-6.3c-1.5-4.8-2.2-10.3-2.2-15.9c0-7.3,1.3-14.7,3.4-18.7
			c2.8-5.6,7.3-8.5,13.1-8.5c4.3,0,8.1,1.7,10.7,4.9c1.6,1.9,2.8,4.1,3.5,6.3c1.5,4.7,2.2,10.3,2.2,16c0,8.3-1.5,15.7-4.1,19.9
			c-2.9,4.8-7,7.2-12.4,7.2C611.2,114,607.6,112.4,604.8,109.1z M608.2,68c-1.2,1.6-2.2,3.3-2.6,5c-1.2,4.2-1.8,8.9-1.8,13.9
			c0,6.4,1.2,13.1,2.7,16.4c2,4,5.1,6,9.1,6c2.9,0,5.4-1.1,7.2-3.2c1.3-1.6,2.2-3.4,2.7-5.4c1.2-4.3,1.8-8.8,1.8-13.9
			c0-6-1.1-12.8-2.6-16c-1.9-4.1-5.1-6.3-9.2-6.3C612.5,64.5,610.1,65.6,608.2,68z"/>
	</g>
</g>
<path style="&st0;" d="M196.4,174.8H0V0h196.4V174.8z M2,172.8h192.4V2H2V172.8z"/>
<path style="&st0;" d="M170.4,151H26V43.4h144.3V151z M28,149h140.3V45.4H28V149z"/>
<path style="&st0;" d="M93.2,63.1v14.7H74.6V63.1H93.2 M95.2,61.1H72.6v18.7h22.5V61.1L95.2,61.1z"/>
<rect x="102.9" y="61.1" style="&st0;" width="22.5" height="18.7"/>
<path style="&st0;" d="M154.5,63.1v14.7H136V63.1H154.5 M156.5,61.1H134v18.7h22.5V61.1L156.5,61.1z"/>
<path style="&st0;" d="M62.1,89.4v14.7H43.6V89.4H62.1 M64.1,87.4H41.6v18.7h22.5V87.4L64.1,87.4z"/>
<path style="&st0;" d="M93.2,89.4v14.7H74.6V89.4H93.2 M95.2,87.4H72.6v18.7h22.5V87.4L95.2,87.4z"/>
<rect x="102.9" y="87.4" style="&st0;" width="22.5" height="18.7"/>
<path style="&st0;" d="M154.5,89.4v14.7H136V89.4H154.5 M156.5,87.4H134v18.7h22.5V87.4L156.5,87.4z"/>
<path style="&st0;" d="M62.1,115.7v14.7H43.6v-14.7H62.1 M64.1,113.7H41.6v18.7h22.5V113.7L64.1,113.7z"/>
<path style="&st0;" d="M93.2,115.7v14.7H74.6v-14.7H93.2 M95.2,113.7H72.6v18.7h22.5V113.7L95.2,113.7z"/>
<rect x="102.9" y="113.7" style="&st0;" width="22.5" height="18.7"/>
</svg>
