<?xml version="1.0" encoding="utf-8"?>
<!-- Generator: Adobe Illustrator 22.1.0, SVG Export Plug-In . SVG Version: 6.00 Build 0)  -->
<!DOCTYPE svg PUBLIC "-//W3C//DTD SVG 1.1//EN" "http://www.w3.org/Graphics/SVG/1.1/DTD/svg11.dtd" [
	<!ENTITY st0 "fill:url(#SVGID_1_);">
]>
<svg version="1.1" id="レイヤー_21" xmlns="http://www.w3.org/2000/svg" xmlns:xlink="http://www.w3.org/1999/xlink" x="0px"
	 y="0px" viewBox="0 0 160 160" style="enable-background:new 0 0 160 160;" xml:space="preserve">
<linearGradient id="SVGID_1_" gradientUnits="userSpaceOnUse" x1="136.5685" y1="136.5685" x2="23.4315" y2="23.4315">
	<stop  offset="0" style="stop-color:#E7B404"/>
	<stop  offset="0.9969" style="stop-color:#F0E804"/>
</linearGradient>
<circle style="&st0;" cx="80" cy="80" r="80"/>
<g>
	<path d="M60.3,40.9c-0.2,1.3-0.5,2.3-0.9,3.5c-0.7-0.5-1.2-0.8-2.1-1.1c0.7-1.9,1.2-4.8,1.2-7.1c0-0.1,0-0.3,0-0.6l2.4,0.3
		c-0.1,0.4-0.1,0.5-0.1,1.2l0,0.4l-0.1,1h1.1v-2.8c0-0.7,0-1.3-0.2-2h2.8c-0.1,0.6-0.1,1.2-0.1,2v2.8h0.2c0.9,0,1.4,0,1.9-0.1v2.5
		c0.7,0,1.3,0.1,2.2,0.1h2.7v-2.3h-2c-1,0-1.8,0-2.5,0.1v-2.6c0.7,0.1,1.4,0.1,2.5,0.1h2v-0.7c0-0.7,0-1.2-0.1-1.8h2.8
		c-0.1,0.6-0.1,1.1-0.1,1.8v0.8h2.6c1.1,0,1.8,0,2.5-0.1v2.6c-0.7-0.1-1.5-0.1-2.5-0.1h-2.6v2.3H77c1.2,0,2.1,0,2.7-0.1v2.6
		c-0.7-0.1-1.6-0.1-2.5-0.1h-0.1v2h0.2c1.2,0,1.8,0,2.4-0.1v2.6c-0.7-0.1-1.4-0.1-2.4-0.1h-0.2v5.7c0,1.8-0.8,2.3-3.6,2.3
		c-0.4,0-1.3,0-2-0.1c-0.1-1.1-0.3-1.8-0.6-2.6c1.4,0.2,2.2,0.3,2.8,0.3c0.8,0,0.9-0.1,0.9-0.7v-4.8h-6.3c-1,0-1.6,0-2.4,0.1v-1.1
		c-0.7,0.3-1.1,0.5-1.7,0.8v5.7c0,1.1,0,2,0.1,2.8h-2.8c0.1-0.6,0.2-1.7,0.2-2.8v-4.8c-0.6,0.2-1.1,0.4-1.6,0.6
		c-1.3,0.5-1.6,0.6-1.8,0.7l-0.6-2.7c0.9-0.1,1.8-0.4,4-1.1v-4.9H60.3z M64.2,44.9c0.9-0.4,1.2-0.5,2.1-0.8l0,1.1
		c0.6,0,1.2,0.1,2.3,0.1h6v-2h-6c-1.3,0-2,0-2.7,0.1v-2.5c-0.5,0-0.8,0-1.2,0h-0.4V44.9z M69,47.7c1.2,1.1,2.1,2.2,3.1,3.7L70,53
		c-1-1.6-1.7-2.5-3-3.9L69,47.7z"/>
	<path d="M90.9,51.5c-1.5,1.3-2.4,1.9-3.7,2.7c-1.3,0.7-2.2,1.1-3.9,1.7c-0.6-1.2-1-1.7-1.8-2.4c1.8-0.4,2.7-0.7,3.9-1.3
		c1.3-0.6,2-1.1,3.4-2.2L90.9,51.5z M89.2,36c0-1.2,0-1.6-0.1-2.2h2.7c-0.1,0.6-0.1,1-0.1,2.2v0.6h2.8V36c0-1.2,0-1.6-0.1-2.2h2.7
		c-0.1,0.7-0.2,1.1-0.2,2.2v0.6h3.1c1.2,0,1.8,0,2.4-0.1c-0.1,0.5-0.1,1.1-0.1,2v8.8c0.9,0,1.3,0,1.9-0.1v2.7
		c-0.8-0.1-1.6-0.1-2.8-0.1H84.7c-1.2,0-2.1,0-2.8,0.1v-2.7c0.6,0.1,1,0.1,1.9,0.1v-8.8c0-0.8,0-1.4-0.1-2c0.7,0,1.3,0.1,2.3,0.1
		h3.2V36z M89.2,39h-2.8v2.9h2.8V39z M89.2,44.2h-2.8v3.2h2.8V44.2z M94.3,41.8V39h-2.8v2.9H94.3z M94.3,47.3v-3.2h-2.8v3.2H94.3z
		 M96.4,49.9c1.4,1.1,2.1,1.5,3.3,2.1c1.4,0.7,2.4,1,4.4,1.5c-0.8,1-0.9,1.2-1.6,2.5c-1.9-0.6-2.9-1-4.3-1.8
		c-1.3-0.7-2.1-1.3-3.7-2.6L96.4,49.9z M99.5,41.8V39h-2.8v2.9H99.5z M99.5,47.3v-3.2h-2.8v3.2H99.5z"/>
</g>
<g>
	<path d="M69.1,105.4c0.8,2.8,1.3,3.7,2.8,4.9c2,1.6,4.4,2.3,7.3,2.3c5.9,0,9.7-3.1,9.7-7.8c0-2.8-1.2-5-3.4-6.3
		c-1.4-0.8-4.3-1.4-6.9-1.4c-2.6,0-4.4,0.1-6.4,0.3v-7.4c1.9,0.2,3.2,0.3,5.8,0.3c6,0,9.5-2.8,9.5-7.4c0-4.1-2.8-6.5-7.9-6.5
		c-2.9,0-5.1,0.7-6.5,1.9c-1.2,1.1-1.8,2.2-2.5,4.6L62,81.4c1.5-4.4,2.9-6.5,5.7-8.6c3.1-2.2,7-3.3,11.8-3.3c10,0,16.5,5,16.5,12.8
		c0,3.6-1.6,6.9-4.1,8.8c-1.3,1-2.6,1.5-5.8,2.3c4.3,0.7,6.5,1.7,8.6,4c2,2.2,2.9,4.7,2.9,8.3c0,3.2-1.4,6.5-3.6,8.8
		c-3.3,3.2-8.3,4.9-14.8,4.9c-7,0-11.8-1.8-15.2-5.7c-1.5-1.7-2.3-3.2-3.4-6.7L69.1,105.4z"/>
</g>
</svg>
