<?xml version="1.0" encoding="utf-8"?>
<!-- Generator: Adobe Illustrator 27.5.0, SVG Export Plug-In . SVG Version: 6.00 Build 0)  -->
<svg version="1.1" id="レイヤー_21" xmlns="http://www.w3.org/2000/svg" xmlns:xlink="http://www.w3.org/1999/xlink" x="0px"
	 y="0px" viewBox="0 0 670 163.5" style="enable-background:new 0 0 670 163.5;" xml:space="preserve">
<style type="text/css">
	.st0{fill:#727272;}
</style>
<g>
	<path class="st0" d="M670,163.5H384.9V64l23-23h-23V0H670V163.5z M386.9,161.4h281V2h-281v37.1h25.8l-25.8,25.8L386.9,161.4
		L386.9,161.4z"/>
	<rect x="437" y="113.2" class="st0" width="2" height="25.2"/>
	<rect x="437" y="70.4" class="st0" width="2" height="25.2"/>
	<rect x="437" y="27.7" class="st0" width="2" height="25.2"/>
	<g>
		<g>
			<path d="M66.7,79.3c-3.1,0-3.9,0-5.5,0.2c0.5-3.9,0.7-4.7,1.4-6.5c1.2-3.1,3.3-5.8,6.4-8.5c1.7-1.5,1.8-1.5,7.6-5.5
				c4.9-3.3,6.5-5.5,6.5-8.5c0-3.8-3.2-6.2-8.2-6.2c-3.3,0-5.7,1.1-7.2,3.2c-0.9,1.3-1.4,2.5-1.7,5l-4.2-0.7
				c0.7-3.6,1.5-5.3,3.1-7.1c2.2-2.5,5.6-3.8,10-3.8c7.5,0,12.3,3.8,12.3,9.6c0,2.5-1,4.9-2.9,7c-1.5,1.7-2.8,2.6-8.4,6.4
				c-3.9,2.6-5.5,4-7.1,6.1c-1.5,2-2.2,3.4-2.8,5.8h15.8c2.5,0,4.2-0.1,6-0.3v4.2c-2-0.2-3.6-0.3-6.1-0.3L66.7,79.3L66.7,79.3z"/>
			<path d="M94.4,79.9c0.2-1.2,0.3-2.2,0.3-3.7v-18c0-1.4-0.1-2.4-0.3-3.8c1.2,0.1,2.1,0.1,3.7,0.1h6.8c5.2,0,8.1,2.6,8.1,7.3
				c0,4.9-3,7.8-8.2,7.8h-7.5v6.6c0,1.6,0.1,2.6,0.3,3.8h-3.2C94.4,80,94.4,79.9,94.4,79.9z M104.8,67.3c3.5,0,5.6-1.9,5.6-5.3
				c0-3.3-1.9-5.1-5.6-5.1h-7.5v10.4H104.8z"/>
		</g>
		<g>
			<path class="st0" d="M66.7,79.3c-3.1,0-3.9,0-5.5,0.2c0.5-3.9,0.7-4.7,1.4-6.5c1.2-3.1,3.3-5.8,6.4-8.5c1.7-1.5,1.8-1.5,7.6-5.5
				c4.9-3.3,6.5-5.5,6.5-8.5c0-3.8-3.2-6.2-8.2-6.2c-3.3,0-5.7,1.1-7.2,3.2c-0.9,1.3-1.4,2.5-1.7,5l-4.2-0.7
				c0.7-3.6,1.5-5.3,3.1-7.1c2.2-2.5,5.6-3.8,10-3.8c7.5,0,12.3,3.8,12.3,9.6c0,2.5-1,4.9-2.9,7c-1.5,1.7-2.8,2.6-8.4,6.4
				c-3.9,2.6-5.5,4-7.1,6.1c-1.5,2-2.2,3.4-2.8,5.8h15.8c2.5,0,4.2-0.1,6-0.3v4.2c-2-0.2-3.6-0.3-6.1-0.3L66.7,79.3L66.7,79.3z"/>
			<path class="st0" d="M94.4,79.9c0.2-1.2,0.3-2.2,0.3-3.7v-18c0-1.4-0.1-2.4-0.3-3.8c1.2,0.1,2.1,0.1,3.7,0.1h6.8
				c5.2,0,8.1,2.6,8.1,7.3c0,4.9-3,7.8-8.2,7.8h-7.5v6.6c0,1.6,0.1,2.6,0.3,3.8h-3.2C94.4,80,94.4,79.9,94.4,79.9z M104.8,67.3
				c3.5,0,5.6-1.9,5.6-5.3c0-3.3-1.9-5.1-5.6-5.1h-7.5v10.4H104.8z"/>
		</g>
	</g>
	<path class="st0" d="M84.9,112.6c-28.2,0-51.2-23-51.2-51.2s23-51.2,51.2-51.2s51.2,23,51.2,51.2S113.1,112.6,84.9,112.6z
		 M84.9,12.2c-27.1,0-49.2,22.1-49.2,49.2s22.1,49.2,49.2,49.2s49.2-22.1,49.2-49.2S112,12.2,84.9,12.2z"/>
	<rect y="132.8" class="st0" width="170.9" height="2"/>
	<rect y="159.8" class="st0" width="170.9" height="2"/>
	<g>
		<rect x="210.3" y="82.4" class="st0" width="132.9" height="2"/>
		<polygon class="st0" points="314.8,113.3 313.3,111.9 341.8,83.4 313.3,55 314.8,53.6 344.6,83.4 		"/>
	</g>
</g>
<g>
	<path class="st0" d="M467.8,104.9v-10h-11.5v-3.6h11.5v-4.2l-0.8-1.5h-10.7V82h9.1l-9.9-18.6h5.5l9.5,18.9l9.1-18.9h5.3L475.4,82
		h8.8v3.6h-10.6l-0.8,1.6v4.1h11.5v3.6h-11.5v10H467.8z"/>
	<path class="st0" d="M506,104.9V58.8l-13.5,4.6v-5.7l16-5.7h3.9v53H506z"/>
	<path class="st0" d="M522.3,114.7c2.3-2.2,4.1-5.9,4.5-9.8H522v-9.2h9.2v4.8c0,5.7-1.4,11.2-6.1,15.7L522.3,114.7z"/>
	<path class="st0" d="M536.3,104.9v-7.7c15.3-14.6,24.3-21.1,24.3-30.4c0-5.8-3.2-9.7-10.2-9.7c-4.2,0-8.3,1.5-11.4,3.2v-5.8
		c4.5-2.3,8.8-3.4,13.7-3.4c9.2,0,14.6,6.1,14.6,15.3c0,9.7-6.9,16.2-24.7,32.6h26.7v5.8H536.3z"/>
	<path class="st0" d="M573.7,78.7c0-18.1,5.3-27.1,17.6-27.1s17.6,9.2,17.6,27.1c0,17.9-5.3,27.1-17.6,27.1S573.7,96.8,573.7,78.7z
		 M602.1,78.7c0-14.3-3.1-21.7-10.9-21.7c-7.8,0-10.8,7.4-10.8,21.7c0,14.3,2.9,21.8,10.8,21.8C599,100.5,602.1,93,602.1,78.7z"/>
	<path class="st0" d="M613.4,78.7c0-18.1,5.3-27.1,17.6-27.1s17.6,9.2,17.6,27.1c0,17.9-5.3,27.1-17.6,27.1S613.4,96.8,613.4,78.7z
		 M641.8,78.7c0-14.3-3.1-21.7-10.9-21.7c-7.8,0-10.8,7.4-10.8,21.7c0,14.3,2.9,21.8,10.8,21.8C638.8,100.5,641.8,93,641.8,78.7z"/>
</g>
</svg>
