<?xml version="1.0" encoding="utf-8"?>
<!-- Generator: Adobe Illustrator 25.0.1, SVG Export Plug-In . SVG Version: 6.00 Build 0)  -->
<svg version="1.1" id="レイヤー_21" xmlns="http://www.w3.org/2000/svg" xmlns:xlink="http://www.w3.org/1999/xlink" x="0px"
	 y="0px" width="160px" height="160px" viewBox="0 0 160 160" style="enable-background:new 0 0 160 160;" xml:space="preserve">
<style type="text/css">
	.st0{fill:url(#SVGID_1_);}
</style>
<linearGradient id="SVGID_1_" gradientUnits="userSpaceOnUse" x1="136.5685" y1="22.959" x2="23.4315" y2="136.0961" gradientTransform="matrix(1 0 0 -1 0 159.5276)">
	<stop  offset="0" style="stop-color:#E7B404"/>
	<stop  offset="0.9969" style="stop-color:#F0E804"/>
</linearGradient>
<circle class="st0" cx="80" cy="80" r="80"/>
<g>
	<path d="M60.3,40.9c-0.2,1.3-0.5,2.3-0.9,3.5c-0.7-0.5-1.2-0.8-2.1-1.1c0.7-1.9,1.2-4.8,1.2-7.1c0-0.1,0-0.3,0-0.6l2.4,0.3
		c-0.1,0.4-0.1,0.5-0.1,1.2v0.4l-0.1,1h1.1v-2.8c0-0.7,0-1.3-0.2-2h2.8c-0.1,0.6-0.1,1.2-0.1,2v2.8h0.2c0.9,0,1.4,0,1.9-0.1v2.5
		c0.7,0,1.3,0.1,2.2,0.1h2.7v-2.3h-2c-1,0-1.8,0-2.5,0.1v-2.6c0.7,0.1,1.4,0.1,2.5,0.1h2v-0.7c0-0.7,0-1.2-0.1-1.8H74
		c-0.1,0.6-0.1,1.1-0.1,1.8v0.8h2.6c1.1,0,1.8,0,2.5-0.1v2.6c-0.7-0.1-1.5-0.1-2.5-0.1h-2.6v2.3H77c1.2,0,2.1,0,2.7-0.1v2.6
		c-0.7-0.1-1.6-0.1-2.5-0.1h-0.1v2h0.2c1.2,0,1.8,0,2.4-0.1V48c-0.7-0.1-1.4-0.1-2.4-0.1h-0.2v5.7c0,1.8-0.8,2.3-3.6,2.3
		c-0.4,0-1.3,0-2-0.1c-0.1-1.1-0.3-1.8-0.6-2.6c1.4,0.2,2.2,0.3,2.8,0.3c0.8,0,0.9-0.1,0.9-0.7V48h-6.3c-1,0-1.6,0-2.4,0.1V47
		c-0.7,0.3-1.1,0.5-1.7,0.8v5.7c0,1.1,0,2,0.1,2.8h-2.8c0.1-0.6,0.2-1.7,0.2-2.8v-4.8c-0.6,0.2-1.1,0.4-1.6,0.6
		c-1.3,0.5-1.6,0.6-1.8,0.7l-0.6-2.7c0.9-0.1,1.8-0.4,4-1.1v-4.9h-1.4V40.9z M64.2,44.9c0.9-0.4,1.2-0.5,2.1-0.8v1.1
		c0.6,0,1.2,0.1,2.3,0.1h6v-2h-6c-1.3,0-2,0-2.7,0.1v-2.5c-0.5,0-0.8,0-1.2,0h-0.4v4H64.2z M69,47.7c1.2,1.1,2.1,2.2,3.1,3.7L70,53
		c-1-1.6-1.7-2.5-3-3.9L69,47.7z"/>
	<path d="M90.9,51.5c-1.5,1.3-2.4,1.9-3.7,2.7c-1.3,0.7-2.2,1.1-3.9,1.7c-0.6-1.2-1-1.7-1.8-2.4c1.8-0.4,2.7-0.7,3.9-1.3
		c1.3-0.6,2-1.1,3.4-2.2L90.9,51.5z M89.2,36c0-1.2,0-1.6-0.1-2.2h2.7c-0.1,0.6-0.1,1-0.1,2.2v0.6h2.8V36c0-1.2,0-1.6-0.1-2.2h2.7
		c-0.1,0.7-0.2,1.1-0.2,2.2v0.6h3.1c1.2,0,1.8,0,2.4-0.1c-0.1,0.5-0.1,1.1-0.1,2v8.8c0.9,0,1.3,0,1.9-0.1v2.7
		c-0.8-0.1-1.6-0.1-2.8-0.1H84.7c-1.2,0-2.1,0-2.8,0.1v-2.7c0.6,0.1,1,0.1,1.9,0.1v-8.8c0-0.8,0-1.4-0.1-2c0.7,0,1.3,0.1,2.3,0.1
		h3.2V36z M89.2,39h-2.8v2.9h2.8V39z M89.2,44.2h-2.8v3.2h2.8V44.2z M94.3,41.8V39h-2.8v2.9h2.8V41.8z M94.3,47.3v-3.2h-2.8v3.2
		H94.3z M96.4,49.9c1.4,1.1,2.1,1.5,3.3,2.1c1.4,0.7,2.4,1,4.4,1.5c-0.8,1-0.9,1.2-1.6,2.5c-1.9-0.6-2.9-1-4.3-1.8
		c-1.3-0.7-2.1-1.3-3.7-2.6L96.4,49.9z M99.5,41.8V39h-2.8v2.9h2.8V41.8z M99.5,47.3v-3.2h-2.8v3.2H99.5z"/>
</g>
<g>
	<path d="M99.5,75.5c-1.8,1.6-3.3,3.7-6.2,8.5C87.9,92.6,85,99,82.5,107.6c-1.4,4.9-2,8-2.9,14.6h-9c2.4-12.5,4.2-18.4,8.2-26.7
		c3.4-7,6.3-11.7,12-19.5H69.4c-3.7,0-5.6,0.1-8.3,0.5v-7.7c2.9,0.3,4.9,0.5,8.7,0.5h21.1c4.7,0,6.3-0.1,8.7-0.3V75.5z"/>
</g>
</svg>
