<?xml version="1.0" encoding="utf-8"?>
<!-- Generator: Adobe Illustrator 25.0.1, SVG Export Plug-In . SVG Version: 6.00 Build 0)  -->
<svg version="1.1" id="レイヤー_21" xmlns="http://www.w3.org/2000/svg" xmlns:xlink="http://www.w3.org/1999/xlink" x="0px"
	 y="0px" width="563.1px" height="195px" viewBox="0 0 563.1 195" style="enable-background:new 0 0 563.1 195;"
	 xml:space="preserve">
<style type="text/css">
	.st0{fill:#717272;}
	.st1{fill:none;stroke:#717272;stroke-width:2;stroke-miterlimit:10;}
</style>
<g>
	<rect x="160.8" y="75.9" class="st0" width="243" height="2"/>
	<polygon class="st0" points="189.2,106.7 159.4,76.9 189.2,47 190.6,48.4 162.2,76.9 190.6,105.3 	"/>
</g>
<circle class="st1" cx="493.1" cy="70" r="69"/>
<g>
	<circle class="st1" cx="70" cy="70" r="69"/>
	<polyline class="st1" points="37.4,72.6 70.6,72.6 70.6,21.4 	"/>
</g>
<line class="st1" x1="493.1" y1="72.6" x2="493.1" y2="21.4"/>
<g>
	<path class="st0" d="M172.1,147.1c0.4,1.2,0.7,1.7,1.4,2.2c0.8,0.6,1.8,0.9,3,0.9c2.7,0,4.3-1.4,4.3-3.6c0-2.3-1.6-3.5-4.7-3.5
		c-0.7,0-1.3,0-2,0.1V141c0.6,0.1,1.2,0.1,1.9,0.1c1.5,0,2.6-0.3,3.4-1.1c0.6-0.6,0.9-1.4,0.9-2.3c0-1.9-1.4-3-3.7-3
		c-1.4,0-2.4,0.4-3.1,1.2c-0.3,0.4-0.5,0.8-0.7,1.6l-2.4-0.5c0.4-1.3,0.7-1.9,1.4-2.6c1.1-1.2,2.8-1.8,4.9-1.8
		c3.6,0,5.9,1.9,5.9,4.8c0,1.5-0.6,2.8-1.7,3.5c-0.6,0.4-1.1,0.6-2.3,0.9c1.7,0.2,2.6,0.6,3.4,1.5c0.8,0.8,1.2,1.9,1.2,3.3
		c0,1.3-0.5,2.6-1.4,3.5c-1.2,1.2-3,1.8-5.3,1.8c-2.5,0-4.4-0.7-5.6-2c-0.6-0.6-0.8-1.2-1.3-2.4L172.1,147.1z"/>
	<path class="st0" d="M187,135.4c0-1,0-1.7-0.1-2.3c0.5,0,0.5,0,2.2,0.1h2.1c1.2,0,1.6,0,2.1-0.1c-0.1,0.6-0.1,0.9-0.1,2.4v13.3
		c0,1.2,0,1.8,0.1,2.4h-1.8v-1.2h-2.9v2h-1.8c0.1-0.7,0.1-1.6,0.1-2.6V135.4z M188.7,140.5h2.9v-5.7h-2.9V140.5z M188.7,148.3h2.9
		V142h-2.9V148.3z M197,136.2c-0.8,0-1.8,0-2.4,0.1v-1.8c0.6,0.1,1.3,0.1,2.3,0.1h2.4v-0.7c0-0.7,0-1.3-0.1-1.9h2.1
		c-0.1,0.6-0.1,1.1-0.1,1.9v0.7h3.2c1,0,1.7,0,2.3-0.1v1.8c-0.6-0.1-1.4-0.1-2.3-0.1h-3.2v2.9h4c1.1,0,1.9,0,2.5-0.1v1.9
		c-0.7-0.1-1.3-0.1-2.3-0.1h-0.6v2.6h0.6c1.1,0,1.8,0,2.3-0.1v1.9c-0.6-0.1-1.3-0.1-2.3-0.1h-0.6v6.4c0,1.7-0.6,2.1-3,2.1
		c-0.4,0-0.6,0-2.1-0.1c0-0.7-0.2-1.3-0.4-1.8c0.8,0.1,1.9,0.3,2.7,0.3c0.9,0,1.1-0.1,1.1-0.6v-6.2h-6.5c-0.9,0-1.7,0-2.4,0.1v-1.9
		c0.6,0.1,1.3,0.1,2.5,0.1h6.5v-2.6h-6.5c-1,0-1.7,0-2.5,0.1v-1.9c0.6,0.1,1.4,0.1,2.5,0.1h3v-2.9H197z M198.6,150.6
		c-1.2-1.7-2-2.7-3.3-4l1.4-1c1.3,1.3,2.2,2.3,3.4,3.9L198.6,150.6z"/>
	<path class="st0" d="M212.8,150.7c0,1.4,0,2.1,0.1,2.8h-2.1c0.1-0.7,0.1-1.4,0.1-2.8v-15.5c0-1.2,0-1.9-0.1-2.7
		c0.7,0.1,1.3,0.1,2.5,0.1h3.7c1.2,0,1.8,0,2.4-0.1c0,0.7-0.1,1.3-0.1,2.3v3.2c0,1,0,1.6,0.1,2.2c-0.7,0-1.4-0.1-2.4-0.1h-4.4V150.7
		z M212.8,135.7h5V134h-5V135.7z M212.8,138.8h5v-1.7h-5V138.8z M225.3,148.2c0,0.9,0,1.5,0.1,2.2c-0.7,0-1.4-0.1-2.4-0.1h-5.2v1.6
		H216c0.1-0.7,0.1-1.3,0.1-2.3v-5.5c0-0.8,0-1.5-0.1-2.2c0.7,0.1,1.3,0.1,2.4,0.1h4.7c1.1,0,1.6,0,2.3-0.1c0,0.6-0.1,1.3-0.1,2.2
		V148.2z M217.8,145.3h5.9v-1.9h-5.9V145.3z M217.8,148.9h5.9v-2.1h-5.9V148.9z M230.6,151c0,1.7-0.6,2.2-2.7,2.2
		c-0.5,0-1.8,0-2.3-0.1c-0.1-0.8-0.2-1.2-0.5-1.8c1.2,0.1,2.1,0.2,2.6,0.2c1,0,1.2-0.1,1.2-0.7v-10.7h-4.9c-0.9,0-1.8,0-2.4,0.1
		c0-0.7,0.1-1.3,0.1-2.2v-3.2c0-0.8,0-1.6-0.1-2.3c0.7,0.1,1.2,0.1,2.4,0.1h4.2c1.2,0,1.8,0,2.5-0.1c-0.1,1-0.1,1.6-0.1,2.6V151z
		 M223.3,135.7h5.5V134h-5.5V135.7z M223.3,138.8h5.5v-1.7h-5.5V138.8z"/>
	<path class="st0" d="M241,135.1c-0.7-1.2-1.2-1.8-2.4-3.1l1.8-0.6c1.6,1.9,1.8,2.2,2.6,3.8h3.4c1.1-1.2,1.7-2.2,2.5-3.7l1.9,0.6
		c-0.9,1.3-1.7,2.4-2.4,3.1h4.6c1.1,0,1.8,0,2.4-0.1v1.9c-0.7-0.1-1.4-0.1-2.4-0.1h-16.3c-1.1,0-1.7,0-2.4,0.1V135
		c0.8,0.1,0.8,0.1,2.4,0.1H241z M237.5,150.9c0,1.3,0,1.9,0.1,2.5h-2c0.1-0.7,0.1-1.4,0.1-2.6v-10.2c0-1.2,0-1.5-0.1-2.1
		c0.8,0.1,1.4,0.1,2.3,0.1h4c1.3,0,1.7,0,2.2-0.1c0,0.6-0.1,1.2-0.1,2.5v10.2c0,1.6-0.5,2-2.2,2c-0.5,0-1.2,0-1.9-0.1
		c-0.1-0.8-0.2-1-0.5-1.7c0.8,0.1,1.5,0.2,2,0.2c0.7,0,0.8-0.1,0.8-0.6v-2.9h-4.9V150.9z M242.3,142.6v-2.4h-4.9v2.4H242.3z
		 M242.3,146.5v-2.4h-4.9v2.4H242.3z M248.9,138.8c-0.1,0.6-0.1,1-0.1,2.3v4.9c0,1.7,0,2.1,0.1,2.7h-2c0.1-0.6,0.1-1,0.1-2.7v-5
		c0-1.2,0-1.6-0.1-2.3H248.9z M254,138.1c-0.1,0.6-0.1,1.3-0.1,2.6V151c0,1.8-0.6,2.3-2.7,2.3c-0.7,0-1.5,0-2.7-0.1
		c-0.1-0.7-0.2-1.2-0.6-1.9c1.3,0.2,2.2,0.3,3.1,0.3c0.9,0,1.1-0.1,1.1-0.7v-10.2c0-1.4,0-1.8-0.1-2.5H254z"/>
	<path class="st0" d="M258.1,138.4c0.9,0,3.3-0.3,5.3-0.6c0.4-2,0.7-4.1,0.7-5c0,0,0-0.2,0-0.3l2.3,0.2c-0.1,0.5-0.2,0.9-0.4,2.2
		c-0.1,0.6-0.4,2.2-0.5,2.7c0.6,0,0.9-0.1,1.5-0.1c1.6,0,2.7,0.3,3.5,1.1c0.8,0.8,1.2,1.9,1.2,4c0,3.8-0.6,7-1.7,8.4
		c-0.6,0.8-1.3,1.1-2.4,1.1c-1,0-2.1-0.3-3.6-0.9c0-0.4,0-0.5,0-0.8c0-0.5,0-0.8-0.1-1.3c1.3,0.6,2.7,1.1,3.5,1.1
		c0.6,0,1-0.4,1.3-1.1c0.6-1.4,1-3.9,1-6.6c0-2.4-0.7-3.2-2.8-3.2c-0.5,0-0.9,0-1.6,0.1c-0.9,3.9-1.9,6.8-3.5,10
		c-0.3,0.7-0.8,1.7-1.6,3l-2-1.1c0.7-0.9,1.7-2.6,2.5-4.4c1.1-2.4,1.8-4.3,2.5-7.4c-2.6,0.4-3.6,0.6-4.7,0.8L258.1,138.4z
		 M274.2,136.1c2.4,2.7,3.9,5.3,5,8.7l-1.9,1c-0.9-3.5-2.5-6.5-4.8-8.9L274.2,136.1z"/>
	<path class="st0" d="M285.8,137c-0.3,1.1-0.8,3.5-1.2,6.6c0,0.3-0.1,0.3-0.1,0.6l0,0c0.3-0.4,0.5-0.5,0.8-0.7
		c1.6-1.2,4.2-1.9,6.9-1.9c3.8,0,6.4,1.9,6.4,4.8c0,1.7-0.9,3.3-2.3,4.3c-1.5,1.1-3.5,1.6-6,1.6c-2.1,0-3.3-0.2-6.1-0.9
		c0-0.1,0-0.2,0-0.3v-0.3c0-0.5,0-0.9-0.2-1.7c2,0.8,4.2,1.2,6.3,1.2c3.7,0,6.2-1.6,6.2-3.9c0-1.8-1.7-3-4.5-3c-2.4,0-4.8,0.7-6.5,2
		c-0.4,0.3-0.6,0.5-1,1l-2.2-0.1c0.1-0.4,0.1-0.6,0.2-1.4c0.2-1.8,0.6-4,1-6.7c0.1-0.6,0.1-0.9,0.2-1.3L285.8,137z M286.6,132.7
		c1.7,1,5.8,2.3,8.4,2.7l-0.8,2c-2.4-0.6-3.4-0.9-4.8-1.4c-1.7-0.6-1.7-0.6-3.8-1.6L286.6,132.7z"/>
	<path class="st0" d="M305.5,148.6c-0.7,2.2-1.2,3.3-2.3,4.9c-0.6-0.6-0.8-0.7-1.4-1c1.2-1.5,1.7-2.6,2.2-4.6L305.5,148.6z
		 M304.5,147.4c-0.8,0-1.3,0-1.8,0.1c0-0.5,0.1-1.4,0.1-2.5v-9.8c0-1.1,0-1.8-0.1-2.5c0.6,0,1.1,0.1,1.9,0.1h2.5
		c0.8,0,1.3,0,1.9-0.1c0,0.5-0.1,0.9-0.1,2.3v10.1c0,1.4,0,1.9,0.1,2.4c-0.5,0-1-0.1-1.8-0.1H304.5z M304.3,137.1h3v-2.8h-3V137.1z
		 M304.3,141.3h3v-2.8h-3V141.3z M304.3,145.9h3v-3.1h-3V145.9z M307.7,147.9c0.6,1.7,1.1,2.7,2,4.1c-0.5,0.2-0.7,0.4-1.4,1
		c-0.9-1.6-1.4-2.6-2-4.4L307.7,147.9z M311.7,140.8c-1,0-1.5,0-2.2,0.1v-1.6c0.6,0.1,1.1,0.1,2.2,0.1h1.4v-1.6h-0.8
		c-0.8,0-1.4,0-1.9,0.1v-1.5c0.6,0.1,0.9,0.1,1.9,0.1h0.8v-1.4h-1.3c-0.8,0-1.4,0-1.9,0.1v-1.6c0.6,0.1,1,0.1,2,0.1h1.2
		c0-0.9,0-1.3-0.1-1.8h1.8c-0.1,0.4-0.1,0.9-0.1,1.8h3.5c0-1.1,0-1.4-0.1-1.8h1.8c-0.1,0.5-0.1,1-0.1,1.8h1.5c0.9,0,1.5,0,1.9-0.1
		v1.6c-0.7-0.1-1.1-0.1-1.9-0.1h-1.5v1.4h1.1c0.9,0,1.3,0,1.9-0.1v1.5c-0.5-0.1-1.1-0.1-1.9-0.1h-1.1v1.6h1.6c1.1,0,1.6,0,2.1-0.1
		v1.6c-0.6-0.1-1.1-0.1-2.1-0.1h-4.1v1.5h2.8c1,0,1.7,0,2.3-0.1c-0.1,0.4-0.1,1.2-0.1,2.3v3.8c0.7,0,1,0,1.4-0.1v1.6
		c-0.5-0.1-0.7-0.1-1.4-0.1v1.9c0,1.6-0.5,1.9-2.4,1.9c-0.9,0-1.4,0-2.3-0.1c0-0.7-0.1-1.1-0.3-1.6c0.9,0.1,1.7,0.2,2.4,0.2
		c0.8,0,1-0.1,1-0.6v-1.8h-8.1v1.4c0,1.6,0,2,0.1,2.7h-1.8c0.1-0.8,0.1-1.4,0.1-2.7v-1.4c-0.7,0-1,0-1.5,0.1v-1.6
		c0.5,0.1,0.8,0.1,1.5,0.1v-3.7c0-0.9,0-1.5-0.1-2.3c0.7,0,1.3,0.1,2.5,0.1h2.4v-1.5H311.7z M315.6,143.6h-3.2v1.6h3.2V143.6z
		 M315.6,146.5h-3.2v1.7h3.2V146.5z M314.7,136.5h3.5v-1.4h-3.5V136.5z M314.7,139.4h3.5v-1.6h-3.5V139.4z M320.5,145.2v-1.6h-3.3
		v1.6H320.5z M320.5,148.2v-1.7h-3.3v1.7H320.5z"/>
	<path class="st0" d="M332.2,134.9c-0.5,0-1.2,0-2,0.1V133c0.6,0.1,1,0.1,1.9,0.1h3.4c1.1,0,1.7,0,2.2-0.1c-0.1,0.6-0.1,1.1-0.1,1.6
		c0,3.1,0.7,6,2.2,8.7c0.9,1.8,2.1,3.3,3.7,4.9c1.3,1.3,2.2,2,4.2,3.2c-0.7,0.7-1,0.9-1.6,1.9c-2.8-2-4.8-3.9-6.6-6.6
		c-1.4-2.1-2.3-4.1-2.9-6.8c-0.8,3.2-1.8,5.4-3.4,7.6c-1.6,2.3-3.4,4-6.2,5.9c-0.4-0.8-0.8-1.2-1.5-1.8c2.4-1.5,3.7-2.6,5.4-4.4
		c1.8-2.1,3.1-4.4,3.8-7c0.5-1.7,0.7-2.9,0.8-5.1H332.2z"/>
	<path class="st0" d="M352.8,134.6c-1,0-1.8,0-2.6,0.1v-2c0.7,0.1,1.6,0.1,2.6,0.1h16c1,0,1.9,0,2.6-0.1v2c-0.7-0.1-1.7-0.1-2.6-0.1
		h-0.3v16.7c0,1.8-0.6,2.1-3.2,2.1c-0.9,0-1.8,0-3-0.1c-0.1-0.7-0.2-1.3-0.5-1.9c1.4,0.2,2.7,0.3,3.7,0.3c0.9,0,1.1-0.1,1.1-0.7
		v-16.4H352.8z M362.5,145.4c0,0.8,0,1.3,0.1,1.8c-0.5,0-1.4-0.1-2.1-0.1h-5.7v2.1h-2c0.1-0.7,0.1-1.3,0.1-2v-7.6c0-1,0-1.5-0.1-2.1
		c0.6,0.1,1.2,0.1,2.2,0.1h5.2c1,0,1.6,0,2.3-0.1c-0.1,0.6-0.1,1.1-0.1,2V145.4z M354.9,145.5h5.8v-6.1h-5.8V145.5z"/>
	<path class="st0" d="M373.7,136.5c0.3,0,0.9,0,1.1,0c0.1,0,0.1,0,0.8,0c1.1-1.8,1.9-3.5,2.3-5l2,0.5c-0.2,0.4-0.3,0.6-0.5,0.9
		c-0.2,0.6-1.3,2.5-1.9,3.5c1.8-0.1,3-0.2,4.6-0.4c-0.7-1.2-0.8-1.3-1.4-2.2l1.3-0.7c1.2,1.5,1.9,2.8,3.1,4.9l-1.5,0.9
		c-0.3-0.7-0.4-0.9-0.7-1.4c-1.9,0.3-5.7,0.7-7.5,0.8c-0.7,0-1.2,0.1-1.5,0.2L373.7,136.5z M375.3,141.7c0-0.9,0-1.5-0.1-2.2
		c0.6,0.1,1,0.1,1.9,0.1h4.5c1,0,1.6,0,2.2-0.1c0,0.5-0.1,1.1-0.1,1.6v10.2c0,1.6-0.5,1.9-3,1.9c-0.2,0-0.5,0-0.8,0
		c0-0.5-0.2-1.2-0.4-1.8c0.5,0.1,1.1,0.1,1.7,0.1c0.6,0,0.8-0.1,0.8-0.5v-2.8H377v2.8c0,1.2,0,1.9,0.1,2.5h-2
		c0.1-0.7,0.1-1.3,0.1-2.5V141.7z M377,143.1h4.9v-2H377V143.1z M377,146.7h4.9v-2H377V146.7z M387.5,135.5c2.3-0.6,4.7-1.8,6.1-3
		l1.2,1.6c-0.5,0.2-0.5,0.2-1.4,0.7c-1.7,0.9-3.5,1.6-5.9,2.4v2c0,0.7,0.2,0.7,2.3,0.7c2.2,0,2.8,0,3.1-0.3c0.4-0.2,0.5-0.8,0.6-2.9
		c0.6,0.3,1.1,0.5,1.7,0.6c-0.2,2.1-0.4,3-0.8,3.5s-1.4,0.6-4.5,0.6c-3.4,0-4.1-0.3-4.1-1.7V134c0-0.9,0-1.5-0.1-2.1h2
		c-0.1,0.5-0.1,1.1-0.1,2V135.5z M387.5,146.1c2.5-0.6,4.6-1.6,6.2-2.9l1.3,1.5c-0.9,0.5-3,1.5-3.8,1.8c-1.3,0.5-2.2,0.8-3.7,1.2
		v2.6c0,0.5,0.2,0.6,0.7,0.7c0.5,0.1,1,0.1,2.1,0.1c1.8,0,2.5-0.1,2.8-0.5c0.2-0.3,0.4-1.4,0.5-3c0.5,0.3,1.1,0.5,1.7,0.7
		c-0.2,2.3-0.5,3.2-1,3.8c-0.6,0.6-1.4,0.7-4.1,0.7c-2.3,0-3.1-0.1-3.7-0.4c-0.6-0.3-0.8-0.7-0.8-1.5V145c0-1.2,0-1.6-0.1-2.1h2
		c-0.1,0.5-0.1,0.9-0.1,2.1V146.1z"/>
</g>
<g>
	<path class="st0" d="M457.3,158.2c0.4,0.1,0.7,0.1,1.3,0.1h0.9c0.5,0,0.9,0,1.4-0.1c-0.1,0.6-0.1,1-0.1,1.9v3.6
		c0.4,0.7,0.7,1.1,1.5,1.5c0.7,0.4,1.9,0.6,4.1,0.6c2.9,0,5.2-0.1,7.5-0.4c-0.2,0.5-0.4,1-0.5,1.6c-1.9,0.1-4.2,0.1-6,0.1
		c-3.5,0-4.7-0.2-5.8-0.8c-0.6-0.3-1-0.7-1.5-1.4c-0.6,0.7-0.7,0.8-1.2,1.3c-0.3,0.3-0.4,0.3-0.6,0.6c-0.2,0.2-0.3,0.2-0.5,0.4
		l-0.7-1.4c0.6-0.3,1.6-1.1,2.5-2v-4.2h-1c-0.5,0-0.8,0-1.2,0.1V158.2z M458.4,151.4c1.2,1.1,2,2,3,3.2l-1.1,1
		c-0.9-1.3-1.7-2.2-2.9-3.3L458.4,151.4z M466.7,155.1c-0.6-0.5-1.5-1-2.2-1.4l1-0.7c0.9,0.5,1.3,0.8,2.4,1.6c1.1-0.6,1.6-1,2.5-1.7
		H464c-0.8,0-1.3,0-1.8,0.1v-1.3c0.5,0.1,1,0.1,2,0.1h6.2c1.1,0,1.5,0,1.9-0.1l0.6,0.8c-0.2,0.1-0.3,0.2-0.5,0.3
		c-1.3,1-2.1,1.6-3.3,2.3h2.1c1,0,1.5,0,1.9-0.1c-0.1,0.5-0.1,1.1-0.1,2.2v5.8c0,1.3-0.3,1.6-1.9,1.6c-0.2,0-0.2,0-1,0
		c-0.1-0.5-0.1-0.8-0.3-1.2c0.6,0.1,0.9,0.1,1.5,0.1c0.3,0,0.4-0.1,0.4-0.5v-1.4h-3.5v1c0,1,0,1.5,0.1,2h-1.4c0.1-0.5,0.1-1.1,0.1-2
		v-1h-3.1v1.2c0,1,0,1.5,0.1,1.9h-1.5c0.1-0.5,0.1-1,0.1-1.9V157c0-1.1,0-1.5-0.1-2.1c0.5,0.1,1.1,0.1,2,0.1H466.7z M463.8,156.2
		v1.6h3.1v-1.6H463.8z M463.8,160.4h3.1v-1.6h-3.1V160.4z M468.2,157.7h3.5v-1.6h-3.5V157.7z M471.7,158.8h-3.5v1.6h3.5V158.8z"/>
	<path class="st0" d="M483,152.5c0-0.5,0-0.9-0.1-1.3h1.5c-0.1,0.4-0.1,0.8-0.1,1.3v1.3h1.7c0.6-0.8,1-1.4,1.5-2.3l1.3,0.5
		c-0.6,1-0.8,1.3-1.3,1.8h1.9c1,0,1.5,0,2-0.1c-0.1,0.5-0.1,0.9-0.1,1.7v1c0,0.4,0,0.8,0.1,1.1h-1.4v-2.5h-12.3v2.4h-1.4
		c0.1-0.4,0.1-0.8,0.1-1.2v-1c0-0.6,0-1-0.1-1.5c0.5,0.1,1,0.1,1.8,0.1h1.8c-0.4-0.7-0.8-1.2-1.4-1.9l1.3-0.4
		c0.7,0.9,1.1,1.4,1.6,2.3h1.6V152.5z M480.7,160c-0.7,0-1.2,0-1.6,0.1c0.1-0.4,0.1-0.6,0.1-1.5v-1.2c0-0.6,0-1-0.1-1.4
		c0.5,0.1,1.1,0.1,1.7,0.1h6.3c0.7,0,1.2,0,1.7-0.1c0,0.4-0.1,0.8-0.1,1.4v1.1c0,0.9,0,1.2,0.1,1.5c-0.5-0.1-1.1-0.1-1.8-0.1h-2.6
		v1.4h4.1c0.9,0,1.4,0,1.7-0.1c-0.1,0.4-0.1,0.9-0.1,1.6v2.4c0,1.1-0.4,1.4-1.9,1.4c-0.5,0-0.8,0-1.7-0.1c-0.1-0.6-0.1-0.8-0.3-1.3
		c0.7,0.1,1.4,0.1,1.8,0.1c0.6,0,0.8-0.1,0.8-0.4v-2.4h-4.5v3.1c0,0.8,0,1.3,0.1,1.9H483c0.1-0.6,0.1-1.1,0.1-1.9v-3.1H479v2.4
		c0,0.9,0,1.4,0.1,1.8h-1.5c0.1-0.5,0.1-1.1,0.1-1.8v-2.1c0-0.6,0-1.1-0.1-1.5c0.5,0.1,1,0.1,1.7,0.1h3.9V160H480.7z M480.4,157.2
		v1.7h7v-1.7H480.4z"/>
	<path class="st0" d="M496.9,164.1c-0.6,1.6-1,2.3-1.9,3.4c-0.3-0.4-0.6-0.6-1.1-0.9c1-1,1.3-1.6,1.9-3L496.9,164.1z M496.2,163.1
		c-0.8,0-1.1,0-1.4,0.1c0-0.5,0.1-1.1,0.1-1.7v-8c0-0.6,0-1.2-0.1-1.6c0.5,0,0.9,0.1,1.6,0.1h2.1c0.9,0,1.1,0,1.5-0.1
		c-0.1,0.4-0.1,0.6-0.1,1.5v8.2c0,0.8,0,1.2,0.1,1.6c-0.5,0-0.8-0.1-1.4-0.1H496.2z M496.1,155.2h2.6v-2.2h-2.6V155.2z M496.1,158.5
		h2.6v-2.2h-2.6V158.5z M496.1,161.9h2.6v-2.3h-2.6V161.9z M498.7,163.5c0.5,1.1,0.8,1.6,1.2,2.3c-0.5,0.3-0.7,0.5-1,0.8
		c-0.5-0.7-0.7-1.2-1.3-2.6L498.7,163.5z M502.8,157.5c-0.2,5.2-0.7,7.7-2.2,10c-0.4-0.5-0.6-0.6-1.1-1c1.5-2.1,2-4.8,2-12.4
		c0-1,0-1.5-0.1-2.2c0.6,0.1,1.2,0.1,1.9,0.1h5.2c0.8,0,1.4,0,1.8-0.1v1.5c-0.5-0.1-1-0.1-1.8-0.1h-5.8v3h5c0.7,0,1.2,0,1.5-0.1
		l0.7,0.8c-0.1,0.3-0.1,0.3-0.5,1.4c-0.7,2-1.4,3.5-2.3,4.8c1,1.2,2.1,2.1,3.6,2.8c-0.4,0.4-0.6,0.8-0.9,1.3c-1.6-1-2.6-1.8-3.6-3
		c-1.2,1.4-2.2,2.2-3.8,3.2c-0.3-0.5-0.6-0.8-1-1.1c1.8-0.9,2.8-1.7,4-3.1c-1.1-1.7-1.7-3.4-2.2-5.8H502.8z M504.6,157.5
		c0.3,1.8,0.9,3.2,1.8,4.7c0.9-1.4,1.4-2.6,2-4.7H504.6z"/>
	<path class="st0" d="M519.3,160.4c-0.1,0.3-0.1,0.4-0.1,0.8c-0.1,0.8-0.3,1.9-0.6,2.5c-0.5,1.1-1.2,1.9-2.3,2.6
		c-0.8,0.5-1.4,0.8-2.8,1.2c-0.3-0.6-0.5-0.9-0.9-1.4c1.2-0.2,1.7-0.4,2.4-0.8c1-0.6,1.9-1.3,2.3-2c0.3-0.6,0.5-1.5,0.5-2.2l0-0.1
		l0-0.1c0-0.1,0-0.4-0.1-0.6L519.3,160.4z M519.8,152.7c0-0.7,0-1.1-0.1-1.6h1.6c-0.1,0.4-0.1,0.8-0.1,1.6v0.3h5.3
		c0.9,0,1.6,0,2-0.1v1.4c-0.5-0.1-1.2-0.1-2-0.1h-5.3v1.7h4.1c1,0,1.4,0,1.9-0.1v1.4c-0.6-0.1-1-0.1-1.9-0.1h-9.4
		c-0.9,0-1.3,0-1.9,0.1v-1.4c0.5,0.1,0.9,0.1,1.9,0.1h3.9v-1.7h-4.9c-0.9,0-1.4,0-2,0.1v-1.4c0.4,0.1,1.1,0.1,2.1,0.1h4.9V152.7z
		 M512.9,162c0.1-0.4,0.1-0.7,0.1-1.3v-1.1c0-0.5,0-0.8-0.1-1.2c0.6,0.1,1,0.1,1.8,0.1h11.7c0.8,0,1.3,0,1.9-0.1
		c-0.1,0.4-0.1,0.7-0.1,1.2v1.1c0,0.5,0,0.9,0.1,1.3h-1.5v-2.3h-12.4v2.3H512.9z M522.9,165.2c0,0.5,0.2,0.6,1.7,0.6
		c1.6,0,2-0.1,2.3-0.4c0.2-0.3,0.3-1,0.4-2.4c0.4,0.2,0.8,0.4,1.4,0.5c-0.1,1.6-0.4,2.5-0.8,2.9c-0.4,0.4-1.2,0.6-3.3,0.6
		c-2.6,0-3.1-0.2-3.1-1.4v-3.9c0-0.8,0-1.1-0.1-1.5h1.6c-0.1,0.4-0.1,0.7-0.1,1.4V165.2z"/>
	<path class="st0" d="M440.5,193.8c-1.2,0-1.5,0-2.1,0.1c0.2-1.4,0.2-1.7,0.5-2.3c0.5-1.2,1.2-2.2,2.4-3.2c0.6-0.5,1-0.8,2.8-2
		c1.7-1.2,2.3-1.9,2.3-3c0-1.3-1.1-2.1-2.8-2.1c-1.2,0-2,0.4-2.5,1.1c-0.3,0.5-0.5,0.9-0.6,1.8l-1.8-0.3c0.3-1.3,0.6-2,1.2-2.7
		c0.8-1,2.1-1.4,3.8-1.4c2.8,0,4.6,1.4,4.6,3.6c0,0.8-0.3,1.7-0.8,2.3c-0.6,0.7-1,1.1-3.1,2.4c-2.4,1.6-3.3,2.6-3.8,4.2h5.6
		c1,0,1.7,0,2.3-0.1v1.7c-0.8-0.1-1.4-0.1-2.4-0.1H440.5z"/>
	<path class="st0" d="M452.1,181.5c0-0.7,0-1.3-0.1-1.8c0.6,0.1,1.1,0.1,2,0.1h8.2c0.8,0,1.4,0,1.9-0.1c-0.1,0.5-0.1,1-0.1,1.7v11.5
		c0,0.9,0,1.4,0.1,2h-1.6v-1.2h-9v1.2H452c0.1-0.6,0.1-1.2,0.1-2V181.5z M453.6,185.9h9v-4.8h-9V185.9z M453.6,192.4h9v-5.2h-9
		V192.4z"/>
	<path class="st0" d="M472.8,181.3c-0.5-0.9-0.9-1.4-1.8-2.4l1.3-0.5c1.2,1.5,1.3,1.7,2,2.8h2.5c0.8-0.9,1.3-1.6,1.9-2.8l1.4,0.5
		c-0.6,1-1.3,1.8-1.8,2.3h3.4c0.8,0,1.3,0,1.8-0.1v1.4c-0.6-0.1-1-0.1-1.8-0.1h-12.3c-0.8,0-1.3,0-1.8,0.1v-1.4
		c0.6,0.1,0.6,0.1,1.8,0.1H472.8z M470.2,193.1c0,1,0,1.4,0.1,1.9h-1.5c0.1-0.5,0.1-1.1,0.1-2v-7.6c0-0.9,0-1.2-0.1-1.6
		c0.6,0.1,1,0.1,1.7,0.1h3c1,0,1.2,0,1.6-0.1c0,0.4-0.1,0.9-0.1,1.9v7.7c0,1.2-0.4,1.5-1.6,1.5c-0.4,0-0.9,0-1.4-0.1
		c-0.1-0.6-0.1-0.8-0.3-1.3c0.6,0.1,1.1,0.2,1.5,0.2c0.5,0,0.6-0.1,0.6-0.5v-2.2h-3.7V193.1z M473.9,186.9v-1.8h-3.7v1.8H473.9z
		 M473.9,189.9v-1.8h-3.7v1.8H473.9z M478.8,184.1c-0.1,0.4-0.1,0.8-0.1,1.7v3.7c0,1.3,0,1.5,0.1,2h-1.5c0.1-0.5,0.1-0.8,0.1-2v-3.7
		c0-0.9,0-1.2-0.1-1.7H478.8z M482.6,183.6c-0.1,0.5-0.1,1-0.1,1.9v7.7c0,1.4-0.4,1.7-2,1.7c-0.5,0-1.2,0-2.1-0.1
		c-0.1-0.5-0.2-0.9-0.4-1.4c1,0.2,1.7,0.2,2.3,0.2c0.7,0,0.8-0.1,0.8-0.6v-7.7c0-1.1,0-1.4-0.1-1.9H482.6z"/>
	<path class="st0" d="M496.4,191.6c1.8-1,2.8-2.7,2.8-4.8c0-2-1-3.5-2.7-4.4c-0.6-0.3-1.1-0.4-2-0.5c-0.3,2.6-1,5.3-1.8,7.2
		c-1,2.4-2.1,3.4-3.5,3.4c-1.8,0-3.2-1.9-3.2-4.6c0-1.9,0.7-3.7,1.9-5c1.5-1.6,3.5-2.4,5.9-2.4c4.1,0,6.8,2.5,6.8,6.3
		c0,2.8-1.4,5-3.9,6.2c-0.9,0.4-1.6,0.6-3,0.9c-0.2-0.7-0.4-1-0.8-1.5C494.7,192.3,495.5,192.1,496.4,191.6z M490.5,182.8
		c-1.7,1.1-2.8,3.1-2.8,5.2c0,1.6,0.7,2.9,1.7,2.9c0.7,0,1.4-0.8,2.1-2.5c0.7-1.7,1.4-4.2,1.6-6.5
		C492,182.1,491.2,182.3,490.5,182.8z"/>
	<path class="st0" d="M505,192.7c-0.5-0.5-0.9-1.1-1.1-1.7c-0.5-1.3-0.7-2.7-0.7-4.1c0-1.9,0.4-3.9,1.1-4.9c0.9-1.5,2.3-2.3,4.2-2.3
		c1.4,0,2.6,0.5,3.4,1.3c0.5,0.5,0.9,1.1,1.1,1.7c0.5,1.3,0.7,2.7,0.7,4.2c0,2.2-0.5,4.1-1.3,5.2c-0.9,1.3-2.3,1.9-4,1.9
		C507,194,505.9,193.6,505,192.7z M506.2,182c-0.4,0.4-0.6,0.9-0.8,1.3c-0.3,1-0.5,2.2-0.5,3.5c0,1.6,0.3,3.3,0.8,4.2
		c0.6,1,1.5,1.5,2.7,1.5c0.9,0,1.6-0.3,2.1-0.8c0.4-0.4,0.7-0.9,0.8-1.4c0.4-1.1,0.5-2.2,0.5-3.5c0-1.5-0.3-3.3-0.8-4.1
		c-0.6-1.1-1.5-1.6-2.8-1.6C507.5,181.1,506.8,181.4,506.2,182z"/>
	<path class="st0" d="M520.4,184h-2v-2h2V184z M518.3,191.9v-2h2v2H518.3z"/>
	<path class="st0" d="M526.8,192.7c-0.5-0.5-0.9-1.1-1.1-1.7c-0.5-1.3-0.7-2.7-0.7-4.1c0-1.9,0.4-3.9,1.1-4.9
		c0.9-1.5,2.3-2.3,4.2-2.3c1.4,0,2.6,0.5,3.4,1.3c0.5,0.5,0.9,1.1,1.1,1.7c0.5,1.3,0.7,2.7,0.7,4.2c0,2.2-0.5,4.1-1.3,5.2
		c-0.9,1.3-2.3,1.9-4,1.9C528.8,194,527.7,193.6,526.8,192.7z M528.1,182c-0.4,0.4-0.6,0.9-0.8,1.3c-0.3,1-0.5,2.2-0.5,3.5
		c0,1.6,0.3,3.3,0.8,4.2c0.6,1,1.5,1.5,2.7,1.5c0.9,0,1.6-0.3,2.1-0.8c0.4-0.4,0.7-0.9,0.8-1.4c0.4-1.1,0.5-2.2,0.5-3.5
		c0-1.5-0.3-3.3-0.8-4.1c-0.6-1.1-1.5-1.6-2.8-1.6C529.3,181.1,528.6,181.4,528.1,182z"/>
	<path class="st0" d="M539.3,192.7c-0.5-0.5-0.9-1.1-1.1-1.7c-0.5-1.3-0.7-2.7-0.7-4.1c0-1.9,0.4-3.9,1.1-4.9
		c0.9-1.5,2.3-2.3,4.2-2.3c1.4,0,2.6,0.5,3.4,1.3c0.5,0.5,0.9,1.1,1.1,1.7c0.5,1.3,0.7,2.7,0.7,4.2c0,2.2-0.5,4.1-1.3,5.2
		c-0.9,1.3-2.3,1.9-4,1.9C541.3,194,540.2,193.6,539.3,192.7z M540.5,182c-0.4,0.4-0.6,0.9-0.8,1.3c-0.3,1-0.5,2.2-0.5,3.5
		c0,1.6,0.3,3.3,0.8,4.2c0.6,1,1.5,1.5,2.7,1.5c0.9,0,1.6-0.3,2.1-0.8c0.4-0.4,0.7-0.9,0.8-1.4c0.4-1.1,0.5-2.2,0.5-3.5
		c0-1.5-0.3-3.3-0.8-4.1c-0.6-1.1-1.5-1.6-2.8-1.6C541.8,181.1,541.1,181.4,540.5,182z"/>
</g>
<g>
	<path class="st0" d="M42.6,151.2c0.9,1.3,1.6,2.1,3,3.2c1.6,1.2,3.2,2.1,4.9,2.8c-0.4,0.5-0.6,0.9-0.8,1.4c-1.7-0.8-3.4-1.9-4.9-3
		c-1.2-1-2.1-1.9-2.9-3c-0.8,1.2-1.6,1.9-2.8,2.9c-1.6,1.3-3,2.2-4.8,3c-0.2-0.5-0.5-0.9-0.8-1.3c1.8-0.8,3.2-1.6,4.7-2.8
		c1.2-1,2.1-1.9,2.9-3.2H42.6z M36.4,161.4c-0.9,0-1.5,0-2.1,0.1V160c0.6,0.1,1.2,0.1,2.1,0.1h11.1c0.9,0,1.5,0,2.1-0.1v1.5
		c-0.5-0.1-1.2-0.1-2.1-0.1h-6.4c-0.8,1.8-1.3,2.7-2.1,4.1c1.7-0.1,4.3-0.3,6.6-0.6c-0.9-1-1.2-1.4-2.1-2.1l1.2-0.6
		c2,1.9,3.1,3.2,4.3,4.8l-1.2,0.9c-0.6-0.9-0.8-1.2-1.2-1.7c-3,0.4-6.2,0.7-8.9,0.9c-1.8,0.1-2.4,0.2-2.8,0.3l-0.2-1.6
		c0.3,0,0.7,0.1,0.9,0.1c0.3,0,0.3,0,1.8-0.1c1-1.5,1.5-2.6,2.2-4.1H36.4z M37.5,156.7c0.4,0.1,0.8,0.1,1.5,0.1h5.9
		c0.7,0,1.1,0,1.5-0.1v1.4c-0.4-0.1-0.9-0.1-1.5-0.1H39c-0.5,0-1,0-1.4,0.1V156.7z"/>
	<path class="st0" d="M55.7,164.5c-0.9,0-1.4,0-2,0.1c0.1-0.4,0.1-0.4,0.1-1.9v-4.3c0-0.9,0-1.5-0.1-1.9c0.6,0.1,1.1,0.1,2,0.1h9.2
		c0.9,0,1.4,0,2-0.1c-0.1,0.4-0.1,1-0.1,1.9v4.3l0,1v0.3c0,0.1,0,0.3,0.1,0.6c-0.6-0.1-1.1-0.1-2-0.1h-1.7c1.4,1,3.2,1.6,5.4,2
		c-0.4,0.4-0.7,0.8-0.9,1.2c-2.8-0.7-3.8-1.2-5.6-2.4l1-0.8h-5.8l1.1,0.8c-1,0.7-1.7,1-2.8,1.5c-0.7,0.3-1.1,0.4-2.8,0.9
		c-0.3-0.6-0.4-0.8-0.9-1.3c2.1-0.3,4.1-1,5.3-2H55.7z M66.2,154.2c0,0.5,0,0.9,0.1,1.3c-0.6,0-1.2-0.1-2-0.1h-7.9
		c-0.8,0-1.4,0-2,0.1c0.1-0.5,0.1-0.8,0.1-1.3V153c0-0.5,0-0.8-0.1-1.3c0.6,0.1,1,0.1,2,0.1h7.8c1,0,1.5,0,2-0.1
		c-0.1,0.5-0.1,0.8-0.1,1.3V154.2z M55.1,158.8h10.4v-1.2H55.1V158.8z M55.1,161.1h10.4v-1.2H55.1V161.1z M55.1,163.4h10.4v-1.3
		H55.1V163.4z M55.8,152.9v1.5h9v-1.5H55.8z"/>
	<path class="st0" d="M71.4,153.1c0-0.5,0-0.9-0.1-1.4c0.3,0,0.6,0.1,1.2,0.1h2.6c0.6,0,1,0,1.2-0.1l0.7,0.9
		c-0.1,0.3-0.1,0.3-0.6,1.4c-0.4,1-0.9,2-1.6,3.3c1,1.2,1.4,1.9,1.6,2.9c0.1,0.5,0.2,0.9,0.2,1.4c0,1-0.4,1.6-1,1.8
		c-0.4,0.1-0.9,0.2-1.5,0.2c-0.2,0-0.4,0-0.7,0c0-0.6-0.1-0.9-0.3-1.4c0.4,0.1,0.8,0.1,1.1,0.1c0.8,0,1-0.2,1-0.9
		c0-0.6-0.1-1.3-0.4-1.9c-0.3-0.7-0.6-1.2-1.5-2.1c1-1.8,1.2-2.4,2-4.4h-2.8v12.8c0,0.7,0,1.2,0.1,1.8h-1.5c0.1-0.5,0.1-1,0.1-1.8
		V153.1z M78.9,159.5v5.8c1.6-0.4,2.1-0.5,3.2-0.9l0.1,1.3c-1.9,0.6-3,0.9-5.7,1.5c-0.4,0.1-0.6,0.2-0.8,0.3l-0.3-1.4
		c0.5,0,1.2-0.1,2.3-0.4v-11.9c0-0.7,0-1.3-0.1-1.9c0.5,0.1,0.9,0.1,1.7,0.1h4.8c0.9,0,1.3,0,1.7-0.1c0,0.5-0.1,0.9-0.1,2v3.9
		c0,1.1,0,1.4,0.1,1.9c-0.5,0-1-0.1-1.7-0.1h-2.3c0.3,1.2,0.5,1.7,1,2.6c1.3-0.8,2.5-1.9,2.9-2.4l1,1c0,0-0.4,0.3-1.1,0.9
		c-0.6,0.5-1.4,1-2.2,1.6c0.9,1.3,2.1,2.2,3.8,3c-0.4,0.4-0.6,0.6-0.9,1.2c-2-1.2-3.1-2.2-4.2-3.8c-0.8-1.2-1.2-2.3-1.7-4.1H78.9z
		 M78.9,155.1h5.6v-2h-5.6V155.1z M78.9,158.4h5.6v-2.1h-5.6V158.4z"/>
	<path class="st0" d="M96.8,157.6h-3c-0.8,0-1.3,0-1.8,0.1v-1.4c0.5,0.1,1,0.1,1.8,0.1h7.3c0.8,0,1.3,0,1.8-0.1v1.4
		c-0.5-0.1-1-0.1-1.8-0.1h-2.9v2.8h3.4c0.8,0,1.3,0,1.7-0.1v1.4c-0.5-0.1-1-0.1-1.7-0.1h-3.4v3.7c0.9,0.1,1.7,0.2,2.9,0.2
		c1.4,0,2.6-0.1,4.2-0.2c-0.2,0.5-0.3,0.8-0.4,1.5c-1.4,0.1-1.8,0.1-3.5,0.1c-4.4,0-6.9-1-8.2-3.4c-0.7,1.6-1.4,2.6-2.7,3.9
		c-0.4-0.5-0.5-0.6-1.1-1c1.2-1.2,1.8-1.9,2.4-3.1c0.6-1.2,1.1-3.2,1.1-4.1c0,0,0-0.1,0-0.1l1.5,0.3c-0.1,0.3-0.1,0.3-0.2,1
		c0,0.3-0.3,1.2-0.5,1.8c0.8,1.5,1.6,2.3,3.2,2.9V157.6z M96.6,152.4c0-0.4,0-0.7-0.1-1.1h1.6c-0.1,0.4-0.1,0.7-0.1,1.1v0.8h5.1
		c0.7,0,1.2,0,1.9-0.1c-0.1,0.4-0.1,0.8-0.1,1.2v1.2c0,0.5,0,0.9,0.1,1.3h-1.4v-2.4H91.3v2.4h-1.4c0.1-0.4,0.1-0.7,0.1-1.3v-1.2
		c0-0.5,0-0.9-0.1-1.2c0.6,0.1,1.2,0.1,1.9,0.1h4.8V152.4z"/>
	<path class="st0" d="M8.9,190.2c0.3,0.9,0.5,1.3,1,1.6c0.6,0.5,1.4,0.7,2.3,0.7c2,0,3.3-1,3.3-2.7c0-1.7-1.2-2.6-3.5-2.6
		c-0.5,0-1,0-1.5,0.1v-1.7c0.4,0.1,0.9,0.1,1.4,0.1c1.2,0,2-0.3,2.5-0.8c0.4-0.4,0.7-1,0.7-1.7c0-1.4-1-2.3-2.8-2.3
		c-1.1,0-1.8,0.3-2.3,0.9c-0.3,0.3-0.4,0.6-0.6,1.2l-1.8-0.4c0.3-1,0.6-1.4,1.1-1.9c0.8-0.9,2.1-1.3,3.7-1.3c2.7,0,4.4,1.4,4.4,3.6
		c0,1.1-0.5,2.1-1.3,2.6c-0.5,0.3-0.8,0.5-1.7,0.6c1.2,0.2,1.9,0.5,2.6,1.1c0.6,0.6,0.9,1.4,0.9,2.5c0,1-0.4,1.9-1,2.6
		c-0.9,0.9-2.3,1.4-4,1.4c-1.9,0-3.3-0.5-4.2-1.5c-0.4-0.5-0.6-0.9-1-1.8L8.9,190.2z"/>
	<path class="st0" d="M21.4,181.5c0-0.7,0-1.3-0.1-1.8c0.6,0.1,1.1,0.1,2,0.1h8.2c0.8,0,1.4,0,1.9-0.1c-0.1,0.5-0.1,1-0.1,1.7v11.5
		c0,0.9,0,1.4,0.1,2h-1.6v-1.2h-9v1.2h-1.6c0.1-0.6,0.1-1.2,0.1-2V181.5z M22.8,185.9h9v-4.8h-9V185.9z M22.8,192.4h9v-5.2h-9V192.4
		z"/>
	<path class="st0" d="M42.5,181.3c-0.5-0.9-0.9-1.4-1.8-2.4l1.3-0.5c1.2,1.5,1.3,1.7,2,2.8h2.5c0.8-0.9,1.3-1.6,1.9-2.8l1.4,0.5
		c-0.6,1-1.3,1.8-1.8,2.3h3.4c0.8,0,1.3,0,1.8-0.1v1.4c-0.6-0.1-1-0.1-1.8-0.1H39.2c-0.8,0-1.3,0-1.8,0.1v-1.4
		c0.6,0.1,0.6,0.1,1.8,0.1H42.5z M39.8,193.1c0,1,0,1.4,0.1,1.9h-1.5c0.1-0.5,0.1-1.1,0.1-2v-7.6c0-0.9,0-1.2-0.1-1.6
		c0.6,0.1,1,0.1,1.7,0.1h3c1,0,1.2,0,1.6-0.1c0,0.4-0.1,0.9-0.1,1.9v7.7c0,1.2-0.4,1.5-1.6,1.5c-0.4,0-0.9,0-1.4-0.1
		c-0.1-0.6-0.1-0.8-0.3-1.3c0.6,0.1,1.1,0.2,1.5,0.2c0.5,0,0.6-0.1,0.6-0.5v-2.2h-3.7V193.1z M43.5,186.9v-1.8h-3.7v1.8H43.5z
		 M43.5,189.9v-1.8h-3.7v1.8H43.5z M48.4,184.1c-0.1,0.4-0.1,0.8-0.1,1.7v3.7c0,1.3,0,1.5,0.1,2h-1.5c0.1-0.5,0.1-0.8,0.1-2v-3.7
		c0-0.9,0-1.2-0.1-1.7H48.4z M52.2,183.6c-0.1,0.5-0.1,1-0.1,1.9v7.7c0,1.4-0.4,1.7-2,1.7c-0.5,0-1.2,0-2.1-0.1
		c-0.1-0.5-0.2-0.9-0.4-1.4c1,0.2,1.7,0.2,2.3,0.2c0.7,0,0.8-0.1,0.8-0.6v-7.7c0-1.1,0-1.4-0.1-1.9H52.2z"/>
	<path class="st0" d="M66.4,191.6c1.8-1,2.8-2.7,2.8-4.8c0-2-1-3.5-2.7-4.4c-0.6-0.3-1.1-0.4-2-0.5c-0.3,2.6-1,5.3-1.8,7.2
		c-1,2.4-2.1,3.4-3.5,3.4c-1.8,0-3.2-1.9-3.2-4.6c0-1.9,0.7-3.7,1.9-5c1.5-1.6,3.5-2.4,5.9-2.4c4.1,0,6.8,2.5,6.8,6.3
		c0,2.8-1.4,5-3.9,6.2c-0.9,0.4-1.6,0.6-3,0.9c-0.2-0.7-0.4-1-0.8-1.5C64.6,192.3,65.5,192.1,66.4,191.6z M60.4,182.8
		c-1.7,1.1-2.8,3.1-2.8,5.2c0,1.6,0.7,2.9,1.7,2.9c0.7,0,1.4-0.8,2.1-2.5c0.7-1.7,1.4-4.2,1.6-6.5C62,182.1,61.2,182.3,60.4,182.8z"
		/>
	<path class="st0" d="M75.8,193.8c-1.2,0-1.5,0-2.1,0.1c0.2-1.4,0.2-1.7,0.5-2.3c0.5-1.2,1.2-2.2,2.4-3.2c0.6-0.5,1-0.8,2.8-2
		c1.7-1.2,2.3-1.9,2.3-3c0-1.3-1.1-2.1-2.8-2.1c-1.2,0-2,0.4-2.5,1.1c-0.3,0.5-0.5,0.9-0.6,1.8l-1.8-0.3c0.3-1.3,0.6-2,1.2-2.7
		c0.8-1,2.1-1.4,3.8-1.4c2.8,0,4.6,1.4,4.6,3.6c0,0.8-0.3,1.7-0.8,2.3c-0.6,0.7-1,1.1-3.1,2.4c-2.4,1.6-3.3,2.6-3.8,4.2h5.6
		c1,0,1.7,0,2.3-0.1v1.7c-0.8-0.1-1.4-0.1-2.4-0.1H75.8z"/>
	<path class="st0" d="M88.4,179.8c0.5,0.1,0.9,0.1,1.6,0.1h1.3c0.7,0,1,0,1.6-0.1c-0.1,1.1-0.2,2-0.2,3v8.9c0,0.9,0,1.4,0.1,2.1h-2
		c0.1-0.7,0.1-1.3,0.1-2.1v-10.3h-0.9c-0.6,0-1.1,0-1.7,0.1V179.8z"/>
	<path class="st0" d="M103.9,184h-2v-2h2V184z M101.9,191.9v-2h2v2H101.9z"/>
	<path class="st0" d="M110.7,192.7c-0.5-0.5-0.9-1.1-1.1-1.7c-0.5-1.3-0.7-2.7-0.7-4.1c0-1.9,0.4-3.9,1.1-4.9
		c0.9-1.5,2.3-2.3,4.2-2.3c1.4,0,2.6,0.5,3.4,1.3c0.5,0.5,0.9,1.1,1.1,1.7c0.5,1.3,0.7,2.7,0.7,4.2c0,2.2-0.5,4.1-1.3,5.2
		c-0.9,1.3-2.3,1.9-4,1.9C112.7,194,111.6,193.6,110.7,192.7z M111.9,182c-0.4,0.4-0.6,0.9-0.8,1.3c-0.3,1-0.5,2.2-0.5,3.5
		c0,1.6,0.3,3.3,0.8,4.2c0.6,1,1.5,1.5,2.7,1.5c0.9,0,1.6-0.3,2.1-0.8c0.4-0.4,0.7-0.9,0.8-1.4c0.4-1.1,0.5-2.2,0.5-3.5
		c0-1.5-0.3-3.3-0.8-4.1c-0.6-1.1-1.5-1.6-2.8-1.6C113.2,181.1,112.5,181.4,111.9,182z"/>
	<path class="st0" d="M123.5,192.7c-0.5-0.5-0.9-1.1-1.1-1.7c-0.5-1.3-0.7-2.7-0.7-4.1c0-1.9,0.4-3.9,1.1-4.9
		c0.9-1.5,2.3-2.3,4.2-2.3c1.4,0,2.6,0.5,3.4,1.3c0.5,0.5,0.9,1.1,1.1,1.7c0.5,1.3,0.7,2.7,0.7,4.2c0,2.2-0.5,4.1-1.3,5.2
		c-0.9,1.3-2.3,1.9-4,1.9C125.6,194,124.4,193.6,123.5,192.7z M124.8,182c-0.4,0.4-0.6,0.9-0.8,1.3c-0.3,1-0.5,2.2-0.5,3.5
		c0,1.6,0.3,3.3,0.8,4.2c0.6,1,1.5,1.5,2.7,1.5c0.9,0,1.6-0.3,2.1-0.8c0.4-0.4,0.7-0.9,0.8-1.4c0.4-1.1,0.5-2.2,0.5-3.5
		c0-1.5-0.3-3.3-0.8-4.1c-0.6-1.1-1.5-1.6-2.8-1.6C126,181.1,125.3,181.4,124.8,182z"/>
</g>
</svg>
