<?xml version="1.0" encoding="utf-8"?>
<!-- Generator: Adobe Illustrator 25.2.1, SVG Export Plug-In . SVG Version: 6.00 Build 0)  -->
<svg version="1.1" id="レイヤー_21" xmlns="http://www.w3.org/2000/svg" xmlns:xlink="http://www.w3.org/1999/xlink" x="0px"
	 y="0px" width="669.5px" height="202.9px" viewBox="0 0 669.5 202.9" style="enable-background:new 0 0 669.5 202.9;"
	 xml:space="preserve">
<style type="text/css">
	.st0{fill:#717272;}
	.st1{fill:#727272;}
</style>
<g>
	<g>
		<g>
			<path class="st0" d="M538.1,76.4c2.1,0.3,3.7,0.4,6.9,0.4h5.2c2.8,0,4.1-0.1,6.9-0.4c-0.5,5-0.7,9.3-0.7,13.7v40.1
				c0,3.9,0.2,6.3,0.7,9.3H549c0.5-2.9,0.7-5.5,0.7-9.3V82.4h-4.5c-2.6,0-4.8,0.2-7.2,0.5L538.1,76.4L538.1,76.4z"/>
			<path class="st0" d="M575.2,139.7c0.3-2.1,0.5-3.8,0.5-6.5V102c0-2.4-0.1-4.2-0.5-6.6c2.1,0.1,3.7,0.2,6.4,0.2h11.8
				c8.9,0,14,4.6,14,12.7c0,8.5-5.2,13.5-14.3,13.5h-12.9v11.4c0,2.8,0.1,4.6,0.5,6.6h-5.5V139.7z M593.2,117.7
				c6.2,0,9.6-3.3,9.6-9.2c0-5.8-3.4-8.9-9.6-8.9h-12.9v18.1H593.2z"/>
		</g>
		<g>
			<path class="st1" d="M538.1,76.4c2.1,0.3,3.7,0.4,6.9,0.4h5.2c2.8,0,4.1-0.1,6.9-0.4c-0.5,5-0.7,9.3-0.7,13.7v40.1
				c0,3.9,0.2,6.3,0.7,9.3H549c0.5-2.9,0.7-5.5,0.7-9.3V82.4h-4.5c-2.6,0-4.8,0.2-7.2,0.5L538.1,76.4L538.1,76.4z"/>
			<path class="st1" d="M575.2,139.7c0.3-2.1,0.5-3.8,0.5-6.5V102c0-2.4-0.1-4.2-0.5-6.6c2.1,0.1,3.7,0.2,6.4,0.2h11.8
				c8.9,0,14,4.6,14,12.7c0,8.5-5.2,13.5-14.3,13.5h-12.9v11.4c0,2.8,0.1,4.6,0.5,6.6h-5.5V139.7z M593.2,117.7
				c6.2,0,9.6-3.3,9.6-9.2c0-5.8-3.4-8.9-9.6-8.9h-12.9v18.1H593.2z"/>
		</g>
	</g>
	<path class="st0" d="M568,202.9c-55.9,0-101.4-45.5-101.4-101.4S512.1,0,568,0s101.4,45.5,101.4,101.4S624,202.9,568,202.9z M568,2
		c-54.8,0-99.4,44.6-99.4,99.4s44.6,99.4,99.4,99.4s99.4-44.6,99.4-99.4S622.9,2,568,2z"/>
</g>
<g>
	<g>
		<g>
			<path class="st0" d="M31.5,133.7c0.3-2.1,0.4-4,0.4-6.7v-5.8h-7c-2.1,0-3.3,0.1-4.9,0.5v-4.5c1.6,0.4,2.8,0.5,4.9,0.5h7v-2.9
				l-1.9-3.5h-5.1c-2.1,0-3.3,0.1-4.9,0.5v-4.5c1.6,0.4,2.8,0.5,4.9,0.5h3.3l-7.4-14.2c-1.4-2.7-2.1-4-2.9-5.2H23
				c0.4,1.4,0.8,2.5,2.3,5.5l8.3,16.8L42,94c1.4-2.8,2-4.1,2.3-5.5h5.1c-0.7,1-1.7,2.7-2.9,5.2l-7.3,14.2h3.3c2.1,0,3.4-0.1,5-0.5
				v4.5c-1.6-0.4-2.9-0.5-5-0.5h-5.1l-1.9,3.6v2.8h7c2.1,0,3.3-0.1,4.9-0.5v4.5c-1.6-0.4-2.9-0.5-4.9-0.5h-7v5.8
				c0,3,0.1,4.5,0.4,6.7h-4.4V133.7z"/>
			<path class="st0" d="M61.9,96.7c-0.1,1.5-0.1,1.5-0.5,3.7c3.2-3.8,7.1-5.7,11.7-5.7c4.9,0,9,2,12,5.7c3,3.6,4.5,8.5,4.5,14.7
				c0,13.4-7,22-18,22c-5.2,0-9.5-1.9-12.7-5.7c-1.7-2.1-2.6-3.8-4.2-7.8l5.5-2c0.7,2.3,1.1,3.4,2.1,4.8c2.3,3.2,5.6,4.9,9.5,4.9
				c7.5,0,12.5-6.3,12.5-15.9c0-9.2-4.6-15.2-11.7-15.2c-3.4,0-6.3,1.2-8.7,3.5c-1.6,1.6-2.3,2.7-3.1,5l-5-0.6c0.5-3.2,0.7-5,1-8.6
				l1.5-18.8c0.1-2.4,0.2-3.4,0.2-5c0-1.2,0-1.5-0.1-3.6c2.1,0.3,3.1,0.4,7.1,0.4h13.7c3.6,0,5.1-0.2,7.8-0.7V79
				c-2.5-0.5-4.7-0.7-7.8-0.7H63.3L61.9,96.7z"/>
			<path class="st0" d="M103.6,131.2c-1.8-2.2-3.2-4.8-4-7.7c-1.7-5.8-2.5-12.4-2.5-19.2c0-8.8,1.5-17.8,3.9-22.6
				c3.2-6.7,8.3-10.2,14.9-10.2c4.9,0,9.2,2,12.2,5.9c1.9,2.3,3.2,4.9,4,7.7c1.7,5.7,2.5,12.4,2.5,19.3c0,10.1-1.7,19-4.7,24.1
				c-3.3,5.8-8,8.7-14.1,8.7C110.8,137.1,106.7,135.1,103.6,131.2z M107.4,81.4c-1.4,1.9-2.5,4-3,6.1c-1.4,5.1-2.1,10.7-2.1,16.8
				c0,7.7,1.3,15.9,3.1,19.8c2.3,4.8,5.8,7.2,10.3,7.2c3.3,0,6.2-1.3,8.2-3.9c1.5-1.9,2.5-4.1,3.1-6.5c1.4-5.2,2.1-10.7,2.1-16.8
				c0-7.2-1.3-15.5-3-19.4c-2.2-5-5.8-7.6-10.5-7.6C112.3,77.1,109.6,78.6,107.4,81.4z"/>
			<path class="st0" d="M147.3,131.2c-1.8-2.2-3.2-4.8-4-7.7c-1.7-5.8-2.5-12.4-2.5-19.2c0-8.8,1.5-17.8,3.9-22.6
				c3.2-6.7,8.3-10.2,14.9-10.2c4.9,0,9.2,2,12.2,5.9c1.9,2.3,3.2,4.9,4,7.7c1.7,5.7,2.5,12.4,2.5,19.3c0,10.1-1.7,19-4.7,24.1
				c-3.3,5.8-8,8.7-14.1,8.7C154.6,137.1,150.5,135.1,147.3,131.2z M151.2,81.4c-1.4,1.9-2.5,4-3,6.1c-1.4,5.1-2.1,10.7-2.1,16.8
				c0,7.7,1.3,15.9,3.1,19.8c2.3,4.8,5.8,7.2,10.3,7.2c3.3,0,6.2-1.3,8.2-3.9c1.5-1.9,2.5-4.1,3.1-6.5c1.4-5.2,2.1-10.7,2.1-16.8
				c0-7.2-1.3-15.5-3-19.4c-2.2-5-5.8-7.6-10.5-7.6C156,77.1,153.3,78.6,151.2,81.4z"/>
		</g>
		<g>
			<path class="st1" d="M31.5,133.7c0.3-2.1,0.4-4,0.4-6.7v-5.8h-7c-2.1,0-3.3,0.1-4.9,0.5v-4.5c1.6,0.4,2.8,0.5,4.9,0.5h7v-2.9
				l-1.9-3.5h-5.1c-2.1,0-3.3,0.1-4.9,0.5v-4.5c1.6,0.4,2.8,0.5,4.9,0.5h3.3l-7.4-14.2c-1.4-2.7-2.1-4-2.9-5.2H23
				c0.4,1.4,0.8,2.5,2.3,5.5l8.3,16.8L42,94c1.4-2.8,2-4.1,2.3-5.5h5.1c-0.7,1-1.7,2.7-2.9,5.2l-7.3,14.2h3.3c2.1,0,3.4-0.1,5-0.5
				v4.5c-1.6-0.4-2.9-0.5-5-0.5h-5.1l-1.9,3.6v2.8h7c2.1,0,3.3-0.1,4.9-0.5v4.5c-1.6-0.4-2.9-0.5-4.9-0.5h-7v5.8
				c0,3,0.1,4.5,0.4,6.7h-4.4V133.7z"/>
			<path class="st1" d="M61.9,96.7c-0.1,1.5-0.1,1.5-0.5,3.7c3.2-3.8,7.1-5.7,11.7-5.7c4.9,0,9,2,12,5.7c3,3.6,4.5,8.5,4.5,14.7
				c0,13.4-7,22-18,22c-5.2,0-9.5-1.9-12.7-5.7c-1.7-2.1-2.6-3.8-4.2-7.8l5.5-2c0.7,2.3,1.1,3.4,2.1,4.8c2.3,3.2,5.6,4.9,9.5,4.9
				c7.5,0,12.5-6.3,12.5-15.9c0-9.2-4.6-15.2-11.7-15.2c-3.4,0-6.3,1.2-8.7,3.5c-1.6,1.6-2.3,2.7-3.1,5l-5-0.6c0.5-3.2,0.7-5,1-8.6
				l1.5-18.8c0.1-2.4,0.2-3.4,0.2-5c0-1.2,0-1.5-0.1-3.6c2.1,0.3,3.1,0.4,7.1,0.4h13.7c3.6,0,5.1-0.2,7.8-0.7V79
				c-2.5-0.5-4.7-0.7-7.8-0.7H63.3L61.9,96.7z"/>
			<path class="st1" d="M103.6,131.2c-1.8-2.2-3.2-4.8-4-7.7c-1.7-5.8-2.5-12.4-2.5-19.2c0-8.8,1.5-17.8,3.9-22.6
				c3.2-6.7,8.3-10.2,14.9-10.2c4.9,0,9.2,2,12.2,5.9c1.9,2.3,3.2,4.9,4,7.7c1.7,5.7,2.5,12.4,2.5,19.3c0,10.1-1.7,19-4.7,24.1
				c-3.3,5.8-8,8.7-14.1,8.7C110.8,137.1,106.7,135.1,103.6,131.2z M107.4,81.4c-1.4,1.9-2.5,4-3,6.1c-1.4,5.1-2.1,10.7-2.1,16.8
				c0,7.7,1.3,15.9,3.1,19.8c2.3,4.8,5.8,7.2,10.3,7.2c3.3,0,6.2-1.3,8.2-3.9c1.5-1.9,2.5-4.1,3.1-6.5c1.4-5.2,2.1-10.7,2.1-16.8
				c0-7.2-1.3-15.5-3-19.4c-2.2-5-5.8-7.6-10.5-7.6C112.3,77.1,109.6,78.6,107.4,81.4z"/>
			<path class="st1" d="M147.3,131.2c-1.8-2.2-3.2-4.8-4-7.7c-1.7-5.8-2.5-12.4-2.5-19.2c0-8.8,1.5-17.8,3.9-22.6
				c3.2-6.7,8.3-10.2,14.9-10.2c4.9,0,9.2,2,12.2,5.9c1.9,2.3,3.2,4.9,4,7.7c1.7,5.7,2.5,12.4,2.5,19.3c0,10.1-1.7,19-4.7,24.1
				c-3.3,5.8-8,8.7-14.1,8.7C154.6,137.1,150.5,135.1,147.3,131.2z M151.2,81.4c-1.4,1.9-2.5,4-3,6.1c-1.4,5.1-2.1,10.7-2.1,16.8
				c0,7.7,1.3,15.9,3.1,19.8c2.3,4.8,5.8,7.2,10.3,7.2c3.3,0,6.2-1.3,8.2-3.9c1.5-1.9,2.5-4.1,3.1-6.5c1.4-5.2,2.1-10.7,2.1-16.8
				c0-7.2-1.3-15.5-3-19.4c-2.2-5-5.8-7.6-10.5-7.6C156,77.1,153.3,78.6,151.2,81.4z"/>
		</g>
	</g>
	<path class="st0" d="M101.3,202.8C45.5,202.8,0,157.3,0,101.4S45.5,0.1,101.3,0.1s101.3,45.5,101.3,101.3S157.2,202.8,101.3,202.8z
		 M101.3,2.1C46.6,2.1,2,46.7,2,101.4s44.6,99.3,99.3,99.3s99.3-44.6,99.3-99.3S156.1,2.1,101.3,2.1z"/>
</g>
<g>
	<rect x="268.2" y="100.4" class="st0" width="133" height="2"/>
	<polygon class="st0" points="372.7,131.2 371.3,129.8 399.8,101.4 371.3,72.9 372.7,71.5 402.6,101.4 	"/>
</g>
</svg>
