<?xml version="1.0" encoding="utf-8"?>
<!-- Generator: Adobe Illustrator 27.5.0, SVG Export Plug-In . SVG Version: 6.00 Build 0)  -->
<svg version="1.1" id="レイヤー_21" xmlns="http://www.w3.org/2000/svg" xmlns:xlink="http://www.w3.org/1999/xlink" x="0px"
	 y="0px" viewBox="0 0 669.5 174.8" style="enable-background:new 0 0 669.5 174.8;" xml:space="preserve">
<style type="text/css">
	.st0{fill:#727272;}
</style>
<g>
	<rect x="251.1" y="66.1" class="st0" width="54.3" height="2"/>
	<rect x="251.1" y="110.9" class="st0" width="54.3" height="2"/>
</g>
<path class="st0" d="M669.5,174.8H364.8V68.6l24.6-24.7h-24.6V0.1h304.7V174.8z M366.8,172.8h300.7V2.1H366.8v39.8h27.5l-27.5,27.5
	V172.8z"/>
<g>
	<rect x="421.4" y="121.1" class="st0" width="2" height="27"/>
	<rect x="421.4" y="75.4" class="st0" width="2" height="27"/>
	<rect x="421.4" y="29.7" class="st0" width="2" height="27"/>
</g>
<path class="st0" d="M196.4,174.8H0V0h196.4V174.8z M2,172.8h192.4V2H2V172.8z"/>
<path class="st0" d="M170.4,151H26V43.4h144.3L170.4,151L170.4,151z M28,149h140.3V45.4H28V149z"/>
<path class="st0" d="M93.2,63.1v14.7H74.6V63.1H93.2 M95.2,61.1H72.6v18.7h22.5L95.2,61.1L95.2,61.1z"/>
<rect x="102.9" y="61.1" class="st0" width="22.5" height="18.7"/>
<path class="st0" d="M154.5,63.1v14.7H136V63.1H154.5 M156.5,61.1H134v18.7h22.5V61.1L156.5,61.1z"/>
<path class="st0" d="M62.1,89.4v14.7H43.6V89.4H62.1 M64.1,87.4H41.6v18.7h22.5V87.4L64.1,87.4z"/>
<path class="st0" d="M93.2,89.4v14.7H74.6V89.4H93.2 M95.2,87.4H72.6v18.7h22.5L95.2,87.4L95.2,87.4z"/>
<rect x="102.9" y="87.4" class="st0" width="22.5" height="18.7"/>
<path class="st0" d="M154.5,89.4v14.7H136V89.4H154.5 M156.5,87.4H134v18.7h22.5V87.4L156.5,87.4z"/>
<path class="st0" d="M62.1,115.7v14.7H43.6v-14.7H62.1 M64.1,113.7H41.6v18.7h22.5V113.7L64.1,113.7z"/>
<path class="st0" d="M93.2,115.7v14.7H74.6v-14.7H93.2 M95.2,113.7H72.6v18.7h22.5L95.2,113.7L95.2,113.7z"/>
<rect x="102.9" y="113.7" class="st0" width="22.5" height="18.7"/>
<g>
	<path class="st0" d="M457.8,111.7v-10h-11.5v-3.6h11.5v-4.2l-0.8-1.5h-10.7v-3.6h9.1l-9.9-18.6h5.5l9.5,18.9l9.1-18.9h5.3
		l-9.6,18.6h8.8v3.6h-10.6l-0.8,1.6v4.1h11.5v3.6h-11.5v10H457.8z"/>
	<path class="st0" d="M496,111.7V65.6l-13.5,4.6v-5.7l16-5.7h3.9v53H496z"/>
	<path class="st0" d="M512.3,121.5c2.3-2.2,4.1-5.9,4.5-9.8H512v-9.2h9.2v4.8c0,5.7-1.4,11.2-6.1,15.7L512.3,121.5z"/>
	<path class="st0" d="M526.3,111.7V104c15.3-14.6,24.3-21.1,24.3-30.4c0-5.8-3.2-9.7-10.2-9.7c-4.2,0-8.3,1.5-11.4,3.2v-5.8
		c4.5-2.3,8.8-3.4,13.7-3.4c9.2,0,14.6,6.1,14.6,15.3c0,9.7-6.9,16.2-24.7,32.6h26.7v5.8H526.3z"/>
	<path class="st0" d="M563.6,85.5c0-18.1,5.3-27.1,17.6-27.1s17.6,9.2,17.6,27.1c0,17.9-5.3,27.1-17.6,27.1S563.6,103.6,563.6,85.5z
		 M592.1,85.5c0-14.3-3.1-21.7-10.9-21.7c-7.8,0-10.8,7.4-10.8,21.7c0,14.3,2.9,21.8,10.8,21.8C589,107.3,592.1,99.8,592.1,85.5z"/>
	<path class="st0" d="M603.4,85.5c0-18.1,5.3-27.1,17.6-27.1s17.6,9.2,17.6,27.1c0,17.9-5.3,27.1-17.6,27.1S603.4,103.6,603.4,85.5z
		 M631.8,85.5c0-14.3-3.1-21.7-10.9-21.7c-7.8,0-10.8,7.4-10.8,21.7c0,14.3,2.9,21.8,10.8,21.8C628.7,107.3,631.8,99.8,631.8,85.5z"
		/>
</g>
</svg>
