<?xml version="1.0" encoding="utf-8"?>
<!-- Generator: Adobe Illustrator 22.1.0, SVG Export Plug-In . SVG Version: 6.00 Build 0)  -->
<!DOCTYPE svg PUBLIC "-//W3C//DTD SVG 1.1//EN" "http://www.w3.org/Graphics/SVG/1.1/DTD/svg11.dtd" [
	<!ENTITY st0 "fill:#707272;">
]>
<svg version="1.1" id="レイヤー_1" xmlns="http://www.w3.org/2000/svg" xmlns:xlink="http://www.w3.org/1999/xlink" x="0px"
	 y="0px" viewBox="0 0 100 100" style="enable-background:new 0 0 100 100;" xml:space="preserve">
<g>
	<path style="&st0;" d="M70.6,99.8h-6.9V98h6.9c0.2,0,0.5,0,0.7,0l0.1,1.8C71.1,99.8,70.8,99.8,70.6,99.8z M56.9,99.8H50V98h6.9
		V99.8z M43.1,99.8h-6.9V98h6.9V99.8z M29.4,99.8h-6.9V98h6.9V99.8z M15.6,99.7c-2.5-0.4-4.7-1.7-6.4-3.6l1.3-1.2
		c1.4,1.6,3.3,2.6,5.3,3L15.6,99.7z M78.1,96.8l-1.2-1.3c1.5-1.5,2.5-3.4,2.7-5.5l1.8,0.2C81,92.7,79.9,95,78.1,96.8z M6.6,89.3
		l0-0.2v-6.7h1.8l0,6.8L6.6,89.3z M81.3,83.2h-1.8v-6.9h1.8V83.2z M8.3,75.5H6.6v-6.9h1.8V75.5z M81.3,69.5h-1.8v-6.9h1.8V69.5z
		 M8.3,61.8H6.6V55h1.8V61.8z M81.3,55.8h-1.8V49h1.8V55.8z M8.3,48.1H6.6v-6.9h1.8V48.1z M81.3,42.1h-1.8v-6.3c0-0.2,0-0.4,0-0.5
		l1.8-0.1c0,0.2,0,0.4,0,0.6V42.1z M8.4,34.5l-1.8-0.3c0.4-2.5,1.6-4.8,3.5-6.5l1.2,1.3C9.8,30.5,8.7,32.5,8.4,34.5z M77.1,29.7
		c-1.4-1.5-3.4-2.5-5.4-2.8l0.2-1.8c2.5,0.3,4.8,1.5,6.5,3.3L77.1,29.7z M17,26.8l-0.1-1.8c0.1,0,0.3,0,0.4,0h6.5v1.8h-6.5
		C17.2,26.8,17.1,26.8,17,26.8z M64.9,26.8h-6.9V25h6.9V26.8z M51.2,26.8h-6.9V25h6.9V26.8z M37.5,26.8h-6.9V25h6.9V26.8z"/>
	<g>
		
			<rect x="71.9" y="15.3" transform="matrix(0.283 -0.9591 0.9591 0.283 41.9285 89.0864)" style="&st0;" width="17.2" height="2.4"/>
		<path style="&st0;" d="M88.9,14.2c-0.6,0-1.3-0.1-2-0.3c-1.8-0.5-3.3-1.7-4.2-3.4c-0.9-1.6-1.1-3.5-0.6-5.3c1.1-3.7,5-5.9,8.7-4.8
			C92.6,1,94.1,2.1,95,3.8c0.9,1.6,1.1,3.5,0.6,5.3C94.7,12.2,91.9,14.2,88.9,14.2z M88.9,2.5c-2,0-3.9,1.3-4.5,3.3
			c-0.3,1.2-0.2,2.4,0.4,3.5c0.6,1.1,1.6,1.9,2.8,2.2v0c2.5,0.7,5-0.7,5.7-3.2c0.3-1.2,0.2-2.4-0.4-3.5s-1.6-1.9-2.8-2.2
			C89.7,2.6,89.3,2.5,88.9,2.5z"/>
	</g>
	<g>
		
			<rect x="83.1" y="8.6" transform="matrix(0.9317 -0.3633 0.3633 0.9317 -4.0736 32.4638)" style="&st0;" width="2.4" height="36.9"/>
		<path style="&st0;" d="M71.6,16.3c-2.8,0-5.5-1.7-6.5-4.5c-0.7-1.7-0.6-3.7,0.1-5.4c0.8-1.7,2.1-3,3.9-3.7
			c1.7-0.7,3.7-0.6,5.4,0.1c1.7,0.8,3,2.1,3.7,3.9c0.7,1.7,0.6,3.7-0.1,5.4c-0.8,1.7-2.1,3-3.9,3.7l0,0
			C73.3,16.2,72.5,16.3,71.6,16.3z M71.6,4.7c-0.6,0-1.1,0.1-1.7,0.3c-1.2,0.4-2.1,1.3-2.6,2.5c-0.5,1.1-0.5,2.4-0.1,3.5
			c0.9,2.4,3.6,3.6,6,2.6c1.2-0.4,2.1-1.3,2.6-2.5c0.5-1.1,0.5-2.4,0.1-3.5s-1.3-2.1-2.5-2.6C72.9,4.8,72.3,4.7,71.6,4.7z"/>
	</g>
	<g>
		<path style="&st0;" d="M31.2,61.8c-1.3-1.3-2-3.4-2-5.9c0-4.8,2.5-7.6,6.6-7.6c1.9,0,3.5,0.6,4.6,1.7c1.3,1.3,2,3.3,2,5.9
			c0,2.6-0.7,4.7-2,5.9c-1.2,1.2-2.7,1.7-4.6,1.7C34,63.6,32.4,63,31.2,61.8z M53.8,47.9l1.8,1.4L34,76.9l-1.7-1.4L53.8,47.9z
			 M32.8,55.8c0,3.2,1.1,4.9,3.1,4.9c2,0,3.1-1.7,3.1-4.8c0-1.2-0.2-2.5-0.6-3.2c-0.6-1.1-1.4-1.5-2.5-1.5
			C33.9,51.2,32.8,52.8,32.8,55.8z M47.4,74.8c-1.3-1.3-2-3.3-2-5.9c0-2.6,0.7-4.6,2-5.9c1.2-1.1,2.8-1.7,4.7-1.7s3.5,0.6,4.6,1.7
			c1.3,1.3,2,3.3,2,5.9c0,2.6-0.7,4.7-2,5.9c-1.2,1.2-2.7,1.7-4.6,1.7C50.1,76.6,48.5,76,47.4,74.8z M49.8,65.3
			c-0.6,0.9-0.9,2-0.9,3.6c0,3.2,1.1,4.9,3.1,4.9c2.1,0,3.1-1.7,3.1-5c0-1.4-0.3-2.6-0.9-3.4c-0.6-0.8-1.2-1.1-2.2-1.1
			S50.4,64.5,49.8,65.3z"/>
	</g>
</g>
</svg>
