<?xml version="1.0" encoding="utf-8"?>
<!-- Generator: Adobe Illustrator 22.1.0, SVG Export Plug-In . SVG Version: 6.00 Build 0)  -->
<!DOCTYPE svg PUBLIC "-//W3C//DTD SVG 1.1//EN" "http://www.w3.org/Graphics/SVG/1.1/DTD/svg11.dtd" [
	<!ENTITY st0 "fill:#717272;">
]>
<svg version="1.1" id="レイヤー_1" xmlns="http://www.w3.org/2000/svg" xmlns:xlink="http://www.w3.org/1999/xlink" x="0px"
	 y="0px" viewBox="0 0 100 100" style="enable-background:new 0 0 100 100;" xml:space="preserve">
<g>
	<path style="&st0;" d="M14.7,89.4c0.3-1.8,0.4-3.4,0.4-5.6v-4.9H7.8c-2.3,0-3.5,0.1-5.2,0.4v-3.8c1.7,0.3,3,0.4,5.2,0.4h7.4v-2.4
		l-2-3H7.8c-2.3,0-3.5,0.1-5.2,0.4v-3.8c1.7,0.3,3,0.4,5.2,0.4h3.5L3.5,55.7c-1.5-2.3-2.3-3.4-3-4.4h5.4c0.4,1.2,0.9,2.1,2.5,4.6
		L17.1,70l8.7-14.1c1.5-2.4,2.1-3.5,2.4-4.6h5.4c-0.7,0.9-1.8,2.3-3.1,4.4l-7.7,11.9h3.5c2.3,0,3.6-0.1,5.3-0.4v3.8
		c-1.7-0.3-3.1-0.4-5.3-0.4H21l-2,3v2.4h7.4c2.2,0,3.5-0.1,5.2-0.4v3.8c-1.7-0.3-3.1-0.4-5.2-0.4h-7.4v4.9c0,2.5,0.1,3.8,0.4,5.6
		H14.7z"/>
	<path style="&st0;" d="M52.8,82.5c-2.7-2.7-4.8-5.8-6-9.2c-2.5-7-3.8-14.9-3.8-23.2c0-10.6,2.3-21.5,5.8-27.3
		c4.8-8.1,12.5-12.3,22.5-12.3c7.4,0,13.8,2.4,18.3,7.1c2.8,2.8,4.8,5.9,6,9.2c2.5,6.9,3.8,14.9,3.8,23.3c0,12.1-2.6,22.9-7,29
		c-5,7-12,10.5-21.3,10.5C63.8,89.6,57.6,87.2,52.8,82.5z M58.7,22.6c-2.1,2.3-3.7,4.8-4.5,7.3C52,36,51,42.8,51,50.1
		c0,9.3,2,19.1,4.7,23.9c3.5,5.8,8.7,8.7,15.5,8.7c5,0,9.3-1.6,12.3-4.7c2.2-2.3,3.8-4.9,4.7-7.8c2.1-6.2,3.1-12.8,3.1-20.3
		c0-8.7-1.9-18.7-4.5-23.4c-3.3-6-8.7-9.1-15.7-9.1C66,17.4,61.9,19.1,58.7,22.6z"/>
</g>
</svg>
