<?xml version="1.0" encoding="utf-8"?>
<!-- Generator: Adobe Illustrator 22.1.0, SVG Export Plug-In . SVG Version: 6.00 Build 0)  -->
<!DOCTYPE svg PUBLIC "-//W3C//DTD SVG 1.1//EN" "http://www.w3.org/Graphics/SVG/1.1/DTD/svg11.dtd" [
	<!ENTITY st0 "fill:#717272;">
]>
<svg version="1.1" id="レイヤー_1" xmlns="http://www.w3.org/2000/svg" xmlns:xlink="http://www.w3.org/1999/xlink" x="0px"
	 y="0px" viewBox="0 0 100 100" style="enable-background:new 0 0 100 100;" xml:space="preserve">
<g>
	<path style="&st0;" d="M57.1,99.3L50,94.9l-7.1,4.4l-5.6-6.2l-8.1,2.2l-3.6-7.6l-8.4-0.1l-1.3-8.3l-8-2.5L9,68.5l-7-4.6l3.4-7.7
		L0,49.8l5.4-6.4L2,35.7l7-4.6l-1.1-8.3l8-2.5l1.3-8.3l8.4-0.1l3.6-7.6l8.1,2.2l5.6-6.2L50,4.8l7.1-4.4l5.6,6.2l8.1-2.2l3.6,7.6
		l8.4,0.1l1.3,8.3l8,2.5L91,31.1l7,4.6l-3.4,7.7l5.4,6.4l-5.4,6.4l3.4,7.7l-7,4.6l1.1,8.3l-8,2.5l-1.3,8.3l-8.4,0.1l-3.6,7.6
		l-8.1-2.2L57.1,99.3z M50,93.4l6.9,4.3l5.4-6l7.8,2.2l3.5-7.3l8.1-0.1l1.3-8l7.7-2.4l-1-8l6.7-4.5L93.2,56l5.2-6.2l-5.2-6.2
		l3.3-7.4l-6.7-4.5l1-8L83,21.3l-1.3-8l-8.1-0.1l-3.5-7.3L62.3,8l-5.4-6L50,6.2l-6.9-4.3l-5.4,6l-7.8-2.2l-3.5,7.3l-8.1,0.1l-1.3,8
		l-7.7,2.4l1,8l-6.7,4.5l3.3,7.4l-5.2,6.2L6.8,56l-3.3,7.4l6.7,4.5l-1,8l7.7,2.4l1.3,8l8.1,0.1l3.5,7.3l7.8-2.2l5.4,6L50,93.4z"/>
	<g>
		<path style="&st0;" d="M36.9,56.7c-0.3-0.6-0.6-1.1-1.1-1.8l-4.4-6.7c-0.3-0.5-0.8-1.3-1.2-2.1c0,0.2,0,0.2,0.1,0.9
			c0,0.3,0.1,1.1,0.1,1.5v5.6c0,1.2,0.1,2,0.1,2.6h-2.5c0.1-0.6,0.1-1.4,0.1-2.6v-8.9c0-0.9,0-1.5-0.1-2.2h2.7
			c0.2,0.4,0.5,0.9,1.1,1.8l4.4,6.6c0.4,0.6,1,1.5,1.3,2.2c-0.1-0.7-0.1-1.7-0.1-2.4v-5.8c0-1,0-1.7-0.1-2.4h2.5
			c-0.1,0.7-0.1,1.3-0.1,2.4v9.1c0,1,0,1.6,0.1,2.2H36.9z"/>
		<path style="&st0;" d="M52.5,56.8c-0.6-0.1-1.2-0.1-2.2-0.1H45c-1,0-1.5,0-2.2,0.1c0.1-0.7,0.1-1.3,0.1-2.3v-9.3
			c0-0.9,0-1.4-0.1-2.2c0.7,0,1.1,0.1,2.2,0.1h5.2c0.9,0,1.4,0,2.2-0.1v2.3C51.7,45,51.2,45,50.2,45h-5v3.5h4.2c0.9,0,1.5,0,2.2-0.1
			v2.3c-0.7-0.1-1.2-0.1-2.2-0.1h-4.2v4.1h5.2c1,0,1.5,0,2.2-0.1V56.8z"/>
		<path style="&st0;" d="M65.9,56.7c-0.1-0.4-0.2-1.2-0.4-1.7l-1.8-6.4c-0.2-0.7-0.3-1.3-0.5-2.2c-0.2,1-0.4,1.7-0.5,2.2l-1.8,6.4
			c-0.2,0.8-0.3,1.3-0.4,1.7h-2.3c-0.1-0.4-0.1-0.4-0.5-1.8L54.9,45c-0.3-1-0.5-1.5-0.7-2H57c0,0.6,0.1,1.1,0.3,1.9l1.6,6.6
			c0.1,0.5,0.3,1.4,0.4,2c0.2-1.1,0.3-1.5,0.5-2l1.9-6.6c0.2-0.7,0.3-1.3,0.4-1.8h2.1c0.1,0.4,0.2,1.1,0.4,1.7l1.9,6.6
			c0.1,0.4,0.2,0.8,0.5,2.1c0.1-0.4,0.1-0.4,0.2-1c0.1-0.3,0.2-0.9,0.2-1.1l1.6-6.5c0.2-0.7,0.3-1.4,0.3-1.8h2.8
			c-0.2,0.6-0.4,1.1-0.7,2l-2.8,9.9c-0.1,0.5-0.2,0.8-0.2,0.9c-0.1,0.5-0.1,0.5-0.2,0.8H65.9z"/>
	</g>
</g>
</svg>
