<?xml version="1.0" encoding="utf-8"?>
<!-- Generator: Adobe Illustrator 22.1.0, SVG Export Plug-In . SVG Version: 6.00 Build 0)  -->
<!DOCTYPE svg PUBLIC "-//W3C//DTD SVG 1.1//EN" "http://www.w3.org/Graphics/SVG/1.1/DTD/svg11.dtd" [
	<!ENTITY st0 "fill:#0090D5;">
]>
<svg version="1.1" id="レイヤー_1" xmlns="http://www.w3.org/2000/svg" xmlns:xlink="http://www.w3.org/1999/xlink" x="0px"
	 y="0px" width="530.4px" height="33.4px" viewBox="0 0 530.4 33.4" style="enable-background:new 0 0 530.4 33.4;"
	 xml:space="preserve">
<g>
	<g>
		<path style="&st0;" d="M351.6,32.8c0.2-1.4,0.3-2.6,0.3-4.5V9.3c0-1.7-0.1-2.9-0.3-4.5c1.5,0.1,2.6,0.1,4.4,0.1h7.3
			c3.4,0,5.8,0.8,7.5,2.5c1.4,1.4,2.2,3.5,2.2,6c0,2.7-0.8,4.8-2.3,6.4c-1.7,1.7-4.1,2.5-7.5,2.5h-6.7v5.8c0,1.9,0.1,3.2,0.3,4.5
			H351.6z M363.2,18.3c3.2,0,5-1.7,5-4.8c0-1.4-0.4-2.6-1.2-3.4c-0.8-0.9-2-1.3-3.8-1.3h-6.7v9.4H363.2z"/>
		<path style="&st0;" d="M394.3,32.8c-0.1-0.8-0.7-2.6-1.8-5.6c-1.9-4.8-3.1-6.1-5.8-6.1h-5.2v7.1c0,2.1,0.1,3.2,0.3,4.6h-5.2
			c0.2-1.5,0.3-2.4,0.3-4.5V9.3c0-1.9-0.1-2.9-0.3-4.6c1.5,0.1,2.6,0.1,4.5,0.1h8.4c5.3,0,8.4,2.7,8.4,7.3c0,2.2-0.6,4-1.8,5.2
			c-1,1-1.9,1.5-3.9,2c2.2,0.7,2.9,1.7,6.3,9.9c0.3,0.6,1.2,2.5,1.6,3.5H394.3z M388.5,17c1.3,0,2.5-0.5,3.3-1.3
			c0.7-0.7,1.1-1.8,1.1-3.1c0-2.5-1.4-3.8-4.3-3.8h-7.2V17H388.5z"/>
		<path style="&st0;" d="M424.9,7.8c2.6,2.6,3.9,6.4,3.9,10.9c0,8.9-5.1,14.6-13.1,14.6c-7.9,0-13.1-5.7-13.1-14.6
			c0-4.5,1.4-8.4,4-10.9c2.4-2.4,5.3-3.5,9-3.5C419.5,4.3,422.5,5.5,424.9,7.8z M423.9,18.8c0-3.5-1-6.4-2.8-8.2
			c-1.4-1.4-3.3-2.1-5.4-2.1c-5,0-8.2,4-8.2,10.3c0,3.5,1,6.4,2.8,8.3c1.4,1.4,3.3,2.1,5.4,2.1C420.8,29.2,423.9,25.2,423.9,18.8z"
			/>
		<path style="&st0;" d="M456.7,24.3c-0.7,2.5-1.3,3.9-2.3,5.3c-2,2.5-5.4,3.8-9.6,3.8c-3.8,0-6.9-1.2-9-3.4
			c-2.5-2.6-3.8-6.5-3.8-11c0-4.6,1.5-8.7,4.1-11.3c2.1-2.1,5.2-3.3,8.8-3.3c2.7,0,4.8,0.5,6.7,1.7c1.6,1,2.8,2.3,3.7,3.8
			c0.4,0.7,0.7,1.4,1.1,2.7l-4.9,1.1c-0.5-1.5-0.8-2.2-1.5-3c-1.2-1.4-2.9-2.2-5.1-2.2c-5,0-8,3.9-8,10.3c0,6.4,3.1,10.4,8,10.4
			c2.5,0,4.6-0.9,5.7-2.6c0.6-0.9,0.9-1.6,1.2-3.2L456.7,24.3z"/>
		<path style="&st0;" d="M480.5,33c-1.3-0.2-2.4-0.2-4.5-0.2h-10.9c-2.1,0-3,0-4.4,0.1c0.2-1.4,0.3-2.6,0.3-4.6V9.3
			c0-1.8-0.1-2.9-0.3-4.5c1.4,0.1,2.3,0.1,4.4,0.1h10.6c1.8,0,2.9-0.1,4.5-0.2v4.6c-1.3-0.2-2.5-0.2-4.5-0.2h-10.1v7.2h8.5
			c1.8,0,3-0.1,4.6-0.2v4.6c-1.4-0.2-2.4-0.2-4.6-0.2h-8.5v8.3h10.5c2,0,3-0.1,4.5-0.2V33z"/>
		<path style="&st0;" d="M488.8,24.1c0.1,1.6,0.4,2.3,1,3.1c1,1.3,2.8,2.1,5.1,2.1c3.5,0,5.6-1.6,5.6-4.2c0-1.4-0.7-2.6-1.8-3.2
			c-1-0.6-1.3-0.6-6.1-1.7c-2.6-0.6-4-1.2-5.3-2.1c-1.8-1.4-2.7-3.3-2.7-5.7c0-4.9,3.9-8,9.9-8c4,0,7,1.2,8.7,3.5
			c0.9,1.2,1.3,2.2,1.7,4.1l-5,0.6c-0.2-1.2-0.5-1.8-1-2.5c-0.9-1.1-2.5-1.7-4.4-1.7c-3,0-5.1,1.5-5.1,3.8c0,1.5,0.8,2.5,2.4,3.2
			c0.8,0.3,1,0.4,4.9,1.3c2.8,0.6,4.4,1.3,5.7,2.1c2,1.5,2.9,3.4,2.9,6c0,2.5-0.8,4.5-2.2,6c-1.9,1.8-4.6,2.7-8.4,2.7
			c-2.9,0-5.7-0.7-7.4-1.8c-1.4-0.9-2.4-2.3-3.1-4c-0.3-0.8-0.5-1.5-0.7-2.9L488.8,24.1z"/>
		<path style="&st0;" d="M513.8,24.1c0.1,1.6,0.4,2.3,1,3.1c1,1.3,2.8,2.1,5.1,2.1c3.5,0,5.6-1.6,5.6-4.2c0-1.4-0.7-2.6-1.8-3.2
			c-1-0.6-1.3-0.6-6.1-1.7c-2.6-0.6-4-1.2-5.3-2.1c-1.8-1.4-2.7-3.3-2.7-5.7c0-4.9,3.9-8,9.9-8c4,0,7,1.2,8.7,3.5
			c0.9,1.2,1.3,2.2,1.7,4.1l-5,0.6c-0.2-1.2-0.5-1.8-1-2.5c-0.9-1.1-2.5-1.7-4.4-1.7c-3,0-5.1,1.5-5.1,3.8c0,1.5,0.8,2.5,2.4,3.2
			c0.8,0.3,1,0.4,4.9,1.3c2.8,0.6,4.4,1.3,5.7,2.1c2,1.5,2.9,3.4,2.9,6c0,2.5-0.8,4.5-2.2,6c-1.9,1.8-4.6,2.7-8.4,2.7
			c-2.9,0-5.7-0.7-7.4-1.8c-1.4-0.9-2.4-2.3-3.1-4c-0.3-0.8-0.5-1.5-0.7-2.9L513.8,24.1z"/>
	</g>
	<g>
		<path style="&st0;" d="M71.5,0.3v33h-9.3V9.4h-1.9c-0.5,1-11.7,23.9-11.7,23.9h-7.7c0,0-11.2-22.9-11.7-23.9h-1.9v23.9h-9.4v-33
			h16.8c0,0,8.6,17,10.1,19.8c1.4-2.8,10-19.8,10-19.8H71.5z M0,33.4h10.5v-33H0V33.4z M90.1,0.3h14.8h0.6l16.8,33h-11.1
			c0,0-2.4-4.8-2.9-5.6h-21c-0.4,0.8-2.9,5.6-2.9,5.6H73.3L90.1,0.3z M97.3,7.8c-0.4,0.9-5.3,10.4-6.4,12.5h13.8
			c-1.1-2.1-5.9-11.7-6.3-12.5H97.3z M166.7,0.3H156c0,0-7.8,9.3-9,10.8c-1.2-1.5-8.9-10.8-8.9-10.8h-12.9c0,0,12.1,14.4,13.1,15.5
			c-1,1.1-15.5,17.6-15.5,17.6h13.7c0,0,9.3-10.6,10.6-12c1.2,1.4,10.4,12,10.4,12h13.7c0,0-14.5-16.5-15.5-17.6
			c1-1.1,13.1-15.5,13.1-15.5H166.7z"/>
		<g>
			<g>
				<path style="&st0;" d="M190.1,0.5h30.4c10.1,0,13.6,3.3,13.6,11.4v10c0,8.1-3.5,11.4-13.6,11.4h-30.4V0.5z M200.2,24.9H218
					c4.3,0,6-1.2,6-5.9v-4.4c0-4.7-1.7-5.9-6-5.9h-17.9V24.9z"/>
				<path style="&st0;" d="M237.4,0.5h15.5l11.4,21.1l11.4-21.1h15.5v32.8h-9.8V9.7h-0.1L268,33.3h-7.5L247.3,9.7h-0.1v23.6h-9.8
					V0.5z"/>
				<path style="&st0;" d="M295.2,0.5h30.4c7.8,0,9.8,3.9,9.8,9.7v2.1c0,4.4-1,7-5.6,8.1v0.1c3,0.5,5.5,1.9,5.5,7.2v5.6h-10.1v-3.9
					c0-3.4-1-4.6-4.1-4.6h-15.8v8.5h-10.1V0.5z M305.3,16.6h16.6c2.7,0,3.7-1.1,3.7-3.4v-1.1c0-2.9-1.5-3.4-4.6-3.4h-15.7V16.6z"/>
			</g>
		</g>
		<g>
			<path style="&st0;" d="M342.4,0c-2.1,0-3.7,1.7-3.7,3.8c0,2.1,1.7,3.8,3.7,3.8c2.1,0,3.7-1.7,3.7-3.8C346.1,1.7,344.5,0,342.4,0z
				 M342.4,6.9c-1.7,0-3.1-1.4-3.1-3.1c0-1.7,1.4-3.1,3.1-3.1c1.8,0,3.1,1.4,3.1,3.1C345.5,5.5,344.1,6.9,342.4,6.9z"/>
			<path style="&st0;" d="M344.1,2.9c0-0.9-0.3-1.2-1.2-1.2h-2.1v4.1h0.8V4.4h1.2c0.4,0,0.5,0.2,0.5,0.6v0.8h0.8V5
				c0-0.6-0.1-0.9-0.7-0.9v0C344.1,3.9,344.1,3.5,344.1,2.9z M342.6,3.7h-1V2.3h1.1c0.6,0,0.7,0.1,0.7,0.7
				C343.3,3.6,343.2,3.7,342.6,3.7z"/>
		</g>
	</g>
</g>
</svg>
