<?xml version="1.0" encoding="utf-8"?>
<!-- Generator: Adobe Illustrator 22.1.0, SVG Export Plug-In . SVG Version: 6.00 Build 0)  -->
<!DOCTYPE svg PUBLIC "-//W3C//DTD SVG 1.1//EN" "http://www.w3.org/Graphics/SVG/1.1/DTD/svg11.dtd" [
	<!ENTITY st0 "fill:#0090D5;">
	<!ENTITY st1 "fill:none;stroke:#0090D5;stroke-width:0.6509;">
	<!ENTITY st2 "stroke:#000000;stroke-width:0.6509;">
]>
<svg version="1.1" id="レイヤー_1" xmlns="http://www.w3.org/2000/svg" xmlns:xlink="http://www.w3.org/1999/xlink" x="0px"
	 y="0px" width="363px" height="33.1px" viewBox="0 0 363 33.1" style="enable-background:new 0 0 363 33.1;" xml:space="preserve">
<g>
	<path style="&st0;" d="M53.9,0.1c0,0-8.5,17-9.9,19.7C42.6,17,34.1,0.1,34.1,0.1H17.6v33h9.2c0,0,0-22.1,0-23.9c0.7,0,1.3,0,1.9,0
		c0.5,1,11.5,23.9,11.5,23.9h7.6c0,0,11-22.9,11.5-23.9c0.5,0,1.1,0,1.9,0c0,1.7,0,23.9,0,23.9h9.2v-33C70.4,0.1,53.9,0.1,53.9,0.1z
		"/>
	<path style="&st0;" d="M0,0.1v33h10.4v-33C10.4,0.1,0,0.1,0,0.1z"/>
	<path style="&st0;" d="M72.2,33.1h10.9c0,0,2.4-4.8,2.8-5.6c1,0,19.6,0,20.7,0c0.4,0.8,2.8,5.6,2.8,5.6h10.9l-16.5-33h-0.6H88.8
		L72.2,33.1z M96.9,7.6c0.4,0.9,5.2,10.4,6.3,12.5c-2.2,0-11.3,0-13.6,0c1.1-2.1,5.8-11.7,6.3-12.5C96.2,7.6,96.5,7.6,96.9,7.6z"/>
	<path style="&st0;" d="M164.2,0.1h-10.6c0,0-7.7,9.3-8.9,10.7C143.5,9.3,136,0.1,136,0.1h-12.7c0,0,11.9,14.3,12.9,15.5
		c-1,1.1-15.3,17.5-15.3,17.5h13.5c0,0,9.2-10.6,10.4-12c1.2,1.4,10.3,12,10.3,12h13.5c0,0-14.3-16.4-15.3-17.5
		c0.9-1.1,12.9-15.5,12.9-15.5S164.2,0.1,164.2,0.1z"/>
	<g>
		<path style="&st1;" d="M171.3,7.7c2,0,3.7-1.7,3.7-3.7c0-2.1-1.6-3.7-3.7-3.7c-2,0-3.7,1.7-3.7,3.7S169.3,7.7,171.3,7.7z"/>
		<path style="&st2;" d="M171.3,4"/>
		<path style="&st0;" d="M170.5,4.7v1.5h-0.8V1.7h2.2c1,0,1.3,0.3,1.3,1.3c0,0.7,0,1.1-0.8,1.2l0,0c0.6,0.1,0.7,0.4,0.7,1V6h-0.8
			V5.3c0-0.4-0.2-0.6-0.6-0.6H170.5z M171.6,3.9c0.6,0,0.8-0.1,0.8-0.8c0-0.6-0.1-0.7-0.7-0.7h-1.2v1.5H171.6z"/>
	</g>
</g>
<g>
	<path style="&st0;" d="M219.8,24.1c-0.7,2.5-1.3,3.9-2.3,5.2c-2,2.5-5.4,3.8-9.6,3.8c-3.8,0-6.9-1.2-9-3.4c-2.5-2.6-3.8-6.5-3.8-11
		c0-4.6,1.5-8.7,4.1-11.3c2.1-2.1,5.3-3.3,8.8-3.3c2.7,0,4.8,0.5,6.7,1.7c1.6,1,2.8,2.3,3.7,3.8c0.4,0.7,0.7,1.4,1.1,2.7l-4.9,1.1
		c-0.5-1.5-0.8-2.2-1.5-3c-1.2-1.4-2.9-2.2-5.1-2.2c-5,0-8,3.9-8,10.3c0,6.4,3.1,10.4,8,10.4c2.5,0,4.6-0.9,5.7-2.6
		c0.6-0.9,0.9-1.6,1.2-3.2L219.8,24.1z"/>
	<path style="&st0;" d="M243.4,32.6c-0.2-1.2-0.6-2.7-1-3.7l-1.4-3.8h-11.2l-1.4,3.8c-0.6,1.7-0.8,2.2-1,3.7h-5.7
		c0.5-0.9,1.2-2.5,1.9-4.1l7.7-20.2c0.7-1.7,0.9-2.6,1.1-3.5h6.1c0.2,0.8,0.4,1.4,1.2,3.5l7.8,20.2c0.9,2.2,1.3,3.2,1.8,4.1H243.4z
		 M236,10.7c-0.1-0.4-0.2-0.8-0.6-2c-0.6,1.6-0.6,1.6-0.7,2L231.1,21h8.7L236,10.7z"/>
	<path style="&st0;" d="M264.7,32.6c-0.2-1.1-0.7-2.8-1.5-4.7l-5-12c-0.7-1.6-1-2.5-1.8-5.4c0.1,1.9,0.3,4.7,0.3,5.5v11.5
		c0,2.4,0.1,3.7,0.3,5.1H252c0.2-1.4,0.3-2.8,0.3-5.1V9.9c0-2.3-0.1-3.7-0.3-5.2h6.4c0.2,1.2,0.7,2.7,1.3,4.2l7.1,17.4l7.1-17.4
		c0.7-1.7,1-2.8,1.3-4.2h6.4c-0.2,1.7-0.3,2.8-0.3,5.2v17.6c0,2.6,0.1,3.8,0.3,5.1h-4.9c0.2-1.4,0.3-2.7,0.3-5.1V15.8
		c0.1-3,0.2-4.8,0.3-5.4c-0.5,1.9-1.1,3.9-1.6,5.1l-5.2,12.3c-0.7,1.6-1.3,3.6-1.5,4.7H264.7z"/>
	<path style="&st0;" d="M306.4,32.8c-1.3-0.2-2.4-0.2-4.5-0.2H291c-2.1,0-3,0-4.4,0.1c0.2-1.4,0.3-2.6,0.3-4.6V9.1
		c0-1.8-0.1-2.9-0.3-4.5c1.4,0.1,2.3,0.1,4.4,0.1h10.6c1.8,0,2.9-0.1,4.5-0.2v4.6c-1.3-0.2-2.5-0.2-4.5-0.2h-10.1V16h8.5
		c1.8,0,3-0.1,4.6-0.2v4.6c-1.4-0.2-2.4-0.2-4.6-0.2h-8.5v8.3H302c2,0,3-0.1,4.5-0.2V32.8z"/>
	<path style="&st0;" d="M328.3,32.6c-0.1-0.8-0.7-2.6-1.8-5.6c-1.9-4.8-3.1-6.1-5.8-6.1h-5.2V28c0,2.1,0.1,3.2,0.3,4.6h-5.2
		c0.2-1.5,0.3-2.4,0.3-4.6V9.1c0-1.9-0.1-2.9-0.3-4.5c1.5,0.1,2.6,0.1,4.5,0.1h8.4c5.3,0,8.4,2.7,8.4,7.3c0,2.2-0.6,4-1.8,5.2
		c-1,1-1.9,1.5-3.9,2c2.2,0.7,2.9,1.7,6.3,9.9c0.3,0.6,1.2,2.5,1.6,3.5H328.3z M322.5,16.8c1.3,0,2.5-0.5,3.3-1.3
		c0.7-0.7,1.1-1.8,1.1-3.1c0-2.5-1.4-3.8-4.3-3.8h-7.2v8.2H322.5z"/>
	<path style="&st0;" d="M357.3,32.6c-0.2-1.2-0.6-2.7-1-3.7l-1.4-3.8h-11.2l-1.4,3.8c-0.6,1.7-0.8,2.2-1,3.7h-5.7
		c0.5-0.9,1.2-2.5,1.9-4.1l7.7-20.2c0.7-1.7,0.9-2.6,1.1-3.5h6.1c0.2,0.8,0.4,1.4,1.2,3.5l7.8,20.2c0.9,2.2,1.3,3.2,1.8,4.1H357.3z
		 M349.9,10.7c-0.1-0.4-0.2-0.8-0.6-2c-0.6,1.6-0.6,1.6-0.7,2L344.9,21h8.7L349.9,10.7z"/>
</g>
</svg>
