<?xml version="1.0" encoding="utf-8"?>
<!-- Generator: Adobe Illustrator 22.1.0, SVG Export Plug-In . SVG Version: 6.00 Build 0)  -->
<!DOCTYPE svg PUBLIC "-//W3C//DTD SVG 1.1//EN" "http://www.w3.org/Graphics/SVG/1.1/DTD/svg11.dtd" [
	<!ENTITY st0 "fill:#0090D5;">
	<!ENTITY st1 "fill:none;stroke:#0090D5;stroke-width:0.6509;">
	<!ENTITY st2 "stroke:#000000;stroke-width:0.6509;">
	<!ENTITY st3 "fill:#0090D5;stroke:#0090D5;stroke-width:0;">
]>
<svg version="1.1" id="レイヤー_1" xmlns="http://www.w3.org/2000/svg" xmlns:xlink="http://www.w3.org/1999/xlink" x="0px"
	 y="0px" width="523.7px" height="33.8px" viewBox="0 0 523.7 33.8" style="enable-background:new 0 0 523.7 33.8;"
	 xml:space="preserve">
<g>
	<path style="&st0;" d="M53.9,0.2c0,0-8.5,17-9.9,19.7c-1.4-2.8-9.9-19.7-9.9-19.7H17.6v33h9.2c0,0,0-22.1,0-23.9c0.7,0,1.3,0,1.9,0
		c0.5,1,11.5,23.9,11.5,23.9h7.6c0,0,11-22.9,11.5-23.9c0.5,0,1.1,0,1.9,0c0,1.7,0,23.9,0,23.9h9.2v-33H53.9z"/>
	<path style="&st0;" d="M0,0.2v33h10.4v-33H0z"/>
	<path style="&st0;" d="M72.2,33.2h10.9c0,0,2.4-4.8,2.8-5.6c1,0,19.6,0,20.7,0c0.4,0.8,2.8,5.6,2.8,5.6h10.9l-16.5-33l-0.6,0H88.8
		L72.2,33.2z M96.9,7.7c0.4,0.9,5.2,10.4,6.3,12.5c-2.2,0-11.3,0-13.6,0c1.1-2.1,5.8-11.7,6.3-12.5C96.2,7.7,96.5,7.7,96.9,7.7z"/>
	<path style="&st0;" d="M164.2,0.2h-10.6c0,0-7.7,9.3-8.9,10.7c-1.2-1.5-8.7-10.7-8.7-10.7h-12.7c0,0,11.9,14.3,12.9,15.5
		c-1,1.1-15.3,17.5-15.3,17.5h13.5c0,0,9.2-10.6,10.4-12c1.2,1.4,10.3,12,10.3,12h13.5c0,0-14.3-16.4-15.3-17.5
		c0.9-1.1,12.9-15.5,12.9-15.5H164.2z"/>
	<g>
		<path style="&st1;" d="M171.3,7.8c2,0,3.7-1.7,3.7-3.7c0-2.1-1.6-3.7-3.7-3.7c-2,0-3.7,1.7-3.7,3.7C167.6,6.1,169.3,7.8,171.3,7.8
			z"/>
		<path style="&st2;" d="M171.3,4.1"/>
		<path style="&st3;" d="M170.5,4.8v1.5h-0.8V1.8h2.2c1,0,1.3,0.3,1.3,1.3c0,0.7,0,1.1-0.8,1.2v0c0.6,0.1,0.7,0.4,0.7,1v0.8h-0.8
			V5.4c0-0.4-0.2-0.6-0.6-0.6H170.5z M171.6,4c0.6,0,0.8-0.1,0.8-0.8c0-0.6-0.1-0.7-0.7-0.7h-1.2V4H171.6z"/>
	</g>
</g>
<g>
	<path style="&st0;" d="M203.6,28.7c0,1.9,0.1,3.1,0.3,4.6h-5.3c0.2-1.5,0.3-2.7,0.3-4.6V9.6h-4.7c-2.1,0-3.6,0.1-4.8,0.2V5.1
		c1.3,0.2,2.8,0.2,4.8,0.2H208c2.5,0,3.8-0.1,5.1-0.2v4.7c-1.3-0.2-2.6-0.2-5.1-0.2h-4.4V28.7z"/>
	<path style="&st0;" d="M240.1,5.4c-0.2,1.4-0.3,2.5-0.3,4.5v18.9c0,2,0.1,3,0.3,4.5h-5.2c0.2-1.4,0.3-2.5,0.3-4.5v-7.9h-14.1v7.9
		c0,2,0.1,3.1,0.3,4.5h-5.2c0.2-1.3,0.3-2.5,0.3-4.5V9.9c0-2.1-0.1-3.2-0.3-4.5h5.2c-0.2,1.5-0.3,2.6-0.3,4.5v6.8h14.1V9.9
		c0-2-0.1-3.3-0.3-4.5H240.1z"/>
	<path style="&st0;" d="M264.9,33.5c-1.3-0.2-2.4-0.2-4.5-0.2h-10.9c-2.1,0-3,0-4.4,0.1c0.2-1.4,0.3-2.6,0.3-4.6V9.8
		c0-1.8-0.1-2.9-0.3-4.5c1.4,0.1,2.3,0.1,4.4,0.1h10.6c1.8,0,2.9-0.1,4.5-0.2v4.6c-1.3-0.2-2.5-0.2-4.5-0.2H250v7.2h8.5
		c1.8,0,3-0.1,4.6-0.2v4.6c-1.4-0.2-2.4-0.2-4.6-0.2h-8.5v8.3h10.5c2,0,3-0.1,4.5-0.2V33.5z"/>
	<path style="&st0;" d="M288.7,33.2c-0.2-1.2-0.6-2.7-1-3.7l-1.4-3.8h-11.2l-1.4,3.8c-0.6,1.7-0.8,2.2-1,3.7h-5.7
		c0.5-0.9,1.2-2.5,1.9-4.1l7.7-20.2c0.7-1.8,0.9-2.6,1.1-3.5h6.1c0.2,0.8,0.4,1.4,1.2,3.5l7.8,20.2c0.9,2.2,1.3,3.2,1.8,4.1H288.7z
		 M281.3,11.4c-0.1-0.4-0.2-0.8-0.6-2c-0.6,1.6-0.6,1.6-0.7,2l-3.6,10.4h8.7L281.3,11.4z"/>
	<path style="&st0;" d="M309.6,28.7c0,1.9,0.1,3.1,0.3,4.6h-5.3c0.2-1.5,0.3-2.7,0.3-4.6V9.6h-4.7c-2.1,0-3.6,0.1-4.8,0.2V5.1
		c1.3,0.2,2.8,0.2,4.8,0.2H314c2.5,0,3.8-0.1,5.1-0.2v4.7c-1.3-0.2-2.6-0.2-5.1-0.2h-4.4V28.7z"/>
	<path style="&st0;" d="M342,33.5c-1.3-0.2-2.4-0.2-4.5-0.2h-10.9c-2.1,0-3,0-4.4,0.1c0.2-1.4,0.3-2.6,0.3-4.6V9.8
		c0-1.8-0.1-2.9-0.3-4.5c1.4,0.1,2.3,0.1,4.4,0.1h10.6c1.8,0,2.9-0.1,4.5-0.2v4.6c-1.3-0.2-2.5-0.2-4.5-0.2H327v7.2h8.5
		c1.8,0,3-0.1,4.6-0.2v4.6c-1.4-0.2-2.4-0.2-4.6-0.2H327v8.3h10.5c2,0,3-0.1,4.5-0.2V33.5z"/>
	<path style="&st0;" d="M363.9,33.2c-0.1-0.8-0.7-2.6-1.8-5.6c-1.9-4.8-3.1-6.1-5.8-6.1H351v7.1c0,2.1,0.1,3.2,0.3,4.6h-5.2
		c0.2-1.5,0.3-2.4,0.3-4.6V9.8c0-1.9-0.1-2.9-0.3-4.6c1.5,0.1,2.6,0.1,4.5,0.1h8.4c5.3,0,8.4,2.7,8.4,7.3c0,2.2-0.6,4-1.8,5.2
		c-1,1-1.9,1.5-3.9,2c2.2,0.7,2.9,1.7,6.3,9.9c0.3,0.6,1.2,2.5,1.6,3.5H363.9z M358.1,17.5c1.3,0,2.5-0.5,3.3-1.3
		c0.7-0.7,1.1-1.7,1.1-3.1c0-2.5-1.4-3.8-4.3-3.8H351v8.2H358.1z"/>
	<path style="&st0;" d="M385.1,9.8c0-2-0.1-3-0.3-4.6c1.4,0.1,2.2,0.1,4.4,0.1h6.3c4.4,0,7.2,0.9,9.5,3.1c2.6,2.4,3.9,6.1,3.9,10.6
		c0,4.8-1.4,8.5-4.1,11.1c-2.2,2.1-5,3-9.2,3h-6.4c-2.1,0-3,0-4.4,0.1c0.2-1.4,0.3-2.5,0.3-4.6V9.8z M395.3,29.1
		c2.9,0,4.7-0.7,6.2-2.2c1.7-1.8,2.6-4.5,2.6-7.8c0-3.3-0.8-5.8-2.4-7.5c-1.4-1.5-3.3-2.1-6.3-2.1h-5.6v19.6H395.3z"/>
	<path style="&st0;" d="M432.9,33.5c-1.3-0.2-2.4-0.2-4.5-0.2h-10.9c-2.1,0-3,0-4.4,0.1c0.2-1.4,0.3-2.6,0.3-4.6V9.8
		c0-1.8-0.1-2.9-0.3-4.5c1.4,0.1,2.3,0.1,4.4,0.1H428c1.8,0,2.9-0.1,4.5-0.2v4.6c-1.3-0.2-2.5-0.2-4.5-0.2h-10.1v7.2h8.5
		c1.8,0,3-0.1,4.6-0.2v4.6c-1.4-0.2-2.4-0.2-4.6-0.2h-8.5v8.3h10.5c2,0,3-0.1,4.5-0.2V33.5z"/>
	<path style="&st0;" d="M441.1,24.6c0.1,1.6,0.4,2.3,1,3.1c1,1.3,2.8,2.1,5.1,2.1c3.5,0,5.6-1.6,5.6-4.2c0-1.4-0.7-2.6-1.8-3.2
		c-1-0.6-1.3-0.6-6.1-1.7c-2.6-0.6-4-1.2-5.3-2.1c-1.8-1.4-2.7-3.3-2.7-5.7c0-4.9,3.9-8,9.9-8c4,0,7,1.2,8.7,3.5
		c0.9,1.2,1.3,2.2,1.7,4.1l-5,0.6c-0.2-1.2-0.5-1.8-1-2.5c-0.9-1.1-2.5-1.7-4.4-1.7c-3,0-5.1,1.5-5.1,3.8c0,1.5,0.8,2.5,2.4,3.2
		c0.8,0.3,1,0.4,4.9,1.3c2.8,0.6,4.4,1.3,5.7,2.1c2,1.5,2.9,3.4,2.9,6c0,2.5-0.8,4.5-2.2,6c-1.9,1.8-4.6,2.7-8.4,2.7
		c-2.9,0-5.7-0.7-7.4-1.8c-1.4-0.9-2.4-2.3-3.1-4c-0.3-0.8-0.5-1.5-0.7-2.9L441.1,24.6z"/>
	<path style="&st0;" d="M467.3,5.4c-0.2,1.3-0.3,2.4-0.3,4.5v18.8c0,2.1,0.1,3.2,0.3,4.5H462c0.2-1.3,0.3-2.5,0.3-4.5V9.9
		c0-2.2-0.1-3.1-0.3-4.5H467.3z"/>
	<path style="&st0;" d="M495.1,26.1c0,2.1,0,3,0.2,4.6c-2.5,1.4-3.7,1.9-5.6,2.4c-1.6,0.4-3.4,0.7-5.1,0.7c-4.4,0-7.7-1.4-9.9-4
		c-2.1-2.5-3.3-6.3-3.3-10.6c0-5.6,2-9.8,5.6-12.3c2.2-1.4,4.6-2.1,7.8-2.1c3.2,0,6.1,1.1,8.1,3c1.2,1.2,1.9,2.2,2.6,4.2l-4.8,1.3
		c-1.2-3.2-2.8-4.3-6.4-4.3c-2.1,0-4,0.8-5.3,2.1c-1.8,1.8-2.6,4.4-2.6,8c0,3.6,0.8,6.3,2.4,8.2c1.4,1.7,3.3,2.4,6.1,2.4
		c2.4,0,4.2-0.5,6-1.6v-5.7h-1.9c-1.8,0-2.5,0-3.6,0.2V18c1.3,0.2,2,0.2,4.2,0.2h1.8c1.6,0,2.6,0,4.1-0.1c-0.2,1.3-0.2,2.4-0.2,4.3
		V26.1z"/>
	<path style="&st0;" d="M518.1,33.2c-0.6-1.2-1.2-2.2-2.2-3.7l-9-13.6c-0.7-1.1-1.5-2.6-2.4-4.2c0,0.5,0,0.5,0.1,1.8
		c0,0.7,0.1,2.2,0.1,3V28c0,2.3,0.1,4,0.3,5.2h-5.1c0.2-1.2,0.3-2.9,0.3-5.3V9.9c0-1.8-0.1-3.1-0.3-4.5h5.5c0.3,0.9,0.9,1.9,2.1,3.7
		l8.9,13.3c0.8,1.3,2,3.1,2.7,4.5c-0.1-1.4-0.2-3.5-0.2-4.9V10.2c0-2.1-0.1-3.5-0.3-4.8h5.1c-0.2,1.4-0.3,2.7-0.3,4.8v18.5
		c0,2,0.1,3.3,0.3,4.5H518.1z"/>
</g>
</svg>
